<?xml version="1.0" standalone="no"?>
<!DOCTYPE svg PUBLIC "-//W3C//DTD SVG 1.1//EN" "http://www.w3.org/Graphics/SVG/1.1/DTD/svg11.dtd" >
<svg xmlns="http://www.w3.org/2000/svg">
<metadata></metadata>
<defs>
<font id="libertadbold" horiz-adv-x="1657" >
<font-face units-per-em="2048" ascent="1638" descent="-410" />
<missing-glyph horiz-adv-x="441" />
<glyph unicode="&#x31;&#x2f;&#x34;" horiz-adv-x="1364" d="M1270 1255l-993 -1275l-142 101l993 1276zM244 911v260q-14 -2 -32.5 -4.5t-38 -5t-37.5 -4.5t-31 -3l-18 153q31 4 66.5 9t71 11t70.5 11.5t66 11.5h78v-439l129 -4v-156h-475v156zM1127 579v-344h89v-135h-89v-100h-181v100h-265v123l271 356h175zM946 235v127 l-95 -127h95z" />
<glyph unicode="&#x31;&#x2f;&#x32;" horiz-adv-x="1391" d="M1270 1255l-993 -1275l-142 101l993 1276zM841 149q61 35 107 63.5t77 54t46.5 50t15.5 51.5q0 32 -18 48.5t-50 16.5q-22 0 -43.5 -4t-40 -10t-32.5 -12l-21 -9l-43 145q8 6 27.5 15.5t47.5 18.5t62 15.5t71 6.5q63 0 108 -16t74 -43t43 -64t14 -79q0 -41 -14.5 -75.5 t-41 -64t-64 -53.5t-82.5 -45h225v-159h-468v149zM244 911v260q-14 -2 -32.5 -4.5t-38 -5t-37.5 -4.5t-31 -3l-18 153q31 4 66.5 9t71 11t70.5 11.5t66 11.5h78v-439l129 -4v-156h-475v156z" />
<glyph unicode="&#x33;&#x2f;&#x34;" horiz-adv-x="1328" d="M1234 1255l-993 -1275l-142 101l992 1276zM1090 579v-344h89v-135h-89v-100h-181v100h-265v123l271 356h175zM347 1148q0 23 -19.5 38t-60.5 15q-35 0 -68 -8t-53 -18l-36 133q8 5 24.5 12t40.5 14t54.5 11.5t65.5 4.5q61 0 107 -12.5t77 -35.5t46 -55t15 -70 q0 -27 -7.5 -47t-18.5 -34.5t-23 -24t-22 -15.5q12 -6 27 -16t29 -26.5t23.5 -39.5t9.5 -54q0 -94 -70.5 -141.5t-198.5 -47.5q-29 0 -58 4t-54 9.5t-44 12t-29 12.5l36 136q16 -6 52.5 -15.5t85.5 -9.5q89 0 89 53q0 54 -74 54h-93v114h125q8 7 15 17.5t7 29.5zM909 235 v127l-95 -127h95z" />
<glyph unicode="ff" horiz-adv-x="1274" d="M1024 1024h245v-199h-239v-825h-266v825h-338v-1221h-265v1221h-150v180l154 10v103q0 80 24.5 146.5t72 114.5t116.5 74.5t158 26.5q32 0 61.5 -3.5t55 -8t45 -10t30.5 -9.5l-43 -194q-13 4 -47 9.5t-72 5.5q-71 0 -108 -40.5t-37 -127.5v-78h347v94q0 81 25 148 t73 114.5t118.5 73.5t161.5 26q75 0 128.5 -13t87.5 -25l-43 -194q-21 7 -57.5 14.5t-79.5 7.5q-78 0 -118 -40t-40 -128v-78z" />
<glyph unicode="f&#x131;" horiz-adv-x="1142" d="M421 1024h584v-1024h-266v825h-313v-1221h-265v1221h-150v180l154 10v93q0 83 31.5 151.5t91.5 117.5t148 76t201 27q60 0 110.5 -5.5t90.5 -13t68 -15.5t42 -13l-49 -194q-29 8 -94.5 19.5t-149.5 11.5q-55 0 -98.5 -9.5t-73.5 -30.5t-46 -55t-16 -82v-69z" />
<glyph unicode="fl" horiz-adv-x="1188" d="M421 1024h206v-199h-201v-1221h-265v1221h-150v180l154 10v84q0 85 33 155.5t96 120.5t155 77.5t209 27.5q64 0 127.5 -7t116.5 -16.5t92 -19t56 -14.5v-1423h-265v1257q-27 5 -63 9t-77 4q-51 0 -92 -9.5t-70.5 -31.5t-45.5 -58t-16 -88v-59z" />
<glyph unicode="ff&#x131;" horiz-adv-x="1746" d="M421 1024h347v84q0 83 31.5 151.5t91.5 117.5t148 76t202 27q60 0 110.5 -5.5t90 -13t67.5 -15.5t43 -13l-49 -194q-14 4 -38.5 9t-56.5 10t-70 8.5t-80 3.5q-55 0 -98.5 -9.5t-73.5 -30.5t-46 -55t-16 -82v-69h584v-1024h-265v825h-313v-1221h-266v1221h-338v-1221h-265 v1221h-150v180l154 10v103q0 80 24.5 146.5t72 114.5t116.5 74.5t158 26.5q32 0 61.5 -3.5t55 -8t45 -10t30.5 -9.5l-43 -194q-13 4 -47 9.5t-72 5.5q-72 0 -108.5 -41t-36.5 -127v-78z" />
<glyph unicode="ffl" horiz-adv-x="1791" d="M1024 1024h207v-199h-201v-825h-266v825h-338v-1221h-265v1221h-150v180l154 10v103q0 80 24.5 146.5t72 114.5t116.5 74.5t158 26.5q32 0 61.5 -3.5t55 -8t45 -10t30.5 -9.5l-43 -194q-13 4 -47 9.5t-72 5.5q-71 0 -108 -40.5t-37 -127.5v-78h347v75q0 85 33 155.5 t96.5 120.5t155.5 77.5t209 27.5q64 0 127 -7t116 -16.5t92.5 -19t56.5 -14.5v-1423h-266v1257q-27 5 -63 9t-77 4q-50 0 -91.5 -9.5t-71 -31.5t-45.5 -58t-16 -88v-59z" />
<glyph unicode="&#x2d;&#x3e;" horiz-adv-x="1798" d="M1102 1063l552 -551l-552 -551l-149 149l403 402l-403 402zM144 618h899v-211h-899v211z" />
<glyph unicode="fb" horiz-adv-x="1783" d="M421 1024h206v-199h-201v-825h-265v825h-150v180l154 10v84q0 85 33 155.5t96 120.5t155 77.5t209 27.5q64 0 127.5 -7t116.5 -16.5t92 -19t56 -14.5v-458q32 20 77.5 39.5t99.5 28.5q59 11 118 5q90 -8 160.5 -48.5t119 -108t74.5 -159.5t26 -201q0 -123 -35.5 -223 t-103.5 -170.5t-168 -109t-229 -38.5q-55 0 -111 8.5t-109 23.5t-100.5 35.5t-83.5 44.5v1165q-27 5 -63 9t-77 4q-51 0 -92 -9.5t-70.5 -31.5t-45.5 -58t-16 -88v-59zM1450 505q0 72 -15.5 132t-45 102.5t-73 66t-99.5 23.5q-45 0 -90 -14t-77 -35v-568q27 -11 64 -17 t83 -6q66 0 114 22t78.5 63.5t45.5 100t15 130.5z" />
<glyph unicode="ffb" horiz-adv-x="2386" d="M1024 1024h207v-199h-201v-825h-266v825h-338v-1221h-265v1221h-150v180l154 10v103q0 80 24.5 146.5t72 114.5t116.5 74.5t158 26.5q32 0 61.5 -3.5t55 -8t45 -10t30.5 -9.5l-43 -194q-13 4 -47 9.5t-72 5.5q-72 0 -108.5 -41t-36.5 -127v-78h347v75q0 85 33 155.5 t96.5 120.5t155.5 77.5t209 27.5q64 0 127 -7t116 -16.5t92.5 -19t56.5 -14.5v-458q18 12 43.5 26t57 25.5t68 19.5t75.5 8q100 0 180 -38t136 -106.5t85.5 -165t29.5 -213.5q0 -123 -35.5 -223t-104 -170.5t-168.5 -109t-229 -38.5q-54 0 -110.5 8.5t-109.5 23.5 t-100.5 35.5t-83.5 44.5v1165q-27 5 -63 9t-77 4q-50 0 -91.5 -9.5t-71 -31.5t-45.5 -58t-16 -88v-59zM2054 505q0 72 -15.5 132t-45.5 102.5t-73.5 66t-99.5 23.5q-44 0 -89 -14t-77 -35v-568q27 -11 64 -17t83 -6q66 0 113.5 22t78.5 63.5t46 100t15 130.5z" />
<glyph unicode="ffh" horiz-adv-x="2411" d="M1024 1024h207v-199h-201v-824h-266v824h-338v-1221h-265v1221h-150v180l154 10v103q0 80 24.5 146.5t72 114.5t116.5 74.5t158 26.5q32 0 61.5 -3.5t55 -8t45 -10t30.5 -9.5l-43 -194q-13 4 -47 9.5t-72 5.5q-72 0 -108.5 -41t-36.5 -127v-78h347v75q0 85 33 155.5 t96.5 120.5t155.5 77.5t209 27.5q52 0 103.5 -5t98 -12t85.5 -15t66 -15q14 -3 23.5 -5.5t15.5 -4.5v-488q27 22 59.5 41.5t69 34.5t77 24t84.5 9q171 0 257.5 -90.5t86.5 -279.5v-674h-266v633q0 98 -38 144t-121 46q-24 0 -52.5 -6.5t-57 -17.5t-54.5 -26t-45 -32v-741 h-266v1257q-27 5 -63 9t-77 4q-50 0 -91.5 -9.5t-71 -31.5t-45.5 -58t-16 -88v-59z" />
<glyph unicode="ff&#x127;" horiz-adv-x="2411" d="M1024 1024h207v-199h-201v-825h-266v825h-338v-1221h-265v1221h-150v180l154 10v103q0 80 24.5 146.5t72 114.5t116.5 74.5t158 26.5q32 0 61.5 -3.5t55 -8t45 -10t30.5 -9.5l-43 -194q-13 4 -47 9.5t-72 5.5q-72 0 -108.5 -41t-36.5 -127v-78h347v75q0 85 33 155.5 t96.5 120.5t155.5 77.5t209 27.5q52 0 103.5 -5t98 -12t85.5 -15t66 -15q14 -3 23.5 -5.5t15.5 -4.5v-111h326v-120h-326v-257q27 22 59.5 41.5t69 34.5t77 24t84.5 9q171 0 257.5 -90.5t86.5 -279.5v-674h-266v633q0 98 -38 144t-121 46q-24 0 -52.5 -6.5t-57 -17.5 t-54.5 -26t-45 -32v-741h-266v1257q-27 5 -63 9t-77 4q-50 0 -91.5 -9.5t-71 -31.5t-45.5 -58t-16 -88v-59z" />
<glyph unicode="ff&#x12d;" horiz-adv-x="1814" d="M1024 1024h245v-199h-239v-825h-266v825h-338v-1221h-265v1221h-150v180l154 10v103q0 80 24.5 146.5t72 114.5t116.5 74.5t158 26.5q32 0 61.5 -3.5t55 -8t45 -10t30.5 -9.5l-43 -194q-13 4 -47 9.5t-72 5.5q-71 0 -108 -40.5t-37 -127.5v-78h347v94q0 81 27 148 t77.5 114.5t123 73.5t162.5 26q48 0 90.5 -6t77.5 -14h113q-2 -27 3 -51.5t17 -42.5t33 -28.5t52 -10.5t52 10.5t33 28.5t16.5 42.5t3.5 51.5h183q11 -83 -11 -142t-64 -96.5t-98.5 -54.5t-114.5 -17q-72 0 -136.5 26t-105.5 82q-22 5 -53 8.5t-67 3.5q-78 0 -118 -40 t-40 -128v-78zM1676 1024v-1024h-265v1024h265z" />
<glyph unicode="ff&#xec;" horiz-adv-x="1794" d="M1022 1024h240v-199h-236v-825h-265v825h-335v-1221h-265v1221h-142v181l144 10v79q0 48 7 89q8 66 36.5 120.5t75 93.5t109.5 60.5t141 21.5q31 0 61 -3.5t55 -8t44 -10t30 -9.5l-43 -194q-13 4 -46.5 9.5t-70.5 5.5q-69 0 -104 -40.5t-35 -127.5v-78h340v94 q0 81 25 148t72.5 114.5t116.5 73.5t157 26q50 0 88 -7.5t68 -18.5l54 114l460 -272l-62 -129l-418 152l-29 -75q-22 8 -53 17t-77 9q-68 0 -105.5 -40t-37.5 -128v-78zM1657 1024v-1024h-265v1024h265z" />
<glyph unicode="ff&#x133;" horiz-adv-x="2299" d="M421 1024h347v84q0 83 31.5 151.5t91.5 117.5t148 76t202 27q60 0 110.5 -5.5t90 -13t67.5 -15.5t43 -13l-49 -194q-14 4 -38.5 9t-56.5 10t-70 8.5t-80 3.5q-55 0 -98.5 -9.5t-73.5 -30.5t-46 -55t-16 -82v-69h584v-1024h-265v825h-313v-1221h-266v1221h-338v-1221h-265 v1221h-150v180l154 10v103q0 80 24.5 146.5t72 114.5t116.5 74.5t158 26.5q32 0 61.5 -3.5t55 -8t45 -10t30.5 -9.5l-43 -194q-13 4 -47 9.5t-72 5.5q-72 0 -108.5 -41t-36.5 -127v-78zM1875 1342q0 78 44.5 119t116.5 41q31 0 58 -10t46.5 -29t30.5 -45.5t11 -60.5 q0 -79 -44.5 -120t-116.5 -41q-32 0 -58.5 10t-46 29t-30.5 46t-11 61zM1896 1024h265v-1049q0 -201 -94.5 -296t-278.5 -95q-52 0 -93 8.5t-67 19.5l30 197q17 -5 40.5 -10t53.5 -5q74 0 109 38t35 125v1067z" />
<glyph unicode="ff&#x12b;" horiz-adv-x="1829" d="M1020 1024h246v-199h-240v-825h-265v825h-335v-1221h-265v1221h-142v181l144 10v102q0 80 24.5 146.5t72 114.5t116 74.5t156.5 26.5q31 0 61 -3.5t55 -8t44 -10t30 -9.5l-43 -194q-13 4 -46.5 9.5t-70.5 5.5q-69 0 -104 -40.5t-35 -127.5v-78h341v94q0 81 25 148 t73 114.5t118.5 73.5t161.5 26q43 0 79 -8.5t66 -22t54.5 -30.5t43.5 -33l-74 -144q-21 8 -56 18t-77 10q-78 0 -118 -40t-40 -128v-78zM1761 1309v-532h-17v-297h-408v686h14v143h411z" />
<glyph unicode="ff&#x12f;" horiz-adv-x="1745" d="M421 1024h347v84q0 83 31.5 151.5t91.5 117.5t148 76t202 27q60 0 110.5 -5.5t90 -13t67.5 -15.5t43 -13l-49 -194q-14 4 -38.5 9t-56.5 10t-70 8.5t-80 3.5q-55 0 -98.5 -9.5t-73.5 -30.5t-46 -55t-16 -82v-69h584v-1024q-36 -14 -71 -34t-51 -45q-25 -21 -42.5 -50 t-17.5 -58q0 -49 25.5 -72.5t66.5 -23.5q38 0 71 12t50 20l44 -161q-10 -8 -30.5 -18t-47.5 -19t-59 -15t-66 -6q-43 0 -83.5 9t-74.5 28t-59.5 47.5t-37.5 67.5q-8 46 6 88.5t35 81.5q-1 24 6.5 46.5t19.5 42t26 35t25 25.5v824h-313v-825h-266v825h-338v-1221h-265v1221 h-150v180l154 10v103q0 80 24.5 146.5t72 114.5t116.5 74.5t158 26.5q32 0 61.5 -3.5t55 -8t45 -10t30.5 -9.5l-43 -194q-13 4 -47 9.5t-72 5.5q-71 0 -108 -40.5t-37 -127.5v-78z" />
<glyph unicode="ff&#x129;" horiz-adv-x="1810" d="M1020 1024h246v-199h-240v-825h-265v825h-335v-1221h-265v1221h-142v181l144 10v79q0 21 1.5 40.5t3.5 39.5q7 69 35 125t74.5 96t110.5 62t144 22q31 0 61 -3.5t55 -8t44 -10t30 -9.5l-43 -194q-13 4 -46.5 9.5t-70.5 5.5q-69 0 -104 -40.5t-35 -127.5v-78h341v94 q0 81 24.5 148t71.5 114.5t115.5 73.5t156.5 26q45 0 80.5 -11.5t63.5 -28.5q29 29 67 47t89 18q34 0 66 -11.5t61 -25t55 -25t48 -11.5q18 0 32 6.5t27 17t25.5 25t26.5 30.5l128 -98q-14 -36 -36 -70.5t-53.5 -61.5t-72 -43t-91.5 -16q-30 0 -59 11.5t-56.5 25.5t-54 25.5 t-51.5 11.5q-17 0 -31.5 -6.5t-27.5 -17.5t-25.5 -26t-25.5 -31q-6 7 -21 17t-40 10q-21 8 -50.5 17t-64.5 6q-60 -8 -90.5 -46.5t-30.5 -116.5v-78zM1657 1024v-1024h-265v1024h265z" />
<glyph unicode="ffj" horiz-adv-x="1746" d="M1343 825h-313v-825h-266v825h-338v-1221h-265v1221h-150v180l154 10v103q0 80 24.5 146.5t72 114.5t116.5 74.5t158 26.5q32 0 61.5 -3.5t55 -8t45 -10t30.5 -9.5l-43 -194q-13 4 -47 9.5t-72 5.5q-71 0 -108 -40.5t-37 -127.5v-78h347v84q0 83 31.5 151.5t91.5 117.5 t148 76t202 27q60 0 110.5 -5.5t90 -13t67.5 -15.5t43 -13l-49 -194q-14 4 -38.5 9t-56.5 10t-70 8.5t-80 3.5q-55 0 -98.5 -9.5t-73.5 -30.5t-46 -55t-16 -82v-69h584v-1049q0 -201 -94.5 -296t-278.5 -95q-52 0 -93 8.5t-67 19.5l30 197q17 -5 40.5 -10t53.5 -5 q74 0 109 38t35 125v868z" />
<glyph unicode="ffk" horiz-adv-x="2340" d="M1024 1024h207v-199h-201v-825h-266v825h-338v-1221h-265v1221h-150v180l154 10v103q0 80 24.5 146.5t72 114.5t116.5 74.5t158 26.5q32 0 61.5 -3.5t55 -8t45 -10t30.5 -9.5l-43 -194q-13 4 -47 9.5t-72 5.5q-72 0 -108.5 -41t-36.5 -127v-78h347v75q0 85 33 155.5 t96.5 120.5t155.5 77.5t209 27.5q64 0 127 -7t116 -16.5t92.5 -19t56.5 -14.5v-862l346 463h290l-317 -424l345 -600h-298l-245 438l-121 -159v-279h-266v1257q-27 5 -63 9t-77 4q-50 0 -91.5 -9.5t-71 -31.5t-45.5 -58t-16 -88v-59z" />
<glyph unicode="ff&#x137;" horiz-adv-x="2340" d="M1890 -93q12 -9 28.5 -26.5t31.5 -42t25.5 -55t10.5 -64.5q0 -59 -26 -103t-71 -75.5t-106 -49.5t-132 -24l-43 127q27 5 53 14.5t47 24.5t33.5 35.5t12.5 46.5q0 28 -8.5 52t-20.5 42.5t-24 32t-19 19.5zM1024 1024h207v-199h-201v-825h-266v825h-338v-1221h-265v1221 h-150v180l154 10v103q0 80 24.5 146.5t72 114.5t116.5 74.5t158 26.5q32 0 61.5 -3.5t55 -8t45 -10t30.5 -9.5l-43 -194q-13 4 -47 9.5t-72 5.5q-72 0 -108.5 -41t-36.5 -127v-78h347v75q0 85 33 155.5t96.5 120.5t155.5 77.5t209 27.5q64 0 127 -7t116 -16.5t92.5 -19 t56.5 -14.5v-862l346 463h290l-317 -424l345 -600h-298l-245 438l-121 -159v-279h-266v1257q-27 5 -63 9t-77 4q-50 0 -91.5 -9.5t-71 -31.5t-45.5 -58t-16 -88v-59z" />
<glyph unicode="ff&#x13e;" horiz-adv-x="1982" d="M1935 1542q13 -10 29.5 -28t31 -43.5t24.5 -58.5t10 -74q0 -53 -18.5 -97.5t-46.5 -79.5t-61.5 -61t-63.5 -41l-99 93q13 10 28 25t28 35.5t21 46.5t8 58q0 31 -8.5 58t-21 48.5t-26.5 37.5t-25 25zM1024 1024h207v-199h-201v-825h-266v825h-338v-1221h-265v1221h-150 v180l154 10v103q0 80 24.5 146.5t72 114.5t116.5 74.5t158 26.5q32 0 61.5 -3.5t55 -8t45 -10t30.5 -9.5l-43 -194q-13 4 -47 9.5t-72 5.5q-71 0 -108 -40.5t-37 -127.5v-78h347v75q0 85 33 155.5t96.5 120.5t155.5 77.5t209 27.5q64 0 127 -7t116 -16.5t92.5 -19 t56.5 -14.5v-1423h-266v1257q-27 5 -63 9t-77 4q-50 0 -91.5 -9.5t-71 -31.5t-45.5 -58t-16 -88v-59z" />
<glyph unicode="ff&#x13c;" horiz-adv-x="1791" d="M1600 -93q12 -9 28.5 -26.5t31.5 -42t25.5 -55t10.5 -64.5q0 -59 -26 -103t-71 -75.5t-106 -49.5t-131 -24l-44 127q27 5 53.5 14.5t47 24.5t33 35.5t12.5 46.5q0 28 -8.5 52t-20.5 42.5t-24 32t-19 19.5zM1024 1024h207v-199h-201v-825h-266v825h-338v-1221h-265v1221 h-150v180l154 10v103q0 80 24.5 146.5t72 114.5t116.5 74.5t158 26.5q32 0 61.5 -3.5t55 -8t45 -10t30.5 -9.5l-43 -194q-13 4 -47 9.5t-72 5.5q-71 0 -108 -40.5t-37 -127.5v-78h347v75q0 85 33 155.5t96.5 120.5t155.5 77.5t209 27.5q64 0 127 -7t116 -16.5t92.5 -19 t56.5 -14.5v-1423h-266v1257q-27 5 -63 9t-77 4q-50 0 -91.5 -9.5t-71 -31.5t-45.5 -58t-16 -88v-59z" />
<glyph unicode="ff&#x140;" horiz-adv-x="2017" d="M1753 739q0 78 44.5 119t116.5 41q31 0 58 -10t46.5 -29t30.5 -46t11 -60q0 -79 -44.5 -120t-116.5 -41q-32 0 -58.5 10t-46 29t-30.5 46t-11 61zM1024 1024h207v-199h-201v-825h-266v825h-338v-1221h-265v1221h-150v180l154 10v103q0 80 24.5 146.5t72 114.5t116.5 74.5 t158 26.5q32 0 61.5 -3.5t55 -8t45 -10t30.5 -9.5l-43 -194q-13 4 -47 9.5t-72 5.5q-71 0 -108 -40.5t-37 -127.5v-78h347v75q0 85 33 155.5t96.5 120.5t155.5 77.5t209 27.5q64 0 127 -7t116 -16.5t92.5 -19t56.5 -14.5v-1423h-266v1257q-27 5 -63 9t-77 4 q-50 0 -91.5 -9.5t-71 -31.5t-45.5 -58t-16 -88v-59z" />
<glyph unicode="ff&#x142;" horiz-adv-x="1815" d="M1024 1024h207v-199h-201v-825h-266v825h-338v-1221h-265v1221h-150v180l154 10v103q0 80 24.5 146.5t72 114.5t116.5 74.5t158 26.5q32 0 61.5 -3.5t55 -8t45 -10t30.5 -9.5l-43 -194q-13 4 -47 9.5t-72 5.5q-71 0 -108 -40.5t-37 -127.5v-78h347v75q0 85 33 155.5 t96.5 120.5t155.5 77.5t209 27.5q64 0 127 -7t116 -16.5t92.5 -19t56.5 -14.5v-546l124 96l74 -97l-198 -151v-725h-266v524l-124 -94l-73 96l197 151v580q-27 5 -63 9t-77 4q-50 0 -91.5 -9.5t-71 -31.5t-45.5 -58t-16 -88v-59z" />
<glyph unicode="fh" horiz-adv-x="1807" d="M1050 0h-265v1257q-27 5 -63 9t-77 4q-51 0 -92 -9.5t-70.5 -31.5t-45.5 -58t-16 -88v-59h206v-199h-201v-825h-265v825h-150v180l154 10v84q0 85 33 155.5t96 120.5t155 77.5t209 27.5q53 0 104.5 -5t98 -12t85 -15t65.5 -15q14 -3 24 -5.5t15 -4.5v-488 q27 22 59.5 41.5t69 34.5t77 24t84.5 9q171 0 258 -90.5t87 -279.5v-674h-266v633q0 98 -38.5 144t-121.5 46q-24 0 -52.5 -6.5t-56.5 -17.5t-54.5 -26t-45.5 -32v-741z" />
<glyph unicode="f&#x127;" horiz-adv-x="1807" d="M421 1024h206v-199h-201v-825h-265v825h-150v180l154 10v84q0 85 33 155.5t96 120.5t155 77.5t209 27.5q53 0 104.5 -5t98 -12t85 -15t65.5 -15q14 -3 24 -5.5t15 -4.5v-111h327v-120h-327v-257q27 22 59.5 41.5t69 34.5t77 24t84.5 9q171 0 258 -90.5t87 -279.5v-674 h-266v633q0 98 -38.5 144t-121.5 46q-24 0 -52.5 -6.5t-56.5 -17.5t-54.5 -26t-45.5 -32v-741h-265v1257q-27 5 -63 9t-77 4q-51 0 -92 -9.5t-70.5 -31.5t-45.5 -58t-16 -88v-59z" />
<glyph unicode="f&#x12d;" horiz-adv-x="1210" d="M421 1024h245v-199h-240v-825h-265v825h-150v180l154 10v103q0 81 27 147.5t77.5 114.5t122.5 74t163 26q47 0 89.5 -6t77.5 -14h114q-2 -27 2.5 -51.5t17 -42.5t33 -28.5t51.5 -10.5t52 10.5t33.5 28.5t17 42.5t2.5 51.5h184q10 -83 -11.5 -142t-63.5 -96.5t-98.5 -54.5 t-115.5 -17q-72 0 -136.5 26t-104.5 82q-23 5 -54 8.5t-66 3.5q-79 0 -118.5 -40t-39.5 -128v-78zM1073 1024v-1024h-265v1024h265z" />
<glyph unicode="f&#xec;" horiz-adv-x="1210" d="M421 1024h245v-199h-240v-825h-265v825h-150v180l154 10v103q0 81 25.5 148t73.5 114.5t118 73.5t160 26q50 0 88.5 -7.5t68.5 -18.5l54 113l458 -271l-61 -129l-421 152l-27 -74q-19 7 -50.5 16t-79.5 9q-72 0 -111.5 -40t-39.5 -128v-78zM1073 1024v-1024h-265v1024 h265z" />
<glyph unicode="f&#x133;" horiz-adv-x="1695" d="M421 1024h584v-1024h-266v825h-313v-1221h-265v1221h-150v180l154 10v93q0 83 31.5 151.5t91.5 117.5t148 76t201 27q60 0 110.5 -5.5t90.5 -13t68 -15.5t42 -13l-49 -194q-29 8 -94.5 19.5t-149.5 11.5q-55 0 -98.5 -9.5t-73.5 -30.5t-46 -55t-16 -82v-69zM1292 1024 h266v-1049q0 -201 -94.5 -296t-278.5 -95q-53 0 -93.5 8.5t-66.5 19.5l30 197q17 -5 40.5 -10t52.5 -5q74 0 109 38t35 125v1067zM1271 1342q0 78 44.5 119t116.5 41q31 0 58 -10t47 -29t31 -45.5t11 -60.5q0 -79 -44.5 -120t-116.5 -41q-64 0 -105.5 39t-41.5 107z" />
<glyph unicode="f&#x12b;" horiz-adv-x="1229" d="M421 1024h245v-199h-240v-825h-265v825h-150v180l154 10v103q0 81 25 148t73 114.5t118.5 73.5t160.5 26q43 0 79 -8.5t66 -22t54.5 -30.5t43.5 -33l-74 -144q-20 8 -55.5 18t-76.5 10q-79 0 -118.5 -40t-39.5 -128v-78zM1177 1309v-532h-32v-297h-409v686h30v143h411z " />
<glyph unicode="f&#x12f;" horiz-adv-x="1166" d="M421 1024h584v-1024q-36 -14 -70.5 -34t-51.5 -45q-25 -21 -42.5 -50t-17.5 -58q0 -49 25.5 -72.5t66.5 -23.5q38 0 71 12t50 20l44 -161q-10 -8 -30.5 -18t-47.5 -19t-59 -15t-66 -6q-43 0 -83.5 9t-74.5 28t-59.5 47.5t-37.5 67.5q-8 46 6 88.5t36 81.5q-2 24 5.5 46 t19.5 41.5t25.5 35t24.5 25.5v825h-313v-1221h-265v1221h-150v180l154 10v93q0 83 31.5 151.5t91.5 117.5t148 76t201 27q60 0 110.5 -5.5t90.5 -13t68 -15.5t42 -13l-49 -194q-29 8 -94.5 19.5t-149.5 11.5q-55 0 -98.5 -9.5t-73.5 -30.5t-46 -55t-16 -82v-69z" />
<glyph unicode="f&#x129;" horiz-adv-x="1210" d="M717 1215q-12 10 -35.5 25t-59.5 20q-17 4 -36 6.5t-39 0.5q-63 -7 -94.5 -46t-31.5 -119v-78h245v-199h-240v-825h-265v825h-150v180l154 10v103q0 81 24.5 147.5t71.5 114.5t115.5 74t155.5 26q45 0 80.5 -11.5t64.5 -28.5q24 24 55.5 40.5t72.5 18.5q35 6 74 -2 q26 -5 51 -15.5t48.5 -21.5t44.5 -19.5t39 -8.5t32 6.5t27 17t25.5 25t26.5 30.5l128 -98q-14 -36 -36 -70.5t-53.5 -61.5t-72 -43t-91.5 -16q-30 0 -59 11.5t-56.5 25.5t-54 25.5t-51.5 11.5q-17 0 -31.5 -6.5t-27.5 -17.5t-25.5 -26t-25.5 -31zM1073 1024v-1024h-265v1024 h265z" />
<glyph unicode="fj" horiz-adv-x="1142" d="M739 825h-313v-825h-265v825h-150v180l154 10v93q0 83 31.5 151.5t91.5 117.5t148 76t201 27q60 0 110.5 -5.5t90.5 -13t68 -15.5t42 -13l-49 -194q-29 8 -94.5 19.5t-149.5 11.5q-55 0 -98.5 -9.5t-73.5 -30.5t-46 -55t-16 -82v-69h584v-1049q0 -201 -94.5 -296 t-278.5 -95q-53 0 -93.5 8.5t-66.5 19.5l30 197q17 -5 40.5 -10t53.5 -5q73 0 108 38t35 125v868z" />
<glyph unicode="fk" horiz-adv-x="1737" d="M421 1024h206v-199h-201v-825h-265v825h-150v180l154 10v84q0 85 33 155.5t96 120.5t155 77.5t209 27.5q64 0 127.5 -7t116.5 -16.5t92 -19t56 -14.5v-862l347 463h290l-318 -424l345 -600h-297l-245 438l-122 -159v-279h-265v1257q-27 5 -63 9t-77 4q-51 0 -92 -9.5 t-70.5 -31.5t-45.5 -58t-16 -88v-59z" />
<glyph unicode="f&#x137;" horiz-adv-x="1737" d="M1286 -93q12 -9 28.5 -26.5t31.5 -42t25.5 -55t10.5 -64.5q0 -59 -26 -103t-71 -75.5t-106 -49.5t-131 -24l-44 127q27 5 53.5 14.5t47 24.5t33 35.5t12.5 46.5q0 28 -8.5 52t-20.5 42.5t-24 32t-19 19.5zM421 1024h206v-199h-201v-825h-265v825h-150v180l154 10v84 q0 85 33 155.5t96 120.5t155 77.5t209 27.5q64 0 127.5 -7t116.5 -16.5t92 -19t56 -14.5v-862l347 463h290l-318 -424l345 -600h-297l-245 438l-122 -159v-279h-265v1257q-27 5 -63 9t-77 4q-51 0 -92 -9.5t-70.5 -31.5t-45.5 -58t-16 -88v-59z" />
<glyph unicode="f&#x13e;" horiz-adv-x="1379" d="M1332 1542q12 -10 28.5 -28t31 -43.5t24.5 -58.5t10 -74q0 -53 -18 -97.5t-46 -79.5t-61.5 -61t-63.5 -41l-99 93q13 10 28 25t28 35.5t21 46.5t8 58q0 31 -8.5 58t-21.5 48.5t-27 37.5t-25 25zM421 1024h206v-199h-201v-1221h-265v1221h-150v180l154 10v84 q0 85 33 155.5t96 120.5t155 77.5t209 27.5q64 0 127.5 -7t116.5 -16.5t92 -19t56 -14.5v-1423h-265v1257q-27 5 -63 9t-77 4q-51 0 -92 -9.5t-70.5 -31.5t-45.5 -58t-16 -88v-59z" />
<glyph unicode="f&#x13c;" horiz-adv-x="1188" d="M421 1024h206v-199h-201v-1221h-265v1221h-150v180l154 10v84q0 85 33 155.5t96 120.5t155 77.5t209 27.5q64 0 127.5 -7t116.5 -16.5t92 -19t56 -14.5v-1423h-265v1257q-27 5 -63 9t-77 4q-51 0 -92 -9.5t-70.5 -31.5t-45.5 -58t-16 -88v-59zM996 -93q12 -9 28.5 -26.5 t31.5 -42t25.5 -55t10.5 -64.5q0 -59 -25.5 -103t-70.5 -75.5t-106 -49.5t-132 -24l-44 127q27 5 53.5 14.5t47.5 24.5t33.5 35.5t12.5 46.5q0 28 -8.5 52t-20.5 42.5t-24 32t-19 19.5z" />
<glyph unicode="f&#x140;" horiz-adv-x="1414" d="M1149 739q0 78 44.5 119t116.5 41q31 0 58 -10t46.5 -29t30.5 -46t11 -60q0 -79 -44.5 -120t-116.5 -41q-32 0 -58.5 10t-46 29t-30.5 46t-11 61zM421 1024h206v-199h-201v-1221h-265v1221h-150v180l154 10v84q0 85 33 155.5t96 120.5t155 77.5t209 27.5q64 0 127.5 -7 t116.5 -16.5t92 -19t56 -14.5v-1423h-265v1257q-27 5 -63 9t-77 4q-51 0 -92 -9.5t-70.5 -31.5t-45.5 -58t-16 -88v-59z" />
<glyph unicode="f&#x142;" horiz-adv-x="1211" d="M421 1024h206v-199h-201v-1221h-265v1221h-150v180l154 10v84q0 85 33 155.5t96 120.5t155 77.5t209 27.5q64 0 127.5 -7t116.5 -16.5t92 -19t56 -14.5v-546l125 96l74 -97l-199 -151v-725h-265v524l-125 -94l-73 96l198 151v580q-27 5 -63 9t-77 4q-51 0 -92 -9.5 t-70.5 -31.5t-45.5 -58t-16 -88v-59z" />
<glyph unicode="&#x3c;&#x2014;" horiz-adv-x="1798" d="M844 914l-402 -402l402 -402l-149 -149l-551 551l551 551zM755 617h900v-210h-900v210z" />
<glyph unicode="&#x17f;f" horiz-adv-x="1254" d="M426 -396h-265v1221h-150v180l152 10v103q0 80 24.5 146.5t72 114.5t116 74.5t156.5 26.5q33 0 63.5 -3.5t56 -8t45.5 -10t31 -9.5l-47 -194q-13 4 -47 9.5t-72 5.5q-68 0 -102 -40.5t-34 -127.5v-1498zM1004 1024h245v-199h-239v-825h-266v825h-149v180l153 10v103 q0 81 25 148t73 114.5t118.5 73.5t161.5 26q77 0 129.5 -13t86.5 -25l-43 -194q-21 7 -57.5 14.5t-79.5 7.5q-78 0 -118 -40t-40 -128v-78z" />
<glyph unicode="&#x17f;h" horiz-adv-x="1755" d="M998 0h-266v1257q-23 5 -53.5 9t-63.5 4q-56 0 -92.5 -14.5t-58 -49t-30 -91t-8.5 -139.5v-1224h-265v1073h-150v180l152 10v67q0 89 31 162.5t90 126t144.5 81t193.5 28.5q62 0 122 -8t110.5 -18.5t88 -21.5t55.5 -17v-480q27 22 59.5 41.5t69 34.5t77 24t84.5 9 q111 0 178.5 -33t104.5 -99.5t49 -168t12 -238.5v-505h-266v555q0 69 -5.5 119.5t-23 83.5t-48.5 49t-82 16q-24 0 -52.5 -6.5t-57 -17.5t-54.5 -26t-45 -32v-741z" />
<glyph unicode="&#x17f;i" horiz-adv-x="1100" d="M426 -396h-265v1221h-150v180l152 10v67q0 89 31 162.5t90.5 126t146.5 81t199 28.5q52 0 96 -5.5t78 -13t58 -15.5t37 -13l-49 -194q-12 4 -32 9t-46.5 10t-58.5 8.5t-66 3.5q-53 0 -94 -11t-69 -35t-43 -62.5t-15 -94.5v-1463zM962 1024v-1024h-265v1024h265z" />
<glyph unicode="&#x17f;j" horiz-adv-x="1100" d="M426 0h-265v825h-150v180l152 10v67q0 89 31 162.5t90.5 126t146.5 81t199 28.5q52 0 96 -5.5t78 -13t58 -15.5t37 -13l-49 -194q-12 4 -32 9t-46.5 10t-58.5 8.5t-66 3.5q-53 0 -94 -11t-69 -35t-43 -62.5t-15 -94.5v-1067zM697 1024h265v-1049q0 -201 -94.5 -296 t-278.5 -95q-52 0 -93 8.5t-67 19.5l30 197q17 -5 40.5 -10t53.5 -5q74 0 109 38t35 125v1067z" />
<glyph unicode="&#x17f;k" horiz-adv-x="1684" d="M426 -248h-265v1073h-150v180l152 10v67q0 89 31 162.5t90 126t144.5 81t193.5 28.5q62 0 122 -8t110.5 -18.5t88 -21.5t55.5 -17v-854l346 463h290l-317 -424l345 -600h-298l-245 438l-121 -159v-279h-266v1257q-23 5 -53.5 9t-63.5 4q-44 0 -78.5 -11t-59.5 -35 t-38 -62.5t-13 -94.5v-1315z" />
<glyph unicode="&#x17f;l" horiz-adv-x="1135" d="M426 -396h-265v1221h-150v180l152 10v67q0 89 31 162.5t90 126t144.5 81t193.5 28.5q62 0 122 -8t110.5 -18.5t88 -21.5t55.5 -17v-1415h-266v1257q-23 5 -53.5 9t-63.5 4q-44 0 -78.5 -11t-59.5 -35t-38 -62.5t-13 -94.5v-1463z" />
<glyph unicode="&#x17f;&#x17f;" horiz-adv-x="1169" d="M426 -396h-265v1221h-150v180l152 10v103q0 80 24.5 146.5t72 114.5t116 74.5t156.5 26.5q33 0 63.5 -3.5t56 -8t45.5 -10t31 -9.5l-47 -194q-13 4 -47 9.5t-72 5.5q-68 0 -102 -40.5t-34 -127.5v-1498zM1010 0h-266v825h-149v180l151 10v103q0 76 22.5 140t66 110.5 t107.5 74.5t147 33q54 3 103 0q48 -4 86 -14.5t64 -19.5l-43 -194q-21 7 -57.5 14.5t-79.5 7.5q-77 0 -114.5 -40.5t-37.5 -127.5v-1102z" />
<glyph unicode="&#xd;" horiz-adv-x="441" />
<glyph unicode=" "  horiz-adv-x="441" />
<glyph unicode="&#x09;" horiz-adv-x="441" />
<glyph unicode="&#xa0;" horiz-adv-x="441" />
<glyph unicode="!" horiz-adv-x="512" d="M400 1330l-44 -909h-200l-44 909h288zM102 126q0 78 44.5 119t116.5 41q31 0 58 -10t47 -29t31 -46t11 -60q0 -79 -44.5 -120t-116.5 -41q-32 0 -58.5 10t-46.5 29t-31 46t-11 61z" />
<glyph unicode="&#x22;" horiz-adv-x="768" d="M685 1491l-38 -560h-178l-38 560h254zM337 1491l-38 -560h-178l-37 560h253z" />
<glyph unicode="#" horiz-adv-x="1533" d="M1190 1330l-48 -338h222l-27 -191h-222l-38 -273h221l-26 -190h-223l-47 -338h-218l48 338h-256l-48 -338h-217l47 338h-229l26 190h230l39 273h-228l26 191h229l48 338h218l-48 -338h256l49 338h216zM603 528h256l39 273h-256z" />
<glyph unicode="$" horiz-adv-x="1143" d="M690 1507l-18 -244q48 -4 89.5 -13.5t74.5 -20.5t57.5 -22t40.5 -19l-46 -190q-22 9 -52.5 19t-65.5 19t-73.5 14.5t-75.5 5.5q-49 0 -83 -9t-56 -25t-32 -37t-11 -46q0 -33 15 -58t42.5 -45t66 -38t83.5 -37q91 -41 155 -78.5t103.5 -79.5t57.5 -93.5t18 -118.5 q0 -131 -81 -212t-234 -104l19 -252h-219l17 245q-51 3 -97 12.5t-84.5 22t-68 26.5t-48.5 28l54 192q18 -10 47.5 -22.5t67 -23.5t82 -18.5t92.5 -7.5q91 0 142 23t51 80q0 33 -16.5 58.5t-50.5 49.5t-85 48.5t-121 54.5q-65 28 -114 61t-82.5 73.5t-50.5 90.5t-17 112 q0 63 22 116t62.5 95t97 71t125.5 43l-19 254h219z" />
<glyph unicode="%" horiz-adv-x="1473" d="M1304 1255l-993 -1275l-142 101l993 1276zM369 731q-68 0 -123.5 22.5t-95.5 63t-62 96t-22 121.5q0 71 22 129.5t63.5 100t100 64t130.5 22.5q68 0 124 -23t96 -63.5t62 -96t22 -121.5q0 -71 -22.5 -129.5t-63.5 -99.5t-99.5 -63.5t-131.5 -22.5zM380 900 q50 0 75.5 39.5t25.5 96.5q0 31 -6.5 57.5t-20 45.5t-34.5 30t-49 11q-50 0 -75 -39.5t-25 -96.5q0 -31 6.5 -57t20 -45.5t34 -30.5t48.5 -11zM1091 -20q-68 0 -123.5 22.5t-96 63t-62.5 96t-22 121.5q0 71 22.5 129.5t63.5 100t100 64t131 22.5q68 0 124 -23t96 -63.5 t62 -96t22 -121.5q0 -71 -22.5 -129.5t-63.5 -99.5t-99.5 -63.5t-131.5 -22.5zM1101 149q50 0 76 39.5t26 96.5q0 31 -6.5 57.5t-20 45.5t-34.5 30t-49 11q-50 0 -75.5 -39.5t-25.5 -96.5q0 -31 6.5 -57t20 -45.5t34 -30.5t48.5 -11z" />
<glyph unicode="&#x26;" horiz-adv-x="1391" d="M76 357q0 54 18.5 105t52 96.5t80.5 84t103 66.5q-48 53 -80 94.5t-51 77.5t-27 69.5t-8 70.5q0 71 30 131.5t83 104.5t126.5 68.5t160.5 24.5q72 0 136 -19.5t113.5 -53.5t82.5 -81t44 -102q9 -38 6 -80q-3 -39 -18.5 -74t-29.5 -54h442v-198h-218q9 -17 18.5 -39.5 t17 -49.5t12 -57t4.5 -61q0 -41 -8 -78.5t-20.5 -71t-29 -62.5t-32.5 -52l183 -196l-159 -151l-183 196q-59 -36 -147 -61t-188 -25q-120 0 -215.5 28.5t-161.5 78.5t-101.5 119.5t-35.5 150.5zM637 851q33 38 53 74.5t20 88.5q0 31 -12 56.5t-33 43.5t-49.5 27.5t-61.5 9.5 q-31 0 -57.5 -9.5t-46 -26.5t-30.5 -39.5t-11 -48.5q0 -28 6 -50.5t21 -46t39.5 -52t61.5 -68.5l391 -425q12 27 19.5 64t5.5 72q-2 46 -11.5 87.5t-31.5 79.5h-131zM607 178q46 0 92 12.5t79 32.5l-324 355q-54 -38 -87 -89t-33 -111q0 -44 18.5 -80.5t53.5 -63t85.5 -41.5 t115.5 -15z" />
<glyph unicode="'" horiz-adv-x="391" d="M322 1491l-38 -560h-178l-37 560h253z" />
<glyph unicode="(" horiz-adv-x="684" d="M333 672q0 -170 35 -306.5t86.5 -243t110 -184t105.5 -127.5l-135 -120q-31 22 -77.5 64t-98 103.5t-103.5 142.5t-93 181t-67 218t-26 255q0 140 26 261.5t67.5 223t93 184t103.5 145t98.5 104.5t77.5 64l134 -120q-47 -50 -105.5 -126.5t-110 -181.5t-86.5 -239 t-35 -298z" />
<glyph unicode=")" horiz-adv-x="684" d="M356 657q0 169 -35 306t-86.5 243.5t-110 183.5t-105.5 127l135 120q31 -22 77.5 -64t98 -103t103.5 -142t93 -181t67 -218.5t26 -254.5q0 -140 -26 -261.5t-67.5 -223.5t-93 -184t-103.5 -144.5t-98.5 -105t-77.5 -64.5l-134 120q47 50 105.5 127t110 182t86.5 239 t35 298z" />
<glyph unicode="*" horiz-adv-x="838" d="M313 1499h211l-21 -249l231 91l63 -202l-239 -50l169 -169l-157 -136l-152 208l-150 -208l-159 135l170 169l-238 51l61 202l232 -91z" />
<glyph unicode="+" horiz-adv-x="1270" d="M743 1147v-377h374v-211h-374v-376h-216v376h-375v211h375v377h216z" />
<glyph unicode="," horiz-adv-x="475" d="M30 -192q26 16 51.5 36t45.5 45.5t32.5 56.5t12.5 68q0 39 -11.5 72t-28 60t-35 48t-33.5 35l215 57q16 -12 36 -35t37.5 -55t29.5 -72t12 -88q0 -63 -21.5 -115t-58 -94t-85 -74t-102.5 -56z" />
<glyph unicode="-" horiz-adv-x="891" d="M137 638h617v-211h-617v211z" />
<glyph unicode="." horiz-adv-x="490" d="M91 126q0 78 44.5 119t116.5 41q31 0 58 -10t47 -29t31 -46t11 -60q0 -79 -44.5 -120t-116.5 -41q-64 0 -105.5 39t-41.5 107z" />
<glyph unicode="/" horiz-adv-x="917" d="M986 1585l-774 -1835h-256l774 1835h256z" />
<glyph unicode="0" horiz-adv-x="1305" d="M658 194q63 0 114.5 30.5t87.5 89t56 144.5t20 196q0 111 -19.5 200t-56.5 152t-90.5 97t-122.5 34q-63 0 -114.5 -31t-87.5 -90.5t-56 -145.5t-20 -196q0 -111 19.5 -199.5t56 -151t90.5 -96t123 -33.5zM646 -20q-137 0 -241.5 49.5t-175 139t-106.5 214.5t-36 276 q0 150 37.5 276.5t110.5 219t179.5 144t243.5 51.5t241.5 -49.5t175.5 -139.5t107 -215.5t36 -276.5q0 -150 -38 -276t-111 -218t-179.5 -143.5t-243.5 -51.5z" />
<glyph unicode="1" horiz-adv-x="850" d="M304 218v891q-29 -3 -63 -6.5t-69 -6t-68.5 -4.5t-60.5 -3l-20 208q51 4 114.5 10t130 13.5t130.5 15t115 14.5h57v-1132l238 -1v-217h-782v217z" />
<glyph unicode="2" horiz-adv-x="1046" d="M77 188q108 120 190 212.5t142.5 164.5t101 126.5t65 98.5t35 81t10.5 73q0 91 -52.5 136.5t-140.5 45.5q-44 0 -86.5 -8.5t-78.5 -20t-63.5 -23.5t-40.5 -19l-77 188q13 9 48.5 26.5t86.5 35.5t114 31.5t133 13.5q109 0 191 -28.5t137 -80t83 -123.5t28 -159 q0 -89 -38 -174t-105 -173.5t-158.5 -185t-198.5 -208.5h568v-218h-894v188z" />
<glyph unicode="3" horiz-adv-x="1053" d="M622 944q0 40 -10.5 73.5t-34 57.5t-61 37.5t-91.5 13.5q-41 0 -80.5 -8t-74 -19t-60.5 -23t-40 -20l-77 189q11 7 44 24.5t81.5 35.5t110 31.5t130.5 13.5q113 0 196 -29t137.5 -79t81 -118.5t26.5 -146.5q0 -44 -14.5 -85t-39 -77t-56.5 -65t-67 -49q33 -13 72.5 -37.5 t73 -63.5t56 -92t22.5 -123q0 -99 -37 -174.5t-104 -126.5t-160.5 -77.5t-205.5 -26.5q-68 0 -124 9t-101 22.5t-77.5 29t-53.5 27.5l58 200q17 -8 44.5 -19t62.5 -21t78 -17t92 -7q53 0 98.5 9.5t79.5 30t53 52t19 76.5q0 194 -235 194h-142v206h226q15 7 33.5 20t34 34 t26 50t10.5 68z" />
<glyph unicode="4" horiz-adv-x="1116" d="M625 1330h255v-836h184v-212h-184v-282h-266v282h-572v186zM614 494v445l-300 -445h300z" />
<glyph unicode="5" horiz-adv-x="1048" d="M665 405q0 106 -65.5 162.5t-182.5 56.5q-88 0 -160.5 -7.5t-128.5 -14.5l25 728h729v-218h-474l-11 -277q10 2 32.5 4t48.5 2q106 0 192 -29t147.5 -84t94.5 -133t33 -176q0 -103 -35.5 -184.5t-101 -138t-159 -86.5t-210.5 -30q-69 0 -126.5 9.5t-103.5 23t-79 29 t-53 27.5l55 200q19 -8 48.5 -19.5t67 -21.5t81 -17t88.5 -7q55 0 101 13t78.5 38t50.5 62.5t18 87.5z" />
<glyph unicode="6" horiz-adv-x="1147" d="M693 1126q-80 0 -138.5 -31t-98 -82.5t-60.5 -119.5t-25 -141q26 18 79.5 39t130.5 24q110 6 197 -20t148 -79t93 -131t32 -177q0 -97 -32.5 -176t-94.5 -135t-152 -86.5t-204 -30.5q-113 0 -202 36t-151 111t-95 189.5t-33 271.5q0 169 35 309.5t108.5 241t188 156 t273.5 55.5q55 0 103 -7.5t85.5 -18t64 -21.5t38.5 -18l-51 -201q-12 4 -35.5 11.5t-55 14t-69.5 11.5t-79 5zM584 194q91 0 141 48.5t50 150.5q0 56 -16 97t-44.5 67.5t-67.5 39t-84 11.5q-68 -2 -116 -23t-74 -45q-2 -78 9.5 -141.5t37.5 -109t66.5 -70.5t97.5 -25z" />
<glyph unicode="7" horiz-adv-x="1032" d="M961 1137l-464 -1137h-281l463 1118h-394l-4 -206h-207l-12 418h899v-193z" />
<glyph unicode="8" horiz-adv-x="1138" d="M564 -20q-97 0 -182.5 21t-149.5 63.5t-101 107.5t-37 152q0 63 23.5 115t60 94t82 73.5t89.5 52.5q-41 21 -81.5 50t-73.5 68t-53.5 88.5t-20.5 111.5q0 85 34 154t95 118t144 75t181 26q96 0 177.5 -23.5t140 -68t91.5 -109.5t33 -147q0 -62 -22 -110t-56.5 -84.5 t-77 -64t-83.5 -46.5q34 -19 80.5 -47.5t87.5 -70t70 -98t29 -130.5q0 -91 -36.5 -160.5t-101 -116t-152 -70.5t-190.5 -24zM574 188q39 0 75.5 11t64 31.5t44.5 49.5t17 65q0 33 -12 60.5t-33 51t-49.5 44t-61.5 39.5l-64 34q-89 -46 -141 -100.5t-52 -120.5q0 -42 18 -73 t47.5 -51.5t67.5 -30.5t79 -10zM744 984q0 37 -13.5 66.5t-37.5 50t-57 31.5t-72 11q-37 0 -68.5 -11t-54.5 -30.5t-36 -46.5t-13 -59q0 -33 8 -58t24.5 -47t42.5 -41.5t62 -40.5l45 -27q78 41 124 90t46 112z" />
<glyph unicode="9" horiz-adv-x="1147" d="M461 204q78 0 135.5 26t95.5 74t58 117t24 156q-12 -9 -32 -19t-46.5 -19t-59 -16t-70.5 -8q-111 -6 -198.5 20.5t-148 79.5t-92 131t-31.5 176q0 96 33.5 175t96.5 135.5t153.5 87t205.5 30.5q236 0 355.5 -154.5t119.5 -460.5q0 -187 -34 -328t-107 -236t-186 -143 t-271 -48q-55 0 -104.5 7t-89 17.5t-68.5 21.5t-44 19l52 201q16 -7 41.5 -14.5t58 -13.5t71.5 -10t82 -4zM562 1136q-41 0 -75.5 -12.5t-60 -37t-40 -62t-14.5 -88.5q0 -56 16 -96.5t44.5 -67.5t67.5 -39.5t84 -10.5q68 1 116 22.5t74 45.5q5 166 -49 256t-163 90z" />
<glyph unicode=":" horiz-adv-x="490" d="M91 884q0 78 44.5 119t116.5 41q31 0 58 -10t47 -29t31 -46t11 -60q0 -80 -44.5 -120.5t-116.5 -40.5q-64 0 -105.5 39t-41.5 107zM91 126q0 78 44.5 119t116.5 41q31 0 58 -10t47 -29t31 -46t11 -60q0 -79 -44.5 -120t-116.5 -41q-64 0 -105.5 39t-41.5 107z" />
<glyph unicode=";" horiz-adv-x="463" d="M61 884q0 78 44.5 119t116.5 41q31 0 58 -10t46.5 -29t30.5 -46t11 -60q0 -80 -44.5 -120.5t-116.5 -40.5q-32 0 -58.5 10t-46 29t-30.5 46t-11 61zM17 -192q26 16 51.5 36t45.5 45.5t32.5 56.5t12.5 68q0 39 -11 72t-27.5 60t-35 48t-33.5 35l214 57q16 -12 36 -35 t38 -55t30 -72t12 -88q0 -63 -21.5 -115t-58.5 -94t-85 -74t-102 -56z" />
<glyph unicode="&#x3c;" horiz-adv-x="1080" d="M896 1010l-440 -345l440 -343l-134 -158l-638 501l638 503z" />
<glyph unicode="=" horiz-adv-x="1224" d="M152 597h919v-211h-919v211zM152 945h919v-210h-919v210z" />
<glyph unicode="&#x3e;" horiz-adv-x="1080" d="M196 320l440 345l-440 343l134 158l638 -501l-638 -503z" />
<glyph unicode="?" horiz-adv-x="814" d="M207 518q0 58 28.5 106t76.5 97q28 30 61 61t61 63t47 66t19 69q0 69 -40 108t-117 44q-41 3 -76 -1q-35 -3 -65.5 -9.5t-55 -14t-42 -15t-26.5 -11.5l-57 185q21 12 52 26.5t73 27t94.5 21.5t114.5 9q92 0 167 -26t128.5 -71.5t82.5 -108t29 -135.5q0 -66 -25 -120 t-63 -99t-82 -84t-81.5 -76t-62.5 -75t-24 -80q-1 -17 0 -29.5t3 -21.5l-193 -17q-8 16 -17.5 42.5t-9.5 68.5zM192 126q0 78 44.5 119t116.5 41q31 0 58 -10t46.5 -29t30.5 -46t11 -60q0 -79 -44.5 -120t-116.5 -41q-32 0 -58.5 10t-46 29t-30.5 46t-11 61z" />
<glyph unicode="@" horiz-adv-x="2260" d="M1610 -11q-49 0 -90.5 14.5t-74.5 37t-58 49.5t-40 51q-21 -24 -53 -51t-72.5 -49.5t-88.5 -37t-103 -14.5q-89 0 -158 36t-117 99t-73 148t-25 183q0 125 37 232.5t108.5 187t176 124.5t239.5 45q72 0 135 -17.5t113 -40.5t84.5 -46t48.5 -33l-44 -593q-3 -59 22 -93.5 t64 -35.5q45 -3 84 28t68.5 88.5t46.5 139.5t17 182q0 151 -41 272.5t-123 207t-205 131t-287 45.5q-125 0 -232.5 -30t-196 -84.5t-157.5 -129t-116.5 -163.5t-72 -189t-24.5 -205q0 -163 44 -292t127 -218.5t202.5 -137t270.5 -47.5q52 0 100 5.5t88.5 14.5t73.5 19.5 t56 19.5l56 -173q-21 -11 -59 -25.5t-90 -28t-115 -22.5t-133 -9q-204 0 -368.5 60.5t-280.5 174t-179 274.5t-63 362q0 133 32.5 260.5t95.5 241.5t156.5 210t214.5 165.5t270 108.5t324 39q212 0 378.5 -61t281 -171.5t175 -264t60.5 -338.5q0 -148 -38 -269t-105.5 -207 t-161 -133t-205.5 -47zM1332 811q-13 5 -49 14.5t-90 9.5q-69 0 -119 -28t-82.5 -76.5t-48 -113t-15.5 -136.5q0 -60 10.5 -111t32.5 -88t54 -58t76 -21q34 0 64 11t54.5 27t43.5 34.5t31 33.5z" />
<glyph unicode="A" horiz-adv-x="1299" d="M894 308h-489l-109 -308h-285l515 1330h246l516 -1330h-285zM477 513h344l-147 423l-28 62z" />
<glyph unicode="B" horiz-adv-x="1191" d="M137 0v1330h440q111 0 199 -22t149 -66.5t93.5 -110t32.5 -152.5q0 -86 -45 -154.5t-118 -109.5q48 -17 90.5 -47.5t73.5 -71.5t49 -91.5t18 -108.5q0 -91 -36.5 -164t-103.5 -124.5t-162.5 -79.5t-213.5 -28h-466zM404 585v-378h191q111 0 170 45.5t59 125.5 q0 98 -59.5 152.5t-169.5 54.5h-191zM404 776h278q45 26 68.5 70.5t23.5 102.5q0 81 -52.5 127.5t-150.5 46.5h-167v-347z" />
<glyph unicode="C" horiz-adv-x="1142" d="M70 661q0 154 47.5 281t136 218t214 140.5t281.5 49.5q43 0 88 -5.5t87 -15.5t79.5 -23.5t65.5 -29.5l-58 -201q-60 24 -123.5 37.5t-132.5 13.5q-93 0 -167.5 -30t-126 -87.5t-79 -141t-27.5 -190.5q0 -108 27.5 -195.5t79 -149t125.5 -95t167 -33.5q72 0 145 15t134 43 l65 -198q-32 -18 -72 -33.5t-85 -27t-93 -17.5t-94 -6q-161 0 -288 47.5t-215 135.5t-134.5 214t-46.5 284z" />
<glyph unicode="D" horiz-adv-x="1314" d="M137 0v1330h434q160 0 285 -46.5t211.5 -132.5t131.5 -207.5t45 -270.5q0 -156 -45 -280.5t-131.5 -211.5t-212 -134t-285.5 -47h-433zM571 207q88 0 160 31t122.5 89.5t78 142t27.5 188.5q0 111 -27 197.5t-77 146t-122 90.5t-163 31h-167v-916h168z" />
<glyph unicode="E" horiz-adv-x="1055" d="M948 1112h-550v-336h524v-212h-524v-346h570v-218h-837v1330h817v-218z" />
<glyph unicode="F" horiz-adv-x="989" d="M947 1112h-543v-345h484v-212h-484v-555h-267v1330h810v-218z" />
<glyph unicode="G" horiz-adv-x="1277" d="M1176 103q-38 -29 -86 -51.5t-102.5 -38.5t-113 -24.5t-118.5 -8.5q-164 0 -291.5 48t-215 136.5t-133.5 214.5t-46 282q0 154 48.5 280.5t138.5 217.5t219 141t290 50q45 0 92 -5.5t92 -16t85.5 -24.5t73.5 -32l-62 -200q-63 23 -131.5 38.5t-144.5 15.5 q-96 0 -173 -29.5t-131 -86.5t-83 -141t-29 -193q0 -110 28.5 -197t81 -148.5t127.5 -94t167 -32.5q45 0 89.5 6t79.5 17v310l-235 1v199h483v-634z" />
<glyph unicode="H" horiz-adv-x="1359" d="M955 561h-551v-561h-267v1330h267v-551h551v551h266v-1330h-266v561z" />
<glyph unicode="I" horiz-adv-x="541" d="M137 1330h267v-1330h-267v1330z" />
<glyph unicode="J" horiz-adv-x="743" d="M627 1330v-969q0 -95 -26.5 -166.5t-74.5 -119t-115.5 -71.5t-148.5 -24q-84 0 -145.5 19t-89.5 39l43 197q23 -11 62 -21.5t95 -9.5q134 0 134 133v993h266z" />
<glyph unicode="K" horiz-adv-x="1233" d="M404 667l469 663h303l-422 -590l455 -740h-312l-333 564l-160 -214v-350h-267v1330h267v-663z" />
<glyph unicode="L" horiz-adv-x="970" d="M953 0h-816v1330h267v-1112h549v-218z" />
<glyph unicode="M" horiz-adv-x="1647" d="M137 1330h362l325 -835l324 835h362v-1330h-261v976l-318 -821h-215l-317 821v-976h-262v1330z" />
<glyph unicode="N" horiz-adv-x="1365" d="M399 927v-927h-262v1330h290l539 -927v927h261v-1330h-289z" />
<glyph unicode="O" horiz-adv-x="1419" d="M715 193q79 0 143 31t110 90t71 144.5t25 195.5q0 112 -25 201.5t-71.5 152t-113 96t-150.5 33.5q-79 0 -143.5 -31t-110 -90t-70.5 -145t-25 -195q0 -112 25 -201.5t71.5 -152t113 -96t150.5 -33.5zM704 -20q-150 0 -268 48t-199 136.5t-124 214.5t-43 282t44 283 t127.5 217t203 139.5t271.5 49.5q150 0 267.5 -48t199 -136.5t124 -214.5t42.5 -282t-44 -283t-127.5 -217t-203 -139.5t-270.5 -49.5z" />
<glyph unicode="P" horiz-adv-x="1103" d="M404 679h156q109 0 164.5 58t55.5 160q0 107 -54.5 163.5t-157.5 56.5h-164v-438zM137 0v1330h429q118 0 210 -26.5t155 -79t95.5 -131t32.5 -182.5q0 -106 -35.5 -187.5t-100 -136.5t-153.5 -83.5t-195 -28.5h-171v-475h-267z" />
<glyph unicode="Q" horiz-adv-x="1419" d="M1707 -384q-47 -13 -103.5 -22.5t-138.5 -9.5q-118 0 -212 30.5t-169.5 84.5t-134.5 129t-107 165q-33 -6 -67.5 -9.5t-70.5 -3.5q-150 0 -267.5 49.5t-199 139t-124.5 215t-43 277.5q0 151 44.5 277.5t128.5 218t203.5 142.5t269.5 51q149 0 266.5 -49.5t199 -139 t124.5 -215t43 -277.5q0 -200 -76.5 -354t-216.5 -241q41 -67 86.5 -118.5t98.5 -87t114.5 -53.5t135.5 -18q51 0 101.5 6.5t92.5 18.5zM715 193q73 0 136.5 30t111 88.5t74.5 144.5t27 198t-26.5 201.5t-74 152t-114 96t-145.5 33.5q-73 0 -136.5 -30t-111 -88.5 t-74.5 -144.5t-27 -198t26.5 -201.5t74 -152t113.5 -96t146 -33.5z" />
<glyph unicode="R" horiz-adv-x="1167" d="M137 0v1330h429q121 0 215.5 -26t159 -78.5t98.5 -130.5t34 -182q0 -69 -22 -127.5t-57.5 -104t-79 -79t-85.5 -52.5l303 -550h-295l-256 493h-177v-493h-267zM404 697h265q25 9 47.5 28t40 45.5t27.5 59.5t10 70q0 106 -59 161.5t-165 55.5h-166v-420z" />
<glyph unicode="S" horiz-adv-x="1062" d="M149 292q22 -12 57.5 -26t79.5 -26.5t93.5 -21t98.5 -8.5q112 0 169 33t57 97q0 30 -9 54t-29 45t-52.5 40.5t-79.5 40.5l-161 70q-65 28 -116 63t-86.5 80t-54.5 101.5t-19 128.5q0 88 37 159.5t100.5 122t148.5 78t182 27.5q71 0 129 -10t104.5 -24t81.5 -30t60 -29 l-52 -213q-27 12 -62.5 25.5t-76 24.5t-83.5 18t-85 7q-53 0 -91.5 -11t-64 -30.5t-38.5 -45.5t-13 -56q-1 -32 8 -56t27 -43t45.5 -35t63.5 -32l177 -81q75 -34 129.5 -72.5t90 -83.5t52.5 -99t17 -120q0 -90 -34 -159.5t-98 -117t-157.5 -72.5t-211.5 -25 q-61 0 -120.5 8.5t-112 22t-94.5 31.5t-68 36z" />
<glyph unicode="T" horiz-adv-x="1054" d="M17 1330h1020v-218h-377v-1112h-266v1112h-377v218z" />
<glyph unicode="U" horiz-adv-x="1289" d="M384 532q0 -89 18.5 -153t53 -105t83.5 -60.5t110 -19.5q119 0 187.5 77t68.5 238v821h266v-808q0 -128 -37 -228.5t-106 -170t-168 -106.5t-223 -37q-122 0 -218.5 35.5t-163 104.5t-102 169.5t-35.5 230.5v810h266v-798z" />
<glyph unicode="V" horiz-adv-x="1281" d="M1269 1330l-468 -1330h-322l-468 1330h294q77 -241 153.5 -480t152.5 -481l32 -71l332 1032h294z" />
<glyph unicode="W" horiz-adv-x="1887" d="M1856 1330l-360 -1330h-310l-242 840l-243 -840h-309l-361 1330h297l237 -991l31 84l236 887h223l236 -887l32 -84l236 991h297z" />
<glyph unicode="X" horiz-adv-x="1320" d="M1295 0h-303l-332 495l-330 -495h-305l476 686l-431 644h301l289 -455l290 455h301l-432 -644z" />
<glyph unicode="Y" horiz-adv-x="1176" d="M454 501l-443 829h289l289 -578l289 578h287l-444 -829v-501h-267v501z" />
<glyph unicode="Z" horiz-adv-x="1100" d="M679 1111h-565v218h893v-188l-626 -923h665v-218h-972v188z" />
<glyph unicode="[" horiz-adv-x="661" d="M626 -271l-489 -8v1884h489v-187l-250 -5v-1499h250v-185z" />
<glyph unicode="\" horiz-adv-x="904" d="M203 1585l774 -1835h-256l-774 1835h256z" />
<glyph unicode="]" horiz-adv-x="661" d="M40 1597l489 8v-1884h-489v187l250 5v1499h-250v185z" />
<glyph unicode="^" horiz-adv-x="1187" d="M113 776l340 704h281l340 -704h-276l-204 449l-205 -449h-276z" />
<glyph unicode="_" horiz-adv-x="1197" d="M137 -26h923v-210h-923v210z" />
<glyph unicode="`" horiz-adv-x="803" d="M631 1166l-518 157l102 223l474 -249z" />
<glyph unicode="a" horiz-adv-x="973" d="M829 252q0 -37 14.5 -53t39.5 -16q20 0 35 4t27 8l21 -184q-29 -13 -69 -22t-87 -9q-64 0 -111 27.5t-71 81.5q-57 -53 -124.5 -81t-136.5 -28q-71 0 -130.5 20.5t-102.5 58t-66.5 89.5t-23.5 116q0 94 43 156.5t116 97.5t169.5 44.5t203.5 -2.5v99q0 83 -39 125t-131 42 q-39 0 -77 -5.5t-72.5 -14.5t-64.5 -20t-51 -21l-52 188q25 14 63.5 30t85 29.5t98 22.5t104.5 9q190 0 289.5 -89t99.5 -254v-449zM297 290q0 -54 34 -84.5t91 -30.5q42 0 81.5 17t72.5 44v176q-48 8 -98 7t-90 -14.5t-65.5 -41.5t-25.5 -73z" />
<glyph unicode="b" horiz-adv-x="1135" d="M403 1480v-515q29 18 66.5 33.5t80.5 24.5q32 9 67.5 13.5t73.5 2.5q91 -7 163 -47.5t121.5 -108t76 -159.5t26.5 -203q0 -123 -35.5 -223t-104 -170.5t-168.5 -109t-229 -38.5q-54 0 -110.5 8.5t-109.5 23.5t-100.5 35.5t-83.5 44.5v1367zM803 505q0 72 -15.5 132 t-45.5 102.5t-73.5 66t-99.5 23.5q-44 0 -89 -14t-77 -35v-568q27 -11 64 -17t83 -6q66 0 113.5 22t78.5 63.5t46 100t15 130.5z" />
<glyph unicode="c" horiz-adv-x="911" d="M333 518q0 -154 66.5 -237t198.5 -83q34 0 67 5t61.5 12t52 15t38.5 14l59 -190q-49 -28 -131.5 -51t-186.5 -23q-116 0 -208.5 38t-157.5 106.5t-100 164.5t-35 213q0 121 36 221t103 171.5t163 110.5t216 39q48 0 91.5 -6.5t80 -17t65.5 -23t49 -23.5l-56 -192 q-13 4 -34 11.5t-48 15t-59 12.5t-66 5q-64 0 -113.5 -21t-83 -61t-51 -97t-17.5 -129z" />
<glyph unicode="d" horiz-adv-x="1146" d="M798 0l-28 105q-11 -11 -34.5 -31.5t-60 -41.5t-85.5 -36.5t-110 -15.5q-99 0 -177 37.5t-133 106.5t-84 165.5t-29 213.5q0 120 35.5 219.5t101 171t156.5 111t202 39.5q52 0 101 -13t90 -33v461l265 21v-1480h-210zM743 793q-29 17 -72.5 29.5t-96.5 12.5 q-57 0 -102 -23.5t-76 -66t-47 -100.5t-16 -127q0 -73 15 -132.5t44 -102t71 -65.5t97 -23q26 0 52.5 5.5t51 15.5t45 23.5t34.5 28.5v525z" />
<glyph unicode="e" horiz-adv-x="1012" d="M325 457q8 -131 78 -195t193 -64q85 0 153.5 17t115.5 35l57 -192q-24 -12 -59.5 -25.5t-81 -25t-100.5 -19.5t-118 -8q-118 0 -212 38t-159 107t-100 165t-35 212q0 122 34.5 222t99 171t157.5 110t209 39q95 0 169 -27.5t124.5 -78t77 -120.5t26.5 -155 q0 -66 -9.5 -119.5t-21.5 -86.5h-598zM535 845q-94 0 -146 -61t-61 -176h366q7 32 7 71q-3 79 -46.5 122.5t-119.5 43.5z" />
<glyph unicode="f" horiz-adv-x="670" d="M421 1024h245v-199h-240v-825h-265v825h-150v180l154 10v103q0 81 25 148t73 114.5t118.5 73.5t160.5 26q78 0 130 -13t87 -25l-43 -194q-21 7 -57.5 14.5t-79.5 7.5q-79 0 -118.5 -40t-39.5 -128v-78z" />
<glyph unicode="g" horiz-adv-x="1044" d="M457 310h-18t-17 1q-20 -17 -35.5 -38.5t-15.5 -41.5q-3 -51 65 -51h219q76 0 138.5 -19t106.5 -56t68.5 -90.5t24.5 -123.5q0 -74 -39.5 -134.5t-109.5 -103t-165.5 -66t-207.5 -23.5q-215 0 -323.5 59.5t-108.5 175.5q0 42 15 76.5t39 63t55.5 51t64.5 38.5 q-9 7 -20.5 17.5t-21.5 25.5t-17 35.5t-7 46.5q0 51 36 100.5t93 86.5q-106 39 -161.5 123.5t-55.5 206.5q0 87 28.5 156.5t82 118t129 74t170.5 25.5q75 0 138 -18t112 -51q38 24 78.5 39t79 22t72.5 7t60 -7v-200q-36 5 -84 4.5t-88 -9.5q14 -33 22 -70t8 -78 q0 -87 -28.5 -156t-82 -117.5t-129.5 -74t-170 -25.5zM466 481q38 0 67.5 14t49 39t29.5 60t10 77q0 95 -40.5 148t-121.5 53q-77 0 -116.5 -53t-39.5 -137q0 -94 40.5 -147.5t121.5 -53.5zM506 -248q55 0 99 8t75.5 24t48.5 39.5t17 54.5q0 28 -13.5 46.5t-38 28.5t-60 14 t-80.5 4h-203q-13 -8 -26.5 -19.5t-25 -26t-18.5 -31.5t-7 -35q0 -54 60 -80.5t172 -26.5z" />
<glyph unicode="h" horiz-adv-x="1160" d="M403 1480v-545q27 22 59.5 41.5t69 34.5t77 24t84.5 9q171 0 257.5 -90.5t86.5 -279.5v-674h-266v633q0 98 -38 144t-121 46q-24 0 -52.5 -6.5t-57 -17.5t-54.5 -26t-45 -32v-741h-266v1459z" />
<glyph unicode="i" horiz-adv-x="540" d="M116 1342q0 78 44.5 119t116.5 41q31 0 58 -10t47 -29t31 -45.5t11 -60.5q0 -79 -44.5 -120t-116.5 -41q-32 0 -58.5 10t-46.5 29t-31 46t-11 61zM403 1024v-1024h-266v1024h266z" />
<glyph unicode="j" horiz-adv-x="553" d="M129 1342q0 78 44.5 119t116.5 41q31 0 58 -10t46.5 -29t30.5 -45.5t11 -60.5q0 -79 -44.5 -120t-116.5 -41q-32 0 -58.5 10t-46 29t-30.5 46t-11 61zM150 1024h265v-1049q0 -201 -94.5 -296t-278.5 -95q-52 0 -93 8.5t-67 19.5l30 197q17 -5 40.5 -10t53.5 -5 q74 0 109 38t35 125v1067z" />
<glyph unicode="k" horiz-adv-x="1089" d="M403 1480v-919l346 463h290l-317 -424l345 -600h-298l-245 438l-121 -159v-279h-266v1459z" />
<glyph unicode="l" horiz-adv-x="540" d="M403 1480v-1480h-266v1459z" />
<glyph unicode="m" horiz-adv-x="1766" d="M351 1024l27 -110q24 23 56.5 46.5t72 42t84.5 30t95 11.5q201 0 282 -134q74 64 160 99t178 35q168 0 252.5 -90.5t84.5 -279.5v-674h-265v633q0 98 -37 144t-116 46q-43 0 -97.5 -21t-105.5 -60q1 -17 1 -35v-35v-672h-265v633q0 98 -37 144t-116 46q-23 0 -50 -6.5 t-54 -17.5t-52.5 -26t-45.5 -32v-741h-266v1024h214z" />
<glyph unicode="n" horiz-adv-x="1160" d="M351 1024l27 -110q25 22 58.5 45.5t73.5 42t86 30.5t97 12q171 0 257.5 -90.5t86.5 -279.5v-674h-266v633q0 97 -38 143.5t-121 46.5q-24 0 -52.5 -6.5t-57 -17.5t-54.5 -26t-45 -32v-741h-266v1024h214z" />
<glyph unicode="o" horiz-adv-x="1122" d="M555 -20q-116 0 -208 38t-156.5 107t-99 165t-34.5 213q0 121 35 221t101 171t160.5 110t213.5 39q116 0 208 -38t156.5 -107t98.5 -165t34 -213q0 -121 -35 -220.5t-101 -171t-160.5 -110.5t-212.5 -39zM566 179q56 0 98 24t69.5 67t41.5 103t14 132q0 78 -14 140.5 t-43 107t-72.5 68.5t-103.5 24q-57 0 -98.5 -24t-69.5 -67t-41.5 -103t-13.5 -132q0 -77 14 -140t42.5 -107.5t72.5 -68.5t104 -24z" />
<glyph unicode="p" horiz-adv-x="1146" d="M347 1024l28 -106q12 11 35.5 32t59.5 42t85 36.5t111 15.5q99 0 177 -37.5t132.5 -106.5t83.5 -165.5t29 -213.5q0 -120 -35.5 -219.5t-100.5 -171t-156 -111t-202 -39.5q-52 0 -101 13t-90 33v-422h-266v1420h210zM403 230q29 -17 72 -29t96 -12q57 0 102 23.5t76 65.5 t47.5 100t16.5 127q0 73 -15 133t-44 102.5t-71 65.5t-97 23q-26 0 -52.5 -5.5t-51 -15.5t-45 -23.5t-34.5 -28.5v-526z" />
<glyph unicode="q" horiz-adv-x="1135" d="M733 -396v455q-18 -12 -44 -26t-57.5 -26t-68 -20t-75.5 -8q-101 0 -180.5 38t-135.5 107t-85.5 165t-29.5 213q0 123 35.5 223t104 170.5t168.5 109t229 38.5q54 0 110.5 -7.5t109.5 -20t100.5 -28.5t83.5 -33v-1350h-265zM333 517q0 -72 15.5 -131.5t45 -102t73 -66 t99.5 -23.5q45 0 90 14t77 35v567q-27 11 -64 18t-83 7q-66 0 -114 -22.5t-78.5 -64t-45.5 -100t-15 -131.5z" />
<glyph unicode="r" horiz-adv-x="739" d="M348 1024l35 -133q25 29 62 57t82 49.5t94.5 34t98.5 10.5v-245q-42 1 -87.5 -5.5t-87.5 -19t-79 -29t-63 -34.5v-709h-266v1024h211z" />
<glyph unicode="s" horiz-adv-x="858" d="M121 254q23 -11 54.5 -22.5t68 -21.5t75.5 -16t78 -6q70 0 113 18.5t43 65.5q0 23 -12 41t-33 33t-51 27.5t-66 26.5l-75 28q-125 45 -184.5 117t-59.5 180q0 74 28.5 133t79 100.5t120 63.5t152.5 22t168 -16.5t154 -51.5l-46 -198q-24 9 -55 19t-65.5 19t-71 14.5 t-71.5 5.5q-27 0 -53 -5t-46 -16t-32 -28.5t-12 -42.5q0 -21 8.5 -38.5t27.5 -32.5t49 -30t73 -31l82 -32q121 -46 181.5 -117t60.5 -183q0 -69 -24 -124.5t-72.5 -94.5t-121 -60t-169.5 -21q-118 0 -206 23.5t-146 53.5z" />
<glyph unicode="t" horiz-adv-x="760" d="M421 1024h278v-199h-272v-473q0 -86 31.5 -121t103.5 -35q19 0 39.5 2t39 5.5t35 7.5t28.5 8l34 -196q-20 -8 -48 -16t-60 -14t-65.5 -9.5t-64.5 -3.5q-89 0 -153.5 20t-105.5 61.5t-60.5 106t-19.5 153.5v504h-150v180l167 10l20 236l223 19v-246z" />
<glyph unicode="u" horiz-adv-x="1144" d="M793 0l-27 110q-24 -23 -56.5 -46.5t-72 -42t-85 -30t-94.5 -11.5q-168 0 -252.5 90.5t-84.5 279.5v674h265v-633q0 -98 36.5 -144t116.5 -46q23 0 50 6.5t54 17.5t52.5 26t45.5 32v741h265v-1024h-213z" />
<glyph unicode="v" horiz-adv-x="1058" d="M1053 1024l-368 -1024h-312l-368 1024h289l232 -740l26 51l213 689h288z" />
<glyph unicode="w" horiz-adv-x="1605" d="M1593 1024l-299 -1024h-321l-171 593l-170 -593h-322l-298 1024h284l189 -741l26 62l176 669h231l176 -669l26 -62l189 741h284z" />
<glyph unicode="x" horiz-adv-x="1036" d="M1044 0h-298l-228 349l-228 -349h-298l374 528l-339 496h297l194 -317l195 317h296l-338 -496z" />
<glyph unicode="y" horiz-adv-x="1080" d="M1062 1024l-340 -1028q-38 -112 -83.5 -190t-103.5 -127.5t-130.5 -72t-163.5 -22.5q-35 0 -68.5 5t-62 12t-51.5 15t-37 14l44 192q17 -6 59.5 -17t102.5 -11q71 0 120.5 41t76.5 137l-51 107q-93 237 -183.5 472t-182.5 473h292l236 -716l24 -47l214 763h288z" />
<glyph unicode="z" horiz-adv-x="968" d="M550 825h-434v199h741v-162l-469 -663h499v-199h-806v162z" />
<glyph unicode="{" horiz-adv-x="676" d="M350 1342q0 -31 14.5 -64.5t36 -68.5t47 -72t47 -74.5t36 -76t14.5 -76.5q0 -49 -15 -89.5t-41.5 -72t-63 -53t-79.5 -31.5q43 -11 79.5 -31.5t63 -50t41.5 -66.5t15 -80q0 -40 -14.5 -80.5t-36 -81t-47 -79.5t-47 -75t-36 -68t-14.5 -58q0 -52 32 -82.5t95 -30.5 q36 0 67.5 5.5t53.5 12.5l30 -173q-25 -12 -73 -23.5t-107 -11.5q-72 0 -132.5 17.5t-104 52.5t-67.5 86t-24 119q0 44 14 86t34.5 82t44.5 77.5t44.5 72.5t34.5 67t14 62q0 81 -56.5 122t-158.5 43v172q17 1 33.5 2.5t30.5 4.5q74 9 112.5 49.5t38.5 92.5q0 33 -14 68 t-34.5 71t-44.5 73t-44.5 75t-34.5 76t-14 76q0 73 25.5 129t70 94t105.5 57t133 19q54 0 101.5 -11t72.5 -23l-30 -173q-22 7 -54 12.5t-73 5.5q-29 0 -51.5 -9.5t-38 -24.5t-23.5 -34t-8 -38z" />
<glyph unicode="|" horiz-adv-x="514" d="M376 1523v-2022h-239v2022h239z" />
<glyph unicode="}" horiz-adv-x="676" d="M331 1342q0 19 -8 38t-24 34t-38.5 24.5t-50.5 9.5q-42 0 -73.5 -5.5t-53.5 -12.5l-30 173q25 12 72.5 23t101.5 11q72 0 133 -19t105.5 -57t70 -94t25.5 -129q0 -38 -14 -76t-34.5 -76t-44.5 -75t-44.5 -73t-34.5 -71t-14 -68q0 -71 57.5 -109t157.5 -40v-172 q-104 -2 -159.5 -44t-55.5 -121q0 -30 14 -62t34.5 -67t44.5 -72.5t44.5 -77.5t34.5 -82t14 -86q0 -68 -24 -119t-67.5 -86t-104 -52.5t-132.5 -17.5q-59 0 -107 11.5t-73 23.5l30 173q22 -7 53 -12.5t68 -5.5q62 0 94.5 30.5t32.5 82.5q0 26 -14.5 58t-36 68t-47 75 t-47 79.5t-36 81t-14.5 80.5q0 43 15 80t41.5 66t63 50t79.5 32q-43 10 -79.5 31.5t-63 52.5t-41.5 71.5t-15 90.5q0 38 14.5 76.5t36 76.5t47 74.5t47 71.5t36 68.5t14.5 64.5z" />
<glyph unicode="~" horiz-adv-x="1095" d="M125 662q49 65 119.5 103t155.5 38q44 0 83 -10.5t76.5 -23.5t73.5 -23.5t74 -10.5q28 0 54 7.5t49 18.5t42.5 23.5t33.5 22.5l84 -139q-49 -65 -119.5 -103t-155.5 -38q-44 0 -83 10.5t-76.5 23.5t-73.5 23.5t-74 10.5q-28 0 -54 -7.5t-49 -18.5t-42 -23.5t-34 -22.5z " />
<glyph unicode="&#xa1;" horiz-adv-x="512" d="M112 -306l45 909h199l45 -909h-289zM102 884q0 78 44.5 119t116.5 41q31 0 58 -10t47 -29t31 -46t11 -60q0 -80 -44.5 -120.5t-116.5 -40.5q-32 0 -58.5 10t-46.5 29t-31 46t-11 61z" />
<glyph unicode="&#xa2;" horiz-adv-x="1245" d="M826 1432l-17 -240q72 -8 130.5 -27.5t96.5 -39.5l-57 -189q-14 5 -36.5 12.5t-52 15t-63 13t-68.5 5.5q-67 0 -123.5 -19.5t-98 -58.5t-64.5 -97t-23 -136q0 -81 22.5 -141.5t64.5 -101.5t102 -61.5t134 -20.5q34 0 66 4.5t60.5 11.5t52.5 15t41 15l61 -187 q-42 -23 -103.5 -42t-136.5 -27l17 -239h-219l17 241q-107 15 -191.5 59t-143 111.5t-89 155.5t-30.5 192q0 105 31 195.5t89 159.5t141.5 114.5t188.5 61.5l-18 245h219z" />
<glyph unicode="&#xa3;" horiz-adv-x="1250" d="M161 747h140q-6 47 -11 94t-5 97q0 94 29.5 170.5t85.5 130t138 82.5t186 29q51 0 96.5 -8t83 -20t66 -25.5t46.5 -23.5l-57 -193q-13 5 -37 14t-55.5 17.5t-68 14.5t-74.5 6q-82 0 -128.5 -45.5t-46.5 -134.5q0 -53 5.5 -103.5t13.5 -101.5h335v-137h-315q4 -32 6 -64.5 t2 -66.5q0 -61 -9 -129t-29 -136q67 -6 123 -15.5t112 -9.5q38 -1 63.5 8.5t43.5 27t29.5 42t21.5 54.5l171 -50q-7 -74 -33 -128.5t-67.5 -90.5t-97.5 -54t-123 -18q-42 0 -82 4.5t-80 10.5t-79.5 12t-80.5 9q-13 2 -26 2.5t-27 1.5q-11 -10 -22 -19q-10 -8 -22.5 -16.5 t-25.5 -14.5l-145 28l-46 158q12 7 28 14.5t34 14t37 12.5t36 9q19 69 25.5 134.5t6.5 124.5q0 37 -2.5 73t-7.5 72h-161v137z" />
<glyph unicode="&#xa4;" horiz-adv-x="1524" d="M1195 105l-202 188q-50 -25 -107.5 -38.5t-123.5 -13.5t-124 13.5t-107 38.5l-202 -188l-128 106l179 211q-37 52 -56.5 114.5t-19.5 133.5q0 70 19.5 132.5t56.5 114.5l-179 211l128 107l202 -190q50 26 107.5 39.5t123.5 13.5t123.5 -13.5t106.5 -39.5l203 190 l128 -107l-179 -211q37 -52 56.5 -114.5t19.5 -132.5t-19.5 -132t-55.5 -114l178 -213zM762 432q49 0 90 17.5t70.5 49t45.5 75t16 96.5q0 52 -16 95t-45.5 74.5t-70.5 49t-90 17.5t-90 -17.5t-70.5 -49t-46 -74.5t-16.5 -95q0 -53 16.5 -96.5t46 -75t70.5 -49t90 -17.5z " />
<glyph unicode="&#xa5;" horiz-adv-x="1334" d="M221 729v137h144l-260 464h276l286 -535l287 535h275l-262 -464h147v-137h-893zM244 602h847v-137h-291v-465h-267v465h-289v137z" />
<glyph unicode="&#xa6;" horiz-adv-x="514" d="M376 1523v-810h-239v810h239zM376 311v-810h-239v810h239z" />
<glyph unicode="&#xa7;" horiz-adv-x="1116" d="M951 1201q-51 18 -114.5 35t-135.5 22q-22 -40 -29 -85t-0.5 -97.5t25.5 -113.5t50 -133l109 -253q39 -92 69.5 -162t50.5 -130.5t30.5 -119t10.5 -127.5q0 -101 -38 -184t-108.5 -143t-171.5 -93t-226 -33q-60 0 -114.5 8t-102 20t-85 26.5t-62.5 27.5l56 196 q51 -17 114.5 -34t135.5 -22q44 79 29.5 182.5t-75.5 246.5l-108 253q-39 92 -69.5 161.5t-51 130.5t-31 119.5t-10.5 127.5q0 100 38 183.5t108.5 143.5t171.5 93t226 33q60 0 115 -8t102 -20.5t84.5 -27t62.5 -26.5zM614 240q34 -79 48 -142t13.5 -113.5t-15 -90 t-37.5 -71.5q83 26 121.5 79t38.5 125q0 52 -10 103t-29 108.5t-47 125.5t-64 156l-109 254q-13 29 -23.5 56t-18.5 54q-26 68 -35 122t-6 97t16.5 76.5t34.5 61.5q-82 -26 -120.5 -79.5t-38.5 -124.5q0 -53 10 -103.5t29 -108t47 -125.5t64 -156z" />
<glyph unicode="&#xa8;" horiz-adv-x="971" d="M117 1342q0 78 44.5 119t116.5 41q31 0 58 -10t46.5 -29t30.5 -45.5t11 -60.5q0 -79 -44.5 -120t-116.5 -41q-32 0 -58.5 10t-46 29t-30.5 46t-11 61zM547 1342q0 78 44.5 119t116.5 41q31 0 58 -10t46.5 -29t30.5 -45.5t11 -60.5q0 -79 -44.5 -120t-116.5 -41 q-32 0 -58.5 10t-46 29t-30.5 46t-11 61z" />
<glyph unicode="&#xa9;" horiz-adv-x="1576" d="M639 670q0 -106 43 -160.5t134 -54.5q48 0 90.5 10.5t68.5 21.5l46 -151q-37 -23 -98 -39.5t-136 -16.5q-83 0 -150 27.5t-114 77t-72.5 119t-25.5 153.5q0 88 26 160.5t75 124t118 79.5t156 28q70 0 124.5 -17t84.5 -35l-42 -153q-20 8 -60.5 19.5t-90.5 11.5 q-89 0 -133 -53t-44 -152zM264 667q0 -111 41 -208.5t112 -170t167 -114t206 -41.5q108 0 203 41.5t166 113.5t112 168t41 206q0 111 -41 208.5t-112.5 170t-168 114.5t-206.5 42q-108 0 -202.5 -42t-165 -114t-111.5 -168.5t-41 -205.5zM109 662q0 95 24.5 183t68.5 164.5 t106 139.5t137.5 107.5t162.5 69t181 24.5q93 0 179.5 -24.5t161.5 -69t137.5 -107t106.5 -138.5t68.5 -163t24.5 -181q0 -95 -24.5 -183t-68.5 -164.5t-106.5 -139t-138.5 -107t-163.5 -69t-181.5 -24.5q-139 0 -262 53.5t-214.5 146.5t-145 217t-53.5 265z" />
<glyph unicode="&#xaa;" horiz-adv-x="623" d="M521 901q0 -33 31 -33q11 0 20 2.5t14 4.5l16 -122q-17 -7 -48.5 -14.5t-66.5 -7.5q-43 0 -71.5 15t-45.5 42q-12 -10 -26 -20t-31 -18.5t-38 -13.5t-47 -5q-86 0 -136 43.5t-52 125.5q-1 47 17.5 81t50.5 56t74 32.5t89 11.5q18 1 35 0t31 -3v23q0 40 -18.5 60.5 t-63.5 20.5q-56 0 -98 -13.5t-64 -22.5l-35 150q14 7 37 16.5t52.5 18t64 14t70.5 5.5q119 0 179 -52.5t60 -147.5v-249zM215 916q1 -25 16 -36.5t38 -11.5q20 0 38.5 8t29.5 18v77q-9 2 -22.5 3.5t-30.5 0.5q-71 -6 -69 -59z" />
<glyph unicode="&#xab;" horiz-adv-x="1210" d="M688 868q-60 -89 -142 -180t-167 -176q85 -85 167 -176t142 -180l-178 -130q-47 63 -99 129t-106 129t-107 121.5t-101 106.5q48 49 101 107t107 121t106 129t99 129zM1137 828q-57 -81 -124.5 -161t-148.5 -155q81 -75 148.5 -155t124.5 -161l-178 -130 q-44 59 -91.5 119t-96 117.5t-96.5 111t-93 98.5q45 45 93 98t96.5 110.5t96 117.5t91.5 120z" />
<glyph unicode="&#xac;" horiz-adv-x="1225" d="M152 770h921v-490h-217v279h-704v211z" />
<glyph unicode="&#xad;" horiz-adv-x="879" d="M131 638h617v-211h-617v211z" />
<glyph unicode="&#xae;" horiz-adv-x="1576" d="M515 309v708h283q64 0 115.5 -15t88 -44t56 -71t19.5 -97q0 -63 -33 -115t-87 -81l142 -285h-218l-101 243h-73v-243h-192zM707 681h41q18 0 34.5 2t30.5 5q27 11 42.5 35.5t15.5 56.5q0 44 -22.5 68t-64.5 28q-9 1 -18.5 1.5t-20.5 0.5h-38v-197zM264 667 q0 -111 41 -208.5t112 -170t167 -114t206 -41.5q108 0 203 41.5t166 113.5t112 168t41 206q0 111 -41 208.5t-112.5 170t-168 114.5t-206.5 42q-108 0 -202.5 -42t-165 -114t-111.5 -168.5t-41 -205.5zM109 662q0 95 24.5 183t68.5 164.5t106 139.5t137.5 107.5t162.5 69 t181 24.5q93 0 179.5 -24.5t161.5 -69t137.5 -107t106.5 -138.5t68.5 -163t24.5 -181q0 -95 -24.5 -183t-68.5 -164.5t-106.5 -139t-138.5 -107t-163.5 -69t-181.5 -24.5q-139 0 -262 53.5t-214.5 146.5t-145 217t-53.5 265z" />
<glyph unicode="&#xaf;" horiz-adv-x="843" d="M113 1448h617v-195h-617v195z" />
<glyph unicode="&#xb0;" horiz-adv-x="629" d="M308 819q-59 0 -108 21t-84.5 56.5t-55 82.5t-19.5 99q0 56 20 105.5t56.5 86.5t88 58.5t115.5 21.5q59 0 108 -21t84.5 -56.5t55 -83t19.5 -99.5q0 -56 -19.5 -105.5t-56 -86.5t-88.5 -58t-116 -21zM319 984q40 0 63.5 28.5t23.5 66.5q0 44 -24.5 74.5t-72.5 30.5 q-40 0 -63.5 -28.5t-23.5 -66.5q0 -44 25 -74.5t72 -30.5z" />
<glyph unicode="&#xb1;" horiz-adv-x="1197" d="M680 1254v-314h318v-198h-318v-326h-203v326h-318v198h318v314h203zM165 233h827v-198h-827v198z" />
<glyph unicode="&#xb2;" horiz-adv-x="544" d="M37 900q61 35 107 63.5t77 54t47 50t16 51.5q0 32 -18.5 48.5t-50.5 16.5q-22 0 -43.5 -4t-40 -10t-32.5 -12l-21 -9l-43 145q8 6 28 15.5t48 18.5t62 15.5t71 6.5q62 0 107 -16t74.5 -43t43.5 -64t14 -79q0 -41 -14.5 -75.5t-41 -64t-64 -53.5t-83.5 -45h226v-159h-469 v149z" />
<glyph unicode="&#xb3;" horiz-adv-x="524" d="M271 1148q0 23 -20 38t-60 15q-35 0 -68.5 -8t-53.5 -18l-36 133q8 5 25 12t41 14t54.5 11.5t65.5 4.5q61 0 107 -12.5t76.5 -35.5t45.5 -55t15 -70q0 -27 -7.5 -47t-18 -34.5t-23 -24t-22.5 -15.5q12 -6 27.5 -16t29 -26.5t23 -39.5t9.5 -54q0 -94 -70 -141.5 t-198 -47.5q-29 0 -58 4t-54 9.5t-44.5 12t-29.5 12.5l36 136q17 -6 53 -15.5t86 -9.5q89 0 89 53q0 54 -74 54h-94v114h126q8 7 15 17.5t7 29.5z" />
<glyph unicode="&#xb4;" horiz-adv-x="803" d="M113 1297l483 253l101 -224l-525 -160z" />
<glyph unicode="&#xb6;" horiz-adv-x="1209" d="M566 470q-114 0 -207 28.5t-159.5 83.5t-102.5 136t-36 187t36.5 185.5t103.5 132.5t161 80t208 27h557v-218h-157v-1109q0 -108 -26.5 -187t-75.5 -130.5t-120 -76.5t-159 -25q-75 0 -126.5 11.5t-72.5 20.5l33 204q17 -4 49.5 -9t77.5 -5q52 1 82.5 17t46.5 48.5t20 81 t4 114.5v1045h-137v-642z" />
<glyph unicode="&#xb7;" horiz-adv-x="552" d="M122 505q0 78 44.5 119t116.5 41q31 0 58 -10t47 -29t31 -45.5t11 -60.5q0 -79 -44.5 -120t-116.5 -41q-32 0 -58.5 10t-46.5 29t-31 46t-11 61z" />
<glyph unicode="&#xb8;" horiz-adv-x="571" d="M109 -379q13 -4 32.5 -7t45.5 -3q47 0 71.5 19.5t24.5 54.5q0 36 -25 53.5t-70 17.5h-57l10 138h111q49 0 91 -12t73 -36.5t49 -62t18 -88.5q0 -60 -21 -102t-58.5 -69t-88 -39t-108.5 -12q-38 0 -69.5 6t-46.5 13z" />
<glyph unicode="&#xb9;" horiz-adv-x="549" d="M193 911v260q-14 -2 -32.5 -4.5t-38 -5t-38 -4.5t-31.5 -3l-17 153q31 4 66.5 9t71 11t70.5 11.5t66 11.5h78v-439l129 -4v-156h-475v156z" />
<glyph unicode="&#xba;" horiz-adv-x="687" d="M337 731q-68 0 -122.5 24t-93 65t-59.5 96t-21 118q0 68 21 126t61 100t97.5 66t129.5 24q68 0 122.5 -24t93 -65t59.5 -96.5t21 -118.5q0 -68 -21 -125.5t-61 -99.5t-97 -66t-130 -24zM347 900q25 0 43 10.5t29.5 29t16.5 43.5t5 53q0 31 -5.5 57t-17.5 45.5t-31.5 30.5 t-47.5 11q-25 0 -43 -11t-29 -29.5t-16.5 -43t-5.5 -52.5q0 -30 5.5 -56.5t17.5 -46t31.5 -30.5t47.5 -11z" />
<glyph unicode="&#xbb;" horiz-adv-x="1210" d="M527 157q59 89 141 180t168 176q-86 85 -168 176t-141 180l178 130q46 -63 98.5 -129t106 -129t106.5 -121.5t101 -106.5q-48 -49 -101 -107t-106.5 -121t-106 -129t-98.5 -129zM78 197q56 81 124 161t149 155q-81 75 -149 154.5t-124 160.5l178 131q44 -59 91.5 -119 t96 -117.5t96 -111t92.5 -98.5q-45 -45 -93 -98.5t-96 -111t-95.5 -117.5t-91.5 -119z" />
<glyph unicode="&#xbf;" horiz-adv-x="814" d="M607 506q0 -58 -28.5 -106t-76.5 -97q-29 -30 -61.5 -61t-61 -63.5t-47 -66t-18.5 -68.5q0 -69 40 -108t117 -45q20 -1 38.5 -0.5t37.5 2.5q71 5 120.5 22.5t68.5 27.5l57 -185q-21 -12 -52 -26.5t-73 -27t-94.5 -21.5t-114.5 -9q-92 0 -167.5 25.5t-128.5 71.5t-82 108 t-29 136q0 67 25 120.5t63 98.5t82 83.5t81.5 76t62 75t24.5 80.5q1 17 0 29.5t-3 20.5l193 17q8 -15 17.5 -41.5t9.5 -68.5zM315 884q0 78 44.5 119t116.5 41q31 0 58 -10t46.5 -29t30.5 -46t11 -60q0 -80 -44.5 -120.5t-116.5 -40.5q-32 0 -58.5 10t-46 29t-30.5 46 t-11 61z" />
<glyph unicode="&#xc0;" horiz-adv-x="1299" d="M894 308h-489l-109 -308h-285l515 1330h246l516 -1330h-285zM859 1466l-518 157l102 223l475 -249zM477 513h344l-147 423l-28 62z" />
<glyph unicode="&#xc1;" horiz-adv-x="1299" d="M894 308h-489l-109 -308h-285l515 1330h246l516 -1330h-285zM375 1597l483 253l101 -224l-525 -160zM477 513h344l-147 423l-28 62z" />
<glyph unicode="&#xc2;" horiz-adv-x="1299" d="M894 308h-489l-109 -308h-285l515 1330h246l516 -1330h-285zM866 1442q-25 18 -54 41t-58 47t-56.5 47.5t-48.5 43.5q-21 -20 -48 -43.5t-56 -47.5t-58 -47t-54 -41l-129 161q34 22 75.5 50.5t86.5 59.5t91.5 64t91.5 66q45 -33 91.5 -66t91.5 -64t86.5 -59.5t75.5 -50.5 zM477 513h344l-147 423l-28 62z" />
<glyph unicode="&#xc3;" horiz-adv-x="1299" d="M894 308h-489l-109 -308h-285l515 1330h246l516 -1330h-285zM290 1602q11 31 31.5 64.5t51.5 62t71 47t90 18.5q35 0 68 -11.5t63 -25t56.5 -25t49.5 -11.5q18 0 32 6.5t27 17.5t25.5 25.5t26.5 30.5l128 -99q-14 -36 -36 -70.5t-53.5 -61t-72 -42.5t-91.5 -16 q-31 0 -61 11.5t-58.5 25t-55.5 25t-53 11.5q-17 0 -31.5 -6.5t-27.5 -17.5t-25.5 -25.5t-25.5 -30.5zM477 513h344l-147 423l-28 62z" />
<glyph unicode="&#xc4;" horiz-adv-x="1299" d="M891 317h-483l-112 -317h-285l515 1330h246l516 -1330h-285zM481 523h337l-144 413l-28 62zM277 1642q0 78 44.5 119t116.5 41q31 0 58 -10t47 -29t31 -45.5t11 -60.5q0 -79 -44.5 -120t-116.5 -41q-64 0 -105.5 39t-41.5 107zM714 1642q0 78 44.5 119t116.5 41 q31 0 58 -10t47 -29t31 -45.5t11 -60.5q0 -79 -44.5 -120t-116.5 -41q-32 0 -58.5 10t-46.5 29t-31 46t-11 61z" />
<glyph unicode="&#xc5;" horiz-adv-x="1299" d="M894 308h-489l-109 -308h-285l515 1330h246l516 -1330h-285zM409 1642q0 56 18.5 99.5t51.5 73.5t78.5 45.5t100.5 15.5q50 0 92.5 -15t73.5 -43t48.5 -68.5t17.5 -90.5q0 -57 -18.5 -100.5t-51.5 -73.5t-78.5 -45.5t-100.5 -15.5q-50 0 -92.5 15t-73.5 43.5t-48.5 68.5 t-17.5 91zM477 513h344l-147 423l-28 62zM572 1648q0 -34 21.5 -55t53.5 -21q36 0 58 21.5t22 58.5q0 35 -22 55.5t-54 20.5q-35 0 -57 -21t-22 -59z" />
<glyph unicode="&#xc6;" horiz-adv-x="1876" d="M1775 1330v-218h-519v-336h493v-212h-493v-346h539v-218h-799v309h-480l-224 -309h-287l972 1330h798zM996 514v457l-330 -457h330z" />
<glyph unicode="&#xc7;" horiz-adv-x="1148" d="M70 661q0 154 47.5 281t136 218t214 140.5t281.5 49.5q43 0 88 -5.5t87 -15.5t79.5 -23.5t65.5 -29.5l-58 -201q-60 24 -123.5 37.5t-132.5 13.5q-93 0 -167.5 -30t-126 -87.5t-79 -141t-27.5 -190.5q0 -108 27.5 -195.5t79 -149t125.5 -95t167 -33.5q72 0 145 15t134 43 l65 -198q-32 -18 -72 -33.5t-85 -27t-93 -17.5t-94 -6q-161 0 -288 47.5t-215 135.5t-134.5 214t-46.5 284zM503 -379q13 -4 32 -7t45 -3q47 0 72 19.5t25 54.5q0 36 -25 53.5t-70 17.5h-57l10 138h111q48 0 90 -12t73 -36.5t49 -62t18 -88.5q0 -60 -21 -102t-58 -69 t-87.5 -39t-108.5 -12q-39 0 -70 6t-46 13z" />
<glyph unicode="&#xc8;" horiz-adv-x="1055" d="M954 1112h-550v-336h524v-212h-524v-346h570v-218h-837v1330h817v-218zM765 1466l-517 157l101 223l475 -249z" />
<glyph unicode="&#xc9;" horiz-adv-x="1055" d="M954 1112h-550v-336h524v-212h-524v-346h570v-218h-837v1330h817v-218zM288 1597l483 253l101 -224l-525 -160z" />
<glyph unicode="&#xca;" horiz-adv-x="1055" d="M954 1112h-550v-336h524v-212h-524v-346h570v-218h-837v1330h817v-218zM772 1442q-25 18 -53.5 41t-57.5 47t-56.5 47.5t-48.5 43.5q-22 -20 -49 -43.5t-55.5 -47.5t-57.5 -47t-54 -41l-129 161q34 22 75.5 50.5t86.5 59.5t91.5 64t91.5 66q45 -33 91.5 -66t91.5 -64 t86 -59.5t76 -50.5z" />
<glyph unicode="&#xcb;" horiz-adv-x="1055" d="M954 1112h-550v-336h524v-212h-524v-346h570v-218h-837v1330h817v-218zM187 1642q0 78 44.5 119t116.5 41q31 0 58 -10t47 -29t31 -45.5t11 -60.5q0 -79 -44.5 -120t-116.5 -41q-32 0 -58.5 10t-46.5 29t-31 46t-11 61zM617 1642q0 78 44.5 119t116.5 41q31 0 58 -10 t47 -29t31 -45.5t11 -60.5q0 -79 -44.5 -120t-116.5 -41q-64 0 -105.5 39t-41.5 107z" />
<glyph unicode="&#xcc;" horiz-adv-x="541" d="M137 1330h267v-1330h-267v1330zM474 1466l-518 157l102 223l474 -249z" />
<glyph unicode="&#xcd;" horiz-adv-x="541" d="M137 1330h267v-1330h-267v1330zM2 1597l483 253l102 -224l-525 -160z" />
<glyph unicode="&#xce;" horiz-adv-x="541" d="M137 1330h267v-1330h-267v1330zM487 1442q-25 18 -54 41t-58 47t-56.5 47.5t-48.5 43.5q-21 -20 -48 -43.5t-56 -47.5t-58 -47t-54 -41l-129 161q34 22 75.5 50.5t86.5 59.5t91.5 64t91.5 66q45 -33 91.5 -66t91.5 -64t86.5 -59.5t75.5 -50.5z" />
<glyph unicode="&#xcf;" horiz-adv-x="541" d="M137 1330h267v-1330h-267v1330zM-82 1642q0 78 44.5 119t116.5 41q31 0 58 -10t47 -29t31 -45.5t11 -60.5q0 -79 -44.5 -120t-116.5 -41q-64 0 -105.5 39t-41.5 107zM315 1642q0 78 44.5 119t116.5 41q31 0 58 -10t47 -29t31 -45.5t11 -60.5q0 -79 -44.5 -120t-116.5 -41 q-32 0 -58.5 10t-46.5 29t-31 46t-11 61z" />
<glyph unicode="&#xd0;" horiz-adv-x="1339" d="M7 735h159v595h433q160 0 285.5 -46.5t212 -132.5t131.5 -207.5t45 -270.5q0 -156 -45.5 -280.5t-131.5 -211.5t-211.5 -134t-285.5 -47h-433v596h-159v139zM600 207q88 0 160 31t122.5 89.5t78 142t27.5 188.5q0 111 -27 197.5t-77 146t-122 90.5t-163 31h-167v-388h301 v-139h-301v-389h168z" />
<glyph unicode="&#xd1;" horiz-adv-x="1365" d="M399 927v-927h-262v1330h290l539 -927v927h261v-1330h-289zM317 1602q11 31 31.5 64.5t51.5 62t71 47t90 18.5q35 0 68 -11.5t63 -25t56.5 -25t49.5 -11.5q18 0 32 6.5t27 17.5t25.5 25.5t26.5 30.5l128 -99q-14 -36 -36 -70.5t-53.5 -61t-72 -42.5t-91.5 -16 q-31 0 -61 11.5t-58.5 25t-55.5 25t-53 11.5q-17 0 -31.5 -6.5t-27.5 -17.5t-25.5 -25.5t-25.5 -30.5z" />
<glyph unicode="&#xd2;" horiz-adv-x="1419" d="M715 193q79 0 143 31t110 90t71 144.5t25 195.5q0 112 -25 201.5t-71.5 152t-113 96t-150.5 33.5q-79 0 -143.5 -31t-110 -90t-70.5 -145t-25 -195q0 -112 25 -201.5t71.5 -152t113 -96t150.5 -33.5zM704 -20q-150 0 -268 48t-199 136.5t-124 214.5t-43 282t44 283 t127.5 217t203 139.5t271.5 49.5q150 0 267.5 -48t199 -136.5t124 -214.5t42.5 -282t-44 -283t-127.5 -217t-203 -139.5t-270.5 -49.5zM925 1466l-517 157l102 223l474 -249z" />
<glyph unicode="&#xd3;" horiz-adv-x="1419" d="M715 193q79 0 143 31t110 90t71 144.5t25 195.5q0 112 -25 201.5t-71.5 152t-113 96t-150.5 33.5q-79 0 -143.5 -31t-110 -90t-70.5 -145t-25 -195q0 -112 25 -201.5t71.5 -152t113 -96t150.5 -33.5zM704 -20q-150 0 -268 48t-199 136.5t-124 214.5t-43 282t44 283 t127.5 217t203 139.5t271.5 49.5q150 0 267.5 -48t199 -136.5t124 -214.5t42.5 -282t-44 -283t-127.5 -217t-203 -139.5t-270.5 -49.5zM422 1597l483 253l101 -224l-525 -160z" />
<glyph unicode="&#xd4;" horiz-adv-x="1419" d="M715 193q79 0 143 31t110 90t71 144.5t25 195.5q0 112 -25 201.5t-71.5 152t-113 96t-150.5 33.5q-79 0 -143.5 -31t-110 -90t-70.5 -145t-25 -195q0 -112 25 -201.5t71.5 -152t113 -96t150.5 -33.5zM704 -20q-150 0 -268 48t-199 136.5t-124 214.5t-43 282t44 283 t127.5 217t203 139.5t271.5 49.5q150 0 267.5 -48t199 -136.5t124 -214.5t42.5 -282t-44 -283t-127.5 -217t-203 -139.5t-270.5 -49.5zM926 1442q-25 18 -53.5 41t-57.5 47t-56.5 47.5t-48.5 43.5q-22 -20 -49 -43.5t-56 -47.5t-58 -47t-54 -41l-128 161q34 22 75.5 50.5 t86.5 59.5t91.5 64t91.5 66q45 -33 91.5 -66t91.5 -64t86 -59.5t76 -50.5z" />
<glyph unicode="&#xd5;" horiz-adv-x="1419" d="M715 193q79 0 143 31t110 90t71 144.5t25 195.5q0 112 -25 201.5t-71.5 152t-113 96t-150.5 33.5q-79 0 -143.5 -31t-110 -90t-70.5 -145t-25 -195q0 -112 25 -201.5t71.5 -152t113 -96t150.5 -33.5zM704 -20q-150 0 -268 48t-199 136.5t-124 214.5t-43 282t44 283 t127.5 217t203 139.5t271.5 49.5q150 0 267.5 -48t199 -136.5t124 -214.5t42.5 -282t-44 -283t-127.5 -217t-203 -139.5t-270.5 -49.5zM351 1602q10 31 31 64.5t51.5 62t70.5 47t90 18.5q35 0 68 -11.5t63 -25t56.5 -25t49.5 -11.5q18 0 32.5 6.5t27.5 17.5t25.5 25.5 t26.5 30.5l128 -99q-14 -36 -36.5 -70.5t-54 -61t-72 -42.5t-90.5 -16q-31 0 -61 11.5t-58.5 25t-56 25t-53.5 11.5q-17 0 -31.5 -6.5t-27.5 -17.5t-25.5 -25.5t-25.5 -30.5z" />
<glyph unicode="&#xd6;" horiz-adv-x="1419" d="M715 193q79 0 143 31t110 90t71 144.5t25 195.5q0 112 -25 201.5t-71.5 152t-113 96t-150.5 33.5q-79 0 -143.5 -31t-110 -90t-70.5 -145t-25 -195q0 -112 25 -201.5t71.5 -152t113 -96t150.5 -33.5zM704 -20q-150 0 -268 48t-199 136.5t-124 214.5t-43 282t44 283 t127.5 217t203 139.5t271.5 49.5q150 0 267.5 -48t199 -136.5t124 -214.5t42.5 -282t-44 -283t-127.5 -217t-203 -139.5t-270.5 -49.5zM341 1642q0 78 44.5 119t116.5 41q31 0 58 -10t47 -29t31 -45.5t11 -60.5q0 -79 -44.5 -120t-116.5 -41q-64 0 -105.5 39t-41.5 107z M771 1642q0 78 44.5 119t116.5 41q31 0 58 -10t46.5 -29t30.5 -45.5t11 -60.5q0 -79 -44.5 -120t-116.5 -41q-32 0 -58.5 10t-46 29t-30.5 46t-11 61z" />
<glyph unicode="&#xd7;" horiz-adv-x="1161" d="M1017 953l-287 -288l287 -286l-149 -150l-288 287l-287 -288l-150 150l288 288l-287 286l150 150l287 -287l287 287z" />
<glyph unicode="&#xd8;" horiz-adv-x="1419" d="M141 -92l138 216q-103 89 -156 225t-53 312q0 156 44 283t127.5 217t203 139.5t271.5 49.5q88 0 164 -17t142 -49l133 209l123 -71l-138 -217q103 -88 156 -224.5t53 -311.5q0 -156 -44 -283t-127.5 -217t-203 -139.5t-270.5 -49.5q-176 0 -306 65l-134 -208zM715 193 q79 0 143 31t110 90t71 144.5t25 195.5q0 97 -19 176.5t-55 140.5l-463 -723q39 -26 86.5 -40.5t101.5 -14.5zM355 676q0 -98 19 -177.5t54 -140.5l464 723q-40 27 -86.5 41.5t-101.5 14.5q-79 0 -143.5 -31t-110 -90t-70.5 -145t-25 -195z" />
<glyph unicode="&#xd9;" horiz-adv-x="1273" d="M374 532q0 -89 18.5 -153t53 -105t83.5 -60.5t110 -19.5q119 0 187.5 77t68.5 238v821h266v-808q0 -128 -37 -228.5t-106 -170t-168 -106.5t-223 -37q-122 0 -218.5 35.5t-163 104.5t-102 169.5t-35.5 230.5v810h266v-798zM840 1466l-518 157l102 223l474 -249z" />
<glyph unicode="&#xda;" horiz-adv-x="1273" d="M374 532q0 -89 18.5 -153t53 -105t83.5 -60.5t110 -19.5q119 0 187.5 77t68.5 238v821h266v-808q0 -128 -37 -228.5t-106 -170t-168 -106.5t-223 -37q-122 0 -218.5 35.5t-163 104.5t-102 169.5t-35.5 230.5v810h266v-798zM357 1597l483 253l101 -224l-525 -160z" />
<glyph unicode="&#xdb;" horiz-adv-x="1273" d="M374 532q0 -89 18.5 -153t53 -105t83.5 -60.5t110 -19.5q119 0 187.5 77t68.5 238v821h266v-808q0 -128 -37 -228.5t-106 -170t-168 -106.5t-223 -37q-122 0 -218.5 35.5t-163 104.5t-102 169.5t-35.5 230.5v810h266v-798zM854 1442q-25 18 -53.5 41t-57.5 47t-56.5 47.5 t-48.5 43.5q-22 -20 -49 -43.5t-56 -47.5t-58 -47t-54 -41l-128 161q34 22 75.5 50.5t86.5 59.5t91.5 64t91.5 66q45 -33 91.5 -66t91 -64t86 -59.5t75.5 -50.5z" />
<glyph unicode="&#xdc;" horiz-adv-x="1273" d="M374 532q0 -89 18.5 -153t53 -105t83.5 -60.5t110 -19.5q119 0 187.5 77t68.5 238v821h266v-808q0 -128 -37 -228.5t-106 -170t-168 -106.5t-223 -37q-122 0 -218.5 35.5t-163 104.5t-102 169.5t-35.5 230.5v810h266v-798zM269 1642q0 78 44.5 119t116.5 41q31 0 58 -10 t47 -29t31 -45.5t11 -60.5q0 -79 -44.5 -120t-116.5 -41q-64 0 -105.5 39t-41.5 107zM699 1642q0 78 44.5 119t116.5 41q31 0 58 -10t46.5 -29t30.5 -45.5t11 -60.5q0 -79 -44.5 -120t-116.5 -41q-32 0 -58.5 10t-46 29t-30.5 46t-11 61z" />
<glyph unicode="&#xdd;" horiz-adv-x="1176" d="M454 501l-443 829h289l289 -578l289 578h287l-444 -829v-501h-267v501zM314 1597l483 253l101 -224l-525 -160z" />
<glyph unicode="&#xde;" horiz-adv-x="1108" d="M404 451h156q110 0 165 57t55 157q0 103 -54.5 158t-157.5 55h-164v-427zM137 0v1330h267v-246h162q118 0 210 -25.5t155 -76.5t95.5 -127t32.5 -177q0 -106 -35.5 -187t-100 -136t-153.5 -83.5t-195 -28.5h-171v-243h-267z" />
<glyph unicode="&#xdf;" horiz-adv-x="1203" d="M551 237q42 -18 102 -33t122 -15q65 0 99.5 18.5t34.5 61.5q0 22 -14 42t-38.5 41t-58 44t-72.5 49t-71.5 51t-56 54t-37 64t-13.5 82q0 39 10 70.5t28 60.5t43 56t56 57q21 22 41.5 43t36.5 43t26 47t10 54q0 28 -12 54t-35.5 46t-59 31.5t-81.5 11.5q-47 0 -86 -15.5 t-67 -45.5t-43.5 -73t-15.5 -98v-1038h-265v1055q0 89 32.5 166.5t95.5 135t155 90.5t211 33q108 0 190 -28.5t136.5 -75.5t82.5 -107t28 -123q0 -49 -14 -89.5t-37 -74.5t-51.5 -63.5t-58.5 -56.5q-53 -47 -79 -77t-26 -63q0 -18 10 -34t29 -33t47 -36.5t63 -44.5 q48 -33 88.5 -64t70.5 -66.5t47 -77t17 -94.5q0 -69 -25.5 -123t-74.5 -91.5t-120.5 -57.5t-162.5 -20q-99 0 -171 19.5t-108 40.5z" />
<glyph unicode="&#xe0;" horiz-adv-x="973" d="M829 252q0 -37 14.5 -53t39.5 -16q20 0 35 4t27 8l21 -184q-29 -13 -69 -22t-87 -9q-64 0 -111 27.5t-71 81.5q-57 -53 -124.5 -81t-136.5 -28q-71 0 -130.5 20.5t-102.5 58t-66.5 89.5t-23.5 116q0 94 43 156.5t116 97.5t169.5 44.5t203.5 -2.5v99q0 83 -39 125t-131 42 q-39 0 -77 -5.5t-72.5 -14.5t-64.5 -20t-51 -21l-52 188q25 14 63.5 30t85 29.5t98 22.5t104.5 9q190 0 289.5 -89t99.5 -254v-449zM297 290q0 -54 34 -84.5t91 -30.5q42 0 81.5 17t72.5 44v176q-48 8 -98 7t-90 -14.5t-65.5 -41.5t-25.5 -73zM692 1166l-518 157l102 223 l474 -249z" />
<glyph unicode="&#xe1;" horiz-adv-x="973" d="M829 252q0 -37 14.5 -53t39.5 -16q20 0 35 4t27 8l21 -184q-29 -13 -69 -22t-87 -9q-64 0 -111 27.5t-71 81.5q-57 -53 -124.5 -81t-136.5 -28q-71 0 -130.5 20.5t-102.5 58t-66.5 89.5t-23.5 116q0 94 43 156.5t116 97.5t169.5 44.5t203.5 -2.5v99q0 83 -39 125t-131 42 q-39 0 -77 -5.5t-72.5 -14.5t-64.5 -20t-51 -21l-52 188q25 14 63.5 30t85 29.5t98 22.5t104.5 9q190 0 289.5 -89t99.5 -254v-449zM297 290q0 -54 34 -84.5t91 -30.5q42 0 81.5 17t72.5 44v176q-48 8 -98 7t-90 -14.5t-65.5 -41.5t-25.5 -73zM163 1297l483 253l101 -224 l-525 -160z" />
<glyph unicode="&#xe2;" horiz-adv-x="973" d="M829 252q0 -37 14.5 -53t39.5 -16q20 0 35 4t27 8l21 -184q-29 -13 -69 -22t-87 -9q-64 0 -111 27.5t-71 81.5q-57 -53 -124.5 -81t-136.5 -28q-71 0 -130.5 20.5t-102.5 58t-66.5 89.5t-23.5 116q0 94 43 156.5t116 97.5t169.5 44.5t203.5 -2.5v99q0 83 -39 125t-131 42 q-39 0 -77 -5.5t-72.5 -14.5t-64.5 -20t-51 -21l-52 188q25 14 63.5 30t85 29.5t98 22.5t104.5 9q190 0 289.5 -89t99.5 -254v-449zM297 290q0 -54 34 -84.5t91 -30.5q42 0 81.5 17t72.5 44v176q-48 8 -98 7t-90 -14.5t-65.5 -41.5t-25.5 -73zM670 1142q-25 18 -54 41 t-58 47t-56.5 47.5t-48.5 43.5q-21 -20 -48 -43.5t-56 -47.5t-58 -47t-54 -41l-129 161q34 22 75.5 50.5t86.5 59.5t91.5 64t91.5 66q45 -33 91.5 -66t91.5 -64t86.5 -59.5t75.5 -50.5z" />
<glyph unicode="&#xe3;" horiz-adv-x="973" d="M829 252q0 -37 14.5 -53t39.5 -16q20 0 35 4t27 8l21 -184q-29 -13 -69 -22t-87 -9q-64 0 -111 27.5t-71 81.5q-57 -53 -124.5 -81t-136.5 -28q-71 0 -130.5 20.5t-102.5 58t-66.5 89.5t-23.5 116q0 94 43 156.5t116 97.5t169.5 44.5t203.5 -2.5v99q0 83 -39 125t-131 42 q-39 0 -77 -5.5t-72.5 -14.5t-64.5 -20t-51 -21l-52 188q25 14 63.5 30t85 29.5t98 22.5t104.5 9q190 0 289.5 -89t99.5 -254v-449zM297 290q0 -54 34 -84.5t91 -30.5q42 0 81.5 17t72.5 44v176q-48 8 -98 7t-90 -14.5t-65.5 -41.5t-25.5 -73zM83 1302q11 31 31.5 64.5 t51.5 62t71 47t90 18.5q35 0 67.5 -11.5t62.5 -25t57 -25t50 -11.5q18 0 32 6.5t27 17.5t25.5 25.5t26.5 30.5l128 -99q-14 -36 -36 -70.5t-53.5 -61t-72 -42.5t-91.5 -16q-31 0 -61 11.5t-58.5 25t-55.5 25t-53 11.5q-17 0 -31.5 -6.5t-28 -17.5t-25.5 -25.5t-25 -30.5z " />
<glyph unicode="&#xe4;" horiz-adv-x="973" d="M829 252q0 -37 14.5 -53t39.5 -16q20 0 35 4t27 8l21 -184q-29 -13 -69 -22t-87 -9q-64 0 -111 27.5t-71 81.5q-57 -53 -124.5 -81t-136.5 -28q-71 0 -130.5 20.5t-102.5 58t-66.5 89.5t-23.5 116q0 94 43 156.5t116 97.5t169.5 44.5t203.5 -2.5v99q0 83 -39 125t-131 42 q-39 0 -77 -5.5t-72.5 -14.5t-64.5 -20t-51 -21l-52 188q25 14 63.5 30t85 29.5t98 22.5t104.5 9q190 0 289.5 -89t99.5 -254v-449zM297 290q0 -54 34 -84.5t91 -30.5q42 0 81.5 17t72.5 44v176q-48 8 -98 7t-90 -14.5t-65.5 -41.5t-25.5 -73zM104 1342q0 78 44.5 119 t116.5 41q31 0 58 -10t46.5 -29t30.5 -45.5t11 -60.5q0 -79 -44.5 -120t-116.5 -41q-32 0 -58.5 10t-46 29t-30.5 46t-11 61zM533 1342q0 78 44.5 119t116.5 41q31 0 58 -10t47 -29t31 -45.5t11 -60.5q0 -79 -44.5 -120t-116.5 -41q-32 0 -58.5 10t-46.5 29t-31 46t-11 61z " />
<glyph unicode="&#xe5;" horiz-adv-x="973" d="M829 252q0 -37 14.5 -53t39.5 -16q20 0 35 4t27 8l21 -184q-29 -13 -69 -22t-87 -9q-64 0 -111 27.5t-71 81.5q-57 -53 -124.5 -81t-136.5 -28q-71 0 -130.5 20.5t-102.5 58t-66.5 89.5t-23.5 116q0 94 43 156.5t116 97.5t169.5 44.5t203.5 -2.5v99q0 83 -39 125t-131 42 q-39 0 -77 -5.5t-72.5 -14.5t-64.5 -20t-51 -21l-52 188q25 14 63.5 30t85 29.5t98 22.5t104.5 9q190 0 289.5 -89t99.5 -254v-449zM297 290q0 -54 34 -84.5t91 -30.5q42 0 81.5 17t72.5 44v176q-48 8 -98 7t-90 -14.5t-65.5 -41.5t-25.5 -73zM376 1348q0 -34 21.5 -55 t53.5 -21q36 0 58 21.5t22 58.5q0 35 -22 55.5t-54 20.5q-35 0 -57 -21t-22 -59zM213 1342q0 56 18.5 99.5t51.5 73.5t78.5 45.5t100.5 15.5q50 0 92.5 -15t73.5 -43t48.5 -68.5t17.5 -90.5q0 -57 -18.5 -100.5t-51.5 -73.5t-78.5 -45.5t-100.5 -15.5q-50 0 -92.5 15 t-73.5 43.5t-48.5 68.5t-17.5 91z" />
<glyph unicode="&#xe6;" horiz-adv-x="1518" d="M842 445q11 -125 78 -186t181 -61q92 0 158.5 17.5t111.5 34.5l59 -190q-26 -14 -61.5 -28t-81 -25.5t-101 -19t-119.5 -7.5q-105 0 -193 39t-151 110q-85 -72 -174 -110.5t-183 -38.5q-69 0 -127.5 20.5t-101 59.5t-66.5 94.5t-24 124.5q0 66 28.5 117.5t80.5 88.5 t124.5 59.5t160.5 28.5q34 2 69 3.5t70 1.5v82q0 86 -41.5 126t-134.5 40q-35 0 -71 -5t-71 -14t-67.5 -20t-58.5 -23l-51 189q31 16 72.5 32.5t89 29.5t97 21t97.5 8q105 0 182.5 -33t125.5 -96q60 62 139.5 95.5t177.5 33.5q94 0 167.5 -27.5t124 -78t76.5 -121t26 -156.5 q0 -63 -8.5 -113.5t-22.5 -85.5zM1202 604q3 20 4 36.5t0 32.5q-2 81 -44 126.5t-117 45.5q-87 0 -139 -65.5t-60 -187.5zM300 300q0 -61 32.5 -92t86.5 -31q47 0 92.5 20t83.5 52q-7 47 -10 95t-5 95q-36 0 -68 -2t-63 -6q-72 -10 -110.5 -45t-38.5 -86z" />
<glyph unicode="&#xe7;" horiz-adv-x="895" d="M333 518q0 -154 66.5 -237t198.5 -83q34 0 67 5t61.5 12t52 15t38.5 14l59 -190q-49 -28 -131.5 -51t-186.5 -23q-116 0 -208.5 38t-157.5 106.5t-100 164.5t-35 213q0 121 36 221t103 171.5t163 110.5t216 39q48 0 91.5 -6.5t80 -17t65.5 -23t49 -23.5l-56 -192 q-13 4 -34 11.5t-48 15t-59 12.5t-66 5q-64 0 -113.5 -21t-83 -61t-51 -97t-17.5 -129zM340 -379q13 -4 32 -7t45 -3q47 0 72 19.5t25 54.5q0 36 -25 53.5t-70 17.5h-58l11 138h111q48 0 90 -12t73 -36.5t49 -62t18 -88.5q0 -60 -21 -102t-58 -69t-87.5 -39t-109.5 -12 q-38 0 -69 6t-46 13z" />
<glyph unicode="&#xe8;" horiz-adv-x="1010" d="M325 457q8 -131 78 -195t193 -64q85 0 153.5 17t115.5 35l57 -192q-24 -12 -59.5 -25.5t-81 -25t-100.5 -19.5t-118 -8q-118 0 -212 38t-159 107t-100 165t-35 212q0 122 34.5 222t99 171t157.5 110t209 39q95 0 169 -27.5t124.5 -78t77 -120.5t26.5 -155 q0 -66 -9.5 -119.5t-21.5 -86.5h-598zM535 845q-94 0 -146 -61t-61 -176h366q7 32 7 71q-3 79 -46.5 122.5t-119.5 43.5zM758 1166l-518 157l102 223l474 -249z" />
<glyph unicode="&#xe9;" horiz-adv-x="1010" d="M325 457q8 -131 78 -195t193 -64q85 0 153.5 17t115.5 35l57 -192q-24 -12 -59.5 -25.5t-81 -25t-100.5 -19.5t-118 -8q-118 0 -212 38t-159 107t-100 165t-35 212q0 122 34.5 222t99 171t157.5 110t209 39q95 0 169 -27.5t124.5 -78t77 -120.5t26.5 -155 q0 -66 -9.5 -119.5t-21.5 -86.5h-598zM535 845q-94 0 -146 -61t-61 -176h366q7 32 7 71q-3 79 -46.5 122.5t-119.5 43.5zM246 1297l483 253l102 -224l-525 -160z" />
<glyph unicode="&#xea;" horiz-adv-x="1010" d="M325 457q8 -131 78 -195t193 -64q85 0 153.5 17t115.5 35l57 -192q-24 -12 -59.5 -25.5t-81 -25t-100.5 -19.5t-118 -8q-118 0 -212 38t-159 107t-100 165t-35 212q0 122 34.5 222t99 171t157.5 110t209 39q95 0 169 -27.5t124.5 -78t77 -120.5t26.5 -155 q0 -66 -9.5 -119.5t-21.5 -86.5h-598zM535 845q-94 0 -146 -61t-61 -176h366q7 32 7 71q-3 79 -46.5 122.5t-119.5 43.5zM744 1142q-25 18 -53.5 41t-57.5 47t-56.5 47.5t-48.5 43.5q-21 -20 -48 -43.5t-56 -47.5t-58 -47t-54 -41l-129 161q34 22 75.5 50.5t86.5 59.5 t91.5 64t91.5 66q45 -33 91.5 -66t91.5 -64t86 -59.5t76 -50.5z" />
<glyph unicode="&#xeb;" horiz-adv-x="1010" d="M325 457q8 -131 78 -195t193 -64q85 0 153.5 17t115.5 35l57 -192q-24 -12 -59.5 -25.5t-81 -25t-100.5 -19.5t-118 -8q-118 0 -212 38t-159 107t-100 165t-35 212q0 122 34.5 222t99 171t157.5 110t209 39q95 0 169 -27.5t124.5 -78t77 -120.5t26.5 -155 q0 -66 -9.5 -119.5t-21.5 -86.5h-598zM535 845q-94 0 -146 -61t-61 -176h366q7 32 7 71q-3 79 -46.5 122.5t-119.5 43.5zM160 1342q0 78 44.5 119t116.5 41q31 0 58 -10t46.5 -29t30.5 -45.5t11 -60.5q0 -79 -44.5 -120t-116.5 -41q-32 0 -58.5 10t-46 29t-30.5 46t-11 61z M589 1342q0 78 44.5 119t116.5 41q31 0 58 -10t47 -29t31 -45.5t11 -60.5q0 -79 -44.5 -120t-116.5 -41q-32 0 -58.5 10t-46.5 29t-31 46t-11 61z" />
<glyph unicode="&#xec;" horiz-adv-x="540" d="M403 1024v-1024h-266v1024h266zM479 1166l-517 157l102 223l474 -249z" />
<glyph unicode="&#xed;" horiz-adv-x="540" d="M403 1024v-1024h-266v1024h266zM32 1297l483 253l101 -224l-525 -160z" />
<glyph unicode="&#xee;" horiz-adv-x="540" d="M403 1024v-1024h-266v1024h266zM486 1142q-25 18 -53.5 41t-57.5 47t-56.5 47.5t-48.5 43.5q-22 -20 -49 -43.5t-55.5 -47.5t-57.5 -47t-54 -41l-129 161q34 22 75.5 50.5t86.5 59.5t91.5 64t91.5 66q45 -33 91.5 -66t91.5 -64t86 -59.5t76 -50.5z" />
<glyph unicode="&#xef;" horiz-adv-x="540" d="M403 1024v-1024h-266v1024h266zM-80 1342q0 78 44.5 119t116.5 41q31 0 58 -10t46.5 -29t30.5 -45.5t11 -60.5q0 -79 -44.5 -120t-116.5 -41q-32 0 -58.5 10t-46 29t-30.5 46t-11 61zM313 1342q0 78 44.5 119t116.5 41q31 0 58 -10t47 -29t31 -45.5t11 -60.5 q0 -79 -44.5 -120t-116.5 -41q-64 0 -105.5 39t-41.5 107z" />
<glyph unicode="&#xf0;" horiz-adv-x="1138" d="M460 1280q-37 0 -70.5 -5t-61.5 -12t-48 -13.5t-29 -10.5l-49 181q11 5 31.5 13t48 16.5t61.5 15.5t72 10q24 2 49 3t50 -1q55 -1 107 -14l80 129l119 -71l-69 -111q86 -50 145 -133t96 -190t53 -233t16 -263q0 -139 -33 -252t-97.5 -192.5t-160 -123t-219.5 -43.5 q-116 0 -207.5 38t-155.5 107t-97.5 165t-33.5 213q0 121 34.5 221t98.5 171t155.5 110t205.5 39q75 0 133 -27.5t100 -74.5q-42 195 -144 278l-75 -119l-117 71l64 103q-13 2 -25.5 3.5t-26.5 1.5zM801 591h-11q-12 59 -31.5 106t-48 80t-68 50.5t-90.5 17.5 q-56 0 -97.5 -24t-68.5 -67t-40 -103t-13 -132q0 -77 13.5 -140t41.5 -107.5t71 -68.5t103 -24q112 0 168 91t56 261z" />
<glyph unicode="&#xf1;" horiz-adv-x="1160" d="M351 1024l27 -110q25 22 58.5 45.5t73.5 42t86 30.5t97 12q171 0 257.5 -90.5t86.5 -279.5v-674h-266v633q0 97 -38 143.5t-121 46.5q-24 0 -52.5 -6.5t-57 -17.5t-54.5 -26t-45 -32v-741h-266v1024h214zM210 1302q11 31 31.5 64.5t51.5 62t71 47t90 18.5q35 0 68 -11.5 t63 -25t56.5 -25t49.5 -11.5q18 0 32 6.5t27 17.5t26 25.5t27 30.5l128 -99q-14 -36 -36.5 -70.5t-54 -61t-72 -42.5t-90.5 -16q-31 0 -61 11.5t-58.5 25t-56 25t-53.5 11.5q-17 0 -31.5 -6.5t-27.5 -17.5t-25.5 -25.5t-25.5 -30.5z" />
<glyph unicode="&#xf2;" horiz-adv-x="1122" d="M555 -20q-116 0 -208 38t-156.5 107t-99 165t-34.5 213q0 121 35 221t101 171t160.5 110t213.5 39q116 0 208 -38t156.5 -107t98.5 -165t34 -213q0 -121 -35 -220.5t-101 -171t-160.5 -110.5t-212.5 -39zM566 179q56 0 98 24t69.5 67t41.5 103t14 132q0 78 -14 140.5 t-43 107t-72.5 68.5t-103.5 24q-57 0 -98.5 -24t-69.5 -67t-41.5 -103t-13.5 -132q0 -77 14 -140t42.5 -107.5t72.5 -68.5t104 -24zM784 1166l-518 157l102 223l475 -249z" />
<glyph unicode="&#xf3;" horiz-adv-x="1122" d="M555 -20q-116 0 -208 38t-156.5 107t-99 165t-34.5 213q0 121 35 221t101 171t160.5 110t213.5 39q116 0 208 -38t156.5 -107t98.5 -165t34 -213q0 -121 -35 -220.5t-101 -171t-160.5 -110.5t-212.5 -39zM566 179q56 0 98 24t69.5 67t41.5 103t14 132q0 78 -14 140.5 t-43 107t-72.5 68.5t-103.5 24q-57 0 -98.5 -24t-69.5 -67t-41.5 -103t-13.5 -132q0 -77 14 -140t42.5 -107.5t72.5 -68.5t104 -24zM273 1297l483 253l101 -224l-525 -160z" />
<glyph unicode="&#xf4;" horiz-adv-x="1122" d="M555 -20q-116 0 -208 38t-156.5 107t-99 165t-34.5 213q0 121 35 221t101 171t160.5 110t213.5 39q116 0 208 -38t156.5 -107t98.5 -165t34 -213q0 -121 -35 -220.5t-101 -171t-160.5 -110.5t-212.5 -39zM566 179q56 0 98 24t69.5 67t41.5 103t14 132q0 78 -14 140.5 t-43 107t-72.5 68.5t-103.5 24q-57 0 -98.5 -24t-69.5 -67t-41.5 -103t-13.5 -132q0 -77 14 -140t42.5 -107.5t72.5 -68.5t104 -24zM777 1142q-25 18 -53.5 41t-57.5 47t-56.5 47.5t-48.5 43.5q-22 -20 -49 -43.5t-56 -47.5t-58 -47t-54 -41l-128 161q34 22 75.5 50.5 t86.5 59.5t91.5 64t91.5 66q45 -33 91.5 -66t91 -64t86 -59.5t75.5 -50.5z" />
<glyph unicode="&#xf5;" horiz-adv-x="1122" d="M555 -20q-116 0 -208 38t-156.5 107t-99 165t-34.5 213q0 121 35 221t101 171t160.5 110t213.5 39q116 0 208 -38t156.5 -107t98.5 -165t34 -213q0 -121 -35 -220.5t-101 -171t-160.5 -110.5t-212.5 -39zM566 179q56 0 98 24t69.5 67t41.5 103t14 132q0 78 -14 140.5 t-43 107t-72.5 68.5t-103.5 24q-57 0 -98.5 -24t-69.5 -67t-41.5 -103t-13.5 -132q0 -77 14 -140t42.5 -107.5t72.5 -68.5t104 -24zM202 1302q10 31 31 64.5t51.5 62t70.5 47t90 18.5q35 0 68 -11.5t63 -25t56.5 -25t49.5 -11.5q18 0 32.5 6.5t27.5 17.5t25.5 25.5 t26.5 30.5l128 -99q-14 -36 -36.5 -70.5t-54 -61t-72 -42.5t-90.5 -16q-31 0 -61 11.5t-58.5 25t-56 25t-53.5 11.5q-17 0 -31.5 -6.5t-27.5 -17.5t-25.5 -25.5t-25.5 -30.5z" />
<glyph unicode="&#xf6;" horiz-adv-x="1122" d="M555 -20q-116 0 -208 38t-156.5 107t-99 165t-34.5 213q0 121 35 221t101 171t160.5 110t213.5 39q116 0 208 -38t156.5 -107t98.5 -165t34 -213q0 -121 -35 -220.5t-101 -171t-160.5 -110.5t-212.5 -39zM566 179q56 0 98 24t69.5 67t41.5 103t14 132q0 78 -14 140.5 t-43 107t-72.5 68.5t-103.5 24q-57 0 -98.5 -24t-69.5 -67t-41.5 -103t-13.5 -132q0 -77 14 -140t42.5 -107.5t72.5 -68.5t104 -24zM192 1342q0 78 44.5 119t116.5 41q31 0 58 -10t47 -29t31 -45.5t11 -60.5q0 -79 -44.5 -120t-116.5 -41q-64 0 -105.5 39t-41.5 107z M622 1342q0 78 44.5 119t116.5 41q31 0 58 -10t46.5 -29t30.5 -45.5t11 -60.5q0 -79 -44.5 -120t-116.5 -41q-32 0 -58.5 10t-46 29t-30.5 46t-11 61z" />
<glyph unicode="&#xf7;" horiz-adv-x="1148" d="M152 763h843v-198h-843v198zM420 1014q0 78 44.5 119t116.5 41q31 0 58 -10t46.5 -29t30.5 -46t11 -60q0 -80 -44.5 -120.5t-116.5 -40.5q-32 0 -58.5 10t-46 29t-30.5 46t-11 61zM420 299q0 78 44.5 119t116.5 41q31 0 58 -10t46.5 -29t30.5 -45.5t11 -60.5 q0 -79 -44.5 -120t-116.5 -41q-32 0 -58.5 10t-46 29t-30.5 46t-11 61z" />
<glyph unicode="&#xf8;" horiz-adv-x="1122" d="M555 -20q-65 0 -122 12.5t-107 35.5l-126 -196l-111 63l130 203q-78 69 -120 172.5t-42 232.5q0 121 35 221t101 171t160.5 110t213.5 39q65 0 122 -12.5t106 -35.5l126 197l111 -63l-130 -203q78 -70 120 -173.5t42 -232.5q0 -121 -35 -220.5t-101 -171t-160.5 -110.5 t-212.5 -39zM333 519q0 -112 32 -193l311 485q-49 34 -120 34q-57 0 -98.5 -24t-69.5 -67t-41.5 -103t-13.5 -132zM566 179q56 0 98 24t69.5 67t41.5 103t14 132q0 115 -33 193l-312 -485q49 -34 122 -34z" />
<glyph unicode="&#xf9;" horiz-adv-x="1144" d="M793 0l-27 110q-24 -23 -56.5 -46.5t-72 -42t-85 -30t-94.5 -11.5q-168 0 -252.5 90.5t-84.5 279.5v674h265v-633q0 -98 36.5 -144t116.5 -46q23 0 50 6.5t54 17.5t52.5 26t45.5 32v741h265v-1024h-213zM776 1166l-517 157l102 223l474 -249z" />
<glyph unicode="&#xfa;" horiz-adv-x="1144" d="M793 0l-27 110q-24 -23 -56.5 -46.5t-72 -42t-85 -30t-94.5 -11.5q-168 0 -252.5 90.5t-84.5 279.5v674h265v-633q0 -98 36.5 -144t116.5 -46q23 0 50 6.5t54 17.5t52.5 26t45.5 32v741h265v-1024h-213zM275 1297l483 253l101 -224l-525 -160z" />
<glyph unicode="&#xfb;" horiz-adv-x="1144" d="M793 0l-27 110q-24 -23 -56.5 -46.5t-72 -42t-85 -30t-94.5 -11.5q-168 0 -252.5 90.5t-84.5 279.5v674h265v-633q0 -98 36.5 -144t116.5 -46q23 0 50 6.5t54 17.5t52.5 26t45.5 32v741h265v-1024h-213zM779 1142q-25 18 -53.5 41t-57.5 47t-56.5 47.5t-48.5 43.5 q-21 -20 -48 -43.5t-56 -47.5t-58 -47t-54 -41l-129 161q34 22 75.5 50.5t86.5 59.5t91.5 64t91.5 66q45 -33 91.5 -66t91.5 -64t86 -59.5t76 -50.5z" />
<glyph unicode="&#xfc;" horiz-adv-x="1144" d="M793 0l-27 110q-24 -23 -56.5 -46.5t-72 -42t-85 -30t-94.5 -11.5q-168 0 -252.5 90.5t-84.5 279.5v674h265v-633q0 -98 36.5 -144t116.5 -46q23 0 50 6.5t54 17.5t52.5 26t45.5 32v741h265v-1024h-213zM195 1342q0 78 44.5 119t116.5 41q31 0 58 -10t46.5 -29 t30.5 -45.5t11 -60.5q0 -79 -44.5 -120t-116.5 -41q-32 0 -58.5 10t-46 29t-30.5 46t-11 61zM625 1342q0 78 44.5 119t116.5 41q31 0 58 -10t46.5 -29t30.5 -45.5t11 -60.5q0 -79 -44.5 -120t-116.5 -41q-32 0 -58.5 10t-46 29t-30.5 46t-11 61z" />
<glyph unicode="&#xfd;" horiz-adv-x="1080" d="M1062 1024l-340 -1028q-38 -112 -83.5 -190t-103.5 -127.5t-130.5 -72t-163.5 -22.5q-35 0 -68.5 5t-62 12t-51.5 15t-37 14l44 192q17 -6 59.5 -17t102.5 -11q71 0 120.5 41t76.5 137l-51 107q-93 237 -183.5 472t-182.5 473h292l236 -716l24 -47l214 763h288zM260 1297 l483 253l101 -224l-525 -160z" />
<glyph unicode="&#xfe;" horiz-adv-x="1141" d="M1083 521q0 -120 -35 -219.5t-99 -171t-154.5 -111t-200.5 -39.5q-52 0 -101 13t-90 33v-422h-266v1855l266 21v-515q29 18 66.5 33.5t80.5 24.5q36 9 75.5 13t81.5 -1q89 -9 159 -50t118 -108t73.5 -157.5t25.5 -198.5zM808 505q0 72 -16 132t-46.5 102.5t-75 66 t-101.5 23.5q-44 0 -89 -14t-77 -35v-550q29 -17 72 -29t96 -12q57 0 101.5 23.5t74.5 65.5t45.5 100t15.5 127z" />
<glyph unicode="&#xff;" horiz-adv-x="1080" d="M1062 1024l-340 -1028q-38 -112 -83.5 -190t-103.5 -127.5t-130.5 -72t-163.5 -22.5q-35 0 -68.5 5t-62 12t-51.5 15t-37 14l44 192q17 -6 59.5 -17t102.5 -11q71 0 120.5 41t76.5 137l-51 107q-93 237 -183.5 472t-182.5 473h292l236 -716l24 -47l214 763h288zM152 1342 q0 78 44.5 119t116.5 41q31 0 58 -10t46.5 -29t30.5 -45.5t11 -60.5q0 -79 -44.5 -120t-116.5 -41q-32 0 -58.5 10t-46 29t-30.5 46t-11 61zM604 1342q0 78 44.5 119t116.5 41q31 0 58 -10t47 -29t31 -45.5t11 -60.5q0 -79 -44.5 -120t-116.5 -41q-64 0 -105.5 39t-41.5 107 z" />
<glyph unicode="&#x100;" horiz-adv-x="1299" d="M891 317h-483l-112 -317h-285l515 1330h246l516 -1330h-285zM341 1754h617v-194h-617v194zM481 523h337l-144 413l-28 62z" />
<glyph unicode="&#x101;" horiz-adv-x="973" d="M829 252q0 -37 14.5 -53t39.5 -16q20 0 35 4t27 8l21 -184q-29 -13 -69 -22t-87 -9q-64 0 -111 27.5t-71 81.5q-57 -53 -124.5 -81t-136.5 -28q-71 0 -130.5 20.5t-102.5 58t-66.5 89.5t-23.5 116q0 94 43 156.5t116 97.5t169.5 44.5t203.5 -2.5v99q0 83 -39 125t-131 42 q-39 0 -77 -5.5t-72.5 -14.5t-64.5 -20t-51 -21l-52 188q25 14 63.5 30t85 29.5t98 22.5t104.5 9q190 0 289.5 -89t99.5 -254v-449zM297 290q0 -54 34 -84.5t91 -30.5q42 0 81.5 17t72.5 44v176q-48 8 -98 7t-90 -14.5t-65.5 -41.5t-25.5 -73zM150 1448h617v-195h-617v195z " />
<glyph unicode="&#x102;" horiz-adv-x="1299" d="M894 308h-489l-109 -308h-285l515 1330h246l516 -1330h-285zM544 1801q-2 -32 3 -61t17 -50.5t33 -34t52 -12.5t52 12.5t33 34t16.5 50.5t3.5 61h183q11 -91 -11 -154.5t-64 -104t-98.5 -59t-114.5 -18.5q-59 0 -115 18.5t-98 59t-64 104t-11 154.5h183zM477 513h344 l-147 423l-28 62z" />
<glyph unicode="&#x103;" horiz-adv-x="973" d="M829 252q0 -37 14.5 -53t39.5 -16q20 0 35 4t27 8l21 -184q-29 -13 -69 -22t-87 -9q-64 0 -111 27.5t-71 81.5q-57 -53 -124.5 -81t-136.5 -28q-71 0 -130.5 20.5t-102.5 58t-66.5 89.5t-23.5 116q0 94 43 156.5t116 97.5t169.5 44.5t203.5 -2.5v99q0 83 -39 125t-131 42 q-39 0 -77 -5.5t-72.5 -14.5t-64.5 -20t-51 -21l-52 188q25 14 63.5 30t85 29.5t98 22.5t104.5 9q190 0 289.5 -89t99.5 -254v-449zM297 290q0 -54 34 -84.5t91 -30.5q42 0 81.5 17t72.5 44v176q-48 8 -98 7t-90 -14.5t-65.5 -41.5t-25.5 -73zM351 1494q-2 -32 2.5 -60.5 t17 -50.5t33.5 -34.5t52 -12.5t51.5 12.5t33 34.5t17 50.5t2.5 60.5h184q10 -91 -11.5 -154.5t-63.5 -103.5t-98.5 -58.5t-114.5 -18.5q-59 0 -115.5 18.5t-98.5 58.5t-64 103.5t-11 154.5h184z" />
<glyph unicode="&#x104;" horiz-adv-x="1299" d="M1192 0q-22 -18 -43 -39t-37.5 -45t-26.5 -50t-10 -53q0 -49 26 -72.5t67 -23.5q38 0 71 12t50 20l44 -161q-10 -8 -30.5 -18t-47.5 -19t-59 -15t-66 -6q-52 0 -101 12.5t-87 40.5t-61 72t-23 107q0 39 14 74.5t35.5 66t47 55.5t48.5 42l-109 308h-489l-109 -308h-285 l515 1330h246l516 -1330h-96zM477 513h344l-147 423l-28 62z" />
<glyph unicode="&#x105;" horiz-adv-x="973" d="M829 252q0 -37 14.5 -53t39.5 -16q20 0 35 4t27 8l21 -184q-29 -14 -55.5 -35t-47 -46.5t-33 -55t-12.5 -61.5q0 -49 25.5 -72.5t66.5 -23.5q39 0 71.5 12t49.5 20l45 -161q-11 -8 -31 -18t-47 -19t-59.5 -15t-66.5 -6q-52 0 -100.5 12.5t-86.5 40.5t-61 72t-23 107 q0 36 12.5 70t31.5 63t42.5 53.5t45.5 42.5q-38 11 -64 37t-41 61q-57 -53 -124.5 -81t-136.5 -28q-71 0 -130.5 20.5t-102.5 58t-66.5 89.5t-23.5 116q0 94 43 156.5t116 97.5t169.5 44.5t203.5 -2.5v99q0 83 -39 125t-131 42q-39 0 -77 -5.5t-72.5 -14.5t-64.5 -20 t-51 -21l-52 188q25 14 63.5 30t85 29.5t98 22.5t104.5 9q190 0 289.5 -89t99.5 -254v-449zM297 290q0 -54 34 -84.5t91 -30.5q42 0 81.5 17t72.5 44v176q-48 8 -98 7t-90 -14.5t-65.5 -41.5t-25.5 -73z" />
<glyph unicode="&#x106;" horiz-adv-x="1151" d="M70 661q0 154 47.5 281t136 218t214 140.5t281.5 49.5q43 0 88 -5.5t87 -15.5t79.5 -23.5t65.5 -29.5l-58 -201q-60 24 -123.5 37.5t-132.5 13.5q-93 0 -167.5 -30t-126 -87.5t-79 -141t-27.5 -190.5q0 -108 27.5 -195.5t79 -149t125.5 -95t167 -33.5q72 0 145 15t134 43 l65 -198q-32 -18 -72 -33.5t-85 -27t-93 -17.5t-94 -6q-161 0 -288 47.5t-215 135.5t-134.5 214t-46.5 284zM402 1597l483 253l101 -224l-525 -160z" />
<glyph unicode="&#x107;" horiz-adv-x="895" d="M333 518q0 -154 66.5 -237t198.5 -83q34 0 67 5t61.5 12t52 15t38.5 14l59 -190q-49 -28 -131.5 -51t-186.5 -23q-116 0 -208.5 38t-157.5 106.5t-100 164.5t-35 213q0 121 36 221t103 171.5t163 110.5t216 39q48 0 91.5 -6.5t80 -17t65.5 -23t49 -23.5l-56 -192 q-13 4 -34 11.5t-48 15t-59 12.5t-66 5q-64 0 -113.5 -21t-83 -61t-51 -97t-17.5 -129zM243 1297l483 253l101 -224l-525 -160z" />
<glyph unicode="&#x108;" horiz-adv-x="1151" d="M70 661q0 154 47.5 281t136 218t214 140.5t281.5 49.5q43 0 88 -5.5t87 -15.5t79.5 -23.5t65.5 -29.5l-58 -201q-60 24 -123.5 37.5t-132.5 13.5q-93 0 -167.5 -30t-126 -87.5t-79 -141t-27.5 -190.5q0 -108 27.5 -195.5t79 -149t125.5 -95t167 -33.5q72 0 145 15t134 43 l65 -198q-32 -18 -72 -33.5t-85 -27t-93 -17.5t-94 -6q-161 0 -288 47.5t-215 135.5t-134.5 214t-46.5 284zM922 1442q-25 18 -53.5 41t-57.5 47t-56.5 47.5t-48.5 43.5q-21 -20 -48 -43.5t-56 -47.5t-58 -47t-54 -41l-129 161q34 22 75.5 50.5t86.5 59.5t91.5 64t91.5 66 q45 -33 91.5 -66t91.5 -64t86 -59.5t76 -50.5z" />
<glyph unicode="&#x109;" horiz-adv-x="895" d="M333 518q0 -154 66.5 -237t198.5 -83q34 0 67 5t61.5 12t52 15t38.5 14l59 -190q-49 -28 -131.5 -51t-186.5 -23q-116 0 -208.5 38t-157.5 106.5t-100 164.5t-35 213q0 121 36 221t103 171.5t163 110.5t216 39q48 0 91.5 -6.5t80 -17t65.5 -23t49 -23.5l-56 -192 q-13 4 -34 11.5t-48 15t-59 12.5t-66 5q-64 0 -113.5 -21t-83 -61t-51 -97t-17.5 -129zM757 1142q-25 18 -53.5 41t-57.5 47t-56.5 47.5t-48.5 43.5q-21 -20 -48 -43.5t-56 -47.5t-58 -47t-54 -41l-129 161q34 22 75.5 50.5t86.5 59.5t91.5 64t91.5 66q45 -33 91.5 -66 t91.5 -64t86 -59.5t76 -50.5z" />
<glyph unicode="&#x10a;" horiz-adv-x="1151" d="M70 661q0 154 47.5 281t136 218t214 140.5t281.5 49.5q43 0 88 -5.5t87 -15.5t79.5 -23.5t65.5 -29.5l-58 -201q-60 24 -123.5 37.5t-132.5 13.5q-93 0 -167.5 -30t-126 -87.5t-79 -141t-27.5 -190.5q0 -108 27.5 -195.5t79 -149t125.5 -95t167 -33.5q72 0 145 15t134 43 l65 -198q-32 -18 -72 -33.5t-85 -27t-93 -17.5t-94 -6q-161 0 -288 47.5t-215 135.5t-134.5 214t-46.5 284zM559 1642q0 78 44.5 119t116.5 41q31 0 58 -10t46.5 -29t30.5 -45.5t11 -60.5q0 -79 -44.5 -120t-116.5 -41q-32 0 -58.5 10t-46 29t-30.5 46t-11 61z" />
<glyph unicode="&#x10b;" horiz-adv-x="895" d="M333 518q0 -154 66.5 -237t198.5 -83q34 0 67 5t61.5 12t52 15t38.5 14l59 -190q-49 -28 -131.5 -51t-186.5 -23q-116 0 -208.5 38t-157.5 106.5t-100 164.5t-35 213q0 121 36 221t103 171.5t163 110.5t216 39q48 0 91.5 -6.5t80 -17t65.5 -23t49 -23.5l-56 -192 q-13 4 -34 11.5t-48 15t-59 12.5t-66 5q-64 0 -113.5 -21t-83 -61t-51 -97t-17.5 -129zM394 1342q0 78 44.5 119t116.5 41q31 0 58 -10t46.5 -29t30.5 -45.5t11 -60.5q0 -79 -44.5 -120t-116.5 -41q-32 0 -58.5 10t-46 29t-30.5 46t-11 61z" />
<glyph unicode="&#x10c;" horiz-adv-x="1151" d="M70 661q0 154 47.5 281t136 218t214 140.5t281.5 49.5q43 0 88 -5.5t87 -15.5t79.5 -23.5t65.5 -29.5l-58 -201q-60 24 -123.5 37.5t-132.5 13.5q-93 0 -167.5 -30t-126 -87.5t-79 -141t-27.5 -190.5q0 -108 27.5 -195.5t79 -149t125.5 -95t167 -33.5q72 0 145 15t134 43 l65 -198q-32 -18 -72 -33.5t-85 -27t-93 -17.5t-94 -6q-161 0 -288 47.5t-215 135.5t-134.5 214t-46.5 284zM484 1859q28 -18 59.5 -42t62 -50t58 -52t48.5 -49q21 23 48.5 49t58.5 52t62 50t60 42l116 -169q-47 -27 -94.5 -57.5t-92.5 -63t-85 -66.5t-73 -68q-32 34 -72 68 t-85 66.5t-92.5 63t-94.5 57.5z" />
<glyph unicode="&#x10d;" horiz-adv-x="895" d="M333 518q0 -154 66.5 -237t198.5 -83q34 0 67 5t61.5 12t52 15t38.5 14l59 -190q-49 -28 -131.5 -51t-186.5 -23q-116 0 -208.5 38t-157.5 106.5t-100 164.5t-35 213q0 121 36 221t103 171.5t163 110.5t216 39q48 0 91.5 -6.5t80 -17t65.5 -23t49 -23.5l-56 -192 q-13 4 -34 11.5t-48 15t-59 12.5t-66 5q-64 0 -113.5 -21t-83 -61t-51 -97t-17.5 -129zM313 1559q28 -18 59.5 -42t62 -50t58 -52t48.5 -49q21 23 48.5 49t58 52t62 50t60.5 42l116 -169q-47 -27 -95 -57.5t-92.5 -63t-85 -66.5t-72.5 -68q-32 34 -72 68t-85 66.5t-92.5 63 t-94.5 57.5z" />
<glyph unicode="&#x10e;" horiz-adv-x="1310" d="M137 0v1330h434q160 0 285 -46.5t211.5 -132.5t131.5 -207.5t45 -270.5q0 -156 -45 -280.5t-131.5 -211.5t-212 -134t-285.5 -47h-433zM571 207q88 0 160 31t122.5 89.5t78 142t27.5 188.5q0 111 -27 197.5t-77 146t-122 90.5t-163 31h-167v-916h168zM359 1859 q29 -18 60.5 -42t62 -50t58 -52t48.5 -49q21 23 48.5 49t58 52t62 50t60.5 42l116 -169q-47 -27 -95 -57.5t-92.5 -63t-85 -66.5t-72.5 -68q-32 34 -72.5 68t-85 66.5t-92.5 63t-95 57.5z" />
<glyph unicode="&#x10f;" horiz-adv-x="1337" d="M1290 1542q12 -10 28.5 -28t31 -43.5t24.5 -58.5t10 -74q0 -53 -18 -97.5t-46 -79.5t-61.5 -61t-63.5 -41l-99 93q13 10 28 25t28 35.5t21 46.5t8 58q0 31 -8.5 58t-21.5 48.5t-27 37.5t-25 25zM798 0l-28 105q-11 -11 -34.5 -31.5t-60 -41.5t-85.5 -36.5t-110 -15.5 q-99 0 -177 37.5t-133 106.5t-84 165.5t-29 213.5q0 120 35.5 219.5t101 171t156.5 111t202 39.5q52 0 101 -13t90 -33v461l265 21v-1480h-210zM743 793q-29 17 -72.5 29.5t-96.5 12.5q-57 0 -102 -23.5t-76 -66t-47 -100.5t-16 -127q0 -73 15 -132.5t44 -102t71 -65.5 t97 -23q26 0 52.5 5.5t51 15.5t45 23.5t34.5 28.5v525z" />
<glyph unicode="&#x110;" horiz-adv-x="1338" d="M7 735h159v595h433q160 0 285 -46.5t211.5 -132.5t131.5 -207.5t45 -270.5q0 -156 -45 -280.5t-131.5 -211.5t-211.5 -134t-285 -47h-433v596h-159v139zM599 207q89 0 160.5 31t122 89.5t78 142t27.5 188.5q0 111 -26.5 197.5t-77 146t-122.5 90.5t-163 31h-167v-388h302 v-139h-302v-389h168z" />
<glyph unicode="&#x111;" horiz-adv-x="1146" d="M459 1312h284v147l265 21v-168h143v-120h-143v-1192h-210l-28 105q-11 -11 -34.5 -31.5t-60 -41.5t-85.5 -36.5t-110 -15.5q-99 0 -177 37.5t-133 106.5t-84 165.5t-29 213.5q0 120 35.5 219.5t101 171t156.5 111t202 39.5q52 0 101 -13t90 -33v194h-284v120zM743 793 q-29 17 -72.5 29.5t-96.5 12.5q-57 0 -102 -23.5t-76 -66t-47 -100.5t-16 -127q0 -73 15 -132.5t44 -102t71 -65.5t97 -23q26 0 52.5 5.5t51 15.5t45 23.5t34.5 28.5v525z" />
<glyph unicode="&#x112;" horiz-adv-x="1055" d="M954 1112h-550v-336h524v-212h-524v-346h570v-218h-837v1330h817v-218zM230 1754h617v-194h-617v194z" />
<glyph unicode="&#x113;" horiz-adv-x="1010" d="M325 457q8 -131 78 -195t193 -64q85 0 153.5 17t115.5 35l57 -192q-24 -12 -59.5 -25.5t-81 -25t-100.5 -19.5t-118 -8q-118 0 -212 38t-159 107t-100 165t-35 212q0 122 34.5 222t99 171t157.5 110t209 39q95 0 169 -27.5t124.5 -78t77 -120.5t26.5 -155 q0 -66 -9.5 -119.5t-21.5 -86.5h-598zM535 845q-94 0 -146 -61t-61 -176h366q7 32 7 71q-3 79 -46.5 122.5t-119.5 43.5zM220 1448h617v-195h-617v195z" />
<glyph unicode="&#x114;" horiz-adv-x="1055" d="M954 1112h-550v-336h524v-212h-524v-346h570v-218h-837v1330h817v-218zM459 1801q-2 -32 2.5 -61t17 -50.5t33 -34t51.5 -12.5t52 12.5t33.5 34t17 50.5t2.5 61h184q10 -91 -11.5 -154.5t-63.5 -104t-98.5 -59t-115.5 -18.5t-115 18.5t-98 59t-64 104t-11 154.5h184z" />
<glyph unicode="&#x115;" horiz-adv-x="1010" d="M325 457q8 -131 78 -195t193 -64q85 0 153.5 17t115.5 35l57 -192q-24 -12 -59.5 -25.5t-81 -25t-100.5 -19.5t-118 -8q-118 0 -212 38t-159 107t-100 165t-35 212q0 122 34.5 222t99 171t157.5 110t209 39q95 0 169 -27.5t124.5 -78t77 -120.5t26.5 -155 q0 -66 -9.5 -119.5t-21.5 -86.5h-598zM535 845q-94 0 -146 -61t-61 -176h366q7 32 7 71q-3 79 -46.5 122.5t-119.5 43.5zM426 1494q-2 -32 3 -60.5t17 -50.5t33 -34.5t52 -12.5t52 12.5t33 34.5t16.5 50.5t3.5 60.5h183q11 -91 -11 -154.5t-64 -103.5t-98.5 -58.5 t-114.5 -18.5q-59 0 -115 18.5t-98 58.5t-64 103.5t-11 154.5h183z" />
<glyph unicode="&#x116;" horiz-adv-x="1055" d="M954 1112h-550v-336h524v-212h-524v-346h570v-218h-837v1330h817v-218zM409 1642q0 78 44.5 119t116.5 41q31 0 58 -10t46.5 -29t30.5 -45.5t11 -60.5q0 -79 -44.5 -120t-116.5 -41q-32 0 -58.5 10t-46 29t-30.5 46t-11 61z" />
<glyph unicode="&#x117;" horiz-adv-x="1010" d="M325 457q8 -131 78 -195t193 -64q85 0 153.5 17t115.5 35l57 -192q-24 -12 -59.5 -25.5t-81 -25t-100.5 -19.5t-118 -8q-118 0 -212 38t-159 107t-100 165t-35 212q0 122 34.5 222t99 171t157.5 110t209 39q95 0 169 -27.5t124.5 -78t77 -120.5t26.5 -155 q0 -66 -9.5 -119.5t-21.5 -86.5h-598zM535 845q-94 0 -146 -61t-61 -176h366q7 32 7 71q-3 79 -46.5 122.5t-119.5 43.5zM375 1342q0 78 44.5 119t116.5 41q31 0 58 -10t46.5 -29t30.5 -45.5t11 -60.5q0 -79 -44.5 -120t-116.5 -41q-32 0 -58.5 10t-46 29t-30.5 46t-11 61z " />
<glyph unicode="&#x118;" horiz-adv-x="1055" d="M954 1112h-550v-336h524v-212h-524v-346h570v-218q-22 -17 -43 -38.5t-37.5 -45.5t-26.5 -50t-10 -53q0 -49 25.5 -72.5t66.5 -23.5q38 0 71 12t50 20l44 -161q-10 -8 -30.5 -18t-47.5 -19t-59 -15t-66 -6q-52 0 -101 12.5t-87 40.5t-61 72t-23 107q0 39 14 74.5t35.5 66 t47 55.5t48.5 42h-647v1330h817v-218z" />
<glyph unicode="&#x119;" horiz-adv-x="1010" d="M325 457q8 -131 78 -195t193 -64q85 0 153.5 17t115.5 35l57 -192q-28 -14 -70.5 -30t-99.5 -28q-22 -18 -43 -39t-37.5 -45t-26.5 -50t-10 -53q0 -49 26 -72.5t67 -23.5q38 0 71 12t50 20l44 -161q-10 -8 -30.5 -18t-47.5 -19t-59 -15t-66 -6q-52 0 -101 12.5t-87 40.5 t-61 72t-23 107q0 34 11 65.5t28 59.5t39 52t43 42q-113 4 -202 43t-151.5 107.5t-95.5 162.5t-33 208q0 122 34.5 222t99 171t157.5 110t209 39q95 0 169 -27.5t124.5 -78t77 -120.5t26.5 -155q0 -66 -9.5 -119.5t-21.5 -86.5h-598zM535 845q-94 0 -146 -61t-61 -176h366 q7 32 7 71q-3 79 -46.5 122.5t-119.5 43.5z" />
<glyph unicode="&#x11a;" horiz-adv-x="1055" d="M954 1112h-550v-336h524v-212h-524v-346h570v-218h-837v1330h817v-218zM334 1859q28 -18 59.5 -42t62.5 -50t58.5 -52t48.5 -49q21 23 48.5 49t58 52t61.5 50t60 42l116 -169q-47 -27 -94.5 -57.5t-92.5 -63t-85 -66.5t-72 -68q-33 34 -73 68t-85 66.5t-92.5 63 t-94.5 57.5z" />
<glyph unicode="&#x11b;" horiz-adv-x="1010" d="M325 457q8 -131 78 -195t193 -64q85 0 153.5 17t115.5 35l57 -192q-24 -12 -59.5 -25.5t-81 -25t-100.5 -19.5t-118 -8q-118 0 -212 38t-159 107t-100 165t-35 212q0 122 34.5 222t99 171t157.5 110t209 39q95 0 169 -27.5t124.5 -78t77 -120.5t26.5 -155 q0 -66 -9.5 -119.5t-21.5 -86.5h-598zM535 845q-94 0 -146 -61t-61 -176h366q7 32 7 71q-3 79 -46.5 122.5t-119.5 43.5zM299 1559q29 -18 60.5 -42t62 -50t58 -52t48.5 -49q21 23 48.5 49t58 52t62 50t60.5 42l116 -169q-47 -27 -95 -57.5t-92.5 -63t-85 -66.5t-72.5 -68 q-32 34 -72.5 68t-85 66.5t-92.5 63t-95 57.5z" />
<glyph unicode="&#x11c;" horiz-adv-x="1277" d="M1176 103q-38 -29 -86 -51.5t-102.5 -38.5t-113 -24.5t-118.5 -8.5q-164 0 -291.5 48t-215 136.5t-133.5 214.5t-46 282q0 154 48.5 280.5t138.5 217.5t219 141t290 50q45 0 92 -5.5t92 -16t85.5 -24.5t73.5 -32l-62 -200q-63 23 -131.5 38.5t-144.5 15.5 q-96 0 -173 -29.5t-131 -86.5t-83 -141t-29 -193q0 -110 28.5 -197t81 -148.5t127.5 -94t167 -32.5q45 0 89.5 6t79.5 17v310l-235 1v199h483v-634zM952 1449q-25 18 -53.5 40.5t-57.5 46.5t-56.5 47.5t-48.5 43.5q-21 -20 -48 -43.5t-56 -47t-58 -46.5t-54 -41l-129 160 q34 22 75.5 50.5t86.5 59.5t91.5 64t91.5 66q45 -33 91.5 -66t91.5 -64t86 -59.5t76 -50.5z" />
<glyph unicode="&#x11d;" horiz-adv-x="1026" d="M456 310h-18t-17 1q-20 -17 -35.5 -38.5t-15.5 -41.5q-3 -51 65 -51h219q76 0 138.5 -19t106.5 -56t68.5 -90.5t24.5 -123.5q0 -74 -39.5 -134.5t-109.5 -103t-165.5 -66t-207.5 -23.5q-215 0 -323.5 59.5t-108.5 175.5q0 42 15 76.5t39 63t55.5 51t64.5 38.5 q-10 7 -21.5 17.5t-21.5 25.5t-16.5 35.5t-6.5 46.5q0 51 36 100.5t93 86.5q-106 39 -162 123.5t-56 206.5q0 87 28.5 156.5t82 118t129 74t170.5 25.5q75 0 138.5 -18t112.5 -51q38 24 78.5 39t78.5 22t72 7t60 -7v-200q-18 2 -39.5 3.5t-44 1t-45.5 -3t-43 -6.5 q31 -68 31 -148q0 -87 -28.5 -156t-82 -117.5t-129.5 -74t-170 -25.5zM465 481q38 0 67.5 14t49 39t29.5 60t10 77q0 95 -40.5 148t-121.5 53q-77 0 -116.5 -53t-39.5 -137q0 -94 40.5 -147.5t121.5 -53.5zM504 -248q55 0 99.5 8t76 24t48.5 39.5t17 54.5q0 28 -13.5 46.5 t-38 28.5t-60 14t-80.5 4h-203q-13 -8 -26.5 -19.5t-25 -26t-18.5 -31.5t-7 -35q0 -54 59.5 -80.5t171.5 -26.5zM673 1142q-25 18 -53.5 41t-57.5 47t-56.5 47.5t-48.5 43.5q-21 -20 -48 -43.5t-56 -47.5t-58 -47t-54 -41l-129 161q34 22 75.5 50.5t86.5 59.5t91.5 64 t91.5 66q45 -33 91.5 -66t91.5 -64t86 -59.5t76 -50.5z" />
<glyph unicode="&#x11e;" horiz-adv-x="1277" d="M1176 103q-38 -29 -86 -51.5t-102.5 -38.5t-113 -24.5t-118.5 -8.5q-164 0 -291.5 48t-215 136.5t-133.5 214.5t-46 282q0 154 48.5 280.5t138.5 217.5t219 141t290 50q45 0 92 -5.5t92 -16t85.5 -24.5t73.5 -32l-62 -200q-63 23 -131.5 38.5t-144.5 15.5 q-96 0 -173 -29.5t-131 -86.5t-83 -141t-29 -193q0 -110 28.5 -197t81 -148.5t127.5 -94t167 -32.5q45 0 89.5 6t79.5 17v310l-235 1v199h483v-634zM609 1801q-2 -32 3 -61t17 -50.5t33 -34t52 -12.5t52 12.5t33 34t16.5 50.5t3.5 61h183q11 -91 -11 -154.5t-64 -104 t-98.5 -59t-114.5 -18.5q-59 0 -115 18.5t-98 59t-64 104t-11 154.5h183z" />
<glyph unicode="&#x11f;" horiz-adv-x="1026" d="M456 310h-18t-17 1q-20 -17 -35.5 -38.5t-15.5 -41.5q-3 -51 65 -51h219q76 0 138.5 -19t106.5 -56t68.5 -90.5t24.5 -123.5q0 -74 -39.5 -134.5t-109.5 -103t-165.5 -66t-207.5 -23.5q-215 0 -323.5 59.5t-108.5 175.5q0 42 15 76.5t39 63t55.5 51t64.5 38.5 q-10 7 -21.5 17.5t-21.5 25.5t-16.5 35.5t-6.5 46.5q0 51 36 100.5t93 86.5q-106 39 -162 123.5t-56 206.5q0 87 28.5 156.5t82 118t129 74t170.5 25.5q75 0 138.5 -18t112.5 -51q38 24 78.5 39t78.5 22t72 7t60 -7v-200q-18 2 -39.5 3.5t-44 1t-45.5 -3t-43 -6.5 q31 -68 31 -148q0 -87 -28.5 -156t-82 -117.5t-129.5 -74t-170 -25.5zM465 481q38 0 67.5 14t49 39t29.5 60t10 77q0 95 -40.5 148t-121.5 53q-77 0 -116.5 -53t-39.5 -137q0 -94 40.5 -147.5t121.5 -53.5zM504 -248q55 0 99.5 8t76 24t48.5 39.5t17 54.5q0 28 -13.5 46.5 t-38 28.5t-60 14t-80.5 4h-203q-13 -8 -26.5 -19.5t-25 -26t-18.5 -31.5t-7 -35q0 -54 59.5 -80.5t171.5 -26.5zM360 1494q-2 -32 3 -60.5t17 -50.5t33 -34.5t52 -12.5t52 12.5t33 34.5t16.5 50.5t3.5 60.5h183q11 -91 -11 -154.5t-64 -103.5t-98.5 -58.5t-114.5 -18.5 q-59 0 -115 18.5t-98 58.5t-64 103.5t-11 154.5h183z" />
<glyph unicode="&#x120;" horiz-adv-x="1277" d="M1176 103q-38 -29 -86 -51.5t-102.5 -38.5t-113 -24.5t-118.5 -8.5q-164 0 -291.5 48t-215 136.5t-133.5 214.5t-46 282q0 154 48.5 280.5t138.5 217.5t219 141t290 50q45 0 92 -5.5t92 -16t85.5 -24.5t73.5 -32l-62 -200q-63 23 -131.5 38.5t-144.5 15.5 q-96 0 -173 -29.5t-131 -86.5t-83 -141t-29 -193q0 -110 28.5 -197t81 -148.5t127.5 -94t167 -32.5q45 0 89.5 6t79.5 17v310l-235 1v199h483v-634zM559 1649q0 78 44.5 119t116.5 41q31 0 58 -10t46.5 -29t30.5 -46t11 -61q0 -79 -44.5 -119.5t-116.5 -40.5q-32 0 -58.5 10 t-46 29t-30.5 46t-11 61z" />
<glyph unicode="&#x121;" horiz-adv-x="1026" d="M456 310h-18t-17 1q-20 -17 -35.5 -38.5t-15.5 -41.5q-3 -51 65 -51h219q76 0 138.5 -19t106.5 -56t68.5 -90.5t24.5 -123.5q0 -74 -39.5 -134.5t-109.5 -103t-165.5 -66t-207.5 -23.5q-215 0 -323.5 59.5t-108.5 175.5q0 42 15 76.5t39 63t55.5 51t64.5 38.5 q-10 7 -21.5 17.5t-21.5 25.5t-16.5 35.5t-6.5 46.5q0 51 36 100.5t93 86.5q-106 39 -162 123.5t-56 206.5q0 87 28.5 156.5t82 118t129 74t170.5 25.5q75 0 138.5 -18t112.5 -51q38 24 78.5 39t78.5 22t72 7t60 -7v-200q-18 2 -39.5 3.5t-44 1t-45.5 -3t-43 -6.5 q31 -68 31 -148q0 -87 -28.5 -156t-82 -117.5t-129.5 -74t-170 -25.5zM465 481q38 0 67.5 14t49 39t29.5 60t10 77q0 95 -40.5 148t-121.5 53q-77 0 -116.5 -53t-39.5 -137q0 -94 40.5 -147.5t121.5 -53.5zM504 -248q55 0 99.5 8t76 24t48.5 39.5t17 54.5q0 28 -13.5 46.5 t-38 28.5t-60 14t-80.5 4h-203q-13 -8 -26.5 -19.5t-25 -26t-18.5 -31.5t-7 -35q0 -54 59.5 -80.5t171.5 -26.5zM313 1342q0 78 44.5 119t116.5 41q31 0 58 -10t47 -29t31 -45.5t11 -60.5q0 -79 -44.5 -120t-116.5 -41q-64 0 -105.5 39t-41.5 107z" />
<glyph unicode="&#x122;" horiz-adv-x="1277" d="M1176 103q-38 -29 -86 -51.5t-102.5 -38.5t-113 -24.5t-118.5 -8.5q-164 0 -291.5 48t-215 136.5t-133.5 214.5t-46 282q0 154 48.5 280.5t138.5 217.5t219 141t290 50q45 0 92 -5.5t92 -16t85.5 -24.5t73.5 -32l-62 -200q-63 23 -131.5 38.5t-144.5 15.5 q-96 0 -173 -29.5t-131 -86.5t-83 -141t-29 -193q0 -110 28.5 -197t81 -148.5t127.5 -94t167 -32.5q45 0 89.5 6t79.5 17v310l-235 1v199h483v-634zM785 -93q12 -9 28.5 -26.5t31.5 -42t25.5 -55t10.5 -64.5q0 -59 -26 -103t-71 -75.5t-106 -49.5t-131 -24l-44 127 q27 5 53.5 14.5t47 24.5t33 35.5t12.5 46.5q0 28 -8.5 52t-20.5 42.5t-24 32t-19 19.5z" />
<glyph unicode="&#x123;" horiz-adv-x="1026" d="M456 310h-18t-17 1q-20 -17 -35.5 -38.5t-15.5 -41.5q-3 -51 65 -51h219q76 0 138.5 -19t106.5 -56t68.5 -90.5t24.5 -123.5q0 -74 -39.5 -134.5t-109.5 -103t-165.5 -66t-207.5 -23.5q-215 0 -323.5 59.5t-108.5 175.5q0 42 15 76.5t39 63t55.5 51t64.5 38.5 q-10 7 -21.5 17.5t-21.5 25.5t-16.5 35.5t-6.5 46.5q0 51 36 100.5t93 86.5q-106 39 -162 123.5t-56 206.5q0 87 28.5 156.5t82 118t129 74t170.5 25.5q75 0 138.5 -18t112.5 -51q38 24 78.5 39t78.5 22t72 7t60 -7v-200q-18 2 -39.5 3.5t-44 1t-45.5 -3t-43 -6.5 q31 -68 31 -148q0 -87 -28.5 -156t-82 -117.5t-129.5 -74t-170 -25.5zM465 481q38 0 67.5 14t49 39t29.5 60t10 77q0 95 -40.5 148t-121.5 53q-77 0 -116.5 -53t-39.5 -137q0 -94 40.5 -147.5t121.5 -53.5zM504 -248q55 0 99.5 8t76 24t48.5 39.5t17 54.5q0 28 -13.5 46.5 t-38 28.5t-60 14t-80.5 4h-203q-13 -8 -26.5 -19.5t-25 -26t-18.5 -31.5t-7 -35q0 -54 59.5 -80.5t171.5 -26.5zM423 1129q-12 9 -28.5 27t-31.5 42.5t-25.5 54.5t-10.5 64q0 59 25.5 103.5t70.5 75.5t106 49t132 24l44 -126q-27 -5 -53.5 -15t-47 -25t-33 -35.5 t-12.5 -46.5q0 -28 8.5 -51.5t20.5 -42.5t24 -32t19 -20z" />
<glyph unicode="&#x124;" horiz-adv-x="1359" d="M955 561h-551v-561h-267v1330h267v-551h551v551h266v-1330h-266v561zM896 1449q-25 18 -54 40.5t-58 46.5t-56.5 47.5t-48.5 43.5q-21 -20 -48 -43.5t-56 -47t-58 -46.5t-54 -41l-129 160q34 22 75.5 50.5t86.5 59.5t91.5 64t91.5 66q45 -33 91.5 -66t91.5 -64 t86.5 -59.5t75.5 -50.5z" />
<glyph unicode="&#x125;" horiz-adv-x="1160" d="M403 1480v-545q27 22 59.5 41.5t69 34.5t77 24t84.5 9q171 0 257.5 -90.5t86.5 -279.5v-674h-266v633q0 98 -38 144t-121 46q-24 0 -52.5 -6.5t-57 -17.5t-54.5 -26t-45 -32v-741h-266v1459zM497 1499q-25 18 -53.5 41t-57.5 47t-56.5 47.5t-48.5 43.5q-21 -20 -48 -43.5 t-56 -47.5t-58 -47t-54 -41l-129 160q34 23 75.5 51t86.5 59.5t91.5 64.5t91.5 66q45 -33 91.5 -66t91.5 -64.5t86 -59.5t76 -51z" />
<glyph unicode="&#x126;" horiz-adv-x="1359" d="M6 1088h132v242h266v-242h551v242h267v-242h131v-132h-131v-956h-267v561h-551v-561h-266v956h-132v132zM955 779v177h-551v-177h551z" />
<glyph unicode="&#x127;" horiz-adv-x="1160" d="M403 1480v-168h276v-120h-276v-257q27 22 59.5 41.5t69 34.5t77 24t84.5 9q171 0 257.5 -90.5t86.5 -279.5v-674h-266v633q0 98 -38 144t-121 46q-24 0 -52.5 -6.5t-57 -17.5t-54.5 -26t-45 -32v-741h-266v1192h-143v120h143v147z" />
<glyph unicode="&#x128;" horiz-adv-x="541" d="M137 1330h267v-1330h-267v1330zM-89 1602q11 31 31.5 64.5t51.5 62t71 47t90 18.5q35 0 68 -11.5t63 -25t56.5 -25t49.5 -11.5q18 0 32 6.5t27 17.5t25.5 25.5t26.5 30.5l128 -99q-14 -36 -36 -70.5t-53.5 -61t-72 -42.5t-91.5 -16q-31 0 -61 11.5t-58.5 25t-55.5 25 t-53 11.5q-17 0 -31.5 -6.5t-27.5 -17.5t-25.5 -25.5t-25.5 -30.5z" />
<glyph unicode="&#x129;" horiz-adv-x="540" d="M403 1024v-1024h-266v1024h266zM-89 1302q11 31 31.5 64.5t51.5 62t71 47t90 18.5q35 0 67.5 -11.5t62.5 -25t57 -25t50 -11.5q18 0 32 6.5t27 17.5t25.5 25.5t26.5 30.5l128 -99q-14 -36 -36 -70.5t-53.5 -61t-72 -42.5t-91.5 -16q-31 0 -61 11.5t-58.5 25t-56 25 t-52.5 11.5q-35 0 -60 -24t-50 -56z" />
<glyph unicode="&#x12a;" horiz-adv-x="541" d="M137 1330h267v-1330h-267v1330zM-38 1754h617v-194h-617v194z" />
<glyph unicode="&#x12b;" horiz-adv-x="540" d="M403 1024v-1024h-266v1024h266zM-19 1448h579v-195h-579v195z" />
<glyph unicode="&#x12c;" horiz-adv-x="541" d="M137 1330h267v-1330h-267v1330zM166 1801q-2 -32 3 -61t17 -50.5t33 -34t52 -12.5t52 12.5t33 34t16.5 50.5t3.5 61h183q11 -91 -11 -154.5t-64 -104t-98.5 -59t-114.5 -18.5q-59 0 -115 18.5t-98 59t-64 104t-11 154.5h183z" />
<glyph unicode="&#x12d;" horiz-adv-x="540" d="M403 1024v-1024h-266v1024h266zM165 1494q-2 -32 3 -60.5t17 -50.5t33 -34.5t52 -12.5t52 12.5t33 34.5t16.5 50.5t3.5 60.5h183q11 -91 -11 -154.5t-64 -103.5t-98.5 -58.5t-114.5 -18.5q-59 0 -115 18.5t-98 58.5t-64 103.5t-11 154.5h183z" />
<glyph unicode="&#x12e;" horiz-adv-x="541" d="M327 0q-22 -18 -43 -39t-37.5 -45t-26.5 -50t-10 -53q0 -49 25.5 -72.5t66.5 -23.5q38 0 71 12t50 20l44 -161q-10 -8 -30.5 -18t-47.5 -19t-59 -15t-66 -6q-52 0 -101 12.5t-87 40.5t-61 72t-23 107q0 39 14 74.5t35.5 66t47 55.5t48.5 42v1330h267v-1330h-77z" />
<glyph unicode="&#x12f;" horiz-adv-x="540" d="M403 1024v-1024h-76q-22 -18 -43 -39t-37.5 -45t-26.5 -50t-10 -53q0 -49 25.5 -72.5t66.5 -23.5q38 0 71 12t50 20l44 -161q-10 -8 -30.5 -18t-47.5 -19t-59 -15t-66 -6q-52 0 -101 12.5t-87 40.5t-61 72t-23 107q0 39 14 74.5t35.5 66t47 55.5t48.5 42v1024h266z M116 1342q0 78 44.5 119t116.5 41q31 0 58 -10t47 -29t31 -45.5t11 -60.5q0 -79 -44.5 -120t-116.5 -41q-32 0 -58.5 10t-46.5 29t-31 46t-11 61z" />
<glyph unicode="&#x130;" horiz-adv-x="541" d="M137 1330h267v-1330h-267v1330zM117 1642q0 78 44.5 119t116.5 41q31 0 58 -10t46.5 -29t30.5 -45.5t11 -60.5q0 -79 -44.5 -120t-116.5 -41q-32 0 -58.5 10t-46 29t-30.5 46t-11 61z" />
<glyph unicode="&#x131;" horiz-adv-x="540" d="M403 1024v-1024h-266v1024h266z" />
<glyph unicode="&#x132;" horiz-adv-x="1277" d="M1161 1330v-975q0 -98 -25.5 -169t-73 -117t-115 -67.5t-152.5 -21.5q-37 0 -72 5.5t-65.5 13.5t-55.5 18.5t-41 20.5l43 197q27 -11 66 -21t89 -10q68 0 102 34t34 106v986h266zM137 1330h267v-1330h-267v1330z" />
<glyph unicode="&#x133;" horiz-adv-x="1079" d="M116 1342q0 78 44.5 119t116.5 41q31 0 58 -10t47 -29t31 -45.5t11 -60.5q0 -79 -44.5 -120t-116.5 -41q-32 0 -58.5 10t-46.5 29t-31 46t-11 61zM403 1024v-1024h-266v1024h266zM656 1342q0 78 44.5 119t116.5 41q31 0 58 -10t46.5 -29t30.5 -45.5t11 -60.5 q0 -79 -44.5 -120t-116.5 -41q-32 0 -58.5 10t-46 29t-30.5 46t-11 61zM677 1024h265v-1049q0 -201 -94.5 -296t-278.5 -95q-52 0 -93 8.5t-67 19.5l30 197q17 -5 40.5 -10t53.5 -5q74 0 109 38t35 125v1067z" />
<glyph unicode="&#x134;" horiz-adv-x="736" d="M620 1330v-975q0 -98 -25.5 -169t-72.5 -117t-114.5 -67.5t-152.5 -21.5q-37 0 -72 5.5t-65.5 13.5t-55.5 18.5t-41 20.5l42 197q27 -11 66 -21t90 -10q68 0 101.5 34t33.5 106v986h266zM706 1449q-25 18 -53.5 40.5t-57.5 46.5t-56.5 47.5t-48.5 43.5q-22 -20 -49 -43.5 t-56 -47t-58 -46.5t-54 -41l-128 160q34 22 75.5 50.5t86.5 59.5t91.5 64t91.5 66q45 -33 91.5 -66t91.5 -64t86 -59.5t76 -50.5z" />
<glyph unicode="&#x135;" horiz-adv-x="554" d="M151 1024h265v-1049q0 -201 -94.5 -296t-278.5 -95q-52 0 -93 8.5t-67 19.5l30 197q17 -5 40.5 -10t53.5 -5q74 0 109 38t35 125v1067zM493 1142q-25 18 -53.5 41t-57.5 47t-56.5 47.5t-48.5 43.5q-22 -20 -49 -43.5t-55.5 -47.5t-57.5 -47t-54 -41l-129 161 q34 22 75.5 50.5t86.5 59.5t91.5 64t91.5 66q45 -33 91.5 -66t91.5 -64t86 -59.5t76 -50.5z" />
<glyph unicode="&#x136;" horiz-adv-x="1233" d="M404 667l469 663h303l-422 -590l455 -740h-312l-333 564l-160 -214v-350h-267v1330h267v-663zM711 -93q12 -9 28.5 -26.5t31.5 -42t25.5 -55t10.5 -64.5q0 -59 -26 -103t-71 -75.5t-106 -49.5t-131 -24l-44 127q27 5 53 14.5t47 24.5t33.5 35.5t12.5 46.5q0 28 -8.5 52 t-20.5 42.5t-24 32t-19 19.5z" />
<glyph unicode="&#x137;" horiz-adv-x="1089" d="M403 1480v-919l346 463h290l-317 -424l345 -600h-298l-245 438l-121 -159v-279h-266v1459zM639 -93q12 -9 28.5 -26.5t31.5 -42t25.5 -55t10.5 -64.5q0 -59 -26 -103t-71 -75.5t-106 -49.5t-132 -24l-43 127q27 5 53 14.5t47 24.5t33.5 35.5t12.5 46.5q0 28 -8.5 52 t-20.5 42.5t-24 32t-19 19.5z" />
<glyph unicode="&#x138;" horiz-adv-x="1133" d="M403 1024v-463l346 463h290l-317 -424l345 -600h-298l-245 438l-121 -159v-279h-266v1024h266z" />
<glyph unicode="&#x139;" horiz-adv-x="970" d="M953 0h-816v1330h267v-1112h549v-218zM36 1597l483 253l102 -224l-525 -160z" />
<glyph unicode="&#x13a;" horiz-adv-x="540" d="M403 1480v-1480h-266v1459zM0 1655l483 252l101 -223l-525 -160z" />
<glyph unicode="&#x13b;" horiz-adv-x="970" d="M953 0h-816v1330h267v-1112h549v-218zM644 -93q12 -9 28.5 -26.5t31.5 -42t25.5 -55t10.5 -64.5q0 -59 -26 -103t-71 -75.5t-106 -49.5t-132 -24l-43 127q27 5 53 14.5t47 24.5t33.5 35.5t12.5 46.5q0 28 -8.5 52t-20.5 42.5t-24 32t-19 19.5z" />
<glyph unicode="&#x13c;" horiz-adv-x="540" d="M403 1480v-1480h-266v1459zM349 -93q12 -9 28.5 -26.5t31.5 -42t25.5 -55t10.5 -64.5q0 -59 -26 -103t-71 -75.5t-106 -49.5t-131 -24l-44 127q27 5 53.5 14.5t47 24.5t33 35.5t12.5 46.5q0 28 -8.5 52t-20.5 42.5t-24 32t-19 19.5z" />
<glyph unicode="&#x13d;" horiz-adv-x="970" d="M953 0h-816v1330h267v-1112h549v-218zM788 1376q12 -9 28.5 -26.5t31.5 -42t25.5 -55t10.5 -64.5q0 -59 -25.5 -103.5t-70.5 -75.5t-106 -49t-132 -24l-44 126q27 5 53.5 15t47.5 25t33.5 35.5t12.5 46.5q0 28 -8.5 52t-20.5 42.5t-24.5 31.5t-19.5 20z" />
<glyph unicode="&#x13e;" horiz-adv-x="731" d="M684 1542q13 -10 29.5 -28t31 -43.5t24.5 -58.5t10 -74q0 -53 -18.5 -97.5t-46.5 -79.5t-61.5 -61t-63.5 -41l-99 93q13 10 28 25t28 35.5t21 46.5t8 58q0 31 -8.5 58t-21 48.5t-26.5 37.5t-25 25zM403 1480v-1480h-266v1459z" />
<glyph unicode="&#x13f;" horiz-adv-x="970" d="M953 0h-816v1330h267v-1112h549v-218zM578 709q0 78 44.5 119t116.5 41q31 0 58 -10t46.5 -29t30.5 -46t11 -60q0 -79 -44.5 -120t-116.5 -41q-32 0 -58.5 10t-46 29t-30.5 46t-11 61z" />
<glyph unicode="&#x140;" horiz-adv-x="770" d="M403 1480v-1480h-266v1459zM505 739q0 78 44.5 119t116.5 41q31 0 58 -10t47 -29t31 -46t11 -60q0 -79 -44.5 -120t-116.5 -41q-64 0 -105.5 39t-41.5 107z" />
<glyph unicode="&#x141;" horiz-adv-x="981" d="M-60 489l208 158v683h266v-481l233 177l85 -111l-318 -241v-456h550v-218h-816v472l-124 -94z" />
<glyph unicode="&#x142;" horiz-adv-x="588" d="M427 1480v-603l124 96l74 -97l-198 -151v-725h-266v524l-124 -94l-73 96l197 151v782z" />
<glyph unicode="&#x143;" horiz-adv-x="1365" d="M399 927v-927h-262v1330h290l539 -927v927h261v-1330h-289zM396 1597l483 253l101 -224l-525 -160z" />
<glyph unicode="&#x144;" horiz-adv-x="1160" d="M351 1024l27 -110q25 22 58.5 45.5t73.5 42t86 30.5t97 12q171 0 257.5 -90.5t86.5 -279.5v-674h-266v633q0 97 -38 143.5t-121 46.5q-24 0 -52.5 -6.5t-57 -17.5t-54.5 -26t-45 -32v-741h-266v1024h214zM300 1297l483 253l101 -224l-525 -160z" />
<glyph unicode="&#x145;" horiz-adv-x="1365" d="M399 927v-927h-262v1330h290l539 -927v927h261v-1330h-289zM764 -93q12 -9 28.5 -26.5t31.5 -42t25.5 -55t10.5 -64.5q0 -59 -26 -103t-71 -75.5t-106 -49.5t-131 -24l-44 127q27 5 53.5 14.5t47 24.5t33 35.5t12.5 46.5q0 28 -8.5 52t-20.5 42.5t-24 32t-19 19.5z" />
<glyph unicode="&#x146;" horiz-adv-x="1160" d="M351 1024l27 -110q25 22 58.5 45.5t73.5 42t86 30.5t97 12q171 0 257.5 -90.5t86.5 -279.5v-674h-266v633q0 97 -38 143.5t-121 46.5q-24 0 -52.5 -6.5t-57 -17.5t-54.5 -26t-45 -32v-741h-266v1024h214zM657 -93q12 -9 28.5 -26.5t31.5 -42t25.5 -55t10.5 -64.5 q0 -59 -25.5 -103t-70.5 -75.5t-106 -49.5t-132 -24l-44 127q27 5 53.5 14.5t47.5 24.5t33.5 35.5t12.5 46.5q0 28 -8.5 52t-20.5 42.5t-24.5 32t-19.5 19.5z" />
<glyph unicode="&#x147;" horiz-adv-x="1365" d="M399 927v-927h-262v1330h290l539 -927v927h261v-1330h-289zM448 1859q28 -18 59.5 -42t62 -50t58 -52t48.5 -49q21 23 48.5 49t58 52t62 50t60.5 42l116 -169q-47 -27 -95 -57.5t-92.5 -63t-85 -66.5t-72.5 -68q-32 34 -72 68t-85 66.5t-92.5 63t-94.5 57.5z" />
<glyph unicode="&#x148;" horiz-adv-x="1160" d="M351 1024l27 -110q25 22 58.5 45.5t73.5 42t86 30.5t97 12q171 0 257.5 -90.5t86.5 -279.5v-674h-266v633q0 97 -38 143.5t-121 46.5q-24 0 -52.5 -6.5t-57 -17.5t-54.5 -26t-45 -32v-741h-266v1024h214zM359 1559q28 -18 59.5 -42t62.5 -50t58.5 -52t48.5 -49 q21 23 48.5 49t58 52t61.5 50t60 42l116 -169q-47 -27 -94.5 -57.5t-92.5 -63t-85 -66.5t-72 -68q-33 34 -73 68t-85 66.5t-92.5 63t-94.5 57.5z" />
<glyph unicode="&#x149;" horiz-adv-x="1307" d="M499 1024l27 -110q25 22 58 45.5t73 42t86 30.5t97 12q171 0 258 -90.5t87 -279.5v-674h-266v633q0 97 -38.5 143.5t-121.5 46.5q-24 0 -52.5 -6.5t-56.5 -17.5t-54.5 -26t-45.5 -32v-741h-265v1024h214zM-23 1016q8 17 16.5 42t16 56t12.5 66t5 73q0 35 -6 67t-15 59.5 t-19.5 48.5t-18.5 35l216 50q8 -13 19 -33.5t21 -49t17 -65.5t7 -82q0 -53 -14 -101.5t-34 -89.5t-44 -72t-43 -48z" />
<glyph unicode="&#x14a;" horiz-adv-x="1365" d="M830 -192q66 0 98.5 34t32.5 106v69l-561 883v-900h-263v1330h288l539 -892v892h263v-1371q0 -98 -25 -169t-72 -117t-113.5 -67.5t-150.5 -21.5q-38 0 -73 5t-65 13t-54 17.5t-39 18.5l43 199q26 -11 64.5 -20t87.5 -9z" />
<glyph unicode="&#x14b;" horiz-adv-x="1169" d="M771 633q0 98 -38 144t-121 46q-24 0 -52.5 -6.5t-57 -17.5t-54.5 -26t-45 -32v-741h-266v1024h214l27 -110q25 22 58.5 45.5t73.5 42t86 30.5t97 12q171 0 257.5 -90.5t86.5 -279.5v-699q0 -201 -95.5 -296t-281.5 -95q-51 0 -91 8.5t-65 19.5l30 197q17 -5 40.5 -10 t53.5 -5q73 0 108 38t35 125v676z" />
<glyph unicode="&#x14c;" horiz-adv-x="1419" d="M715 193q79 0 143 31t110 90t71 144.5t25 195.5q0 112 -25 201.5t-71.5 152t-113 96t-150.5 33.5q-79 0 -143.5 -31t-110 -90t-70.5 -145t-25 -195q0 -112 25 -201.5t71.5 -152t113 -96t150.5 -33.5zM704 -20q-150 0 -268 48t-199 136.5t-124 214.5t-43 282t44 283 t127.5 217t203 139.5t271.5 49.5q150 0 267.5 -48t199 -136.5t124 -214.5t42.5 -282t-44 -283t-127.5 -217t-203 -139.5t-270.5 -49.5zM401 1754h617v-194h-617v194z" />
<glyph unicode="&#x14d;" horiz-adv-x="1122" d="M555 -20q-116 0 -208 38t-156.5 107t-99 165t-34.5 213q0 121 35 221t101 171t160.5 110t213.5 39q116 0 208 -38t156.5 -107t98.5 -165t34 -213q0 -121 -35 -220.5t-101 -171t-160.5 -110.5t-212.5 -39zM566 179q56 0 98 24t69.5 67t41.5 103t14 132q0 78 -14 140.5 t-43 107t-72.5 68.5t-103.5 24q-57 0 -98.5 -24t-69.5 -67t-41.5 -103t-13.5 -132q0 -77 14 -140t42.5 -107.5t72.5 -68.5t104 -24zM252 1448h617v-195h-617v195z" />
<glyph unicode="&#x14e;" horiz-adv-x="1419" d="M715 193q79 0 143 31t110 90t71 144.5t25 195.5q0 112 -25 201.5t-71.5 152t-113 96t-150.5 33.5q-79 0 -143.5 -31t-110 -90t-70.5 -145t-25 -195q0 -112 25 -201.5t71.5 -152t113 -96t150.5 -33.5zM704 -20q-150 0 -268 48t-199 136.5t-124 214.5t-43 282t44 283 t127.5 217t203 139.5t271.5 49.5q150 0 267.5 -48t199 -136.5t124 -214.5t42.5 -282t-44 -283t-127.5 -217t-203 -139.5t-270.5 -49.5zM605 1801q-2 -32 3 -61t17 -50.5t33 -34t52 -12.5t52 12.5t33 34t16.5 50.5t3.5 61h183q11 -91 -11 -154.5t-64 -104t-98.5 -59 t-114.5 -18.5q-59 0 -115 18.5t-98 59t-64 104t-11 154.5h183z" />
<glyph unicode="&#x14f;" horiz-adv-x="1122" d="M555 -20q-116 0 -208 38t-156.5 107t-99 165t-34.5 213q0 121 35 221t101 171t160.5 110t213.5 39q116 0 208 -38t156.5 -107t98.5 -165t34 -213q0 -121 -35 -220.5t-101 -171t-160.5 -110.5t-212.5 -39zM566 179q56 0 98 24t69.5 67t41.5 103t14 132q0 78 -14 140.5 t-43 107t-72.5 68.5t-103.5 24q-57 0 -98.5 -24t-69.5 -67t-41.5 -103t-13.5 -132q0 -77 14 -140t42.5 -107.5t72.5 -68.5t104 -24zM456 1494q-2 -32 2.5 -60.5t17 -50.5t33.5 -34.5t52 -12.5t51.5 12.5t33 34.5t17 50.5t2.5 60.5h184q10 -91 -11.5 -154.5t-63.5 -103.5 t-98.5 -58.5t-114.5 -18.5q-59 0 -115.5 18.5t-98.5 58.5t-64 103.5t-11 154.5h184z" />
<glyph unicode="&#x150;" horiz-adv-x="1419" d="M715 193q79 0 143 31t110 90t71 144.5t25 195.5q0 112 -25 201.5t-71.5 152t-113 96t-150.5 33.5q-79 0 -143.5 -31t-110 -90t-70.5 -145t-25 -195q0 -112 25 -201.5t71.5 -152t113 -96t150.5 -33.5zM704 -20q-150 0 -268 48t-199 136.5t-124 214.5t-43 282t44 283 t127.5 217t203 139.5t271.5 49.5q150 0 267.5 -48t199 -136.5t124 -214.5t42.5 -282t-44 -283t-127.5 -217t-203 -139.5t-270.5 -49.5zM403 1521l238 373l181 -117l-288 -339zM747 1531l235 369l182 -117l-286 -335z" />
<glyph unicode="&#x151;" horiz-adv-x="1122" d="M555 -20q-116 0 -208 38t-156.5 107t-99 165t-34.5 213q0 121 35 221t101 171t160.5 110t213.5 39q116 0 208 -38t156.5 -107t98.5 -165t34 -213q0 -121 -35 -220.5t-101 -171t-160.5 -110.5t-212.5 -39zM566 179q56 0 98 24t69.5 67t41.5 103t14 132q0 78 -14 140.5 t-43 107t-72.5 68.5t-103.5 24q-57 0 -98.5 -24t-69.5 -67t-41.5 -103t-13.5 -132q0 -77 14 -140t42.5 -107.5t72.5 -68.5t104 -24zM247 1215l238 372l181 -117l-288 -338zM591 1225l235 369l182 -117l-286 -336z" />
<glyph unicode="&#x152;" horiz-adv-x="1867" d="M1765 1112h-544v-336h518v-212h-518v-346h564v-218h-829v35q-55 -26 -117.5 -40.5t-134.5 -14.5q-150 0 -267.5 49.5t-199 139t-124.5 215t-43 277.5q0 151 44.5 277.5t128.5 218t203.5 142.5t269.5 51q66 0 125.5 -14t113.5 -39v33h810v-218zM715 193q75 0 135.5 24 t104.5 67v758q-44 45 -107 70t-144 25q-75 0 -139 -30t-110.5 -88.5t-73 -144.5t-26.5 -198t25.5 -201.5t72.5 -152t113.5 -96t148.5 -33.5z" />
<glyph unicode="&#x153;" horiz-adv-x="1616" d="M942 457q9 -129 77.5 -194t182.5 -65q90 0 156 17.5t111 34.5l59 -190q-26 -14 -61.5 -28t-80.5 -25.5t-99.5 -19t-118.5 -7.5q-94 0 -171.5 25.5t-139.5 74.5q-60 -49 -135.5 -74.5t-166.5 -25.5q-116 0 -208 38t-156.5 107t-99 165t-34.5 213q0 121 35 221t101 171 t160.5 110t213.5 39q88 0 162 -25t132 -73q60 48 136.5 73t168.5 25q94 0 167 -27.5t123 -78t76 -121t26 -156.5q0 -63 -9 -116t-22 -88h-585zM566 179q102 0 159 74q-50 108 -50 249q0 75 13 141.5t37 123.5q-29 38 -70.5 58t-98.5 20t-98.5 -24t-69.5 -67t-41.5 -103 t-13.5 -132q0 -77 14 -140t42.5 -107.5t72.5 -68.5t104 -24zM1299 609q4 20 5 35.5t0 31.5q-2 78 -43 123.5t-115 45.5q-88 0 -139 -59.5t-61 -176.5h353z" />
<glyph unicode="&#x154;" horiz-adv-x="1167" d="M137 0v1330h429q121 0 215.5 -26t159 -78.5t98.5 -130.5t34 -182q0 -69 -22 -127.5t-57.5 -104t-79 -79t-85.5 -52.5l303 -550h-295l-256 493h-177v-493h-267zM404 697h265q25 9 47.5 28t40 45.5t27.5 59.5t10 70q0 106 -59 161.5t-165 55.5h-166v-420zM268 1597l483 253 l101 -224l-525 -160z" />
<glyph unicode="&#x155;" horiz-adv-x="739" d="M348 1024l35 -133q25 29 62 57t82 49.5t94.5 34t98.5 10.5v-245q-42 1 -87.5 -5.5t-87.5 -19t-79 -29t-63 -34.5v-709h-266v1024h211zM143 1297l483 253l101 -224l-525 -160z" />
<glyph unicode="&#x156;" horiz-adv-x="1167" d="M137 0v1330h429q121 0 215.5 -26t159 -78.5t98.5 -130.5t34 -182q0 -69 -22 -127.5t-57.5 -104t-79 -79t-85.5 -52.5l303 -550h-295l-256 493h-177v-493h-267zM404 697h265q25 9 47.5 28t40 45.5t27.5 59.5t10 70q0 106 -59 161.5t-165 55.5h-166v-420zM680 -93 q12 -9 28.5 -26.5t31.5 -42t25.5 -55t10.5 -64.5q0 -59 -26 -103t-71 -75.5t-106 -49.5t-132 -24l-43 127q27 5 53 14.5t47 24.5t33.5 35.5t12.5 46.5q0 28 -8.5 52t-20.5 42.5t-24 32t-19 19.5z" />
<glyph unicode="&#x157;" horiz-adv-x="739" d="M348 1024l35 -133q25 29 62 57t82 49.5t94.5 34t98.5 10.5v-245q-42 1 -87.5 -5.5t-87.5 -19t-79 -29t-63 -34.5v-709h-266v1024h211zM363 -93q12 -9 28.5 -26.5t31.5 -42t25.5 -55t10.5 -64.5q0 -59 -25.5 -103t-70.5 -75.5t-106 -49.5t-132 -24l-44 127q27 5 53.5 14.5 t47.5 24.5t33.5 35.5t12.5 46.5q0 28 -8.5 52t-20.5 42.5t-24 32t-19 19.5z" />
<glyph unicode="&#x158;" horiz-adv-x="1167" d="M137 0v1330h429q121 0 215.5 -26t159 -78.5t98.5 -130.5t34 -182q0 -69 -22 -127.5t-57.5 -104t-79 -79t-85.5 -52.5l303 -550h-295l-256 493h-177v-493h-267zM404 697h265q25 9 47.5 28t40 45.5t27.5 59.5t10 70q0 106 -59 161.5t-165 55.5h-166v-420zM318 1859 q28 -18 59.5 -42t62 -50t58 -52t48.5 -49q21 23 48.5 49t58 52t62 50t60.5 42l116 -169q-47 -27 -95 -57.5t-92.5 -63t-85 -66.5t-72.5 -68q-32 34 -72 68t-85 66.5t-92.5 63t-94.5 57.5z" />
<glyph unicode="&#x159;" horiz-adv-x="739" d="M348 1024l35 -133q25 29 62 57t82 49.5t94.5 34t98.5 10.5v-245q-42 1 -87.5 -5.5t-87.5 -19t-79 -29t-63 -34.5v-709h-266v1024h211zM195 1559q29 -18 60.5 -42t62 -50t58 -52t48.5 -49q21 23 48.5 49t58 52t61.5 50t60 42l116 -169q-47 -27 -94.5 -57.5t-92.5 -63 t-85 -66.5t-72 -68q-32 34 -72.5 68t-85 66.5t-92.5 63t-95 57.5z" />
<glyph unicode="&#x15a;" horiz-adv-x="1057" d="M147 292q22 -12 57.5 -26t79.5 -26.5t93.5 -21t98.5 -8.5q226 0 226 130q0 30 -9 54t-29 45t-52.5 40.5t-79.5 40.5l-161 70q-65 28 -116 63t-86 80t-54 101.5t-19 128.5q0 88 36.5 159.5t100 122t149 78t182.5 27.5q70 0 128 -10t104.5 -24t81.5 -30t60 -29l-52 -213 q-27 12 -62.5 25.5t-76 24.5t-83.5 18t-85 7q-53 0 -91.5 -11t-64 -30.5t-38.5 -45.5t-13 -56q0 -32 8.5 -56t26.5 -43t45.5 -35t63.5 -32l177 -81q75 -34 129.5 -72.5t90 -83.5t52.5 -99t17 -120q0 -90 -33.5 -159.5t-98 -117t-157.5 -72.5t-212 -25q-61 0 -120.5 8.5 t-112 22t-94.5 31.5t-68 36zM264 1597l483 253l101 -224l-525 -160z" />
<glyph unicode="&#x15b;" horiz-adv-x="863" d="M127 254q23 -11 54.5 -22.5t67.5 -21.5t75.5 -16t77.5 -6q35 0 64 4.5t49.5 14.5t32 26t11.5 39t-12 41t-33.5 33t-51 27.5t-65.5 26.5l-76 28q-124 45 -183.5 117t-59.5 180q0 74 28 133t78.5 100.5t120.5 63.5t153 22t168 -16.5t154 -51.5l-46 -198q-25 9 -56 19 t-65 19t-70.5 14.5t-71.5 5.5q-27 0 -53 -5t-46 -16t-32 -28.5t-12 -42.5q0 -21 8.5 -38.5t27.5 -32.5t49 -30t73 -31l81 -32q121 -46 181.5 -117t60.5 -183q0 -69 -24 -124.5t-72.5 -94.5t-121 -60t-169.5 -21q-118 0 -205.5 23.5t-145.5 53.5zM149 1297l483 253l101 -224 l-525 -160z" />
<glyph unicode="&#x15c;" horiz-adv-x="1057" d="M147 292q22 -12 57.5 -26t79.5 -26.5t93.5 -21t98.5 -8.5q226 0 226 130q0 30 -9 54t-29 45t-52.5 40.5t-79.5 40.5l-161 70q-65 28 -116 63t-86 80t-54 101.5t-19 128.5q0 88 36.5 159.5t100 122t149 78t182.5 27.5q70 0 128 -10t104.5 -24t81.5 -30t60 -29l-52 -213 q-27 12 -62.5 25.5t-76 24.5t-83.5 18t-85 7q-53 0 -91.5 -11t-64 -30.5t-38.5 -45.5t-13 -56q0 -32 8.5 -56t26.5 -43t45.5 -35t63.5 -32l177 -81q75 -34 129.5 -72.5t90 -83.5t52.5 -99t17 -120q0 -90 -33.5 -159.5t-98 -117t-157.5 -72.5t-212 -25q-61 0 -120.5 8.5 t-112 22t-94.5 31.5t-68 36zM764 1442q-25 18 -53.5 41t-57.5 47t-56.5 47.5t-48.5 43.5q-22 -20 -49 -43.5t-55.5 -47.5t-57.5 -47t-54 -41l-129 161q34 22 75.5 50.5t86.5 59.5t91.5 64t91.5 66q45 -33 91.5 -66t91.5 -64t86 -59.5t76 -50.5z" />
<glyph unicode="&#x15d;" horiz-adv-x="863" d="M127 254q23 -11 54.5 -22.5t67.5 -21.5t75.5 -16t77.5 -6q35 0 64 4.5t49.5 14.5t32 26t11.5 39t-12 41t-33.5 33t-51 27.5t-65.5 26.5l-76 28q-124 45 -183.5 117t-59.5 180q0 74 28 133t78.5 100.5t120.5 63.5t153 22t168 -16.5t154 -51.5l-46 -198q-25 9 -56 19 t-65 19t-70.5 14.5t-71.5 5.5q-27 0 -53 -5t-46 -16t-32 -28.5t-12 -42.5q0 -21 8.5 -38.5t27.5 -32.5t49 -30t73 -31l81 -32q121 -46 181.5 -117t60.5 -183q0 -69 -24 -124.5t-72.5 -94.5t-121 -60t-169.5 -21q-118 0 -205.5 23.5t-145.5 53.5zM661 1142q-25 18 -53.5 41 t-57.5 47t-56.5 47.5t-48.5 43.5q-22 -20 -49 -43.5t-56 -47.5t-58 -47t-54 -41l-128 161q34 22 75.5 50.5t86.5 59.5t91.5 64t91.5 66q45 -33 91.5 -66t91.5 -64t86 -59.5t76 -50.5z" />
<glyph unicode="&#x15e;" horiz-adv-x="1057" d="M147 292q22 -12 57.5 -26t79.5 -26.5t93.5 -21t98.5 -8.5q226 0 226 130q0 30 -9 54t-29 45t-52.5 40.5t-79.5 40.5l-161 70q-65 28 -116 63t-86 80t-54 101.5t-19 128.5q0 88 36.5 159.5t100 122t149 78t182.5 27.5q70 0 128 -10t104.5 -24t81.5 -30t60 -29l-52 -213 q-27 12 -62.5 25.5t-76 24.5t-83.5 18t-85 7q-53 0 -91.5 -11t-64 -30.5t-38.5 -45.5t-13 -56q0 -32 8.5 -56t26.5 -43t45.5 -35t63.5 -32l177 -81q75 -34 129.5 -72.5t90 -83.5t52.5 -99t17 -120q0 -90 -33.5 -159.5t-98 -117t-157.5 -72.5t-212 -25q-61 0 -120.5 8.5 t-112 22t-94.5 31.5t-68 36zM336 -379q13 -4 32.5 -7t45.5 -3q47 0 71.5 19.5t24.5 54.5q0 36 -25 53.5t-70 17.5h-57l10 138h111q48 0 90 -12t73 -36.5t49 -62t18 -88.5q0 -60 -21 -102t-58 -69t-87.5 -39t-108.5 -12q-39 0 -70 6t-46 13z" />
<glyph unicode="&#x15f;" horiz-adv-x="863" d="M127 254q23 -11 54.5 -22.5t67.5 -21.5t75.5 -16t77.5 -6q35 0 64 4.5t49.5 14.5t32 26t11.5 39t-12 41t-33.5 33t-51 27.5t-65.5 26.5l-76 28q-124 45 -183.5 117t-59.5 180q0 74 28 133t78.5 100.5t120.5 63.5t153 22t168 -16.5t154 -51.5l-46 -198q-25 9 -56 19 t-65 19t-70.5 14.5t-71.5 5.5q-27 0 -53 -5t-46 -16t-32 -28.5t-12 -42.5q0 -21 8.5 -38.5t27.5 -32.5t49 -30t73 -31l81 -32q121 -46 181.5 -117t60.5 -183q0 -69 -24 -124.5t-72.5 -94.5t-121 -60t-169.5 -21q-118 0 -205.5 23.5t-145.5 53.5zM243 -379q13 -4 32 -7t45 -3 q47 0 72 19.5t25 54.5q0 36 -25 53.5t-70 17.5h-58l11 138h110q49 0 91 -12t73 -36.5t49 -62t18 -88.5q0 -60 -21 -102t-58 -69t-87.5 -39t-109.5 -12q-38 0 -69.5 6t-45.5 13z" />
<glyph unicode="&#x160;" horiz-adv-x="1057" d="M147 292q22 -12 57.5 -26t79.5 -26.5t93.5 -21t98.5 -8.5q226 0 226 130q0 30 -9 54t-29 45t-52.5 40.5t-79.5 40.5l-161 70q-65 28 -116 63t-86 80t-54 101.5t-19 128.5q0 88 36.5 159.5t100 122t149 78t182.5 27.5q70 0 128 -10t104.5 -24t81.5 -30t60 -29l-52 -213 q-27 12 -62.5 25.5t-76 24.5t-83.5 18t-85 7q-53 0 -91.5 -11t-64 -30.5t-38.5 -45.5t-13 -56q0 -32 8.5 -56t26.5 -43t45.5 -35t63.5 -32l177 -81q75 -34 129.5 -72.5t90 -83.5t52.5 -99t17 -120q0 -90 -33.5 -159.5t-98 -117t-157.5 -72.5t-212 -25q-61 0 -120.5 8.5 t-112 22t-94.5 31.5t-68 36zM319 1859q29 -18 60.5 -42t62 -50t58 -52t48.5 -49q21 23 48.5 49t58 52t62 50t60.5 42l116 -169q-47 -27 -95 -57.5t-92.5 -63t-85 -66.5t-72.5 -68q-32 34 -72.5 68t-85 66.5t-92.5 63t-95 57.5z" />
<glyph unicode="&#x161;" horiz-adv-x="863" d="M127 254q23 -11 54.5 -22.5t67.5 -21.5t75.5 -16t77.5 -6q35 0 64 4.5t49.5 14.5t32 26t11.5 39t-12 41t-33.5 33t-51 27.5t-65.5 26.5l-76 28q-124 45 -183.5 117t-59.5 180q0 74 28 133t78.5 100.5t120.5 63.5t153 22t168 -16.5t154 -51.5l-46 -198q-25 9 -56 19 t-65 19t-70.5 14.5t-71.5 5.5q-27 0 -53 -5t-46 -16t-32 -28.5t-12 -42.5q0 -21 8.5 -38.5t27.5 -32.5t49 -30t73 -31l81 -32q121 -46 181.5 -117t60.5 -183q0 -69 -24 -124.5t-72.5 -94.5t-121 -60t-169.5 -21q-118 0 -205.5 23.5t-145.5 53.5zM216 1559q28 -18 59.5 -42 t62.5 -50t58.5 -52t48.5 -49q21 23 48.5 49t58 52t61.5 50t60 42l116 -169q-47 -27 -94.5 -57.5t-92.5 -63t-85 -66.5t-72 -68q-33 34 -73 68t-85 66.5t-92.5 63t-94.5 57.5z" />
<glyph unicode="&#x162;" horiz-adv-x="1054" d="M17 1330h1020v-218h-377v-1112h-266v1112h-377v218zM353 -379q13 -4 32 -7t45 -3q47 0 72 19.5t25 54.5q0 36 -25 53.5t-70 17.5h-58l11 138h110q49 0 91 -12t73 -36.5t49 -62t18 -88.5q0 -60 -21 -102t-58 -69t-87.5 -39t-109.5 -12q-38 0 -69.5 6t-45.5 13z" />
<glyph unicode="&#x163;" horiz-adv-x="766" d="M421 1024h278v-199h-272v-473q0 -86 31.5 -121t103.5 -35q19 0 39.5 2t39 5.5t35 7.5t28.5 8l34 -196q-20 -8 -48 -16t-60 -14t-65.5 -9.5t-64.5 -3.5q-89 0 -153.5 20t-105.5 61.5t-60.5 106t-19.5 153.5v504h-150v180l167 10l20 236l223 19v-246zM255 -379 q12 -4 31.5 -7t45.5 -3q47 0 71.5 19.5t24.5 54.5q0 36 -24.5 53.5t-69.5 17.5h-58l10 138h111q49 0 91 -12t73 -36.5t49 -62t18 -88.5q0 -60 -21 -102t-58 -69t-87.5 -39t-109.5 -12q-38 0 -69.5 6t-46.5 13z" />
<glyph unicode="&#x164;" horiz-adv-x="1054" d="M17 1330h1020v-218h-377v-1112h-266v1112h-377v218zM298 1859q29 -18 60.5 -42t62 -50t58 -52t48.5 -49q21 23 48.5 49t58 52t62 50t60.5 42l116 -169q-47 -27 -95 -57.5t-92.5 -63t-85 -66.5t-72.5 -68q-32 34 -72.5 68t-85 66.5t-92.5 63t-95 57.5z" />
<glyph unicode="&#x165;" horiz-adv-x="753" d="M673 1601q13 -10 29.5 -28t31 -43.5t24.5 -58.5t10 -74q0 -53 -18 -97.5t-46 -79.5t-61.5 -61t-64.5 -41l-98 92q13 10 28 25.5t27.5 36t20.5 46.5t8 58q0 31 -8.5 58t-21 48.5t-26.5 37t-25 25.5zM415 1024h278v-199h-273v-473q0 -86 32 -121t104 -35q19 0 39.5 2 t39 5.5t35 7.5t27.5 8l34 -196q-20 -8 -48 -16t-59.5 -14t-65 -9.5t-64.5 -3.5q-90 0 -154 20t-105 61.5t-60.5 106t-19.5 153.5v504h-150v180l167 10l20 236l223 19v-246z" />
<glyph unicode="&#x166;" horiz-adv-x="1054" d="M17 1330h1020v-218h-377v-389h212v-132h-212v-591h-266v591h-214v132h214v389h-377v218z" />
<glyph unicode="&#x167;" horiz-adv-x="766" d="M421 1024h278v-199h-272v-186h258v-127h-258v-160q0 -86 31.5 -121t103.5 -35q19 0 39.5 2t39 5.5t35 7.5t28.5 8l34 -196q-20 -8 -48 -16t-60 -14t-65.5 -9.5t-64.5 -3.5q-89 0 -153.5 20t-105.5 61.5t-60.5 106t-19.5 153.5v191h-132v113l132 8v192h-150v180l167 10 l20 236l223 19v-246z" />
<glyph unicode="&#x168;" horiz-adv-x="1277" d="M378 532q0 -89 18.5 -153t53 -105t83.5 -60.5t110 -19.5q119 0 187.5 77t68.5 238v821h266v-808q0 -128 -37 -228.5t-106 -170t-168 -106.5t-223 -37q-122 0 -218.5 35.5t-163.5 104.5t-102 169.5t-35 230.5v810h266v-798zM282 1602q11 31 31.5 64.5t51.5 62t71 47 t90 18.5q35 0 68 -11.5t63 -25t56.5 -25t49.5 -11.5q18 0 32 6.5t27 17.5t25.5 25.5t26.5 30.5l128 -99q-14 -36 -36 -70.5t-53.5 -61t-72 -42.5t-91.5 -16q-31 0 -61 11.5t-58.5 25t-55.5 25t-53 11.5q-17 0 -31.5 -6.5t-27.5 -17.5t-25.5 -25.5t-25.5 -30.5z" />
<glyph unicode="&#x169;" horiz-adv-x="1144" d="M793 0l-27 110q-24 -23 -56.5 -46.5t-72 -42t-85 -30t-94.5 -11.5q-168 0 -252.5 90.5t-84.5 279.5v674h265v-633q0 -98 36.5 -144t116.5 -46q23 0 50 6.5t54 17.5t52.5 26t45.5 32v741h265v-1024h-213zM210 1302q11 31 31.5 64.5t51.5 62t71 47t90 18.5q35 0 68 -11.5 t63 -25t56.5 -25t49.5 -11.5q18 0 32 6.5t27 17.5t26 25.5t27 30.5l128 -99q-14 -36 -36.5 -70.5t-54 -61t-72 -42.5t-90.5 -16q-31 0 -61 11.5t-58.5 25t-56 25t-53.5 11.5q-17 0 -31.5 -6.5t-27.5 -17.5t-25.5 -25.5t-25.5 -30.5z" />
<glyph unicode="&#x16a;" horiz-adv-x="1277" d="M378 532q0 -89 18.5 -153t53 -105t83.5 -60.5t110 -19.5q119 0 187.5 77t68.5 238v821h266v-808q0 -128 -37 -228.5t-106 -170t-168 -106.5t-223 -37q-122 0 -218.5 35.5t-163.5 104.5t-102 169.5t-35 230.5v810h266v-798zM330 1754h617v-194h-617v194z" />
<glyph unicode="&#x16b;" horiz-adv-x="1144" d="M793 0l-27 110q-24 -23 -56.5 -46.5t-72 -42t-85 -30t-94.5 -11.5q-168 0 -252.5 90.5t-84.5 279.5v674h265v-633q0 -98 36.5 -144t116.5 -46q23 0 50 6.5t54 17.5t52.5 26t45.5 32v741h265v-1024h-213zM260 1448h617v-195h-617v195z" />
<glyph unicode="&#x16c;" horiz-adv-x="1277" d="M378 532q0 -89 18.5 -153t53 -105t83.5 -60.5t110 -19.5q119 0 187.5 77t68.5 238v821h266v-808q0 -128 -37 -228.5t-106 -170t-168 -106.5t-223 -37q-122 0 -218.5 35.5t-163.5 104.5t-102 169.5t-35 230.5v810h266v-798zM533 1801q-2 -32 3 -61t17 -50.5t33 -34 t52 -12.5t52 12.5t33 34t16.5 50.5t3.5 61h183q11 -91 -11 -154.5t-64 -104t-98.5 -59t-114.5 -18.5q-59 0 -115 18.5t-98 59t-64 104t-11 154.5h183z" />
<glyph unicode="&#x16d;" horiz-adv-x="1144" d="M793 0l-27 110q-24 -23 -56.5 -46.5t-72 -42t-85 -30t-94.5 -11.5q-168 0 -252.5 90.5t-84.5 279.5v674h265v-633q0 -98 36.5 -144t116.5 -46q23 0 50 6.5t54 17.5t52.5 26t45.5 32v741h265v-1024h-213zM461 1494q-2 -32 3 -60.5t17 -50.5t33 -34.5t52 -12.5t52 12.5 t33 34.5t16.5 50.5t3.5 60.5h183q11 -91 -11 -154.5t-64 -103.5t-98.5 -58.5t-114.5 -18.5q-59 0 -115 18.5t-98 58.5t-64 103.5t-11 154.5h183z" />
<glyph unicode="&#x16e;" horiz-adv-x="1277" d="M378 532q0 -89 18.5 -153t53 -105t83.5 -60.5t110 -19.5q119 0 187.5 77t68.5 238v821h266v-808q0 -128 -37 -228.5t-106 -170t-168 -106.5t-223 -37q-122 0 -218.5 35.5t-163.5 104.5t-102 169.5t-35 230.5v810h266v-798zM564 1648q0 -34 21.5 -55t53.5 -21 q36 0 58 21.5t22 58.5q0 35 -22 55.5t-54 20.5q-35 0 -57 -21t-22 -59zM401 1642q0 56 18.5 99.5t51.5 73.5t78.5 45.5t100.5 15.5q50 0 92.5 -15t73.5 -43t48.5 -68.5t17.5 -90.5q0 -57 -18.5 -100.5t-51.5 -73.5t-78.5 -45.5t-100.5 -15.5q-50 0 -92.5 15t-73.5 43.5 t-48.5 68.5t-17.5 91z" />
<glyph unicode="&#x16f;" horiz-adv-x="1144" d="M793 0l-27 110q-24 -23 -56.5 -46.5t-72 -42t-85 -30t-94.5 -11.5q-168 0 -252.5 90.5t-84.5 279.5v674h265v-633q0 -98 36.5 -144t116.5 -46q23 0 50 6.5t54 17.5t52.5 26t45.5 32v741h265v-1024h-213zM486 1348q0 -34 21.5 -55t53.5 -21q36 0 58 21.5t22 58.5 q0 35 -22 55.5t-54 20.5q-35 0 -57 -21t-22 -59zM323 1342q0 56 18.5 99.5t51.5 73.5t78.5 45.5t100.5 15.5q50 0 92.5 -15t73.5 -43t48.5 -68.5t17.5 -90.5q0 -57 -18.5 -100.5t-51.5 -73.5t-79 -45.5t-101 -15.5q-50 0 -92 15t-73 43.5t-48.5 68.5t-17.5 91z" />
<glyph unicode="&#x170;" horiz-adv-x="1277" d="M378 532q0 -89 18.5 -153t53 -105t83.5 -60.5t110 -19.5q119 0 187.5 77t68.5 238v821h266v-808q0 -128 -37 -228.5t-106 -170t-168 -106.5t-223 -37q-122 0 -218.5 35.5t-163.5 104.5t-102 169.5t-35 230.5v810h266v-798zM332 1521l238 373l181 -117l-288 -339z M676 1531l235 369l181 -117l-285 -335z" />
<glyph unicode="&#x171;" horiz-adv-x="1144" d="M793 0l-27 110q-24 -23 -56.5 -46.5t-72 -42t-85 -30t-94.5 -11.5q-168 0 -252.5 90.5t-84.5 279.5v674h265v-633q0 -98 36.5 -144t116.5 -46q23 0 50 6.5t54 17.5t52.5 26t45.5 32v741h265v-1024h-213zM259 1215l238 372l181 -117l-288 -338zM603 1225l235 369l182 -117 l-286 -336z" />
<glyph unicode="&#x172;" horiz-adv-x="1277" d="M378 615q0 -113 14.5 -193t46 -130.5t82 -74t122.5 -23.5q119 0 187.5 77t68.5 238v821h266v-808q0 -104 -25 -190.5t-72.5 -153t-115.5 -111.5t-154 -67q-22 -18 -43 -39t-37 -45t-26 -50t-10 -53q0 -49 25.5 -72.5t66.5 -23.5q39 0 71.5 12t49.5 20l44 -161 q-10 -8 -30.5 -18t-47.5 -19t-59 -15t-66 -6q-52 0 -101 12.5t-86.5 40t-60.5 72t-23 107.5q0 34 11 65.5t28 59.5t39 52t43 43q-112 6 -200 44t-149 106.5t-93 166t-32 221.5v810h266v-715z" />
<glyph unicode="&#x173;" horiz-adv-x="1144" d="M1006 0h-22q-22 -18 -43 -39t-37.5 -45t-26.5 -50t-10 -53q0 -49 25.5 -72.5t66.5 -23.5q38 0 71 12t50 20l44 -161q-10 -8 -30.5 -18t-47.5 -19t-59 -15t-66 -6q-52 0 -101 12.5t-87 40.5t-61 72t-23 107q0 39 14 74.5t35.5 66t47 55.5t48.5 42h-1l-27 110 q-24 -23 -56.5 -46.5t-72 -42t-85 -30t-94.5 -11.5q-168 0 -252.5 90.5t-84.5 279.5v674h265v-633q0 -98 37 -144t116 -46q23 0 50 6.5t54 17.5t52.5 26t45.5 32v741h265v-1024z" />
<glyph unicode="&#x174;" horiz-adv-x="1887" d="M1856 1330l-360 -1330h-310l-242 840l-243 -840h-309l-361 1330h297l237 -991l31 84l236 887h223l236 -887l32 -84l236 991h297zM1160 1449q-25 18 -53.5 40.5t-57.5 46.5t-56.5 47.5t-48.5 43.5q-22 -20 -49 -43.5t-56 -47t-58 -46.5t-54 -41l-128 160q34 22 75.5 50.5 t86.5 59.5t91.5 64t91.5 66q45 -33 91.5 -66t91.5 -64t86 -59.5t76 -50.5z" />
<glyph unicode="&#x175;" horiz-adv-x="1605" d="M1593 1024l-299 -1024h-321l-171 593l-170 -593h-322l-298 1024h284l189 -741l26 62l176 669h231l176 -669l26 -62l189 741h284zM1019 1142q-25 18 -54 41t-58 47t-56.5 47.5t-48.5 43.5q-21 -20 -48 -43.5t-56 -47.5t-58 -47t-54 -41l-129 161q34 22 75.5 50.5 t86.5 59.5t91.5 64t91.5 66q45 -33 91.5 -66t91.5 -64t86.5 -59.5t75.5 -50.5z" />
<glyph unicode="&#x176;" horiz-adv-x="1176" d="M454 501l-443 829h289l289 -578l289 578h287l-444 -829v-501h-267v501zM804 1442q-25 18 -53.5 41t-57.5 47t-56.5 47.5t-48.5 43.5q-21 -20 -48 -43.5t-56 -47.5t-58 -47t-54 -41l-129 161q34 22 75.5 50.5t86.5 59.5t91.5 64t91.5 66q45 -33 91.5 -66t91.5 -64 t86 -59.5t76 -50.5z" />
<glyph unicode="&#x177;" horiz-adv-x="1080" d="M1062 1024l-340 -1028q-38 -112 -83.5 -190t-103.5 -127.5t-130.5 -72t-163.5 -22.5q-35 0 -68.5 5t-62 12t-51.5 15t-37 14l44 192q17 -6 59.5 -17t102.5 -11q71 0 120.5 41t76.5 137l-51 107q-93 237 -183.5 472t-182.5 473h292l236 -716l24 -47l214 763h288zM752 1142 q-25 18 -53.5 41t-57.5 47t-56.5 47.5t-48.5 43.5q-22 -20 -49 -43.5t-55.5 -47.5t-57.5 -47t-54 -41l-129 161q34 22 75.5 50.5t86.5 59.5t91.5 64t91.5 66q45 -33 91.5 -66t91.5 -64t86 -59.5t76 -50.5z" />
<glyph unicode="&#x178;" horiz-adv-x="1176" d="M454 501l-443 829h289l289 -578l289 578h287l-444 -829v-501h-267v501zM220 1642q0 78 44.5 119t116.5 41q31 0 58 -10t46.5 -29t30.5 -45.5t11 -60.5q0 -79 -44.5 -120t-116.5 -41q-32 0 -58.5 10t-46 29t-30.5 46t-11 61zM649 1642q0 78 44.5 119t116.5 41q31 0 58 -10 t47 -29t31 -45.5t11 -60.5q0 -79 -44.5 -120t-116.5 -41q-32 0 -58.5 10t-46.5 29t-31 46t-11 61z" />
<glyph unicode="&#x179;" horiz-adv-x="1100" d="M679 1111h-565v218h893v-188l-626 -923h665v-218h-972v188zM289 1597l483 253l101 -224l-525 -160z" />
<glyph unicode="&#x17a;" horiz-adv-x="968" d="M550 825h-434v199h741v-162l-469 -663h499v-199h-806v162zM209 1297l483 253l102 -224l-525 -160z" />
<glyph unicode="&#x17b;" horiz-adv-x="1100" d="M679 1111h-565v218h893v-188l-626 -923h665v-218h-972v188zM402 1642q0 78 44.5 119t116.5 41q31 0 58 -10t47 -29t31 -45.5t11 -60.5q0 -79 -44.5 -120t-116.5 -41q-64 0 -105.5 39t-41.5 107z" />
<glyph unicode="&#x17c;" horiz-adv-x="968" d="M550 825h-434v199h741v-162l-469 -663h499v-199h-806v162zM336 1342q0 78 44.5 119t116.5 41q31 0 58 -10t47 -29t31 -45.5t11 -60.5q0 -79 -44.5 -120t-116.5 -41q-32 0 -58.5 10t-46.5 29t-31 46t-11 61z" />
<glyph unicode="&#x17d;" horiz-adv-x="1092" d="M672 1111h-566v218h893v-188l-626 -923h666v-218h-973v188zM326 1859q28 -18 59.5 -42t62 -50t58 -52t48.5 -49q21 23 48.5 49t58.5 52t62 50t60 42l116 -169q-47 -27 -94.5 -57.5t-92.5 -63t-85 -66.5t-73 -68q-32 34 -72 68t-85 66.5t-92.5 63t-94.5 57.5z" />
<glyph unicode="&#x17e;" horiz-adv-x="968" d="M550 825h-434v199h741v-162l-469 -663h499v-199h-806v162zM261 1559q29 -18 60.5 -42t62 -50t58 -52t48.5 -49q21 23 48.5 49t58 52t62 50t60.5 42l116 -169q-47 -27 -95 -57.5t-92.5 -63t-85 -66.5t-72.5 -68q-32 34 -72.5 68t-85 66.5t-92.5 63t-95 57.5z" />
<glyph unicode="&#x17f;" horiz-adv-x="586" d="M426 0h-265v825h-150v180l152 10v103q0 76 22 140t65.5 110.5t107.5 74.5t147 33q55 3 103 0q49 -4 87 -14.5t64 -19.5l-43 -194q-21 7 -57.5 14.5t-79.5 7.5q-77 0 -115 -40.5t-38 -127.5v-1102z" />
<glyph unicode="&#x192;" horiz-adv-x="1112" d="M644 778h229v-198h-258q-14 -83 -25.5 -168.5t-24 -171t-27.5 -169.5t-34 -163q-38 -153 -136 -234t-252 -88q-25 -2 -48 -1t-43 3q-32 4 -60 11t-48 15l49 196q17 -5 45.5 -11t63.5 -6q75 0 118.5 38.5t57.5 130.5l98 618h-126v181l157 9l30 192q3 20 7 38.5t9 37.5 q18 72 55.5 129.5t91.5 98t123.5 62t152.5 21.5q71 0 118.5 -12.5t76.5 -25.5l-53 -194q-21 7 -56.5 15t-78.5 8q-76 0 -121.5 -40.5t-59.5 -128.5z" />
<glyph unicode="&#x1fa;" horiz-adv-x="1299" d="M894 308h-489l-109 -308h-285l515 1330h246l516 -1330h-285zM469 1565q0 88 52 135t136 47q37 0 69 -11.5t55.5 -33.5t36.5 -53t13 -70q0 -89 -52 -136t-136 -47q-38 0 -69.5 12t-55 33.5t-36.5 53t-13 70.5zM477 513h344l-147 423l-28 62zM414 1854l364 204l92 -182 l-401 -131zM604 1571q0 -21 13 -33.5t32 -12.5q21 0 34.5 12.5t13.5 35.5q0 20 -13 32.5t-33 12.5q-21 0 -34 -12.5t-13 -34.5z" />
<glyph unicode="&#x1fb;" horiz-adv-x="973" d="M829 252q0 -37 14.5 -53t39.5 -16q20 0 35 4t27 8l21 -184q-29 -13 -69 -22t-87 -9q-64 0 -111 27.5t-71 81.5q-57 -53 -124.5 -81t-136.5 -28q-71 0 -130.5 20.5t-102.5 58t-66.5 89.5t-23.5 116q0 94 43 156.5t116 97.5t169.5 44.5t203.5 -2.5v99q0 83 -39 125t-131 42 q-39 0 -77 -5.5t-72.5 -14.5t-64.5 -20t-51 -21l-52 188q25 14 63.5 30t85 29.5t98 22.5t104.5 9q190 0 289.5 -89t99.5 -254v-449zM297 290q0 -54 34 -84.5t91 -30.5q42 0 81.5 17t72.5 44v176q-48 8 -98 7t-90 -14.5t-65.5 -41.5t-25.5 -73zM404 1282q0 -21 13 -33.5 t32 -12.5q21 0 34 12.5t13 35.5q0 20 -13 32.5t-32 12.5q-21 0 -34 -12.5t-13 -34.5zM269 1276q0 88 52 135t136 47q37 0 69 -12t55.5 -33.5t36.5 -52.5t13 -70q0 -89 -52 -136t-136 -47q-38 0 -69.5 11.5t-55 33.5t-36.5 53.5t-13 70.5zM213 1565l364 203l92 -181 l-401 -131z" />
<glyph unicode="&#x1fc;" horiz-adv-x="1882" d="M1775 1330v-218h-519v-336h493v-212h-493v-346h539v-218h-799v309h-480l-224 -309h-287l972 1330h798zM996 514v457l-330 -457h330zM1086 1599l483 253l101 -223l-525 -160z" />
<glyph unicode="&#x1fd;" horiz-adv-x="1515" d="M839 445q11 -125 78 -186t181 -61q92 0 158.5 17.5t111.5 34.5l59 -190q-26 -14 -62 -28t-81.5 -25.5t-100.5 -19t-119 -7.5q-105 0 -193 39t-151 110q-85 -72 -174 -110.5t-183 -38.5q-69 0 -127.5 20.5t-101 59.5t-66.5 94.5t-24 124.5q0 66 28.5 117.5t80.5 88.5 t124.5 59.5t160.5 28.5q34 2 69 3.5t70 1.5v82q0 86 -41.5 126t-134.5 40q-35 0 -71 -5t-71.5 -14t-67.5 -20t-59 -23l-50 189q31 16 72.5 32.5t89 29.5t97 21t97.5 8q105 0 182.5 -33t125.5 -96q60 62 139.5 95.5t176.5 33.5q95 0 168.5 -27.5t124 -78t76.5 -121t26 -156.5 q0 -63 -8.5 -113.5t-22.5 -85.5zM1198 604q4 20 5 36.5t0 32.5q-2 81 -44 126.5t-117 45.5q-88 0 -139.5 -65.5t-60.5 -187.5zM297 300q0 -61 32.5 -92t86.5 -31q47 0 92.5 20t83.5 52q-7 47 -10.5 95t-4.5 95q-36 0 -68.5 -2t-62.5 -6q-72 -10 -110.5 -45t-38.5 -86z M478 1297l483 253l101 -224l-525 -160z" />
<glyph unicode="&#x1fe;" horiz-adv-x="1419" d="M141 -92l138 216q-103 89 -156 225t-53 312q0 156 44 283t127.5 217t203 139.5t271.5 49.5q88 0 164 -17t142 -49l133 209l123 -71l-138 -217q103 -88 156 -224.5t53 -311.5q0 -156 -44 -283t-127.5 -217t-203 -139.5t-270.5 -49.5q-176 0 -306 65l-134 -208zM715 193 q79 0 143 31t110 90t71 144.5t25 195.5q0 97 -19 176.5t-55 140.5l-463 -723q39 -26 86.5 -40.5t101.5 -14.5zM355 676q0 -98 19 -177.5t54 -140.5l464 723q-40 27 -86.5 41.5t-101.5 14.5q-79 0 -143.5 -31t-110 -90t-70.5 -145t-25 -195zM425 1597l483 253l102 -224 l-525 -160z" />
<glyph unicode="&#x1ff;" horiz-adv-x="1122" d="M555 -20q-65 0 -122 12.5t-107 35.5l-126 -196l-111 63l130 203q-78 69 -120 172.5t-42 232.5q0 121 35 221t101 171t160.5 110t213.5 39q65 0 122 -12.5t106 -35.5l126 197l111 -63l-130 -203q78 -70 120 -173.5t42 -232.5q0 -121 -35 -220.5t-101 -171t-160.5 -110.5 t-212.5 -39zM333 519q0 -112 32 -193l311 485q-49 34 -120 34q-57 0 -98.5 -24t-69.5 -67t-41.5 -103t-13.5 -132zM566 179q56 0 98 24t69.5 67t41.5 103t14 132q0 115 -33 193l-312 -485q49 -34 122 -34zM276 1297l483 253l102 -224l-525 -160z" />
<glyph unicode="&#x218;" horiz-adv-x="1057" d="M147 292q22 -12 57.5 -26t79.5 -26.5t93.5 -21t98.5 -8.5q226 0 226 130q0 30 -9 54t-29 45t-52.5 40.5t-79.5 40.5l-161 70q-65 28 -116 63t-86 80t-54 101.5t-19 128.5q0 88 36.5 159.5t100 122t149 78t182.5 27.5q70 0 128 -10t104.5 -24t81.5 -30t60 -29l-52 -213 q-27 12 -62.5 25.5t-76 24.5t-83.5 18t-85 7q-53 0 -91.5 -11t-64 -30.5t-38.5 -45.5t-13 -56q0 -32 8.5 -56t26.5 -43t45.5 -35t63.5 -32l177 -81q75 -34 129.5 -72.5t90 -83.5t52.5 -99t17 -120q0 -90 -33.5 -159.5t-98 -117t-157.5 -72.5t-212 -25q-61 0 -120.5 8.5 t-112 22t-94.5 31.5t-68 36zM631 -93q12 -9 28.5 -26.5t31.5 -42t25.5 -55t10.5 -64.5q0 -59 -26 -103t-71 -75.5t-106 -49.5t-132 -24l-43 127q27 5 53 14.5t47 24.5t33.5 35.5t12.5 46.5q0 28 -8.5 52t-20.5 42.5t-24 32t-19 19.5z" />
<glyph unicode="&#x219;" horiz-adv-x="863" d="M127 254q23 -11 54.5 -22.5t67.5 -21.5t75.5 -16t77.5 -6q35 0 64 4.5t49.5 14.5t32 26t11.5 39t-12 41t-33.5 33t-51 27.5t-65.5 26.5l-76 28q-124 45 -183.5 117t-59.5 180q0 74 28 133t78.5 100.5t120.5 63.5t153 22t168 -16.5t154 -51.5l-46 -198q-25 9 -56 19 t-65 19t-70.5 14.5t-71.5 5.5q-27 0 -53 -5t-46 -16t-32 -28.5t-12 -42.5q0 -21 8.5 -38.5t27.5 -32.5t49 -30t73 -31l81 -32q121 -46 181.5 -117t60.5 -183q0 -69 -24 -124.5t-72.5 -94.5t-121 -60t-169.5 -21q-118 0 -205.5 23.5t-145.5 53.5zM534 -93q12 -9 28.5 -26.5 t31.5 -42t25.5 -55t10.5 -64.5q0 -59 -26 -103t-71 -75.5t-106 -49.5t-132 -24l-43 127q27 5 53 14.5t47 24.5t33.5 35.5t12.5 46.5q0 28 -8.5 52t-20.5 42.5t-24 32t-19 19.5z" />
<glyph unicode="&#x21a;" horiz-adv-x="1054" d="M17 1330h1020v-218h-377v-1112h-266v1112h-377v218zM601 -93q12 -9 28.5 -26.5t31.5 -42t25.5 -55t10.5 -64.5q0 -59 -26 -103t-71 -75.5t-106 -49.5t-131 -24l-44 127q27 5 53 14.5t47 24.5t33.5 35.5t12.5 46.5q0 28 -8.5 52t-20.5 42.5t-24 32t-19 19.5z" />
<glyph unicode="&#x21b;" horiz-adv-x="766" d="M421 1024h278v-199h-272v-473q0 -86 31.5 -121t103.5 -35q19 0 39.5 2t39 5.5t35 7.5t28.5 8l34 -196q-20 -8 -48 -16t-60 -14t-65.5 -9.5t-64.5 -3.5q-89 0 -153.5 20t-105.5 61.5t-60.5 106t-19.5 153.5v504h-150v180l167 10l20 236l223 19v-246zM513 -93 q12 -9 28.5 -26.5t31.5 -42t25.5 -55t10.5 -64.5q0 -59 -25.5 -103t-70.5 -75.5t-106 -49.5t-132 -24l-44 127q27 5 53.5 14.5t47.5 24.5t33.5 35.5t12.5 46.5q0 28 -8.5 52t-20.5 42.5t-24.5 32t-19.5 19.5z" />
<glyph unicode="&#x237;" horiz-adv-x="554" d="M151 1024h265v-1049q0 -201 -94.5 -296t-278.5 -95q-52 0 -93 8.5t-67 19.5l30 197q17 -5 40.5 -10t53.5 -5q74 0 109 38t35 125v1067z" />
<glyph unicode="&#x2bc;" horiz-adv-x="413" d="M71 1016q8 17 16.5 42t16 56t12.5 66t5 73q0 35 -6.5 67t-15.5 59.5t-19 48.5t-18 35l215 50q9 -13 20 -33.5t21 -49t17 -65.5t7 -82q0 -53 -14 -101.5t-34 -89.5t-44 -72t-43 -48z" />
<glyph unicode="&#x2c6;" horiz-adv-x="920" d="M676 1142q-25 18 -53.5 41t-57.5 47t-56.5 47.5t-48.5 43.5q-22 -20 -49 -43.5t-55.5 -47.5t-57.5 -47t-54 -41l-129 161q34 22 75.5 50.5t86.5 59.5t91.5 64t91.5 66q45 -33 91.5 -66t91.5 -64t86 -59.5t76 -50.5z" />
<glyph unicode="&#x2c7;" horiz-adv-x="914" d="M228 1559q29 -18 60.5 -42t62 -50t58 -52t48.5 -49q21 23 48.5 49t58 52t62 50t60.5 42l116 -169q-47 -27 -95 -57.5t-92.5 -63t-85 -66.5t-72.5 -68q-32 34 -72.5 68t-85 66.5t-92.5 63t-95 57.5z" />
<glyph unicode="&#x2d8;" horiz-adv-x="810" d="M300 1494q-2 -32 3 -60.5t17 -50.5t33 -34.5t52 -12.5t52 12.5t33 34.5t16.5 50.5t3.5 60.5h183q11 -91 -11 -154.5t-64 -103.5t-98.5 -58.5t-114.5 -18.5q-59 0 -115 18.5t-98 58.5t-64 103.5t-11 154.5h183z" />
<glyph unicode="&#x2d9;" horiz-adv-x="534" d="M113 1342q0 78 44.5 119t116.5 41q31 0 58 -10t46.5 -29t30.5 -45.5t11 -60.5q0 -79 -44.5 -120t-116.5 -41q-32 0 -58.5 10t-46 29t-30.5 46t-11 61z" />
<glyph unicode="&#x2da;" horiz-adv-x="686" d="M265 1348q0 -34 22 -55t54 -21q35 0 57.5 21.5t22.5 58.5q0 35 -22.5 55.5t-54.5 20.5q-35 0 -57 -21t-22 -59zM103 1342q0 56 18 99.5t51 73.5t78.5 45.5t100.5 15.5q50 0 92.5 -15t73.5 -43t48.5 -68.5t17.5 -90.5q0 -57 -18.5 -100.5t-51.5 -73.5t-78.5 -45.5 t-100.5 -15.5q-50 0 -92 15t-73 43.5t-48.5 68.5t-17.5 91z" />
<glyph unicode="&#x2db;" horiz-adv-x="672" d="M502 0q-22 -18 -43 -39t-37.5 -45t-26.5 -50t-10 -53q0 -49 25.5 -72.5t66.5 -23.5q38 0 71 12t50 20l44 -161q-10 -8 -30.5 -18t-47.5 -19t-59 -15t-66 -6q-47 0 -91 10.5t-80 32.5t-61 56.5t-34 82.5q-3 17 -3.5 35t0.5 37q4 42 24 79.5t46 68.5t54 53.5t47 34.5z" />
<glyph unicode="&#x2dc;" horiz-adv-x="939" d="M109 1302q11 31 31.5 64.5t51.5 62t71 47t90 18.5q35 0 68 -11.5t63 -25t56.5 -25t49.5 -11.5q18 0 32 6.5t27 17.5t25.5 25.5t26.5 30.5l128 -99q-14 -36 -36 -70.5t-53.5 -61t-72 -42.5t-91.5 -16q-31 0 -61 11.5t-58.5 25t-55.5 25t-53 11.5q-17 0 -31.5 -6.5 t-27.5 -17.5t-25.5 -25.5t-25.5 -30.5z" />
<glyph unicode="&#x2dd;" horiz-adv-x="987" d="M113 1215l238 372l181 -117l-288 -338zM457 1225l235 369l182 -117l-286 -336z" />
<glyph unicode="&#x301;" horiz-adv-x="682" d="M113 1565l364 203l92 -181l-401 -131z" />
<glyph unicode="&#x307;" horiz-adv-x="490" d="M91 685q0 78 44.5 119t116.5 41q31 0 58 -10t47 -29t31 -45.5t11 -60.5q0 -79 -44.5 -120t-116.5 -41q-64 0 -105.5 39t-41.5 107z" />
<glyph unicode="&#x30a;" horiz-adv-x="588" d="M248 1282q0 -21 13 -33.5t32 -12.5q21 0 34.5 12.5t13.5 35.5q0 20 -13.5 32.5t-32.5 12.5q-21 0 -34 -12.5t-13 -34.5zM113 1276q0 88 52 135t136 47q37 0 69 -12t55.5 -33.5t36.5 -52.5t13 -70q0 -89 -52 -136t-136 -47q-38 0 -69.5 11.5t-55 33.5t-36.5 53.5t-13 70.5 z" />
<glyph unicode="&#x394;" horiz-adv-x="1294" d="M11 0v183l519 1147h233l520 -1147v-183h-1272zM299 218h696l-349 810z" />
<glyph unicode="&#x3a9;" horiz-adv-x="1447" d="M1377 0h-555v184q52 25 99.5 71t84 110t58 145t21.5 176q0 106 -27.5 189.5t-76.5 141.5t-117 89t-148 31q-74 0 -138.5 -29.5t-112.5 -85t-75.5 -135.5t-27.5 -180q0 -101 22.5 -186t59.5 -151.5t84 -113.5t97 -72v-184h-555v206h251q-48 32 -92 80t-77.5 109.5 t-54 135.5t-20.5 158q0 142 47.5 263t133 209.5t205.5 138.5t266 50t264.5 -49t202 -135.5t129 -204t45.5 -254.5q0 -90 -20.5 -167.5t-54 -141t-78 -112t-92.5 -80.5h252v-206z" />
<glyph unicode="&#x3bc;" horiz-adv-x="1144" d="M793 0l-27 110q-24 -23 -56.5 -46.5t-72 -42t-85 -30t-94.5 -11.5q-44 0 -74 13q-1 -49 -8 -91t-21 -77q-29 -105 -102.5 -164.5t-191.5 -70.5q-31 -3 -59 -2.5t-54 3.5q-23 4 -44 9.5t-36 11.5l30 197q16 -5 38.5 -10t51.5 -5q69 0 101 36t32 120v1074h265v-633 q0 -98 37 -144t116 -46q23 0 50 6.5t54 17.5t52.5 26t45.5 32v741h265v-1024h-213z" />
<glyph unicode="&#x3c0;" horiz-adv-x="1485" d="M11 959q14 9 37.5 20.5t57 21t76 16.5t93.5 7h1130v-199h-252q-23 -67 -42 -150.5t-23 -172.5q-3 -52 0 -99q5 -100 50.5 -155.5t130.5 -55.5q38 0 69 7t45 12l31 -192q-26 -14 -82 -26.5t-127 -12.5q-89 0 -160 32.5t-120.5 90.5t-76 137.5t-26.5 173.5q0 61 7.5 119.5 t19 111t26 98.5t28.5 82h-331v-155q0 -74 -6 -141.5t-16 -128.5t-23 -114.5t-26 -97.5q-31 -105 -70 -188h-256q38 89 69 196q26 92 47.5 214t21.5 265v150h-45q-78 0 -128.5 -12t-74.5 -24z" />
<glyph unicode="&#xe3f;" horiz-adv-x="1267" d="M698 1507l-19 -250q85 -6 152 -28t114 -61t72 -94.5t25 -127.5q0 -39 -11.5 -74.5t-31.5 -66t-46.5 -54.5t-56.5 -41q41 -15 78.5 -41.5t66 -63.5t45 -82t16.5 -97q0 -78 -29 -141t-83 -108.5t-132 -72t-177 -31.5l19 -250h-219l18 249h-274v1188h273l-19 247h219z M467 589v-326h158q95 0 148.5 38t53.5 109q0 40 -12 73t-37 56.5t-63 36.5t-90 13h-158zM467 771h235q35 22 58 62t23 87q0 73 -46 111t-134 38h-136v-298z" />
<glyph unicode="&#x1e80;" horiz-adv-x="1887" d="M1856 1330l-360 -1330h-310l-242 840l-243 -840h-309l-361 1330h297l237 -991l31 84l236 887h223l236 -887l32 -84l236 991h297zM1169 1472l-517 157l101 224l475 -250z" />
<glyph unicode="&#x1e81;" horiz-adv-x="1605" d="M1593 1024l-299 -1024h-321l-171 593l-170 -593h-322l-298 1024h284l189 -741l26 62l176 669h231l176 -669l26 -62l189 741h284zM1013 1166l-517 157l101 223l475 -249z" />
<glyph unicode="&#x1e82;" horiz-adv-x="1887" d="M1856 1330l-360 -1330h-310l-242 840l-243 -840h-309l-361 1330h297l237 -991l31 84l236 887h223l236 -887l32 -84l236 991h297zM697 1603l483 253l101 -223l-525 -161z" />
<glyph unicode="&#x1e83;" horiz-adv-x="1605" d="M1593 1024l-299 -1024h-321l-171 593l-170 -593h-322l-298 1024h284l189 -741l26 62l176 669h231l176 -669l26 -62l189 741h284zM527 1297l483 253l101 -224l-525 -160z" />
<glyph unicode="&#x1e84;" horiz-adv-x="1887" d="M1856 1330l-360 -1330h-310l-242 840l-243 -840h-309l-361 1330h297l237 -991l31 84l236 887h223l236 -887l32 -84l236 991h297zM575 1649q0 78 44.5 119t116.5 41q31 0 58 -10t46.5 -29t30.5 -46t11 -61q0 -79 -44.5 -119.5t-116.5 -40.5q-32 0 -58.5 10t-46 29 t-30.5 46t-11 61zM1005 1649q0 78 44.5 119t116.5 41q31 0 58 -10t46.5 -29t30.5 -46t11 -61q0 -79 -44.5 -119.5t-116.5 -40.5q-32 0 -58.5 10t-46 29t-30.5 46t-11 61z" />
<glyph unicode="&#x1e85;" horiz-adv-x="1605" d="M1593 1024l-299 -1024h-321l-171 593l-170 -593h-322l-298 1024h284l189 -741l26 62l176 669h231l176 -669l26 -62l189 741h284zM434 1342q0 78 44.5 119t116.5 41q31 0 58 -10t46.5 -29t30.5 -45.5t11 -60.5q0 -79 -44.5 -120t-116.5 -41q-32 0 -58.5 10t-46 29 t-30.5 46t-11 61zM864 1342q0 78 44.5 119t116.5 41q31 0 58 -10t46.5 -29t30.5 -45.5t11 -60.5q0 -79 -44.5 -120t-116.5 -41q-32 0 -58.5 10t-46 29t-30.5 46t-11 61z" />
<glyph unicode="&#x1e9e;" horiz-adv-x="1251" d="M562 220q10 -3 29 -9t44.5 -11t57 -9t65.5 -4q39 0 71.5 12.5t55.5 35t36 54.5t13 71q0 56 -20 98t-62.5 68t-109.5 34t-161 -4l-8 107l268 436h-231q-105 0 -161 -60t-56 -164v-875h-265v882q0 91 30.5 172t92.5 142.5t156 97.5t220 36h508v-178l-273 -432 q63 -4 123.5 -28t108.5 -68.5t77 -108t29 -146.5q0 -95 -30.5 -167.5t-86.5 -122t-134.5 -74.5t-174.5 -25q-90 0 -156 14.5t-96 31.5z" />
<glyph unicode="&#x1ef2;" horiz-adv-x="1176" d="M454 501l-443 829h289l289 -578l289 578h287l-444 -829v-501h-267v501zM771 1466l-517 157l101 223l475 -249z" />
<glyph unicode="&#x1ef3;" horiz-adv-x="1080" d="M1062 1024l-340 -1028q-38 -112 -83.5 -190t-103.5 -127.5t-130.5 -72t-163.5 -22.5q-35 0 -68.5 5t-62 12t-51.5 15t-37 14l44 192q17 -6 59.5 -17t102.5 -11q71 0 120.5 41t76.5 137l-51 107q-93 237 -183.5 472t-182.5 473h292l236 -716l24 -47l214 763h288zM720 1166 l-518 157l102 223l475 -249z" />
<glyph unicode="&#x2013;" horiz-adv-x="1175" d="M137 638h900v-211h-900v211z" />
<glyph unicode="&#x2014;" horiz-adv-x="1780" d="M137 638h1505v-211h-1505v211z" />
<glyph unicode="&#x2018;" horiz-adv-x="447" d="M400 1400q-26 -16 -51 -36t-45 -45.5t-32.5 -57t-12.5 -68.5q0 -39 11 -72t27.5 -60t35 -47.5t33.5 -34.5l-215 -58q-16 13 -36 36t-37.5 54.5t-29.5 72t-12 87.5q0 64 21.5 116t58.5 94t85 74t102 56z" />
<glyph unicode="&#x2019;" horiz-adv-x="465" d="M32 1032q26 16 51.5 36t45.5 45.5t32.5 56.5t12.5 69q0 39 -11 71.5t-27.5 59.5t-35 48t-33.5 35l214 58q16 -13 36 -36t38 -55t30 -72t12 -88q0 -63 -21.5 -115t-58.5 -94t-85 -74t-102 -56z" />
<glyph unicode="&#x201a;" horiz-adv-x="463" d="M17 -192q26 16 51.5 36t45.5 45.5t32.5 56.5t12.5 68q0 39 -11 72t-27.5 60t-35.5 48t-34 35l215 57q16 -12 36 -35t37.5 -55t29.5 -72t12 -88q0 -63 -21.5 -115t-58 -94t-85 -74t-102.5 -56z" />
<glyph unicode="&#x201c;" horiz-adv-x="825" d="M390 1395q-26 -16 -52 -36.5t-46 -46.5t-32.5 -57.5t-12.5 -68.5q0 -39 11 -72t27.5 -60t35 -48t33.5 -35l-203 -57q-16 13 -36 36t-37.5 54.5t-29.5 72t-12 87.5q0 63 21.5 115t58.5 94t85 74t102 56zM779 1405q-26 -16 -51.5 -36t-45.5 -45.5t-32 -57t-12 -68.5 q0 -39 11 -72t27.5 -60t35 -47.5t33.5 -34.5l-203 -57q-16 13 -36 35.5t-37.5 54.5t-29.5 72t-12 87q0 64 21.5 116t58 94t84.5 73.5t101 54.5z" />
<glyph unicode="&#x201d;" horiz-adv-x="844" d="M416 1031q26 16 51.5 36.5t46 46.5t33 57t12.5 69q0 39 -11 72t-27.5 60t-35 48t-33.5 35l203 57q16 -13 36 -36t37.5 -54.5t29.5 -72t12 -87.5q0 -63 -21.5 -115.5t-58.5 -94.5t-85 -74t-102 -55zM27 1021q26 16 51 36t45 45.5t32.5 56.5t12.5 68q0 39 -11 72t-27.5 60 t-35 47.5t-33.5 35.5l203 57q16 -13 36 -35.5t37.5 -54.5t29.5 -72t12 -88q0 -63 -21.5 -115t-58 -94t-84.5 -73.5t-101 -54.5z" />
<glyph unicode="&#x201e;" horiz-adv-x="842" d="M401 -182q26 16 51.5 36.5t46 46.5t33 57t12.5 69q0 39 -11 72t-27.5 60t-35 48t-33.5 35l203 57q16 -13 36 -36t37.5 -54.5t29.5 -72t12 -87.5q0 -63 -21.5 -115.5t-58.5 -94.5t-85 -74t-102 -55zM12 -192q26 16 51 36t45 45.5t32.5 56.5t12.5 68q0 39 -11 72t-27.5 60 t-35 48t-33.5 35l203 57q16 -13 36 -35.5t37.5 -54.5t29.5 -72t12 -88q0 -63 -21.5 -115t-58 -94t-84.5 -73.5t-101 -54.5z" />
<glyph unicode="&#x2020;" horiz-adv-x="1285" d="M788 1593l-11 -517l392 12v-235l-397 12l-25 -1189h-211l-26 1189l-394 -12v235l390 -12l-11 517h293z" />
<glyph unicode="&#x2021;" horiz-adv-x="1272" d="M780 1601l-13 -422l390 12v-234l-397 12l-11 -331l10 -319l398 12v-234l-391 12l14 -433h-288l13 433l-389 -12v234l396 -12l9 319l-9 331l-396 -12v234l389 -12l-13 422h288z" />
<glyph unicode="&#x2022;" horiz-adv-x="728" d="M113 675q0 63 19.5 111.5t54 82t83 50.5t106.5 17q51 0 94.5 -16.5t76 -47.5t50.5 -75t18 -98q0 -64 -19.5 -113t-54.5 -82t-83 -50t-106 -17q-51 0 -95 16.5t-76 47.5t-50 75t-18 99z" />
<glyph unicode="&#x2026;" horiz-adv-x="1537" d="M91 126q0 78 44.5 119t116.5 41q31 0 58 -10t47 -29t31 -46t11 -60q0 -79 -44.5 -120t-116.5 -41q-64 0 -105.5 39t-41.5 107zM615 126q0 78 44.5 119t116.5 41q31 0 58 -10t46.5 -29t30.5 -46t11 -60q0 -79 -44.5 -120t-116.5 -41q-32 0 -58.5 10t-46 29t-30.5 46 t-11 61zM1138 126q0 78 44.5 119t116.5 41q31 0 58 -10t47 -29t31 -46t11 -60q0 -79 -44.5 -120t-116.5 -41q-64 0 -105.5 39t-41.5 107z" />
<glyph unicode="&#x2030;" horiz-adv-x="1878" d="M1507 -20q-69 0 -121.5 27.5t-84.5 76.5q-33 -50 -87.5 -77t-128.5 -27q-66 0 -121.5 24t-95.5 65t-62 96t-22 118q0 68 22.5 126t63.5 100t99 66t129 24q69 0 121.5 -27.5t84.5 -77.5q33 50 87.5 77.5t128.5 27.5q67 0 122 -24t95 -65t62 -96.5t22 -118.5 q0 -68 -22 -125.5t-63 -99.5t-99 -66t-130 -24zM1518 148q25 0 44.5 10.5t33 29t20.5 43.5t7 54q0 63 -27.5 104.5t-86.5 41.5q-26 0 -45.5 -10.5t-32.5 -29.5t-20 -44t-7 -54q0 -63 28 -104t86 -41zM1096 148q25 0 45 10.5t33 29t20 43.5t7 54q0 63 -27.5 104.5t-86.5 41.5 q-25 0 -44.5 -10.5t-33 -29.5t-20.5 -44t-7 -54q0 -63 28.5 -104t85.5 -41zM1304 1255l-993 -1275l-142 101l993 1276zM376 731q-68 0 -124 22.5t-96 63t-62 96t-22 121.5q0 71 22 129.5t63.5 100t100 64t131.5 22.5q68 0 124 -23t95.5 -63.5t61.5 -96t22 -121.5 q0 -71 -22 -129.5t-63 -99.5t-99.5 -63.5t-131.5 -22.5zM386 900q50 0 75.5 39.5t25.5 96.5q0 31 -6.5 57.5t-20 45.5t-34.5 30t-49 11q-49 0 -74.5 -39.5t-25.5 -96.5q0 -31 6.5 -57t20 -45.5t34 -30.5t48.5 -11z" />
<glyph unicode="&#x2039;" horiz-adv-x="766" d="M698 871q-60 -90 -141.5 -182t-171.5 -177q90 -86 171.5 -177.5t141.5 -182.5l-184 -134q-47 64 -100 130.5t-107 131t-107.5 123.5t-102.5 109q49 49 102.5 108t107.5 123.5t107 131t100 130.5z" />
<glyph unicode="&#x203a;" horiz-adv-x="766" d="M72 152q60 90 142 182t172 177q-90 85 -172 177t-142 183l185 134q47 -64 99.5 -131t106.5 -131t107.5 -123.5t102.5 -108.5q-49 -50 -102.5 -109t-107.5 -123t-106.5 -131t-99.5 -131z" />
<glyph unicode="&#x203d;" horiz-adv-x="814" d="M378 986l-4 -203q22 22 44.5 46t40.5 48.5t29.5 50.5t11.5 52q0 78 -48.5 116.5t-135.5 38.5q-42 0 -80.5 -6.5t-69.5 -15t-54 -17.5t-34 -15l-57 185q21 12 52 26.5t73 27t94.5 21.5t114.5 9q92 0 167 -26t128.5 -71.5t82.5 -108t29 -135.5q0 -64 -23.5 -116t-59 -96 t-77.5 -82t-79 -73.5t-63.5 -71t-31.5 -74.5v-74l-194 -15q-8 16 -17.5 42.5t-9.5 68.5q0 32 9 60.5t25 55.5l-6 352h143zM192 126q0 78 44.5 119t116.5 41q31 0 58 -10t46.5 -29t30.5 -46t11 -60q0 -79 -44.5 -120t-116.5 -41q-32 0 -58.5 10t-46 29t-30.5 46t-11 61z" />
<glyph unicode="&#x2044;" horiz-adv-x="1170" d="M1153 1255l-993 -1275l-143 101l993 1276z" />
<glyph unicode="&#x2070;" horiz-adv-x="684" d="M345 731q-68 0 -123.5 22.5t-96 63t-62.5 96t-22 121.5q0 71 22.5 129.5t63.5 100t100 64t131 22.5q68 0 124 -23t96 -63.5t62 -96t22 -121.5q0 -71 -22.5 -129.5t-63.5 -99.5t-99.5 -63.5t-131.5 -22.5zM355 900q50 0 76 39.5t26 96.5q0 31 -6.5 57.5t-20 45.5t-34.5 30 t-49 11q-50 0 -75.5 -39.5t-25.5 -96.5q0 -31 6.5 -57t20 -45.5t34 -30.5t48.5 -11z" />
<glyph unicode="&#x2074;" horiz-adv-x="586" d="M471 1330v-344h89v-135h-89v-100h-181v100h-266v123l272 356h175zM290 986v127l-96 -127h96z" />
<glyph unicode="&#x20a3;" horiz-adv-x="1210" d="M1065 1112h-543v-345h484v-212h-484v-194h268v-132h-268v-229h-266v229h-149v132h149v969h809v-218z" />
<glyph unicode="&#x20a4;" horiz-adv-x="1238" d="M153 156q12 7 28 14.5t34 14t36.5 12.5t35.5 9q19 69 26 133.5t7 125.5h-163v137h729v-137h-303q-1 -59 -10 -122.5t-27 -128.5q67 -6 123 -15.5t112 -9.5q38 -1 63.5 8.5t43 27t29.5 42t22 54.5l170 -50q-7 -74 -33 -128.5t-67 -90.5t-97 -54t-123 -18q-43 0 -84.5 5 t-82 11l-81 12t-82.5 9l-45 3q-11 -10 -22 -19q-21 -18 -49 -31l-144 28zM141 866h134q-2 18 -2 35.5v36.5q0 94 29.5 170.5t85.5 130t137.5 82.5t185.5 29q51 0 96.5 -8t83 -20t66.5 -25.5t47 -23.5l-57 -193q-14 5 -38 14t-55 17.5t-67.5 14.5t-74.5 6q-82 0 -129 -45.5 t-47 -134.5q0 -22 1 -43t3 -43h330v-137h-729v137z" />
<glyph unicode="&#x20a9;" horiz-adv-x="2144" d="M91 946h215l-94 384h280l80 -384h298l94 364h211l93 -364h298l80 384h282l-95 -384h219v-112h-246l-30 -126h196v-112h-224l-145 -596h-313l-221 851l-220 -851h-312l-146 596h-230v112h202l-30 126h-242v112zM620 708h190l32 126h-248zM1328 708h190l26 126h-248z M1429 315l25 71q11 53 21 105t21 105h-140zM703 315l19 47l60 234h-140z" />
<glyph unicode="&#x20ac;" horiz-adv-x="1395" d="M134 602h845v-137h-427q42 -125 137 -193t229 -68q72 0 141.5 14t141.5 44l67 -195q-33 -20 -74 -36t-87 -27t-95 -17.5t-97 -6.5q-135 0 -246 33.5t-194.5 96t-139.5 152.5t-81 203h-120v137zM134 866h124q27 110 84.5 199.5t140.5 152.5t190 97.5t235 34.5 q48 0 96 -6.5t91 -17.5t79 -24.5t62 -28.5l-63 -199q-60 23 -125 37.5t-135 14.5q-135 0 -230.5 -66t-135.5 -194h432v-137h-845v137z" />
<glyph unicode="&#x20b1;" horiz-adv-x="1388" d="M101 1034h144v296h428q200 0 322 -74t157 -222h152v-93h-139q1 -8 1.5 -15t0.5 -15q0 -14 -1 -27t-2 -25h140v-93h-158q-21 -71 -64 -125.5t-103 -91.5t-135.5 -55.5t-161.5 -18.5h-171v-475h-266v766h-144v93h144v82h-144v93zM888 897q0 11 -1 22l-2 22h-374v-82h374 q1 9 2 18.5t1 19.5zM667 679q67 0 114 22.5t74 64.5h-344v-87h156zM511 1034h342q-29 46 -78 64.5t-121 18.5h-143v-83z" />
<glyph unicode="&#x20b9;" horiz-adv-x="1185" d="M185 973h385q-17 72 -77 111.5t-158 39.5h-152v206h873v-119h-339q54 -44 86.5 -102.5t41.5 -135.5h174v-119h-177q-12 -70 -49 -125t-87 -95t-108 -65.5t-112 -35.5l470 -533h-335l-442 521v182q71 0 136 3.5t117.5 18t88.5 45t49 84.5h-385v119z" />
<glyph unicode="&#x20ba;" horiz-adv-x="1196" d="M109 751l207 131v448h266v-282l218 139l67 -104l-285 -180v-108l212 136l67 -104l-279 -177v-425q57 4 104 28t80 63t50 91t15 112l251 22q4 -116 -35 -214.5t-111 -171.5t-172 -114t-219 -41h-229v484l-148 -94l-66 104l214 135v108l-142 -90z" />
<glyph unicode="&#x2113;" horiz-adv-x="831" d="M349 421v-57q0 -92 43 -131.5t119 -39.5q32 0 62 5.5t56 13.5t47 17l35 15l51 -183q-15 -11 -42.5 -24.5t-65 -26.5t-83.5 -21.5t-98 -8.5q-83 0 -152.5 20t-119.5 63t-78 110.5t-28 161.5v640q0 85 22 154t64.5 118t106 76t146.5 27q77 0 138.5 -25t104 -71t65.5 -110 t23 -143q0 -94 -38 -174t-97 -146t-130.5 -118t-139.5 -91zM349 699q33 26 63.5 57.5t54.5 70.5t38 86.5t14 105.5q0 59 -19 97t-60 38q-91 0 -91 -171v-284z" />
<glyph unicode="&#x2122;" horiz-adv-x="784" d="M41 1350h256v-83h-80v-243h-95v243h-81v83zM335 1350h153l51 -208l52 208h152v-326h-96v226l-68 -226h-79l-69 226v-226h-96v326z" />
<glyph unicode="&#x212e;" horiz-adv-x="1829" d="M443 632q-10 0 -10 -10v-351q0 -24 17 -44q87 -90 208 -132.5t258 -42.5q149 0 274.5 49.5t216.5 145.5h110q-51 -60 -115.5 -109t-141 -84t-163.5 -54.5t-183 -19.5q-161 0 -299.5 53.5t-241 146t-161 217t-58.5 267.5q0 95 27.5 182.5t77 164t119 139t154 107t181 69 t201.5 24.5t202.5 -25t182 -71t154 -110t119 -141t77 -165.5t27.5 -183.5v-22h-1233zM1396 1061q0 26 -19 44q-87 87 -206.5 130t-254.5 43q-138 0 -257 -42.5t-207 -130.5q-19 -19 -19 -48v-346q0 -12 10 -12h945q8 0 8 12v350z" />
<glyph unicode="&#x2190;" horiz-adv-x="1842" d="M1698 560h-1161l407 -407l-144 -144l-656 656l656 656l145 -145l-407 -405h1160v-211z" />
<glyph unicode="&#x2191;" horiz-adv-x="1599" d="M695 -226v1123l-407 -408l-144 145l655 656l656 -656l-145 -145l-405 405v-1120h-210z" />
<glyph unicode="&#x2192;" horiz-adv-x="1842" d="M156 771h1159l-405 405l145 145l656 -656l-656 -656l-145 144l408 407h-1162v211z" />
<glyph unicode="&#x2193;" horiz-adv-x="1599" d="M905 1290v-1121l405 406l145 -145l-656 -656l-655 656l144 145l407 -408v1123h210z" />
<glyph unicode="&#x2196;" horiz-adv-x="1496" d="M214 387v928h927v-204h-574l786 -785l-149 -149l-786 785v-575h-204z" />
<glyph unicode="&#x2197;" horiz-adv-x="1496" d="M156 326l786 785h-574v204h927v-928h-204v575l-786 -785z" />
<glyph unicode="&#x2198;" horiz-adv-x="1496" d="M305 1113l786 -785v575h204v-928h-927v204h574l-786 785z" />
<glyph unicode="&#x2199;" horiz-adv-x="1496" d="M392 903v-575l785 785l149 -149l-785 -785h574v-204h-928v928h205z" />
<glyph unicode="&#x2202;" horiz-adv-x="1246" d="M562 1135q-43 0 -83.5 -6t-75 -15t-60.5 -18t-40 -15l-66 182q11 7 42 21.5t76.5 29t102.5 25.5t120 11q161 0 271.5 -53t178.5 -143t98 -208t30 -248q0 -92 -13.5 -180.5t-42.5 -168.5t-75.5 -147.5t-112 -117t-152 -77t-195.5 -27.5q-97 0 -181 24t-146 72.5t-97.5 121 t-35.5 168.5q0 104 37.5 193t107.5 154t168.5 101.5t220.5 36.5q85 0 148.5 -22t98.5 -47q-3 80 -25 145.5t-62.5 111.5t-99.5 71t-137 25zM564 181q66 0 119 26.5t92 76.5t64 121.5t35 160.5q-15 16 -39.5 31t-55 27t-66 19t-73.5 7q-58 0 -105.5 -21t-82 -58.5 t-53.5 -89.5t-19 -114q0 -41 12 -75.5t35.5 -59t57.5 -38t79 -13.5z" />
<glyph unicode="&#x220f;" horiz-adv-x="1436" d="M1033 1267h-629v-1422h-267v1640h1162v-1640h-266v1422z" />
<glyph unicode="&#x2211;" horiz-adv-x="1209" d="M1101 1267h-704l399 -602l-407 -603h720v-217h-1008v201l412 619l-405 618v201h993v-217z" />
<glyph unicode="&#x2212;" horiz-adv-x="1075" d="M152 770h771v-211h-771v211z" />
<glyph unicode="&#x2215;" horiz-adv-x="1170" d="M1153 1255l-993 -1275l-143 101l993 1276z" />
<glyph unicode="&#x2219;" horiz-adv-x="430" d="M91 505q0 78 44.5 119t116.5 41q31 0 58 -10t47 -29t31 -45.5t11 -60.5q0 -79 -44.5 -120t-116.5 -41q-64 0 -105.5 39t-41.5 107z" />
<glyph unicode="&#x221a;" horiz-adv-x="1444" d="M39 888h453l229 -545l442 1142h273l-596 -1485h-228l-301 672h-272v216z" />
<glyph unicode="&#x221e;" horiz-adv-x="1818" d="M909 520q-34 -35 -71.5 -67.5t-79.5 -59.5t-89 -45.5t-101 -23.5q-33 -4 -65.5 -3.5t-65.5 5.5q-68 10 -124.5 37.5t-97.5 71t-63.5 101.5t-22.5 129t22.5 129t63.5 101t97.5 70.5t124.5 37.5q66 9 131 3q54 -6 101 -24.5t89 -45.5t79.5 -60t71.5 -67q34 34 71.5 67 t79.5 60t89 45.5t101 24.5q66 6 130 -3q68 -10 125 -37.5t98 -70.5t63.5 -101t22.5 -129t-22.5 -129t-63.5 -101.5t-98 -71t-125 -37.5q-66 -9 -130 -2q-54 5 -101 23.5t-89 45.5t-79.5 59.5t-71.5 67.5zM1033 665q66 -69 128 -113t129 -44q36 0 67 11t54 31t36 49.5 t13 65.5t-13 65t-36 49.5t-54 31t-67 10.5q-33 0 -65 -11.5t-63.5 -32.5t-63.5 -49.5t-65 -62.5zM527 508q67 0 129.5 44t128.5 113q-33 34 -65 62.5t-63.5 49.5t-63.5 32.5t-66 11.5q-35 0 -66 -10.5t-54 -31t-36 -49.5t-13 -65t13 -65.5t36 -49.5t54 -31t66 -11z" />
<glyph unicode="&#x222b;" horiz-adv-x="851" d="M265 1110q-2 26 -1.5 52t2.5 52q6 65 35 118.5t76.5 92t112 59.5t141.5 21q76 0 127.5 -13t85.5 -25l-43 -194q-21 7 -56.5 14.5t-77.5 7.5q-69 0 -108 -39t-34 -121l61 -915q2 -27 1.5 -52.5t-2.5 -51.5q-6 -65 -35 -119t-76.5 -92t-112 -59t-141.5 -21 q-76 0 -127.5 12.5t-85.5 25.5l43 194q21 -7 56.5 -15t77.5 -8q69 0 108 39.5t34 121.5z" />
<glyph unicode="&#x2248;" horiz-adv-x="1109" d="M144 613l23 28l-42 70q50 66 121.5 104t157.5 38q43 0 82 -10.5t75.5 -23t72 -23t73.5 -10.5q29 0 56 7t51 17.5t44.5 22.5t35.5 22l84 -138q-18 -23 -39 -42l38 -62q-51 -60 -123 -97t-159 -37q-43 0 -81.5 10.5t-74.5 23t-71.5 23t-72.5 10.5q-24 0 -48 -7.5t-46 -18.5 t-41 -23.5t-32 -22.5z" />
<glyph unicode="&#x2260;" horiz-adv-x="1224" d="M152 945h551l166 272l115 -63l-128 -209h215v-210h-346l-83 -138h429v-211h-561l-167 -273l-115 63l129 210h-205v211h336l83 138h-419v210z" />
<glyph unicode="&#x2264;" horiz-adv-x="1050" d="M881 1159l-413 -323l413 -322l-134 -158l-611 480l611 481zM149 233h736v-198h-736v198z" />
<glyph unicode="&#x2265;" horiz-adv-x="1050" d="M169 514l412 322l-412 323l133 158l612 -481l-612 -480zM165 233h736v-198h-736v198z" />
<glyph unicode="&#x2460;" d="M144 665q0 142 54 266.5t147 217.5t217.5 147t266.5 54t266.5 -54t217.5 -147t147 -217.5t54 -266.5t-54 -266.5t-147 -217.5t-217.5 -147t-266.5 -54t-266.5 54t-217.5 147t-147 217.5t-54 266.5zM346 665q0 -67 17 -129t48.5 -115.5t75.5 -97.5t97.5 -75.5t115.5 -48.5 t129 -17q100 0 188 38t153.5 103t103 153t37.5 189q0 100 -37.5 188.5t-103 153.5t-153.5 103t-188 38q-67 0 -129 -17t-115.5 -48.5t-97.5 -75.5t-75.5 -97.5t-48.5 -115.5t-17 -129zM751 495v338l-58.5 -4.5l-58.5 -4.5l-15 134q19 1 54 4.5t73.5 7.5t74 8t54.5 7h54v-491 l109 -2v-139h-414v139z" />
<glyph unicode="&#x2461;" d="M601 459q69 72 116 123.5t75.5 88t40.5 61.5t12 44q0 29 -18 46t-49 17q-35 0 -66 -11.5t-51 -22.5l-60 119q15 9 36.5 20t48.5 20t58 15t65 6q53 0 94.5 -14.5t70 -39t43 -58t14.5 -71.5q0 -37 -14 -71t-40.5 -70t-64 -76.5t-85.5 -89.5h224v-142h-450v106zM144 665 q0 142 54 266.5t147 217.5t217.5 147t266.5 54t266.5 -54t217.5 -147t147 -217.5t54 -266.5t-54 -266.5t-147 -217.5t-217.5 -147t-266.5 -54t-266.5 54t-217.5 147t-147 217.5t-54 266.5zM346 665q0 -67 17 -129t48.5 -115.5t75.5 -97.5t97.5 -75.5t115.5 -48.5t129 -17 q100 0 188 38t153.5 103t103 153t37.5 189q0 100 -37.5 188.5t-103 153.5t-153.5 103t-188 38q-67 0 -129 -17t-115.5 -48.5t-97.5 -75.5t-75.5 -97.5t-48.5 -115.5t-17 -129z" />
<glyph unicode="&#x2462;" d="M865 784q0 25 -18 39.5t-53 14.5q-38 0 -71 -10t-50 -18l-55 120q15 9 37 19t48.5 18t55.5 13t58 5q57 0 99 -15.5t70 -41t42 -58.5t14 -68q0 -38 -20 -69t-50 -53q38 -21 63 -57t25 -84q0 -43 -17.5 -79t-50.5 -61.5t-80.5 -40t-108.5 -14.5q-32 0 -61 5.5t-53.5 13.5 t-44.5 17t-32 17l51 127q22 -10 59 -22t80 -12q37 0 58.5 13t21.5 39q0 30 -20 47.5t-59 17.5h-92v123h124q11 6 20.5 20t9.5 34zM144 665q0 142 54 266.5t147 217.5t217.5 147t266.5 54t266.5 -54t217.5 -147t147 -217.5t54 -266.5t-54 -266.5t-147 -217.5t-217.5 -147 t-266.5 -54t-266.5 54t-217.5 147t-147 217.5t-54 266.5zM346 665q0 -67 17 -129t48.5 -115.5t75.5 -97.5t97.5 -75.5t115.5 -48.5t129 -17q100 0 188 38t153.5 103t103 153t37.5 189q0 100 -37.5 188.5t-103 153.5t-153.5 103t-188 38q-67 0 -129 -17t-115.5 -48.5 t-97.5 -75.5t-75.5 -97.5t-48.5 -115.5t-17 -129z" />
<glyph unicode="&#x2463;" d="M810 975h152v-358h97v-135h-97v-129h-168v129h-259v112zM801 618v123l-87 -123h87zM144 665q0 142 54 266.5t147 217.5t217.5 147t266.5 54t266.5 -54t217.5 -147t147 -217.5t54 -266.5t-54 -266.5t-147 -217.5t-217.5 -147t-266.5 -54t-266.5 54t-217.5 147t-147 217.5 t-54 266.5zM346 665q0 -67 17 -129t48.5 -115.5t75.5 -97.5t97.5 -75.5t115.5 -48.5t129 -17q100 0 188 38t153.5 103t103 153t37.5 189q0 100 -37.5 188.5t-103 153.5t-153.5 103t-188 38q-67 0 -129 -17t-115.5 -48.5t-97.5 -75.5t-75.5 -97.5t-48.5 -115.5t-17 -129z" />
<glyph unicode="&#x2464;" d="M870 556q0 36 -25 55.5t-67 19.5q-59 0 -99.5 -4.5t-49.5 -6.5l13 355h379v-142h-218q-1 -20 -1.5 -41t-0.5 -41h25t24 -2q94 -8 148.5 -57t54.5 -137q0 -47 -19 -86t-53.5 -67t-83 -43t-108.5 -15q-35 0 -64.5 4.5t-53 11t-40.5 13.5t-25 12l41 130q26 -10 59 -17.5 t75 -7.5q38 0 63.5 16.5t25.5 49.5zM144 665q0 142 54 266.5t147 217.5t217.5 147t266.5 54t266.5 -54t217.5 -147t147 -217.5t54 -266.5t-54 -266.5t-147 -217.5t-217.5 -147t-266.5 -54t-266.5 54t-217.5 147t-147 217.5t-54 266.5zM346 665q0 -67 17 -129t48.5 -115.5 t75.5 -97.5t97.5 -75.5t115.5 -48.5t129 -17q100 0 188 38t153.5 103t103 153t37.5 189q0 100 -37.5 188.5t-103 153.5t-153.5 103t-188 38q-67 0 -129 -17t-115.5 -48.5t-97.5 -75.5t-75.5 -97.5t-48.5 -115.5t-17 -129z" />
<glyph unicode="&#x2465;" d="M863 839q-53 0 -83.5 -31.5t-36.5 -75.5q8 5 30 10.5t51 5.5q47 0 88 -11t71 -34t47.5 -58t17.5 -84q0 -48 -16 -88t-46.5 -68.5t-74.5 -44.5t-101 -16q-122 0 -183 77.5t-61 220.5q0 71 15.5 133.5t51 109t92 73t138.5 26.5q31 0 57.5 -4t47.5 -10t35.5 -11.5t20.5 -8.5 l-34 -133q-14 5 -47 13.5t-80 8.5zM814 490q30 0 45 19.5t15 51.5q0 35 -19.5 51.5t-46.5 16.5q-23 0 -39.5 -6.5t-26.5 -14.5q0 -25 3.5 -46.5t12 -37.5t22 -25t34.5 -9zM144 665q0 142 54 266.5t147 217.5t217.5 147t266.5 54t266.5 -54t217.5 -147t147 -217.5t54 -266.5 t-54 -266.5t-147 -217.5t-217.5 -147t-266.5 -54t-266.5 54t-217.5 147t-147 217.5t-54 266.5zM346 665q0 -67 17 -129t48.5 -115.5t75.5 -97.5t97.5 -75.5t115.5 -48.5t129 -17q100 0 188 38t153.5 103t103 153t37.5 189q0 100 -37.5 188.5t-103 153.5t-153.5 103t-188 38 q-67 0 -129 -17t-115.5 -48.5t-97.5 -75.5t-75.5 -97.5t-48.5 -115.5t-17 -129z" />
<glyph unicode="&#x2466;" d="M1067 835l-202 -482h-185l205 480h-120l-3 -97h-141l-10 239h456v-140zM144 665q0 142 54 266.5t147 217.5t217.5 147t266.5 54t266.5 -54t217.5 -147t147 -217.5t54 -266.5t-54 -266.5t-147 -217.5t-217.5 -147t-266.5 -54t-266.5 54t-217.5 147t-147 217.5t-54 266.5z M346 665q0 -67 17 -129t48.5 -115.5t75.5 -97.5t97.5 -75.5t115.5 -48.5t129 -17q100 0 188 38t153.5 103t103 153t37.5 189q0 100 -37.5 188.5t-103 153.5t-153.5 103t-188 38q-67 0 -129 -17t-115.5 -48.5t-97.5 -75.5t-75.5 -97.5t-48.5 -115.5t-17 -129z" />
<glyph unicode="&#x2467;" d="M827 344q-46 0 -87.5 12t-73.5 35.5t-51 57t-19 76.5q0 25 8 47t21.5 40.5t30 33t34.5 24.5q-16 9 -31.5 21.5t-27.5 28.5t-19.5 36t-7.5 44q0 43 19 77.5t50.5 58.5t73 36.5t86.5 12.5q42 0 82 -12.5t71.5 -35t51 -55.5t19.5 -73q0 -50 -25 -82.5t-60 -50.5 q18 -11 35 -26t30.5 -33t21.5 -39t8 -44q0 -45 -19.5 -80.5t-52.5 -60t-76.5 -37t-91.5 -12.5zM772 792q0 -24 17.5 -42.5t42.5 -26.5q23 8 40 26.5t17 38.5q0 25 -16.5 40t-43.5 15q-26 0 -41.5 -15.5t-15.5 -35.5zM900 543q0 14 -7 27t-17.5 24.5t-23 19.5t-24.5 13 q-24 -10 -45.5 -33t-21.5 -48q0 -27 20 -43.5t52 -16.5q28 0 47.5 16.5t19.5 40.5zM144 665q0 142 54 266.5t147 217.5t217.5 147t266.5 54t266.5 -54t217.5 -147t147 -217.5t54 -266.5t-54 -266.5t-147 -217.5t-217.5 -147t-266.5 -54t-266.5 54t-217.5 147t-147 217.5 t-54 266.5zM346 665q0 -67 17 -129t48.5 -115.5t75.5 -97.5t97.5 -75.5t115.5 -48.5t129 -17q100 0 188 38t153.5 103t103 153t37.5 189q0 100 -37.5 188.5t-103 153.5t-153.5 103t-188 38q-67 0 -129 -17t-115.5 -48.5t-97.5 -75.5t-75.5 -97.5t-48.5 -115.5t-17 -129z" />
<glyph unicode="&#x2468;" d="M144 665q0 142 54 266.5t147 217.5t217.5 147t266.5 54t266.5 -54t217.5 -147t147 -217.5t54 -266.5t-54 -266.5t-147 -217.5t-217.5 -147t-266.5 -54t-266.5 54t-217.5 147t-147 217.5t-54 266.5zM791 489q28 0 48.5 9t35 24t22.5 34.5t10 39.5q-8 -5 -30 -10.5 t-51 -5.5q-47 0 -88 11t-71 34t-47.5 58t-17.5 84q0 48 16 88t46.5 68.5t74.5 44.5t101 16q122 0 183 -77.5t61 -220.5q0 -71 -14.5 -133.5t-49 -109t-90.5 -73t-139 -26.5q-32 0 -60 4.5t-50 10.5t-36.5 12.5t-20.5 10.5l36 131q14 -5 47.5 -14.5t83.5 -9.5zM836 838 q-30 0 -45 -19.5t-15 -51.5q0 -35 19.5 -51.5t46.5 -16.5q23 0 39.5 6t26.5 14q0 51 -15.5 85t-56.5 34zM346 665q0 -67 17 -129t48.5 -115.5t75.5 -97.5t97.5 -75.5t115.5 -48.5t129 -17q100 0 188 38t153.5 103t103 153t37.5 189q0 100 -37.5 188.5t-103 153.5t-153.5 103 t-188 38q-67 0 -129 -17t-115.5 -48.5t-97.5 -75.5t-75.5 -97.5t-48.5 -115.5t-17 -129z" />
<glyph unicode="&#x24ea;" d="M831 490q41 0 66.5 44t25.5 126q0 83 -26 131.5t-70 48.5q-40 0 -65 -45t-25 -128q0 -82 25 -129.5t69 -47.5zM827 344q-69 0 -120.5 24t-85 66t-50 100t-16.5 126t17.5 127.5t52 103.5t86.5 69t120 25q69 0 120.5 -24t85 -66.5t50 -101t16.5 -126.5t-17.5 -127 t-52 -102.5t-86.5 -68.5t-120 -25zM144 665q0 142 54 266.5t147 217.5t217.5 147t266.5 54t266.5 -54t217.5 -147t147 -217.5t54 -266.5t-54 -266.5t-147 -217.5t-217.5 -147t-266.5 -54t-266.5 54t-217.5 147t-147 217.5t-54 266.5zM346 665q0 -67 17 -129t48.5 -115.5 t75.5 -97.5t97.5 -75.5t115.5 -48.5t129 -17q100 0 188 38t153.5 103t103 153t37.5 189q0 100 -37.5 188.5t-103 153.5t-153.5 103t-188 38q-67 0 -129 -17t-115.5 -48.5t-97.5 -75.5t-75.5 -97.5t-48.5 -115.5t-17 -129z" />
<glyph unicode="&#x24ff;" d="M831 490q-44 0 -69 47.5t-25 129.5q0 83 25 128t65 45q44 0 70 -48.5t26 -131.5q0 -82 -25.5 -126t-66.5 -44zM827 344q68 0 120 25t86.5 68.5t52 102.5t17.5 127t-16.5 126.5t-50 101t-85 66.5t-120.5 24q-68 0 -120 -25t-86.5 -69t-52 -103.5t-17.5 -127.5t16.5 -126 t50 -100t85 -66t120.5 -24zM144 665q0 142 54 266.5t147 217.5t217.5 147t266.5 54t266.5 -54t217.5 -147t147 -217.5t54 -266.5t-54 -266.5t-147 -217.5t-217.5 -147t-266.5 -54t-266.5 54t-217.5 147t-147 217.5t-54 266.5z" />
<glyph unicode="&#x25ca;" horiz-adv-x="1295" d="M744 0h-194l-510 665l510 665h194l511 -665zM647 1086l-311 -421l311 -421l313 421z" />
<glyph unicode="&#x25fc;" horiz-adv-x="1025" d="M0 1025h1025v-1025h-1025v1025z" />
<glyph unicode="&#x2776;" d="M144 665q0 142 54 266.5t147 217.5t217.5 147t266.5 54t266.5 -54t217.5 -147t147 -217.5t54 -266.5t-54 -266.5t-147 -217.5t-217.5 -147t-266.5 -54t-266.5 54t-217.5 147t-147 217.5t-54 266.5zM624 492v-139h414v139l-109 2v491h-54q-19 -3 -54.5 -7t-74 -8 t-73.5 -7.5t-54 -4.5l15 -134l58.5 4.5l58.5 4.5v-338z" />
<glyph unicode="&#x2777;" d="M601 353h450v142h-224q48 49 85.5 89.5t64 76.5t40.5 70t14 71q0 38 -14.5 71.5t-43 58t-70 39t-94.5 14.5q-34 0 -65 -6t-58 -15t-48.5 -20t-36.5 -20l60 -119q20 11 51 22.5t66 11.5q31 0 49 -17t18 -46q0 -19 -12 -44t-40.5 -61.5t-75.5 -88t-116 -123.5v-106z M144 665q0 142 54 266.5t147 217.5t217.5 147t266.5 54t266.5 -54t217.5 -147t147 -217.5t54 -266.5t-54 -266.5t-147 -217.5t-217.5 -147t-266.5 -54t-266.5 54t-217.5 147t-147 217.5t-54 266.5z" />
<glyph unicode="&#x2778;" d="M865 784q0 -20 -9.5 -34t-20.5 -20h-124v-123h92q39 0 59 -17.5t20 -47.5q0 -26 -22 -39t-58 -13q-43 0 -80 12t-59 22l-51 -127q12 -8 32 -17t44.5 -17t53.5 -13.5t61 -5.5q61 0 108.5 14.5t80.5 40t50.5 61.5t17.5 79q0 48 -25 84t-63 57q30 22 50 53t20 69 q0 35 -14 68t-42 58.5t-70 41t-99 15.5q-29 0 -58 -5t-55 -13t-48.5 -18t-37.5 -19l55 -120q17 8 50 18t71 10q35 0 53 -14t18 -40zM144 665q0 142 54 266.5t147 217.5t217.5 147t266.5 54t266.5 -54t217.5 -147t147 -217.5t54 -266.5t-54 -266.5t-147 -217.5t-217.5 -147 t-266.5 -54t-266.5 54t-217.5 147t-147 217.5t-54 266.5z" />
<glyph unicode="&#x2779;" d="M535 594v-112h259v-129h168v129h97v135h-97v358h-152zM714 618l87 123v-123h-87zM144 665q0 142 54 266.5t147 217.5t217.5 147t266.5 54t266.5 -54t217.5 -147t147 -217.5t54 -266.5t-54 -266.5t-147 -217.5t-217.5 -147t-266.5 -54t-266.5 54t-217.5 147t-147 217.5 t-54 266.5z" />
<glyph unicode="&#x277a;" d="M870 556q0 -33 -25.5 -49.5t-63.5 -16.5q-42 0 -75 7.5t-59 17.5l-41 -130q8 -5 25 -12t40.5 -13.5t53 -11t64.5 -4.5q60 0 108.5 15t83 43t53.5 67t19 86q0 88 -54.5 137t-148.5 57q-11 2 -24 2h-25q0 20 0.5 41t1.5 41h218v142h-379l-13 -355q9 2 49.5 6.5t99.5 4.5 q42 0 67 -19.5t25 -55.5zM144 665q0 142 54 266.5t147 217.5t217.5 147t266.5 54t266.5 -54t217.5 -147t147 -217.5t54 -266.5t-54 -266.5t-147 -217.5t-217.5 -147t-266.5 -54t-266.5 54t-217.5 147t-147 217.5t-54 266.5z" />
<glyph unicode="&#x277b;" d="M863 839q47 0 80 -8.5t47 -13.5l34 133q-6 3 -20.5 8.5t-35.5 11.5t-47.5 10t-57.5 4q-82 0 -138.5 -26.5t-92 -73t-51 -109t-15.5 -133.5q0 -143 61 -220.5t183 -77.5q57 0 101 16t74.5 44.5t46.5 68.5t16 88q0 49 -17.5 84t-47.5 58t-71 34t-88 11q-29 0 -51 -5.5 t-30 -10.5q6 44 36.5 75.5t83.5 31.5zM814 490q-21 0 -34.5 9t-22 25t-12 37.5t-3.5 46.5q10 8 26.5 14.5t39.5 6.5q27 0 46.5 -16.5t19.5 -51.5q0 -32 -15 -51.5t-45 -19.5zM144 665q0 142 54 266.5t147 217.5t217.5 147t266.5 54t266.5 -54t217.5 -147t147 -217.5 t54 -266.5t-54 -266.5t-147 -217.5t-217.5 -147t-266.5 -54t-266.5 54t-217.5 147t-147 217.5t-54 266.5z" />
<glyph unicode="&#x277c;" d="M1067 975h-456l10 -239h141l3 97h120l-205 -480h185l202 482v140zM144 665q0 142 54 266.5t147 217.5t217.5 147t266.5 54t266.5 -54t217.5 -147t147 -217.5t54 -266.5t-54 -266.5t-147 -217.5t-217.5 -147t-266.5 -54t-266.5 54t-217.5 147t-147 217.5t-54 266.5z" />
<glyph unicode="&#x277d;" d="M827 344q48 0 91.5 12.5t76.5 37t52.5 60t19.5 80.5q0 23 -8 44t-21.5 39t-30.5 33t-35 26q35 18 60 50.5t25 82.5q0 40 -19.5 73t-51 55.5t-71.5 35t-82 12.5q-45 0 -86.5 -12.5t-73 -36.5t-50.5 -58.5t-19 -77.5q0 -24 7.5 -44t19.5 -36t27.5 -28.5t31.5 -21.5 q-18 -10 -34.5 -24.5t-30 -33t-21.5 -40.5t-8 -47q0 -43 19 -76.5t51 -57t73.5 -35.5t87.5 -12zM772 792q0 20 15.5 35.5t41.5 15.5q27 0 43.5 -15t16.5 -40q0 -20 -17 -38.5t-40 -26.5q-25 8 -42.5 26.5t-17.5 42.5zM900 543q0 -24 -19.5 -40.5t-47.5 -16.5q-32 0 -52 16.5 t-20 43.5q0 25 21.5 48t45.5 33q12 -5 24.5 -13t23 -19.5t17.5 -24.5t7 -27zM144 665q0 142 54 266.5t147 217.5t217.5 147t266.5 54t266.5 -54t217.5 -147t147 -217.5t54 -266.5t-54 -266.5t-147 -217.5t-217.5 -147t-266.5 -54t-266.5 54t-217.5 147t-147 217.5t-54 266.5 z" />
<glyph unicode="&#x277e;" d="M144 665q0 142 54 266.5t147 217.5t217.5 147t266.5 54t266.5 -54t217.5 -147t147 -217.5t54 -266.5t-54 -266.5t-147 -217.5t-217.5 -147t-266.5 -54t-266.5 54t-217.5 147t-147 217.5t-54 266.5zM791 489q-50 0 -83.5 9.5t-47.5 14.5l-36 -131q6 -4 20.5 -10.5 t36.5 -12.5t50 -10.5t60 -4.5q83 0 139 26.5t90.5 73t49 109t14.5 133.5q0 143 -61 220.5t-183 77.5q-57 0 -101 -16t-74.5 -44.5t-46.5 -68.5t-16 -88q0 -49 17.5 -84t47.5 -58t71 -34t88 -11q29 0 51 5.5t30 10.5q-2 -20 -10 -39.5t-22.5 -34.5t-35 -24t-48.5 -9zM836 838 q41 0 56.5 -34t15.5 -85q-10 -8 -26.5 -14t-39.5 -6q-27 0 -46.5 16.5t-19.5 51.5q0 32 15 51.5t45 19.5z" />
<glyph unicode="&#xfb06;" horiz-adv-x="1587" d="M1244 1024h276v-199h-273v-473q0 -86 32 -121t104 -35q19 0 39.5 2t39 5.5t35 7.5t27.5 8l34 -196q-20 -8 -48 -16t-59.5 -14t-65 -9.5t-64.5 -3.5q-90 0 -154 20t-105.5 61.5t-61 106t-19.5 153.5v969h-103q-47 0 -81 -12.5t-56.5 -34t-33.5 -51.5t-11 -65q0 -36 11 -69 t30.5 -63t45.5 -57.5t57 -53.5l-155 -155q-31 19 -56.5 43.5t-46.5 49.5q-26 5 -54 9.5t-57 4.5q-27 0 -53 -5t-46 -16t-32 -28.5t-12 -42.5q0 -21 8.5 -38.5t27.5 -32.5t49 -30t73 -31l81 -32q121 -46 181.5 -117t60.5 -183q0 -69 -23.5 -124.5t-71 -94.5t-119 -60 t-166.5 -21q-118 0 -207 23.5t-148 53.5l56 197q38 -19 100 -38t132 -24q23 -2 44.5 -1.5t41.5 2.5q51 5 81 23t30 56q0 23 -12 41t-33.5 33t-51 27.5t-65.5 26.5l-76 28q-124 45 -183.5 117t-59.5 180q0 65 22.5 118.5t63 93.5t96 65t122.5 34q23 3 46 4.5t46 0.5 q-13 26 -19.5 56t-6.5 66q0 65 28 123t83 101t136 68t188 25h361v-456z" />
<glyph horiz-adv-x="1093" d="M11 0v168l410 863h251l410 -863v-168h-1071zM287 204h519l-260 581z" />
<glyph horiz-adv-x="1166" d="M116 462h714v-119h-314q38 -75 111 -112t174 -37q34 0 66 4.5t60.5 11.5t52.5 15t41 15l60 -187q-25 -14 -58.5 -27t-74.5 -23.5t-88 -16.5t-98 -6q-107 0 -195.5 26t-157 73t-116 114t-70.5 150h-107v119zM116 680h110q25 83 73.5 150t118 114.5t158 73.5t193.5 26 q46 0 89.5 -6.5t81 -16.5t69 -22.5t55.5 -24.5l-58 -190q-13 5 -36 12.5t-52 15t-63 13t-69 5.5q-93 0 -164 -37.5t-109 -112.5h317v-119h-714v119z" />
<glyph horiz-adv-x="1232" d="M1155 0h-480v181q36 20 71.5 54t63.5 79.5t45.5 102t17.5 121.5q0 63 -18.5 118t-52.5 95t-83 63t-109 23q-57 0 -103 -22t-79 -60t-51 -88.5t-18 -106.5q0 -74 17.5 -134.5t46 -108t63.5 -82t71 -54.5v-181h-480v190h222q-35 22 -71.5 57t-66.5 81t-49 103t-19 122 q0 101 35.5 190.5t103 156t165.5 105.5t224 39q125 0 221.5 -39.5t162.5 -106t100 -154t34 -184.5q0 -73 -19.5 -132.5t-50 -105t-67 -78.5t-69.5 -54h222v-190z" />
<glyph horiz-adv-x="1427" d="M707 -20q-150 0 -267.5 48t-199 136.5t-124 214.5t-42.5 282t44 283t127.5 217t203 139.5t270.5 49.5q150 0 268 -48t199.5 -136.5t124 -214.5t42.5 -282q0 -183 -58.5 -323.5t-170.5 -231.5l295 -275l-197 -159l-281 336q-53 -17 -111 -26.5t-123 -9.5zM719 193 q79 0 143 31t110 90t71 144.5t25 195.5q0 112 -25 201.5t-71.5 152t-113 96t-150.5 33.5q-79 0 -143.5 -31t-110 -90t-70.5 -145t-25 -195q0 -112 25 -201.5t71.5 -152t113 -96t150.5 -33.5z" />
<glyph horiz-adv-x="1117" d="M752 215h-387l-81 -215h-270l420 1024h249l421 -1024h-270zM436 407h245l-122 327z" />
<glyph horiz-adv-x="1117" d="M752 215h-387l-81 -215h-270l420 1024h249l421 -1024h-270zM436 407h245l-122 327zM277 1297l483 253l101 -224l-525 -160z" />
<glyph horiz-adv-x="1117" d="M752 215h-387l-81 -215h-270l420 1024h249l421 -1024h-270zM436 407h245l-122 327zM454 1494q-2 -32 3 -60.5t17 -50.5t33 -34.5t52 -12.5t52 12.5t33 34.5t16.5 50.5t3.5 60.5h183q11 -91 -11 -154.5t-64 -103.5t-98.5 -58.5t-114.5 -18.5q-59 0 -115 18.5t-98 58.5 t-64 103.5t-11 154.5h183z" />
<glyph horiz-adv-x="1117" d="M752 215h-387l-81 -215h-270l420 1024h249l421 -1024h-270zM436 407h245l-122 327zM775 1142q-25 18 -53.5 41t-57.5 47t-56.5 47.5t-48.5 43.5q-22 -20 -49 -43.5t-56 -47.5t-58 -47t-54 -41l-128 161q34 22 75.5 50.5t86.5 59.5t91.5 64t91.5 66q45 -33 91.5 -66 t91.5 -64t86 -59.5t76 -50.5z" />
<glyph horiz-adv-x="1117" d="M752 215h-387l-81 -215h-270l420 1024h249l421 -1024h-270zM436 407h245l-122 327zM190 1342q0 78 44.5 119t116.5 41q31 0 58 -10t47 -29t31 -45.5t11 -60.5q0 -79 -44.5 -120t-116.5 -41q-64 0 -105.5 39t-41.5 107zM620 1342q0 78 44.5 119t116.5 41q31 0 58 -10 t46.5 -29t30.5 -45.5t11 -60.5q0 -79 -44.5 -120t-116.5 -41q-32 0 -58.5 10t-46 29t-30.5 46t-11 61z" />
<glyph horiz-adv-x="1543" d="M1456 824h-393v-210h374v-197h-374v-218h411v-199h-674v209h-354l-155 -209h-286l755 1024h696v-200zM800 401v291l-217 -291h217z" />
<glyph horiz-adv-x="1543" d="M1456 824h-393v-210h374v-197h-374v-218h411v-199h-674v209h-354l-155 -209h-286l755 1024h696v-200zM800 401v291l-217 -291h217zM857 1297l483 253l101 -224l-525 -160z" />
<glyph horiz-adv-x="798" d="M736 738q0 -70 -34.5 -127.5t-90 -103.5t-126 -82t-142.5 -63q1 -91 38.5 -130t109.5 -39q31 0 60 5.5t54.5 13.5t45.5 17t34 15l51 -183q-15 -11 -42 -24.5t-63.5 -26.5t-81.5 -21.5t-96 -8.5q-79 0 -144.5 20t-113 62t-74 107.5t-26.5 157.5v368q0 78 21 142t61.5 110 t101 71.5t140.5 25.5q78 0 137.5 -22t99.5 -62t60 -96.5t20 -125.5zM343 543q31 16 59 35.5t49 44.5t33 54.5t12 65.5q0 44 -17.5 74.5t-54.5 30.5q-43 0 -62 -38t-19 -107v-160z" />
<glyph horiz-adv-x="1117" d="M752 215h-387l-81 -215h-270l420 1024h249l421 -1024h-270zM436 407h245l-122 327zM782 1166l-518 157l102 223l475 -249z" />
<glyph horiz-adv-x="1117" d="M752 215h-387l-81 -215h-270l420 1024h249l421 -1024h-270zM436 407h245l-122 327zM250 1448h617v-195h-617v195z" />
<glyph horiz-adv-x="1120" d="M60 266q0 50 16 92.5t42.5 76.5t60 60t69.5 43q-38 40 -62 73t-38 62t-19.5 56.5t-5.5 55.5q0 56 26 104t71 82.5t106.5 54t132.5 19.5q68 0 127.5 -19t103.5 -52t69.5 -77.5t25.5 -96.5q0 -32 -10 -57t-20 -41h330v-176h-153q14 -26 21 -62t7 -87q0 -31 -6.5 -59.5 t-16.5 -53.5t-22.5 -45t-23.5 -35l152 -150l-151 -140l-154 154l-13 -6.5t-15 -6.5q-46 -24 -106 -39.5t-136 -15.5q-96 0 -172 21t-128.5 58.5t-80 90.5t-27.5 116zM516 654q26 30 38 55.5t12 60.5q0 25 -9 43.5t-24 31t-35 18.5t-42 6q-21 0 -40 -6.5t-33.5 -18t-22.5 -28 t-8 -35.5q0 -20 4 -35t14.5 -31t28 -35.5t44.5 -46.5l290 -292l21 -17q8 17 12.5 40t3.5 44q-1 31 -7.5 61.5t-20.5 56.5h-107zM474 156q33 0 67.5 6.5t57.5 20.5l-231 237h-2q-27 -19 -46.5 -46t-24.5 -65q-2 -9 -1.5 -18.5t1.5 -17.5q3 -28 18 -50t39 -37t55 -22.5 t67 -7.5z" />
<glyph horiz-adv-x="1162" d="M1021 0q-22 -18 -43 -39t-37.5 -45t-26.5 -50t-10 -53q0 -49 25.5 -72.5t66.5 -23.5q39 0 71.5 12t49.5 20l44 -161q-10 -8 -30.5 -18t-47.5 -19t-59 -15t-66 -6q-52 0 -100.5 12.5t-86.5 40.5t-61 72t-23 107q0 39 14 74.5t35.5 66.5t47.5 56t49 42l-81 214h-387 l-81 -215h-270l420 1024h249l421 -1024h-83zM436 407h245l-122 327z" />
<glyph horiz-adv-x="1109" d="M144 347q48 61 116 101.5t150 40.5q38 0 73.5 -10.5t71.5 -23t73 -23t79 -10.5q30 0 58 6t53 15.5t46 20.5t36 21l84 -138q-52 -60 -126 -96.5t-163 -36.5q-42 0 -80 10.5t-74 23t-71 23t-72 10.5q-24 0 -48.5 -7.5t-47 -19t-41.5 -24t-33 -22.5zM125 669 q49 65 119.5 103t155.5 38q44 0 83 -10.5t76.5 -23t73.5 -23t74 -10.5q28 0 54 7.5t49 18.5t42.5 23t33.5 22l84 -139q-49 -64 -119.5 -102t-155.5 -38q-44 0 -83 10.5t-76.5 23t-73.5 23t-74 10.5q-28 0 -54 -7.5t-49 -18.5t-42 -23t-34 -22z" />
<glyph horiz-adv-x="1117" d="M752 215h-387l-81 -215h-270l420 1024h249l421 -1024h-270zM436 407h245l-122 327zM481 1348q0 -34 22 -55t54 -21q35 0 57.5 21.5t22.5 58.5q0 35 -22 55.5t-54 20.5q-35 0 -57.5 -21t-22.5 -59zM319 1342q0 56 18 99.5t51 73.5t78.5 45.5t100.5 15.5q50 0 92.5 -15 t73.5 -43t48.5 -68.5t17.5 -90.5q0 -57 -18 -100.5t-51 -73.5t-79 -45.5t-101 -15.5q-50 0 -92 15t-73 43.5t-48.5 68.5t-17.5 91z" />
<glyph horiz-adv-x="1117" d="M752 215h-387l-81 -215h-270l420 1024h249l421 -1024h-270zM436 407h245l-122 327zM514 1282q0 -21 13 -33.5t32 -12.5q21 0 34.5 12.5t13.5 35.5q0 20 -13 32.5t-33 12.5t-33.5 -12.5t-13.5 -34.5zM379 1276q0 88 52 135t136 47q37 0 69 -12t55.5 -33.5t36.5 -52.5 t13 -70q0 -89 -52 -136t-136 -47q-38 0 -69.5 11.5t-55 33.5t-36.5 53.5t-13 70.5zM332 1565l364 203l91 -181l-401 -131z" />
<glyph horiz-adv-x="1117" d="M752 215h-387l-81 -215h-270l420 1024h249l421 -1024h-270zM436 407h245l-122 327zM200 1302q10 31 31 64.5t51.5 62t70.5 47t90 18.5q35 0 68 -11.5t63 -25t56.5 -25t49.5 -11.5q18 0 32.5 6.5t27.5 17.5t25.5 25.5t26.5 30.5l128 -99q-14 -36 -36.5 -70.5t-54 -61 t-72 -42.5t-90.5 -16q-31 0 -61 11.5t-58.5 25t-56 25t-53.5 11.5q-17 0 -31.5 -6.5t-27.5 -17.5t-25.5 -25.5t-25.5 -30.5z" />
<glyph horiz-adv-x="997" d="M121 0v1024h365q201 0 307.5 -71t106.5 -210q0 -66 -34 -116.5t-91 -85.5q36 -11 66.5 -33t52.5 -52t34.5 -66.5t12.5 -77.5q0 -148 -105.5 -230t-313.5 -82h-401zM379 439v-245h128q81 0 123 25.5t42 87.5q0 61 -39.5 96.5t-114.5 35.5h-139zM379 607h193q24 17 41.5 46 t17.5 65q0 55 -41 83.5t-107 28.5h-104v-223z" />
<glyph horiz-adv-x="693" d="M354 1190q0 -31 14.5 -64.5t36 -69t46.5 -72.5t46.5 -74.5t36 -76t14.5 -76.5q0 -49 -15 -89.5t-41 -72t-62.5 -53t-79.5 -31.5q43 -11 79 -31.5t62.5 -50t41.5 -66.5t15 -80q0 -39 -14.5 -80t-36 -81t-46.5 -79.5t-46.5 -75.5t-36 -68t-14.5 -58q0 -52 32 -82.5 t94 -30.5q37 0 68.5 5.5t52.5 12.5l30 -173q-24 -12 -72.5 -23t-106.5 -11q-72 0 -132.5 17.5t-104 52t-68 85.5t-24.5 119q0 44 14 86.5t34.5 82t45 77.5t45 72.5t34.5 67t14 61.5q0 82 -56.5 122.5t-158.5 42.5v173q17 0 33.5 2t30.5 5q37 4 65 17t47 32t29 42.5t10 49.5 q0 33 -14 68t-34.5 71.5t-45 73.5t-45 75t-34.5 76t-14 76q0 73 25.5 129t70 94t106 57t133.5 19q27 0 52.5 -3t48.5 -8.5t41.5 -11.5t30.5 -12l-30 -173q-21 7 -53 13t-74 6q-29 0 -51 -9.5t-37.5 -24.5t-23.5 -34t-8 -38z" />
<glyph horiz-adv-x="711" d="M370 -166q0 31 -14.5 64.5t-36 69t-47 72.5t-47 74.5t-36 76t-14.5 76.5q0 49 15 89.5t41.5 71.5t63 52.5t79.5 32.5q-43 10 -79.5 31t-63 50t-41.5 66t-15 80q0 39 14.5 80t36 81.5t47 79.5t47 75t36 68t14.5 59q0 51 -32 82t-95 31q-36 0 -67.5 -6t-53.5 -12l-30 173 q25 11 73 22.5t107 11.5q72 0 132.5 -17.5t104 -52t67.5 -86t24 -118.5q0 -44 -14 -86.5t-34.5 -82t-44.5 -77.5t-44.5 -72.5t-34.5 -67t-14 -61.5q0 -83 56.5 -123.5t158.5 -42.5v-172q-38 -2 -64 -7q-74 -9 -112.5 -49t-38.5 -93q0 -33 14 -68t34.5 -71t44.5 -73t44.5 -75 t34.5 -76t14 -76q0 -74 -25.5 -129.5t-70 -93.5t-105.5 -57t-133 -19q-54 0 -101.5 11.5t-72.5 22.5l30 173q22 -6 54 -12t73 -6q29 0 51.5 9t38 24t23.5 34t8 39z" />
<glyph horiz-adv-x="640" d="M619 -422l-489 -7v1883h489v-188l-250 -4v-1498h250v-186z" />
<glyph horiz-adv-x="640" d="M34 1446l489 7v-1883h-489v188l250 4v1498h-250v186z" />
<glyph horiz-adv-x="973" d="M59 505q0 119 39.5 218t113 170.5t178.5 111t236 39.5q46 0 89.5 -6.5t81 -16.5t69 -22.5t55.5 -24.5l-58 -190q-13 5 -36 12.5t-52 15t-63 13t-69 5.5q-67 0 -123.5 -19.5t-98 -58.5t-64.5 -97t-23 -136q0 -81 23 -141.5t65 -101.5t102 -61.5t134 -20.5q34 0 66 4.5 t60.5 11.5t52.5 15t41 15l60 -187q-51 -28 -133.5 -50.5t-185.5 -22.5q-131 0 -235 38.5t-176 108t-110.5 166t-38.5 212.5z" />
<glyph horiz-adv-x="2046" d="M333 518q0 -154 68 -237t203 -83q35 0 69 5t63.5 12t53.5 15t39 14l60 -190q-25 -14 -59 -27t-75.5 -23.5t-89.5 -17t-101 -6.5q-117 0 -211 38t-159.5 106.5t-101 164.5t-35.5 213q0 103 26.5 190.5t76.5 154.5t120.5 111.5t159.5 62.5q40 13 89 19q-12 26 -19 56.5 t-7 66.5q0 65 27.5 123t82.5 101t136.5 68t188.5 25q94 0 186 0.5t186 -1.5q1 0 1.5 0.5t1.5 0.5v-515q18 12 44 26t57.5 25.5t68 19.5t75.5 8q100 0 180 -38t135.5 -106.5t85 -165t29.5 -213.5q0 -123 -35.5 -223t-103.5 -170.5t-168 -109t-229 -38.5q-55 0 -111 8.5 t-109 23.5t-100.5 35.5t-83.5 44.5v1198h-115q-47 0 -81 -12.5t-56.5 -34t-33.5 -51.5t-11 -65q0 -36 11 -68.5t30.5 -62.5t45.5 -58t57 -54l-155 -155q-31 19 -57.5 44.5t-46.5 49.5q-8 1 -17.5 2t-20.5 1q-64 0 -113.5 -21t-83 -61t-51 -97t-17.5 -129zM1713 505 q0 72 -15.5 132t-45 102.5t-73 66t-99.5 23.5q-45 0 -90 -14t-77 -35v-568q27 -11 64 -17t83 -6q66 0 114 22t78.5 63.5t45.5 100t15 130.5z" />
<glyph horiz-adv-x="1975" d="M59 505q0 119 39.5 218t113 170.5t178.5 111t236 39.5q46 0 89.5 -6.5t81 -16.5t69 -22.5t55.5 -24.5l-58 -190q-13 5 -36 12.5t-52 15t-63 13t-69 5.5q-67 0 -123.5 -19.5t-98 -58.5t-64.5 -97t-23 -136q0 -81 23 -141.5t65 -101.5t102 -61.5t134 -20.5q34 0 66 4.5 t60.5 11.5t52.5 15t41 15l60 -187q-51 -28 -133.5 -50.5t-185.5 -22.5q-131 0 -235 38.5t-176 108t-110.5 166t-38.5 212.5zM1100 0v1024h365q201 0 307 -71t106 -210q0 -66 -34 -116.5t-91 -85.5q36 -11 66.5 -33t52.5 -52t34.5 -66.5t12.5 -77.5q0 -148 -105 -230 t-313 -82h-401zM1357 439v-245h129q80 0 122 25.5t42 87.5q0 61 -39.5 96.5t-114.5 35.5h-139zM1357 607h193q25 17 42 46t17 65q0 55 -40.5 83.5t-107.5 28.5h-104v-223z" />
<glyph horiz-adv-x="2068" d="M333 518q0 -154 68 -237t203 -83q35 0 69 5t63.5 12t53.5 15t39 14l60 -190q-25 -14 -59 -27t-75.5 -23.5t-89.5 -17t-101 -6.5q-117 0 -211 38t-159.5 106.5t-101 164.5t-35.5 213q0 103 26.5 190.5t76.5 154.5t120.5 111.5t159.5 62.5q40 13 89 19q-12 26 -19 56.5 t-7 66.5q0 65 27.5 123t82.5 101t136.5 68t188.5 25h372v-546q27 22 59.5 42t69.5 35t77.5 24t84.5 9q171 0 257.5 -90.5t86.5 -279.5v-674h-266v633q0 98 -38 144t-121 46q-24 0 -52.5 -6.5t-57 -17.5t-54.5 -26t-45 -32v-741h-266v1290h-112q-47 0 -81 -12.5t-56.5 -34 t-33.5 -51.5t-11 -65q0 -36 11 -68.5t30.5 -62.5t45.5 -58t57 -54l-155 -155q-31 19 -57.5 44.5t-46.5 49.5q-8 1 -17.5 2t-20.5 1q-64 0 -113.5 -21t-83 -61t-51 -97t-17.5 -129z" />
<glyph horiz-adv-x="2171" d="M59 505q0 119 39.5 218t113 170.5t178.5 111t236 39.5q46 0 89.5 -6.5t81 -16.5t69 -22.5t55.5 -24.5l-58 -190q-13 5 -36 12.5t-52 15t-63 13t-69 5.5q-67 0 -123.5 -19.5t-98 -58.5t-64.5 -97t-23 -136q0 -81 23 -141.5t65 -101.5t102 -61.5t134 -20.5q34 0 66 4.5 t60.5 11.5t52.5 15t41 15l60 -187q-51 -28 -133.5 -50.5t-185.5 -22.5q-131 0 -235 38.5t-176 108t-110.5 166t-38.5 212.5zM1784 417h-399v-417h-265v1024h265v-410h399v410h266v-1024h-266v417z" />
<glyph horiz-adv-x="1996" d="M333 518q0 -154 68 -237t203 -83q35 0 69 5t63.5 12t53.5 15t39 14l60 -190q-25 -14 -59 -27t-75.5 -23.5t-89.5 -17t-101 -6.5q-117 0 -211 38t-159.5 106.5t-101 164.5t-35.5 213q0 103 26.5 190.5t76.5 154.5t120.5 111.5t159.5 62.5q40 13 89 19q-12 26 -19 56.5 t-7 66.5q0 65 27.5 123t82.5 101t136.5 68t188.5 25h372v-919l347 463h290l-318 -424l345 -600h-298l-245 438l-121 -159v-279h-265v1290h-112q-47 0 -81 -12.5t-56.5 -34t-33.5 -51.5t-11 -65q0 -36 11 -68.5t30.5 -62.5t45.5 -58t57 -54l-155 -155q-31 19 -57.5 44.5 t-46.5 49.5q-8 1 -17.5 2t-20.5 1q-64 0 -113.5 -21t-83 -61t-51 -97t-17.5 -129z" />
<glyph horiz-adv-x="2052" d="M59 505q0 119 39.5 218t113 170.5t178.5 111t236 39.5q46 0 89.5 -6.5t81 -16.5t69 -22.5t55.5 -24.5l-58 -190q-13 5 -36 12.5t-52 15t-63 13t-69 5.5q-67 0 -123.5 -19.5t-98 -58.5t-64.5 -97t-23 -136q0 -81 23 -141.5t65 -101.5t102 -61.5t134 -20.5q34 0 66 4.5 t60.5 11.5t52.5 15t41 15l60 -187q-51 -28 -133.5 -50.5t-185.5 -22.5q-131 0 -235 38.5t-176 108t-110.5 166t-38.5 212.5zM1100 1024h265v-453l346 453h302l-336 -434l360 -590h-301l-255 431l-116 -150v-281h-265v1024z" />
<glyph horiz-adv-x="1450" d="M333 518q0 -154 68 -237t203 -83q35 0 69 5t63.5 12t53.5 15t39 14l60 -190q-25 -14 -59 -27t-75.5 -23.5t-89.5 -17t-101 -6.5q-117 0 -211 38t-159.5 106.5t-101 164.5t-35.5 213q0 103 26.5 190.5t76.5 154.5t120.5 111.5t159.5 62.5q40 13 89 19q-12 26 -19 56.5 t-7 66.5q0 65 28 123t83 101t136 68t188 25q94 0 186 0.5t186 -1.5q1 0 1.5 0.5t1.5 0.5v-1480h-266v1290h-114q-80 0 -122.5 -37t-50.5 -92q-5 -26 0 -53t16 -54q11 -51 42.5 -91t76.5 -79l-155 -155q-31 19 -57.5 44.5t-46.5 49.5q-8 1 -17.5 2t-20.5 1q-64 0 -113.5 -21 t-83 -61t-51 -97t-17.5 -129z" />
<glyph horiz-adv-x="1818" d="M59 505q0 119 39.5 218t113 170.5t178.5 111t236 39.5q46 0 89.5 -6.5t81 -16.5t69 -22.5t55.5 -24.5l-58 -190q-13 5 -36 12.5t-52 15t-63 13t-69 5.5q-67 0 -123.5 -19.5t-98 -58.5t-64.5 -97t-23 -136q0 -81 23 -141.5t65 -101.5t102 -61.5t134 -20.5q34 0 66 4.5 t60.5 11.5t52.5 15t41 15l60 -187q-51 -28 -133.5 -50.5t-185.5 -22.5q-131 0 -235 38.5t-176 108t-110.5 166t-38.5 212.5zM1809 0h-709v1024h265v-823h444v-201z" />
<glyph horiz-adv-x="1653" d="M333 518q0 -154 68 -237t203 -83q35 0 69 5t63.5 12t53.5 15t39 14l60 -190q-25 -14 -59 -27t-75.5 -23.5t-89.5 -17t-101 -6.5q-117 0 -211 38t-159.5 106.5t-101 164.5t-35.5 213q0 107 28.5 197t81.5 158.5t128.5 112.5t170.5 59q15 4 30.5 6.5t32.5 4.5 q-12 26 -19 56.5t-7 66.5q0 65 28 123t82.5 101t136 68t188.5 25h372v-456h275v-199h-272v-473q0 -86 32 -121t104 -35q19 0 39.5 2t39 5.5t35 7.5t27.5 8l34 -196q-20 -8 -48 -16t-59.5 -14t-65 -9.5t-64.5 -3.5q-90 0 -154 20t-105.5 61.5t-61 106t-19.5 153.5v969h-114 q-46 0 -80.5 -12.5t-57 -34t-33.5 -51.5t-11 -65q0 -36 11 -69t30.5 -63t45.5 -57.5t57 -53.5l-155 -155q-31 19 -57.5 44.5t-46.5 49.5q-8 1 -17.5 2t-20.5 1q-64 0 -113.5 -21t-83 -61t-51 -97t-17.5 -129z" />
<glyph horiz-adv-x="1900" d="M59 505q0 119 39.5 218t113 170.5t178.5 111t236 39.5q46 0 89.5 -6.5t81 -16.5t69 -22.5t55.5 -24.5l-58 -190q-13 5 -36 12.5t-52 15t-63 13t-69 5.5q-67 0 -123.5 -19.5t-98 -58.5t-64.5 -97t-23 -136q0 -81 23 -141.5t65 -101.5t102 -61.5t134 -20.5q34 0 66 4.5 t60.5 11.5t52.5 15t41 15l60 -187q-51 -28 -133.5 -50.5t-185.5 -22.5q-131 0 -235 38.5t-176 108t-110.5 166t-38.5 212.5zM1012 1024h874v-201h-304v-823h-266v823h-304v201z" />
<glyph horiz-adv-x="974" d="M60 505q0 119 39.5 218t113 170.5t178.5 111t236 39.5q46 0 89.5 -6.5t81 -16.5t69 -22.5t55.5 -24.5l-58 -190q-13 5 -36 12.5t-52 15t-63 13t-69 5.5q-67 0 -123.5 -19.5t-98 -58.5t-64.5 -97t-23 -136q0 -81 23 -141.5t65 -101.5t102 -61.5t134 -20.5q34 0 66 4.5 t60.5 11.5t52.5 15t41 15l60 -187q-51 -28 -133.5 -50.5t-185.5 -22.5q-131 0 -235 38.5t-176 108t-110.5 166t-38.5 212.5zM319 1297l483 253l101 -224l-525 -160z" />
<glyph horiz-adv-x="973" d="M59 505q0 119 39.5 218t113 170.5t178.5 111t236 39.5q46 0 89.5 -6.5t81 -16.5t69 -22.5t55.5 -24.5l-58 -190q-13 5 -36 12.5t-52 15t-63 13t-69 5.5q-67 0 -123.5 -19.5t-98 -58.5t-64.5 -97t-23 -136q0 -81 23 -141.5t65 -101.5t102 -61.5t134 -20.5q34 0 66 4.5 t60.5 11.5t52.5 15t41 15l60 -187q-51 -28 -133.5 -50.5t-185.5 -22.5q-131 0 -235 38.5t-176 108t-110.5 166t-38.5 212.5zM380 1559q29 -18 60.5 -42t62 -50t58 -52t48.5 -49q21 23 48.5 49t58 52t62 50t60.5 42l116 -169q-47 -27 -95 -57.5t-92.5 -63t-85 -66.5 t-72.5 -68q-32 34 -72.5 68t-85 66.5t-92.5 63t-95 57.5z" />
<glyph horiz-adv-x="973" d="M59 505q0 119 39.5 218t113 170.5t178.5 111t236 39.5q46 0 89.5 -6.5t81 -16.5t69 -22.5t55.5 -24.5l-58 -190q-13 5 -36 12.5t-52 15t-63 13t-69 5.5q-67 0 -123.5 -19.5t-98 -58.5t-64.5 -97t-23 -136q0 -81 23 -141.5t65 -101.5t102 -61.5t134 -20.5q34 0 66 4.5 t60.5 11.5t52.5 15t41 15l60 -187q-51 -28 -133.5 -50.5t-185.5 -22.5q-131 0 -235 38.5t-176 108t-110.5 166t-38.5 212.5zM379 -379q13 -4 32 -7t45 -3q47 0 72 19.5t25 54.5q0 36 -25 53.5t-70 17.5h-58l10 138h111q49 0 91 -12t73 -36.5t49 -62t18 -88.5q0 -60 -21 -102 t-58 -69t-87.5 -39t-109.5 -12q-38 0 -69.5 6t-46.5 13z" />
<glyph horiz-adv-x="973" d="M59 505q0 119 39.5 218t113 170.5t178.5 111t236 39.5q46 0 89.5 -6.5t81 -16.5t69 -22.5t55.5 -24.5l-58 -190q-13 5 -36 12.5t-52 15t-63 13t-69 5.5q-67 0 -123.5 -19.5t-98 -58.5t-64.5 -97t-23 -136q0 -81 23 -141.5t65 -101.5t102 -61.5t134 -20.5q34 0 66 4.5 t60.5 11.5t52.5 15t41 15l60 -187q-51 -28 -133.5 -50.5t-185.5 -22.5q-131 0 -235 38.5t-176 108t-110.5 166t-38.5 212.5zM818 1142q-25 18 -53.5 41t-57.5 47t-56.5 47.5t-48.5 43.5q-22 -20 -49 -43.5t-55.5 -47.5t-57.5 -47t-54 -41l-129 161q34 22 75.5 50.5 t86.5 59.5t91.5 64t91.5 66q45 -33 91.5 -66t91.5 -64t86 -59.5t76 -50.5z" />
<glyph horiz-adv-x="973" d="M59 505q0 119 39.5 218t113 170.5t178.5 111t236 39.5q46 0 89.5 -6.5t81 -16.5t69 -22.5t55.5 -24.5l-58 -190q-13 5 -36 12.5t-52 15t-63 13t-69 5.5q-67 0 -123.5 -19.5t-98 -58.5t-64.5 -97t-23 -136q0 -81 23 -141.5t65 -101.5t102 -61.5t134 -20.5q34 0 66 4.5 t60.5 11.5t52.5 15t41 15l60 -187q-51 -28 -133.5 -50.5t-185.5 -22.5q-131 0 -235 38.5t-176 108t-110.5 166t-38.5 212.5zM455 1342q0 78 44.5 119t116.5 41q31 0 58 -10t46.5 -29t30.5 -45.5t11 -60.5q0 -79 -44.5 -120t-116.5 -41q-32 0 -58.5 10t-46 29t-30.5 46 t-11 61z" />
</font>
</defs>
</svg>
