<?xml version="1.0" standalone="no"?>
<!DOCTYPE svg PUBLIC "-//W3C//DTD SVG 1.1//EN" "http://www.w3.org/Graphics/SVG/1.1/DTD/svg11.dtd" >
<svg xmlns="http://www.w3.org/2000/svg">
<metadata></metadata>
<defs>
<font id="libertadmedium" horiz-adv-x="1664" >
<font-face units-per-em="2048" ascent="1638" descent="-410" />
<missing-glyph horiz-adv-x="451" />
<glyph unicode="&#x31;&#x2f;&#x34;" horiz-adv-x="1334" d="M1237 1266l-969 -1286l-124 88l969 1286zM252 888v311q-15 -2 -34.5 -5t-39 -5.5t-38 -4.5t-31.5 -3l-15 126q66 8 139 20t136 23h46v-462l129 -4v-133h-443v133zM1107 579v-350h90v-121h-90v-108h-151v108h-272v112l275 359h148zM956 229v156l-119 -156h119z" />
<glyph unicode="&#x31;&#x2f;&#x32;" horiz-adv-x="1376" d="M1237 1266l-969 -1286l-124 88l969 1286zM832 126q66 40 115 73.5t82 63.5t49 59t16 59q0 39 -23.5 58.5t-61.5 19.5q-23 0 -45 -4.5t-40.5 -11t-31.5 -12.5t-19 -9l-43 121q7 5 25.5 14.5t45 18.5t59 16t68.5 7q60 0 103.5 -16t72 -44t42 -64.5t13.5 -77.5 q0 -42 -15 -79.5t-42.5 -69.5t-66 -60t-86.5 -52h236v-136h-453v126zM252 888v311q-15 -2 -34.5 -5t-39 -5.5t-38 -4.5t-31.5 -3l-15 126q66 8 139 20t136 23h46v-462l129 -4v-133h-443v133z" />
<glyph unicode="&#x33;&#x2f;&#x34;" horiz-adv-x="1296" d="M1199 1266l-970 -1286l-123 88l969 1286zM1067 579v-350h90v-121h-90v-108h-151v108h-272v112l275 359h148zM357 1157q0 29 -23 45t-65 16q-36 0 -70.5 -8t-54.5 -18l-36 116q8 5 24 12t39 14t51.5 11.5t61.5 4.5q58 0 101.5 -13.5t72.5 -36.5t44 -55t15 -69 q0 -27 -7.5 -47t-18.5 -34t-23 -23.5t-22 -15.5q12 -5 27.5 -15t29 -26.5t23 -39.5t9.5 -54q0 -94 -67 -142t-187 -48q-30 0 -58 4t-51.5 9.5t-41.5 12t-28 12.5l36 118q17 -6 54 -15.5t88 -9.5q97 0 97 65q0 33 -22.5 49.5t-70.5 16.5h-86v105h131q10 8 19 21.5t9 37.5z M916 229v156l-119 -156h119z" />
<glyph unicode="ff" horiz-adv-x="1250" d="M977 1024h256v-165h-249v-859h-212v859h-380v-1255h-211v1255h-160v147l165 11v115q0 77 25 141t71 110t112 71.5t149 25.5q29 0 56 -3.5t50.5 -8t42 -9.5t30.5 -9l-37 -159q-18 5 -55 11t-76 6q-83 0 -126 -48.5t-43 -145.5v-90h393v108q0 78 25 142t71.5 109.5t113 71 t149.5 25.5q64 0 113.5 -11.5t78.5 -22.5l-37 -159q-23 7 -60.5 14t-79.5 7q-175 0 -175 -194v-90z" />
<glyph unicode="f&#x131;" horiz-adv-x="1123" d="M385 1024h581v-1024h-211v859h-363v-1255h-211v1255h-160v147l165 11v105q0 81 30.5 147t88 113t139.5 72.5t184 25.5q52 0 99.5 -5.5t86.5 -13t66.5 -15t41.5 -12.5l-40 -159q-15 4 -40 9.5t-57 11t-70.5 9t-81.5 3.5q-121 0 -184.5 -48.5t-63.5 -154.5v-81z" />
<glyph unicode="fl" horiz-adv-x="1166" d="M385 1024h227v-165h-220v-1255h-211v1255h-160v147l165 11v87q0 85 31 154.5t90 118.5t143 76t191 27q61 0 119.5 -6.5t108 -15t86 -17.5t54.5 -15v-1426h-211v1290q-29 7 -72 12.5t-95 5.5q-58 0 -103.5 -12t-77 -38.5t-48.5 -68.5t-17 -102v-63z" />
<glyph unicode="ff&#x131;" horiz-adv-x="1715" d="M385 1024h393v98q0 81 30.5 147t87.5 113t139 72.5t184 25.5q53 0 100.5 -5.5t86 -13t66.5 -15t41 -12.5l-39 -159q-15 4 -40 9.5t-57 11t-70.5 9t-81.5 3.5q-121 0 -184.5 -48.5t-63.5 -154.5v-81h581v-1024h-211v859h-363v-1255h-212v1255h-380v-1255h-211v1255h-160 v147l165 11v115q0 77 25 141t71 110t112 71.5t149 25.5q29 0 56 -3.5t50.5 -8t42 -9.5t30.5 -9l-37 -159q-18 5 -55 11t-76 6q-169 0 -169 -194v-90z" />
<glyph unicode="ffl" horiz-adv-x="1758" d="M977 1024h227v-165h-220v-859h-212v859h-380v-1255h-211v1255h-160v147l165 11v115q0 77 25 141t71 110t112 71.5t149 25.5q29 0 56 -3.5t50.5 -8t42 -9.5t30.5 -9l-37 -159q-18 5 -55 11t-76 6q-83 0 -126 -48.5t-43 -145.5v-90h393v80q0 85 31 154.5t90 118.5t143 76 t191 27q61 0 119.5 -6.5t108 -15t86 -17.5t54.5 -15v-1426h-211v1290q-29 7 -72 12.5t-95 5.5q-58 0 -103.5 -12t-77 -38.5t-48.5 -68.5t-17 -102v-63z" />
<glyph unicode="&#x2d;&#x3e;" horiz-adv-x="1685" d="M1006 1043l532 -531l-532 -531l-120 121l411 410l-411 410zM147 598h855v-171h-855v171z" />
<glyph unicode="fb" horiz-adv-x="1786" d="M385 1024h227v-165h-220v-859h-211v859h-160v147l165 11v87q0 85 31 154.5t90 118.5t143 76t191 27q61 0 119.5 -6.5t108 -15t86 -17.5t54.5 -15v-453q48 26 102 43.5t113 22.5q32 2 63.5 0.5t62.5 -7.5q84 -15 150.5 -57.5t113 -109t71 -154t24.5 -191.5 q0 -125 -35.5 -225t-103 -170t-165 -107.5t-222.5 -37.5q-49 0 -102.5 8.5t-105 23.5t-97.5 35t-80 43v1200q-29 7 -72 12.5t-95 5.5q-58 0 -103.5 -12t-77 -38.5t-48.5 -68.5t-17 -102v-63zM1487 505q0 81 -19.5 147.5t-56 114t-89 73.5t-117.5 26q-51 0 -102 -13.5 t-94 -38.5v-626q38 -17 84.5 -25.5t96.5 -8.5q149 0 223 92t74 259z" />
<glyph unicode="ffb" horiz-adv-x="2377" d="M977 1024h227v-165h-220v-859h-212v859h-380v-1255h-211v1255h-160v147l165 11v115q0 77 25 141t71 110t112 71.5t149 25.5q29 0 56 -3.5t50.5 -8t42 -9.5t30.5 -9l-37 -159q-18 5 -55 11t-76 6q-169 0 -169 -194v-90h393v80q0 85 31 154.5t90 118.5t143 76t191 27 q61 0 119.5 -6.5t108 -15t86 -17.5t54.5 -15v-453q50 29 114 50t133 21q103 0 187 -38t142.5 -107t90.5 -165.5t32 -213.5q0 -125 -35 -225t-102.5 -170t-165 -107.5t-222.5 -37.5q-49 0 -102.5 8.5t-105 23.5t-97.5 35t-80 43v1200q-29 7 -72 12.5t-95 5.5 q-58 0 -103.5 -12t-77 -38.5t-48.5 -68.5t-17 -102v-63zM2079 505q0 81 -19.5 147.5t-56 114t-89 73.5t-117.5 26q-51 0 -102.5 -13.5t-93.5 -38.5v-626q38 -17 84 -25.5t97 -8.5q149 0 223 92t74 259z" />
<glyph unicode="ffh" horiz-adv-x="2387" d="M977 1024h227v-165h-220v-858h-212v858h-380v-1255h-211v1255h-160v147l165 11v115q0 77 25 141t71 110t112 71.5t149 25.5q29 0 56 -3.5t50.5 -8t42 -9.5t30.5 -9l-37 -159q-18 5 -55 11t-76 6q-169 0 -169 -194v-90h393v80q0 85 31 154.5t90 118.5t143 76t191 27 q54 0 106 -5t97 -12.5t81.5 -16t60.5 -14.5l23 -5v-505q67 54 147 88t165 34q165 0 248.5 -92t83.5 -278v-674h-212v642q0 221 -184 221q-29 0 -62 -8t-66.5 -21.5t-64.5 -32.5t-55 -41v-760h-211v1290q-29 7 -72 12.5t-95 5.5q-58 0 -103.5 -12t-77 -38.5t-48.5 -68.5 t-17 -102v-63z" />
<glyph unicode="ff&#x127;" horiz-adv-x="2387" d="M977 1024h227v-165h-220v-859h-212v859h-380v-1255h-211v1255h-160v147l165 11v115q0 77 25 141t71 110t112 71.5t149 25.5q29 0 56 -3.5t50.5 -8t42 -9.5t30.5 -9l-37 -159q-18 5 -55 11t-76 6q-169 0 -169 -194v-90h393v80q0 85 31 154.5t90 118.5t143 76t191 27 q54 0 106 -5t97 -12.5t81.5 -16t60.5 -14.5l23 -5v-111h349v-116h-349v-278q67 54 147 88t165 34q165 0 248.5 -92t83.5 -278v-674h-212v642q0 221 -184 221q-29 0 -62 -8t-66.5 -21.5t-64.5 -32.5t-55 -41v-760h-211v1290q-29 7 -72 12.5t-95 5.5q-58 0 -103.5 -12 t-77 -38.5t-48.5 -68.5t-17 -102v-63z" />
<glyph unicode="ff&#x12d;" horiz-adv-x="1775" d="M977 1024h256v-165h-249v-859h-212v859h-380v-1255h-211v1255h-160v147l165 11v115q0 77 25 141t71 110t112 71.5t149 25.5q29 0 56 -3.5t50.5 -8t42 -9.5t30.5 -9l-37 -159q-18 5 -55 11t-76 6q-83 0 -126 -48.5t-43 -145.5v-90h393v108q0 78 26 142t73.5 109.5t115 71 t150.5 25.5q43 0 82 -6t69 -14h91q1 -30 8 -56.5t22 -46t39 -31t59 -11.5q34 0 58 11.5t39 31t22 46t8 56.5h149q7 -72 -12.5 -127t-57.5 -92t-91.5 -56t-114.5 -19q-81 0 -145 33t-99 96q-23 5 -54 9t-63 4q-175 0 -175 -194v-90zM1618 1024v-1024h-211v1024h211z" />
<glyph unicode="ff&#xec;" horiz-adv-x="1739" d="M973 1024h246v-165h-242v-859h-212v859h-373v-1255h-211v1255h-146v149l148 10v70q0 39 3 75q4 71 30.5 129.5t72 100t108 64.5t139.5 23q28 0 54.5 -3.5t50 -8t41.5 -9.5t30 -9l-37 -159q-18 5 -54 11t-74 6q-78 0 -118.5 -48.5t-40.5 -145.5v-90h379v108q0 78 24.5 142 t70 109.5t110 71t144.5 25.5q45 0 81.5 -8t64.5 -19l49 96l431 -255l-55 -109l-398 159l-25 -64q-23 9 -55.5 18.5t-80.5 9.5q-75 0 -115 -48t-40 -146v-90zM1582 1024v-1024h-212v1024h212z" />
<glyph unicode="ff&#x133;" horiz-adv-x="2246" d="M385 1024h393v98q0 81 30.5 147t87.5 113t139 72.5t184 25.5q53 0 100.5 -5.5t86 -13t66.5 -15t41 -12.5l-39 -159q-15 4 -40 9.5t-57 11t-70.5 9t-81.5 3.5q-121 0 -184.5 -48.5t-63.5 -154.5v-81h581v-1024h-211v859h-363v-1255h-212v1255h-380v-1255h-211v1255h-160 v147l165 11v115q0 77 25 141t71 110t112 71.5t149 25.5q29 0 56 -3.5t50.5 -8t42 -9.5t30.5 -9l-37 -159q-18 5 -55 11t-76 6q-169 0 -169 -194v-90zM1852 1344q0 63 38.5 99.5t99.5 36.5q26 0 48.5 -9.5t39.5 -26t27 -39.5t10 -50q0 -32 -10.5 -57.5t-28.5 -43.5t-43 -27.5 t-55 -9.5q-27 0 -50 9.5t-40 26.5t-26.5 40t-9.5 51zM1878 1024h211v-1059q0 -199 -88 -290t-260 -91q-38 0 -73.5 5.5t-56.5 13.5l23 164q16 -5 38 -8t46 -3q84 0 122 44.5t38 147.5v1076z" />
<glyph unicode="ff&#x12b;" horiz-adv-x="1777" d="M1267 1289h9q-25 7 -59.5 13t-71.5 6q-175 0 -175 -194v-90h256v-165h-249v-859h-212v859h-373v-1255h-211v1255h-146v149l148 10v114q0 77 24.5 141t70 110t111 71.5t147.5 25.5q28 0 54.5 -3.5t50 -8t41.5 -9.5t30 -9l-37 -159q-18 5 -54 11t-74 6q-78 0 -118.5 -48.5 t-40.5 -145.5v-90h383v108q0 78 25 142t71.5 109.5t113 71t149.5 25.5q36 0 68 -5.5t59 -14.5t49 -20t39 -21l-50 -130h450v-394h-113v-522h-282v522h-83v394z" />
<glyph unicode="ff&#x12f;" horiz-adv-x="1715" d="M385 1024h393v98q0 81 30.5 147t87.5 113t139 72.5t184 25.5q53 0 100.5 -5.5t86 -13t66.5 -15t41 -12.5l-39 -159q-15 4 -40 9.5t-57 11t-70.5 9t-81.5 3.5q-121 0 -184.5 -48.5t-63.5 -154.5v-81h581v-1024q-22 -13 -45 -29t-42 -35t-33 -40t-18 -44q-11 -10 -20 -23.5 t-9 -27.5q0 -49 25.5 -73t66.5 -24q19 0 37 3.5t33 8t26 9.5t17 8l40 -121q-9 -7 -26.5 -16t-41.5 -17.5t-53.5 -14.5t-60.5 -6q-43 0 -82 11t-70 32t-51 52t-26 70q-2 32 6 61t22 54.5t33 48t39 42.5q-2 11 -0.5 22t5.5 20.5t8.5 16.5t8.5 12v859h-363v-859h-212v859h-380 v-1255h-211v1255h-160v147l165 11v115q0 77 25 141t71 110t112 71.5t149 25.5q29 0 56 -3.5t50.5 -8t42 -9.5t30.5 -9l-37 -159q-18 5 -55 11t-76 6q-83 0 -126 -48.5t-43 -145.5v-90z" />
<glyph unicode="ff&#x129;" horiz-adv-x="1768" d="M970 1024h256v-165h-249v-859h-212v859h-373v-1255h-211v1255h-146v149l148 10v70q0 19 0.5 36.5t1.5 34.5q4 72 30 131t71.5 101.5t108.5 65.5t141 23q28 0 54.5 -3.5t50 -8t41.5 -9.5t30 -9l-37 -159q-18 5 -54 11t-74 6q-78 0 -118.5 -48.5t-40.5 -145.5v-90h383v108 q0 78 24.5 142t70.5 109.5t110 71t144 25.5q48 0 85.5 -14t65.5 -34q26 27 60.5 43.5t80.5 16.5q30 0 59.5 -11t56.5 -23.5t51.5 -23.5t45.5 -11q19 0 35 7t29 18t24 23.5t21 24.5l105 -88q-16 -33 -38 -62t-50.5 -50.5t-63 -33.5t-75.5 -12q-28 0 -55 11t-52.5 24t-50.5 24 t-50 11q-19 0 -35 -7.5t-29.5 -18.5t-24.5 -24t-20 -25q-6 6 -15.5 14.5t-23.5 16t-32.5 13t-41.5 5.5q-22 4 -47 6.5t-51 -2.5q-114 -29 -114 -184v-90zM1582 1024v-1024h-212v1024h212z" />
<glyph unicode="ffj" horiz-adv-x="1715" d="M1347 859h-363v-859h-212v859h-380v-1255h-211v1255h-160v147l165 11v115q0 77 25 141t71 110t112 71.5t149 25.5q29 0 56 -3.5t50.5 -8t42 -9.5t30.5 -9l-37 -159q-18 5 -55 11t-76 6q-83 0 -126 -48.5t-43 -145.5v-90h393v98q0 81 30.5 147t87.5 113t139 72.5t184 25.5 q53 0 100.5 -5.5t86 -13t66.5 -15t41 -12.5l-39 -159q-15 4 -40 9.5t-57 11t-70.5 9t-81.5 3.5q-121 0 -184.5 -48.5t-63.5 -154.5v-81h581v-1059q0 -199 -88 -290t-260 -91q-38 0 -73.5 5.5t-56.5 13.5l23 164q16 -5 37.5 -8t46.5 -3q84 0 122 44.5t38 147.5v911z" />
<glyph unicode="ffk" horiz-adv-x="2302" d="M977 1024h227v-165h-220v-859h-212v859h-380v-1255h-211v1255h-160v147l165 11v115q0 77 25 141t71 110t112 71.5t149 25.5q29 0 56 -3.5t50.5 -8t42 -9.5t30.5 -9l-37 -159q-18 5 -55 11t-76 6q-169 0 -169 -194v-90h393v80q0 85 31 154.5t90 118.5t143 76t191 27 q61 0 119.5 -6.5t108 -15t86 -17.5t54.5 -15v-910l389 508h237l-326 -426l359 -598h-239l-276 466l-144 -183v-283h-211v1290q-29 7 -72 12.5t-95 5.5q-58 0 -103.5 -12t-77 -38.5t-48.5 -68.5t-17 -102v-63z" />
<glyph unicode="ff&#x137;" horiz-adv-x="2302" d="M1854 -96q9 -7 23.5 -22t27.5 -36.5t22.5 -49.5t9.5 -61q0 -56 -24 -97.5t-65.5 -70.5t-96 -45.5t-114.5 -21.5l-36 106q29 5 56 15.5t48 26t33.5 36.5t12.5 47q0 27 -8 49.5t-18.5 40t-21.5 29t-17 17.5zM977 1024h227v-165h-220v-859h-212v859h-380v-1255h-211v1255 h-160v147l165 11v115q0 77 25 141t71 110t112 71.5t149 25.5q29 0 56 -3.5t50.5 -8t42 -9.5t30.5 -9l-37 -159q-18 5 -55 11t-76 6q-169 0 -169 -194v-90h393v80q0 85 31 154.5t90 118.5t143 76t191 27q61 0 119.5 -6.5t108 -15t86 -17.5t54.5 -15v-910l389 508h237 l-326 -426l359 -598h-239l-276 466l-144 -183v-283h-211v1290q-29 7 -72 12.5t-95 5.5q-58 0 -103.5 -12t-77 -38.5t-48.5 -68.5t-17 -102v-63z" />
<glyph unicode="ff&#x13e;" horiz-adv-x="1902" d="M1872 1533q9 -7 23.5 -22t28 -38.5t23 -53.5t9.5 -67q0 -51 -17 -92.5t-43.5 -74t-59 -56.5t-64.5 -39l-76 83q15 10 30.5 24.5t28 34.5t21 45t8.5 56q0 28 -9.5 53.5t-22 46t-26 35t-21.5 21.5zM977 1024h227v-165h-220v-859h-212v859h-380v-1255h-211v1255h-160v147 l165 11v115q0 77 25 141t71 110t112 71.5t149 25.5q29 0 56 -3.5t50.5 -8t42 -9.5t30.5 -9l-37 -159q-18 5 -55 11t-76 6q-83 0 -126 -48.5t-43 -145.5v-90h393v80q0 85 31 154.5t90 118.5t143 76t191 27q61 0 119.5 -6.5t108 -15t86 -17.5t54.5 -15v-1426h-211v1290 q-29 7 -72 12.5t-95 5.5q-58 0 -103.5 -12t-77 -38.5t-48.5 -68.5t-17 -102v-63z" />
<glyph unicode="ff&#x13c;" horiz-adv-x="1758" d="M1564 -96q9 -7 23 -22t27.5 -36.5t23 -49.5t9.5 -61q0 -56 -24 -97.5t-65.5 -70.5t-96 -45.5t-114.5 -21.5l-37 106q29 5 56.5 15.5t48.5 26t33.5 36.5t12.5 47q0 27 -8 49.5t-19 40t-21.5 29t-16.5 17.5zM977 1024h227v-165h-220v-859h-212v859h-380v-1255h-211v1255 h-160v147l165 11v115q0 77 25 141t71 110t112 71.5t149 25.5q29 0 56 -3.5t50.5 -8t42 -9.5t30.5 -9l-37 -159q-18 5 -55 11t-76 6q-83 0 -126 -48.5t-43 -145.5v-90h393v80q0 85 31 154.5t90 118.5t143 76t191 27q61 0 119.5 -6.5t108 -15t86 -17.5t54.5 -15v-1426h-211 v1290q-29 7 -72 12.5t-95 5.5q-58 0 -103.5 -12t-77 -38.5t-48.5 -68.5t-17 -102v-63z" />
<glyph unicode="ff&#x140;" horiz-adv-x="1943" d="M1716 741q0 63 38.5 100t98.5 37q26 0 49 -9.5t40 -26t27 -39.5t10 -50q0 -32 -10.5 -57.5t-28.5 -43.5t-43 -27.5t-55 -9.5q-27 0 -50 9.5t-40 26t-26.5 39.5t-9.5 51zM977 1024h227v-165h-220v-859h-212v859h-380v-1255h-211v1255h-160v147l165 11v115q0 77 25 141 t71 110t112 71.5t149 25.5q29 0 56 -3.5t50.5 -8t42 -9.5t30.5 -9l-37 -159q-18 5 -55 11t-76 6q-83 0 -126 -48.5t-43 -145.5v-90h393v80q0 85 31 154.5t90 118.5t143 76t191 27q61 0 119.5 -6.5t108 -15t86 -17.5t54.5 -15v-1426h-211v1290q-29 7 -72 12.5t-95 5.5 q-58 0 -103.5 -12t-77 -38.5t-48.5 -68.5t-17 -102v-63z" />
<glyph unicode="ff&#x142;" horiz-adv-x="1802" d="M977 1024h227v-165h-220v-859h-212v859h-380v-1255h-211v1255h-160v147l165 11v115q0 77 25 141t71 110t112 71.5t149 25.5q29 0 56 -3.5t50.5 -8t42 -9.5t30.5 -9l-37 -159q-18 5 -55 11t-76 6q-83 0 -126 -48.5t-43 -145.5v-90h393v80q0 85 31 154.5t90 118.5t143 76 t191 27q61 0 119.5 -6.5t108 -15t86 -17.5t54.5 -15v-563l126 96l77 -101l-203 -155v-703h-211v543l-127 -96l-77 102l204 154v587q-29 7 -72 12.5t-95 5.5q-58 0 -103.5 -12t-77 -38.5t-48.5 -68.5t-17 -102v-63z" />
<glyph unicode="fh" horiz-adv-x="1795" d="M1009 0h-211v1290q-29 7 -72 12.5t-95 5.5q-58 0 -103.5 -12t-77 -38.5t-48.5 -68.5t-17 -102v-63h227v-165h-220v-859h-211v859h-160v147l165 11v87q0 85 31 154.5t90 118.5t143 76t191 27q54 0 106 -5t97 -12.5t81.5 -16t60.5 -14.5l23 -5v-505q67 54 147 88t165 34 q165 0 248.5 -92t83.5 -278v-674h-212v642q0 221 -184 221q-29 0 -62 -8t-66.5 -21.5t-64.5 -32.5t-55 -41v-760z" />
<glyph unicode="f&#x127;" horiz-adv-x="1795" d="M385 1024h227v-165h-220v-859h-211v859h-160v147l165 11v87q0 85 31 154.5t90 118.5t143 76t191 27q54 0 106 -5t97 -12.5t81.5 -16t60.5 -14.5l23 -5v-111h349v-116h-349v-278q67 54 147 88t165 34q165 0 248.5 -92t83.5 -278v-674h-212v642q0 221 -184 221 q-29 0 -62 -8t-66.5 -21.5t-64.5 -32.5t-55 -41v-760h-211v1290q-29 7 -72 12.5t-95 5.5q-58 0 -103.5 -12t-77 -38.5t-48.5 -68.5t-17 -102v-63z" />
<glyph unicode="f&#x12d;" horiz-adv-x="1183" d="M385 1024h256v-165h-249v-859h-211v859h-160v147l165 11v115q0 78 26 142t74 109.5t115.5 71t150.5 25.5q42 0 81 -6t69 -14h92q0 -30 7 -56.5t22 -46t39 -31t59 -11.5q34 0 58.5 11.5t39.5 31t22 46t7 56.5h149q7 -72 -12.5 -127t-57.5 -92t-91.5 -56t-114.5 -19 q-81 0 -145 33t-99 96q-23 5 -53.5 9t-63.5 4q-175 0 -175 -194v-90zM1026 1024v-1024h-211v1024h211z" />
<glyph unicode="f&#xec;" horiz-adv-x="1183" d="M385 1024h256v-165h-249v-859h-211v859h-160v147l165 11v115q0 78 25 142t72 109.5t113.5 71t149.5 25.5q45 0 82 -7.5t66 -18.5l49 93l428 -253l-55 -109l-402 161l-23 -64q-17 6 -50.5 16t-83.5 10q-84 0 -128 -48t-44 -146v-90zM1026 1024v-1024h-211v1024h211z" />
<glyph unicode="f&#x133;" horiz-adv-x="1654" d="M385 1024h581v-1024h-211v859h-363v-1255h-211v1255h-160v147l165 11v105q0 81 30.5 147t88 113t139.5 72.5t184 25.5q52 0 99.5 -5.5t86.5 -13t66.5 -15t41.5 -12.5l-40 -159q-15 4 -40 9.5t-57 11t-70.5 9t-81.5 3.5q-121 0 -184.5 -48.5t-63.5 -154.5v-81zM1286 1024 h211v-1059q0 -199 -88 -290t-260 -91q-38 0 -73.5 5.5t-56.5 13.5l23 164q16 -5 38 -8t46 -3q84 0 122 44.5t38 147.5v1076zM1260 1344q0 31 10.5 56t28.5 43t43.5 27.5t55.5 9.5q26 0 49 -9.5t40 -26t27 -39.5t10 -50q0 -32 -10.5 -57.5t-29 -43.5t-43.5 -27.5t-55 -9.5 q-27 0 -50 9.5t-40 26.5t-26.5 40t-9.5 51z" />
<glyph unicode="f&#x12b;" horiz-adv-x="1192" d="M682 1289h9q-25 7 -59.5 13t-71.5 6q-175 0 -175 -194v-90h256v-165h-249v-859h-211v859h-160v147l165 11v115q0 78 25 142t71.5 109.5t113.5 71t150 25.5q36 0 67.5 -5.5t58.5 -14.5t49 -20t39 -21l-50 -130h450v-394h-84v-522h-281v522h-113v394z" />
<glyph unicode="f&#x12f;" horiz-adv-x="1176" d="M385 1024h581v-1024q-22 -13 -45 -29t-42 -35t-32.5 -40t-17.5 -44q-12 -10 -20.5 -23.5t-8.5 -27.5q0 -49 25 -73t66 -24q19 0 37 3.5t33.5 8t26.5 9.5t17 8l39 -121q-8 -7 -26 -16t-42 -17.5t-53.5 -14.5t-60.5 -6q-43 0 -82 11t-69.5 32t-51 52t-26.5 70q-2 32 6 61 t22 54.5t33 48t39 42.5q-2 11 0 22t5.5 20t8.5 16.5t8 12.5v859h-363v-1255h-211v1255h-160v147l165 11v105q0 81 30.5 147t88 113t139.5 72.5t184 25.5q52 0 99.5 -5.5t86.5 -13t66.5 -15t41.5 -12.5l-40 -159q-15 4 -40 9.5t-57 11t-70.5 9t-81.5 3.5q-121 0 -184.5 -48.5 t-63.5 -154.5v-81z" />
<glyph unicode="f&#x129;" horiz-adv-x="1183" d="M710 1245q-7 7 -18.5 16.5t-27.5 18.5t-36.5 15.5t-46.5 7.5q-18 2 -36.5 2t-35.5 -3q-62 -13 -93 -58.5t-31 -129.5v-90h256v-165h-249v-859h-211v859h-160v147l165 11v115q0 78 24.5 142t70.5 109.5t110.5 71t144.5 25.5q48 0 85 -14t66 -34q17 18 39.5 31t49.5 18 q32 10 74 7q26 -2 52 -12.5t50.5 -22t46.5 -21t41 -9.5t35 7t29 18t24 23.5t21 24.5l105 -88q-16 -33 -37.5 -62t-50 -50.5t-63 -33.5t-76.5 -12q-28 0 -55 11t-52.5 24t-50.5 24t-50 11q-19 0 -35 -7.5t-29.5 -18.5t-24.5 -24t-20 -25zM1026 1024v-1024h-211v1024h211z" />
<glyph unicode="fj" horiz-adv-x="1123" d="M755 859h-363v-859h-211v859h-160v147l165 11v105q0 81 30.5 147t88 113t139.5 72.5t184 25.5q52 0 99.5 -5.5t86.5 -13t66.5 -15t41.5 -12.5l-40 -159q-15 4 -40 9.5t-57 11t-70.5 9t-81.5 3.5q-121 0 -184.5 -48.5t-63.5 -154.5v-81h581v-1059q0 -199 -88 -290 t-260 -91q-38 0 -73.5 5.5t-56.5 13.5l23 164q16 -5 38 -8t46 -3q84 0 122 44.5t38 147.5v911z" />
<glyph unicode="fk" horiz-adv-x="1710" d="M385 1024h227v-165h-220v-859h-211v859h-160v147l165 11v87q0 85 31 154.5t90 118.5t143 76t191 27q61 0 119.5 -6.5t108 -15t86 -17.5t54.5 -15v-910l389 508h237l-326 -426l359 -598h-239l-276 466l-144 -183v-283h-211v1290q-29 7 -72 12.5t-95 5.5q-58 0 -103.5 -12 t-77 -38.5t-48.5 -68.5t-17 -102v-63z" />
<glyph unicode="f&#x137;" horiz-adv-x="1710" d="M1262 -96q9 -7 23.5 -22t27.5 -36.5t22.5 -49.5t9.5 -61q0 -56 -24 -97.5t-65 -70.5t-95.5 -45.5t-115.5 -21.5l-36 106q29 5 56 15.5t48 26t34 36.5t13 47q0 27 -8 49.5t-19 40t-22 29t-17 17.5zM385 1024h227v-165h-220v-859h-211v859h-160v147l165 11v87 q0 85 31 154.5t90 118.5t143 76t191 27q61 0 119.5 -6.5t108 -15t86 -17.5t54.5 -15v-910l389 508h237l-326 -426l359 -598h-239l-276 466l-144 -183v-283h-211v1290q-29 7 -72 12.5t-95 5.5q-58 0 -103.5 -12t-77 -38.5t-48.5 -68.5t-17 -102v-63z" />
<glyph unicode="f&#x13e;" horiz-adv-x="1310" d="M1280 1533q9 -7 23.5 -22t28 -38.5t23 -53.5t9.5 -67q0 -51 -17 -92.5t-43.5 -74t-59 -56.5t-64.5 -39l-76 83q15 10 30.5 24.5t28 34.5t21 45t8.5 56q0 28 -9.5 53.5t-22 46t-26 35t-21.5 21.5zM385 1024h227v-165h-220v-1255h-211v1255h-160v147l165 11v87 q0 85 31 154.5t90 118.5t143 76t191 27q61 0 119.5 -6.5t108 -15t86 -17.5t54.5 -15v-1426h-211v1290q-29 7 -72 12.5t-95 5.5q-58 0 -103.5 -12t-77 -38.5t-48.5 -68.5t-17 -102v-63z" />
<glyph unicode="f&#x13c;" horiz-adv-x="1166" d="M385 1024h227v-165h-220v-1255h-211v1255h-160v147l165 11v87q0 85 31 154.5t90 118.5t143 76t191 27q61 0 119.5 -6.5t108 -15t86 -17.5t54.5 -15v-1426h-211v1290q-29 7 -72 12.5t-95 5.5q-58 0 -103.5 -12t-77 -38.5t-48.5 -68.5t-17 -102v-63zM972 -96q9 -7 23.5 -22 t27.5 -36.5t22.5 -49.5t9.5 -61q0 -56 -24 -97.5t-65.5 -70.5t-96 -45.5t-114.5 -21.5l-37 106q29 5 56.5 15.5t48.5 26t33.5 36.5t12.5 47q0 27 -8 49.5t-18.5 40t-21.5 29t-17 17.5z" />
<glyph unicode="f&#x140;" horiz-adv-x="1352" d="M1124 741q0 63 39 100t99 37q26 0 49 -9.5t40 -26t27 -39.5t10 -50q0 -32 -10.5 -57.5t-29 -43.5t-43.5 -27.5t-55 -9.5q-27 0 -50 9.5t-40 26t-26.5 39.5t-9.5 51zM385 1024h227v-165h-220v-1255h-211v1255h-160v147l165 11v87q0 85 31 154.5t90 118.5t143 76t191 27 q61 0 119.5 -6.5t108 -15t86 -17.5t54.5 -15v-1426h-211v1290q-29 7 -72 12.5t-95 5.5q-58 0 -103.5 -12t-77 -38.5t-48.5 -68.5t-17 -102v-63z" />
<glyph unicode="f&#x142;" horiz-adv-x="1210" d="M385 1024h227v-165h-220v-1255h-211v1255h-160v147l165 11v87q0 85 31 154.5t90 118.5t143 76t191 27q61 0 119.5 -6.5t108 -15t86 -17.5t54.5 -15v-563l126 96l78 -101l-204 -155v-703h-211v543l-127 -96l-77 102l204 154v587q-29 7 -72 12.5t-95 5.5q-58 0 -103.5 -12 t-77 -38.5t-48.5 -68.5t-17 -102v-63z" />
<glyph unicode="&#x3c;&#x2014;" horiz-adv-x="1685" d="M799 922l-411 -410l411 -410l-120 -121l-532 531l532 531zM683 597h855v-170h-855v170z" />
<glyph unicode="&#x17f;f" horiz-adv-x="1225" d="M392 -396h-211v1255h-160v147l162 11v115q0 77 24.5 141t70 110t111 71.5t147.5 25.5q30 0 58 -3.5t52.5 -8t44 -9.5t31.5 -9l-44 -159q-18 5 -55 11t-76 6q-155 0 -155 -194v-1510zM952 1024h256v-165h-250v-859h-211v859h-159v147l165 11v115q0 78 25 142t71.5 109.5 t113 71t149.5 25.5q65 0 114 -11.5t78 -22.5l-37 -159q-23 7 -60.5 14t-79.5 7q-175 0 -175 -194v-90z" />
<glyph unicode="&#x17f;h" horiz-adv-x="1723" d="M937 0h-211v1289q-23 6 -57 12.5t-76 6.5q-55 0 -93.5 -15t-62.5 -47.5t-34.5 -84t-10.5 -123.5v-1157h-211v978h-160v147l162 11v82q0 86 29 156t83.5 120t131.5 77.5t173 27.5q57 0 109.5 -7.5t96.5 -18.5t77.5 -22.5t53.5 -20.5v-489q67 54 147 88t165 34 q94 0 157.5 -28t102.5 -84.5t55.5 -141t16.5 -197.5v-593h-212v604q0 66 -9.5 114.5t-31 80.5t-57 48t-86.5 16q-29 0 -62 -8t-66.5 -21.5t-64.5 -32.5t-55 -41v-760z" />
<glyph unicode="&#x17f;i" horiz-adv-x="1061" d="M392 -396h-211v1255h-160v147l162 11v82q0 86 30 156t85.5 120t135.5 77.5t180 27.5q44 0 83.5 -5.5t71 -13t54 -15t34.5 -12.5l-40 -159q-12 4 -31.5 9.5t-45 11t-56.5 9t-65 3.5q-112 0 -169.5 -53.5t-57.5 -172.5v-1478zM904 1024v-1024h-211v1024h211z" />
<glyph unicode="&#x17f;j" horiz-adv-x="1061" d="M392 0h-211v859h-160v147l162 11v82q0 86 30 156t85.5 120t135.5 77.5t180 27.5q44 0 83.5 -5.5t71 -13t54 -15t34.5 -12.5l-40 -159q-12 4 -31.5 9.5t-45 11t-56.5 9t-65 3.5q-112 0 -169.5 -53.5t-57.5 -172.5v-1082zM693 1024h211v-1059q0 -199 -88 -290t-260 -91 q-38 0 -73.5 5.5t-56.5 13.5l23 164q16 -5 38 -8t46 -3q84 0 122 44.5t38 147.5v1076z" />
<glyph unicode="&#x17f;k" horiz-adv-x="1638" d="M392 -119h-211v978h-160v147l162 11v82q0 86 29 156t83.5 120t131.5 77.5t173 27.5q57 0 109.5 -7.5t96.5 -18.5t77.5 -22.5t53.5 -20.5v-895l389 508h237l-326 -426l359 -598h-239l-276 466l-144 -183v-283h-211v1289q-23 6 -57 12.5t-76 6.5q-98 0 -149.5 -53.5 t-51.5 -172.5v-1201z" />
<glyph unicode="&#x17f;l" horiz-adv-x="1094" d="M392 -396h-211v1255h-160v147l162 11v82q0 86 29 156t83.5 120t131.5 77.5t173 27.5q57 0 109.5 -7.5t96.5 -18.5t77.5 -22.5t53.5 -20.5v-1411h-211v1289q-23 6 -57 12.5t-76 6.5q-98 0 -149.5 -53.5t-51.5 -172.5v-1478z" />
<glyph unicode="&#x17f;&#x17f;" horiz-adv-x="1136" d="M392 -396h-211v1255h-160v147l162 11v115q0 77 24.5 141t70 110t111 71.5t147.5 25.5q30 0 58 -3.5t52.5 -8t44 -9.5t31.5 -9l-44 -159q-18 5 -55 11t-76 6q-155 0 -155 -194v-1510zM958 0h-211v859h-159v147l161 11v115q0 69 20 127t58 102.5t92.5 73t124.5 37.5 q49 7 100 6q51 -2 92.5 -12.5t67.5 -19.5l-37 -159q-23 7 -60.5 14t-79.5 7q-169 0 -169 -194v-1114z" />
<glyph unicode="&#xd;" horiz-adv-x="451" />
<glyph unicode=" "  horiz-adv-x="451" />
<glyph unicode="&#x09;" horiz-adv-x="451" />
<glyph unicode="&#xa0;" horiz-adv-x="451" />
<glyph unicode="!" horiz-adv-x="507" d="M372 1330l-40 -930h-157l-40 930h237zM122 106q0 63 38.5 100t99.5 37q26 0 48.5 -9.5t39.5 -26t27 -39.5t10 -50q0 -32 -10.5 -57.5t-28.5 -43.5t-43 -27.5t-55 -9.5q-27 0 -50 9.5t-40 26t-26.5 39.5t-9.5 51z" />
<glyph unicode="&#x22;" horiz-adv-x="758" d="M645 1475l-32 -528h-148l-32 528h212zM325 1475l-32 -528h-148l-32 528h212z" />
<glyph unicode="#" horiz-adv-x="1532" d="M1170 1330l-49 -353h226l-22 -159h-226l-44 -309h227l-22 -159h-227l-48 -350h-181l49 350h-293l-48 -350h-180l49 350h-236l21 159h236l43 309h-232l22 159h232l49 353h181l-50 -353h295l49 353h179zM582 509h294l43 309h-294z" />
<glyph unicode="$" horiz-adv-x="1119" d="M659 1517l-13 -253q45 -3 85 -10.5t73 -17t58.5 -20t40.5 -17.5l-40 -151q-20 7 -49 16t-63.5 17t-72.5 13t-75 5q-57 0 -98 -11t-67 -31t-39 -47t-13 -60q0 -35 14.5 -62t44 -50.5t73.5 -45.5t102 -46q94 -40 157.5 -78t102.5 -80.5t55.5 -93t16.5 -114.5 q0 -127 -81.5 -206.5t-233.5 -100.5l13 -260h-183l12 254q-50 3 -95 12t-83 21t-68 25.5t-49 26.5l49 154q22 -11 52.5 -23.5t68.5 -22.5t81.5 -16.5t91.5 -6.5q106 0 164 30.5t58 104.5q0 36 -16 64.5t-50 55t-87.5 53t-129.5 58.5q-142 61 -211.5 140.5t-69.5 197.5 q0 61 22 112.5t62 92t96 68.5t124 41l-13 262h183z" />
<glyph unicode="%" horiz-adv-x="1483" d="M1288 1266l-970 -1286l-123 88l968 1286zM377 731q-66 0 -120 23t-92.5 64t-60 96t-21.5 120q0 70 21.5 128t61.5 100t96.5 65t127.5 23q66 0 120.5 -23t93 -64t59.5 -96.5t21 -120.5q0 -70 -21.5 -128t-61 -99.5t-96.5 -64.5t-128 -23zM389 876q30 0 53.5 12.5t39 34 t23.5 50.5t8 62q0 36 -8 67t-24.5 53.5t-42 35.5t-60.5 13q-30 0 -53 -12.5t-38.5 -34t-23.5 -50.5t-8 -62q0 -36 8 -67t24.5 -53.5t41.5 -35.5t60 -13zM1092 -20q-66 0 -120 23t-92.5 64t-60 96t-21.5 120q0 70 21.5 128t61.5 100t96.5 65t127.5 23q66 0 120.5 -23t93 -64 t59.5 -96.5t21 -120.5q0 -70 -21.5 -128t-61 -99.5t-96.5 -64.5t-128 -23zM1104 125q30 0 53.5 12.5t39 34t23.5 50.5t8 62q0 36 -8 67t-24.5 53.5t-42 35.5t-60.5 13q-30 0 -53 -12.5t-38.5 -34t-23.5 -50.5t-8 -62q0 -36 8 -67t24.5 -53.5t41.5 -35.5t60 -13z" />
<glyph unicode="&#x26;" horiz-adv-x="1375" d="M99 348q0 55 18.5 108t53 100.5t83.5 87.5t109 70q-50 55 -82.5 97.5t-51.5 78.5t-26.5 69.5t-7.5 71.5q0 69 27.5 127.5t76.5 101t116.5 66.5t148.5 24q71 0 133.5 -21t109.5 -58t76.5 -87.5t34.5 -108.5q2 -17 1.5 -35.5t-3.5 -37.5q-5 -37 -21 -71.5t-34 -59.5h453 v-163h-206q11 -21 20.5 -48t17 -56t12 -59.5t4.5 -58.5q0 -80 -27 -154t-67 -131l175 -193l-133 -122l-172 190q-68 -45 -158.5 -70.5t-191.5 -25.5q-111 0 -201 27.5t-154 76.5t-99 116.5t-35 147.5zM650 848q20 24 34.5 45t23.5 42t13.5 43.5t4.5 49.5q0 35 -13.5 64 t-36.5 49.5t-55.5 32t-69.5 11.5q-33 0 -61.5 -11t-50 -30.5t-34 -45t-12.5 -55.5t6 -54.5t21 -51t39.5 -57t62.5 -72.5l421 -468q9 16 16 35.5t12 40.5t7.5 41.5t2.5 38.5q-1 57 -13 108t-38 104h-164zM605 144q55 0 112 16.5t102 44.5l-354 398q-75 -46 -117.5 -107.5 t-42.5 -128.5q0 -51 20.5 -92t59.5 -70t94.5 -45t125.5 -16z" />
<glyph unicode="'" horiz-adv-x="382" d="M297 1475l-32 -528h-148l-32 528h212z" />
<glyph unicode="(" horiz-adv-x="679" d="M301 672q0 -119 18.5 -222t48 -189.5t68 -158t78 -128t77 -98.5t66.5 -71l-109 -107q-30 21 -76 62t-98 101.5t-103.5 140.5t-93.5 179.5t-68 218t-26 255.5q0 140 26.5 261t68 222.5t94 183.5t104 143.5t98 103t76.5 62.5l107 -107q-29 -29 -66.5 -71t-77 -98 t-78 -126.5t-68 -155.5t-48 -185t-18.5 -216z" />
<glyph unicode=")" horiz-adv-x="679" d="M370 657q0 120 -18.5 222.5t-48 189t-68 158t-78 128t-77 98.5t-66.5 71l109 107q30 -21 76.5 -62t98 -101.5t103.5 -140.5t93.5 -179.5t67.5 -218t26 -255.5q0 -140 -26 -261t-68 -222.5t-94 -183.5t-104 -143.5t-98.5 -103t-76.5 -62.5l-107 107q29 29 66.5 71t77 98 t78 126.5t68 155.5t48 185t18.5 216z" />
<glyph unicode="*" horiz-adv-x="832" d="M328 1479h176l-23 -257l240 93l53 -168l-251 -52l178 -178l-131 -113l-155 211l-153 -211l-133 112l179 178l-250 53l51 168l239 -93z" />
<glyph unicode="+" horiz-adv-x="1269" d="M725 1128v-378h372v-171h-372v-376h-181v376h-372v171h372v378h181z" />
<glyph unicode="," horiz-adv-x="444" d="M30 -216q23 16 47 36t43 45.5t31 56.5t12 68t-10 69.5t-25 58.5t-32 45.5t-30 32.5l188 48q13 -11 30 -31.5t32.5 -50t26 -68t10.5 -83.5q0 -61 -21 -111t-54.5 -90t-76.5 -71t-87 -53z" />
<glyph unicode="-" horiz-adv-x="892" d="M157 618h578v-171h-578v171z" />
<glyph unicode="." horiz-adv-x="465" d="M101 106q0 63 38.5 100t99.5 37q26 0 48.5 -9.5t39.5 -26t27 -39.5t10 -50q0 -32 -10.5 -57.5t-28.5 -43.5t-43 -27.5t-55 -9.5q-27 0 -50 9.5t-40 26t-26.5 39.5t-9.5 51z" />
<glyph unicode="/" horiz-adv-x="879" d="M938 1585l-774 -1835h-204l774 1835h204z" />
<glyph unicode="0" horiz-adv-x="1296" d="M653 155q69 0 126.5 33.5t98.5 97t63.5 156.5t22.5 213q0 119 -22 215.5t-63.5 164t-101 104t-135.5 36.5q-70 0 -127 -33.5t-97.5 -98t-63 -158t-22.5 -213.5q0 -119 22 -214.5t63 -163t101 -103.5t135 -36zM641 -20q-134 0 -234 50.5t-166.5 140.5t-100 214t-33.5 272 t35 275t104 220t171 145.5t236 52.5t234.5 -50.5t167.5 -141t100.5 -215.5t33.5 -273q0 -147 -35.5 -273.5t-104.5 -219t-171.5 -145t-236.5 -52.5z" />
<glyph unicode="1" horiz-adv-x="838" d="M325 175v981q-62 -7 -133.5 -12t-132.5 -7l-17 165q52 4 111 9t119 11.5t118.5 13.5t111.5 14h36v-1175l238 -3v-172h-728v172z" />
<glyph unicode="2" horiz-adv-x="1047" d="M97 151q114 126 201 224.5t151 175t106.5 135.5t68.5 105.5t37 85t11 74.5q0 106 -57.5 162t-163.5 56q-46 0 -90 -9t-81 -21t-63.5 -24t-38.5 -18l-64 148q15 10 49.5 27.5t83 34.5t107.5 30t123 13q100 0 178 -28t132 -78.5t82 -121.5t28 -156q0 -82 -35.5 -164 t-104 -176t-168 -204t-226.5 -247h596v-175h-862v151z" />
<glyph unicode="3" horiz-adv-x="1049" d="M662 961q0 97 -56.5 152.5t-178.5 55.5q-41 0 -81 -7.5t-74 -18t-60 -22t-38 -18.5l-63 150q11 7 41.5 23t75.5 32.5t102.5 29t122.5 12.5q106 0 186.5 -28t134 -77.5t80.5 -116t27 -143.5q0 -46 -15 -88.5t-40 -79.5t-59 -67.5t-71 -51.5q42 -17 83 -45.5t73.5 -68.5 t52.5 -92t20 -116q0 -93 -34.5 -166.5t-98.5 -124.5t-155 -78t-203 -27q-60 0 -112 8.5t-94.5 21.5t-74.5 27.5t-53 25.5l53 159q16 -7 42 -17.5t61 -20t79.5 -16.5t97.5 -7q55 0 105 12.5t87.5 37.5t59.5 63t22 89q0 112 -70.5 169.5t-205.5 57.5h-119v169h213 q22 9 46 25.5t44.5 41.5t33.5 58t13 77z" />
<glyph unicode="4" horiz-adv-x="1136" d="M659 1331h211v-862h194v-171h-194v-298h-213v298h-595v156zM657 469v558l-375 -558h375z" />
<glyph unicode="5" horiz-adv-x="1051" d="M707 400q0 63 -21 111.5t-59 81.5t-91 50t-117 17q-92 0 -159 -9.5t-116 -17.5l23 698h702v-175h-497l-12 -327q13 2 41.5 5t55.5 3q108 0 195.5 -29.5t149 -84t94 -133t32.5 -175.5q-1 -98 -34.5 -178.5t-96.5 -137.5t-154.5 -88t-206.5 -31q-63 0 -118 10t-99.5 24 t-75.5 29t-46 25l50 159q14 -6 41.5 -17.5t65.5 -22t84 -18.5t97 -8q63 0 113 17t85.5 48.5t54.5 75.5t19 98z" />
<glyph unicode="6" horiz-adv-x="1163" d="M707 1168q-93 0 -162 -40t-115.5 -104t-71 -144t-27.5 -160q16 13 42 28t60 27.5t75 21.5t86 10q102 3 185.5 -23.5t142 -78.5t90.5 -128.5t32 -173.5q0 -94 -31 -172t-90.5 -133.5t-146 -86.5t-197.5 -31q-229 0 -350.5 153.5t-121.5 459.5q0 161 35 299.5t109 240 t189 159.5t275 58q48 0 89.5 -6.5t74.5 -15.5t55.5 -18.5t32.5 -15.5l-41 -161q-10 4 -31 10t-50 11.5t-64 9.5t-74 4zM595 155q52 0 94 15t71.5 44t45.5 72.5t16 100.5q0 67 -19.5 114t-53 77t-78 43.5t-94.5 13.5q-43 0 -80.5 -9t-69 -23t-55 -30.5t-38.5 -32.5 q-1 -87 14 -158t47.5 -121.5t82 -78t117.5 -27.5z" />
<glyph unicode="7" horiz-adv-x="1037" d="M943 1169l-480 -1169h-222l481 1159h-462l-8 -214h-157l-13 386h861v-162z" />
<glyph unicode="8" horiz-adv-x="1117" d="M556 -20q-94 0 -177 21.5t-144.5 63.5t-97 105.5t-35.5 147.5q0 60 21.5 111t58 93.5t86.5 77.5t107 65q-39 20 -82 48.5t-79 67.5t-59.5 90t-23.5 116q0 80 33.5 146.5t91.5 114.5t136.5 75t168.5 27q94 0 172 -24t134 -68.5t87 -108.5t31 -145q0 -60 -22 -107.5 t-58 -85t-82 -66.5t-94 -53q48 -24 98.5 -55.5t92 -73.5t68.5 -97t27 -126q0 -83 -35.5 -149.5t-97 -113t-145.5 -72t-181 -25.5zM561 152q45 0 88 12.5t76.5 35.5t54 57t20.5 76q0 39 -13 70t-37 57t-57.5 48.5t-74.5 43.5l-78 40q-118 -63 -170.5 -124.5t-52.5 -130.5 q0 -47 21 -82t55 -58t78 -34t90 -11zM769 991q0 42 -16 77t-44.5 59.5t-67.5 38t-85 13.5q-45 0 -83 -13.5t-66 -37t-44 -56t-16 -70.5q0 -37 9.5 -66t30 -53.5t52.5 -47t78 -46.5l47 -25q100 53 152.5 106.5t52.5 120.5z" />
<glyph unicode="9" horiz-adv-x="1163" d="M471 161q90 0 155.5 31.5t109.5 90t66.5 141.5t26.5 186q-16 -13 -41.5 -28t-59 -27.5t-73.5 -21.5t-85 -10q-106 -3 -189.5 24t-141.5 80t-89 128.5t-31 170.5q0 94 31.5 172.5t91.5 134t147 86.5t198 31q233 0 351 -158t118 -459q0 -182 -34 -322t-106 -236 t-184 -145.5t-269 -49.5q-49 0 -93.5 6t-82 15t-65 18.5t-41.5 16.5l42 161q31 -11 95.5 -23.5t152.5 -12.5zM568 1175q-50 0 -91.5 -15t-71.5 -44.5t-47 -73t-17 -100.5q0 -66 19.5 -113t53 -77t78.5 -43.5t95 -13.5q43 0 80.5 9t68.5 23t54.5 30.5t38.5 32.5 q1 90 -14.5 161t-48.5 121t-82.5 76.5t-115.5 26.5z" />
<glyph unicode=":" horiz-adv-x="465" d="M101 907q0 63 38.5 100t99.5 37q26 0 48.5 -9.5t39.5 -26t27 -39.5t10 -50q0 -32 -10.5 -57.5t-28.5 -43.5t-43 -27.5t-55 -9.5q-27 0 -50 9.5t-40 26t-26.5 39.5t-9.5 51zM101 106q0 63 38.5 100t99.5 37q26 0 48.5 -9.5t39.5 -26t27 -39.5t10 -50q0 -32 -10.5 -57.5 t-28.5 -43.5t-43 -27.5t-55 -9.5q-27 0 -50 9.5t-40 26t-26.5 39.5t-9.5 51z" />
<glyph unicode=";" horiz-adv-x="438" d="M73 907q0 63 39 100t99 37q26 0 49 -9.5t40 -26t27 -39.5t10 -50q0 -64 -39 -101t-99 -37q-26 0 -49 9.5t-40 26t-27 39.5t-10 51zM24 -216q23 16 47 36t43 45.5t31 56.5t12 68t-10 69.5t-25 58.5t-32 45.5t-30 32.5l188 48q13 -11 30 -31.5t32.5 -50t26 -68t10.5 -83.5 q0 -61 -21 -111t-54.5 -90t-76.5 -71t-87 -53z" />
<glyph unicode="&#x3c;" horiz-adv-x="1047" d="M860 1017l-459 -352l459 -352l-110 -129l-623 481l623 482z" />
<glyph unicode="=" horiz-adv-x="1224" d="M172 577h880v-171h-880v171zM172 925h880v-170h-880v170z" />
<glyph unicode="&#x3e;" horiz-adv-x="1047" d="M193 313l458 352l-458 351l110 130l623 -481l-623 -482z" />
<glyph unicode="?" horiz-adv-x="807" d="M217 492q0 59 26.5 108t68.5 95q31 34 68 68t69.5 70t54.5 75.5t22 83.5q0 78 -42.5 121.5t-114.5 54.5q-36 5 -74 3q-41 -2 -75 -8.5t-60.5 -14.5t-45.5 -16.5t-29 -13.5l-54 148q19 12 49 26.5t70 27t89 21.5t108 9q84 0 156.5 -24.5t125 -68t82.5 -104.5t30 -134 q0 -69 -25.5 -124t-63.5 -101t-82.5 -85.5t-83 -77t-64.5 -76.5t-27 -83q-2 -26 0 -41.5t4 -25.5l-162 -17q-7 16 -13.5 44t-6.5 60zM204 106q0 63 39 100t99 37q26 0 49 -9.5t40 -26t27 -39.5t10 -50q0 -64 -39 -101t-99 -37q-26 0 -49 9.5t-40 26t-27 39.5t-10 51z" />
<glyph unicode="@" horiz-adv-x="2243" d="M1614 -3q-54 0 -97 17.5t-75 43t-53.5 54t-31.5 49.5q-24 -26 -57.5 -55t-75.5 -53t-91.5 -40t-105.5 -16q-90 0 -159 38t-115.5 102.5t-70 149t-23.5 177.5q0 117 35.5 222t104.5 184.5t169.5 126.5t231.5 47q67 0 127 -16t108 -37.5t81 -42t46 -29.5l-45 -601 q-2 -35 6.5 -63.5t25 -48.5t38.5 -31.5t48 -11.5q51 -1 92.5 31t71.5 92t46.5 145t16.5 190q0 161 -44 289t-130 217.5t-214 137t-297 47.5q-126 0 -234.5 -32t-198 -88.5t-159.5 -134.5t-117.5 -171t-72.5 -197t-25 -212q0 -170 47 -305t134 -229t210 -144.5t275 -50.5 q55 0 105 7t91 16.5t72 20t48 17.5l48 -143q-18 -9 -54 -23t-85 -27t-110.5 -22.5t-130.5 -9.5q-195 0 -355 61t-274 174.5t-176.5 275t-62.5 362.5q0 133 31 260.5t92 241t150.5 209.5t206 165t259 108t309.5 39q204 0 366.5 -60.5t276 -171t174 -265.5t60.5 -343 q0 -139 -33 -257t-94 -203.5t-146 -134t-190 -48.5zM1346 836q-6 3 -20.5 8.5t-36 11t-50 9.5t-61.5 4q-74 0 -130 -31t-94 -83.5t-57 -122t-19 -147.5q0 -66 12.5 -123t37.5 -99.5t63.5 -66.5t90.5 -24q38 0 73 13t64 31.5t51.5 40t35.5 38.5z" />
<glyph unicode="A" horiz-adv-x="1263" d="M894 333h-525l-120 -333h-228l512 1330h197l512 -1330h-228zM429 502h405q-42 115 -81 229.5t-79 229.5l-44 115z" />
<glyph unicode="B" horiz-adv-x="1189" d="M157 0v1330h423q106 0 190.5 -22.5t142.5 -66.5t89 -108t31 -147q0 -91 -46.5 -164t-125.5 -116q52 -17 95.5 -48t75 -73t48.5 -93.5t17 -111.5q0 -88 -34.5 -158.5t-98.5 -119.5t-156 -75.5t-207 -26.5h-444zM369 602v-435h227q129 0 200 52t71 146q0 112 -71.5 174.5 t-199.5 62.5h-227zM369 762h321q58 26 89.5 79t31.5 124q0 93 -63.5 145.5t-178.5 52.5h-200v-401z" />
<glyph unicode="C" horiz-adv-x="1130" d="M83 662q0 153 46 279.5t132 217.5t209 141t276 50q42 0 84 -5.5t81.5 -15t75 -22t62.5 -27.5l-49 -161q-55 21 -117.5 35.5t-133.5 14.5q-101 0 -182 -32.5t-138.5 -95.5t-88.5 -154.5t-31 -208.5q0 -118 30.5 -213.5t88.5 -163t142.5 -104t192.5 -36.5q72 0 142 15.5 t124 39.5l54 -159q-31 -17 -69 -31t-81 -24.5t-88 -16t-89 -5.5q-158 0 -283 48t-211.5 137t-132.5 215t-46 282z" />
<glyph unicode="D" horiz-adv-x="1302" d="M157 0v1330h411q157 0 278.5 -47.5t204.5 -134.5t125.5 -208.5t42.5 -269.5q0 -152 -44.5 -275.5t-129.5 -211.5t-208.5 -135.5t-280.5 -47.5h-399zM568 167q93 0 171.5 32.5t134.5 95t87.5 153.5t31.5 208q0 120 -29.5 214t-85.5 159t-137.5 99.5t-184.5 34.5h-188v-996 h200z" />
<glyph unicode="E" horiz-adv-x="1049" d="M927 1155h-569v-399h546v-172h-546v-409h589v-175h-801v1330h781v-175z" />
<glyph unicode="F" horiz-adv-x="986" d="M924 1155h-555v-404h506v-172h-506v-579h-212v1330h767v-175z" />
<glyph unicode="G" horiz-adv-x="1255" d="M1150 95q-35 -26 -80.5 -47t-98 -36t-109 -23.5t-111.5 -8.5q-161 0 -285.5 49t-209.5 139t-129 215.5t-44 278.5q0 151 46 277.5t133 217.5t212 142t283 51q43 0 87 -5.5t87 -15.5t83 -25t75 -33l-57 -159q-56 22 -125.5 39.5t-150.5 17.5q-100 0 -182 -32t-141 -94 t-91.5 -154t-32.5 -213t32 -216.5t91 -162t143 -101.5t188 -35q48 0 98 8t84 20v360l-246 3v161h451v-618z" />
<glyph unicode="H" horiz-adv-x="1349" d="M979 582h-610v-582h-212v1330h212v-573h610v573h213v-1330h-213v582z" />
<glyph unicode="I" horiz-adv-x="526" d="M157 1330h212v-1330h-212v1330z" />
<glyph unicode="J" horiz-adv-x="724" d="M598 1330v-1001q0 -86 -24 -151t-69 -109t-109.5 -66.5t-144.5 -22.5q-33 0 -65 5t-60.5 13.5t-52.5 19t-39 22.5l43 155q29 -14 68 -24t95 -10q146 2 146 149v1020h212z" />
<glyph unicode="K" horiz-adv-x="1211" d="M369 614l518 716h247l-424 -580l474 -750h-251l-370 603l-194 -252v-351h-212v1330h212v-716z" />
<glyph unicode="L" horiz-adv-x="951" d="M927 0h-770v1330h212v-1155h558v-175z" />
<glyph unicode="M" horiz-adv-x="1654" d="M157 1330h302l368 -901l368 901h302v-1330h-208v1075l-372 -913h-180l-373 913v-1075h-207v1330z" />
<glyph unicode="N" horiz-adv-x="1352" d="M364 1029v-1029h-207v1330h246l584 -1029v1029h208v-1330h-246z" />
<glyph unicode="O" horiz-adv-x="1405" d="M709 154q89 0 160.5 34t122 98.5t77.5 157t27 210.5q0 122 -27.5 218.5t-79 164t-126 103.5t-167.5 36q-89 0 -161 -34t-122 -98.5t-77 -157t-27 -210.5q0 -122 27.5 -218.5t79 -164t126 -103.5t167.5 -36zM697 -20q-145 0 -259 47t-193 135.5t-120.5 215t-41.5 284.5 t43 285.5t123.5 217t196.5 137.5t263 48q144 0 258 -47.5t193 -136t120.5 -214.5t41.5 -284q0 -159 -43 -286t-123.5 -216.5t-196.5 -137.5t-262 -48z" />
<glyph unicode="P" horiz-adv-x="1081" d="M369 666h191q121 0 185.5 64.5t64.5 179.5q0 121 -64.5 185.5t-186.5 64.5h-190v-494zM157 0v1330h406q111 0 198.5 -27t148 -78.5t92.5 -127.5t32 -174q0 -101 -33.5 -179.5t-95 -132.5t-149 -82.5t-194.5 -28.5h-193v-500h-212z" />
<glyph unicode="Q" horiz-adv-x="1405" d="M1681 -391q-48 -11 -101.5 -18t-116.5 -7q-114 0 -207.5 29.5t-170 83t-137.5 129.5t-110 169q-68 -15 -141 -15q-143 0 -257 50t-193.5 140t-121.5 215.5t-42 276.5q0 150 44 276t125.5 217.5t197 143t259.5 51.5q143 0 257 -50t193 -140t121 -215.5t42 -276.5 q0 -102 -20.5 -194t-60 -169.5t-96.5 -139t-129 -103.5q42 -73 90 -129.5t105 -95.5t124.5 -59.5t149.5 -20.5q91 0 179 20zM709 154q78 0 148.5 32.5t123.5 95.5t84 156.5t31 215.5t-30.5 219t-84 164.5t-127 103t-158.5 35.5q-78 0 -148.5 -32.5t-123.5 -95.5t-84 -156.5 t-31 -215.5t30.5 -219t84 -164.5t126.5 -103t159 -35.5z" />
<glyph unicode="R" horiz-adv-x="1143" d="M157 0v1330h416q112 0 201 -26t150 -77t93.5 -125.5t32.5 -171.5q0 -63 -22 -121t-58.5 -106t-84 -84t-99.5 -56l303 -563h-232l-269 520h-219v-520h-212zM369 685h300q34 11 63 33.5t50 52.5t33 67.5t12 78.5q0 117 -67 180t-190 63h-201v-475z" />
<glyph unicode="S" horiz-adv-x="1033" d="M138 246q25 -13 60.5 -27.5t78 -26.5t90.5 -20t98 -8q125 0 193.5 44t68.5 125q0 37 -11 66t-36 54t-64.5 48.5t-97.5 48.5l-151 65q-64 27 -114 61t-85 78t-53.5 99t-18.5 124q0 86 36.5 155t98 117.5t143 74.5t172.5 26q61 0 113.5 -8t96.5 -20.5t79.5 -27t62.5 -27.5 l-45 -169q-27 12 -61.5 23.5t-74 21.5t-82 16t-83.5 6q-57 0 -101 -13.5t-74 -37t-46 -55.5t-16 -69q0 -38 10 -67.5t31.5 -53t56 -44t82.5 -40.5l162 -72q147 -66 219 -153.5t73 -214.5q0 -87 -32.5 -155t-94.5 -114.5t-151.5 -71t-203.5 -24.5q-60 0 -117.5 8t-107 21.5 t-90 31t-66.5 35.5z" />
<glyph unicode="T" horiz-adv-x="1023" d="M24 1330h975v-175h-381v-1155h-213v1155h-381v175z" />
<glyph unicode="U" horiz-adv-x="1271" d="M342 529q0 -188 79 -280t219 -92q67 0 120.5 22.5t91 66.5t57.5 109t20 151v824h213v-810q0 -127 -35.5 -227t-101.5 -169.5t-161.5 -106.5t-215.5 -37q-117 0 -209.5 36t-157 104.5t-98.5 168t-34 227.5v814h213v-801z" />
<glyph unicode="V" horiz-adv-x="1254" d="M1233 1330l-483 -1330h-246l-483 1330h233q81 -240 162 -477t162 -477l50 -133l373 1087h232z" />
<glyph unicode="W" horiz-adv-x="1915" d="M1874 1330l-389 -1330h-246l-282 951l-281 -951h-246l-389 1330h238l283 -1068l50 157l251 891h189l251 -891l50 -157l282 1068h239z" />
<glyph unicode="X" horiz-adv-x="1290" d="M1252 0h-244l-363 527l-360 -527h-247l479 682l-433 648h242l319 -492l321 492h241l-434 -648z" />
<glyph unicode="Y" horiz-adv-x="1137" d="M461 507l-440 823h230l319 -623l318 623h228l-441 -823v-507h-214v507z" />
<glyph unicode="Z" horiz-adv-x="1077" d="M722 1155h-605v175h863v-152l-656 -1003h696v-175h-943v152z" />
<glyph unicode="[" horiz-adv-x="650" d="M602 -272l-445 -7v1884h445v-157l-249 -4v-1560h249v-156z" />
<glyph unicode="\" horiz-adv-x="873" d="M152 1585l774 -1835h-204l-774 1835h204z" />
<glyph unicode="]" horiz-adv-x="650" d="M40 1598l445 7v-1884h-445v157l248 4v1560h-248v156z" />
<glyph unicode="^" horiz-adv-x="1145" d="M111 786l353 694h216l353 -694h-221l-240 491l-240 -491h-221z" />
<glyph unicode="_" horiz-adv-x="1201" d="M157 -48h887v-170h-887v170z" />
<glyph unicode="`" horiz-adv-x="753" d="M591 1183l-480 157l84 183l446 -227z" />
<glyph unicode="a" horiz-adv-x="984" d="M823 224q0 -42 16.5 -60.5t44.5 -18.5q20 0 34.5 3.5t25.5 7.5l19 -148q-24 -11 -58.5 -19.5t-75.5 -8.5q-70 0 -113 35t-62 89q-59 -60 -130 -92t-147 -32q-68 0 -125 20t-98.5 57t-65 88t-23.5 114q0 67 22.5 118t62 86.5t93 58t115 33t128 11t132.5 -6.5v105 q0 96 -45 148.5t-151 52.5q-39 0 -77 -6t-72.5 -15t-63.5 -19.5t-49 -19.5l-47 152q23 13 58.5 28.5t79.5 28.5t94.5 21.5t103.5 8.5q183 0 278.5 -91t95.5 -256v-473zM273 281q0 -64 41 -100t110 -36q54 0 103.5 24.5t90.5 63.5v197q-32 5 -70 6.5t-76.5 -1.5t-74 -12.5 t-63.5 -28t-44.5 -46t-16.5 -67.5z" />
<glyph unicode="b" horiz-adv-x="1145" d="M368 1480v-507q48 25 98 40.5t103 20.5q31 4 63.5 4.5t64.5 -3.5q86 -13 155 -55.5t117 -109.5t73.5 -155.5t25.5 -194.5q0 -125 -35.5 -225t-103 -170t-165 -107.5t-222.5 -37.5q-49 0 -102.5 8.5t-105 23.5t-97.5 35t-80 43v1370zM846 505q0 81 -19.5 147.5t-56 114 t-89 73.5t-117.5 26q-51 0 -102 -13.5t-94 -38.5v-626q38 -17 84.5 -25.5t96.5 -8.5q149 0 223 92t74 259z" />
<glyph unicode="c" horiz-adv-x="922" d="M298 519q0 -171 79.5 -265.5t227.5 -94.5q61 0 119 14t100 32l50 -154q-51 -29 -130.5 -50t-169.5 -21q-113 0 -204.5 38t-156.5 106.5t-100.5 164.5t-35.5 213q0 121 36 221t103 171.5t161.5 110.5t210.5 39q87 0 157 -21.5t113 -45.5l-53 -154q-34 13 -87.5 27.5 t-121.5 14.5q-70 0 -125 -24t-93.5 -69t-59 -109t-20.5 -144z" />
<glyph unicode="d" horiz-adv-x="1155" d="M835 0l-24 112q-23 -23 -54.5 -46t-70 -42.5t-84 -31.5t-96.5 -12q-99 0 -178 37.5t-135 106t-86 165t-30 213.5q0 119 37 218.5t103 171.5t157.5 112t200.5 40q53 0 108.5 -13.5t103.5 -36.5v466l211 20v-1480h-163zM787 822q-39 21 -92 34t-113 13q-65 0 -117.5 -26 t-89.5 -73t-57 -111.5t-20 -140.5q0 -82 18 -148.5t52 -114t82.5 -73t109.5 -25.5q33 0 66 7t62.5 20t55 31t43.5 40v567z" />
<glyph unicode="e" horiz-adv-x="1024" d="M296 467q6 -151 84.5 -229.5t221.5 -78.5q76 0 144 15.5t116 32.5l48 -156q-25 -12 -60.5 -24.5t-78.5 -23t-92.5 -17t-103.5 -6.5q-116 0 -208 38t-156.5 107t-99 165t-34.5 213q0 121 34 221t97 171t153 110t203 39q92 0 163.5 -26.5t120 -76t74 -119.5t25.5 -156 q0 -62 -10 -115t-21 -84h-620zM544 879q-55 0 -99 -19.5t-75.5 -55.5t-50 -88t-22.5 -116h437q5 18 6.5 37.5t1.5 42.5q-2 97 -54.5 148t-143.5 51z" />
<glyph unicode="f" horiz-adv-x="658" d="M385 1024h256v-165h-249v-859h-211v859h-160v147l165 11v115q0 78 25 142t71.5 109.5t113.5 71t150 25.5q64 0 113 -11.5t78 -22.5l-37 -159q-23 7 -60.5 14t-79.5 7q-175 0 -175 -194v-90z" />
<glyph unicode="g" horiz-adv-x="1041" d="M459 317h-22t-20 2q-25 -20 -44.5 -46t-19.5 -51q-2 -61 83 -61h206q74 0 136 -19t106.5 -55.5t69.5 -89t25 -119.5q0 -71 -37.5 -128.5t-104 -99t-158 -64t-199.5 -22.5q-205 0 -312.5 61.5t-107.5 177.5q0 40 15.5 75.5t40.5 65.5t57.5 53.5t67.5 40.5q-11 7 -23 17.5 t-22.5 25.5t-17.5 35t-7 46q0 49 34.5 96.5t89.5 85.5q-106 38 -162.5 122.5t-56.5 207.5q0 86 28.5 154.5t80 116.5t124.5 73.5t162 25.5q71 0 132.5 -19t109.5 -54q34 24 71 39.5t73.5 23.5t71.5 8.5t64 -5.5v-166q-38 5 -88 2.5t-95 -17.5q20 -37 31.5 -79.5t11.5 -90.5 q0 -86 -28.5 -154.5t-80 -116t-124.5 -73t-161 -25.5zM466 461q43 0 78 15.5t60 43t38 67t13 87.5q0 109 -51 167.5t-141 58.5q-43 0 -78 -15.5t-59.5 -43.5t-37.5 -67t-13 -87q0 -109 51 -167.5t140 -58.5zM510 -279q60 0 109 9.5t84 28t54 45.5t19 61q0 63 -51.5 92 t-153.5 29h-214q-18 -9 -36.5 -23.5t-33 -32t-23.5 -37.5t-9 -42q0 -64 66.5 -97t188.5 -33z" />
<glyph unicode="h" horiz-adv-x="1154" d="M368 1480v-558q67 54 147 88t165 34q165 0 248.5 -92t83.5 -278v-674h-212v642q0 221 -184 221q-29 0 -62 -8t-66.5 -21.5t-64.5 -32.5t-55 -41v-760h-211v1460z" />
<glyph unicode="i" horiz-adv-x="525" d="M131 1344q0 63 38.5 99.5t98.5 36.5q26 0 49 -9.5t40 -26t27 -39.5t10 -50q0 -32 -10.5 -57.5t-28.5 -43.5t-43 -27.5t-55 -9.5q-27 0 -50 9.5t-40 26.5t-26.5 40t-9.5 51zM368 1024v-1024h-211v1024h211z" />
<glyph unicode="j" horiz-adv-x="531" d="M137 1344q0 63 38.5 99.5t98.5 36.5q26 0 49 -9.5t40 -26t27 -39.5t10 -50q0 -32 -10.5 -57.5t-28.5 -43.5t-43 -27.5t-55 -9.5q-27 0 -50 9.5t-40 26.5t-26.5 40t-9.5 51zM163 1024h211v-1059q0 -199 -88 -290t-260 -91q-38 0 -73.5 5.5t-56.5 13.5l23 164 q16 -5 37.5 -8t46.5 -3q84 0 122 44.5t38 147.5v1076z" />
<glyph unicode="k" horiz-adv-x="1069" d="M368 1480v-964l389 508h237l-326 -426l359 -598h-239l-276 466l-144 -183v-283h-211v1460z" />
<glyph unicode="l" horiz-adv-x="525" d="M368 1480v-1480h-211v1460z" />
<glyph unicode="m" horiz-adv-x="1763" d="M327 1024l22 -118q32 29 69.5 54.5t79 44t85.5 29t89 10.5q197 0 275 -146q89 77 178.5 111.5t172.5 34.5q159 0 241 -92t82 -278v-674h-211v642q0 221 -176 221q-48 0 -112 -25t-128 -76q1 -23 1 -46v-46v-670h-212v642q0 221 -175 221q-28 0 -60 -8t-64 -21.5 t-62 -32.5t-54 -41v-760h-211v1024h170z" />
<glyph unicode="n" horiz-adv-x="1154" d="M327 1024l22 -118q33 29 71.5 54t80.5 44t87 29.5t92 10.5q165 0 248.5 -92t83.5 -278v-674h-212v642q0 221 -184 221q-29 0 -62 -8t-66.5 -21.5t-64.5 -32.5t-55 -41v-760h-211v1024h170z" />
<glyph unicode="o" horiz-adv-x="1131" d="M559 -20q-110 0 -199 38t-152 107t-97 165.5t-34 213.5q0 121 35 220.5t99.5 170.5t156 110t204.5 39q110 0 199 -38t152 -107t97 -165t34 -213q0 -122 -35 -221.5t-99.5 -170.5t-156 -110t-204.5 -39zM571 144q62 0 111 26t82.5 73t51 114t17.5 148q0 86 -18 155.5 t-52.5 118t-85.5 74.5t-117 26q-62 0 -111 -25.5t-82.5 -73t-51 -113.5t-17.5 -147q0 -86 18 -155.5t52.5 -118.5t85.5 -75.5t117 -26.5z" />
<glyph unicode="p" horiz-adv-x="1155" d="M320 1024l24 -112q24 22 55.5 45.5t70 42.5t83.5 31.5t97 12.5q98 0 177.5 -37.5t135 -106.5t85.5 -165.5t30 -214.5q0 -119 -37 -218t-103 -170.5t-157 -111.5t-200 -40q-54 0 -109.5 13.5t-103.5 36.5v-426h-211v1420h163zM368 201q39 -20 92 -33.5t113 -13.5 q65 0 117.5 26.5t89.5 73t57 111t20 140.5q0 82 -18 148.5t-52 114t-82.5 73t-109.5 25.5q-33 0 -66 -7t-62.5 -20t-55 -30.5t-43.5 -39.5v-568z" />
<glyph unicode="q" horiz-adv-x="1145" d="M776 -396v446q-50 -28 -113.5 -49t-133.5 -21q-104 0 -187.5 37.5t-142 106.5t-90.5 165t-32 213q0 125 35 225.5t102.5 171t165 108t222.5 37.5q49 0 102.5 -7.5t105.5 -20.5t98 -30.5t80 -36.5v-1345h-212zM298 518q0 -81 19.5 -147.5t56 -114t89 -73.5t117.5 -26 q52 0 103 14t93 39v625q-38 17 -84 25.5t-97 8.5q-74 0 -130 -23.5t-93 -68.5t-55.5 -110.5t-18.5 -148.5z" />
<glyph unicode="r" horiz-adv-x="721" d="M321 1024l30 -139q22 27 58.5 55t81.5 50.5t95 37.5t100 15v-202q-44 -1 -90 -9.5t-88 -23t-78.5 -33t-61.5 -39.5v-736h-211v1024h164z" />
<glyph unicode="s" horiz-adv-x="842" d="M123 219q22 -11 52 -22t65.5 -21t75.5 -16t81 -6q40 0 73.5 6t57.5 18.5t37 33.5t13 51q0 28 -12 49.5t-35.5 40t-58 34.5t-78.5 33l-80 31q-113 42 -172.5 111.5t-59.5 177.5q0 72 28.5 128.5t77.5 95.5t115.5 59.5t142.5 20.5q90 0 169 -19t130 -45l-41 -164 q-22 8 -50.5 17.5t-60.5 17.5t-68 13.5t-73 5.5q-35 0 -66 -7t-54 -21.5t-36 -36t-13 -51.5q0 -24 8.5 -44.5t28 -38.5t52.5 -35.5t83 -36.5l84 -33q118 -46 179 -116t61 -180q0 -67 -23.5 -120.5t-70 -91t-116 -58t-161.5 -20.5q-113 0 -196.5 23t-138.5 53z" />
<glyph unicode="t" horiz-adv-x="757" d="M386 1024h295v-165h-289v-533q0 -92 37 -131.5t118 -39.5q16 0 35 2t37.5 5t34.5 7t28 8l33 -161q-19 -7 -45 -13.5t-54.5 -11.5t-58 -8t-55.5 -3q-163 0 -242 78.5t-79 239.5v561h-160v147l173 11l12 234l180 19v-246z" />
<glyph unicode="u" horiz-adv-x="1134" d="M806 0l-21 118q-32 -30 -69.5 -55t-79 -43.5t-85.5 -29t-89 -10.5q-160 0 -242 92t-82 278v674h212v-642q0 -222 176 -222q27 0 59 8t64 22t62 33t54 41v760h212v-1024h-171z" />
<glyph unicode="v" horiz-adv-x="1045" d="M1027 1024l-392 -1024h-226l-391 1024h228l275 -784l39 96l238 688h229z" />
<glyph unicode="w" horiz-adv-x="1601" d="M1569 1024l-314 -1024h-243l-212 688l-213 -688h-243l-312 1024h223l219 -793l40 116l196 667h182l195 -667l40 -116l219 793h223z" />
<glyph unicode="x" horiz-adv-x="1016" d="M1004 0h-241l-255 379l-255 -379h-241l374 525l-339 499h241l220 -352l220 352h240l-338 -499z" />
<glyph unicode="y" horiz-adv-x="1050" d="M1026 1024l-352 -1013q-41 -118 -86 -199.5t-99 -132t-120 -73t-151 -22.5q-33 0 -63.5 4.5t-56.5 11.5t-46 14.5t-31 12.5l42 157q15 -6 54.5 -17t94.5 -11q40 0 73.5 11.5t60.5 38t49.5 68.5t41.5 102l-52 119q-94 232 -185 463.5t-185 465.5h230l263 -730l36 -87 l255 817h227z" />
<glyph unicode="z" horiz-adv-x="964" d="M597 859h-467v165h714v-138l-507 -722h536v-164h-782v138z" />
<glyph unicode="{" horiz-adv-x="664" d="M324 1354q0 -35 14.5 -70t36.5 -70t48 -71t48 -74t36.5 -77.5t14.5 -82.5q0 -45 -14.5 -84.5t-39.5 -71.5t-60 -55t-75 -35q40 -12 75 -34t60 -52t39.5 -66t14.5 -75q0 -45 -14.5 -87.5t-36.5 -82.5t-48 -77t-48 -72t-36.5 -67.5t-14.5 -62.5q0 -58 37 -93.5t106 -35.5 q35 0 66 5.5t55 12.5l30 -148q-24 -11 -70 -20.5t-103 -9.5q-68 0 -124.5 19t-97.5 54t-64 85t-23 112q0 45 14.5 87t35.5 80.5t46.5 75t46.5 71t35.5 68t14.5 66.5q0 83 -58.5 126.5t-169.5 44.5v153q13 1 25 1.5t23 2.5q45 2 78.5 16t56 35t34 47t11.5 53q0 37 -14.5 73 t-35.5 72t-46.5 72t-46.5 73.5t-35.5 75.5t-14.5 79q0 68 23.5 122t66 91.5t101.5 57.5t129 20q49 0 93.5 -10t68.5 -21l-30 -148q-24 8 -56.5 13.5t-75.5 5.5q-30 0 -54.5 -10t-41.5 -26.5t-26.5 -37.5t-9.5 -43z" />
<glyph unicode="|" horiz-adv-x="510" d="M353 1523v-2022h-196v2022h196z" />
<glyph unicode="}" horiz-adv-x="664" d="M332 1354q0 22 -9.5 43t-26.5 37.5t-41 26.5t-54 10q-43 0 -76 -5.5t-57 -13.5l-30 148q25 11 69 21t93 10q70 0 129 -20t101.5 -57.5t66 -91.5t23.5 -122q0 -40 -14.5 -78.5t-35.5 -76t-46.5 -73.5t-46.5 -72t-35.5 -72t-14.5 -73q0 -73 60.5 -113.5t167.5 -41.5v-153 q-114 -1 -171 -47t-57 -124q0 -33 14.5 -66.5t35.5 -68t46.5 -71t46.5 -75t35.5 -80.5t14.5 -87q0 -62 -23 -112t-64 -85t-98 -54t-124 -19q-57 0 -102.5 9.5t-70.5 20.5l30 148q24 -7 55.5 -12.5t65.5 -5.5q69 0 106 36t37 93q0 30 -14.5 62.5t-36.5 67.5t-48 72t-48 77 t-36.5 82t-14.5 88q0 39 14.5 75t39.5 65.5t59.5 52t75.5 34.5q-41 12 -75.5 35t-59.5 54.5t-39.5 71t-14.5 85.5q0 43 14.5 83t36.5 77.5t48 73.5t48 71t36.5 70t14.5 70z" />
<glyph unicode="~" horiz-adv-x="1077" d="M138 662q53 58 117 90t143 32q43 0 80.5 -11t73.5 -23.5t70.5 -23.5t71.5 -11q28 0 54 7.5t48.5 18t41.5 22.5t33 21l68 -116q-52 -59 -116 -90.5t-144 -31.5q-43 0 -80.5 11t-73 23.5t-70.5 23.5t-72 11q-28 0 -54 -7.5t-48.5 -18t-41 -22.5t-33.5 -21z" />
<glyph unicode="&#xa1;" horiz-adv-x="507" d="M135 -306l41 930h157l40 -930h-238zM122 907q0 63 38.5 100t99.5 37q26 0 48.5 -9.5t39.5 -26t27 -39.5t10 -50q0 -32 -10.5 -57.5t-28.5 -43.5t-43 -27.5t-55 -9.5q-27 0 -50 9.5t-40 26t-26.5 39.5t-9.5 51z" />
<glyph unicode="&#xa2;" horiz-adv-x="1221" d="M809 1445l-13 -254q65 -6 124 -24t105 -40l-55 -149q-37 13 -96.5 29t-128.5 16q-72 0 -133.5 -22.5t-107 -66.5t-71 -110t-25.5 -154q0 -89 25.5 -157.5t73 -115t114.5 -70.5t151 -24q60 0 115 13t106 31l53 -148q-46 -24 -111 -42t-136 -24l12 -249h-183l12 253 q-109 15 -193 59t-141.5 111.5t-87.5 156.5t-30 194t31 195.5t89 159.5t142 114t189 60l-13 258h183z" />
<glyph unicode="&#xa3;" horiz-adv-x="1243" d="M177 745h135q-7 49 -12 98.5t-5 101.5q0 92 29 166.5t83 127.5t131 82t173 29q49 0 93.5 -8t81.5 -19.5t65 -24.5t46 -23l-54 -155q-19 6 -43.5 15t-54.5 17.5t-64.5 14t-72.5 5.5q-92 0 -145 -56.5t-53 -156.5q0 -54 6 -107t14 -107h350v-132h-332q4 -33 6.5 -66.5 t2.5 -67.5q0 -69 -11.5 -145.5t-35.5 -151.5q42 -3 79.5 -8t72 -10.5t68 -9.5t67.5 -4q36 -1 62 8.5t44.5 27.5t32 43t24.5 55l138 -46q-9 -62 -34.5 -110t-64.5 -81t-91 -50t-113 -17q-44 0 -86.5 5.5t-85.5 12.5t-87 13t-90 8q-10 0 -19.5 0.5t-19.5 0.5q-9 -10 -20 -19 q-9 -8 -20.5 -16.5t-23.5 -14.5l-125 28l-36 132q20 11 53 23.5t65 19.5q24 78 33 152t9 140q0 38 -3 74.5t-8 73.5h-154v132z" />
<glyph unicode="&#xa4;" horiz-adv-x="1519" d="M1189 131l-197 177q-49 -28 -107.5 -42.5t-125.5 -14.5q-66 0 -125 14.5t-108 42.5l-196 -177l-106 87l170 207q-75 104 -75 245q0 69 19 130.5t55 113.5l-169 207l106 88l197 -178q49 27 107.5 42t124.5 15q67 0 125 -15t108 -42l197 178l106 -88l-170 -208 q36 -51 55.5 -112.5t19.5 -130.5q0 -70 -19.5 -131.5t-55.5 -112.5l170 -208zM759 413q53 0 97.5 19t76.5 53t50 81t18 104q0 56 -18 103t-50 81t-76.5 53t-97.5 19q-52 0 -96.5 -19t-76.5 -53t-50.5 -81t-18.5 -103q0 -57 18.5 -104t50.5 -81t76.5 -53t96.5 -19z" />
<glyph unicode="&#xa5;" horiz-adv-x="1327" d="M222 732v132h169l-273 466h224l321 -566l324 566h222l-276 -466h172v-132h-883zM244 600h840v-132h-314v-468h-214v468h-312v132z" />
<glyph unicode="&#xa6;" horiz-adv-x="510" d="M353 1523v-794h-196v794h196zM353 295v-794h-196v794h196z" />
<glyph unicode="&#xa7;" horiz-adv-x="1022" d="M886 1242q-23 8 -52.5 17.5t-63.5 18t-70.5 14.5t-74.5 8q-50 -92 -37 -206t78 -265l114 -265q34 -81 63 -150t49.5 -133t32 -126.5t11.5 -130.5q0 -97 -36.5 -177.5t-103 -139t-160 -91t-208.5 -32.5q-57 0 -109.5 8t-96.5 20t-79.5 26t-58.5 27l52 157q23 -8 52 -17.5 t63 -18t70.5 -15t74.5 -7.5q50 92 37 206t-77 265l-114 265q-35 80 -63.5 149t-49.5 133t-32 127t-11 131q0 97 36.5 177.5t103 139t160 91t208.5 32.5q57 0 109 -8t96.5 -20t79.5 -26t59 -27zM555 254q35 -82 51.5 -151t17.5 -126.5t-12 -105t-37 -86.5q82 29 123 88.5 t41 140.5q0 57 -11.5 115.5t-31.5 120.5t-47 129t-58 141l-115 265q-30 73 -48 136q-20 61 -27 113t-3.5 96t16 81t32.5 68q-82 -29 -123 -88.5t-41 -140.5q0 -57 11.5 -115.5t31.5 -120.5t47 -129t59 -141z" />
<glyph unicode="&#xa8;" horiz-adv-x="907" d="M118 1344q0 31 10.5 56t28.5 43t43.5 27.5t55.5 9.5q26 0 49 -9.5t40 -26t27 -39.5t10 -50q0 -64 -39 -101t-99 -37q-26 0 -49 9.5t-40 26.5t-27 40t-10 51zM525 1344q0 31 10.5 56t28.5 43t43.5 27.5t55.5 9.5q26 0 49 -9.5t40 -26t27 -39.5t10 -50q0 -64 -39 -101 t-99 -37q-26 0 -49 9.5t-40 26.5t-27 40t-10 51z" />
<glyph unicode="&#xa9;" horiz-adv-x="1556" d="M591 671q0 -120 53 -184.5t156 -64.5q42 0 84.5 8.5t77.5 24.5l42 -125q-41 -24 -100.5 -39.5t-125.5 -15.5q-83 0 -150 27.5t-115 78t-74 121t-26 156.5q0 89 27 162t76 125t118.5 80.5t154.5 28.5q63 0 115.5 -16t86.5 -36l-41 -125q-27 11 -67 21t-89 10 q-97 0 -150 -63t-53 -174zM244 668q0 -115 41.5 -216t114.5 -176t170.5 -118t210.5 -43q109 0 206 43t169 117.5t114 173.5t42 211q0 115 -42 216t-115.5 176.5t-172 119t-212.5 43.5q-108 0 -204 -43.5t-167.5 -118t-113 -174t-41.5 -211.5zM104 660q0 144 53 269.5 t144.5 219t214.5 147.5t264 54q92 0 177.5 -24.5t160 -69t136 -107t105.5 -138t68 -162.5t24 -181q0 -96 -24 -184t-68.5 -164.5t-106.5 -139t-137.5 -107t-163 -69t-181.5 -24.5q-91 0 -175.5 24.5t-158.5 68.5t-135.5 106t-105 138t-67.5 162.5t-24 180.5z" />
<glyph unicode="&#xaa;" horiz-adv-x="627" d="M514 887q0 -33 32 -33q11 0 20 2t14 4l16 -106q-11 -5 -40 -14t-64 -9q-39 0 -69 14.5t-45 45.5q-12 -10 -26 -20.5t-31.5 -19.5t-38.5 -14.5t-47 -5.5q-82 0 -133 43.5t-54 123.5q-1 44 16 77.5t47 56.5t71.5 35.5t89.5 14.5q22 2 43.5 1t35.5 -3v32q0 46 -20.5 71.5 t-71.5 25.5q-28 0 -53 -4.5t-46 -10.5t-36 -12.5t-24 -10.5l-34 125q11 6 32 15.5t49 18t62 14.5t72 6q118 0 175.5 -54t57.5 -148v-261zM205 911q1 -29 19 -43t45 -14q25 0 46 10t36 23v92q-8 2 -24.5 3.5t-39.5 -0.5q-85 -9 -82 -71z" />
<glyph unicode="&#xab;" horiz-adv-x="1175" d="M642 870q-29 -44 -64.5 -89.5t-75.5 -91t-82.5 -90.5t-85.5 -87q86 -85 168 -177t140 -181l-147 -107q-43 59 -92 121t-100 122.5t-101.5 117t-97.5 104.5q47 48 98 104.5t101.5 117t99.5 122.5t92 122zM1065 829q-56 -82 -121 -160.5t-146 -156.5q81 -78 146 -156.5 t121 -160.5l-147 -108q-82 114 -170.5 222.5t-179.5 202.5q92 94 179.5 202t170.5 222z" />
<glyph unicode="&#xac;" horiz-adv-x="1231" d="M172 750h887v-470h-180v299h-707v171z" />
<glyph unicode="&#xad;" horiz-adv-x="886" d="M154 618h578v-171h-578v171z" />
<glyph unicode="&#xae;" horiz-adv-x="1556" d="M517 292v739h261q63 0 114 -15t86.5 -44.5t54.5 -72t19 -96.5q0 -32 -10 -62.5t-28 -57.5t-43 -48.5t-55 -35.5l158 -307h-176l-130 274h-93v-274h-158zM675 680h62q38 0 73 3q33 13 54 43t21 68q0 55 -29.5 84.5t-85.5 31.5q-12 1 -24 1h-24h-47v-231zM244 668 q0 -115 41.5 -216t114.5 -176t170.5 -118t210.5 -43q109 0 206 43t169 117.5t114 173.5t42 211q0 115 -42 216t-115.5 176.5t-172 119t-212.5 43.5q-108 0 -204 -43.5t-167.5 -118t-113 -174t-41.5 -211.5zM104 660q0 144 53 269.5t144.5 219t214.5 147.5t264 54 q92 0 177.5 -24.5t160 -69t136 -107t105.5 -138t68 -162.5t24 -181q0 -96 -24 -184t-68.5 -164.5t-106.5 -139t-137.5 -107t-163 -69t-181.5 -24.5q-91 0 -175.5 24.5t-158.5 68.5t-135.5 106t-105 138t-67.5 162.5t-24 180.5z" />
<glyph unicode="&#xaf;" horiz-adv-x="801" d="M111 1429h578v-157h-578v157z" />
<glyph unicode="&#xb0;" horiz-adv-x="649" d="M318 819q-59 0 -108 21t-84.5 56.5t-55 82.5t-19.5 99q0 56 20 105.5t56.5 86.5t88 58.5t115.5 21.5q59 0 108 -21t84.5 -56.5t55 -83t19.5 -99.5q0 -56 -19.5 -105.5t-56 -86.5t-88.5 -58t-116 -21zM329 962q25 0 45 9.5t33.5 25.5t21 37.5t7.5 44.5q0 26 -7.5 49.5 t-22 41t-36.5 27.5t-51 10q-25 0 -44.5 -9.5t-33.5 -26t-21.5 -38t-7.5 -44.5q0 -26 7.5 -49.5t22.5 -40.5t37 -27t50 -10z" />
<glyph unicode="&#xb1;" horiz-adv-x="1182" d="M669 1232v-322h319v-164h-319v-326h-175v326h-319v164h319v322h175zM188 212h788v-164h-788v164z" />
<glyph unicode="&#xb2;" horiz-adv-x="558" d="M50 877q66 40 115 73.5t81.5 63.5t48.5 59t16 59q0 39 -23.5 58.5t-61.5 19.5q-23 0 -45 -4.5t-40.5 -11t-31.5 -12.5t-18 -9l-43 121q7 5 25.5 14.5t44.5 18.5t58.5 16t68.5 7q60 0 104 -16t72.5 -44t42 -64.5t13.5 -77.5q0 -42 -15 -79.5t-42.5 -69.5t-66.5 -60 t-86 -52h236v-136h-453v126z" />
<glyph unicode="&#xb3;" horiz-adv-x="529" d="M290 1157q0 29 -23.5 45t-65.5 16q-36 0 -70.5 -8t-54.5 -18l-36 116q8 5 24.5 12t39 14t51 11.5t61.5 4.5q58 0 101.5 -13.5t72.5 -36.5t44 -55t15 -69q0 -27 -7.5 -47t-18.5 -34t-23 -23.5t-22 -15.5q12 -5 27.5 -15t29 -26.5t23 -39.5t9.5 -54q0 -94 -67 -142 t-187 -48q-30 0 -57.5 4t-51.5 9.5t-42 12t-28 12.5l36 118q17 -6 54 -15.5t88 -9.5q97 0 97 65q0 33 -22.5 49.5t-70.5 16.5h-86v105h131q10 8 19.5 21.5t9.5 37.5z" />
<glyph unicode="&#xb4;" horiz-adv-x="753" d="M111 1296l463 234l82 -184l-494 -163z" />
<glyph unicode="&#xb6;" horiz-adv-x="1167" d="M557 491q-106 0 -193 28t-149.5 82t-96.5 132.5t-34 179.5q0 100 35 178t98.5 131t152 80.5t194.5 27.5h501v-175h-156v-1176q0 -206 -92.5 -300.5t-264.5 -94.5q-48 0 -87 7t-57 13l25 168q16 -3 42 -6.5t58 -3.5q49 0 80.5 14.5t50 43.5t26 74t7.5 107v1154h-140v-664z " />
<glyph unicode="&#xb7;" horiz-adv-x="495" d="M116 507q0 63 38.5 99.5t99.5 36.5q26 0 48.5 -9.5t39.5 -26t27 -39.5t10 -50q0 -32 -10.5 -57.5t-28.5 -43.5t-43 -27.5t-55 -9.5q-27 0 -50 9.5t-40 26.5t-26.5 40t-9.5 51z" />
<glyph unicode="&#xb8;" horiz-adv-x="542" d="M116 -355q12 -4 33 -7t47 -3q45 0 66.5 21.5t21.5 52.5q0 33 -22 52.5t-64 19.5h-62l10 114h97q43 0 79.5 -10.5t63 -32.5t41.5 -54.5t15 -76.5q0 -51 -17.5 -89t-49.5 -63t-77 -37t-99 -12q-32 0 -59.5 5.5t-41.5 12.5z" />
<glyph unicode="&#xb9;" horiz-adv-x="535" d="M204 888v311q-15 -2 -34.5 -5t-39 -5.5t-38 -4.5t-31.5 -3l-15 126q66 8 139 20t136 23h46v-462l129 -4v-133h-443v133z" />
<glyph unicode="&#xba;" horiz-adv-x="682" d="M334 731q-65 0 -117.5 24t-89 65t-56.5 96.5t-20 117.5q0 67 20 125t58 100.5t93 66.5t125 24q66 0 118.5 -24t89 -65.5t56.5 -97t20 -117.5q0 -67 -20 -124.5t-58 -100t-93.5 -66.5t-125.5 -24zM346 876q30 0 51.5 13t35.5 34.5t20.5 50.5t6.5 61q0 36 -7 66.5t-22 53.5 t-38.5 36t-57.5 13q-29 0 -50.5 -13t-35.5 -34.5t-20.5 -50.5t-6.5 -61q0 -36 7 -66.5t22 -53.5t38.5 -36t56.5 -13z" />
<glyph unicode="&#xbb;" horiz-adv-x="1175" d="M525 155q29 44 64.5 89.5t75.5 91t82.5 90.5t85.5 87q-86 85 -168 177t-140 181l147 107q43 -59 92 -121t100 -122.5t101.5 -117t97.5 -104.5q-47 -48 -98 -104.5t-101.5 -117t-99.5 -122.5t-92 -122zM102 195q56 83 121 161.5t146 156.5q-81 78 -146 156.5t-121 160.5 l147 107q82 -113 170.5 -221.5t179.5 -202.5q-92 -94 -179.5 -202t-170.5 -223z" />
<glyph unicode="&#xbf;" horiz-adv-x="807" d="M591 532q0 -59 -26.5 -108t-68.5 -95q-31 -35 -68.5 -69t-70 -70t-54.5 -75t-22 -83q0 -78 42.5 -121.5t114.5 -54.5q36 -5 74 -3q41 1 75.5 8t61 15t45 16.5t28.5 13.5l54 -148q-19 -12 -49 -26.5t-69.5 -27t-89.5 -21.5t-108 -9q-84 0 -156.5 24.5t-125 68t-82.5 104.5 t-30 134q0 68 25.5 123t63.5 101t82.5 85.5t83 77.5t65 77t27.5 83q1 26 -1 41t-4 26l163 17q6 -16 13 -44t7 -60zM339 907q0 63 39 100t99 37q26 0 49 -9.5t40 -26t27 -39.5t10 -50q0 -64 -39 -101t-99 -37q-26 0 -49 9.5t-40 26t-27 39.5t-10 51z" />
<glyph unicode="&#xc0;" horiz-adv-x="1263" d="M894 333h-525l-120 -333h-228l512 1330h197l512 -1330h-228zM429 502h405q-42 115 -81 229.5t-79 229.5l-44 115zM827 1483l-480 157l83 183l447 -227z" />
<glyph unicode="&#xc1;" horiz-adv-x="1263" d="M894 333h-525l-120 -333h-228l512 1330h197l512 -1330h-228zM429 502h405q-42 115 -81 229.5t-79 229.5l-44 115zM384 1596l462 234l82 -184l-493 -163z" />
<glyph unicode="&#xc2;" horiz-adv-x="1263" d="M894 333h-525l-120 -333h-228l512 1330h197l512 -1330h-228zM429 502h405q-42 115 -81 229.5t-79 229.5l-44 115zM847 1457q-25 18 -53.5 39.5t-57 45t-56 46t-49.5 42.5q-22 -20 -48.5 -42.5t-55 -45.5t-57.5 -45t-54 -40l-102 135q63 41 146 99t171 124 q89 -66 172 -124t146 -99z" />
<glyph unicode="&#xc3;" horiz-adv-x="1263" d="M894 333h-525l-120 -333h-228l512 1330h197l512 -1330h-228zM429 502h405q-42 115 -81 229.5t-79 229.5l-44 115zM301 1613q13 29 34 57.5t49.5 51t63.5 36.5t77 14q32 0 63 -11t60 -23.5t55 -23.5t48 -11q19 0 35 7t29 18t24 23.5t21 24.5l105 -88q-16 -33 -37.5 -62 t-50 -50t-63 -33t-76.5 -12q-30 0 -58.5 11t-56 23.5t-54.5 23.5t-53 11q-19 0 -35 -7t-29.5 -18t-24.5 -24t-20 -25z" />
<glyph unicode="&#xc4;" horiz-adv-x="1263" d="M892 337h-521l-122 -337h-228l512 1330h197l512 -1330h-228zM431 506h401q-41 115 -79.5 228t-78.5 227l-44 115zM290 1644q0 63 38.5 99.5t98.5 36.5q26 0 49 -9.5t40 -26t27 -39.5t10 -50q0 -64 -39 -101t-99 -37q-26 0 -49 9.5t-40 26.5t-26.5 40t-9.5 51zM711 1644 q0 63 38.5 99.5t98.5 36.5q26 0 49 -9.5t40 -26t27 -39.5t10 -50q0 -64 -39 -101t-99 -37q-26 0 -49 9.5t-40 26.5t-26.5 40t-9.5 51z" />
<glyph unicode="&#xc5;" horiz-adv-x="1263" d="M894 333h-525l-120 -333h-228l512 1330h197l512 -1330h-228zM429 502h405q-42 115 -81 229.5t-79 229.5l-44 115zM544 1650q0 -19 7 -35t19 -28t27.5 -18.5t33.5 -6.5q38 0 63.5 26t25.5 64q0 19 -7 34.5t-19 27t-28 18t-34 6.5q-38 0 -63 -25t-25 -63zM410 1644 q0 50 17 91t47.5 70t72 45t91.5 16q45 0 84.5 -15.5t68.5 -43t46 -66t17 -83.5q0 -50 -17 -91.5t-47.5 -70.5t-72.5 -45t-92 -16q-45 0 -84 15.5t-68 43t-46 66t-17 84.5z" />
<glyph unicode="&#xc6;" horiz-adv-x="1839" d="M1728 1331v-175h-527v-400h504v-172h-504v-409h547v-175h-757v334h-499l-240 -334h-234l964 1331h746zM991 503v532l-378 -532h378z" />
<glyph unicode="&#xc7;" horiz-adv-x="1141" d="M83 662q0 153 46 279.5t132 217.5t209 141t276 50q42 0 84 -5.5t81.5 -15t75 -22t62.5 -27.5l-49 -161q-55 21 -117.5 35.5t-133.5 14.5q-101 0 -182 -32.5t-138.5 -95.5t-88.5 -154.5t-31 -208.5q0 -118 30.5 -213.5t88.5 -163t142.5 -104t192.5 -36.5q72 0 142 15.5 t124 39.5l54 -159q-31 -17 -69 -31t-81 -24.5t-88 -16t-89 -5.5q-158 0 -283 48t-211.5 137t-132.5 215t-46 282zM530 -355q12 -4 33 -7t47 -3q45 0 66.5 21.5t21.5 52.5q0 33 -22 52.5t-64 19.5h-62l10 114h97q43 0 79.5 -10.5t63 -32.5t41.5 -54.5t15 -76.5 q0 -51 -17.5 -89t-49.5 -63t-77 -37t-99 -12q-32 0 -59.5 5.5t-41.5 12.5z" />
<glyph unicode="&#xc8;" horiz-adv-x="1049" d="M938 1155h-569v-399h546v-172h-546v-409h589v-175h-801v1330h781v-175zM753 1483l-480 157l83 183l447 -227z" />
<glyph unicode="&#xc9;" horiz-adv-x="1049" d="M938 1155h-569v-399h546v-172h-546v-409h589v-175h-801v1330h781v-175zM313 1596l462 234l82 -184l-493 -163z" />
<glyph unicode="&#xca;" horiz-adv-x="1049" d="M938 1155h-569v-399h546v-172h-546v-409h589v-175h-801v1330h781v-175zM773 1457q-25 18 -53.5 39.5t-57 45t-56 46t-49.5 42.5q-22 -20 -48.5 -42.5t-55 -45.5t-57.5 -45t-54 -40l-102 135q63 41 146 99t171 124q89 -66 172 -124t146 -99z" />
<glyph unicode="&#xcb;" horiz-adv-x="1049" d="M938 1155h-569v-399h546v-172h-546v-409h589v-175h-801v1330h781v-175zM223 1644q0 63 38.5 99.5t98.5 36.5q26 0 49 -9.5t40 -26t27 -39.5t10 -50q0 -64 -39 -101t-99 -37q-26 0 -49 9.5t-40 26.5t-26.5 40t-9.5 51zM630 1644q0 63 38.5 99.5t98.5 36.5q26 0 49 -9.5 t40 -26t27 -39.5t10 -50q0 -64 -39 -101t-99 -37q-26 0 -49 9.5t-40 26.5t-26.5 40t-9.5 51z" />
<glyph unicode="&#xcc;" horiz-adv-x="526" d="M157 1330h212v-1330h-212v1330zM455 1483l-480 157l83 183l447 -227z" />
<glyph unicode="&#xcd;" horiz-adv-x="526" d="M157 1330h212v-1330h-212v1330zM18 1596l462 234l83 -184l-494 -163z" />
<glyph unicode="&#xce;" horiz-adv-x="526" d="M157 1330h212v-1330h-212v1330zM478 1457q-24 18 -52.5 39.5t-57.5 45t-56 46t-49 42.5q-22 -20 -49 -42.5t-55.5 -45.5t-57.5 -45t-54 -40l-102 135q63 41 146.5 99t171.5 124q88 -66 171.5 -124t146.5 -99z" />
<glyph unicode="&#xcf;" horiz-adv-x="526" d="M157 1330h212v-1330h-212v1330zM-59 1644q0 63 38.5 99.5t99.5 36.5q26 0 48.5 -9.5t39.5 -26t27 -39.5t10 -50q0 -32 -10.5 -57.5t-28.5 -43.5t-43 -27.5t-55 -9.5q-27 0 -50 9.5t-40 26.5t-26.5 40t-9.5 51zM322 1644q0 63 38.5 99.5t99.5 36.5q26 0 48.5 -9.5 t39.5 -26t27 -39.5t10 -50q0 -32 -10.5 -57.5t-28.5 -43.5t-43 -27.5t-55 -9.5q-27 0 -50 9.5t-40 26.5t-26.5 40t-9.5 51z" />
<glyph unicode="&#xd0;" horiz-adv-x="1309" d="M15 733h156v597h410q157 0 279 -47.5t204.5 -134.5t125.5 -208.5t43 -269.5q0 -152 -44.5 -275.5t-129.5 -211.5t-208.5 -135.5t-280.5 -47.5h-399v597h-156v136zM582 167q93 0 171 32.5t134.5 95t88 153.5t31.5 208q0 120 -29.5 214t-85.5 159t-137.5 99.5t-184.5 34.5 h-188v-430h348v-136h-348v-430h200z" />
<glyph unicode="&#xd1;" horiz-adv-x="1352" d="M364 1029v-1029h-207v1330h246l584 -1029v1029h208v-1330h-246zM343 1613q13 29 33.5 57.5t49 51t63.5 36.5t77 14q32 0 63.5 -11t60.5 -23.5t55 -23.5t48 -11q19 0 35 7t29 18t24 23.5t21 24.5l104 -88q-16 -33 -37.5 -62t-50 -50t-63 -33t-76.5 -12q-30 0 -58.5 11 t-56 23.5t-54 23.5t-53.5 11q-18 0 -34 -7t-29.5 -18t-24.5 -24t-20 -25z" />
<glyph unicode="&#xd2;" horiz-adv-x="1405" d="M709 154q89 0 160.5 34t122 98.5t77.5 157t27 210.5q0 122 -27.5 218.5t-79 164t-126 103.5t-167.5 36q-89 0 -161 -34t-122 -98.5t-77 -157t-27 -210.5q0 -122 27.5 -218.5t79 -164t126 -103.5t167.5 -36zM697 -20q-145 0 -259 47t-193 135.5t-120.5 215t-41.5 284.5 t43 285.5t123.5 217t196.5 137.5t263 48q144 0 258 -47.5t193 -136t120.5 -214.5t41.5 -284q0 -159 -43 -286t-123.5 -216.5t-196.5 -137.5t-262 -48zM901 1483l-480 157l83 183l447 -227z" />
<glyph unicode="&#xd3;" horiz-adv-x="1405" d="M709 154q89 0 160.5 34t122 98.5t77.5 157t27 210.5q0 122 -27.5 218.5t-79 164t-126 103.5t-167.5 36q-89 0 -161 -34t-122 -98.5t-77 -157t-27 -210.5q0 -122 27.5 -218.5t79 -164t126 -103.5t167.5 -36zM697 -20q-145 0 -259 47t-193 135.5t-120.5 215t-41.5 284.5 t43 285.5t123.5 217t196.5 137.5t263 48q144 0 258 -47.5t193 -136t120.5 -214.5t41.5 -284q0 -159 -43 -286t-123.5 -216.5t-196.5 -137.5t-262 -48zM438 1596l462 234l83 -184l-494 -163z" />
<glyph unicode="&#xd4;" horiz-adv-x="1405" d="M709 154q89 0 160.5 34t122 98.5t77.5 157t27 210.5q0 122 -27.5 218.5t-79 164t-126 103.5t-167.5 36q-89 0 -161 -34t-122 -98.5t-77 -157t-27 -210.5q0 -122 27.5 -218.5t79 -164t126 -103.5t167.5 -36zM697 -20q-145 0 -259 47t-193 135.5t-120.5 215t-41.5 284.5 t43 285.5t123.5 217t196.5 137.5t263 48q144 0 258 -47.5t193 -136t120.5 -214.5t41.5 -284q0 -159 -43 -286t-123.5 -216.5t-196.5 -137.5t-262 -48zM918 1457q-24 18 -52.5 39.5t-57.5 45t-56 46t-49 42.5q-22 -20 -49 -42.5t-55.5 -45.5t-57.5 -45t-54 -40l-102 135 q63 41 146.5 99t171.5 124q88 -66 171 -124t146 -99z" />
<glyph unicode="&#xd5;" horiz-adv-x="1405" d="M709 154q89 0 160.5 34t122 98.5t77.5 157t27 210.5q0 122 -27.5 218.5t-79 164t-126 103.5t-167.5 36q-89 0 -161 -34t-122 -98.5t-77 -157t-27 -210.5q0 -122 27.5 -218.5t79 -164t126 -103.5t167.5 -36zM697 -20q-145 0 -259 47t-193 135.5t-120.5 215t-41.5 284.5 t43 285.5t123.5 217t196.5 137.5t263 48q144 0 258 -47.5t193 -136t120.5 -214.5t41.5 -284q0 -159 -43 -286t-123.5 -216.5t-196.5 -137.5t-262 -48zM372 1613q13 29 34 57.5t49.5 51t63.5 36.5t77 14q32 0 63 -11t60 -23.5t55 -23.5t48 -11q19 0 35 7t29 18t24 23.5 t21 24.5l105 -88q-16 -33 -37.5 -62t-50 -50t-63 -33t-76.5 -12q-30 0 -58.5 11t-56 23.5t-54 23.5t-53.5 11q-19 0 -35 -7t-29.5 -18t-24.5 -24t-20 -25z" />
<glyph unicode="&#xd6;" horiz-adv-x="1405" d="M709 154q89 0 160.5 34t122 98.5t77.5 157t27 210.5q0 122 -27.5 218.5t-79 164t-126 103.5t-167.5 36q-89 0 -161 -34t-122 -98.5t-77 -157t-27 -210.5q0 -122 27.5 -218.5t79 -164t126 -103.5t167.5 -36zM697 -20q-145 0 -259 47t-193 135.5t-120.5 215t-41.5 284.5 t43 285.5t123.5 217t196.5 137.5t263 48q144 0 258 -47.5t193 -136t120.5 -214.5t41.5 -284q0 -159 -43 -286t-123.5 -216.5t-196.5 -137.5t-262 -48zM368 1644q0 63 38.5 99.5t98.5 36.5q26 0 49 -9.5t40 -26t27 -39.5t10 -50q0 -32 -10.5 -57.5t-28.5 -43.5t-43 -27.5 t-55 -9.5q-27 0 -50 9.5t-40 26.5t-26.5 40t-9.5 51zM775 1644q0 63 38.5 99.5t98.5 36.5q26 0 49 -9.5t40 -26t27 -39.5t10 -50q0 -32 -10.5 -57.5t-28.5 -43.5t-43 -27.5t-55 -9.5q-27 0 -50 9.5t-40 26.5t-26.5 40t-9.5 51z" />
<glyph unicode="&#xd7;" horiz-adv-x="1178" d="M1010 965l-299 -299l300 -300l-121 -121l-300 299l-300 -300l-123 122l300 300l-298 299l122 121l298 -299l300 299z" />
<glyph unicode="&#xd8;" horiz-adv-x="1405" d="M131 -92l145 224q-95 89 -144 222.5t-49 307.5q0 158 43 285.5t123.5 217t196.5 137.5t263 48q88 0 164.5 -18t142.5 -53l139 215l120 -72l-145 -225q94 -89 143 -222t49 -307q0 -159 -43 -286t-123.5 -216.5t-196.5 -137.5t-262 -48q-176 0 -308 70l-138 -215zM709 154 q89 0 160.5 34t122 98.5t77.5 157t27 210.5q0 110 -23 199t-65 155l-512 -792q45 -30 97.5 -46t115.5 -16zM309 676q0 -111 22.5 -200t64.5 -155l513 792q-45 31 -97.5 47t-115.5 16q-89 0 -161 -34t-122 -98.5t-77 -157t-27 -210.5z" />
<glyph unicode="&#xd9;" horiz-adv-x="1258" d="M332 529q0 -188 79 -280t219 -92q67 0 120.5 22.5t91 66.5t57.5 109t20 151v824h213v-810q0 -127 -35.5 -227t-101.5 -169.5t-161.5 -106.5t-215.5 -37q-117 0 -209.5 36t-157 104.5t-98.5 168t-34 227.5v814h213v-801zM808 1483l-480 157l83 183l447 -227z" />
<glyph unicode="&#xda;" horiz-adv-x="1258" d="M332 529q0 -188 79 -280t219 -92q67 0 120.5 22.5t91 66.5t57.5 109t20 151v824h213v-810q0 -127 -35.5 -227t-101.5 -169.5t-161.5 -106.5t-215.5 -37q-117 0 -209.5 36t-157 104.5t-98.5 168t-34 227.5v814h213v-801zM376 1596l462 234l83 -184l-494 -163z" />
<glyph unicode="&#xdb;" horiz-adv-x="1258" d="M332 529q0 -188 79 -280t219 -92q67 0 120.5 22.5t91 66.5t57.5 109t20 151v824h213v-810q0 -127 -35.5 -227t-101.5 -169.5t-161.5 -106.5t-215.5 -37q-117 0 -209.5 36t-157 104.5t-98.5 168t-34 227.5v814h213v-801zM842 1457q-24 18 -52.5 39.5t-57.5 45t-56 46 t-49 42.5q-22 -20 -49 -42.5t-55.5 -45.5t-57.5 -45t-54 -40l-102 135q63 41 146.5 99t171.5 124q88 -66 171.5 -124t146.5 -99z" />
<glyph unicode="&#xdc;" horiz-adv-x="1258" d="M332 529q0 -188 79 -280t219 -92q67 0 120.5 22.5t91 66.5t57.5 109t20 151v824h213v-810q0 -127 -35.5 -227t-101.5 -169.5t-161.5 -106.5t-215.5 -37q-117 0 -209.5 36t-157 104.5t-98.5 168t-34 227.5v814h213v-801zM292 1644q0 63 38.5 99.5t99.5 36.5 q26 0 48.5 -9.5t39.5 -26t27 -39.5t10 -50q0 -32 -10.5 -57.5t-28.5 -43.5t-43 -27.5t-55 -9.5q-27 0 -50 9.5t-40 26.5t-26.5 40t-9.5 51zM699 1644q0 63 38.5 99.5t99.5 36.5q26 0 48.5 -9.5t39.5 -26t27 -39.5t10 -50q0 -32 -10.5 -57.5t-28.5 -43.5t-43 -27.5t-55 -9.5 q-27 0 -50 9.5t-40 26.5t-26.5 40t-9.5 51z" />
<glyph unicode="&#xdd;" horiz-adv-x="1137" d="M461 507l-440 823h230l319 -623l318 623h228l-441 -823v-507h-214v507zM321 1596l462 234l82 -184l-494 -163z" />
<glyph unicode="&#xde;" horiz-adv-x="1086" d="M369 428h191q121 0 185.5 61t64.5 170q0 115 -64.5 176.5t-186.5 61.5h-190v-469zM157 0v1331h212v-268h194q111 0 198.5 -26t148 -75.5t92.5 -122t32 -166.5q0 -99 -33.5 -176t-95 -129.5t-149 -80t-194.5 -27.5h-193v-260h-212z" />
<glyph unicode="&#xdf;" horiz-adv-x="1165" d="M531 198q42 -17 99 -30.5t121 -13.5q74 0 115 25.5t41 76.5q0 27 -14.5 50.5t-40 47.5t-62 49t-79.5 54q-38 25 -70.5 50t-56.5 53.5t-37.5 62.5t-13.5 79q0 39 10.5 70.5t30.5 60.5t49 58t66 63q22 21 42 41.5t35 43.5t24 49t9 57q0 32 -12.5 61.5t-37.5 52t-63 36 t-89 13.5t-94.5 -17.5t-75 -51t-49 -82t-17.5 -110.5v-1047h-211v1065q0 88 33.5 164t94.5 132t146 87.5t189 31.5q98 0 172.5 -28t124.5 -73.5t75.5 -103t25.5 -115.5q0 -50 -12.5 -91t-34 -75.5t-50 -63.5t-59.5 -56q-31 -26 -53.5 -46.5t-37 -38t-21.5 -33.5t-7 -34 t7.5 -33.5t23.5 -31.5t42 -35t63 -44q54 -36 98 -69.5t76 -70.5t49.5 -79.5t17.5 -97.5q0 -134 -93.5 -207.5t-269.5 -73.5q-43 0 -83 5t-74.5 13.5t-61 18.5t-42.5 20z" />
<glyph unicode="&#xe0;" horiz-adv-x="984" d="M823 224q0 -42 16.5 -60.5t44.5 -18.5q20 0 34.5 3.5t25.5 7.5l19 -148q-24 -11 -58.5 -19.5t-75.5 -8.5q-70 0 -113 35t-62 89q-59 -60 -130 -92t-147 -32q-68 0 -125 20t-98.5 57t-65 88t-23.5 114q0 67 22.5 118t62 86.5t93 58t115 33t128 11t132.5 -6.5v105 q0 96 -45 148.5t-151 52.5q-39 0 -77 -6t-72.5 -15t-63.5 -19.5t-49 -19.5l-47 152q23 13 58.5 28.5t79.5 28.5t94.5 21.5t103.5 8.5q183 0 278.5 -91t95.5 -256v-473zM273 281q0 -64 41 -100t110 -36q54 0 103.5 24.5t90.5 63.5v197q-32 5 -70 6.5t-76.5 -1.5t-74 -12.5 t-63.5 -28t-44.5 -46t-16.5 -67.5zM670 1183l-479 157l83 183l447 -227z" />
<glyph unicode="&#xe1;" horiz-adv-x="984" d="M823 224q0 -42 16.5 -60.5t44.5 -18.5q20 0 34.5 3.5t25.5 7.5l19 -148q-24 -11 -58.5 -19.5t-75.5 -8.5q-70 0 -113 35t-62 89q-59 -60 -130 -92t-147 -32q-68 0 -125 20t-98.5 57t-65 88t-23.5 114q0 67 22.5 118t62 86.5t93 58t115 33t128 11t132.5 -6.5v105 q0 96 -45 148.5t-151 52.5q-39 0 -77 -6t-72.5 -15t-63.5 -19.5t-49 -19.5l-47 152q23 13 58.5 28.5t79.5 28.5t94.5 21.5t103.5 8.5q183 0 278.5 -91t95.5 -256v-473zM273 281q0 -64 41 -100t110 -36q54 0 103.5 24.5t90.5 63.5v197q-32 5 -70 6.5t-76.5 -1.5t-74 -12.5 t-63.5 -28t-44.5 -46t-16.5 -67.5zM185 1296l462 234l83 -184l-494 -163z" />
<glyph unicode="&#xe2;" horiz-adv-x="984" d="M823 224q0 -42 16.5 -60.5t44.5 -18.5q20 0 34.5 3.5t25.5 7.5l19 -148q-24 -11 -58.5 -19.5t-75.5 -8.5q-70 0 -113 35t-62 89q-59 -60 -130 -92t-147 -32q-68 0 -125 20t-98.5 57t-65 88t-23.5 114q0 67 22.5 118t62 86.5t93 58t115 33t128 11t132.5 -6.5v105 q0 96 -45 148.5t-151 52.5q-39 0 -77 -6t-72.5 -15t-63.5 -19.5t-49 -19.5l-47 152q23 13 58.5 28.5t79.5 28.5t94.5 21.5t103.5 8.5q183 0 278.5 -91t95.5 -256v-473zM273 281q0 -64 41 -100t110 -36q54 0 103.5 24.5t90.5 63.5v197q-32 5 -70 6.5t-76.5 -1.5t-74 -12.5 t-63.5 -28t-44.5 -46t-16.5 -67.5zM669 1157q-24 18 -52.5 39.5t-57.5 45t-56 46t-49 42.5q-22 -20 -49 -42.5t-55.5 -45.5t-57.5 -45t-54 -40l-102 135q63 41 146.5 99t171.5 124q88 -66 171.5 -124t146.5 -99z" />
<glyph unicode="&#xe3;" horiz-adv-x="984" d="M823 224q0 -42 16.5 -60.5t44.5 -18.5q20 0 34.5 3.5t25.5 7.5l19 -148q-24 -11 -58.5 -19.5t-75.5 -8.5q-70 0 -113 35t-62 89q-59 -60 -130 -92t-147 -32q-68 0 -125 20t-98.5 57t-65 88t-23.5 114q0 67 22.5 118t62 86.5t93 58t115 33t128 11t132.5 -6.5v105 q0 96 -45 148.5t-151 52.5q-39 0 -77 -6t-72.5 -15t-63.5 -19.5t-49 -19.5l-47 152q23 13 58.5 28.5t79.5 28.5t94.5 21.5t103.5 8.5q183 0 278.5 -91t95.5 -256v-473zM273 281q0 -64 41 -100t110 -36q54 0 103.5 24.5t90.5 63.5v197q-32 5 -70 6.5t-76.5 -1.5t-74 -12.5 t-63.5 -28t-44.5 -46t-16.5 -67.5zM120 1313q13 29 34 57.5t49.5 51t63.5 36.5t77 14q32 0 63 -11t60 -23.5t55 -23.5t49 -11q19 0 34.5 7t28.5 18t24 23.5t22 24.5l104 -88q-16 -33 -37.5 -62t-50 -50t-63 -33t-76.5 -12q-30 0 -58.5 11t-56 23.5t-54 23.5t-53.5 11 q-18 0 -34 -7t-29.5 -18t-25 -24t-20.5 -25z" />
<glyph unicode="&#xe4;" horiz-adv-x="984" d="M823 224q0 -42 16.5 -60.5t44.5 -18.5q20 0 34.5 3.5t25.5 7.5l19 -148q-24 -11 -58.5 -19.5t-75.5 -8.5q-70 0 -113 35t-62 89q-59 -60 -130 -92t-147 -32q-68 0 -125 20t-98.5 57t-65 88t-23.5 114q0 67 22.5 118t62 86.5t93 58t115 33t128 11t132.5 -6.5v105 q0 96 -45 148.5t-151 52.5q-39 0 -77 -6t-72.5 -15t-63.5 -19.5t-49 -19.5l-47 152q23 13 58.5 28.5t79.5 28.5t94.5 21.5t103.5 8.5q183 0 278.5 -91t95.5 -256v-473zM273 281q0 -64 41 -100t110 -36q54 0 103.5 24.5t90.5 63.5v197q-32 5 -70 6.5t-76.5 -1.5t-74 -12.5 t-63.5 -28t-44.5 -46t-16.5 -67.5zM130 1344q0 31 10.5 56t28.5 43t43.5 27.5t55.5 9.5q26 0 49 -9.5t40 -26t27 -39.5t10 -50q0 -64 -39 -101t-99 -37q-26 0 -49 9.5t-40 26.5t-27 40t-10 51zM537 1344q0 31 10.5 56t28.5 43t43.5 27.5t55.5 9.5q26 0 49 -9.5t40 -26 t27 -39.5t10 -50q0 -64 -39 -101t-99 -37q-26 0 -49 9.5t-40 26.5t-27 40t-10 51z" />
<glyph unicode="&#xe5;" horiz-adv-x="984" d="M823 224q0 -42 16.5 -60.5t44.5 -18.5q20 0 34.5 3.5t25.5 7.5l19 -148q-24 -11 -58.5 -19.5t-75.5 -8.5q-70 0 -113 35t-62 89q-59 -60 -130 -92t-147 -32q-68 0 -125 20t-98.5 57t-65 88t-23.5 114q0 67 22.5 118t62 86.5t93 58t115 33t128 11t132.5 -6.5v105 q0 96 -45 148.5t-151 52.5q-39 0 -77 -6t-72.5 -15t-63.5 -19.5t-49 -19.5l-47 152q23 13 58.5 28.5t79.5 28.5t94.5 21.5t103.5 8.5q183 0 278.5 -91t95.5 -256v-473zM273 281q0 -64 41 -100t110 -36q54 0 103.5 24.5t90.5 63.5v197q-32 5 -70 6.5t-76.5 -1.5t-74 -12.5 t-63.5 -28t-44.5 -46t-16.5 -67.5zM369 1350q0 -38 25.5 -63t60.5 -25q39 0 64.5 26t25.5 64q0 19 -7 34.5t-19 27t-28 18t-34 6.5q-38 0 -63 -25t-25 -63zM234 1344q0 50 17 91t47.5 70t72.5 45t92 16q45 0 84 -15.5t68.5 -43t46.5 -66t17 -83.5q0 -50 -17 -91.5 t-47.5 -70.5t-73 -45t-92.5 -16q-44 0 -83.5 15.5t-68.5 43t-46 66t-17 84.5z" />
<glyph unicode="&#xe6;" horiz-adv-x="1557" d="M839 453q10 -146 85.5 -220t202.5 -74q91 0 156.5 15.5t110.5 32.5l50 -153q-54 -29 -142 -51.5t-203 -22.5q-109 0 -198.5 42t-152.5 120q-97 -84 -185.5 -123t-181.5 -39q-68 0 -125.5 21.5t-99.5 60t-65.5 92.5t-23.5 119q0 64 28.5 117t81 91.5t126 61.5t164.5 28 q39 2 78.5 3.5t79.5 2.5v87q0 103 -48 152t-154 49q-32 0 -66.5 -5t-69.5 -13t-69.5 -19.5t-64.5 -24.5l-44 154q34 18 76 33.5t87.5 27.5t92 19t90.5 7q109 0 188 -39.5t124 -113.5q60 73 143 113t186 40q92 0 163.5 -26.5t120.5 -76t74.5 -120.5t25.5 -159q0 -55 -9 -107 t-23 -86zM1269 598q4 23 5 40t0 33q-1 98 -51.5 153t-141.5 55q-51 0 -92.5 -20.5t-72 -58.5t-49.5 -92.5t-24 -122.5zM275 290q0 -68 39.5 -104.5t107.5 -36.5q63 0 123 30t109 78q-13 47 -20 97t-9 97q-80 -3 -159 -9q-91 -8 -141 -49.5t-50 -102.5z" />
<glyph unicode="&#xe7;" horiz-adv-x="915" d="M298 519q0 -171 79.5 -265.5t227.5 -94.5q61 0 119 14t100 32l50 -154q-51 -29 -130.5 -50t-169.5 -21q-113 0 -204.5 38t-156.5 106.5t-100.5 164.5t-35.5 213q0 121 36 221t103 171.5t161.5 110.5t210.5 39q87 0 157 -21.5t113 -45.5l-53 -154q-34 13 -87.5 27.5 t-121.5 14.5q-70 0 -125 -24t-93.5 -69t-59 -109t-20.5 -144zM374 -355q12 -4 33 -7t47 -3q45 0 66 21.5t21 52.5q0 33 -21.5 52.5t-64.5 19.5h-61l10 114h96q43 0 80 -10.5t63.5 -32.5t41.5 -54.5t15 -76.5q0 -51 -17.5 -89t-49.5 -63t-77 -37t-99 -12q-32 0 -59.5 5.5 t-41.5 12.5z" />
<glyph unicode="&#xe8;" horiz-adv-x="1022" d="M296 467q6 -151 84.5 -229.5t221.5 -78.5q76 0 144 15.5t116 32.5l48 -156q-25 -12 -60.5 -24.5t-78.5 -23t-92.5 -17t-103.5 -6.5q-116 0 -208 38t-156.5 107t-99 165t-34.5 213q0 121 34 221t97 171t153 110t203 39q92 0 163.5 -26.5t120 -76t74 -119.5t25.5 -156 q0 -62 -10 -115t-21 -84h-620zM544 879q-55 0 -99 -19.5t-75.5 -55.5t-50 -88t-22.5 -116h437q5 18 6.5 37.5t1.5 42.5q-2 97 -54.5 148t-143.5 51zM755 1183l-480 157l83 183l447 -227z" />
<glyph unicode="&#xe9;" horiz-adv-x="1022" d="M296 467q6 -151 84.5 -229.5t221.5 -78.5q76 0 144 15.5t116 32.5l48 -156q-25 -12 -60.5 -24.5t-78.5 -23t-92.5 -17t-103.5 -6.5q-116 0 -208 38t-156.5 107t-99 165t-34.5 213q0 121 34 221t97 171t153 110t203 39q92 0 163.5 -26.5t120 -76t74 -119.5t25.5 -156 q0 -62 -10 -115t-21 -84h-620zM544 879q-55 0 -99 -19.5t-75.5 -55.5t-50 -88t-22.5 -116h437q5 18 6.5 37.5t1.5 42.5q-2 97 -54.5 148t-143.5 51zM278 1296l462 234l82 -184l-493 -163z" />
<glyph unicode="&#xea;" horiz-adv-x="1022" d="M296 467q6 -151 84.5 -229.5t221.5 -78.5q76 0 144 15.5t116 32.5l48 -156q-25 -12 -60.5 -24.5t-78.5 -23t-92.5 -17t-103.5 -6.5q-116 0 -208 38t-156.5 107t-99 165t-34.5 213q0 121 34 221t97 171t153 110t203 39q92 0 163.5 -26.5t120 -76t74 -119.5t25.5 -156 q0 -62 -10 -115t-21 -84h-620zM544 879q-55 0 -99 -19.5t-75.5 -55.5t-50 -88t-22.5 -116h437q5 18 6.5 37.5t1.5 42.5q-2 97 -54.5 148t-143.5 51zM755 1157q-25 18 -53.5 39.5t-57 45t-56 46t-49.5 42.5q-22 -20 -48.5 -42.5t-55 -45.5t-57.5 -45t-54 -40l-102 135 q63 41 146 99t171 124q89 -66 172 -124t146 -99z" />
<glyph unicode="&#xeb;" horiz-adv-x="1022" d="M296 467q6 -151 84.5 -229.5t221.5 -78.5q76 0 144 15.5t116 32.5l48 -156q-25 -12 -60.5 -24.5t-78.5 -23t-92.5 -17t-103.5 -6.5q-116 0 -208 38t-156.5 107t-99 165t-34.5 213q0 121 34 221t97 171t153 110t203 39q92 0 163.5 -26.5t120 -76t74 -119.5t25.5 -156 q0 -62 -10 -115t-21 -84h-620zM544 879q-55 0 -99 -19.5t-75.5 -55.5t-50 -88t-22.5 -116h437q5 18 6.5 37.5t1.5 42.5q-2 97 -54.5 148t-143.5 51zM205 1344q0 63 38.5 99.5t98.5 36.5q26 0 49 -9.5t40 -26t27 -39.5t10 -50q0 -64 -39 -101t-99 -37q-26 0 -49 9.5t-40 26.5 t-26.5 40t-9.5 51zM612 1344q0 63 38.5 99.5t98.5 36.5q26 0 49 -9.5t40 -26t27 -39.5t10 -50q0 -64 -39 -101t-99 -37q-26 0 -49 9.5t-40 26.5t-26.5 40t-9.5 51z" />
<glyph unicode="&#xec;" horiz-adv-x="525" d="M368 1024v-1024h-211v1024h211zM457 1183l-479 157l83 183l446 -227z" />
<glyph unicode="&#xed;" horiz-adv-x="525" d="M368 1024v-1024h-211v1024h211zM48 1296l462 234l82 -184l-494 -163z" />
<glyph unicode="&#xee;" horiz-adv-x="525" d="M368 1024v-1024h-211v1024h211zM478 1157q-25 18 -53.5 39.5t-57.5 45t-56 46t-49 42.5q-22 -20 -49 -42.5t-55.5 -45.5t-57 -45t-53.5 -40l-103 135q31 20 68.5 45.5t78.5 54t84 59.5t87 64q88 -66 171.5 -124t146.5 -99z" />
<glyph unicode="&#xef;" horiz-adv-x="525" d="M368 1024v-1024h-211v1024h211zM-56 1344q0 63 38.5 99.5t98.5 36.5q26 0 49 -9.5t40 -26t27 -39.5t10 -50q0 -32 -10.5 -57.5t-28.5 -43.5t-43 -27.5t-55 -9.5q-27 0 -50 9.5t-40 26.5t-26.5 40t-9.5 51zM318 1344q0 63 38.5 99.5t98.5 36.5q26 0 49 -9.5t40 -26 t27 -39.5t10 -50q0 -32 -10.5 -57.5t-28.5 -43.5t-43 -27.5t-55 -9.5q-27 0 -50 9.5t-40 26.5t-26.5 40t-9.5 51z" />
<glyph unicode="&#xf0;" horiz-adv-x="1139" d="M449 1317q-35 0 -65.5 -4t-55.5 -9.5t-42 -11t-25 -8.5l-40 146q10 4 30 11.5t47.5 15t61 13.5t71.5 8q46 1 93 -3q24 -2 47 -6.5t46 -10.5l90 130l115 -77l-77 -110q78 -50 135 -130t94.5 -183.5t55.5 -229t18 -267.5q0 -132 -31 -243.5t-93.5 -193.5t-155.5 -128 t-216 -46q-110 0 -198 38t-149.5 107t-94.5 165.5t-33 212.5q0 121 33.5 221t96.5 171t152 110t200 39q81 0 142.5 -29.5t107.5 -79.5q-24 115 -65 192.5t-98 123.5l-87 -125l-112 77l73 106q-17 4 -34.5 6t-36.5 2zM855 584h-20q-32 144 -98 219.5t-184 75.5 q-62 0 -110 -25.5t-80 -73t-48.5 -114t-16.5 -147.5q0 -86 17 -155.5t50 -118t83 -75t116 -26.5q58 0 106.5 26.5t83.5 78.5t54 128.5t19 176.5z" />
<glyph unicode="&#xf1;" horiz-adv-x="1154" d="M327 1024l22 -118q33 29 71.5 54t80.5 44t87 29.5t92 10.5q165 0 248.5 -92t83.5 -278v-674h-212v642q0 221 -184 221q-29 0 -62 -8t-66.5 -21.5t-64.5 -32.5t-55 -41v-760h-211v1024h170zM238 1313q13 29 34 57.5t49 51t63.5 36.5t76.5 14q32 0 63.5 -11t60.5 -23.5 t55 -23.5t48 -11q19 0 35 7t29 18t24 23.5t21 24.5l105 -88q-16 -33 -38 -62t-50 -50t-62.5 -33t-76.5 -12q-30 0 -59 11t-56.5 23.5t-54 23.5t-52.5 11q-19 0 -35 -7t-29.5 -18t-24.5 -24t-20 -25z" />
<glyph unicode="&#xf2;" horiz-adv-x="1131" d="M559 -20q-110 0 -199 38t-152 107t-97 165.5t-34 213.5q0 121 35 220.5t99.5 170.5t156 110t204.5 39q110 0 199 -38t152 -107t97 -165t34 -213q0 -122 -35 -221.5t-99.5 -170.5t-156 -110t-204.5 -39zM571 144q62 0 111 26t82.5 73t51 114t17.5 148q0 86 -18 155.5 t-52.5 118t-85.5 74.5t-117 26q-62 0 -111 -25.5t-82.5 -73t-51 -113.5t-17.5 -147q0 -86 18 -155.5t52.5 -118.5t85.5 -75.5t117 -26.5zM778 1183l-480 157l83 183l447 -227z" />
<glyph unicode="&#xf3;" horiz-adv-x="1131" d="M559 -20q-110 0 -199 38t-152 107t-97 165.5t-34 213.5q0 121 35 220.5t99.5 170.5t156 110t204.5 39q110 0 199 -38t152 -107t97 -165t34 -213q0 -122 -35 -221.5t-99.5 -170.5t-156 -110t-204.5 -39zM571 144q62 0 111 26t82.5 73t51 114t17.5 148q0 86 -18 155.5 t-52.5 118t-85.5 74.5t-117 26q-62 0 -111 -25.5t-82.5 -73t-51 -113.5t-17.5 -147q0 -86 18 -155.5t52.5 -118.5t85.5 -75.5t117 -26.5zM301 1296l462 234l82 -184l-493 -163z" />
<glyph unicode="&#xf4;" horiz-adv-x="1131" d="M559 -20q-110 0 -199 38t-152 107t-97 165.5t-34 213.5q0 121 35 220.5t99.5 170.5t156 110t204.5 39q110 0 199 -38t152 -107t97 -165t34 -213q0 -122 -35 -221.5t-99.5 -170.5t-156 -110t-204.5 -39zM571 144q62 0 111 26t82.5 73t51 114t17.5 148q0 86 -18 155.5 t-52.5 118t-85.5 74.5t-117 26q-62 0 -111 -25.5t-82.5 -73t-51 -113.5t-17.5 -147q0 -86 18 -155.5t52.5 -118.5t85.5 -75.5t117 -26.5zM781 1157q-25 18 -53.5 39.5t-57 45t-56 46t-49.5 42.5q-22 -20 -48.5 -42.5t-55 -45.5t-57.5 -45t-54 -40l-102 135q63 41 146 99 t171 124q89 -66 172 -124t146 -99z" />
<glyph unicode="&#xf5;" horiz-adv-x="1131" d="M559 -20q-110 0 -199 38t-152 107t-97 165.5t-34 213.5q0 121 35 220.5t99.5 170.5t156 110t204.5 39q110 0 199 -38t152 -107t97 -165t34 -213q0 -122 -35 -221.5t-99.5 -170.5t-156 -110t-204.5 -39zM571 144q62 0 111 26t82.5 73t51 114t17.5 148q0 86 -18 155.5 t-52.5 118t-85.5 74.5t-117 26q-62 0 -111 -25.5t-82.5 -73t-51 -113.5t-17.5 -147q0 -86 18 -155.5t52.5 -118.5t85.5 -75.5t117 -26.5zM235 1313q13 29 34 57.5t49.5 51t63.5 36.5t77 14q32 0 63 -11t60 -23.5t55 -23.5t48 -11q19 0 35 7t29 18t24 23.5t21 24.5l105 -88 q-16 -33 -37.5 -62t-50 -50t-63 -33t-76.5 -12q-30 0 -58.5 11t-56 23.5t-54.5 23.5t-53 11q-19 0 -35 -7t-29.5 -18t-24.5 -24t-20 -25z" />
<glyph unicode="&#xf6;" horiz-adv-x="1131" d="M559 -20q-110 0 -199 38t-152 107t-97 165.5t-34 213.5q0 121 35 220.5t99.5 170.5t156 110t204.5 39q110 0 199 -38t152 -107t97 -165t34 -213q0 -122 -35 -221.5t-99.5 -170.5t-156 -110t-204.5 -39zM571 144q62 0 111 26t82.5 73t51 114t17.5 148q0 86 -18 155.5 t-52.5 118t-85.5 74.5t-117 26q-62 0 -111 -25.5t-82.5 -73t-51 -113.5t-17.5 -147q0 -86 18 -155.5t52.5 -118.5t85.5 -75.5t117 -26.5zM231 1344q0 63 38.5 99.5t98.5 36.5q26 0 49 -9.5t40 -26t27 -39.5t10 -50q0 -64 -39 -101t-99 -37q-26 0 -49 9.5t-40 26.5t-26.5 40 t-9.5 51zM638 1344q0 63 38.5 99.5t98.5 36.5q26 0 49 -9.5t40 -26t27 -39.5t10 -50q0 -64 -39 -101t-99 -37q-26 0 -49 9.5t-40 26.5t-26.5 40t-9.5 51z" />
<glyph unicode="&#xf7;" horiz-adv-x="1145" d="M172 747h801v-165h-801v165zM441 1006q0 63 38.5 100t98.5 37q26 0 49 -9.5t40 -26t27 -39.5t10 -50q0 -32 -10.5 -57.5t-28.5 -43.5t-43 -27.5t-55 -9.5q-27 0 -50 9.5t-40 26t-26.5 39.5t-9.5 51zM441 311q0 63 38.5 100t98.5 37q26 0 49 -9.5t40 -26t27 -39.5t10 -50 q0 -32 -10.5 -57.5t-28.5 -43.5t-43 -27.5t-55 -9.5q-27 0 -50 9.5t-40 26t-26.5 39.5t-9.5 51z" />
<glyph unicode="&#xf8;" horiz-adv-x="1131" d="M559 -20q-128 0 -229 52l-130 -201l-108 64l136 211q-72 69 -111.5 170t-39.5 228q0 121 35 220.5t99.5 170.5t156 110t204.5 39q64 0 121 -13.5t107 -39.5l131 202l108 -64l-136 -211q72 -69 111.5 -170.5t39.5 -226.5q0 -122 -35 -221.5t-99.5 -170.5t-156 -110 t-204.5 -39zM298 520q0 -70 12.5 -128t35.5 -103l356 549q-59 41 -142 41q-62 0 -111 -25.5t-82.5 -73t-51 -113.5t-17.5 -147zM571 144q62 0 111 26t82.5 73t51 114t17.5 148q0 69 -12.5 127t-35.5 103l-356 -550q59 -41 142 -41z" />
<glyph unicode="&#xf9;" horiz-adv-x="1134" d="M806 0l-21 118q-32 -30 -69.5 -55t-79 -43.5t-85.5 -29t-89 -10.5q-160 0 -242 92t-82 278v674h212v-642q0 -222 176 -222q27 0 59 8t64 22t62 33t54 41v760h212v-1024h-171zM760 1183l-480 157l83 183l447 -227z" />
<glyph unicode="&#xfa;" horiz-adv-x="1134" d="M806 0l-21 118q-32 -30 -69.5 -55t-79 -43.5t-85.5 -29t-89 -10.5q-160 0 -242 92t-82 278v674h212v-642q0 -222 176 -222q27 0 59 8t64 22t62 33t54 41v760h212v-1024h-171zM293 1296l462 234l82 -184l-493 -163z" />
<glyph unicode="&#xfb;" horiz-adv-x="1134" d="M806 0l-21 118q-32 -30 -69.5 -55t-79 -43.5t-85.5 -29t-89 -10.5q-160 0 -242 92t-82 278v674h212v-642q0 -222 176 -222q27 0 59 8t64 22t62 33t54 41v760h212v-1024h-171zM773 1157q-25 18 -53.5 39.5t-57.5 45t-56 46t-49 42.5q-22 -20 -49 -42.5t-55.5 -45.5 t-57 -45t-53.5 -40l-103 135q31 20 68.5 45.5t78.5 54t84 59.5t87 64q88 -66 171.5 -124t146.5 -99z" />
<glyph unicode="&#xfc;" horiz-adv-x="1134" d="M806 0l-21 118q-32 -30 -69.5 -55t-79 -43.5t-85.5 -29t-89 -10.5q-160 0 -242 92t-82 278v674h212v-642q0 -222 176 -222q27 0 59 8t64 22t62 33t54 41v760h212v-1024h-171zM222 1344q0 31 10.5 56t28.5 43t43.5 27.5t55.5 9.5q26 0 49 -9.5t40 -26t27 -39.5t10 -50 q0 -64 -39 -101t-99 -37q-26 0 -49 9.5t-40 26.5t-27 40t-10 51zM629 1344q0 31 10.5 56t28.5 43t43.5 27.5t55.5 9.5q26 0 49 -9.5t40 -26t27 -39.5t10 -50q0 -64 -39 -101t-99 -37q-26 0 -49 9.5t-40 26.5t-27 40t-10 51z" />
<glyph unicode="&#xfd;" horiz-adv-x="1050" d="M1026 1024l-352 -1013q-41 -118 -86 -199.5t-99 -132t-120 -73t-151 -22.5q-33 0 -63.5 4.5t-56.5 11.5t-46 14.5t-31 12.5l42 157q15 -6 54.5 -17t94.5 -11q40 0 73.5 11.5t60.5 38t49.5 68.5t41.5 102l-52 119q-94 232 -185 463.5t-185 465.5h230l263 -730l36 -87 l255 817h227zM267 1296l462 234l82 -184l-494 -163z" />
<glyph unicode="&#xfe;" horiz-adv-x="1150" d="M1073 520q0 -119 -36 -218t-101.5 -170.5t-156 -111.5t-198.5 -40q-54 0 -109.5 13.5t-103.5 36.5v-426h-211v1856l211 20v-507q48 25 98 40.5t103 20.5q39 4 79 2.5t79 -9.5q81 -17 145 -60.5t109 -109t68.5 -151t23.5 -186.5zM852 505q0 81 -20 147.5t-57.5 114 t-91 73.5t-119.5 26q-51 0 -102 -13.5t-94 -38.5v-613q39 -20 92 -33.5t113 -13.5q66 0 118 26t87.5 72.5t54.5 111t19 141.5z" />
<glyph unicode="&#xff;" horiz-adv-x="1050" d="M1026 1024l-352 -1013q-41 -118 -86 -199.5t-99 -132t-120 -73t-151 -22.5q-33 0 -63.5 4.5t-56.5 11.5t-46 14.5t-31 12.5l42 157q15 -6 54.5 -17t94.5 -11q40 0 73.5 11.5t60.5 38t49.5 68.5t41.5 102l-52 119q-94 232 -185 463.5t-185 465.5h230l263 -730l36 -87 l255 817h227zM162 1344q0 31 10.5 56t28.5 43t43.5 27.5t55.5 9.5q26 0 49 -9.5t40 -26t27 -39.5t10 -50q0 -64 -39 -101t-99 -37q-26 0 -49 9.5t-40 26.5t-27 40t-10 51zM611 1344q0 31 10.5 56t28.5 43t43.5 27.5t55.5 9.5q26 0 49 -9.5t40 -26t27 -39.5t10 -50 q0 -64 -39 -101t-99 -37q-26 0 -49 9.5t-40 26.5t-27 40t-10 51z" />
<glyph unicode="&#x100;" horiz-adv-x="1263" d="M892 337h-521l-122 -337h-228l512 1330h197l512 -1330h-228zM431 506h401q-41 115 -79.5 228t-78.5 227l-44 115zM342 1736h578v-157h-578v157z" />
<glyph unicode="&#x101;" horiz-adv-x="984" d="M823 224q0 -42 16.5 -60.5t44.5 -18.5q20 0 34.5 3.5t25.5 7.5l19 -148q-24 -11 -58.5 -19.5t-75.5 -8.5q-70 0 -113 35t-62 89q-59 -60 -130 -92t-147 -32q-68 0 -125 20t-98.5 57t-65 88t-23.5 114q0 67 22.5 118t62 86.5t93 58t115 33t128 11t132.5 -6.5v105 q0 96 -45 148.5t-151 52.5q-39 0 -77 -6t-72.5 -15t-63.5 -19.5t-49 -19.5l-47 152q23 13 58.5 28.5t79.5 28.5t94.5 21.5t103.5 8.5q183 0 278.5 -91t95.5 -256v-473zM273 281q0 -64 41 -100t110 -36q54 0 103.5 24.5t90.5 63.5v197q-32 5 -70 6.5t-76.5 -1.5t-74 -12.5 t-63.5 -28t-44.5 -46t-16.5 -67.5zM167 1429h578v-157h-578v157z" />
<glyph unicode="&#x102;" horiz-adv-x="1263" d="M894 333h-525l-120 -333h-228l512 1330h197l512 -1330h-228zM429 502h405q-42 115 -81 229.5t-79 229.5l-44 115zM504 1783q1 -32 8 -60.5t22 -50t38.5 -34t58.5 -12.5t59 12.5t39 34t22 50t8 60.5h149q7 -75 -12.5 -132.5t-58 -96t-92 -58t-114.5 -19.5t-114.5 19.5 t-91.5 58t-57.5 96t-12.5 132.5h149z" />
<glyph unicode="&#x103;" horiz-adv-x="984" d="M823 224q0 -42 16.5 -60.5t44.5 -18.5q20 0 34.5 3.5t25.5 7.5l19 -148q-24 -11 -58.5 -19.5t-75.5 -8.5q-70 0 -113 35t-62 89q-59 -60 -130 -92t-147 -32q-68 0 -125 20t-98.5 57t-65 88t-23.5 114q0 67 22.5 118t62 86.5t93 58t115 33t128 11t132.5 -6.5v105 q0 96 -45 148.5t-151 52.5q-39 0 -77 -6t-72.5 -15t-63.5 -19.5t-49 -19.5l-47 152q23 13 58.5 28.5t79.5 28.5t94.5 21.5t103.5 8.5q183 0 278.5 -91t95.5 -256v-473zM273 281q0 -64 41 -100t110 -36q54 0 103.5 24.5t90.5 63.5v197q-32 5 -70 6.5t-76.5 -1.5t-74 -12.5 t-63.5 -28t-44.5 -46t-16.5 -67.5zM333 1476q1 -32 8 -60.5t22 -49.5t38.5 -33.5t58.5 -12.5t59 12.5t39 33.5t22 49.5t8 60.5h149q7 -75 -12.5 -132.5t-58 -96t-92 -58t-114.5 -19.5t-114.5 19.5t-91.5 58t-57.5 96t-12.5 132.5h149z" />
<glyph unicode="&#x104;" horiz-adv-x="1263" d="M1173 0q-24 -18 -48.5 -40.5t-43.5 -47.5t-31 -53t-12 -58q0 -49 25 -73t66 -24q19 0 37 3.5t33.5 8t26.5 9.5t17 8l39 -121q-8 -7 -26 -16t-42 -17.5t-53.5 -14.5t-60.5 -6q-47 0 -90 12.5t-75.5 38t-52 64t-19.5 89.5q0 39 13.5 74.5t35.5 65.5t48.5 55t52.5 43 l-119 333h-525l-120 -333h-228l512 1330h197l512 -1330h-69zM429 502h405q-42 115 -81 229.5t-79 229.5l-44 115z" />
<glyph unicode="&#x105;" horiz-adv-x="984" d="M823 224q0 -42 16.5 -60.5t44.5 -18.5q20 0 34.5 3.5t25.5 7.5l19 -148q-29 -16 -57 -38t-50.5 -48.5t-36.5 -57t-14 -63.5q0 -49 25 -73t66 -24q19 0 37 3.5t33.5 8t26.5 9.5t17 8l39 -121q-8 -7 -26 -16t-42 -17.5t-53.5 -14.5t-60.5 -6q-47 0 -90 12.5t-75.5 38 t-52 64t-19.5 89.5q0 36 12 69t31 62t43.5 53t48.5 43q-45 12 -71.5 43.5t-39.5 71.5q-59 -60 -130 -92t-147 -32q-68 0 -125 20t-98.5 57t-65 88t-23.5 114q0 67 22.5 118t62 86.5t93 58t115 33t128 11t132.5 -6.5v105q0 96 -45 148.5t-151 52.5q-39 0 -77 -6t-72.5 -15 t-63.5 -19.5t-49 -19.5l-47 152q23 13 58.5 28.5t79.5 28.5t94.5 21.5t103.5 8.5q183 0 278.5 -91t95.5 -256v-473zM273 281q0 -64 41 -100t110 -36q54 0 103.5 24.5t90.5 63.5v197q-32 5 -70 6.5t-76.5 -1.5t-74 -12.5t-63.5 -28t-44.5 -46t-16.5 -67.5z" />
<glyph unicode="&#x106;" horiz-adv-x="1148" d="M83 662q0 153 46 279.5t132 217.5t209 141t276 50q42 0 84 -5.5t81.5 -15t75 -22t62.5 -27.5l-49 -161q-55 21 -117.5 35.5t-133.5 14.5q-101 0 -182 -32.5t-138.5 -95.5t-88.5 -154.5t-31 -208.5q0 -118 30.5 -213.5t88.5 -163t142.5 -104t192.5 -36.5q72 0 142 15.5 t124 39.5l54 -159q-31 -17 -69 -31t-81 -24.5t-88 -16t-89 -5.5q-158 0 -283 48t-211.5 137t-132.5 215t-46 282zM425 1596l463 234l82 -184l-494 -163z" />
<glyph unicode="&#x107;" horiz-adv-x="915" d="M298 519q0 -171 79.5 -265.5t227.5 -94.5q61 0 119 14t100 32l50 -154q-51 -29 -130.5 -50t-169.5 -21q-113 0 -204.5 38t-156.5 106.5t-100.5 164.5t-35.5 213q0 121 36 221t103 171.5t161.5 110.5t210.5 39q87 0 157 -21.5t113 -45.5l-53 -154q-34 13 -87.5 27.5 t-121.5 14.5q-70 0 -125 -24t-93.5 -69t-59 -109t-20.5 -144zM276 1296l463 234l82 -184l-494 -163z" />
<glyph unicode="&#x108;" horiz-adv-x="1148" d="M83 662q0 153 46 279.5t132 217.5t209 141t276 50q42 0 84 -5.5t81.5 -15t75 -22t62.5 -27.5l-49 -161q-55 21 -117.5 35.5t-133.5 14.5q-101 0 -182 -32.5t-138.5 -95.5t-88.5 -154.5t-31 -208.5q0 -118 30.5 -213.5t88.5 -163t142.5 -104t192.5 -36.5q72 0 142 15.5 t124 39.5l54 -159q-31 -17 -69 -31t-81 -24.5t-88 -16t-89 -5.5q-158 0 -283 48t-211.5 137t-132.5 215t-46 282zM919 1457q-25 18 -53.5 39.5t-57.5 45t-56 46t-49 42.5q-22 -20 -49 -42.5t-55.5 -45.5t-57.5 -45t-54 -40l-102 135q31 20 68.5 45.5t78.5 54t84 59.5t87 64 q88 -66 171.5 -124t146.5 -99z" />
<glyph unicode="&#x109;" horiz-adv-x="915" d="M298 519q0 -171 79.5 -265.5t227.5 -94.5q61 0 119 14t100 32l50 -154q-51 -29 -130.5 -50t-169.5 -21q-113 0 -204.5 38t-156.5 106.5t-100.5 164.5t-35.5 213q0 121 36 221t103 171.5t161.5 110.5t210.5 39q87 0 157 -21.5t113 -45.5l-53 -154q-34 13 -87.5 27.5 t-121.5 14.5q-70 0 -125 -24t-93.5 -69t-59 -109t-20.5 -144zM767 1157q-25 18 -53.5 39.5t-57.5 45t-56 46t-49 42.5q-22 -20 -49 -42.5t-55.5 -45.5t-57.5 -45t-54 -40l-102 135q31 20 68.5 45.5t78.5 54t84 59.5t87 64q88 -66 171.5 -124t146.5 -99z" />
<glyph unicode="&#x10a;" horiz-adv-x="1148" d="M83 662q0 153 46 279.5t132 217.5t209 141t276 50q42 0 84 -5.5t81.5 -15t75 -22t62.5 -27.5l-49 -161q-55 21 -117.5 35.5t-133.5 14.5q-101 0 -182 -32.5t-138.5 -95.5t-88.5 -154.5t-31 -208.5q0 -118 30.5 -213.5t88.5 -163t142.5 -104t192.5 -36.5q72 0 142 15.5 t124 39.5l54 -159q-31 -17 -69 -31t-81 -24.5t-88 -16t-89 -5.5q-158 0 -283 48t-211.5 137t-132.5 215t-46 282zM575 1644q0 63 38.5 99.5t98.5 36.5q26 0 49 -9.5t40 -26t27 -39.5t10 -50q0 -64 -39 -101t-99 -37q-26 0 -49 9.5t-40 26.5t-26.5 40t-9.5 51z" />
<glyph unicode="&#x10b;" horiz-adv-x="915" d="M298 519q0 -171 79.5 -265.5t227.5 -94.5q61 0 119 14t100 32l50 -154q-51 -29 -130.5 -50t-169.5 -21q-113 0 -204.5 38t-156.5 106.5t-100.5 164.5t-35.5 213q0 121 36 221t103 171.5t161.5 110.5t210.5 39q87 0 157 -21.5t113 -45.5l-53 -154q-34 13 -87.5 27.5 t-121.5 14.5q-70 0 -125 -24t-93.5 -69t-59 -109t-20.5 -144zM423 1344q0 63 38.5 99.5t98.5 36.5q26 0 49 -9.5t40 -26t27 -39.5t10 -50q0 -64 -39 -101t-99 -37q-26 0 -49 9.5t-40 26.5t-26.5 40t-9.5 51z" />
<glyph unicode="&#x10c;" horiz-adv-x="1148" d="M83 662q0 153 46 279.5t132 217.5t209 141t276 50q42 0 84 -5.5t81.5 -15t75 -22t62.5 -27.5l-49 -161q-55 21 -117.5 35.5t-133.5 14.5q-101 0 -182 -32.5t-138.5 -95.5t-88.5 -154.5t-31 -208.5q0 -118 30.5 -213.5t88.5 -163t142.5 -104t192.5 -36.5q72 0 142 15.5 t124 39.5l54 -159q-31 -17 -69 -31t-81 -24.5t-88 -16t-89 -5.5q-158 0 -283 48t-211.5 137t-132.5 215t-46 282zM483 1829q27 -17 57 -39t59.5 -46t57 -49.5t49.5 -47.5q22 22 49.5 47.5t57 49.5t59.5 46t57 39l93 -143q-95 -52 -173 -108t-143 -120q-65 64 -143 120 t-173 108z" />
<glyph unicode="&#x10d;" horiz-adv-x="915" d="M298 519q0 -171 79.5 -265.5t227.5 -94.5q61 0 119 14t100 32l50 -154q-51 -29 -130.5 -50t-169.5 -21q-113 0 -204.5 38t-156.5 106.5t-100.5 164.5t-35.5 213q0 121 36 221t103 171.5t161.5 110.5t210.5 39q87 0 157 -21.5t113 -45.5l-53 -154q-34 13 -87.5 27.5 t-121.5 14.5q-70 0 -125 -24t-93.5 -69t-59 -109t-20.5 -144zM328 1529q27 -17 57 -39t59.5 -46t57 -49.5t49.5 -47.5q22 22 49.5 47.5t57 49.5t59.5 46t57 39l93 -143q-95 -52 -173 -108t-143 -120q-65 64 -143 120t-173 108z" />
<glyph unicode="&#x10e;" horiz-adv-x="1295" d="M157 0v1330h411q157 0 278.5 -47.5t204.5 -134.5t125.5 -208.5t42.5 -269.5q0 -152 -44.5 -275.5t-129.5 -211.5t-208.5 -135.5t-280.5 -47.5h-399zM568 167q93 0 171.5 32.5t134.5 95t87.5 153.5t31.5 208q0 120 -29.5 214t-85.5 159t-137.5 99.5t-184.5 34.5h-188v-996 h200zM353 1829q27 -17 57 -39t59.5 -46t57 -49.5t49.5 -47.5q22 22 49.5 47.5t57 49.5t59.5 46t57 39l93 -143q-95 -52 -173 -108t-143 -120q-65 64 -143 120t-173 108z" />
<glyph unicode="&#x10f;" horiz-adv-x="1299" d="M1270 1533q9 -7 23 -22t27.5 -38.5t23 -53.5t9.5 -67q0 -51 -17 -92.5t-43.5 -74t-59 -56.5t-64.5 -39l-76 83q15 10 30.5 24.5t28 34.5t21 45t8.5 56q0 28 -9.5 53.5t-22 46t-26 35t-21.5 21.5zM835 0l-24 112q-23 -23 -54.5 -46t-70 -42.5t-84 -31.5t-96.5 -12 q-99 0 -178 37.5t-135 106t-86 165t-30 213.5q0 119 37 218.5t103 171.5t157.5 112t200.5 40q53 0 108.5 -13.5t103.5 -36.5v466l211 20v-1480h-163zM787 822q-39 21 -92 34t-113 13q-65 0 -117.5 -26t-89.5 -73t-57 -111.5t-20 -140.5q0 -82 18 -148.5t52 -114t82.5 -73 t109.5 -25.5q33 0 66 7t62.5 20t55 31t43.5 40v567z" />
<glyph unicode="&#x110;" horiz-adv-x="1309" d="M15 733h155v597h411q157 0 279 -47.5t204.5 -134.5t125.5 -208.5t43 -269.5q0 -152 -44.5 -275.5t-129.5 -211.5t-208.5 -135.5t-280.5 -47.5h-400v597h-155v136zM581 167q93 0 171.5 32.5t134.5 95t87.5 153.5t31.5 208q0 120 -29.5 214t-85.5 159t-137.5 99.5 t-184.5 34.5h-187v-430h348v-136h-348v-430h199z" />
<glyph unicode="&#x111;" horiz-adv-x="1155" d="M474 1316h313v144l211 20v-164h155v-116h-155v-1200h-163l-24 112q-23 -23 -54.5 -46t-70 -42.5t-84 -31.5t-96.5 -12q-99 0 -178 37.5t-135 106t-86 165t-30 213.5q0 119 37 218.5t103 171.5t157.5 112t200.5 40q53 0 108.5 -13.5t103.5 -36.5v206h-313v116zM787 822 q-39 21 -92 34t-113 13q-65 0 -117.5 -26t-89.5 -73t-57 -111.5t-20 -140.5q0 -82 18 -148.5t52 -114t82.5 -73t109.5 -25.5q33 0 66 7t62.5 20t55 31t43.5 40v567z" />
<glyph unicode="&#x112;" horiz-adv-x="1049" d="M938 1155h-569v-399h546v-172h-546v-409h589v-175h-801v1330h781v-175zM256 1736h578v-157h-578v157z" />
<glyph unicode="&#x113;" horiz-adv-x="1022" d="M296 467q6 -151 84.5 -229.5t221.5 -78.5q76 0 144 15.5t116 32.5l48 -156q-25 -12 -60.5 -24.5t-78.5 -23t-92.5 -17t-103.5 -6.5q-116 0 -208 38t-156.5 107t-99 165t-34.5 213q0 121 34 221t97 171t153 110t203 39q92 0 163.5 -26.5t120 -76t74 -119.5t25.5 -156 q0 -62 -10 -115t-21 -84h-620zM544 879q-55 0 -99 -19.5t-75.5 -55.5t-50 -88t-22.5 -116h437q5 18 6.5 37.5t1.5 42.5q-2 97 -54.5 148t-143.5 51zM249 1429h578v-157h-578v157z" />
<glyph unicode="&#x114;" horiz-adv-x="1049" d="M938 1155h-569v-399h546v-172h-546v-409h589v-175h-801v1330h781v-175zM430 1783q0 -32 7 -60.5t22 -50t39 -34t59 -12.5q34 0 58.5 12.5t39.5 34t22 50t7 60.5h149q7 -75 -12.5 -132.5t-57.5 -96t-91.5 -58t-114.5 -19.5t-114.5 19.5t-91.5 58t-57.5 96t-12.5 132.5h149 z" />
<glyph unicode="&#x115;" horiz-adv-x="1022" d="M296 467q6 -151 84.5 -229.5t221.5 -78.5q76 0 144 15.5t116 32.5l48 -156q-25 -12 -60.5 -24.5t-78.5 -23t-92.5 -17t-103.5 -6.5q-116 0 -208 38t-156.5 107t-99 165t-34.5 213q0 121 34 221t97 171t153 110t203 39q92 0 163.5 -26.5t120 -76t74 -119.5t25.5 -156 q0 -62 -10 -115t-21 -84h-620zM544 879q-55 0 -99 -19.5t-75.5 -55.5t-50 -88t-22.5 -116h437q5 18 6.5 37.5t1.5 42.5q-2 97 -54.5 148t-143.5 51zM406 1476q1 -32 8 -60.5t22 -49.5t39 -33.5t59 -12.5q34 0 58 12.5t39 33.5t22 49.5t8 60.5h149q7 -75 -12.5 -132.5 t-57.5 -96t-91.5 -58t-114.5 -19.5t-114.5 19.5t-92 58t-58 96t-12.5 132.5h149z" />
<glyph unicode="&#x116;" horiz-adv-x="1049" d="M938 1155h-569v-399h546v-172h-546v-409h589v-175h-801v1330h781v-175zM429 1644q0 31 10.5 56t28.5 43t43.5 27.5t55.5 9.5q26 0 49 -9.5t40 -26t27 -39.5t10 -50q0 -32 -10.5 -57.5t-29 -43.5t-43.5 -27.5t-55 -9.5q-27 0 -50 9.5t-40 26.5t-26.5 40t-9.5 51z" />
<glyph unicode="&#x117;" horiz-adv-x="1022" d="M296 467q6 -151 84.5 -229.5t221.5 -78.5q76 0 144 15.5t116 32.5l48 -156q-25 -12 -60.5 -24.5t-78.5 -23t-92.5 -17t-103.5 -6.5q-116 0 -208 38t-156.5 107t-99 165t-34.5 213q0 121 34 221t97 171t153 110t203 39q92 0 163.5 -26.5t120 -76t74 -119.5t25.5 -156 q0 -62 -10 -115t-21 -84h-620zM544 879q-55 0 -99 -19.5t-75.5 -55.5t-50 -88t-22.5 -116h437q5 18 6.5 37.5t1.5 42.5q-2 97 -54.5 148t-143.5 51zM408 1344q0 31 10.5 56t28.5 43t43.5 27.5t55.5 9.5q26 0 49 -9.5t40 -26t27 -39.5t10 -50q0 -32 -10.5 -57.5t-29 -43.5 t-43.5 -27.5t-55 -9.5q-27 0 -50 9.5t-40 26.5t-26.5 40t-9.5 51z" />
<glyph unicode="&#x118;" horiz-adv-x="1049" d="M938 1155h-569v-399h546v-172h-546v-409h589v-175q-24 -18 -48.5 -40t-44 -47.5t-31.5 -53.5t-12 -58q0 -49 25.5 -73t66.5 -24q19 0 37 3.5t33 8t26 9.5t17 8l40 -121q-9 -7 -26.5 -16t-41.5 -17.5t-53.5 -14.5t-60.5 -6q-47 0 -90 12.5t-76 38t-52.5 64t-19.5 89.5 q0 39 13.5 74t35.5 65.5t48.5 55.5t52.5 43h-640v1330h781v-175z" />
<glyph unicode="&#x119;" horiz-adv-x="1022" d="M296 467q6 -151 84.5 -229.5t221.5 -78.5q76 0 144 15.5t116 32.5l48 -156q-27 -13 -66 -26.5t-87 -24.5h1q-24 -18 -48.5 -40.5t-43.5 -47.5t-31 -53t-12 -58q0 -49 25 -73t66 -24q38 0 70 11.5t43 17.5l40 -121q-9 -7 -26.5 -16t-41.5 -17.5t-53.5 -14.5t-60.5 -6 q-47 0 -90 12.5t-75.5 38t-52 64t-19.5 89.5q0 34 11 65.5t28.5 59.5t39.5 51.5t45 42.5q-115 1 -206.5 39t-155.5 106t-98.5 163.5t-34.5 213.5q0 121 34 221t97 171t153 110t203 39q92 0 163.5 -26.5t120 -76t74 -119.5t25.5 -156q0 -62 -10 -115t-21 -84h-620zM544 879 q-55 0 -99 -19.5t-75.5 -55.5t-50 -88t-22.5 -116h437q5 18 6.5 37.5t1.5 42.5q-2 97 -54.5 148t-143.5 51z" />
<glyph unicode="&#x11a;" horiz-adv-x="1049" d="M938 1155h-569v-399h546v-172h-546v-409h589v-175h-801v1330h781v-175zM343 1829q27 -17 57 -39t59.5 -46t57 -49.5t49.5 -47.5q22 22 49.5 47.5t57 49.5t59.5 46t57 39l93 -143q-95 -52 -173 -108t-143 -120q-65 64 -143 120t-173 108z" />
<glyph unicode="&#x11b;" horiz-adv-x="1022" d="M296 467q6 -151 84.5 -229.5t221.5 -78.5q76 0 144 15.5t116 32.5l48 -156q-25 -12 -60.5 -24.5t-78.5 -23t-92.5 -17t-103.5 -6.5q-116 0 -208 38t-156.5 107t-99 165t-34.5 213q0 121 34 221t97 171t153 110t203 39q92 0 163.5 -26.5t120 -76t74 -119.5t25.5 -156 q0 -62 -10 -115t-21 -84h-620zM544 879q-55 0 -99 -19.5t-75.5 -55.5t-50 -88t-22.5 -116h437q5 18 6.5 37.5t1.5 42.5q-2 97 -54.5 148t-143.5 51zM316 1529q27 -17 57 -39t60 -46t57.5 -49.5t48.5 -47.5q22 22 49.5 47.5t57.5 49.5t60 46t57 39l92 -143q-95 -52 -173 -108 t-143 -120q-64 64 -142 120t-173 108z" />
<glyph unicode="&#x11c;" horiz-adv-x="1255" d="M1150 95q-35 -26 -80.5 -47t-98 -36t-109 -23.5t-111.5 -8.5q-161 0 -285.5 49t-209.5 139t-129 215.5t-44 278.5q0 151 46 277.5t133 217.5t212 142t283 51q43 0 87 -5.5t87 -15.5t83 -25t75 -33l-57 -159q-56 22 -125.5 39.5t-150.5 17.5q-100 0 -182 -32t-141 -94 t-91.5 -154t-32.5 -213t32 -216.5t91 -162t143 -101.5t188 -35q48 0 98 8t84 20v360l-246 3v161h451v-618zM940 1464q-25 18 -53.5 39.5t-57.5 45t-56 46t-49 42.5q-22 -20 -49 -43t-55.5 -46t-57.5 -44.5t-54 -39.5l-102 135q63 41 146.5 99t171.5 124q88 -66 171.5 -124 t146.5 -99z" />
<glyph unicode="&#x11d;" horiz-adv-x="1008" d="M457 317h-22t-20 2q-25 -20 -44.5 -46t-19.5 -51q-2 -61 82 -61h207q74 0 136 -19t106.5 -55.5t69.5 -89t25 -119.5q0 -71 -37.5 -128.5t-104 -99t-158 -64t-199.5 -22.5q-205 0 -312.5 61.5t-107.5 177.5q0 40 15.5 75.5t40.5 65.5t57.5 53.5t67.5 40.5q-11 7 -23 17.5 t-22.5 25.5t-17.5 35t-7 46q0 49 34.5 96.5t88.5 85.5q-105 38 -161.5 122.5t-56.5 207.5q0 86 28.5 154.5t80 116.5t124.5 73.5t162 25.5q71 0 132.5 -19t109.5 -54q34 24 71 39.5t73.5 23.5t71.5 8.5t64 -5.5v-166q-38 5 -88.5 2.5t-94.5 -17.5q20 -37 31.5 -79.5 t11.5 -90.5q0 -86 -28.5 -154.5t-80 -116t-124.5 -73t-161 -25.5zM464 461q43 0 78 15.5t60 43t38 67t13 87.5q0 109 -51 167.5t-141 58.5q-43 0 -78 -15.5t-59.5 -43.5t-37.5 -67t-13 -87q0 -109 50.5 -167.5t140.5 -58.5zM508 -279q60 0 109 9.5t84 28t54 45.5t19 61 q0 63 -51.5 92t-153.5 29h-214q-18 -9 -36.5 -23.5t-33 -32t-23.5 -37.5t-9 -42q0 -64 66.5 -97t188.5 -33zM672 1157q-24 18 -52.5 39.5t-57.5 45t-56 46t-49 42.5q-22 -20 -49 -42.5t-55.5 -45.5t-57.5 -45t-54 -40l-102 135q63 41 146.5 99t171.5 124q88 -66 171 -124 t146 -99z" />
<glyph unicode="&#x11e;" horiz-adv-x="1255" d="M1150 95q-35 -26 -80.5 -47t-98 -36t-109 -23.5t-111.5 -8.5q-161 0 -285.5 49t-209.5 139t-129 215.5t-44 278.5q0 151 46 277.5t133 217.5t212 142t283 51q43 0 87 -5.5t87 -15.5t83 -25t75 -33l-57 -159q-56 22 -125.5 39.5t-150.5 17.5q-100 0 -182 -32t-141 -94 t-91.5 -154t-32.5 -213t32 -216.5t91 -162t143 -101.5t188 -35q48 0 98 8t84 20v360l-246 3v161h451v-618zM573 1783q1 -32 8 -60.5t22 -50t39 -34t59 -12.5q34 0 58 12.5t39 34t22 50t8 60.5h149q7 -75 -12.5 -132.5t-57.5 -96t-91.5 -58t-114.5 -19.5t-114.5 19.5t-92 58 t-58 96t-12.5 132.5h149z" />
<glyph unicode="&#x11f;" horiz-adv-x="1008" d="M457 317h-22t-20 2q-25 -20 -44.5 -46t-19.5 -51q-2 -61 82 -61h207q74 0 136 -19t106.5 -55.5t69.5 -89t25 -119.5q0 -71 -37.5 -128.5t-104 -99t-158 -64t-199.5 -22.5q-205 0 -312.5 61.5t-107.5 177.5q0 40 15.5 75.5t40.5 65.5t57.5 53.5t67.5 40.5q-11 7 -23 17.5 t-22.5 25.5t-17.5 35t-7 46q0 49 34.5 96.5t88.5 85.5q-105 38 -161.5 122.5t-56.5 207.5q0 86 28.5 154.5t80 116.5t124.5 73.5t162 25.5q71 0 132.5 -19t109.5 -54q34 24 71 39.5t73.5 23.5t71.5 8.5t64 -5.5v-166q-38 5 -88.5 2.5t-94.5 -17.5q20 -37 31.5 -79.5 t11.5 -90.5q0 -86 -28.5 -154.5t-80 -116t-124.5 -73t-161 -25.5zM464 461q43 0 78 15.5t60 43t38 67t13 87.5q0 109 -51 167.5t-141 58.5q-43 0 -78 -15.5t-59.5 -43.5t-37.5 -67t-13 -87q0 -109 50.5 -167.5t140.5 -58.5zM508 -279q60 0 109 9.5t84 28t54 45.5t19 61 q0 63 -51.5 92t-153.5 29h-214q-18 -9 -36.5 -23.5t-33 -32t-23.5 -37.5t-9 -42q0 -64 66.5 -97t188.5 -33zM340 1476q0 -32 7 -60.5t22 -49.5t39 -33.5t59 -12.5q34 0 58.5 12.5t39.5 33.5t22 49.5t7 60.5h149q7 -75 -12.5 -132.5t-57.5 -96t-91.5 -58t-114.5 -19.5 t-114.5 19.5t-91.5 58t-57.5 96t-12.5 132.5h149z" />
<glyph unicode="&#x120;" horiz-adv-x="1255" d="M1150 95q-35 -26 -80.5 -47t-98 -36t-109 -23.5t-111.5 -8.5q-161 0 -285.5 49t-209.5 139t-129 215.5t-44 278.5q0 151 46 277.5t133 217.5t212 142t283 51q43 0 87 -5.5t87 -15.5t83 -25t75 -33l-57 -159q-56 22 -125.5 39.5t-150.5 17.5q-100 0 -182 -32t-141 -94 t-91.5 -154t-32.5 -213t32 -216.5t91 -162t143 -101.5t188 -35q48 0 98 8t84 20v360l-246 3v161h451v-618zM583 1650q0 63 38.5 100t98.5 37q26 0 49 -9.5t40 -26t27 -39.5t10 -50q0 -32 -10.5 -57.5t-28.5 -43.5t-43 -27.5t-55 -9.5q-27 0 -50 9.5t-40 26t-26.5 39.5 t-9.5 51z" />
<glyph unicode="&#x121;" horiz-adv-x="1008" d="M457 317h-22t-20 2q-25 -20 -44.5 -46t-19.5 -51q-2 -61 82 -61h207q74 0 136 -19t106.5 -55.5t69.5 -89t25 -119.5q0 -71 -37.5 -128.5t-104 -99t-158 -64t-199.5 -22.5q-205 0 -312.5 61.5t-107.5 177.5q0 40 15.5 75.5t40.5 65.5t57.5 53.5t67.5 40.5q-11 7 -23 17.5 t-22.5 25.5t-17.5 35t-7 46q0 49 34.5 96.5t88.5 85.5q-105 38 -161.5 122.5t-56.5 207.5q0 86 28.5 154.5t80 116.5t124.5 73.5t162 25.5q71 0 132.5 -19t109.5 -54q34 24 71 39.5t73.5 23.5t71.5 8.5t64 -5.5v-166q-38 5 -88.5 2.5t-94.5 -17.5q20 -37 31.5 -79.5 t11.5 -90.5q0 -86 -28.5 -154.5t-80 -116t-124.5 -73t-161 -25.5zM464 461q43 0 78 15.5t60 43t38 67t13 87.5q0 109 -51 167.5t-141 58.5q-43 0 -78 -15.5t-59.5 -43.5t-37.5 -67t-13 -87q0 -109 50.5 -167.5t140.5 -58.5zM508 -279q60 0 109 9.5t84 28t54 45.5t19 61 q0 63 -51.5 92t-153.5 29h-214q-18 -9 -36.5 -23.5t-33 -32t-23.5 -37.5t-9 -42q0 -64 66.5 -97t188.5 -33zM334 1344q0 31 10.5 56t28.5 43t43.5 27.5t55.5 9.5q26 0 49 -9.5t40 -26t27 -39.5t10 -50q0 -64 -39 -101t-99 -37q-26 0 -49 9.5t-40 26.5t-27 40t-10 51z" />
<glyph unicode="&#x122;" horiz-adv-x="1255" d="M1150 95q-35 -26 -80.5 -47t-98 -36t-109 -23.5t-111.5 -8.5q-161 0 -285.5 49t-209.5 139t-129 215.5t-44 278.5q0 151 46 277.5t133 217.5t212 142t283 51q43 0 87 -5.5t87 -15.5t83 -25t75 -33l-57 -159q-56 22 -125.5 39.5t-150.5 17.5q-100 0 -182 -32t-141 -94 t-91.5 -154t-32.5 -213t32 -216.5t91 -162t143 -101.5t188 -35q48 0 98 8t84 20v360l-246 3v161h451v-618zM765 -96q9 -7 23.5 -22t27.5 -36.5t22.5 -49.5t9.5 -61q0 -56 -24 -97.5t-65 -70.5t-95.5 -45.5t-115.5 -21.5l-36 106q29 5 56 15.5t48 26t34 36.5t13 47 q0 27 -8 49.5t-19 40t-22 29t-17 17.5z" />
<glyph unicode="&#x123;" horiz-adv-x="1008" d="M457 317h-22t-20 2q-25 -20 -44.5 -46t-19.5 -51q-2 -61 82 -61h207q74 0 136 -19t106.5 -55.5t69.5 -89t25 -119.5q0 -71 -37.5 -128.5t-104 -99t-158 -64t-199.5 -22.5q-205 0 -312.5 61.5t-107.5 177.5q0 40 15.5 75.5t40.5 65.5t57.5 53.5t67.5 40.5q-11 7 -23 17.5 t-22.5 25.5t-17.5 35t-7 46q0 49 34.5 96.5t88.5 85.5q-105 38 -161.5 122.5t-56.5 207.5q0 86 28.5 154.5t80 116.5t124.5 73.5t162 25.5q71 0 132.5 -19t109.5 -54q34 24 71 39.5t73.5 23.5t71.5 8.5t64 -5.5v-166q-38 5 -88.5 2.5t-94.5 -17.5q20 -37 31.5 -79.5 t11.5 -90.5q0 -86 -28.5 -154.5t-80 -116t-124.5 -73t-161 -25.5zM464 461q43 0 78 15.5t60 43t38 67t13 87.5q0 109 -51 167.5t-141 58.5q-43 0 -78 -15.5t-59.5 -43.5t-37.5 -67t-13 -87q0 -109 50.5 -167.5t140.5 -58.5zM508 -279q60 0 109 9.5t84 28t54 45.5t19 61 q0 63 -51.5 92t-153.5 29h-214q-18 -9 -36.5 -23.5t-33 -32t-23.5 -37.5t-9 -42q0 -64 66.5 -97t188.5 -33zM424 1137q-9 7 -23.5 22.5t-27.5 37t-22.5 49.5t-9.5 60q0 56 24 97.5t65.5 70.5t96 45.5t114.5 21.5l36 -105q-29 -6 -56 -16.5t-48 -26t-33.5 -36.5t-12.5 -47 q0 -27 8 -49.5t18.5 -40t21.5 -29t17 -16.5z" />
<glyph unicode="&#x124;" horiz-adv-x="1349" d="M979 582h-610v-582h-212v1330h212v-573h610v573h213v-1330h-213v582zM890 1464q-25 18 -53.5 39.5t-57 45t-56 46t-49.5 42.5q-22 -20 -48.5 -43t-55 -46t-57.5 -44.5t-54 -39.5l-102 135q63 41 146 99t171 124q89 -66 172 -124t146 -99z" />
<glyph unicode="&#x125;" horiz-adv-x="1154" d="M368 1480v-558q67 54 147 88t165 34q165 0 248.5 -92t83.5 -278v-674h-212v642q0 221 -184 221q-29 0 -62 -8t-66.5 -21.5t-64.5 -32.5t-55 -41v-760h-211v1460zM487 1503q-24 17 -52.5 39t-57.5 45t-56 46t-49 43q-22 -20 -49 -43t-55.5 -46t-57.5 -44.5t-54 -39.5 l-102 134q63 41 146.5 99.5t171.5 124.5q88 -66 171.5 -124.5t146.5 -99.5z" />
<glyph unicode="&#x126;" horiz-adv-x="1350" d="M31 1065h127v265h212v-265h610v265h213v-265h125v-122h-125v-943h-213v582h-610v-582h-212v943h-127v122zM980 757v186h-610v-186h610z" />
<glyph unicode="&#x127;" horiz-adv-x="1154" d="M368 1480v-164h299v-116h-299v-278q67 54 147 88t165 34q165 0 248.5 -92t83.5 -278v-674h-212v642q0 221 -184 221q-29 0 -62 -8t-66.5 -21.5t-64.5 -32.5t-55 -41v-760h-211v1200h-155v116h155v144z" />
<glyph unicode="&#x128;" horiz-adv-x="526" d="M157 1330h212v-1330h-212v1330zM-68 1613q13 29 34 57.5t49.5 51t63.5 36.5t77 14q32 0 63 -11t60 -23.5t55 -23.5t49 -11q19 0 34.5 7t28.5 18t24 23.5t22 24.5l104 -88q-16 -33 -37.5 -62t-50 -50t-63 -33t-76.5 -12q-30 0 -58.5 11t-56 23.5t-54 23.5t-53.5 11 q-18 0 -34 -7t-29.5 -18t-25 -24t-20.5 -25z" />
<glyph unicode="&#x129;" horiz-adv-x="525" d="M368 1024v-1024h-211v1024h211zM-68 1313q13 29 34 57.5t49 51t63.5 36.5t76.5 14q32 0 63.5 -11t60.5 -23.5t55 -23.5t48 -11q19 0 35 7t29 18t24 23.5t21 24.5l105 -88q-16 -33 -38 -62t-50 -50t-62.5 -33t-76.5 -12q-30 0 -59 11t-56.5 23.5t-54 23.5t-52.5 11 q-19 0 -35 -7t-29.5 -18t-24.5 -24t-20 -25z" />
<glyph unicode="&#x12a;" horiz-adv-x="526" d="M157 1330h212v-1330h-212v1330zM-25 1736h578v-157h-578v157z" />
<glyph unicode="&#x12b;" horiz-adv-x="525" d="M368 1024v-1024h-211v1024h211zM-17 1429h560v-157h-560v157z" />
<glyph unicode="&#x12c;" horiz-adv-x="526" d="M157 1330h212v-1330h-212v1330zM136 1783q1 -32 8 -60.5t22 -50t39 -34t59 -12.5q34 0 58 12.5t39 34t22 50t8 60.5h149q7 -75 -12.5 -132.5t-57.5 -96t-91.5 -58t-114.5 -19.5t-114.5 19.5t-92 58t-58 96t-12.5 132.5h149z" />
<glyph unicode="&#x12d;" horiz-adv-x="525" d="M368 1024v-1024h-211v1024h211zM136 1476q0 -32 7 -60.5t22 -49.5t39 -33.5t59 -12.5q34 0 58.5 12.5t39.5 33.5t22 49.5t7 60.5h149q7 -75 -12.5 -132.5t-57.5 -96t-91.5 -58t-114.5 -19.5t-114.5 19.5t-91.5 58t-57.5 96t-12.5 132.5h149z" />
<glyph unicode="&#x12e;" horiz-adv-x="526" d="M316 0q-24 -18 -48.5 -40.5t-43.5 -47.5t-31 -53t-12 -58q0 -49 25 -73t66 -24q38 0 70 11.5t43 17.5l40 -121q-9 -7 -26.5 -16t-41.5 -17.5t-53.5 -14.5t-60.5 -6q-47 0 -90 12.5t-75.5 38t-52 64t-19.5 89.5q0 39 13.5 74.5t35.5 65.5t49 55t53 44v1329h212v-1330h-53z " />
<glyph unicode="&#x12f;" horiz-adv-x="525" d="M368 1024v-1024h-52q-24 -18 -48.5 -40.5t-43.5 -47.5t-31 -53t-12 -58q0 -49 25 -73t66 -24q38 0 70 11.5t43 17.5l40 -121q-9 -7 -26.5 -16t-41.5 -17.5t-53.5 -14.5t-60.5 -6q-47 0 -90 12.5t-75.5 38t-52 64t-19.5 89.5q0 39 13.5 74.5t35.5 65.5t49 55t53 44v1023 h211zM131 1344q0 63 38.5 99.5t98.5 36.5q26 0 49 -9.5t40 -26t27 -39.5t10 -50q0 -32 -10.5 -57.5t-28.5 -43.5t-43 -27.5t-55 -9.5q-27 0 -50 9.5t-40 26.5t-26.5 40t-9.5 51z" />
<glyph unicode="&#x130;" horiz-adv-x="526" d="M157 1330h212v-1330h-212v1330zM131 1644q0 31 10.5 56t28.5 43t43.5 27.5t55.5 9.5q26 0 49 -9.5t40 -26t27 -39.5t10 -50q0 -64 -39 -101t-99 -37q-26 0 -49 9.5t-40 26.5t-27 40t-10 51z" />
<glyph unicode="&#x131;" horiz-adv-x="525" d="M368 1024v-1024h-211v1024h211z" />
<glyph unicode="&#x132;" horiz-adv-x="1220" d="M1094 1330v-1004q0 -87 -23.5 -152t-68.5 -108t-109.5 -64.5t-146.5 -21.5q-30 0 -61.5 5t-60.5 13.5t-53.5 19t-41.5 22.5l43 155q31 -14 70.5 -24t92.5 -10q146 0 146 152v1017h213zM157 1330h212v-1330h-212v1330z" />
<glyph unicode="&#x133;" horiz-adv-x="1039" d="M131 1344q0 63 38.5 99.5t98.5 36.5q26 0 49 -9.5t40 -26t27 -39.5t10 -50q0 -32 -10.5 -57.5t-28.5 -43.5t-43 -27.5t-55 -9.5q-27 0 -50 9.5t-40 26.5t-26.5 40t-9.5 51zM368 1024v-1024h-211v1024h211zM645 1344q0 63 38.5 99.5t98.5 36.5q26 0 49 -9.5t40 -26 t27 -39.5t10 -50q0 -32 -10.5 -57.5t-28.5 -43.5t-43 -27.5t-55 -9.5q-27 0 -50 9.5t-40 26.5t-26.5 40t-9.5 51zM671 1024h211v-1059q0 -199 -88 -290t-260 -91q-38 0 -73.5 5.5t-56.5 13.5l23 164q16 -5 37.5 -8t46.5 -3q84 0 122 44.5t38 147.5v1076z" />
<glyph unicode="&#x134;" horiz-adv-x="712" d="M586 1330v-1004q0 -87 -23.5 -152t-68.5 -108t-109.5 -64.5t-146.5 -21.5q-30 0 -61.5 5t-60.5 13.5t-53.5 19t-41.5 22.5l43 155q31 -14 70.5 -24t92.5 -10q146 0 146 152v1017h213zM698 1464q-24 18 -52.5 39.5t-57.5 45t-56 46t-49 42.5q-22 -20 -49 -43t-55.5 -46 t-57.5 -44.5t-54 -39.5l-102 135q63 41 146.5 99t171.5 124q88 -66 171 -124t146 -99z" />
<glyph unicode="&#x135;" horiz-adv-x="532" d="M164 1024h211v-1059q0 -199 -88 -290t-260 -91q-38 0 -73.5 5.5t-56.5 13.5l23 164q16 -5 38 -8t46 -3q84 0 122 44.5t38 147.5v1076zM482 1157q-24 18 -52.5 39.5t-57.5 45t-56 46t-49 42.5q-22 -20 -49 -42.5t-55.5 -45.5t-57.5 -45t-54 -40l-102 135q63 41 146.5 99 t171.5 124q88 -66 171 -124t146 -99z" />
<glyph unicode="&#x136;" horiz-adv-x="1211" d="M369 614l518 716h247l-424 -580l474 -750h-251l-370 603l-194 -252v-351h-212v1330h212v-716zM686 -96q9 -7 23.5 -22t27.5 -36.5t22.5 -49.5t9.5 -61q0 -56 -24 -97.5t-65 -70.5t-95.5 -45.5t-114.5 -21.5l-37 106q29 5 56.5 15.5t48.5 26t33.5 36.5t12.5 47 q0 27 -8 49.5t-19 40t-21.5 29t-16.5 17.5z" />
<glyph unicode="&#x137;" horiz-adv-x="1069" d="M368 1480v-964l389 508h237l-326 -426l359 -598h-239l-276 466l-144 -183v-283h-211v1460zM621 -96q9 -7 23.5 -22t27.5 -36.5t22.5 -49.5t9.5 -61q0 -56 -24 -97.5t-65 -70.5t-95.5 -45.5t-115.5 -21.5l-36 106q29 5 56 15.5t48 26t34 36.5t13 47q0 27 -8 49.5t-19 40 t-22 29t-17 17.5z" />
<glyph unicode="&#x138;" horiz-adv-x="1090" d="M368 1024v-508l389 508h237l-326 -426l359 -598h-239l-276 466l-144 -183v-283h-211v1024h211z" />
<glyph unicode="&#x139;" horiz-adv-x="951" d="M927 0h-770v1330h212v-1155h558v-175zM55 1596l462 234l82 -184l-493 -163z" />
<glyph unicode="&#x13a;" horiz-adv-x="525" d="M368 1480v-1480h-211v1460zM14 1644l462 234l83 -184l-494 -163z" />
<glyph unicode="&#x13b;" horiz-adv-x="951" d="M927 0h-770v1330h212v-1155h558v-175zM624 -96q9 -7 23 -22t27.5 -36.5t23 -49.5t9.5 -61q0 -56 -24 -97.5t-65.5 -70.5t-96 -45.5t-114.5 -21.5l-37 106q29 5 56.5 15.5t48.5 26t33.5 36.5t12.5 47q0 27 -8 49.5t-19 40t-21.5 29t-16.5 17.5z" />
<glyph unicode="&#x13c;" horiz-adv-x="525" d="M368 1480v-1480h-211v1460zM331 -96q9 -7 23.5 -22t27.5 -36.5t22.5 -49.5t9.5 -61q0 -56 -24 -97.5t-65.5 -70.5t-96 -45.5t-114.5 -21.5l-37 106q29 5 56.5 15.5t48.5 26t33.5 36.5t12.5 47q0 27 -8 49.5t-18.5 40t-21.5 29t-17 17.5z" />
<glyph unicode="&#x13d;" horiz-adv-x="951" d="M927 0h-770v1330h212v-1155h558v-175zM747 1367q9 -7 23.5 -22t27.5 -36.5t22.5 -49.5t9.5 -61q0 -56 -24 -97.5t-65.5 -70.5t-96 -45.5t-114.5 -21.5l-36 106q29 5 56 15.5t48 26t33.5 36.5t12.5 47q0 27 -8 49.5t-18.5 40t-21.5 29t-17 17.5z" />
<glyph unicode="&#x13e;" horiz-adv-x="669" d="M639 1533q9 -7 23.5 -22t28 -38.5t23 -53.5t9.5 -67q0 -51 -17 -92.5t-43.5 -74t-59 -56.5t-64.5 -39l-76 83q15 10 30.5 24.5t28 34.5t21 45t8.5 56q0 28 -9.5 53.5t-22 46t-26 35t-21.5 21.5zM368 1480v-1480h-211v1460z" />
<glyph unicode="&#x13f;" horiz-adv-x="951" d="M927 0h-770v1330h212v-1155h558v-175zM574 701q0 63 38.5 99.5t98.5 36.5q26 0 49 -9.5t40 -26t27 -39.5t10 -50q0 -32 -10.5 -57.5t-28.5 -43.5t-43 -27.5t-55 -9.5q-27 0 -50 9.5t-40 26.5t-26.5 40t-9.5 51z" />
<glyph unicode="&#x140;" horiz-adv-x="718" d="M368 1480v-1480h-211v1460zM490 741q0 63 39 100t99 37q26 0 49 -9.5t40 -26t27 -39.5t10 -50q0 -32 -10.5 -57.5t-29 -43.5t-43.5 -27.5t-55 -9.5q-27 0 -50 9.5t-40 26t-26.5 39.5t-9.5 51z" />
<glyph unicode="&#x141;" horiz-adv-x="971" d="M-39 499l216 165v666h213v-505l243 185l83 -107l-326 -249v-479h557v-175h-770v493l-134 -102z" />
<glyph unicode="&#x142;" horiz-adv-x="614" d="M413 1480v-617l126 96l77 -101l-203 -155v-703h-211v543l-127 -96l-77 102l204 154v757z" />
<glyph unicode="&#x143;" horiz-adv-x="1352" d="M364 1029v-1029h-207v1330h246l584 -1029v1029h208v-1330h-246zM422 1596l463 234l82 -184l-494 -163z" />
<glyph unicode="&#x144;" horiz-adv-x="1154" d="M327 1024l22 -118q33 29 71.5 54t80.5 44t87 29.5t92 10.5q165 0 248.5 -92t83.5 -278v-674h-212v642q0 221 -184 221q-29 0 -62 -8t-66.5 -21.5t-64.5 -32.5t-55 -41v-760h-211v1024h170zM320 1296l462 234l83 -184l-494 -163z" />
<glyph unicode="&#x145;" horiz-adv-x="1352" d="M364 1029v-1029h-207v1330h246l584 -1029v1029h208v-1330h-246zM741 -96q9 -7 23 -22t27.5 -36.5t23 -49.5t9.5 -61q0 -56 -24 -97.5t-65.5 -70.5t-96 -45.5t-114.5 -21.5l-37 106q29 5 56.5 15.5t48.5 26t33.5 36.5t12.5 47q0 27 -8 49.5t-19 40t-21.5 29t-16.5 17.5z " />
<glyph unicode="&#x146;" horiz-adv-x="1154" d="M327 1024l22 -118q33 29 71.5 54t80.5 44t87 29.5t92 10.5q165 0 248.5 -92t83.5 -278v-674h-212v642q0 221 -184 221q-29 0 -62 -8t-66.5 -21.5t-64.5 -32.5t-55 -41v-760h-211v1024h170zM634 -96q9 -7 23.5 -22t27.5 -36.5t22.5 -49.5t9.5 -61q0 -56 -24 -97.5 t-65 -70.5t-95.5 -45.5t-115.5 -21.5l-36 106q29 5 56 15.5t48 26t34 36.5t13 47q0 27 -8 49.5t-19 40t-22 29t-17 17.5z" />
<glyph unicode="&#x147;" horiz-adv-x="1352" d="M364 1029v-1029h-207v1330h246l584 -1029v1029h208v-1330h-246zM450 1829q27 -17 57 -39t59.5 -46t57 -49.5t49.5 -47.5q22 22 49.5 47.5t57 49.5t59.5 46t57 39l93 -143q-95 -52 -173 -108t-143 -120q-65 64 -143 120t-173 108z" />
<glyph unicode="&#x148;" horiz-adv-x="1154" d="M327 1024l22 -118q33 29 71.5 54t80.5 44t87 29.5t92 10.5q165 0 248.5 -92t83.5 -278v-674h-212v642q0 221 -184 221q-29 0 -62 -8t-66.5 -21.5t-64.5 -32.5t-55 -41v-760h-211v1024h170zM362 1529q27 -17 57 -39t59.5 -46t57 -49.5t49.5 -47.5q22 22 49.5 47.5t57 49.5 t59.5 46t57 39l92 -143q-95 -52 -173 -108t-142 -120q-65 64 -143 120t-173 108z" />
<glyph unicode="&#x149;" horiz-adv-x="1277" d="M450 1024l22 -118q33 29 71.5 54t80.5 44t87 29.5t92 10.5q165 0 248.5 -92t83.5 -278v-674h-212v642q0 221 -184 221q-29 0 -62 -8t-66.5 -21.5t-64.5 -32.5t-55 -41v-760h-211v1024h170zM-21 1028q8 16 17 40.5t17 54t13 64t5 70.5q0 35 -6 66t-15 57t-18.5 45.5 t-16.5 31.5l191 40q7 -11 16 -30t17.5 -46t14.5 -61t6 -75q0 -51 -13 -97t-32.5 -85t-41.5 -68.5t-40 -45.5z" />
<glyph unicode="&#x14a;" horiz-adv-x="1352" d="M843 -235q139 0 139 152v81l-614 997v-995h-211v1331h243l584 -982v982h211v-1401q0 -175 -90 -260.5t-251 -85.5q-32 0 -63.5 4.5t-59.5 12t-50.5 17t-37.5 19.5l44 157q29 -13 67 -21t89 -8z" />
<glyph unicode="&#x14b;" horiz-adv-x="1159" d="M800 642q0 221 -184 221q-29 0 -62 -8t-66.5 -21.5t-64.5 -32.5t-55 -41v-760h-211v1024h170l22 -118q33 29 71.5 54t80.5 44t87 29.5t92 10.5q165 0 248.5 -92t83.5 -278q0 -179 -0.5 -354.5t-0.5 -354.5q0 -199 -89.5 -290t-265.5 -91q-36 0 -69.5 5.5t-53.5 13.5 l23 164q16 -5 38 -8t46 -3q84 0 122 44.5t38 147.5v694z" />
<glyph unicode="&#x14c;" horiz-adv-x="1405" d="M709 154q89 0 160.5 34t122 98.5t77.5 157t27 210.5q0 122 -27.5 218.5t-79 164t-126 103.5t-167.5 36q-89 0 -161 -34t-122 -98.5t-77 -157t-27 -210.5q0 -122 27.5 -218.5t79 -164t126 -103.5t167.5 -36zM697 -20q-145 0 -259 47t-193 135.5t-120.5 215t-41.5 284.5 t43 285.5t123.5 217t196.5 137.5t263 48q144 0 258 -47.5t193 -136t120.5 -214.5t41.5 -284q0 -159 -43 -286t-123.5 -216.5t-196.5 -137.5t-262 -48zM414 1736h578v-157h-578v157z" />
<glyph unicode="&#x14d;" horiz-adv-x="1131" d="M559 -20q-110 0 -199 38t-152 107t-97 165.5t-34 213.5q0 121 35 220.5t99.5 170.5t156 110t204.5 39q110 0 199 -38t152 -107t97 -165t34 -213q0 -122 -35 -221.5t-99.5 -170.5t-156 -110t-204.5 -39zM571 144q62 0 111 26t82.5 73t51 114t17.5 148q0 86 -18 155.5 t-52.5 118t-85.5 74.5t-117 26q-62 0 -111 -25.5t-82.5 -73t-51 -113.5t-17.5 -147q0 -86 18 -155.5t52.5 -118.5t85.5 -75.5t117 -26.5zM276 1429h578v-157h-578v157z" />
<glyph unicode="&#x14e;" horiz-adv-x="1405" d="M709 154q89 0 160.5 34t122 98.5t77.5 157t27 210.5q0 122 -27.5 218.5t-79 164t-126 103.5t-167.5 36q-89 0 -161 -34t-122 -98.5t-77 -157t-27 -210.5q0 -122 27.5 -218.5t79 -164t126 -103.5t167.5 -36zM697 -20q-145 0 -259 47t-193 135.5t-120.5 215t-41.5 284.5 t43 285.5t123.5 217t196.5 137.5t263 48q144 0 258 -47.5t193 -136t120.5 -214.5t41.5 -284q0 -159 -43 -286t-123.5 -216.5t-196.5 -137.5t-262 -48zM575 1783q1 -32 8 -60.5t22 -50t39 -34t59 -12.5q34 0 58 12.5t39 34t22 50t8 60.5h149q7 -75 -12.5 -132.5t-57.5 -96 t-91.5 -58t-114.5 -19.5t-114.5 19.5t-92 58t-58 96t-12.5 132.5h149z" />
<glyph unicode="&#x14f;" horiz-adv-x="1131" d="M559 -20q-110 0 -199 38t-152 107t-97 165.5t-34 213.5q0 121 35 220.5t99.5 170.5t156 110t204.5 39q110 0 199 -38t152 -107t97 -165t34 -213q0 -122 -35 -221.5t-99.5 -170.5t-156 -110t-204.5 -39zM571 144q62 0 111 26t82.5 73t51 114t17.5 148q0 86 -18 155.5 t-52.5 118t-85.5 74.5t-117 26q-62 0 -111 -25.5t-82.5 -73t-51 -113.5t-17.5 -147q0 -86 18 -155.5t52.5 -118.5t85.5 -75.5t117 -26.5zM438 1476q1 -32 8 -60.5t22 -49.5t38.5 -33.5t58.5 -12.5t59 12.5t39 33.5t22 49.5t8 60.5h149q7 -75 -12.5 -132.5t-58 -96t-92 -58 t-114.5 -19.5t-114.5 19.5t-91.5 58t-57.5 96t-12.5 132.5h149z" />
<glyph unicode="&#x150;" horiz-adv-x="1405" d="M709 154q89 0 160.5 34t122 98.5t77.5 157t27 210.5q0 122 -27.5 218.5t-79 164t-126 103.5t-167.5 36q-89 0 -161 -34t-122 -98.5t-77 -157t-27 -210.5q0 -122 27.5 -218.5t79 -164t126 -103.5t167.5 -36zM697 -20q-145 0 -259 47t-193 135.5t-120.5 215t-41.5 284.5 t43 285.5t123.5 217t196.5 137.5t263 48q144 0 258 -47.5t193 -136t120.5 -214.5t41.5 -284q0 -159 -43 -286t-123.5 -216.5t-196.5 -137.5t-262 -48zM420 1527l242 345l145 -100l-279 -319zM757 1537l238 338l145 -100l-274 -313z" />
<glyph unicode="&#x151;" horiz-adv-x="1131" d="M559 -20q-110 0 -199 38t-152 107t-97 165.5t-34 213.5q0 121 35 220.5t99.5 170.5t156 110t204.5 39q110 0 199 -38t152 -107t97 -165t34 -213q0 -122 -35 -221.5t-99.5 -170.5t-156 -110t-204.5 -39zM571 144q62 0 111 26t82.5 73t51 114t17.5 148q0 86 -18 155.5 t-52.5 118t-85.5 74.5t-117 26q-62 0 -111 -25.5t-82.5 -73t-51 -113.5t-17.5 -147q0 -86 18 -155.5t52.5 -118.5t85.5 -75.5t117 -26.5zM278 1221l242 344l146 -100l-280 -319zM615 1231l238 337l145 -100l-274 -312z" />
<glyph unicode="&#x152;" horiz-adv-x="1882" d="M1771 1156h-566v-400h543v-172h-543v-409h586v-175h-798v66q-63 -42 -137 -64t-159 -22q-143 0 -257 50t-193.5 140t-121.5 215.5t-42 276.5q0 150 44 276t125.5 217.5t197 143t259.5 51.5q81 0 152 -21.5t132 -60.5v63h778v-175zM709 154q85 0 158.5 32.5t125.5 94.5 v761q-53 65 -128 99.5t-169 34.5q-80 0 -150 -32.5t-123 -95.5t-83.5 -156.5t-30.5 -215.5t30 -219t83.5 -164.5t126.5 -103t160 -35.5z" />
<glyph unicode="&#x153;" horiz-adv-x="1640" d="M918 467q9 -148 86.5 -228t206.5 -80q91 0 156 15.5t110 32.5l50 -153q-54 -29 -141.5 -51.5t-201.5 -22.5q-96 0 -175 28t-141 82q-60 -54 -138 -82t-171 -28q-110 0 -199 38t-152 107t-97 165.5t-34 213.5q0 121 35 220.5t99.5 170.5t156 110t204.5 39q89 0 164 -28 t135 -79q60 52 137.5 79.5t172.5 27.5q91 0 162 -26.5t120 -76t74.5 -120.5t25.5 -159q0 -55 -9.5 -108t-22.5 -87h-613zM571 144q60 0 107.5 22.5t81.5 64.5q-59 115 -59 271q0 166 58 288q-34 43 -84 66t-115 23q-62 0 -111 -25.5t-82.5 -73t-51 -113.5t-17.5 -147 q0 -86 18 -155.5t52.5 -118.5t85.5 -75.5t117 -26.5zM1352 600q4 23 4.5 40t0.5 33q-1 97 -51 151.5t-141 54.5q-105 0 -168.5 -72.5t-75.5 -206.5h431z" />
<glyph unicode="&#x154;" horiz-adv-x="1143" d="M157 0v1330h416q112 0 201 -26t150 -77t93.5 -125.5t32.5 -171.5q0 -63 -22 -121t-58.5 -106t-84 -84t-99.5 -56l303 -563h-232l-269 520h-219v-520h-212zM369 685h300q34 11 63 33.5t50 52.5t33 67.5t12 78.5q0 117 -67 180t-190 63h-201v-475zM288 1596l463 234 l82 -184l-494 -163z" />
<glyph unicode="&#x155;" horiz-adv-x="721" d="M321 1024l30 -139q22 27 58.5 55t81.5 50.5t95 37.5t100 15v-202q-44 -1 -90 -9.5t-88 -23t-78.5 -33t-61.5 -39.5v-736h-211v1024h164zM163 1296l462 234l82 -184l-494 -163z" />
<glyph unicode="&#x156;" horiz-adv-x="1143" d="M157 0v1330h416q112 0 201 -26t150 -77t93.5 -125.5t32.5 -171.5q0 -63 -22 -121t-58.5 -106t-84 -84t-99.5 -56l303 -563h-232l-269 520h-219v-520h-212zM369 685h300q34 11 63 33.5t50 52.5t33 67.5t12 78.5q0 117 -67 180t-190 63h-201v-475zM658 -96q9 -7 23.5 -22 t27.5 -36.5t22.5 -49.5t9.5 -61q0 -56 -24 -97.5t-65 -70.5t-95.5 -45.5t-114.5 -21.5l-37 106q29 5 56.5 15.5t48.5 26t33.5 36.5t12.5 47q0 27 -8 49.5t-19 40t-21.5 29t-16.5 17.5z" />
<glyph unicode="&#x157;" horiz-adv-x="721" d="M321 1024l30 -139q22 27 58.5 55t81.5 50.5t95 37.5t100 15v-202q-44 -1 -90 -9.5t-88 -23t-78.5 -33t-61.5 -39.5v-736h-211v1024h164zM341 -96q9 -7 23.5 -22t27.5 -36.5t22.5 -49.5t9.5 -61q0 -56 -24 -97.5t-65 -70.5t-95.5 -45.5t-114.5 -21.5l-37 106q29 5 56 15.5 t48 26t34 36.5t13 47q0 27 -8 49.5t-19 40t-22 29t-17 17.5z" />
<glyph unicode="&#x158;" horiz-adv-x="1143" d="M157 0v1330h416q112 0 201 -26t150 -77t93.5 -125.5t32.5 -171.5q0 -63 -22 -121t-58.5 -106t-84 -84t-99.5 -56l303 -563h-232l-269 520h-219v-520h-212zM369 685h300q34 11 63 33.5t50 52.5t33 67.5t12 78.5q0 117 -67 180t-190 63h-201v-475zM320 1829q27 -17 57 -39 t59.5 -46t57 -49.5t49.5 -47.5q22 22 49.5 47.5t57 49.5t59.5 46t57 39l93 -143q-95 -52 -173 -108t-143 -120q-65 64 -143 120t-173 108z" />
<glyph unicode="&#x159;" horiz-adv-x="721" d="M321 1024l30 -139q22 27 58.5 55t81.5 50.5t95 37.5t100 15v-202q-44 -1 -90 -9.5t-88 -23t-78.5 -33t-61.5 -39.5v-736h-211v1024h164zM174 1529q27 -17 57 -39t59.5 -46t57 -49.5t49.5 -47.5q22 22 49.5 47.5t57 49.5t59.5 46t57 39l93 -143q-95 -52 -173.5 -108 t-142.5 -120q-65 64 -143 120t-173 108z" />
<glyph unicode="&#x15a;" horiz-adv-x="1024" d="M135 246q25 -13 60.5 -27.5t78 -26.5t90 -20t97.5 -8q125 0 194 44t69 125q0 37 -11 66t-36 54t-65 48.5t-97 48.5l-151 65q-64 27 -114 61t-85 78t-53.5 99t-18.5 124q0 86 36 155t97.5 117.5t143 74.5t172.5 26q61 0 114 -8t97 -20.5t79 -27t62 -27.5l-44 -169 q-27 12 -62 23.5t-74.5 21.5t-81.5 16t-83 6q-57 0 -101 -13.5t-74.5 -37t-46.5 -55.5t-16 -69q0 -38 10 -67.5t32 -53t56 -44t82 -40.5l163 -72q147 -66 218.5 -153.5t72.5 -214.5q0 -87 -32.5 -155t-94.5 -114.5t-151.5 -71t-202.5 -24.5q-60 0 -117.5 8t-107 21.5t-90 31 t-66.5 35.5zM260 1596l462 234l83 -184l-494 -163z" />
<glyph unicode="&#x15b;" horiz-adv-x="834" d="M126 219q22 -11 52 -22t65.5 -21t75.5 -16t81 -6q40 0 73.5 6t57.5 18.5t37 33.5t13 51q0 28 -12 49.5t-35.5 40t-58 34.5t-78.5 33l-81 31q-113 42 -172 111.5t-59 177.5q0 72 28.5 128.5t77.5 95.5t115.5 59.5t142.5 20.5q90 0 169 -19t130 -45l-42 -164 q-22 8 -50 17.5t-60 17.5t-68 13.5t-73 5.5q-35 0 -66 -7t-54 -21.5t-36 -36t-13 -51.5q0 -24 8.5 -44.5t28 -38.5t52.5 -35.5t82 -36.5l85 -33q118 -46 179 -116t61 -180q0 -67 -23.5 -120.5t-70 -91t-116 -58t-161.5 -20.5q-113 0 -196.5 23t-139.5 53zM164 1296l462 234 l83 -184l-494 -163z" />
<glyph unicode="&#x15c;" horiz-adv-x="1024" d="M135 246q25 -13 60.5 -27.5t78 -26.5t90 -20t97.5 -8q125 0 194 44t69 125q0 37 -11 66t-36 54t-65 48.5t-97 48.5l-151 65q-64 27 -114 61t-85 78t-53.5 99t-18.5 124q0 86 36 155t97.5 117.5t143 74.5t172.5 26q61 0 114 -8t97 -20.5t79 -27t62 -27.5l-44 -169 q-27 12 -62 23.5t-74.5 21.5t-81.5 16t-83 6q-57 0 -101 -13.5t-74.5 -37t-46.5 -55.5t-16 -69q0 -38 10 -67.5t32 -53t56 -44t82 -40.5l163 -72q147 -66 218.5 -153.5t72.5 -214.5q0 -87 -32.5 -155t-94.5 -114.5t-151.5 -71t-202.5 -24.5q-60 0 -117.5 8t-107 21.5t-90 31 t-66.5 35.5zM742 1457q-25 18 -53.5 39.5t-57.5 45t-56 46t-49 42.5q-22 -20 -49 -42.5t-55.5 -45.5t-57.5 -45t-54 -40l-102 135q31 20 68.5 45.5t78.5 54t84 59.5t87 64q88 -66 171.5 -124t146.5 -99z" />
<glyph unicode="&#x15d;" horiz-adv-x="834" d="M126 219q22 -11 52 -22t65.5 -21t75.5 -16t81 -6q40 0 73.5 6t57.5 18.5t37 33.5t13 51q0 28 -12 49.5t-35.5 40t-58 34.5t-78.5 33l-81 31q-113 42 -172 111.5t-59 177.5q0 72 28.5 128.5t77.5 95.5t115.5 59.5t142.5 20.5q90 0 169 -19t130 -45l-42 -164 q-22 8 -50 17.5t-60 17.5t-68 13.5t-73 5.5q-35 0 -66 -7t-54 -21.5t-36 -36t-13 -51.5q0 -24 8.5 -44.5t28 -38.5t52.5 -35.5t82 -36.5l85 -33q118 -46 179 -116t61 -180q0 -67 -23.5 -120.5t-70 -91t-116 -58t-161.5 -20.5q-113 0 -196.5 23t-139.5 53zM643 1157 q-25 18 -53.5 39.5t-57.5 45t-56 46t-49 42.5q-22 -20 -49 -42.5t-55.5 -45.5t-57 -45t-53.5 -40l-103 135q31 20 68.5 45.5t78.5 54t84 59.5t87 64q88 -66 171.5 -124t146.5 -99z" />
<glyph unicode="&#x15e;" horiz-adv-x="1024" d="M135 246q25 -13 60.5 -27.5t78 -26.5t90 -20t97.5 -8q125 0 194 44t69 125q0 37 -11 66t-36 54t-65 48.5t-97 48.5l-151 65q-64 27 -114 61t-85 78t-53.5 99t-18.5 124q0 86 36 155t97.5 117.5t143 74.5t172.5 26q61 0 114 -8t97 -20.5t79 -27t62 -27.5l-44 -169 q-27 12 -62 23.5t-74.5 21.5t-81.5 16t-83 6q-57 0 -101 -13.5t-74.5 -37t-46.5 -55.5t-16 -69q0 -38 10 -67.5t32 -53t56 -44t82 -40.5l163 -72q147 -66 218.5 -153.5t72.5 -214.5q0 -87 -32.5 -155t-94.5 -114.5t-151.5 -71t-202.5 -24.5q-60 0 -117.5 8t-107 21.5t-90 31 t-66.5 35.5zM336 -355q11 -4 32.5 -7t47.5 -3q45 0 66 21.5t21 52.5q0 33 -22 52.5t-64 19.5h-61l9 114h97q43 0 79.5 -10.5t63 -32.5t41.5 -54.5t15 -76.5q0 -51 -17.5 -89t-49 -63t-76.5 -37t-99 -12q-32 0 -59.5 5.5t-41.5 12.5z" />
<glyph unicode="&#x15f;" horiz-adv-x="834" d="M126 219q22 -11 52 -22t65.5 -21t75.5 -16t81 -6q40 0 73.5 6t57.5 18.5t37 33.5t13 51q0 28 -12 49.5t-35.5 40t-58 34.5t-78.5 33l-81 31q-113 42 -172 111.5t-59 177.5q0 72 28.5 128.5t77.5 95.5t115.5 59.5t142.5 20.5q90 0 169 -19t130 -45l-42 -164 q-22 8 -50 17.5t-60 17.5t-68 13.5t-73 5.5q-35 0 -66 -7t-54 -21.5t-36 -36t-13 -51.5q0 -24 8.5 -44.5t28 -38.5t52.5 -35.5t82 -36.5l85 -33q118 -46 179 -116t61 -180q0 -67 -23.5 -120.5t-70 -91t-116 -58t-161.5 -20.5q-113 0 -196.5 23t-139.5 53zM255 -355 q12 -4 33 -7t47 -3q45 0 66.5 21.5t21.5 52.5q0 33 -22 52.5t-65 19.5h-61l10 114h97q43 0 79.5 -10.5t63 -32.5t41.5 -54.5t15 -76.5q0 -51 -17.5 -89t-49.5 -63t-77 -37t-99 -12q-32 0 -59.5 5.5t-41.5 12.5z" />
<glyph unicode="&#x160;" horiz-adv-x="1024" d="M135 246q25 -13 60.5 -27.5t78 -26.5t90 -20t97.5 -8q125 0 194 44t69 125q0 37 -11 66t-36 54t-65 48.5t-97 48.5l-151 65q-64 27 -114 61t-85 78t-53.5 99t-18.5 124q0 86 36 155t97.5 117.5t143 74.5t172.5 26q61 0 114 -8t97 -20.5t79 -27t62 -27.5l-44 -169 q-27 12 -62 23.5t-74.5 21.5t-81.5 16t-83 6q-57 0 -101 -13.5t-74.5 -37t-46.5 -55.5t-16 -69q0 -38 10 -67.5t32 -53t56 -44t82 -40.5l163 -72q147 -66 218.5 -153.5t72.5 -214.5q0 -87 -32.5 -155t-94.5 -114.5t-151.5 -71t-202.5 -24.5q-60 0 -117.5 8t-107 21.5t-90 31 t-66.5 35.5zM295 1829q27 -17 57 -39t59.5 -46t57 -49.5t49.5 -47.5q22 22 49.5 47.5t57 49.5t59.5 46t57 39l93 -143q-95 -52 -173.5 -108t-142.5 -120q-65 64 -143 120t-173 108z" />
<glyph unicode="&#x161;" horiz-adv-x="834" d="M126 219q22 -11 52 -22t65.5 -21t75.5 -16t81 -6q40 0 73.5 6t57.5 18.5t37 33.5t13 51q0 28 -12 49.5t-35.5 40t-58 34.5t-78.5 33l-81 31q-113 42 -172 111.5t-59 177.5q0 72 28.5 128.5t77.5 95.5t115.5 59.5t142.5 20.5q90 0 169 -19t130 -45l-42 -164 q-22 8 -50 17.5t-60 17.5t-68 13.5t-73 5.5q-35 0 -66 -7t-54 -21.5t-36 -36t-13 -51.5q0 -24 8.5 -44.5t28 -38.5t52.5 -35.5t82 -36.5l85 -33q118 -46 179 -116t61 -180q0 -67 -23.5 -120.5t-70 -91t-116 -58t-161.5 -20.5q-113 0 -196.5 23t-139.5 53zM204 1529 q27 -17 57 -39t59.5 -46t57 -49.5t49.5 -47.5q22 22 49.5 47.5t57 49.5t59.5 46t57 39l93 -143q-95 -52 -173 -108t-143 -120q-64 64 -142.5 120t-173.5 108z" />
<glyph unicode="&#x162;" horiz-adv-x="1023" d="M24 1330h975v-175h-381v-1155h-213v1155h-381v175zM362 -355q12 -4 33.5 -7t47.5 -3q45 0 66 21.5t21 52.5q0 33 -22 52.5t-64 19.5h-62l10 114h97q43 0 79.5 -10.5t63 -32.5t41.5 -54.5t15 -76.5q0 -51 -17.5 -89t-49.5 -63t-77 -37t-99 -12q-32 0 -59 5.5t-41 12.5z " />
<glyph unicode="&#x163;" horiz-adv-x="760" d="M386 1024h295v-165h-289v-533q0 -92 37 -131.5t118 -39.5q16 0 35 2t37.5 5t34.5 7t28 8l33 -161q-19 -7 -45 -13.5t-54.5 -11.5t-58 -8t-55.5 -3q-163 0 -242 78.5t-79 239.5v561h-160v147l173 11l12 234l180 19v-246zM288 -355q12 -4 33 -7t47 -3q45 0 66.5 21.5 t21.5 52.5q0 33 -22 52.5t-64 19.5h-62l10 114h97q43 0 79.5 -10.5t63 -32.5t41.5 -54.5t15 -76.5q0 -51 -17.5 -89t-49.5 -63t-77 -37t-99 -12q-32 0 -59.5 5.5t-41.5 12.5z" />
<glyph unicode="&#x164;" horiz-adv-x="1023" d="M24 1330h975v-175h-381v-1155h-213v1155h-381v175zM288 1829q27 -17 57 -39t59.5 -46t57 -49.5t49.5 -47.5q22 22 49.5 47.5t57 49.5t59.5 46t57 39l93 -143q-95 -52 -173 -108t-143 -120q-64 64 -142 120t-173 108z" />
<glyph unicode="&#x165;" horiz-adv-x="753" d="M646 1582q9 -7 23.5 -22t28 -38.5t23 -53.5t9.5 -67q0 -51 -17 -92.5t-43.5 -74t-59 -56.5t-64.5 -39l-76 83q15 10 30.5 24.5t28 34.5t21 45t8.5 56q0 28 -9.5 53.5t-22 46t-26 35t-21.5 21.5zM383 1024h295v-165h-289v-533q0 -92 37 -131.5t118 -39.5q16 0 35 2t37.5 5 t34.5 7t28 8l33 -161q-19 -7 -45 -13.5t-54.5 -11.5t-58 -8t-55.5 -3q-163 0 -242 78.5t-79 239.5v561h-160v147l173 11l12 234l180 19v-246z" />
<glyph unicode="&#x166;" horiz-adv-x="1023" d="M24 1330h975v-175h-381v-432h232v-122h-232v-601h-213v601h-233v122h233v432h-381v175z" />
<glyph unicode="&#x167;" horiz-adv-x="760" d="M386 1024h295v-165h-289v-217h277v-130h-277v-186q0 -92 37 -131.5t118 -39.5q16 0 35 2t37.5 5t34.5 7t28 8l33 -161q-19 -7 -45 -13.5t-54.5 -11.5t-58 -8t-55.5 -3q-163 0 -242 78.5t-79 239.5v214h-136v116l136 9v222h-160v147l173 11l12 234l180 19v-246z" />
<glyph unicode="&#x168;" horiz-adv-x="1265" d="M339 529q0 -188 79 -280t219 -92q67 0 120.5 22.5t91 66.5t57.5 109t20 151v824h213v-810q0 -127 -35.5 -227t-101.5 -169.5t-161.5 -106.5t-215.5 -37q-117 0 -209.5 36t-157 104.5t-98.5 168t-34 227.5v814h213v-801zM303 1613q13 29 34 57.5t49.5 51t63.5 36.5t77 14 q32 0 63 -11t60 -23.5t55 -23.5t49 -11q19 0 34.5 7t28.5 18t24 23.5t22 24.5l104 -88q-16 -33 -37.5 -62t-50 -50t-63 -33t-76.5 -12q-30 0 -58.5 11t-56 23.5t-54 23.5t-53.5 11q-18 0 -34 -7t-29.5 -18t-25 -24t-20.5 -25z" />
<glyph unicode="&#x169;" horiz-adv-x="1134" d="M806 0l-21 118q-32 -30 -69.5 -55t-79 -43.5t-85.5 -29t-89 -10.5q-160 0 -242 92t-82 278v674h212v-642q0 -222 176 -222q27 0 59 8t64 22t62 33t54 41v760h212v-1024h-171zM230 1313q13 29 34 57.5t49.5 51t63.5 36.5t77 14q32 0 63 -11t60 -23.5t55 -23.5t48 -11 q19 0 35 7t29 18t24 23.5t21 24.5l105 -88q-16 -33 -37.5 -62t-50 -50t-63 -33t-76.5 -12q-30 0 -59 11t-56.5 23.5t-54 23.5t-52.5 11q-19 0 -35 -7t-29.5 -18t-24.5 -24t-20 -25z" />
<glyph unicode="&#x16a;" horiz-adv-x="1265" d="M339 529q0 -188 79 -280t219 -92q67 0 120.5 22.5t91 66.5t57.5 109t20 151v824h213v-810q0 -127 -35.5 -227t-101.5 -169.5t-161.5 -106.5t-215.5 -37q-117 0 -209.5 36t-157 104.5t-98.5 168t-34 227.5v814h213v-801zM343 1736h578v-157h-578v157z" />
<glyph unicode="&#x16b;" horiz-adv-x="1134" d="M806 0l-21 118q-32 -30 -69.5 -55t-79 -43.5t-85.5 -29t-89 -10.5q-160 0 -242 92t-82 278v674h212v-642q0 -222 176 -222q27 0 59 8t64 22t62 33t54 41v760h212v-1024h-171zM276 1429h578v-157h-578v157z" />
<glyph unicode="&#x16c;" horiz-adv-x="1265" d="M339 529q0 -188 79 -280t219 -92q67 0 120.5 22.5t91 66.5t57.5 109t20 151v824h213v-810q0 -127 -35.5 -227t-101.5 -169.5t-161.5 -106.5t-215.5 -37q-117 0 -209.5 36t-157 104.5t-98.5 168t-34 227.5v814h213v-801zM505 1783q1 -32 8 -60.5t22 -50t38.5 -34 t58.5 -12.5t59 12.5t39 34t22 50t8 60.5h148q7 -75 -12.5 -132.5t-57.5 -96t-91.5 -58t-114.5 -19.5t-114.5 19.5t-91.5 58t-57.5 96t-12.5 132.5h149z" />
<glyph unicode="&#x16d;" horiz-adv-x="1134" d="M806 0l-21 118q-32 -30 -69.5 -55t-79 -43.5t-85.5 -29t-89 -10.5q-160 0 -242 92t-82 278v674h212v-642q0 -222 176 -222q27 0 59 8t64 22t62 33t54 41v760h212v-1024h-171zM436 1476q1 -32 8 -60.5t22 -49.5t39 -33.5t59 -12.5q34 0 58 12.5t39 33.5t22 49.5t8 60.5 h149q7 -75 -12.5 -132.5t-57.5 -96t-91.5 -58t-114.5 -19.5t-114.5 19.5t-92 58t-57.5 96t-12 132.5h148z" />
<glyph unicode="&#x16e;" horiz-adv-x="1265" d="M339 529q0 -188 79 -280t219 -92q67 0 120.5 22.5t91 66.5t57.5 109t20 151v824h213v-810q0 -127 -35.5 -227t-101.5 -169.5t-161.5 -106.5t-215.5 -37q-117 0 -209.5 36t-157 104.5t-98.5 168t-34 227.5v814h213v-801zM546 1650q0 -38 26 -63t61 -25q39 0 64 26t25 64 t-26 62t-61 24q-38 0 -63.5 -25t-25.5 -63zM412 1644q0 50 17 91t47.5 70t72.5 45t92 16q45 0 84 -15.5t68 -43t46 -66t17 -83.5q0 -50 -17 -91.5t-47.5 -70.5t-72.5 -45t-92 -16q-45 0 -84 15.5t-68 43t-46 66t-17 84.5z" />
<glyph unicode="&#x16f;" horiz-adv-x="1134" d="M806 0l-21 118q-32 -30 -69.5 -55t-79 -43.5t-85.5 -29t-89 -10.5q-160 0 -242 92t-82 278v674h212v-642q0 -222 176 -222q27 0 59 8t64 22t62 33t54 41v760h212v-1024h-171zM470 1350q0 -38 25.5 -63t60.5 -25q39 0 64.5 26t25.5 64q0 19 -7 34.5t-19 27t-28 18t-34 6.5 q-38 0 -63 -25t-25 -63zM336 1344q0 50 17 91t47.5 70t72 45t91.5 16q45 0 84 -15.5t68.5 -43t46.5 -66t17 -83.5q0 -50 -17 -91.5t-47.5 -70.5t-72.5 -45t-92 -16q-45 0 -84 15.5t-68 43t-46 66t-17 84.5z" />
<glyph unicode="&#x170;" horiz-adv-x="1265" d="M339 529q0 -188 79 -280t219 -92q67 0 120.5 22.5t91 66.5t57.5 109t20 151v824h213v-810q0 -127 -35.5 -227t-101.5 -169.5t-161.5 -106.5t-215.5 -37q-117 0 -209.5 36t-157 104.5t-98.5 168t-34 227.5v814h213v-801zM350 1527l243 345l145 -100l-280 -319zM687 1537 l238 338l145 -100l-274 -313z" />
<glyph unicode="&#x171;" horiz-adv-x="1134" d="M806 0l-21 118q-32 -30 -69.5 -55t-79 -43.5t-85.5 -29t-89 -10.5q-160 0 -242 92t-82 278v674h212v-642q0 -222 176 -222q27 0 59 8t64 22t62 33t54 41v760h212v-1024h-171zM281 1221l242 344l146 -100l-280 -319zM618 1231l238 337l145 -100l-274 -312z" />
<glyph unicode="&#x172;" horiz-adv-x="1265" d="M339 569q0 -212 74.5 -312t223.5 -100q67 0 120.5 22.5t91 66.5t57.5 109t20 151v824h213v-810q0 -209 -92.5 -342.5t-260.5 -177.5q-24 -18 -48 -40.5t-43 -47.5t-31 -53t-12 -58q0 -49 25 -73t66 -24q19 0 37 3.5t33.5 8t26.5 9.5t17 8l40 -121q-9 -7 -26.5 -16 t-42 -17.5t-53.5 -14.5t-60 -6q-48 0 -91 12.5t-75.5 38t-52 64t-19.5 89.5q0 34 11 65.5t28.5 59.5t40 51.5t45.5 42.5q-111 3 -199.5 40t-150 105.5t-94 166.5t-32.5 223v814h213v-761z" />
<glyph unicode="&#x173;" horiz-adv-x="1134" d="M977 1q-2 0 -4 -0.5t-4 -0.5q-24 -18 -48.5 -40.5t-43.5 -47.5t-31 -53t-12 -58q0 -49 25 -73t66 -24q19 0 37 3.5t33 8t26 9.5t17 8l40 -121q-9 -7 -26.5 -16t-41.5 -17.5t-53.5 -14.5t-60.5 -6q-47 0 -90 12.5t-75.5 38t-52 64t-19.5 89.5q0 39 13.5 74t35 65.5 t48 55.5t52.5 43h-2l-21 118q-32 -30 -69.5 -55t-79 -43.5t-85.5 -29t-89 -10.5q-160 0 -242 92t-82 278v674h212v-642q0 -222 176 -222q27 0 59 8t64 22t62 33t54 41v760h212v-1023z" />
<glyph unicode="&#x174;" horiz-adv-x="1915" d="M1874 1330l-389 -1330h-246l-282 951l-281 -951h-246l-389 1330h238l283 -1068l50 157l251 891h189l251 -891l50 -157l282 1068h239zM1173 1464q-25 18 -53.5 39.5t-57.5 45t-56 46t-49 42.5q-22 -20 -49 -43t-55.5 -46t-57 -44.5t-53.5 -39.5l-103 135q63 41 146.5 99 t171.5 124q88 -66 171.5 -124t146.5 -99z" />
<glyph unicode="&#x175;" horiz-adv-x="1601" d="M1569 1024l-314 -1024h-243l-212 688l-213 -688h-243l-312 1024h223l219 -793l40 116l196 667h182l195 -667l40 -116l219 793h223zM1016 1157q-25 18 -53.5 39.5t-57.5 45t-56 46t-49 42.5q-22 -20 -49 -42.5t-55.5 -45.5t-57.5 -45t-54 -40l-102 135q31 20 68.5 45.5 t78.5 54t84 59.5t87 64q88 -66 171.5 -124t146.5 -99z" />
<glyph unicode="&#x176;" horiz-adv-x="1137" d="M461 507l-440 823h230l319 -623l318 623h228l-441 -823v-507h-214v507zM784 1457q-25 18 -53.5 39.5t-57.5 45t-56 46t-49 42.5q-22 -20 -49 -42.5t-55.5 -45.5t-57 -45t-53.5 -40l-103 135q31 20 68.5 45.5t78.5 54t84 59.5t87 64q88 -66 171.5 -124t146.5 -99z" />
<glyph unicode="&#x177;" horiz-adv-x="1050" d="M1026 1024l-352 -1013q-41 -118 -86 -199.5t-99 -132t-120 -73t-151 -22.5q-33 0 -63.5 4.5t-56.5 11.5t-46 14.5t-31 12.5l42 157q15 -6 54.5 -17t94.5 -11q40 0 73.5 11.5t60.5 38t49.5 68.5t41.5 102l-52 119q-94 232 -185 463.5t-185 465.5h230l263 -730l36 -87 l255 817h227zM736 1157q-25 18 -53.5 39.5t-57.5 45t-56 46t-49 42.5q-22 -20 -49 -42.5t-55.5 -45.5t-57 -45t-53.5 -40l-103 135q31 20 68.5 45.5t78.5 54t84 59.5t87 64q88 -66 171.5 -124t146.5 -99z" />
<glyph unicode="&#x178;" horiz-adv-x="1137" d="M461 507l-440 823h230l319 -623l318 623h228l-441 -823v-507h-214v507zM233 1644q0 31 10.5 56t28.5 43t43.5 27.5t55.5 9.5q26 0 49 -9.5t40 -26t27 -39.5t10 -50q0 -64 -39 -101t-99 -37q-26 0 -49 9.5t-40 26.5t-27 40t-10 51zM640 1644q0 31 10.5 56t28.5 43 t43.5 27.5t55.5 9.5q26 0 49 -9.5t40 -26t27 -39.5t10 -50q0 -64 -39 -101t-99 -37q-26 0 -49 9.5t-40 26.5t-27 40t-10 51z" />
<glyph unicode="&#x179;" horiz-adv-x="1077" d="M722 1155h-605v175h863v-152l-656 -1003h696v-175h-943v152zM312 1596l463 234l82 -184l-494 -163z" />
<glyph unicode="&#x17a;" horiz-adv-x="964" d="M597 859h-467v165h714v-138l-507 -722h536v-164h-782v138zM234 1296l462 234l83 -184l-494 -163z" />
<glyph unicode="&#x17b;" horiz-adv-x="1077" d="M722 1155h-605v175h863v-152l-656 -1003h696v-175h-943v152zM415 1644q0 63 38.5 99.5t98.5 36.5q26 0 49 -9.5t40 -26t27 -39.5t10 -50q0 -64 -39 -101t-99 -37q-26 0 -49 9.5t-40 26.5t-26.5 40t-9.5 51z" />
<glyph unicode="&#x17c;" horiz-adv-x="964" d="M597 859h-467v165h714v-138l-507 -722h536v-164h-782v138zM353 1344q0 31 10.5 56t28.5 43t43.5 27.5t55.5 9.5q26 0 49 -9.5t40 -26t27 -39.5t10 -50q0 -64 -39 -101t-99 -37q-26 0 -49 9.5t-40 26.5t-27 40t-10 51z" />
<glyph unicode="&#x17d;" horiz-adv-x="1063" d="M708 1155h-605v175h863v-152l-656 -1003h696v-175h-943v152zM312 1829q27 -17 57 -39t59.5 -46t57 -49.5t49.5 -47.5q22 22 49.5 47.5t57 49.5t59.5 46t57 39l93 -143q-95 -52 -173 -108t-143 -120q-65 64 -143 120t-173 108z" />
<glyph unicode="&#x17e;" horiz-adv-x="964" d="M597 859h-467v165h714v-138l-507 -722h536v-164h-782v138zM262 1529q27 -17 57 -39t59.5 -46t57 -49.5t49.5 -47.5q22 22 49.5 47.5t57 49.5t59.5 46t57 39l92 -143q-95 -52 -173 -108t-142 -120q-65 64 -143 120t-173 108z" />
<glyph unicode="&#x17f;" horiz-adv-x="570" d="M392 0h-211v859h-160v147l162 11v115q0 69 20 127t57.5 102.5t92 73t124.5 37.5q50 8 100 6q51 -2 92.5 -12.5t67.5 -19.5l-37 -159q-23 7 -60.5 14t-79.5 7q-168 0 -168 -194v-1114z" />
<glyph unicode="&#x192;" horiz-adv-x="1070" d="M578 762h246v-165h-270q-26 -165 -50.5 -333t-56.5 -331q-33 -167 -120.5 -249.5t-222.5 -95.5q-22 -2 -43.5 -2.5t-42.5 0.5q-23 2 -50 7t-44 11l32 164q17 -5 40.5 -8.5t50.5 -3.5q84 0 130.5 45t63.5 150l102 646h-128v149l155 9l31 199q3 18 6.5 36t7.5 36 q15 75 50.5 135t87.5 102t120 64.5t148 22.5q60 0 105 -12t70 -22l-42 -159q-23 7 -60 14t-79 7q-170 0 -201 -194z" />
<glyph unicode="&#x1fa;" horiz-adv-x="1263" d="M894 333h-525l-120 -333h-228l512 1330h197l512 -1330h-228zM429 502h405q-42 115 -81 229.5t-79 229.5l-44 115zM582 1545q0 -22 15 -36.5t35 -14.5q23 0 37.5 15t14.5 38q0 22 -15 36t-36 14q-22 0 -36.5 -14.5t-14.5 -37.5zM471 1540q0 37 12.5 67.5t34.5 52.5 t52.5 33.5t67.5 11.5q33 0 61.5 -11.5t49.5 -32t33.5 -48.5t12.5 -62q0 -38 -12.5 -68t-35 -52t-53 -33.5t-67.5 -11.5q-32 0 -60.5 11.5t-49.5 32t-33.5 48.5t-12.5 62zM419 1806l344 181l72 -152l-370 -126z" />
<glyph unicode="&#x1fb;" horiz-adv-x="984" d="M823 224q0 -42 16.5 -60.5t44.5 -18.5q20 0 34.5 3.5t25.5 7.5l19 -148q-24 -11 -58.5 -19.5t-75.5 -8.5q-70 0 -113 35t-62 89q-59 -60 -130 -92t-147 -32q-68 0 -125 20t-98.5 57t-65 88t-23.5 114q0 67 22.5 118t62 86.5t93 58t115 33t128 11t132.5 -6.5v105 q0 96 -45 148.5t-151 52.5q-39 0 -77 -6t-72.5 -15t-63.5 -19.5t-49 -19.5l-47 152q23 13 58.5 28.5t79.5 28.5t94.5 21.5t103.5 8.5q183 0 278.5 -91t95.5 -256v-473zM273 281q0 -64 41 -100t110 -36q54 0 103.5 24.5t90.5 63.5v197q-32 5 -70 6.5t-76.5 -1.5t-74 -12.5 t-63.5 -28t-44.5 -46t-16.5 -67.5zM406 1271q0 -22 15 -36.5t35 -14.5q23 0 37.5 14.5t14.5 37.5q0 22 -15.5 36t-35.5 14q-22 0 -36.5 -14t-14.5 -37zM295 1266q0 37 12.5 67.5t34.5 52t52.5 33t67.5 11.5q33 0 61.5 -11.5t49.5 -31.5t33.5 -48.5t12.5 -61.5 q0 -38 -12.5 -68.5t-35 -52t-53 -33t-67.5 -11.5q-32 0 -60.5 11.5t-49.5 31.5t-33.5 48.5t-12.5 62.5zM243 1531l344 182l72 -152l-370 -127z" />
<glyph unicode="&#x1fc;" horiz-adv-x="1842" d="M1728 1331v-175h-527v-400h504v-172h-504v-409h547v-175h-757v334h-499l-240 -334h-234l964 1331h746zM991 503v532l-378 -532h378zM1077 1601l462 233l83 -183l-494 -163z" />
<glyph unicode="&#x1fd;" horiz-adv-x="1555" d="M837 453q10 -146 85.5 -220t202.5 -74q92 0 157.5 15.5t110.5 32.5l50 -153q-55 -29 -142.5 -51.5t-202.5 -22.5q-110 0 -199 42t-152 120q-98 -83 -186.5 -122.5t-181.5 -39.5q-68 0 -125.5 21.5t-99.5 60t-65.5 92.5t-23.5 119q0 64 28.5 117t81 91.5t126 61.5 t164.5 28q40 2 79 3.5t80 2.5v87q0 103 -48.5 152t-153.5 49q-32 0 -67 -5t-70 -13t-69 -19.5t-64 -24.5l-45 154q34 18 76 33.5t88 27.5t92.5 19t90.5 7q109 0 187.5 -39.5t123.5 -113.5q60 73 143 113t187 40q91 0 162.5 -26.5t120.5 -76t74.5 -120.5t25.5 -159 q0 -55 -9 -107t-22 -86zM1267 598q5 23 5.5 40t0.5 33q-1 98 -52 153t-142 55q-51 0 -92.5 -20.5t-72 -58.5t-49.5 -92.5t-24 -122.5zM274 290q0 -68 39 -104.5t107 -36.5q64 0 123.5 30t108.5 78q-12 47 -19 97t-9 97q-83 -3 -159 -9q-91 -8 -141 -49.5t-50 -102.5z M512 1296l462 234l82 -184l-493 -163z" />
<glyph unicode="&#x1fe;" horiz-adv-x="1405" d="M131 -92l145 224q-95 89 -144 222.5t-49 307.5q0 158 43 285.5t123.5 217t196.5 137.5t263 48q88 0 164.5 -18t142.5 -53l139 215l120 -72l-145 -225q94 -89 143 -222t49 -307q0 -159 -43 -286t-123.5 -216.5t-196.5 -137.5t-262 -48q-176 0 -308 70l-138 -215zM709 154 q89 0 160.5 34t122 98.5t77.5 157t27 210.5q0 110 -23 199t-65 155l-512 -792q45 -30 97.5 -46t115.5 -16zM309 676q0 -111 22.5 -200t64.5 -155l513 792q-45 31 -97.5 47t-115.5 16q-89 0 -161 -34t-122 -98.5t-77 -157t-27 -210.5zM445 1596l462 234l83 -184l-494 -163z " />
<glyph unicode="&#x1ff;" horiz-adv-x="1131" d="M559 -20q-128 0 -229 52l-130 -201l-108 64l136 211q-72 69 -111.5 170t-39.5 228q0 121 35 220.5t99.5 170.5t156 110t204.5 39q64 0 121 -13.5t107 -39.5l131 202l108 -64l-136 -211q72 -69 111.5 -170.5t39.5 -226.5q0 -122 -35 -221.5t-99.5 -170.5t-156 -110 t-204.5 -39zM298 520q0 -70 12.5 -128t35.5 -103l356 549q-59 41 -142 41q-62 0 -111 -25.5t-82.5 -73t-51 -113.5t-17.5 -147zM571 144q62 0 111 26t82.5 73t51 114t17.5 148q0 69 -12.5 127t-35.5 103l-356 -550q59 -41 142 -41zM308 1296l462 234l82 -184l-493 -163z" />
<glyph unicode="&#x218;" horiz-adv-x="1024" d="M135 246q25 -13 60.5 -27.5t78 -26.5t90 -20t97.5 -8q125 0 194 44t69 125q0 37 -11 66t-36 54t-65 48.5t-97 48.5l-151 65q-64 27 -114 61t-85 78t-53.5 99t-18.5 124q0 86 36 155t97.5 117.5t143 74.5t172.5 26q61 0 114 -8t97 -20.5t79 -27t62 -27.5l-44 -169 q-27 12 -62 23.5t-74.5 21.5t-81.5 16t-83 6q-57 0 -101 -13.5t-74.5 -37t-46.5 -55.5t-16 -69q0 -38 10 -67.5t32 -53t56 -44t82 -40.5l163 -72q147 -66 218.5 -153.5t72.5 -214.5q0 -87 -32.5 -155t-94.5 -114.5t-151.5 -71t-202.5 -24.5q-60 0 -117.5 8t-107 21.5t-90 31 t-66.5 35.5zM598 -96q9 -7 23 -22t27.5 -36.5t23 -49.5t9.5 -61q0 -56 -24 -97.5t-65.5 -70.5t-96 -45.5t-114.5 -21.5l-37 106q29 5 56.5 15.5t48.5 26t33.5 36.5t12.5 47q0 27 -8 49.5t-19 40t-21.5 29t-16.5 17.5z" />
<glyph unicode="&#x219;" horiz-adv-x="834" d="M126 219q22 -11 52 -22t65.5 -21t75.5 -16t81 -6q40 0 73.5 6t57.5 18.5t37 33.5t13 51q0 28 -12 49.5t-35.5 40t-58 34.5t-78.5 33l-81 31q-113 42 -172 111.5t-59 177.5q0 72 28.5 128.5t77.5 95.5t115.5 59.5t142.5 20.5q90 0 169 -19t130 -45l-42 -164 q-22 8 -50 17.5t-60 17.5t-68 13.5t-73 5.5q-35 0 -66 -7t-54 -21.5t-36 -36t-13 -51.5q0 -24 8.5 -44.5t28 -38.5t52.5 -35.5t82 -36.5l85 -33q118 -46 179 -116t61 -180q0 -67 -23.5 -120.5t-70 -91t-116 -58t-161.5 -20.5q-113 0 -196.5 23t-139.5 53zM510 -96 q9 -7 23.5 -22t27.5 -36.5t22.5 -49.5t9.5 -61q0 -56 -24 -97.5t-65.5 -70.5t-96 -45.5t-114.5 -21.5l-37 106q29 5 56.5 15.5t48.5 26t33.5 36.5t12.5 47q0 27 -8 49.5t-18.5 40t-21.5 29t-17 17.5z" />
<glyph unicode="&#x21a;" horiz-adv-x="1023" d="M24 1330h975v-175h-381v-1155h-213v1155h-381v175zM571 -96q9 -7 23.5 -22t27.5 -36.5t22.5 -49.5t9.5 -61q0 -56 -24 -97.5t-65 -70.5t-95.5 -45.5t-115.5 -21.5l-36 106q29 5 56 15.5t48 26t34 36.5t13 47q0 27 -8 49.5t-19 40t-22 29t-17 17.5z" />
<glyph unicode="&#x21b;" horiz-adv-x="760" d="M386 1024h295v-165h-289v-533q0 -92 37 -131.5t118 -39.5q16 0 35 2t37.5 5t34.5 7t28 8l33 -161q-19 -7 -45 -13.5t-54.5 -11.5t-58 -8t-55.5 -3q-163 0 -242 78.5t-79 239.5v561h-160v147l173 11l12 234l180 19v-246zM501 -96q9 -7 23.5 -22t27.5 -36.5t22.5 -49.5 t9.5 -61q0 -56 -24 -97.5t-65.5 -70.5t-96 -45.5t-114.5 -21.5l-37 106q29 5 56.5 15.5t48.5 26t33.5 36.5t12.5 47q0 27 -8 49.5t-19 40t-21.5 29t-16.5 17.5z" />
<glyph unicode="&#x237;" horiz-adv-x="532" d="M164 1024h211v-1059q0 -199 -88 -290t-260 -91q-38 0 -73.5 5.5t-56.5 13.5l23 164q16 -5 38 -8t46 -3q84 0 122 44.5t38 147.5v1076z" />
<glyph unicode="&#x2bc;" horiz-adv-x="398" d="M76 1028q8 16 17 40.5t17 54t13 64t5 70.5q0 35 -6 66t-15 57t-18.5 45.5t-16.5 31.5l191 40q7 -11 16 -30t17.5 -46t14.5 -61t6 -75q0 -51 -13 -97t-32.5 -85t-41.5 -68.5t-40 -45.5z" />
<glyph unicode="&#x2c6;" horiz-adv-x="866" d="M648 1157q-24 18 -52.5 39.5t-57.5 45t-56 46t-49 42.5q-22 -20 -49 -42.5t-55.5 -45.5t-57.5 -45t-54 -40l-102 135q63 41 146.5 99t171.5 124q88 -66 171.5 -124t146.5 -99z" />
<glyph unicode="&#x2c7;" horiz-adv-x="852" d="M203 1529q27 -17 57 -39t59.5 -46t57 -49.5t49.5 -47.5q22 22 49.5 47.5t57 49.5t59.5 46t57 39l92 -143q-95 -52 -173 -108t-142 -120q-65 64 -143 120t-173 108z" />
<glyph unicode="&#x2d8;" horiz-adv-x="779" d="M262 1476q1 -32 8 -60.5t22 -49.5t38.5 -33.5t58.5 -12.5t59 12.5t39 33.5t22 49.5t8 60.5h148q7 -75 -12.5 -132.5t-57.5 -96t-91.5 -58t-114.5 -19.5t-114.5 19.5t-91.5 58t-57.5 96t-12.5 132.5h149z" />
<glyph unicode="&#x2d9;" horiz-adv-x="486" d="M111 1344q0 31 10.5 56t28.5 43t43.5 27.5t55.5 9.5q26 0 49 -9.5t40 -26t27 -39.5t10 -50q0 -64 -39 -101t-99 -37q-26 0 -49 9.5t-40 26.5t-27 40t-10 51z" />
<glyph unicode="&#x2da;" horiz-adv-x="628" d="M226 1350q0 -19 7 -35t19 -28t27.5 -18.5t33.5 -6.5q39 0 64 26t25 64t-26 62t-61 24q-38 0 -63.5 -25t-25.5 -63zM92 1344q0 50 17 91t47.5 70t72 45t91.5 16q45 0 84.5 -15.5t68.5 -43t46 -66t17 -83.5q0 -50 -17 -91.5t-47.5 -70.5t-72.5 -45t-92 -16q-45 0 -84 15.5 t-68 43t-46 66t-17 84.5z" />
<glyph unicode="&#x2db;" horiz-adv-x="618" d="M458 0q-24 -18 -48 -40.5t-43.5 -47.5t-31.5 -53t-12 -58q0 -49 25 -73t66 -24q19 0 37 3.5t33.5 8t26.5 9.5t17 8l39 -121q-8 -7 -26 -16t-42 -17.5t-53.5 -14.5t-60.5 -6q-45 0 -85.5 11.5t-72.5 34.5t-52 56.5t-24 77.5q-3 32 3 64q7 38 26.5 71.5t45 61.5t53 49.5 t50.5 35.5z" />
<glyph unicode="&#x2dc;" horiz-adv-x="873" d="M104 1313q13 29 34 57.5t49.5 51t63.5 36.5t77 14q32 0 63 -11t60 -23.5t55 -23.5t49 -11q19 0 34.5 7t28.5 18t24 23.5t22 24.5l104 -88q-16 -33 -37.5 -62t-50 -50t-63 -33t-76.5 -12q-30 0 -58.5 11t-56 23.5t-54 23.5t-53.5 11q-18 0 -34 -7t-29.5 -18t-25 -24 t-20.5 -25z" />
<glyph unicode="&#x2dd;" horiz-adv-x="943" d="M111 1221l243 344l145 -100l-280 -319zM449 1231l237 337l146 -100l-275 -312z" />
<glyph unicode="&#x301;" horiz-adv-x="639" d="M111 1531l344 182l73 -152l-370 -127z" />
<glyph unicode="&#x307;" horiz-adv-x="465" d="M101 689q0 63 38.5 100t99.5 37q26 0 48.5 -9.5t39.5 -26t27 -39.5t10 -50q0 -32 -10.5 -57.5t-28.5 -43.5t-43 -27.5t-55 -9.5q-27 0 -50 9.5t-40 26t-26.5 39.5t-9.5 51z" />
<glyph unicode="&#x30a;" horiz-adv-x="547" d="M222 1271q0 -22 15.5 -36.5t35.5 -14.5q23 0 37.5 14.5t14.5 37.5q0 22 -15.5 36t-35.5 14q-23 0 -37.5 -14t-14.5 -37zM111 1266q0 37 12.5 67.5t35 52t53 33t67.5 11.5q33 0 61.5 -11.5t49.5 -31.5t33.5 -48.5t12.5 -61.5q0 -38 -12.5 -68.5t-35 -52t-53 -33 t-67.5 -11.5q-33 0 -61.5 11.5t-49.5 31.5t-33.5 48.5t-12.5 62.5z" />
<glyph unicode="&#x394;" horiz-adv-x="1281" d="M21 0v144l524 1187h190l525 -1187v-144h-1239zM254 175h772l-386 915z" />
<glyph unicode="&#x3a9;" horiz-adv-x="1427" d="M1344 0h-511v153q45 25 93.5 72t89.5 114t67.5 152.5t26.5 188.5q0 117 -31 209t-85 155.5t-128 97.5t-160 34q-79 0 -149.5 -31.5t-124 -92t-84.5 -149t-31 -202.5q0 -110 27 -199.5t67.5 -158.5t89 -117t92.5 -73v-153h-510v169h261q-50 37 -95.5 89t-80.5 117.5 t-56 143.5t-21 167q0 143 45 265t127.5 210.5t198 138.5t257.5 50q141 0 255.5 -49t194.5 -136t123.5 -207t43.5 -261q0 -93 -21 -173t-56 -146.5t-81 -119t-96 -89.5h262v-169z" />
<glyph unicode="&#x3bc;" horiz-adv-x="1134" d="M806 0l-21 118q-32 -30 -69.5 -55t-79 -43.5t-85.5 -29t-89 -10.5q-65 0 -116 23q0 -34 -3.5 -63.5t-10.5 -56.5q-14 -119 -74.5 -192.5t-166.5 -95.5q-28 -5 -55 -7t-56 0q-21 2 -44 6t-37 9l23 164q14 -5 34 -8t43 -3q73 0 106 41t33 137v1090h212v-642 q0 -222 176 -222q27 0 59 8t64 22t62 33t54 41v760h212v-1024h-171z" />
<glyph unicode="&#x3c0;" horiz-adv-x="1469" d="M21 971q13 7 35 16t52.5 17.5t70 14t87.5 5.5h1112v-165h-264q-25 -72 -47.5 -170t-24.5 -206q-2 -56 3 -107q5 -52 20 -94t40 -72t61 -46t84 -16q38 0 68.5 6t41.5 9l28 -153q-9 -4 -27 -9.5t-43 -10t-54.5 -7.5t-62.5 -3q-90 0 -158.5 36t-115 97.5t-70.5 142.5 t-24 172q0 66 8 127.5t20 116.5t27 102.5t30 84.5h-382v-157q0 -161 -22.5 -289.5t-48.5 -220.5q-32 -107 -71 -192h-201q37 89 67 199q26 94 47 222.5t21 283.5v154h-65q-76 0 -127 -11.5t-74 -22.5z" />
<glyph unicode="&#xe3f;" horiz-adv-x="1263" d="M691 1517l-13 -257q81 -6 146 -28.5t110 -61t69.5 -93t24.5 -123.5q0 -43 -13 -81.5t-34.5 -70.5t-49.5 -57.5t-58 -41.5q43 -14 81.5 -41.5t67.5 -65.5t46 -85t17 -100q0 -154 -105 -243t-301 -98l13 -257h-183l12 256h-283v1194h283l-13 254h183zM433 606v-382h195 q54 0 98 11t75.5 32.5t48.5 54t17 75.5q0 45 -13.5 83.5t-43 66.5t-74.5 43.5t-108 15.5h-195zM433 757h279q21 10 40.5 28.5t33.5 42t22.5 51t8.5 56.5q0 88 -55 130.5t-158 42.5h-171v-351z" />
<glyph unicode="&#x1e80;" horiz-adv-x="1915" d="M1874 1330l-389 -1330h-246l-282 951l-281 -951h-246l-389 1330h238l283 -1068l50 157l251 891h189l251 -891l50 -157l282 1068h239zM1165 1489l-480 158l83 183l447 -227z" />
<glyph unicode="&#x1e81;" horiz-adv-x="1601" d="M1569 1024l-314 -1024h-243l-212 688l-213 -688h-243l-312 1024h223l219 -793l40 116l196 667h182l195 -667l40 -116l219 793h223zM1006 1183l-480 157l84 183l446 -227z" />
<glyph unicode="&#x1e82;" horiz-adv-x="1915" d="M1874 1330l-389 -1330h-246l-282 951l-281 -951h-246l-389 1330h238l283 -1068l50 157l251 891h189l251 -891l50 -157l282 1068h239zM717 1603l462 233l83 -183l-494 -164z" />
<glyph unicode="&#x1e83;" horiz-adv-x="1601" d="M1569 1024l-314 -1024h-243l-212 688l-213 -688h-243l-312 1024h223l219 -793l40 116l196 667h182l195 -667l40 -116l219 793h223zM541 1296l463 234l82 -184l-494 -163z" />
<glyph unicode="&#x1e84;" horiz-adv-x="1915" d="M1874 1330l-389 -1330h-246l-282 951l-281 -951h-246l-389 1330h238l283 -1068l50 157l251 891h189l251 -891l50 -157l282 1068h239zM622 1650q0 63 38.5 100t98.5 37q26 0 49 -9.5t40 -26t27 -39.5t10 -50q0 -32 -10.5 -57.5t-28.5 -43.5t-43 -27.5t-55 -9.5 q-27 0 -50 9.5t-40 26t-26.5 39.5t-9.5 51zM1029 1650q0 63 38.5 100t98.5 37q26 0 49 -9.5t40 -26t27 -39.5t10 -50q0 -32 -10.5 -57.5t-28.5 -43.5t-43 -27.5t-55 -9.5q-27 0 -50 9.5t-40 26t-26.5 39.5t-9.5 51z" />
<glyph unicode="&#x1e85;" horiz-adv-x="1601" d="M1569 1024l-314 -1024h-243l-212 688l-213 -688h-243l-312 1024h223l219 -793l40 116l196 667h182l195 -667l40 -116l219 793h223zM465 1344q0 31 10.5 56t28.5 43t43.5 27.5t55.5 9.5q26 0 49 -9.5t40 -26t27 -39.5t10 -50q0 -32 -10.5 -57.5t-29 -43.5t-43.5 -27.5 t-55 -9.5q-27 0 -50 9.5t-40 26.5t-26.5 40t-9.5 51zM872 1344q0 31 10.5 56t28.5 43t43.5 27.5t55.5 9.5q26 0 49 -9.5t40 -26t27 -39.5t10 -50q0 -32 -10.5 -57.5t-29 -43.5t-43.5 -27.5t-55 -9.5q-27 0 -50 9.5t-40 26.5t-26.5 40t-9.5 51z" />
<glyph unicode="&#x1e9e;" horiz-adv-x="1219" d="M530 186q11 -4 32 -10t48 -11t60 -9t68 -4q46 0 84 14.5t65.5 40.5t42.5 62t15 80q0 53 -18.5 100t-63.5 79.5t-119 47t-185 2.5l-5 99l288 472h-247q-62 0 -107.5 -19t-76 -53.5t-45.5 -81.5t-15 -104v-891h-212v889q0 92 29.5 172.5t89 140t148 94t205.5 34.5h477v-132 l-300 -479q67 0 133.5 -23.5t119 -69.5t85 -113.5t32.5 -156.5q0 -86 -29 -155.5t-83 -118.5t-131.5 -75.5t-174.5 -26.5q-44 0 -83 4.5t-71.5 11.5t-56.5 15t-37 16z" />
<glyph unicode="&#x1ef2;" horiz-adv-x="1137" d="M461 507l-440 823h230l319 -623l318 623h228l-441 -823v-507h-214v507zM740 1483l-479 157l83 183l447 -227z" />
<glyph unicode="&#x1ef3;" horiz-adv-x="1050" d="M1026 1024l-352 -1013q-41 -118 -86 -199.5t-99 -132t-120 -73t-151 -22.5q-33 0 -63.5 4.5t-56.5 11.5t-46 14.5t-31 12.5l42 157q15 -6 54.5 -17t94.5 -11q40 0 73.5 11.5t60.5 38t49.5 68.5t41.5 102l-52 119q-94 232 -185 463.5t-185 465.5h230l263 -730l36 -87 l255 817h227zM688 1183l-480 157l83 183l447 -227z" />
<glyph unicode="&#x2013;" horiz-adv-x="1169" d="M157 618h855v-171h-855v171z" />
<glyph unicode="&#x2014;" horiz-adv-x="1777" d="M157 618h1463v-171h-1463v171z" />
<glyph unicode="&#x2018;" horiz-adv-x="438" d="M382 1397q-23 -16 -47 -36t-43 -45.5t-31 -56.5t-12 -68q0 -38 10.5 -70t25.5 -58t31.5 -45.5t29.5 -32.5l-188 -48q-13 10 -30 31t-32.5 50.5t-26 68t-10.5 83.5q0 61 21 111t54.5 90t76.5 70.5t88 53.5z" />
<glyph unicode="&#x2019;" horiz-adv-x="447" d="M39 1035q23 16 47 36t43 45.5t31 56.5t12 68t-10 69.5t-25 58.5t-32 45.5t-30 32.5l188 48q13 -11 30 -31.5t32.5 -50t26 -68t10.5 -83.5q0 -61 -21 -111t-54.5 -90t-76.5 -71t-87 -53z" />
<glyph unicode="&#x201a;" horiz-adv-x="438" d="M23 -216q23 16 47 36t43.5 45.5t31.5 56.5t12 68t-10.5 69.5t-25.5 58.5t-32 45.5t-30 32.5l189 48q12 -11 29 -31.5t32.5 -50t26.5 -68t11 -83.5q0 -61 -21 -111t-54.5 -90t-76.5 -71t-88 -53z" />
<glyph unicode="&#x201c;" horiz-adv-x="783" d="M372 1404q-24 -16 -48 -37t-44 -47t-32.5 -58t-12.5 -69q0 -38 10.5 -70.5t25.5 -58.5t32 -46t30 -33l-175 -46q-13 10 -30 31t-32.5 50.5t-26 67.5t-10.5 84q0 61 21 111t54.5 90t76.5 70.5t88 52.5zM727 1405q-24 -16 -47.5 -36t-43 -45.5t-31.5 -56.5t-12 -68 q0 -38 10.5 -70t25.5 -58t31.5 -45.5t29.5 -32.5l-174 -47q-13 10 -30 30.5t-32.5 50t-26 67.5t-10.5 84q0 61 20.5 110.5t54 89.5t75.5 70t85 51z" />
<glyph unicode="&#x201d;" horiz-adv-x="792" d="M383 1030q23 16 47.5 37t44.5 47t32.5 58t12.5 69q0 38 -10.5 70.5t-25.5 58.5t-32 46t-30 33l175 46q13 -10 30 -30.5t32.5 -50.5t26 -68t10.5 -84q0 -61 -21 -110.5t-54.5 -89.5t-76.5 -71t-88 -53zM28 1029q23 16 47 36t43.5 45.5t31.5 56.5t12 68q0 38 -10.5 70 t-25.5 58t-31.5 45.5t-29.5 32.5l174 47q13 -11 30 -31t32.5 -49.5t26 -67.5t10.5 -84q0 -61 -20.5 -110.5t-54 -89.5t-75.5 -70t-85 -51z" />
<glyph unicode="&#x201e;" horiz-adv-x="783" d="M368 -215q23 16 47.5 37t44.5 47t32.5 58t12.5 69t-10.5 69.5t-25.5 58.5t-32 46t-30 33l175 47q13 -11 30 -31.5t32.5 -50t26 -68t10.5 -83.5q0 -61 -21 -111t-54.5 -90t-76.5 -71t-88 -53zM13 -216q23 16 47 36t43.5 45.5t31.5 56.5t12 68t-10.5 69.5t-25.5 58.5 t-31.5 45.5t-29.5 32.5l174 46q13 -11 30 -31t32.5 -49.5t26 -67.5t10.5 -83q0 -61 -20.5 -111t-54 -89.5t-75.5 -69.5t-85 -51z" />
<glyph unicode="&#x2020;" horiz-adv-x="1327" d="M785 1593l-11 -536l406 8v-189l-410 8l-23 -1208h-168l-24 1208l-409 -8v189l406 -8l-11 536h244z" />
<glyph unicode="&#x2021;" horiz-adv-x="1321" d="M777 1608l-10 -438l407 9v-189l-412 8l-9 -358l9 -349l412 8v-189l-407 9l10 -443h-234l11 443l-408 -9v189l412 -8l8 350l-8 357l-412 -8v189l408 -9l-11 438h234z" />
<glyph unicode="&#x2022;" horiz-adv-x="676" d="M116 678q0 54 17.5 97t49 74t75 47.5t95.5 16.5q45 0 84.5 -16t69 -45t46.5 -68.5t17 -85.5q0 -55 -18 -99t-49.5 -74.5t-75 -47t-94.5 -16.5q-45 0 -85 16t-69 45t-46 69t-17 87z" />
<glyph unicode="&#x2026;" horiz-adv-x="1421" d="M101 106q0 63 38.5 100t99.5 37q26 0 48.5 -9.5t39.5 -26t27 -39.5t10 -50q0 -32 -10.5 -57.5t-28.5 -43.5t-43 -27.5t-55 -9.5q-27 0 -50 9.5t-40 26t-26.5 39.5t-9.5 51zM579 106q0 63 38.5 100t99.5 37q26 0 48.5 -9.5t39.5 -26t27 -39.5t10 -50q0 -32 -10.5 -57.5 t-28.5 -43.5t-43 -27.5t-55 -9.5q-27 0 -50 9.5t-40 26t-26.5 39.5t-9.5 51zM1057 106q0 63 38.5 100t99.5 37q26 0 48.5 -9.5t39.5 -26t27 -39.5t10 -50q0 -32 -10.5 -57.5t-28.5 -43.5t-43 -27.5t-55 -9.5q-27 0 -50 9.5t-40 26t-26.5 39.5t-9.5 51z" />
<glyph unicode="&#x2030;" horiz-adv-x="1912" d="M1526 -20q-69 0 -125 30t-87 84q-32 -54 -90.5 -84t-132.5 -30q-65 0 -119 24t-93 65t-60.5 96.5t-21.5 117.5q0 67 22 125t62 100.5t96.5 66.5t126.5 24q69 0 125 -30.5t88 -84.5q32 54 90 84.5t132 30.5q65 0 119 -24t93 -65.5t60.5 -97t21.5 -117.5 q0 -67 -21.5 -124.5t-61.5 -100t-97 -66.5t-127 -24zM1538 122q31 0 55 12.5t40 34.5t24.5 51.5t8.5 63.5q0 75 -34.5 123.5t-104.5 48.5q-31 0 -54.5 -12.5t-39.5 -34.5t-24.5 -51.5t-8.5 -63.5q0 -75 34 -123.5t104 -48.5zM1103 122q31 0 54.5 12.5t39.5 34.5t24.5 51.5 t8.5 63.5q0 75 -34 123.5t-104 48.5q-31 0 -54.5 -12.5t-40 -34.5t-25 -51.5t-8.5 -63.5q0 -75 34.5 -123.5t104.5 -48.5zM1288 1266l-970 -1286l-123 88l968 1286zM380 731q-66 0 -120 23t-92.5 64t-60 96t-21.5 120q0 70 21.5 128t61.5 100t96.5 65t127.5 23 q66 0 120.5 -23t93 -64t59.5 -96.5t21 -120.5q0 -70 -21.5 -128t-61 -99.5t-96.5 -64.5t-128 -23zM392 876q30 0 53.5 12.5t39 34t23.5 50.5t8 62q0 36 -8 67t-24.5 53.5t-42 35.5t-60.5 13q-30 0 -53 -12.5t-38.5 -34t-23.5 -50.5t-8 -62q0 -36 8 -67t24.5 -53.5 t41.5 -35.5t60 -13z" />
<glyph unicode="&#x2039;" horiz-adv-x="752" d="M652 881q-59 -91 -141.5 -186.5t-173.5 -183.5q91 -88 173.5 -183t141.5 -187l-150 -109q-44 61 -93 124.5t-101 126t-104 120.5t-100 108q49 50 101 108.5t103.5 120.5t100.5 126t93 125z" />
<glyph unicode="&#x203a;" horiz-adv-x="752" d="M92 142q59 91 141.5 186.5t173.5 183.5q-91 88 -173.5 183t-141.5 187l150 109q43 -61 92.5 -125t101.5 -126t104 -120.5t100 -107.5q-49 -50 -101 -108.5t-103.5 -120.5t-101 -126t-92.5 -125z" />
<glyph unicode="&#x203d;" horiz-adv-x="807" d="M390 1006l-8 -241q25 25 51 51.5t46.5 54.5t33.5 58t13 63q0 46 -15.5 80t-43 56.5t-65.5 33t-83 10.5t-82.5 -6.5t-67.5 -15.5t-51.5 -18t-32.5 -14l-54 148q19 12 49 26.5t70 27t89 21.5t108 9q84 0 156.5 -24.5t125 -68t82.5 -104.5t30 -134q0 -63 -22 -115t-56 -96 t-74.5 -81.5t-78 -73t-66.5 -70.5t-40 -72l-3 -111l-164 -12q-7 16 -13.5 44t-6.5 60q0 65 34 122l-12 392h151zM204 106q0 63 39 100t99 37q26 0 49 -9.5t40 -26t27 -39.5t10 -50q0 -64 -39 -101t-99 -37q-26 0 -49 9.5t-40 26t-27 39.5t-10 51z" />
<glyph unicode="&#x2044;" horiz-adv-x="1141" d="M1117 1266l-970 -1286l-123 88l968 1286z" />
<glyph unicode="&#x2070;" horiz-adv-x="694" d="M345 731q-66 0 -120 23t-93 64t-60 96t-21 120q0 70 21.5 128t61 100t96.5 65t128 23q66 0 120.5 -23t93 -64t59.5 -96.5t21 -120.5q0 -70 -21.5 -128t-61 -99.5t-96.5 -64.5t-128 -23zM357 876q30 0 53 12.5t39 34t24 50.5t8 62q0 36 -8 67t-24.5 53.5t-42 35.5 t-60.5 13q-30 0 -53.5 -12.5t-39 -34t-23.5 -50.5t-8 -62q0 -36 8 -67t25 -53.5t42 -35.5t60 -13z" />
<glyph unicode="&#x2074;" horiz-adv-x="581" d="M455 1330v-350h90v-121h-90v-108h-151v108h-272v112l275 359h148zM304 980v156l-119 -156h119z" />
<glyph unicode="&#x20a3;" horiz-adv-x="1204" d="M1046 1155h-555v-404h506v-172h-506v-215h286v-122h-286v-242h-212v242h-165v122h165v966h767v-175z" />
<glyph unicode="&#x20a4;" horiz-adv-x="1237" d="M176 130q20 11 53 23.5t65 19.5q24 78 33 152.5t9 142.5h-166v132h697v-132h-316q-1 -67 -12.5 -140.5t-34.5 -145.5q42 -3 79.5 -8t72 -10.5t68 -9.5t67.5 -4q36 -1 62 8.5t44.5 27.5t32 43t24.5 55l138 -46q-9 -62 -34.5 -110t-64.5 -81t-91 -50t-113 -17 q-44 0 -87 5.5t-86.5 12.5t-88.5 13.5t-91 7.5q-8 1 -17 1h-18q-9 -10 -20 -19q-9 -8 -20.5 -16.5t-23.5 -14.5l-125 28zM157 864h135q-3 39 -3 81q0 92 29 166.5t83 127.5t131 82t173 29q49 0 93.5 -8t81.5 -19.5t65 -24.5t46 -23l-54 -155q-19 6 -43.5 15t-54.5 17.5 t-64.5 14t-72.5 5.5q-92 0 -145 -56.5t-53 -156.5q0 -24 1 -48t3 -47h346v-132h-697v132z" />
<glyph unicode="&#x20a9;" horiz-adv-x="2163" d="M101 927h234l-103 403h224l95 -403h336l102 383h182l101 -383h336l96 403h227l-105 -403h236v-102h-262l-33 -130h215v-102h-241l-152 -593h-260l-249 946l-249 -946h-260l-151 593h-259v102h232l-33 130h-259v102zM605 695h222l34 130h-287zM1333 695h221l31 130h-286z M1448 261l38 133q11 50 22 99.5t23 99.5h-171zM709 261l27 89l63 243h-171z" />
<glyph unicode="&#x20ac;" horiz-adv-x="1395" d="M150 600h829v-132h-473q45 -148 154.5 -227.5t270.5 -79.5q71 0 135 13t139 42l56 -155q-32 -18 -72 -33t-84.5 -25.5t-92 -16.5t-94.5 -6q-134 0 -243 34t-190.5 97.5t-135.5 154t-79 202.5h-120v132zM150 864h123q27 109 82 199t136 153.5t185 98.5t229 35q50 0 97 -7 t88.5 -18.5t75 -24.5t55.5 -25l-57 -158q-54 20 -119.5 36t-140.5 16q-72 0 -136.5 -19.5t-116.5 -58t-90.5 -95.5t-59.5 -132h478v-132h-829v132z" />
<glyph unicode="&#x20b1;" horiz-adv-x="1414" d="M131 1056h148v274h407q181 0 297 -70t154 -204h164v-93h-148q3 -20 3 -40q0 -15 -1 -29.5t-3 -28.5h149v-93h-168q-44 -133 -160.5 -202.5t-287.5 -69.5h-193v-500h-213v772h-148v93h148v98h-148v93zM933 910q0 25 -5 53h-436v-98h437q2 11 3 22t1 23zM683 666 q77 0 132 27.5t85 78.5h-408v-106h191zM492 1056h405q-31 54 -87.5 79t-138.5 25h-179v-104z" />
<glyph unicode="&#x20b9;" horiz-adv-x="1207" d="M198 991h420q-18 82 -87.5 127.5t-187.5 45.5h-141v166h860v-116h-364q56 -42 92 -96.5t47 -126.5h192v-116h-193q-9 -52 -33.5 -94.5t-58 -76.5t-73.5 -59.5t-81 -43.5t-79 -28.5t-68 -13.5l485 -559h-260l-473 554v134q82 0 153.5 7.5t127 28t92.5 57t50 94.5h-420v116 z" />
<glyph unicode="&#x20ba;" horiz-adv-x="1154" d="M112 742l217 141v447h212v-311l251 165l58 -90l-309 -201v-126l248 163l58 -90l-306 -199v-460q67 2 122.5 27.5t94.5 69t59 102.5t17 128l200 16q4 -114 -33 -210t-105.5 -165.5t-164 -109t-208.5 -39.5h-194v505l-163 -106l-57 89l220 143v126l-160 -104z" />
<glyph unicode="&#x2113;" horiz-adv-x="799" d="M306 454v-107q0 -102 44 -149t125 -47q31 0 61 5.5t56 14t48 17.5t37 17l48 -145q-17 -11 -43.5 -25t-61 -26t-77.5 -20.5t-93 -8.5q-75 0 -138 20.5t-108 62.5t-70.5 107t-25.5 154v652q0 84 19.5 153t58.5 118t97 76t135 27q71 0 125.5 -24t92 -67t56.5 -103.5 t19 -132.5q0 -93 -33.5 -171t-87.5 -144t-123 -120t-139 -99zM306 670q42 31 80 67.5t67.5 80.5t47 97.5t17.5 118.5q0 31 -5.5 59.5t-17 50t-30 34t-44.5 12.5q-62 0 -88.5 -54.5t-26.5 -151.5v-314z" />
<glyph unicode="&#x2122;" horiz-adv-x="783" d="M51 1350h254v-75h-84v-251h-84v251h-86v75zM347 1350h133l60 -214l59 214h133v-326h-84v230l-75 -230h-67l-74 230v-230h-85v326z" />
<glyph unicode="&#x212e;" horiz-adv-x="1836" d="M446 632q-10 0 -10 -10v-351q0 -25 17 -44q43 -45 96 -78t112.5 -54.5t124.5 -32t133 -10.5q149 0 274.5 49.5t216.5 145.5h110q-51 -60 -115.5 -109t-141 -84t-163.5 -54.5t-183 -19.5q-161 0 -299.5 53.5t-241 146t-161 217t-58.5 267.5q0 95 27.5 182.5t77 164 t119 139t154 107t181 69t201.5 24.5t202.5 -25t182 -71t154 -110t119 -141t77 -165.5t27.5 -183.5v-22h-1233zM1399 1061q0 14 -4.5 24t-14.5 20q-87 87 -206.5 130t-254.5 43q-138 0 -257 -42.5t-207 -130.5q-19 -19 -19 -48v-346q0 -12 10 -12h945q8 0 8 12v350z" />
<glyph unicode="&#x2190;" horiz-adv-x="1829" d="M1682 580h-1214l438 -437l-119 -118l-640 639l641 641l118 -119l-436 -435h1212v-171z" />
<glyph unicode="&#x2191;" horiz-adv-x="1574" d="M702 -226v1195l-436 -438l-119 119l640 640l640 -641l-119 -118l-435 435v-1192h-171z" />
<glyph unicode="&#x2192;" horiz-adv-x="1829" d="M153 751h1211l-436 435l118 119l642 -641l-641 -639l-118 118l438 437h-1214v171z" />
<glyph unicode="&#x2193;" horiz-adv-x="1574" d="M873 1290v-1193l435 436l119 -118l-640 -641l-640 640l119 119l436 -438v1195h171z" />
<glyph unicode="&#x2196;" horiz-adv-x="1493" d="M217 396v906h905v-167h-617l841 -840l-121 -121l-841 841v-619h-167z" />
<glyph unicode="&#x2197;" horiz-adv-x="1493" d="M153 295l840 840h-616v167h905v-906h-168v619l-841 -841z" />
<glyph unicode="&#x2198;" horiz-adv-x="1493" d="M273 1116l841 -841v619h168v-906h-905v167h616l-840 840z" />
<glyph unicode="&#x2199;" horiz-adv-x="1493" d="M335 894v-619l841 841l121 -121l-841 -840h617v-167h-905v906h167z" />
<glyph unicode="&#x2202;" horiz-adv-x="1217" d="M555 1172q-44 0 -84 -6t-73 -14t-57.5 -16.5t-36.5 -14.5l-52 152q10 6 38.5 19t70 25.5t93.5 22.5t110 10q102 0 183 -24.5t142 -68t104 -104t69.5 -132.5t39 -154t12.5 -168q0 -92 -12.5 -181t-40.5 -169t-72 -147.5t-106.5 -117t-145 -77t-186.5 -27.5q-92 0 -171 24 t-137 71t-91.5 118t-33.5 166q0 103 36 191.5t102 152.5t159.5 100.5t209.5 36.5q47 0 89.5 -8.5t77.5 -22t62.5 -29t44.5 -30.5q-2 95 -24 173t-65 133.5t-106.5 85.5t-148.5 30zM550 149q73 0 131 29.5t101 84t69.5 132t36.5 173.5q-15 18 -41 36t-60 32.5t-75 24t-86 9.5 q-64 0 -117 -22.5t-91 -63.5t-59 -98t-21 -126q0 -47 14 -86t41 -66.5t66.5 -43t90.5 -15.5z" />
<glyph unicode="&#x220f;" horiz-adv-x="1428" d="M1058 1310h-689v-1465h-212v1640h1114v-1640h-213v1465z" />
<glyph unicode="&#x2211;" horiz-adv-x="1198" d="M1079 1310h-728l409 -645l-423 -645h756v-175h-988v162l432 658l-418 658v162h960v-175z" />
<glyph unicode="&#x2212;" horiz-adv-x="1079" d="M172 750h735v-171h-735v171z" />
<glyph unicode="&#x2215;" horiz-adv-x="1141" d="M1117 1266l-970 -1286l-123 88l968 1286z" />
<glyph unicode="&#x2219;" horiz-adv-x="437" d="M101 507q0 63 38.5 99.5t99.5 36.5q26 0 48.5 -9.5t39.5 -26t27 -39.5t10 -50q0 -32 -10.5 -57.5t-28.5 -43.5t-43 -27.5t-55 -9.5q-27 0 -50 9.5t-40 26.5t-26.5 40t-9.5 51z" />
<glyph unicode="&#x221a;" horiz-adv-x="1400" d="M29 876h412l256 -607l470 1216h219l-592 -1485h-186l-314 702h-265v174z" />
<glyph unicode="&#x221e;" horiz-adv-x="1882" d="M941 550q-36 -36 -73 -69.5t-77 -61t-84.5 -48.5t-93.5 -31q-63 -13 -131 -9q-74 4 -136 29.5t-106.5 68.5t-69.5 102.5t-25 133.5q0 73 25 133t69.5 103t106.5 68t136 30q68 4 131 -9q49 -10 93.5 -31t84.5 -48.5t77 -61t73 -69.5q36 36 73 69.5t77 61t84 48.5t94 31 q63 13 131 9q74 -5 136 -30t106.5 -68t69.5 -103t25 -133q0 -74 -25 -133.5t-69.5 -102.5t-106.5 -68.5t-136 -29.5q-68 -4 -131 9q-50 10 -94 31t-84 48.5t-77 61t-73 69.5zM1048 665q40 -41 78 -74.5t75 -57.5t74.5 -37t76.5 -13q44 0 81 13t64 36.5t42 57t15 75.5 t-15 75.5t-42 57t-64 36.5t-81 13q-39 0 -76.5 -13.5t-74 -37.5t-74.5 -57.5t-79 -73.5zM530 483q39 0 76.5 13t74 37t74.5 57.5t79 74.5q-41 40 -79 73.5t-74.5 57.5t-74 37.5t-76.5 13.5q-45 0 -82 -13t-63.5 -36.5t-41.5 -57t-15 -75.5t15 -75.5t41.5 -57t63.5 -36.5 t82 -13z" />
<glyph unicode="&#x222b;" horiz-adv-x="817" d="M281 1083q-4 55 -3 108q1 70 27 128t71 99t106.5 64t135.5 23q63 0 109.5 -11.5t75.5 -22.5l-37 -159q-22 7 -58 14t-75 7q-73 0 -113.5 -47.5t-35.5 -142.5l52 -896q3 -56 3 -108q-1 -70 -27 -128t-71 -99t-107 -64t-136 -23q-62 0 -108.5 11.5t-75.5 22.5l37 159 q21 -7 57.5 -14t75.5 -7q72 0 113 47.5t36 141.5z" />
<glyph unicode="&#x2248;" horiz-adv-x="1094" d="M138 607q11 13 22.5 24t24.5 21l-38 65q52 56 114 89t140 33q40 0 76 -11t71.5 -24t71 -24t74.5 -11q29 0 55 7t49 17t42 21.5t34 21.5l68 -116q-8 -9 -16.5 -16.5t-16.5 -15.5l44 -75q-56 -57 -123 -87.5t-151 -30.5q-42 0 -78.5 11t-71 23.5t-69 23.5t-70.5 11 q-29 0 -55.5 -8t-50 -19t-43.5 -23.5t-35 -22.5z" />
<glyph unicode="&#x2260;" horiz-adv-x="1224" d="M172 925h522l173 290l107 -59l-138 -231h216v-170h-319l-105 -178h424v-171h-527l-174 -292l-106 60l138 232h-211v171h314l105 178h-419v170z" />
<glyph unicode="&#x2264;" horiz-adv-x="1025" d="M840 1159l-433 -333l433 -332l-109 -130l-598 462l598 463zM139 212h708v-164h-708v164z" />
<glyph unicode="&#x2265;" horiz-adv-x="1025" d="M185 494l433 332l-433 333l110 130l597 -463l-597 -462zM178 212h708v-164h-708v164z" />
<glyph unicode="&#x2460;" d="M764 469v391q-12 -2 -27.5 -3t-32.5 -2.5t-33 -3t-29 -2.5l-13 119q21 1 55 4.5t70.5 7.5t70.5 8t54 7h43v-526q28 -1 55.5 -2t55.5 -3v-121h-398v121zM147 665q0 142 54 266.5t147 217.5t217.5 147t266.5 54t266.5 -54t217.5 -147t147 -217.5t54 -266.5t-54 -266.5 t-147 -217.5t-217.5 -147t-266.5 -54t-266.5 54t-217.5 147t-147 217.5t-54 266.5zM318 665q0 -107 40 -200.5t110 -163.5t163.5 -110t200.5 -40t200.5 40t163 110t109.5 163.5t40 200.5t-40 200.5t-109.5 163t-163 109.5t-200.5 40t-200.5 -40t-163.5 -109.5t-110 -163 t-40 -200.5z" />
<glyph unicode="&#x2461;" d="M599 439q76 78 127.5 134t82.5 96t44 67.5t13 48.5q0 38 -21 58.5t-63 20.5q-41 0 -73.5 -12t-52.5 -23l-53 108q33 19 86 38.5t119 19.5q52 0 93 -14.5t69.5 -40.5t43.5 -61.5t15 -77.5q0 -37 -14 -72t-42.5 -73.5t-71 -83.5t-99.5 -103h251v-126h-454v96zM147 665 q0 142 54 266.5t147 217.5t217.5 147t266.5 54t266.5 -54t217.5 -147t147 -217.5t54 -266.5t-54 -266.5t-147 -217.5t-217.5 -147t-266.5 -54t-266.5 54t-217.5 147t-147 217.5t-54 266.5zM318 665q0 -107 40 -200.5t110 -163.5t163.5 -110t200.5 -40t200.5 40t163 110 t109.5 163.5t40 200.5t-40 200.5t-109.5 163t-163 109.5t-200.5 40t-200.5 -40t-163.5 -109.5t-110 -163t-40 -200.5z" />
<glyph unicode="&#x2462;" d="M882 796q0 32 -21.5 50t-63.5 18q-44 0 -78 -11t-50 -18l-50 109q12 7 31.5 15.5t44.5 16.5t54.5 13.5t62.5 5.5q56 0 98.5 -15t71 -40.5t43 -59.5t14.5 -71q0 -40 -20.5 -72.5t-55.5 -55.5q44 -21 69.5 -59.5t25.5 -88.5q0 -45 -17.5 -81.5t-50.5 -63t-80.5 -41 t-108.5 -14.5q-32 0 -60.5 5.5t-53 13.5t-43.5 17t-31 17l46 114q10 -5 25.5 -11t34.5 -11.5t41 -9.5t45 -4q41 0 68.5 17t27.5 50q0 38 -26 59.5t-74 21.5h-84v115h121q15 6 29.5 24t14.5 45zM147 665q0 142 54 266.5t147 217.5t217.5 147t266.5 54t266.5 -54t217.5 -147 t147 -217.5t54 -266.5t-54 -266.5t-147 -217.5t-217.5 -147t-266.5 -54t-266.5 54t-217.5 147t-147 217.5t-54 266.5zM318 665q0 -107 40 -200.5t110 -163.5t163.5 -110t200.5 -40t200.5 40t163 110t109.5 163.5t40 200.5t-40 200.5t-109.5 163t-163 109.5t-200.5 40 t-200.5 -40t-163.5 -109.5t-110 -163t-40 -200.5z" />
<glyph unicode="&#x2463;" d="M824 985h140v-380h96v-123h-96v-139h-151v139h-279v96zM816 605v156l-109 -156h109zM147 665q0 142 54 266.5t147 217.5t217.5 147t266.5 54t266.5 -54t217.5 -147t147 -217.5t54 -266.5t-54 -266.5t-147 -217.5t-217.5 -147t-266.5 -54t-266.5 54t-217.5 147t-147 217.5 t-54 266.5zM318 665q0 -107 40 -200.5t110 -163.5t163.5 -110t200.5 -40t200.5 40t163 110t109.5 163.5t40 200.5t-40 200.5t-109.5 163t-163 109.5t-200.5 40t-200.5 -40t-163.5 -109.5t-110 -163t-40 -200.5z" />
<glyph unicode="&#x2464;" d="M893 548q0 45 -30.5 69.5t-82.5 24.5q-51 0 -89.5 -4.5t-55.5 -9.5l13 357h377v-126h-234q0 -26 -1 -51.5t-2 -51.5q18 2 35 0q54 -2 96.5 -16.5t72.5 -40.5t46 -63t16 -84q0 -48 -19 -88.5t-53.5 -69.5t-84 -45t-110.5 -16q-34 0 -63.5 5t-52.5 11.5t-39.5 14 t-23.5 12.5l39 114q25 -9 60 -17.5t78 -8.5q46 0 77 21t31 63zM147 665q0 142 54 266.5t147 217.5t217.5 147t266.5 54t266.5 -54t217.5 -147t147 -217.5t54 -266.5t-54 -266.5t-147 -217.5t-217.5 -147t-266.5 -54t-266.5 54t-217.5 147t-147 217.5t-54 266.5zM318 665 q0 -107 40 -200.5t110 -163.5t163.5 -110t200.5 -40t200.5 40t163 110t109.5 163.5t40 200.5t-40 200.5t-109.5 163t-163 109.5t-200.5 40t-200.5 -40t-163.5 -109.5t-110 -163t-40 -200.5z" />
<glyph unicode="&#x2465;" d="M869 864q-31 0 -55 -11t-42 -30t-29 -44t-16 -53q11 8 37.5 16.5t59.5 8.5q50 0 92 -12.5t73 -37.5t48 -62t17 -85q0 -49 -16 -89.5t-46.5 -70t-75.5 -45.5t-102 -16q-125 0 -186 78.5t-61 225.5q0 73 17 138.5t54 114t94 77t138 28.5q31 0 57 -4t46 -9.5t34 -11t20 -8.5 l-33 -119q-13 4 -46 12.5t-79 8.5zM820 463q35 0 56 22.5t21 63.5q0 44 -25.5 64t-59.5 20q-31 0 -52 -10t-34 -21q1 -62 22.5 -100.5t71.5 -38.5zM147 665q0 142 54 266.5t147 217.5t217.5 147t266.5 54t266.5 -54t217.5 -147t147 -217.5t54 -266.5t-54 -266.5t-147 -217.5 t-217.5 -147t-266.5 -54t-266.5 54t-217.5 147t-147 217.5t-54 266.5zM318 665q0 -107 40 -200.5t110 -163.5t163.5 -110t200.5 -40t200.5 40t163 110t109.5 163.5t40 200.5t-40 200.5t-109.5 163t-163 109.5t-200.5 40t-200.5 -40t-163.5 -109.5t-110 -163t-40 -200.5z" />
<glyph unicode="&#x2466;" d="M1070 870l-224 -527h-163l222 516h-150l-5 -99h-126l-9 225h455v-115zM147 665q0 142 54 266.5t147 217.5t217.5 147t266.5 54t266.5 -54t217.5 -147t147 -217.5t54 -266.5t-54 -266.5t-147 -217.5t-217.5 -147t-266.5 -54t-266.5 54t-217.5 147t-147 217.5t-54 266.5z M318 665q0 -107 40 -200.5t110 -163.5t163.5 -110t200.5 -40t200.5 40t163 110t109.5 163.5t40 200.5t-40 200.5t-109.5 163t-163 109.5t-200.5 40t-200.5 -40t-163.5 -109.5t-110 -163t-40 -200.5z" />
<glyph unicode="&#x2467;" d="M831 333q-45 0 -87.5 12t-75 35.5t-52.5 58t-20 79.5q0 26 8.5 48.5t23 42t33.5 35t39 27.5q-39 21 -66.5 54t-27.5 81q0 45 19.5 80t52 59.5t74.5 37t86 12.5q40 0 80.5 -12.5t72 -35.5t51.5 -56t20 -75q0 -51 -27 -84.5t-66 -55.5q21 -12 39.5 -28t33 -35t23 -40.5 t8.5 -44.5q0 -47 -20 -83.5t-53.5 -61t-77.5 -37.5t-91 -13zM760 806q0 -30 22 -52.5t54 -31.5q29 9 51 31.5t22 48.5q0 28 -21 46.5t-56 18.5q-33 0 -52.5 -18.5t-19.5 -42.5zM920 528q0 17 -8.5 33t-21 29.5t-28 23.5t-30.5 15q-14 -6 -29 -16.5t-27 -23.5t-19.5 -28 t-7.5 -30q0 -32 24 -50.5t65 -18.5q35 0 58.5 19t23.5 47zM147 665q0 142 54 266.5t147 217.5t217.5 147t266.5 54t266.5 -54t217.5 -147t147 -217.5t54 -266.5t-54 -266.5t-147 -217.5t-217.5 -147t-266.5 -54t-266.5 54t-217.5 147t-147 217.5t-54 266.5zM318 665 q0 -107 40 -200.5t110 -163.5t163.5 -110t200.5 -40t200.5 40t163 110t109.5 163.5t40 200.5t-40 200.5t-109.5 163t-163 109.5t-200.5 40t-200.5 -40t-163.5 -109.5t-110 -163t-40 -200.5z" />
<glyph unicode="&#x2468;" d="M147 665q0 142 54 266.5t147 217.5t217.5 147t266.5 54t266.5 -54t217.5 -147t147 -217.5t54 -266.5t-54 -266.5t-147 -217.5t-217.5 -147t-266.5 -54t-266.5 54t-217.5 147t-147 217.5t-54 266.5zM797 464q33 0 57.5 12.5t40.5 32t24.5 44t11.5 49.5q-11 -8 -37 -16.5 t-60 -8.5q-50 0 -91.5 12.5t-72.5 37.5t-48 62t-17 85q0 49 16 89.5t46.5 70t75.5 45.5t102 16q124 0 185.5 -78.5t61.5 -225.5q0 -74 -15 -139t-49.5 -114t-91.5 -77t-140 -28q-33 0 -61.5 5t-50 11.5t-36 13t-20.5 10.5l37 117q13 -5 47 -15.5t85 -10.5zM839 865 q-36 0 -56.5 -22.5t-20.5 -63.5q0 -45 25 -64.5t59 -19.5q31 0 52.5 9.5t33.5 21.5q0 63 -21.5 101t-71.5 38zM318 665q0 -107 40 -200.5t110 -163.5t163.5 -110t200.5 -40t200.5 40t163 110t109.5 163.5t40 200.5t-40 200.5t-109.5 163t-163 109.5t-200.5 40t-200.5 -40 t-163.5 -109.5t-110 -163t-40 -200.5z" />
<glyph unicode="&#x24ea;" d="M835 463q50 0 81.5 51.5t31.5 145.5t-32 149.5t-86 55.5q-50 0 -81 -51.5t-31 -147.5q0 -93 31.5 -148t85.5 -55zM830 333q-70 0 -121.5 25t-85.5 68.5t-50.5 103.5t-16.5 130t17.5 131.5t53 106.5t87.5 71t121 26q70 0 121 -25t85 -69t50.5 -104t16.5 -131 q0 -70 -17.5 -130.5t-52.5 -105.5t-87 -71t-121 -26zM147 665q0 142 54 266.5t147 217.5t217.5 147t266.5 54t266.5 -54t217.5 -147t147 -217.5t54 -266.5t-54 -266.5t-147 -217.5t-217.5 -147t-266.5 -54t-266.5 54t-217.5 147t-147 217.5t-54 266.5zM318 665 q0 -107 40 -200.5t110 -163.5t163.5 -110t200.5 -40t200.5 40t163 110t109.5 163.5t40 200.5t-40 200.5t-109.5 163t-163 109.5t-200.5 40t-200.5 -40t-163.5 -109.5t-110 -163t-40 -200.5z" />
<glyph unicode="&#x24ff;" d="M835 463q-54 0 -85.5 55t-31.5 148q0 96 31 147.5t81 51.5q54 0 86 -55.5t32 -149.5t-31.5 -145.5t-81.5 -51.5zM830 333q69 0 121 26t87 71t52.5 105.5t17.5 130.5q0 71 -16.5 131t-50.5 104t-85 69t-121 25q-69 0 -121 -26t-87.5 -71t-53 -106.5t-17.5 -131.5 t16.5 -130t50.5 -103.5t85.5 -68.5t121.5 -25zM147 665q0 142 54 266.5t147 217.5t217.5 147t266.5 54t266.5 -54t217.5 -147t147 -217.5t54 -266.5t-54 -266.5t-147 -217.5t-217.5 -147t-266.5 -54t-266.5 54t-217.5 147t-147 217.5t-54 266.5z" />
<glyph unicode="&#x25ca;" horiz-adv-x="1278" d="M719 0h-160l-506 665l506 666h160l506 -666zM639 1135l-349 -470l349 -470l349 470z" />
<glyph unicode="&#x25fc;" horiz-adv-x="1025" d="M0 1025h1025v-1025h-1025v1025z" />
<glyph unicode="&#x2776;" d="M635 464v-121h398v121q-28 2 -55.5 3t-55.5 2v526h-43q-20 -3 -54 -7t-70.5 -8t-70.5 -7.5t-55 -4.5l13 -119q13 1 29 2.5t33 3t32.5 2.5t27.5 3v-391zM147 665q0 142 54 266.5t147 217.5t217.5 147t266.5 54t266.5 -54t217.5 -147t147 -217.5t54 -266.5t-54 -266.5 t-147 -217.5t-217.5 -147t-266.5 -54t-266.5 54t-217.5 147t-147 217.5t-54 266.5z" />
<glyph unicode="&#x2777;" d="M599 343h454v126h-251q57 58 99.5 103t71 83.5t42.5 73.5t14 72q0 42 -15 77.5t-43.5 61.5t-69.5 40.5t-93 14.5q-66 0 -119 -19.5t-86 -38.5l53 -108q20 11 52.5 23t73.5 12q42 0 63 -20.5t21 -58.5q0 -21 -13 -48.5t-44 -67.5t-82.5 -96t-127.5 -134v-96zM147 665 q0 142 54 266.5t147 217.5t217.5 147t266.5 54t266.5 -54t217.5 -147t147 -217.5t54 -266.5t-54 -266.5t-147 -217.5t-217.5 -147t-266.5 -54t-266.5 54t-217.5 147t-147 217.5t-54 266.5z" />
<glyph unicode="&#x2778;" d="M882 796q0 -27 -14.5 -45t-29.5 -24h-121v-115h84q48 0 74 -21.5t26 -59.5q0 -33 -28 -50t-68 -17q-23 0 -45 4t-41 9.5t-34.5 11.5t-25.5 11l-46 -114q12 -8 31 -17t43.5 -17t53 -13.5t60.5 -5.5q61 0 108.5 14.5t80.5 41t50.5 63t17.5 81.5q0 50 -25.5 88.5t-69.5 59.5 q35 23 55.5 55.5t20.5 72.5q0 37 -14.5 71t-43 59.5t-71 40.5t-98.5 15q-32 0 -62 -5.5t-55 -13.5t-44.5 -16.5t-31.5 -15.5l50 -109q16 7 50 18t78 11q85 0 85 -68zM147 665q0 142 54 266.5t147 217.5t217.5 147t266.5 54t266.5 -54t217.5 -147t147 -217.5t54 -266.5 t-54 -266.5t-147 -217.5t-217.5 -147t-266.5 -54t-266.5 54t-217.5 147t-147 217.5t-54 266.5z" />
<glyph unicode="&#x2779;" d="M534 578v-96h279v-139h151v139h96v123h-96v380h-140zM707 605l109 156v-156h-109zM147 665q0 142 54 266.5t147 217.5t217.5 147t266.5 54t266.5 -54t217.5 -147t147 -217.5t54 -266.5t-54 -266.5t-147 -217.5t-217.5 -147t-266.5 -54t-266.5 54t-217.5 147t-147 217.5 t-54 266.5z" />
<glyph unicode="&#x277a;" d="M893 548q0 -42 -31 -63t-77 -21q-43 0 -78 8.5t-60 17.5l-39 -114q7 -5 23.5 -12.5t39.5 -14t52.5 -11.5t63.5 -5q61 0 110.5 16t84 45t53.5 69.5t19 88.5q0 47 -16 84t-46 63t-72.5 40.5t-96.5 16.5q-17 2 -35 0q1 26 2 51.5t1 51.5h234v126h-377l-13 -357 q17 5 55.5 9.5t89.5 4.5t82 -24.5t31 -69.5zM147 665q0 142 54 266.5t147 217.5t217.5 147t266.5 54t266.5 -54t217.5 -147t147 -217.5t54 -266.5t-54 -266.5t-147 -217.5t-217.5 -147t-266.5 -54t-266.5 54t-217.5 147t-147 217.5t-54 266.5z" />
<glyph unicode="&#x277b;" d="M869 864q46 0 79 -8.5t46 -12.5l33 119q-6 3 -20 8.5t-34 11t-46 9.5t-57 4q-81 0 -138 -28.5t-94 -77t-54 -114t-17 -138.5q0 -147 61 -225.5t186 -78.5q57 0 102 16t75.5 45.5t46.5 70t16 89.5q0 48 -17 85t-48 62t-73 37.5t-92 12.5q-33 0 -59.5 -8.5t-37.5 -16.5 q5 28 16 53t29 44t42 30t55 11zM820 463q-50 0 -71.5 38.5t-22.5 100.5q13 11 34 21t52 10q34 0 59.5 -20t25.5 -64q0 -41 -21 -63.5t-56 -22.5zM147 665q0 142 54 266.5t147 217.5t217.5 147t266.5 54t266.5 -54t217.5 -147t147 -217.5t54 -266.5t-54 -266.5t-147 -217.5 t-217.5 -147t-266.5 -54t-266.5 54t-217.5 147t-147 217.5t-54 266.5z" />
<glyph unicode="&#x277c;" d="M1070 985h-455l9 -225h126l5 99h150l-222 -516h163l224 527v115zM147 665q0 142 54 266.5t147 217.5t217.5 147t266.5 54t266.5 -54t217.5 -147t147 -217.5t54 -266.5t-54 -266.5t-147 -217.5t-217.5 -147t-266.5 -54t-266.5 54t-217.5 147t-147 217.5t-54 266.5z" />
<glyph unicode="&#x277d;" d="M831 333q47 0 91 13t77.5 37.5t53.5 61t20 83.5q0 23 -8.5 44.5t-23 40.5t-33 35t-39.5 28q39 22 66 55.5t27 84.5q0 42 -20 75t-51.5 56t-72 35.5t-80.5 12.5q-44 0 -86 -12.5t-74.5 -37t-52 -59.5t-19.5 -80q0 -48 27.5 -81t66.5 -54q-20 -12 -39 -27.5t-33.5 -35 t-23 -42t-8.5 -48.5q0 -45 20 -79.5t52.5 -58t75 -35.5t87.5 -12zM760 806q0 24 19.5 42.5t52.5 18.5q35 0 56 -18.5t21 -46.5q0 -26 -22 -48.5t-51 -31.5q-32 9 -54 31.5t-22 52.5zM920 528q0 -28 -23.5 -47t-58.5 -19q-41 0 -65 18.5t-24 50.5q0 15 7.5 30t19.5 28 t27 23.5t29 16.5q15 -5 30.5 -15t28 -23.5t21 -29.5t8.5 -33zM147 665q0 142 54 266.5t147 217.5t217.5 147t266.5 54t266.5 -54t217.5 -147t147 -217.5t54 -266.5t-54 -266.5t-147 -217.5t-217.5 -147t-266.5 -54t-266.5 54t-217.5 147t-147 217.5t-54 266.5z" />
<glyph unicode="&#x277e;" d="M147 665q0 142 54 266.5t147 217.5t217.5 147t266.5 54t266.5 -54t217.5 -147t147 -217.5t54 -266.5t-54 -266.5t-147 -217.5t-217.5 -147t-266.5 -54t-266.5 54t-217.5 147t-147 217.5t-54 266.5zM797 464q-51 0 -85 10.5t-47 15.5l-37 -117q6 -4 20.5 -10.5t36 -13 t50 -11.5t61.5 -5q83 0 140 28t91.5 77t49.5 114t15 139q0 147 -61.5 225.5t-185.5 78.5q-57 0 -102 -16t-75.5 -45.5t-46.5 -70t-16 -89.5q0 -48 17 -85t48 -62t72.5 -37.5t91.5 -12.5q34 0 60 8.5t37 16.5q-3 -25 -11.5 -49.5t-24.5 -44t-40.5 -32t-57.5 -12.5zM839 865 q50 0 71.5 -38t21.5 -101q-12 -12 -33.5 -21.5t-52.5 -9.5q-34 0 -59 19.5t-25 64.5q0 41 20.5 63.5t56.5 22.5z" />
<glyph unicode="&#xfb06;" horiz-adv-x="1562" d="M1192 1024h291v-165h-288v-533q0 -92 36.5 -131.5t117.5 -39.5q16 0 35 2t37.5 5t35 7t28.5 8l32 -161q-19 -7 -45 -13.5t-54.5 -11.5t-58 -8t-55.5 -3q-163 0 -242.5 78.5t-79.5 239.5v1025h-122q-98 0 -144.5 -45.5t-46.5 -121.5q0 -41 11 -76t31.5 -67t48.5 -62 t62 -60l-132 -126q-28 17 -51.5 40t-42.5 45q-30 8 -66 14t-75 6q-35 0 -66 -7t-54 -21.5t-36 -36t-13 -51.5q0 -24 8.5 -44.5t28 -38.5t52.5 -35.5t82 -36.5l85 -33q118 -46 179 -116t61 -180q0 -67 -23.5 -121t-69.5 -91.5t-115 -57.5t-160 -20q-114 0 -197.5 23 t-139.5 53l50 163q20 -10 47.5 -20.5t60 -19.5t69.5 -15.5t77 -7.5q26 -2 50.5 0t45.5 7q48 9 76 33t28 67q0 28 -12 49.5t-35.5 40t-58 34.5t-78.5 33l-81 31q-113 42 -172 111.5t-59 177.5q0 67 25.5 121t70 92.5t104 60.5t127.5 26q23 2 45.5 1.5t45.5 -2.5 q-14 29 -22 62t-8 75q0 61 25 116t73.5 97t121.5 66.5t169 24.5h305q6 0 12 0.5t13 0.5v-457z" />
<glyph horiz-adv-x="1080" d="M21 0v125l413 913h211l414 -913v-125h-1038zM249 165h581l-290 680z" />
<glyph horiz-adv-x="1176" d="M126 455h708v-121h-357q42 -90 125.5 -136t201.5 -46q60 0 114.5 13t105.5 31l54 -148q-27 -14 -61.5 -26.5t-73.5 -21.5t-81.5 -14.5t-85.5 -5.5q-107 0 -194.5 25t-155 71.5t-114 111.5t-69.5 146h-117v121zM126 689h119q25 80 72 145.5t114 112t152.5 72t186.5 25.5 q80 0 155 -20.5t132 -47.5l-56 -149q-18 6 -42.5 14t-54 15t-62 11.5t-66.5 4.5q-103 0 -183.5 -46t-119.5 -137h361v-121h-708v121z" />
<glyph horiz-adv-x="1232" d="M1135 0h-445v150q35 19 73 54.5t70 84.5t53 111t21 134q0 76 -22 138.5t-61 106.5t-93.5 68.5t-120.5 24.5q-63 0 -115 -23t-90 -64.5t-59 -100t-21 -130.5q0 -80 20.5 -145.5t52.5 -116.5t70 -87t73 -55v-150h-444v157l216 1q-39 27 -76 66t-66 87.5t-46.5 107 t-17.5 125.5q0 105 36.5 196t104 158.5t162 106.5t210.5 39t209.5 -38.5t159 -105.5t100.5 -156.5t35 -192.5q0 -72 -18 -132t-47 -109t-66 -87t-75 -65l217 -1v-157z" />
<glyph horiz-adv-x="1419" d="M704 -20q-145 0 -259 47t-193 135.5t-120.5 215t-41.5 284.5t43 285.5t123.5 217t196.5 137.5t263 48q144 0 258 -47.5t193 -136t120.5 -214.5t41.5 -284q0 -188 -58.5 -330t-169.5 -231l289 -278l-154 -133l-288 326q-55 -20 -115.5 -31t-128.5 -11zM716 154 q89 0 160.5 34t122 98.5t77.5 157t27 210.5q0 122 -27.5 218.5t-79 164t-126 103.5t-167.5 36q-89 0 -161 -34t-122 -98.5t-77 -157t-27 -210.5q0 -122 27.5 -218.5t79 -164t126 -103.5t167.5 -36z" />
<glyph horiz-adv-x="1108" d="M765 242h-421l-95 -242h-219l427 1024h195l426 -1024h-219zM404 400h300l-150 391z" />
<glyph horiz-adv-x="1108" d="M765 242h-421l-95 -242h-219l427 1024h195l426 -1024h-219zM404 400h300l-150 391zM293 1296l462 234l82 -184l-494 -163z" />
<glyph horiz-adv-x="1108" d="M765 242h-421l-95 -242h-219l427 1024h195l426 -1024h-219zM404 400h300l-150 391zM427 1476q0 -32 7 -60.5t22 -49.5t39 -33.5t59 -12.5q34 0 58.5 12.5t39.5 33.5t22 49.5t7 60.5h149q7 -75 -12.5 -132.5t-57.5 -96t-91.5 -58t-114.5 -19.5t-114.5 19.5t-91.5 58 t-57.5 96t-12.5 132.5h149z" />
<glyph horiz-adv-x="1108" d="M765 242h-421l-95 -242h-219l427 1024h195l426 -1024h-219zM404 400h300l-150 391zM770 1157q-25 18 -53.5 39.5t-57.5 45t-56 46t-49 42.5q-22 -20 -49 -42.5t-55.5 -45.5t-57 -45t-53.5 -40l-103 135q31 20 68.5 45.5t78.5 54t84 59.5t87 64q88 -66 171.5 -124 t146.5 -99z" />
<glyph horiz-adv-x="1108" d="M765 242h-421l-95 -242h-219l427 1024h195l426 -1024h-219zM404 400h300l-150 391zM219 1344q0 31 10.5 56t28.5 43t43.5 27.5t55.5 9.5q26 0 49 -9.5t40 -26t27 -39.5t10 -50q0 -64 -39 -101t-99 -37q-26 0 -49 9.5t-40 26.5t-27 40t-10 51zM626 1344q0 31 10.5 56 t28.5 43t43.5 27.5t55.5 9.5q26 0 49 -9.5t40 -26t27 -39.5t10 -50q0 -64 -39 -101t-99 -37q-26 0 -49 9.5t-40 26.5t-27 40t-10 51z" />
<glyph horiz-adv-x="1550" d="M1448 862h-420v-267h402v-160h-402v-273h437v-162h-647v240h-383l-185 -240h-232l785 1024h645v-162zM818 398v343l-264 -343h264z" />
<glyph horiz-adv-x="1550" d="M1448 862h-420v-267h402v-160h-402v-273h437v-162h-647v240h-383l-185 -240h-232l785 1024h645v-162zM818 398v343l-264 -343h264zM899 1296l462 234l82 -184l-494 -163z" />
<glyph horiz-adv-x="773" d="M692 753q0 -68 -29.5 -125.5t-82 -106.5t-123.5 -91.5t-154 -80.5q1 -103 37.5 -150.5t114.5 -47.5q31 0 60.5 5.5t55 14t47 17.5t36.5 17l48 -145q-17 -11 -43 -25t-60.5 -26t-77 -20.5t-91.5 -8.5q-71 0 -130 19.5t-101.5 60t-66.5 103t-24 147.5v383q0 78 18.5 143 t55.5 111t93 71.5t131 25.5q71 0 124.5 -21t89.5 -59t54 -91.5t18 -119.5zM303 507q40 21 76 46.5t63.5 56.5t43.5 68t16 80q0 25 -5.5 48t-16.5 40.5t-29 27.5t-42 10q-58 0 -82 -50t-24 -133v-194z" />
<glyph horiz-adv-x="1108" d="M765 242h-421l-95 -242h-219l427 1024h195l426 -1024h-219zM404 400h300l-150 391zM766 1183l-479 157l83 183l446 -227z" />
<glyph horiz-adv-x="1108" d="M765 242h-421l-95 -242h-219l427 1024h195l426 -1024h-219zM404 400h300l-150 391zM265 1429h578v-157h-578v157z" />
<glyph horiz-adv-x="1124" d="M86 263q0 49 15 91.5t42 78.5t63.5 64.5t79.5 49.5q-38 41 -63 73.5t-39.5 60.5t-20 54.5t-5.5 55.5q0 55 23.5 101.5t65 80t98.5 52.5t124 19q63 0 117.5 -18.5t95 -50.5t64 -75.5t23.5 -94.5q0 -33 -10.5 -63.5t-26.5 -55.5h344v-149h-151q17 -31 25 -71t8 -87 q0 -61 -21.5 -116.5t-50.5 -96.5l144 -147l-128 -114l-141 146l-16 -6q-54 -30 -118 -47.5t-145 -17.5q-88 0 -161 20.5t-125 58t-81 89.5t-29 115zM527 651q17 20 28.5 36t18 31t9.5 31t3 35q0 52 -35 81.5t-89 29.5q-23 0 -44 -7.5t-37 -20.5t-25.5 -31.5t-9.5 -40.5 q0 -21 4.5 -38t15.5 -35.5t29.5 -40t46.5 -51.5l319 -333l13 -8q11 21 16 48.5t4 48.5q0 40 -7.5 79.5t-24.5 71.5h-134zM491 129q40 0 82 8.5t75 27.5l-261 279h-4q-41 -25 -68 -57t-35 -74q-5 -20 -3 -40q1 -35 18.5 -61.5t46 -45t67 -28t82.5 -9.5z" />
<glyph horiz-adv-x="1130" d="M1015 0q-24 -18 -48.5 -40.5t-44 -47.5t-31.5 -53t-12 -58q0 -49 25.5 -73t66.5 -24q19 0 37 3.5t33 8t26 9.5t17 8l40 -121q-9 -7 -26.5 -16t-41.5 -17.5t-53.5 -14.5t-60.5 -6q-47 0 -90 12.5t-76 38t-52.5 64t-19.5 89.5q0 40 14 75.5t36.5 66t50 55.5t53.5 43 l-93 240h-421l-95 -242h-219l427 1024h195l426 -1024h-63zM404 400h300l-150 391z" />
<glyph horiz-adv-x="1094" d="M147 352q54 58 117.5 92t143.5 34q39 0 74.5 -11t70 -23.5t69 -23.5t72.5 -11q30 0 58.5 6.5t53.5 15.5t46 20t36 20l68 -116q-56 -54 -124 -84.5t-153 -30.5q-41 0 -77.5 11t-71 23.5t-68 23.5t-69.5 11q-27 0 -52.5 -8t-48.5 -19t-42.5 -23.5t-34.5 -22.5zM138 663 q53 58 117 90t143 32q43 0 80.5 -11t73.5 -23.5t70.5 -23.5t71.5 -11q28 0 54 7.5t48.5 18t41.5 22.5t33 21l68 -116q-52 -59 -116 -90.5t-144 -31.5q-43 0 -80.5 11t-73 23.5t-70.5 23.5t-72 11q-28 0 -54 -7.5t-48.5 -18t-41 -22.5t-33.5 -21z" />
<glyph horiz-adv-x="1108" d="M765 242h-421l-95 -242h-219l427 1024h195l426 -1024h-219zM404 400h300l-150 391zM466 1350q0 -38 26 -63t61 -25q39 0 64.5 26t25.5 64t-26.5 62t-61.5 24q-38 0 -63.5 -25t-25.5 -63zM332 1344q0 50 17 91t47.5 70t72.5 45t92 16q45 0 84 -15.5t68.5 -43t46.5 -66 t17 -83.5q0 -50 -17 -91.5t-47.5 -70.5t-73 -45t-92.5 -16q-44 0 -83.5 15.5t-68.5 43t-46 66t-17 84.5z" />
<glyph horiz-adv-x="1108" d="M765 242h-421l-95 -242h-219l427 1024h195l426 -1024h-219zM404 400h300l-150 391zM506 1271q0 -22 15 -36.5t35 -14.5q23 0 37.5 14.5t14.5 37.5q0 22 -15 36t-35 14q-23 0 -37.5 -14t-14.5 -37zM395 1266q0 37 12.5 67.5t34.5 52t53 33t67 11.5q33 0 61.5 -11.5 t49.5 -31.5t33.5 -48.5t12.5 -61.5q0 -38 -12.5 -68.5t-35 -52t-53 -33t-67.5 -11.5q-32 0 -60.5 11.5t-49.5 31.5t-33.5 48.5t-12.5 62.5zM347 1531l344 182l72 -152l-370 -127z" />
<glyph horiz-adv-x="1108" d="M765 242h-421l-95 -242h-219l427 1024h195l426 -1024h-219zM404 400h300l-150 391zM224 1313q13 29 34 57.5t49 51t63.5 36.5t76.5 14q32 0 63.5 -11t60.5 -23.5t55 -23.5t48 -11q19 0 35 7t29 18t24 23.5t21 24.5l105 -88q-16 -33 -38 -62t-50 -50t-62.5 -33t-76.5 -12 q-30 0 -59 11t-56.5 23.5t-54 23.5t-52.5 11q-19 0 -35 -7t-29.5 -18t-24.5 -24t-20 -25z" />
<glyph horiz-adv-x="1017" d="M144 0v1024h357q92 0 164.5 -18t122.5 -53t76.5 -86t26.5 -118q0 -72 -36.5 -121.5t-93.5 -85.5q37 -11 69.5 -33.5t56.5 -53.5t37.5 -69t13.5 -81q0 -144 -101.5 -224.5t-316.5 -80.5h-376zM349 451v-292h156q52 0 92.5 6.5t67.5 22.5t41 42.5t14 66.5q0 71 -49 112.5 t-146 41.5h-176zM349 597h240q34 18 59.5 52t25.5 82q0 69 -50 101.5t-133 32.5h-142v-268z" />
<glyph horiz-adv-x="696" d="M331 1202q0 -35 14.5 -70t36.5 -70t48 -71t48 -74t36.5 -77.5t14.5 -82.5q0 -45 -14.5 -84.5t-39.5 -71.5t-60 -55t-75 -35q40 -12 75 -34.5t60 -52t39.5 -65.5t14.5 -75q0 -46 -14.5 -88.5t-36.5 -82t-48 -77t-48 -72t-36.5 -67t-14.5 -63.5q0 -57 37 -92.5t106 -35.5 q35 0 66 5t55 13l30 -148q-24 -11 -70 -20.5t-103 -9.5q-68 0 -124.5 19t-97.5 54t-64 85t-23 112q0 45 14.5 87t35.5 80.5t46.5 75t46.5 71t35.5 68t14.5 66.5q0 82 -58.5 126t-169.5 45v153q25 0 48 3q45 2 78.5 16t56 35.5t34 47.5t11.5 53q0 37 -14.5 73t-35.5 72 t-46.5 72t-46.5 73t-35.5 75.5t-14.5 79.5q0 67 23.5 121t66 92t101.5 58t129 20q49 0 93.5 -10t68.5 -21l-30 -148q-24 7 -56.5 13t-75.5 6q-30 0 -54.5 -10t-41.5 -26.5t-26.5 -37.5t-9.5 -43z" />
<glyph horiz-adv-x="705" d="M380 -178q0 35 -14.5 70t-36.5 70t-48 71t-48 74t-36.5 77.5t-14.5 82.5q0 46 14.5 85.5t39.5 71t59.5 54.5t75.5 35q-41 12 -75.5 34.5t-59.5 52.5t-39.5 66t-14.5 75q0 46 14.5 88t36.5 82t48 77t48 71.5t36.5 67t14.5 63.5q0 57 -37.5 93t-105.5 36q-35 0 -66 -5.5 t-55 -12.5l-30 148q24 11 70 20.5t103 9.5q67 0 124 -19t98 -54.5t64 -85.5t23 -111q0 -46 -14.5 -88t-35.5 -80.5t-46.5 -75t-46.5 -71t-35.5 -67.5t-14.5 -66q0 -84 58.5 -127t169.5 -45v-153q-26 0 -48 -3q-45 -2 -78.5 -16t-56 -35t-34 -47.5t-11.5 -53.5 q0 -37 14.5 -73t35.5 -72t46.5 -72t46.5 -73t35.5 -75.5t14.5 -79.5q0 -68 -23.5 -121.5t-66 -91t-101.5 -57.5t-129 -20q-49 0 -93.5 9.5t-68.5 20.5l30 148q24 -7 56.5 -12.5t75.5 -5.5q30 0 54 10t41.5 26.5t27 37t9.5 42.5z" />
<glyph horiz-adv-x="619" d="M588 -421l-445 -8v1882h445v-156l-249 -5v-1558h249v-155z" />
<glyph horiz-adv-x="619" d="M37 1445l445 8v-1882h-445v156l248 4v1559h-248v155z" />
<glyph horiz-adv-x="987" d="M80 507q0 117 38.5 216t110 170t173.5 111t230 40q79 0 154 -20.5t132 -47.5l-55 -149q-18 6 -43 14t-54.5 15t-62 11.5t-66.5 4.5q-72 0 -133.5 -22.5t-106.5 -66.5t-70.5 -110t-25.5 -154q0 -89 25.5 -157.5t72.5 -115t114.5 -70.5t151.5 -24q60 0 114.5 13t105.5 31 l54 -148q-54 -28 -134 -48t-168 -20q-133 0 -236.5 38.5t-175 108.5t-108.5 167t-37 213z" />
<glyph horiz-adv-x="2067" d="M298 519q0 -85 20.5 -152t60 -113t97.5 -70.5t132 -24.5q62 0 120.5 14t101.5 32l50 -154q-26 -15 -59.5 -27.5t-72.5 -22.5t-82.5 -15.5t-88.5 -5.5q-114 0 -206 38t-157.5 106.5t-101 164.5t-35.5 213q0 113 32 207t90.5 163t141 110.5t183.5 50.5q28 7 53 8 q-14 29 -21 61.5t-7 73.5q0 61 24.5 116t73.5 97t122 66.5t169 24.5h352v-507q51 29 114.5 50t133.5 21q103 0 187 -38t142.5 -107t90.5 -165.5t32 -213.5q0 -125 -35.5 -225t-103 -170t-165 -107.5t-222.5 -37.5q-49 0 -102.5 8.5t-105 23.5t-97.5 35t-80 43v1233h-143 q-98 0 -144.5 -45.5t-46.5 -121.5q0 -40 11 -75.5t31.5 -67.5t48.5 -62t62 -60l-132 -126q-31 20 -56.5 45.5t-44.5 48.5q-15 2 -32 4t-37 2q-70 0 -125 -24t-93.5 -69t-59 -109t-20.5 -144zM1769 505q0 81 -19.5 147.5t-56 114t-89 73.5t-117.5 26q-52 0 -103 -13.5 t-94 -38.5v-626q38 -17 84.5 -25.5t96.5 -8.5q149 0 223.5 92t74.5 259z" />
<glyph horiz-adv-x="1995" d="M80 507q0 117 38.5 216t110 170t173.5 111t230 40q79 0 154 -20.5t132 -47.5l-55 -149q-18 6 -43 14t-54.5 15t-62 11.5t-66.5 4.5q-72 0 -133.5 -22.5t-106.5 -66.5t-70.5 -110t-25.5 -154q0 -89 25.5 -157.5t72.5 -115t114.5 -70.5t151.5 -24q60 0 114.5 13t105.5 31 l54 -148q-54 -28 -134 -48t-168 -20q-133 0 -236.5 38.5t-175 108.5t-108.5 167t-37 213zM1123 0v1024h357q92 0 164.5 -18t122.5 -53t76.5 -86t26.5 -118q0 -72 -36.5 -121.5t-93.5 -85.5q37 -11 69 -33.5t56 -53.5t37.5 -69t13.5 -81q0 -144 -101 -224.5t-316 -80.5h-376z M1328 451v-292h156q52 0 92.5 6.5t67.5 22.5t41 42.5t14 66.5q0 71 -49 112.5t-147 41.5h-175zM1328 597h239q35 18 60.5 52t25.5 82q0 69 -50 101.5t-134 32.5h-141v-268z" />
<glyph horiz-adv-x="2075" d="M298 519q0 -85 20.5 -152t60 -113t97.5 -70.5t132 -24.5q62 0 120.5 14t101.5 32l50 -154q-26 -15 -59.5 -27.5t-72.5 -22.5t-82.5 -15.5t-88.5 -5.5q-114 0 -206 38t-157.5 106.5t-101 164.5t-35.5 213q0 113 32 207t90.5 163t141 110.5t183.5 50.5q28 7 53 8 q-14 29 -21 61.5t-7 73.5q0 61 24.5 116t73.5 97t122 66.5t169 24.5h351v-558q67 54 147 88t165 34q165 0 248.5 -92t83.5 -278v-674h-212v642q0 221 -184 221q-29 0 -62 -8t-66.5 -21.5t-64.5 -32.5t-55 -41v-760h-211v1323h-142q-98 0 -144.5 -45.5t-46.5 -121.5 q0 -40 11 -75t31.5 -67.5t48.5 -62.5t62 -60l-132 -126q-31 20 -56.5 45.5t-44.5 48.5q-15 2 -32 4t-37 2q-70 0 -125 -24t-93.5 -69t-59 -109t-20.5 -144z" />
<glyph horiz-adv-x="2173" d="M80 507q0 117 38.5 216t110 170t173.5 111t230 40q79 0 154 -20.5t132 -47.5l-55 -149q-18 6 -43 14t-54.5 15t-62 11.5t-66.5 4.5q-72 0 -133.5 -22.5t-106.5 -66.5t-70.5 -110t-25.5 -154q0 -89 25.5 -157.5t72.5 -115t114.5 -70.5t151.5 -24q60 0 114.5 13t105.5 31 l54 -148q-54 -28 -134 -48t-168 -20q-133 0 -236.5 38.5t-175 108.5t-108.5 167t-37 213zM1817 435h-463v-435h-211v1024h211v-429h463v429h212v-1024h-212v435z" />
<glyph horiz-adv-x="1990" d="M298 519q0 -85 20.5 -152t60 -113t97.5 -70.5t132 -24.5q62 0 120.5 14t101.5 32l50 -154q-26 -15 -59.5 -27.5t-72.5 -22.5t-82.5 -15.5t-88.5 -5.5q-114 0 -206 38t-157.5 106.5t-101 164.5t-35.5 213q0 113 32 207t90.5 163t141 110.5t183.5 50.5q28 7 53 8 q-14 29 -21 61.5t-7 73.5q0 61 24.5 116t73.5 97t122 66.5t169 24.5h351v-964l389 508h237l-327 -426l360 -598h-239l-276 466l-144 -183v-283h-211v1323h-142q-98 0 -144.5 -45.5t-46.5 -121.5q0 -40 11 -75t31.5 -67.5t48.5 -62.5t62 -60l-132 -126q-31 20 -56.5 45.5 t-44.5 48.5q-15 2 -32 4t-37 2q-70 0 -125 -24t-93.5 -69t-59 -109t-20.5 -144z" />
<glyph horiz-adv-x="2045" d="M80 507q0 117 38.5 216t110 170t173.5 111t230 40q79 0 154 -20.5t132 -47.5l-55 -149q-18 6 -43 14t-54.5 15t-62 11.5t-66.5 4.5q-72 0 -133.5 -22.5t-106.5 -66.5t-70.5 -110t-25.5 -154q0 -89 25.5 -157.5t72.5 -115t114.5 -70.5t151.5 -24q60 0 114.5 13t105.5 31 l54 -148q-54 -28 -134 -48t-168 -20q-133 0 -236.5 38.5t-175 108.5t-108.5 167t-37 213zM1123 1024h211v-503l397 503h246l-351 -437l391 -587h-246l-294 452l-143 -177v-275h-211v1024z" />
<glyph horiz-adv-x="1447" d="M298 519q0 -85 20.5 -152t60 -113t97.5 -70.5t132 -24.5q62 0 120.5 14t101.5 32l50 -154q-26 -15 -59.5 -27.5t-72.5 -22.5t-82.5 -15.5t-88.5 -5.5q-114 0 -206 38t-157.5 106.5t-101 164.5t-35.5 213q0 113 32 207t90.5 163t141 110.5t183.5 50.5q28 7 53 8 q-14 29 -21 61.5t-7 73.5q0 61 25 116t73.5 97t121.5 66.5t169 24.5h352v-1480h-211v1323h-143q-75 0 -117.5 -28.5t-58.5 -74.5q-15 -45 -3 -99q3 -35 14 -65.5t29 -58t43 -53.5t55 -53l-132 -126q-31 20 -56.5 45.5t-44.5 48.5q-15 2 -32 4t-37 2q-70 0 -125 -24 t-93.5 -69t-59 -109t-20.5 -144z" />
<glyph horiz-adv-x="1815" d="M80 507q0 117 38.5 216t110 170t173.5 111t230 40q79 0 154 -20.5t132 -47.5l-55 -149q-18 6 -43 14t-54.5 15t-62 11.5t-66.5 4.5q-72 0 -133.5 -22.5t-106.5 -66.5t-70.5 -110t-25.5 -154q0 -89 25.5 -157.5t72.5 -115t114.5 -70.5t151.5 -24q60 0 114.5 13t105.5 31 l54 -148q-54 -28 -134 -48t-168 -20q-133 0 -236.5 38.5t-175 108.5t-108.5 167t-37 213zM1790 0h-667v1024h211v-862h456v-162z" />
<glyph horiz-adv-x="1658" d="M298 519q0 -85 20.5 -152t60 -113t97.5 -70.5t132 -24.5q62 0 120.5 14t101.5 32l50 -154q-26 -15 -59.5 -27.5t-72.5 -22.5t-82.5 -15.5t-88.5 -5.5q-114 0 -206 38t-157.5 106.5t-101 164.5t-35.5 213q0 114 33 209.5t93 165.5t144.5 111.5t188.5 48.5q10 2 20 3t21 1 q-14 29 -21 61.5t-7 73.5q0 61 25 116t73.5 97t121.5 66.5t169 24.5h325q6 0 12.5 0.5t12.5 0.5v-1h1q0 -7 -0.5 -14t-0.5 -14v-428h291v-165h-288v-533q0 -92 36.5 -131.5t117.5 -39.5q17 0 36 2t37 5t34.5 7t28.5 8l32 -161q-19 -7 -45 -13.5t-54.5 -11.5t-58 -8t-55.5 -3 q-163 0 -242.5 78.5t-79.5 239.5v1025h-142q-97 0 -144 -46t-47 -121q0 -41 11 -76t31.5 -67t48.5 -62t62 -60l-132 -126q-31 20 -56.5 45.5t-44.5 48.5q-15 2 -32 4t-37 2q-70 0 -125 -24t-93.5 -69t-59 -109t-20.5 -144z" />
<glyph horiz-adv-x="1893" d="M80 507q0 117 38.5 216t110 170t173.5 111t230 40q79 0 154 -20.5t132 -47.5l-55 -149q-18 6 -43 14t-54.5 15t-62 11.5t-66.5 4.5q-72 0 -133.5 -22.5t-106.5 -66.5t-70.5 -110t-25.5 -154q0 -89 25.5 -157.5t72.5 -115t114.5 -70.5t151.5 -24q60 0 114.5 13t105.5 31 l54 -148q-54 -28 -134 -48t-168 -20q-133 0 -236.5 38.5t-175 108.5t-108.5 167t-37 213zM1029 1024h834v-162h-311v-862h-213v862h-310v162z" />
<glyph horiz-adv-x="987" d="M81 507q0 117 38.5 216t110 170t173.5 111t230 40q79 0 154 -20.5t132 -47.5l-55 -149q-18 6 -43 14t-54.5 15t-62 11.5t-66.5 4.5q-72 0 -133.5 -22.5t-106.5 -66.5t-70.5 -110t-25.5 -154q0 -89 25.5 -157.5t72.5 -115t114.5 -70.5t151.5 -24q60 0 114.5 13t105.5 31 l54 -148q-54 -28 -134 -48t-168 -20q-133 0 -236.5 38.5t-175 108.5t-108.5 167t-37 213zM352 1296l462 234l83 -184l-494 -163z" />
<glyph horiz-adv-x="987" d="M80 507q0 117 38.5 216t110 170t173.5 111t230 40q79 0 154 -20.5t132 -47.5l-55 -149q-18 6 -43 14t-54.5 15t-62 11.5t-66.5 4.5q-72 0 -133.5 -22.5t-106.5 -66.5t-70.5 -110t-25.5 -154q0 -89 25.5 -157.5t72.5 -115t114.5 -70.5t151.5 -24q60 0 114.5 13t105.5 31 l54 -148q-54 -28 -134 -48t-168 -20q-133 0 -236.5 38.5t-175 108.5t-108.5 167t-37 213zM394 1529q27 -17 57 -39t59.5 -46t57 -49.5t49.5 -47.5q22 22 49.5 47.5t57 49.5t59.5 46t57 39l92 -143q-95 -52 -173 -108t-142 -120q-65 64 -143 120t-173 108z" />
<glyph horiz-adv-x="987" d="M80 507q0 117 38.5 216t110 170t173.5 111t230 40q79 0 154 -20.5t132 -47.5l-55 -149q-18 6 -43 14t-54.5 15t-62 11.5t-66.5 4.5q-72 0 -133.5 -22.5t-106.5 -66.5t-70.5 -110t-25.5 -154q0 -89 25.5 -157.5t72.5 -115t114.5 -70.5t151.5 -24q60 0 114.5 13t105.5 31 l54 -148q-54 -28 -134 -48t-168 -20q-133 0 -236.5 38.5t-175 108.5t-108.5 167t-37 213zM421 -355q12 -4 33 -7t47 -3q45 0 66.5 21.5t21.5 52.5q0 33 -22 52.5t-64 19.5h-62l10 114h97q43 0 79.5 -10.5t63 -32.5t41.5 -54.5t15 -76.5q0 -51 -17.5 -89t-49.5 -63t-77 -37 t-99 -12q-32 0 -59.5 5.5t-41.5 12.5z" />
<glyph horiz-adv-x="987" d="M80 507q0 117 38.5 216t110 170t173.5 111t230 40q79 0 154 -20.5t132 -47.5l-55 -149q-18 6 -43 14t-54.5 15t-62 11.5t-66.5 4.5q-72 0 -133.5 -22.5t-106.5 -66.5t-70.5 -110t-25.5 -154q0 -89 25.5 -157.5t72.5 -115t114.5 -70.5t151.5 -24q60 0 114.5 13t105.5 31 l54 -148q-54 -28 -134 -48t-168 -20q-133 0 -236.5 38.5t-175 108.5t-108.5 167t-37 213zM829 1157q-24 18 -52.5 39.5t-57.5 45t-56 46t-49 42.5q-22 -20 -49 -42.5t-55.5 -45.5t-57.5 -45t-54 -40l-102 135q63 41 146.5 99t171.5 124q88 -66 171.5 -124t146.5 -99z" />
<glyph horiz-adv-x="987" d="M80 507q0 117 38.5 216t110 170t173.5 111t230 40q79 0 154 -20.5t132 -47.5l-55 -149q-18 6 -43 14t-54.5 15t-62 11.5t-66.5 4.5q-72 0 -133.5 -22.5t-106.5 -66.5t-70.5 -110t-25.5 -154q0 -89 25.5 -157.5t72.5 -115t114.5 -70.5t151.5 -24q60 0 114.5 13t105.5 31 l54 -148q-54 -28 -134 -48t-168 -20q-133 0 -236.5 38.5t-175 108.5t-108.5 167t-37 213zM485 1344q0 31 10.5 56t28.5 43t43.5 27.5t55.5 9.5q26 0 49 -9.5t40 -26t27 -39.5t10 -50q0 -64 -39 -101t-99 -37q-26 0 -49 9.5t-40 26.5t-27 40t-10 51z" />
<glyph horiz-adv-x="1120" d="M762 1294l-13 -254q65 -6 124 -23.5t105 -40.5l-55 -149q-37 13 -96.5 29t-128.5 16q-72 0 -133.5 -22.5t-107 -66.5t-71 -110t-25.5 -154q0 -89 25.5 -157.5t73 -115t114.5 -70.5t151 -24q60 0 115 13t106 31l53 -148q-46 -24 -111 -42t-136 -23l12 -250h-183l12 254 q-109 14 -193 58t-141.5 111.5t-87.5 156.5t-30 194t31 195.5t89 160t142 114.5t189 59l-13 258h183z" />
<glyph horiz-adv-x="461" d="M286 -96q9 -7 23 -22t27.5 -36.5t23 -49.5t9.5 -61q0 -56 -24 -97.5t-65.5 -70.5t-96 -45.5t-114.5 -21.5l-37 106q29 5 56.5 15.5t48.5 26t33.5 36.5t12.5 47q0 27 -8 49.5t-19 40t-21.5 29t-16.5 17.5z" />
</font>
</defs>
</svg>
