<?xml version="1.0" standalone="no"?>
<!DOCTYPE svg PUBLIC "-//W3C//DTD SVG 1.1//EN" "http://www.w3.org/Graphics/SVG/1.1/DTD/svg11.dtd" >
<svg xmlns="http://www.w3.org/2000/svg">
<metadata></metadata>
<defs>
<font id="libertadbook" horiz-adv-x="1700" >
<font-face units-per-em="2048" ascent="1638" descent="-410" />
<missing-glyph horiz-adv-x="451" />
<glyph unicode="&#x31;&#x2f;&#x34;" horiz-adv-x="1331" d="M1222 1284l-971 -1303l-93 65l970 1304zM1092 579v-364h93v-94h-93v-121h-107v121h-282v88l282 370h107zM825 215h160v213zM270 851v387q-16 -2 -36.5 -5t-41 -5.5t-39.5 -4.5t-32 -3l-12 87q64 9 134 20.5t130 22.5h13v-499l131 -4v-96h-400v96z" />
<glyph unicode="&#x31;&#x2f;&#x32;" horiz-adv-x="1379" d="M1222 1284l-971 -1303l-93 65l970 1304zM843 88q71 50 124 91.5t88 78.5t52.5 71t17.5 69q0 49 -29 74t-79 25q-25 0 -48 -5t-41.5 -12t-31.5 -13t-18 -9l-38 85q6 4 22.5 13t41.5 18.5t56.5 17t66.5 7.5q55 0 95.5 -16.5t66.5 -44t39 -63t13 -73.5q0 -45 -16.5 -85 t-46.5 -77t-72.5 -72t-94.5 -70h259v-98h-427v88zM270 851v387q-16 -2 -36.5 -5t-41 -5.5t-39.5 -4.5t-32 -3l-12 87q64 9 134 20.5t130 22.5h13v-499l131 -4v-96h-400v96z" />
<glyph unicode="&#x33;&#x2f;&#x34;" horiz-adv-x="1291" d="M1182 1284l-971 -1303l-93 65l970 1304zM381 1170q0 40 -30.5 60.5t-78.5 20.5q-38 0 -71 -8t-53 -16l-31 85q17 10 58.5 24t99.5 14q97 0 150.5 -41t63.5 -102q2 -10 2.5 -19.5t-0.5 -20.5q-1 -23 -8.5 -41t-18.5 -32t-23.5 -24t-22.5 -16q15 -5 31.5 -15.5t30.5 -27.5 t23 -40.5t9 -53.5q0 -90 -62.5 -138t-171.5 -48q-57 0 -101 12.5t-66 24.5l31 88q20 -8 56.5 -17.5t87.5 -9.5q54 0 84.5 21t30.5 65q0 42 -29.5 65.5t-88.5 23.5h-77v86h131q15 10 29.5 29t14.5 51zM1050 579v-364h93v-94h-93v-121h-106v121h-283v88l282 370h107zM783 215 h161v213z" />
<glyph unicode="ff" horiz-adv-x="1223" d="M916 1024h267v-115h-261v-909h-139v909h-435v-1305h-140v1305h-174v99l179 11v129q0 74 24.5 135t68.5 105t106.5 68t138.5 24q51 0 94.5 -10.5t67.5 -18.5l-26 -109q-23 6 -60.5 12.5t-80.5 6.5q-103 0 -154 -58t-51 -171v-108h447v124q0 74 24.5 135t68.5 105t106.5 68 t138.5 24q51 0 94.5 -10.5t67.5 -18.5l-26 -109q-23 6 -61 12.5t-80 6.5q-103 0 -154 -58t-51 -171v-108z" />
<glyph unicode="f&#x131;" horiz-adv-x="1092" d="M213 1126q0 82 29 147.5t82 111.5t127 70.5t165 24.5q45 0 87.5 -5t78 -12.5t62 -15.5t40.5 -13l-28 -109q-33 10 -95 23t-150 13q-135 0 -202.5 -60t-67.5 -191v-86h571v-1024h-139v909h-425v-1305h-140v1305h-174v99l179 11v107z" />
<glyph unicode="fl" horiz-adv-x="1132" d="M341 1024h247v-115h-240v-1305h-140v1305h-174v99l179 11v89q0 86 28 155t80.5 117t127.5 74t168 26q59 0 111.5 -6t96 -14t76 -17.5t51.5 -15.5v-1427h-139v1335q-32 9 -83 17.5t-118 8.5q-66 0 -116.5 -15t-85 -47t-52 -83.5t-17.5 -123.5v-68z" />
<glyph unicode="ff&#x131;" horiz-adv-x="1667" d="M1487 934v-934h-140v909h-425v-1305h-139v1305h-435v-1305h-140v1305h-174v99l179 11v129q0 74 24.5 135t68.5 105t106.5 68t138.5 24q51 0 94.5 -10.5t67.5 -18.5l-26 -109q-23 6 -60.5 12.5t-80.5 6.5q-103 0 -154 -58t-51 -171v-108h447v102q0 82 29 147.5t82 111.5 t127 70.5t165 24.5q45 0 87 -5t77.5 -12.5t62.5 -15.5t41 -13l-28 -109q-33 10 -95.5 23t-149.5 13q-136 0 -203 -60t-67 -191v-86h544z" />
<glyph unicode="ffl" horiz-adv-x="1707" d="M916 1024h247v-115h-241v-909h-139v909h-435v-1305h-140v1305h-174v99l179 11v129q0 74 24.5 135t68.5 105t106.5 68t138.5 24q51 0 94.5 -10.5t67.5 -18.5l-26 -109q-23 6 -60.5 12.5t-80.5 6.5q-103 0 -154 -58t-51 -171v-108h447v84q0 86 28 155t80.5 117t127.5 74 t168 26q59 0 111.5 -6t96 -14t76 -17.5t51.5 -15.5v-1427h-140v1335q-32 9 -83 17.5t-117 8.5t-117 -15t-85 -47t-51.5 -83.5t-17.5 -123.5v-68z" />
<glyph unicode="&#x2d;&#x3e;" horiz-adv-x="1591" d="M922 1016l504 -504l-504 -504l-81 81l424 423l-424 423zM165 570h798v-115h-798v115z" />
<glyph unicode="fb" horiz-adv-x="1784" d="M341 1024h247v-115h-240v-909h-140v909h-174v99l179 11v89q0 86 28 155t80.5 117t127.5 74t168 26q59 0 111.5 -6t96 -14t76 -17.5t51.5 -15.5v-453q66 35 133 52.5t132 17.5q104 0 190 -37.5t147.5 -106.5t95.5 -165.5t34 -213.5q0 -125 -35.5 -225.5t-101.5 -170.5 t-161 -107.5t-213 -37.5q-44 0 -93.5 8.5t-98.5 22.5t-92.5 33.5t-75.5 41.5v1249q-32 9 -83 17.5t-118 8.5q-66 0 -116.5 -15t-85 -47t-52 -83.5t-17.5 -123.5v-68zM1536 504q0 94 -24 171t-69 132t-108 84.5t-141 29.5q-62 0 -123.5 -16t-117.5 -48h-1v-706 q108 -48 227 -48q85 0 151 27t112 78t70 125.5t24 170.5z" />
<glyph unicode="ffb" horiz-adv-x="2358" d="M916 1024h247v-115h-241v-909h-139v909h-435v-1305h-140v1305h-174v99l179 11v129q0 74 24.5 135t68.5 105t106.5 68t138.5 24q51 0 94.5 -10.5t67.5 -18.5l-26 -109q-23 6 -60.5 12.5t-80.5 6.5q-103 0 -154 -58t-51 -171v-108h447v84q0 86 28 155t80.5 117t127.5 74 t168 26q59 0 111.5 -6t96 -14t76 -17.5t51.5 -15.5v-453q66 35 133 52.5t132 17.5q103 0 189 -37.5t148 -106.5t96 -165.5t34 -213.5q0 -125 -35.5 -225.5t-101.5 -170.5t-161 -107.5t-213 -37.5q-44 0 -94 8.5t-98.5 22.5t-92.5 33.5t-76 41.5v1249q-32 9 -83 17.5 t-117 8.5t-117 -15t-85 -47t-51.5 -83.5t-17.5 -123.5v-68zM2110 504q0 94 -24 171t-68.5 132t-108 84.5t-141.5 29.5q-61 0 -122.5 -16t-118.5 -48v-706q108 -48 227 -48q85 0 151 27t111.5 78t69.5 125.5t24 170.5z" />
<glyph unicode="ffh" horiz-adv-x="2355" d="M916 1024h247v-115h-241v-909h-139v909h-435v-1305h-140v1305h-174v99l179 11v129q0 74 24.5 135t68.5 105t106.5 68t138.5 24q51 0 94.5 -10.5t67.5 -18.5l-26 -109q-23 6 -60.5 12.5t-80.5 6.5q-205 0 -205 -229v-108h447v84q0 86 28 155t80.5 117t127.5 74t168 26 q57 0 108 -5.5t93.5 -13.5t75 -17t52.5 -16q2 0 3 -0.5t3 -0.5v-527q77 64 166.5 104t180.5 40q158 0 237 -95.5t79 -274.5v-674h-140v652q0 266 -218 266q-36 0 -77 -10.5t-81.5 -29t-78.5 -43t-68 -52.5v-783h-140v1335q-32 9 -83 17.5t-117 8.5t-117 -15t-85 -47 t-51.5 -83.5t-17.5 -123.5v-68z" />
<glyph unicode="ff&#x127;" horiz-adv-x="2355" d="M916 1024h247v-115h-241v-909h-139v909h-435v-1305h-140v1305h-174v99l179 11v129q0 74 24.5 135t68.5 105t106.5 68t138.5 24q51 0 94.5 -10.5t67.5 -18.5l-26 -109q-23 6 -60.5 12.5t-80.5 6.5q-205 0 -205 -229v-108h447v84q0 86 28 155t80.5 117t127.5 74t168 26 q57 0 108 -5.5t93.5 -13.5t75 -17t52.5 -16q2 0 3 -0.5t3 -0.5v-113h371v-100h-371v-314q77 64 166.5 104t180.5 40q158 0 237 -95.5t79 -274.5v-674h-140v652q0 266 -218 266q-36 0 -77 -10.5t-81.5 -29t-78.5 -43t-68 -52.5v-783h-140v1335q-32 9 -83 17.5t-117 8.5 t-117 -15t-85 -47t-51.5 -83.5t-17.5 -123.5v-68z" />
<glyph unicode="ff&#x12d;" horiz-adv-x="1721" d="M916 1024h267v-115h-261v-909h-139v909h-435v-1305h-140v1305h-174v99l179 11v129q0 74 24.5 135t68.5 105t106.5 68t138.5 24q51 0 94.5 -10.5t67.5 -18.5l-26 -109q-23 6 -60.5 12.5t-80.5 6.5q-103 0 -154 -58t-51 -171v-108h447v124q0 74 24.5 135t68.5 105t106.5 68 t138.5 24q32 0 58.5 -3t50 -7.5t44.5 -8.5t41 -5q3 -33 13 -62.5t29 -51t46 -34t64 -12.5t64.5 12.5t46 34t29 51t12.5 62.5h102q3 -60 -14.5 -109t-51 -84t-81.5 -54t-107 -19q-89 0 -151 42t-87 116q-23 5 -52.5 9t-60.5 4q-205 0 -205 -229v-108zM1542 1024v-1024h-140 v1024h140z" />
<glyph unicode="ff&#xec;" horiz-adv-x="1685" d="M913 1024h256v-115h-254v-909h-139v909h-428v-1305h-140v1305h-160v101l162 10v128q0 74 24 135t67.5 105t105.5 68t137 24q51 0 93 -10.5t66 -18.5l-27 -109q-22 6 -58.5 12.5t-78.5 6.5q-194 0 -194 -229v-108h432v124q0 74 23 135t65.5 105t102 68t131.5 24 q41 0 75 -9t62 -21l39 72l387 -231l-42 -79l-360 164l-21 -49q-25 11 -61 22.5t-84 11.5q-91 0 -136 -58t-45 -171v-108zM1505 1024v-1024h-139v1024h139z" />
<glyph unicode="ff&#x133;" horiz-adv-x="2157" d="M916 1024h571v-1024h-140v909h-425v-1305h-139v1305h-435v-1305h-140v1305h-174v99l179 11v129q0 74 24.5 135t68.5 105t106.5 68t138.5 24q51 0 94.5 -10.5t67.5 -18.5l-26 -109q-23 6 -60.5 12.5t-80.5 6.5q-103 0 -154 -58t-51 -171v-108h447v102q0 82 29 147.5 t82 111.5t127 70.5t165 24.5q45 0 87 -5t77.5 -12.5t62.5 -15.5t41 -13l-28 -109q-33 10 -95.5 23t-149.5 13q-136 0 -203 -60t-67 -191v-86zM1838 1024h139v-1073q0 -98 -20.5 -167.5t-61.5 -113.5t-102 -65t-143 -21q-20 0 -46.5 2.5t-40.5 5.5l15 117q15 -3 37 -5 q17 0 32 1t29 3q84 7 123 60t39 167v1089zM1808 1345q0 45 29.5 74.5t74.5 29.5q19 0 36 -7.5t30 -20.5t21 -30.5t8 -36.5q0 -23 -8 -42t-22 -33t-33 -22t-41 -8q-19 0 -36.5 7.5t-30.5 21t-20.5 30.5t-7.5 37z" />
<glyph unicode="ff&#x12b;" horiz-adv-x="1714" d="M1203 1353q-46 8 -95 8q-100 0 -149.5 -58t-49.5 -171v-108h267v-115h-261v-909h-139v909h-428v-1305h-140v1305h-160v101l162 10v128q0 74 24 135t67.5 105t105.5 68t137 24q51 0 93 -10.5t66 -18.5l-27 -109q-22 6 -58.5 12.5t-78.5 6.5q-194 0 -194 -229v-108h436v124 q0 74 23.5 135t67 105t105 68t136.5 24q55 0 102.5 -10.5t73.5 -18.5l-15 -63h453v-107h-524v72zM1505 1024v-1024h-139v1024h139z" />
<glyph unicode="ff&#x12f;" horiz-adv-x="1667" d="M1487 1024v-1024q-13 -9 -26.5 -19t-26.5 -21q-20 -18 -39 -39.5t-33 -45t-22.5 -48t-8.5 -48.5q0 -51 26.5 -75t68.5 -24q19 0 37 4t33 9t24.5 9.5t12.5 6.5l32 -74q-7 -6 -22 -14.5t-36 -16.5t-47 -14t-54 -6q-40 0 -75 11.5t-61.5 33.5t-42 54t-15.5 72q0 38 13 73 t35 66.5t50 58t57 48.5l-20 35v873h-425v-1028h-139v1028h-435v-1305h-140v1305h-174v99l179 11v129q0 74 24.5 135t68.5 105t106.5 68t138.5 24q51 0 94.5 -10.5t67.5 -18.5l-26 -109q-23 6 -60.5 12.5t-80.5 6.5q-205 0 -205 -229v-108h447v102q0 82 29 147.5t82 111.5 t127 70.5t165 24.5q45 0 87 -5t77.5 -12.5t62.5 -15.5t41 -13l-28 -109q-33 10 -95.5 23t-149.5 13q-136 0 -203 -60t-67 -191v-22l139 -64h432z" />
<glyph unicode="ff&#x129;" horiz-adv-x="1714" d="M909 1024h267v-115h-261v-909h-139v909h-428v-1305h-140v1305h-160v101l162 10v128q0 74 24 135t67.5 105t105.5 68t137 24q51 0 93 -10.5t66 -18.5l-27 -109q-22 6 -58.5 12.5t-78.5 6.5q-194 0 -194 -229v-108h436v124q0 74 23.5 135t66 105t102 68t130.5 24 q52 0 91 -16t66 -37q24 25 55 39t73 14q28 0 53.5 -10t49.5 -22.5t46.5 -22.5t43.5 -10q20 0 36.5 7t30 17t23.5 21t17 20l73 -68q-33 -56 -81 -87t-111 -31q-28 0 -52 10.5t-47.5 22.5t-46 22.5t-47.5 10.5q-19 0 -36 -7t-31 -17.5t-25 -21.5t-17 -20q-9 7 -22.5 18.5 t-33.5 22.5t-46 18.5t-60 7.5q-99 0 -147.5 -58t-48.5 -171v-108zM1505 1024v-1024h-139v1024h139z" />
<glyph unicode="ffj" horiz-adv-x="1662" d="M1347 909h-425v-909h-139v909h-435v-1305h-140v1305h-174v99l179 11v129q0 74 24.5 135t68.5 105t106.5 68t138.5 24q51 0 94.5 -10.5t67.5 -18.5l-26 -109q-23 6 -60.5 12.5t-80.5 6.5q-103 0 -154 -58t-51 -171v-108h447v102q0 82 29 147.5t82 111.5t127 70.5t165 24.5 q45 0 87 -5t77.5 -12.5t62.5 -15.5t41 -13l-28 -109q-33 10 -95.5 23t-149.5 13q-136 0 -203 -60t-67 -191v-86h571v-1073q0 -98 -20.5 -167.5t-61.5 -113.5t-102.5 -65t-142.5 -21q-10 0 -22.5 0.5t-24.5 2t-22.5 2.5t-17.5 3l14 117q12 -2 30.5 -3.5t35.5 -1.5 q51 0 87.5 12.5t60 40.5t35 72t11.5 106v974z" />
<glyph unicode="ffk" horiz-adv-x="2255" d="M916 1024h247v-115h-241v-909h-139v909h-435v-1305h-140v1305h-174v99l179 11v129q0 74 24.5 135t68.5 105t106.5 68t138.5 24q51 0 94.5 -10.5t67.5 -18.5l-26 -109q-23 6 -60.5 12.5t-80.5 6.5q-103 0 -154 -58t-51 -171v-108h447v84q0 86 28 155t80.5 117t127.5 74 t168 26q59 0 111.5 -6t96 -14t76 -17.5t51.5 -15.5v-982l459 579h163l-343 -430l384 -594h-162l-321 499l-180 -221v-278h-140v1335q-32 9 -83 17.5t-117 8.5t-117 -15t-85 -47t-51.5 -83.5t-17.5 -123.5v-68z" />
<glyph unicode="ff&#x137;" horiz-adv-x="2255" d="M1800 -102q7 -5 17.5 -17.5t21 -31t18 -42.5t7.5 -52q0 -51 -21.5 -88.5t-56.5 -63.5t-80.5 -41t-94.5 -19l-26 76q30 6 58 17t49 27.5t33.5 38.5t12.5 49q0 23 -6 43t-14.5 35.5t-17.5 26.5t-15 17zM916 1024h247v-115h-241v-909h-139v909h-435v-1305h-140v1305h-174v99 l179 11v129q0 74 24.5 135t68.5 105t106.5 68t138.5 24q51 0 94.5 -10.5t67.5 -18.5l-26 -109q-23 6 -60.5 12.5t-80.5 6.5q-103 0 -154 -58t-51 -171v-108h447v84q0 86 28 155t80.5 117t127.5 74t168 26q59 0 111.5 -6t96 -14t76 -17.5t51.5 -15.5v-982l459 579h163 l-343 -430l384 -594h-162l-321 499l-180 -221v-278h-140v1335q-32 9 -83 17.5t-117 8.5t-117 -15t-85 -47t-51.5 -83.5t-17.5 -123.5v-68z" />
<glyph unicode="ff&#x13e;" horiz-adv-x="1802" d="M1788 1523q7 -5 19.5 -18.5t24.5 -34t20.5 -46.5t8.5 -57q0 -47 -15 -85t-39 -67.5t-55 -51t-63 -35.5l-49 66q16 10 32.5 24t30 33.5t22.5 44t9 54.5q0 25 -9 48.5t-21 42t-24.5 32.5t-19.5 20zM916 1024h247v-115h-241v-909h-139v909h-435v-1305h-140v1305h-174v99 l179 11v129q0 74 24.5 135t68.5 105t106.5 68t138.5 24q51 0 94.5 -10.5t67.5 -18.5l-26 -109q-23 6 -60.5 12.5t-80.5 6.5q-103 0 -154 -58t-51 -171v-108h447v84q0 86 28 155t80.5 117t127.5 74t168 26q59 0 111.5 -6t96 -14t76 -17.5t51.5 -15.5v-1427h-140v1335 q-32 9 -83 17.5t-117 8.5t-117 -15t-85 -47t-51.5 -83.5t-17.5 -123.5v-68z" />
<glyph unicode="ff&#x13c;" horiz-adv-x="1707" d="M1508 -102q7 -5 17.5 -17.5t21 -31t18 -42.5t7.5 -52q0 -51 -21.5 -88.5t-56.5 -63.5t-80.5 -41t-94.5 -19l-26 76q31 6 58.5 17t48.5 27.5t33.5 38.5t12.5 49q0 23 -6 43t-14.5 35.5t-17.5 26.5t-15 17zM916 1024h247v-115h-241v-909h-139v909h-435v-1305h-140v1305 h-174v99l179 11v129q0 74 24.5 135t68.5 105t106.5 68t138.5 24q51 0 94.5 -10.5t67.5 -18.5l-26 -109q-23 6 -60.5 12.5t-80.5 6.5q-103 0 -154 -58t-51 -171v-108h447v84q0 86 28 155t80.5 117t127.5 74t168 26q59 0 111.5 -6t96 -14t76 -17.5t51.5 -15.5v-1427h-140v1335 q-32 9 -83 17.5t-117 8.5t-117 -15t-85 -47t-51.5 -83.5t-17.5 -123.5v-68z" />
<glyph unicode="ff&#x140;" horiz-adv-x="1843" d="M1666 743q0 45 29.5 74.5t74.5 29.5q19 0 36 -7.5t30 -20.5t20.5 -30.5t7.5 -36.5q0 -46 -29.5 -76t-73.5 -30q-19 0 -36.5 7.5t-30.5 21t-20.5 31t-7.5 37.5zM916 1024h247v-115h-241v-909h-139v909h-435v-1305h-140v1305h-174v99l179 11v129q0 74 24.5 135t68.5 105 t106.5 68t138.5 24q51 0 94.5 -10.5t67.5 -18.5l-26 -109q-23 6 -60.5 12.5t-80.5 6.5q-103 0 -154 -58t-51 -171v-108h447v84q0 86 28 155t80.5 117t127.5 74t168 26q59 0 111.5 -6t96 -14t76 -17.5t51.5 -15.5v-1427h-140v1335q-32 9 -83 17.5t-117 8.5t-117 -15t-85 -47 t-51.5 -83.5t-17.5 -123.5v-68z" />
<glyph unicode="ff&#x142;" horiz-adv-x="1751" d="M916 1024h247v-115h-241v-909h-139v909h-435v-1305h-140v1305h-174v99l179 11v129q0 74 24.5 135t68.5 105t106.5 68t138.5 24q51 0 94.5 -10.5t67.5 -18.5l-26 -109q-23 6 -60.5 12.5t-80.5 6.5q-205 0 -205 -229v-108h447v84q0 86 28 155t80.5 117t127.5 74t168 26 q59 0 111.5 -6t96 -14t76 -17.5t51.5 -15.5v-597l136 102l70 -90l-206 -155v-687h-140v582l-137 -103l-70 91l207 155v610q-32 9 -83 17.5t-117 8.5t-117 -15t-85 -47t-51.5 -83.5t-17.5 -123.5v-68z" />
<glyph unicode="fh" horiz-adv-x="1780" d="M341 1024h247v-115h-240v-909h-140v909h-174v99l179 11v89q0 86 28 155t80.5 117t127.5 74t168 26q57 0 108 -5.5t93.5 -13.5t75 -17t53.5 -16q2 0 2.5 -0.5t2.5 -0.5v-527q78 64 167 104t180 40q158 0 237.5 -95.5t79.5 -274.5v-674h-141v652q0 266 -217 266 q-37 0 -78 -10.5t-81.5 -29t-78.5 -43t-68 -52.5v-783h-139v1335q-32 9 -83 17.5t-118 8.5q-66 0 -116.5 -15t-85 -47t-52 -83.5t-17.5 -123.5v-68z" />
<glyph unicode="f&#x127;" horiz-adv-x="1780" d="M341 1024h247v-115h-240v-909h-140v909h-174v99l179 11v89q0 86 28 155t80.5 117t127.5 74t168 26q57 0 108 -5.5t93.5 -13.5t75 -17t53.5 -16h-1q2 0 3 -0.5t3 -0.5v-113h372v-100h-372v-314q78 64 167 104t180 40q158 0 237.5 -95.5t79.5 -274.5v-674h-141v652 q0 266 -217 266q-37 0 -78 -10.5t-81.5 -29t-78.5 -43t-68 -52.5v-783h-139v1335q-32 9 -83 17.5t-118 8.5q-66 0 -116.5 -15t-85 -47t-52 -83.5t-17.5 -123.5v-68z" />
<glyph unicode="f&#x12d;" horiz-adv-x="1147" d="M341 1024h267v-115h-260v-909h-140v909h-174v99l179 11v129q0 74 24.5 135t68.5 105t106.5 68t138.5 24q32 0 59 -3t50.5 -7.5t44.5 -8.5t41 -5q2 -33 12.5 -62.5t29 -51t46 -34t64.5 -12.5t64 12.5t46 34t29 51t12 62.5h102q3 -60 -14.5 -109t-50.5 -84t-81 -54 t-107 -19q-90 0 -152 42t-87 116q-23 5 -52 9t-61 4q-103 0 -154 -58t-51 -171v-108zM967 1024v-1024h-140v1024h140z" />
<glyph unicode="f&#xec;" horiz-adv-x="1147" d="M1066 1212l-364 165l-19 -48q-19 8 -56 20t-87 12q-99 0 -149 -58t-50 -171v-108h267v-115h-260v-909h-140v909h-174v99l179 11v129q0 73 24 134.5t67.5 105t104.5 68t136 24.5q42 0 77 -9t62 -20l41 69l383 -229zM967 1024v-1024h-140v1024h140z" />
<glyph unicode="f&#x133;" horiz-adv-x="1582" d="M213 1126q0 82 29 147.5t82 111.5t127 70.5t165 24.5q45 0 87.5 -5t78 -12.5t62 -15.5t40.5 -13l-28 -109q-33 10 -95 23t-150 13q-135 0 -202.5 -60t-67.5 -191v-86h571v-1024h-139v909h-425v-1305h-140v1305h-174v99l179 11v107zM1263 1024h139v-1073 q0 -98 -20.5 -167.5t-61.5 -113.5t-102 -65t-143 -21q-20 0 -46.5 2.5t-40.5 5.5l15 117q15 -3 37 -5q17 0 32 1t29 3q85 7 123.5 60t38.5 167v1089zM1233 1345q0 45 29.5 74.5t74.5 29.5q19 0 36.5 -7.5t30.5 -20.5t20.5 -30.5t7.5 -36.5q0 -23 -8 -42t-22 -33t-33 -22 t-41 -8q-19 0 -36.5 7.5t-30.5 21t-20.5 30.5t-7.5 37z" />
<glyph unicode="f&#x12b;" horiz-adv-x="1147" d="M636 1353q-46 8 -96 8q-100 0 -149.5 -58t-49.5 -171v-108h267v-115h-260v-909h-140v909h-174v99l179 11v129q0 74 24 135t67.5 105t104.5 68t136 24q55 0 102.5 -10.5t73.5 -18.5l-15 -63h454v-107h-524v72zM967 1024v-1024h-140v1024h140z" />
<glyph unicode="f&#x12f;" horiz-adv-x="1148" d="M213 1126q0 82 29 147.5t82 111.5t127 70.5t165 24.5q45 0 87.5 -5t78 -12.5t62 -15.5t40.5 -13l-28 -109q-33 10 -95 23t-150 13q-135 0 -202.5 -60t-67.5 -191v-86h571v-1024q-13 -9 -26 -19t-27 -21q-20 -18 -38.5 -39.5t-33 -45t-23 -48t-8.5 -48.5q0 -51 26.5 -75 t68.5 -24q19 0 37 4t33 9t24.5 9.5t12.5 6.5l32 -74q-6 -6 -21.5 -14.5t-36.5 -16.5t-47 -14t-54 -6q-40 0 -75 11.5t-61.5 33.5t-42 54t-15.5 72q0 38 13 73t35 66.5t50 58t57 48.5l-19 35v873h-425v-1305h-140v1305h-174v99l179 11v107z" />
<glyph unicode="f&#x129;" horiz-adv-x="1147" d="M341 1024h267v-115h-260v-909h-140v909h-174v99l179 11v129q0 74 23.5 135t66 105t102 68t130.5 24q52 0 91 -16t66 -37q25 25 56 39t72 14q28 0 53.5 -10t49.5 -22.5t46.5 -22.5t43.5 -10q20 0 36.5 7t30 17t23.5 21t18 20l73 -68q-34 -56 -82 -87t-111 -31 q-28 0 -52 10.5t-47 22.5t-46 22.5t-47 10.5q-20 0 -37 -7t-31 -17.5t-24.5 -21.5t-16.5 -20q-9 8 -23 19.5t-34 22t-46 18t-60 7.5q-99 0 -147.5 -58t-48.5 -171v-108zM967 1024v-1024h-140v1024h140z" />
<glyph unicode="fj" horiz-adv-x="1087" d="M213 1126q0 82 29 147.5t82 111.5t127 70.5t165 24.5q45 0 87.5 -5t78 -12.5t62 -15.5t40.5 -13l-28 -109q-33 10 -95 23t-150 13q-135 0 -202.5 -60t-67.5 -191v-86h571v-1073q0 -98 -20.5 -167.5t-61.5 -113.5t-102 -65t-143 -21q-20 0 -46.5 2.5t-40.5 5.5l15 117 q12 -2 30 -3.5t35 -1.5q51 0 88 12.5t60.5 40.5t35 72t11.5 106v974h-425v-909h-140v909h-174v99l179 11v107z" />
<glyph unicode="fk" horiz-adv-x="1680" d="M341 1024h247v-115h-240v-909h-140v909h-174v99l179 11v89q0 86 28 155t80.5 117t127.5 74t168 26q59 0 111.5 -6t96 -14t76 -17.5t51.5 -15.5v-982l459 579h163l-343 -430l384 -594h-161l-322 499l-180 -221v-278h-139v1335q-32 9 -83 17.5t-118 8.5q-66 0 -116.5 -15 t-85 -47t-52 -83.5t-17.5 -123.5v-68z" />
<glyph unicode="f&#x137;" horiz-adv-x="1680" d="M1225 -102q7 -5 17.5 -17.5t21 -31t18 -42.5t7.5 -52q0 -51 -21.5 -88.5t-56.5 -63.5t-80.5 -41t-94.5 -19l-26 76q31 6 58.5 17t48.5 27.5t33.5 38.5t12.5 49q0 23 -6 43t-14.5 35.5t-17.5 26.5t-15 17zM341 1024h247v-115h-240v-909h-140v909h-174v99l179 11v89 q0 86 28 155t80.5 117t127.5 74t168 26q59 0 111.5 -6t96 -14t76 -17.5t51.5 -15.5v-982l459 579h163l-343 -430l384 -594h-161l-322 499l-180 -221v-278h-139v1335q-32 9 -83 17.5t-118 8.5q-66 0 -116.5 -15t-85 -47t-52 -83.5t-17.5 -123.5v-68z" />
<glyph unicode="f&#x13e;" horiz-adv-x="1227" d="M1214 1523q7 -5 19 -18.5t24 -34t20.5 -46.5t8.5 -57q0 -47 -15 -85t-39 -67.5t-55 -51t-63 -35.5l-48 66q16 10 32.5 24t30 33.5t22 44t8.5 54.5q0 25 -9 48.5t-21 42t-24.5 32.5t-19.5 20zM341 1024h247v-115h-240v-1305h-140v1305h-174v99l179 11v89q0 86 28 155 t80.5 117t127.5 74t168 26q59 0 111.5 -6t96 -14t76 -17.5t51.5 -15.5v-1427h-139v1335q-32 9 -83 17.5t-118 8.5q-66 0 -116.5 -15t-85 -47t-52 -83.5t-17.5 -123.5v-68z" />
<glyph unicode="f&#x13c;" horiz-adv-x="1132" d="M933 -102q7 -5 18 -17.5t21.5 -31t18 -42.5t7.5 -52q0 -51 -21.5 -88.5t-56.5 -63.5t-81 -41t-95 -19l-26 76q31 6 59 17t49 27.5t33.5 38.5t12.5 49q0 23 -6.5 43t-15 35.5t-17.5 26.5t-14 17zM341 1024h247v-115h-240v-1305h-140v1305h-174v99l179 11v89q0 86 28 155 t80.5 117t127.5 74t168 26q59 0 111.5 -6t96 -14t76 -17.5t51.5 -15.5v-1427h-139v1335q-32 9 -83 17.5t-118 8.5q-66 0 -116.5 -15t-85 -47t-52 -83.5t-17.5 -123.5v-68z" />
<glyph unicode="f&#x140;" horiz-adv-x="1269" d="M1091 743q0 45 29.5 74.5t74.5 29.5q19 0 36 -7.5t30 -20.5t21 -30.5t8 -36.5q0 -46 -30 -76t-74 -30q-19 0 -36.5 7.5t-30.5 21t-20.5 31t-7.5 37.5zM341 1024h247v-115h-240v-1305h-140v1305h-174v99l179 11v89q0 86 28 155t80.5 117t127.5 74t168 26q59 0 111.5 -6 t96 -14t76 -17.5t51.5 -15.5v-1427h-139v1335q-32 9 -83 17.5t-118 8.5q-66 0 -116.5 -15t-85 -47t-52 -83.5t-17.5 -123.5v-68z" />
<glyph unicode="f&#x142;" horiz-adv-x="1176" d="M341 1024h247v-115h-240v-1305h-140v1305h-174v99l179 11v89q0 86 28 155t80.5 117t127.5 74t168 26q59 0 111.5 -6t96 -14t76 -17.5t51.5 -15.5v-597l136 102l70 -90l-206 -155v-687h-139v582l-138 -103l-69 91l207 155v610q-32 9 -83 17.5t-118 8.5q-66 0 -116.5 -15 t-85 -47t-52 -83.5t-17.5 -123.5v-68z" />
<glyph unicode="&#x3c;&#x2014;" horiz-adv-x="1591" d="M670 8l-505 504l505 504l80 -81l-424 -423l424 -423zM628 570h798v-115h-798v115z" />
<glyph unicode="&#x17f;f" horiz-adv-x="1194" d="M348 -396h-140v1305h-174v99l176 11v129q0 74 24 135t67.5 105t105.5 68t137 24q54 0 99 -10.5t70 -18.5l-33 -109q-23 6 -60.5 12.5t-80.5 6.5q-98 0 -144.5 -58t-46.5 -171v-1528zM888 1024h266v-114h-260v-910h-140v910h-173v98l178 11v129q0 74 24.5 135t68.5 105 t106.5 68t138.5 24q51 0 94.5 -10.5t68.5 -18.5l-27 -109q-23 6 -60.5 12.5t-80.5 6.5q-204 0 -204 -229v-108z" />
<glyph unicode="&#x17f;h" horiz-adv-x="1696" d="M348 0h-140v909h-174v99l176 11v102q0 83 26.5 149.5t74.5 113t115.5 71.5t149.5 25q53 0 98 -7t82 -17t65 -21t47 -20v-515q78 64 167 104t180 40q158 0 237.5 -95.5t79.5 -274.5v-674h-141v652q0 266 -217 266q-37 0 -78 -10.5t-81.5 -29t-78.5 -43t-68 -52.5v-783 h-139v1336q-22 7 -63.5 16t-94.5 9q-111 0 -167 -61t-56 -195v-1105z" />
<glyph unicode="&#x17f;i" horiz-adv-x="1018" d="M348 -396h-140v1305h-174v99l176 11v102q0 83 27.5 149.5t77.5 113t120 71.5t155 25q39 0 74 -5t63.5 -12t50 -14.5t32.5 -11.5l-28 -110q-25 8 -77 21t-120 13q-118 0 -177.5 -61.5t-59.5 -194.5v-1501zM838 1024v-1024h-139v1024h139z" />
<glyph unicode="&#x17f;j" horiz-adv-x="1013" d="M348 0h-140v909h-174v99l176 11v102q0 83 27.5 149.5t77.5 113t120 71.5t155 25q39 0 74 -5t63.5 -12t50 -14.5t32.5 -11.5l-28 -110q-25 8 -77 21t-120 13q-118 0 -177.5 -61.5t-59.5 -194.5v-1105zM699 1024h139v-1073q0 -98 -20.5 -167.5t-61.5 -113.5t-102 -65 t-143 -21q-20 0 -46.5 2.5t-40.5 5.5l15 117q15 -3 37 -5q17 0 32 1t29 3q84 7 123 60t39 167v1089z" />
<glyph unicode="&#x17f;k" horiz-adv-x="1596" d="M348 0h-140v909h-174v99l176 11v102q0 83 26.5 149.5t74.5 113t115.5 71.5t149.5 25q53 0 98 -7t82 -17t65 -21t47 -20v-970l459 579h163l-343 -430l384 -594h-161l-322 499l-180 -221v-278h-139v1336q-22 7 -63.5 16t-94.5 9q-111 0 -167 -61t-56 -195v-1105z" />
<glyph unicode="&#x17f;l" horiz-adv-x="1048" d="M348 -396h-140v1305h-174v99l176 11v102q0 83 26.5 149.5t74.5 113t115.5 71.5t149.5 25q53 0 98 -7t82 -17t65 -21t47 -20v-1415h-139v1336q-22 7 -63.5 16t-94.5 9q-111 0 -167 -61t-56 -195v-1501z" />
<glyph unicode="&#x17f;&#x17f;" horiz-adv-x="1102" d="M348 -396h-140v1305h-174v99l176 11v129q0 74 24 135t67.5 105t105.5 68t137 24q54 0 99 -10.5t70 -18.5l-33 -109q-23 6 -60.5 12.5t-80.5 6.5q-98 0 -144.5 -58t-46.5 -171v-1528zM894 0h-140v910h-173v98l175 11v129q0 74 24.5 135t69 105t107.5 68t140 24 q51 0 94.5 -10.5t68.5 -18.5l-27 -109q-23 6 -60.5 12.5t-80.5 6.5q-101 0 -149.5 -57.5t-48.5 -171.5v-1132z" />
<glyph unicode="&#xd;" horiz-adv-x="487" />
<glyph unicode=" "  horiz-adv-x="451" />
<glyph unicode="&#x09;" horiz-adv-x="451" />
<glyph unicode="&#xa0;" horiz-adv-x="451" />
<glyph unicode="!" horiz-adv-x="490" d="M329 1330l-33 -965h-103l-32 965h168zM146 77q0 45 29.5 74t74.5 29q19 0 36 -7.5t30 -20.5t20.5 -30t7.5 -36q0 -46 -29.5 -76t-73.5 -30q-19 0 -36.5 7.5t-30.5 21t-20.5 31t-7.5 37.5z" />
<glyph unicode="&#x22;" horiz-adv-x="752" d="M597 1458l-25 -487h-104l-25 487h154zM309 1458l-25 -487h-104l-25 487h154z" />
<glyph unicode="#" horiz-adv-x="1528" d="M1145 1330l-52 -376h233l-15 -112h-234l-50 -360h233l-14 -111h-234l-51 -371h-128l52 371h-354l-51 -371h-126l52 371h-245l14 111h246l50 360h-239l14 112h240l53 376h126l-52 -376h354l54 376h124zM547 482h354l51 360h-355z" />
<glyph unicode="$" horiz-adv-x="1087" d="M617 1514l-8 -249q40 -2 78 -8t71 -14t59 -17.5t43 -17.5l-32 -100q-20 7 -48 15t-61 15t-70.5 11.5t-75.5 4.5q-125 0 -189 -51.5t-64 -136.5q0 -41 15 -73.5t47 -60.5t83 -54t122 -56q90 -37 152 -73.5t100.5 -78t55.5 -91t17 -110.5q0 -125 -82.5 -202.5t-233.5 -95.5 l9 -255h-132l8 251q-101 4 -177.5 29t-118.5 51l40 104q54 -27 128.5 -47.5t165.5 -20.5q125 0 192.5 43.5t67.5 136.5q0 35 -10 64t-34 54.5t-63.5 50t-97.5 51.5q-94 43 -166 80t-120.5 78t-73.5 92.5t-25 123.5q0 59 22 110t62.5 90t96.5 65t125 36l-9 256h131z" />
<glyph unicode="%" horiz-adv-x="1515" d="M1289 1284l-970 -1303l-93 65l969 1304zM1111 -20q-63 0 -115 23.5t-89.5 64.5t-58 96.5t-20.5 118.5q0 69 20.5 127t58.5 100t93 65.5t123 23.5q63 0 115 -23.5t89.5 -64.5t58 -96.5t20.5 -119.5q0 -69 -20.5 -127t-59 -99.5t-93 -65t-122.5 -23.5zM1123 87 q37 0 67 15.5t50.5 42t31.5 62t11 76.5q0 44 -10.5 82.5t-32.5 66.5t-54.5 44t-75.5 16q-38 0 -67.5 -15.5t-49.5 -42t-31 -62.5t-11 -77q0 -44 10.5 -82t32 -66t54 -44t75.5 -16zM392 731q-63 0 -115 23.5t-89.5 64.5t-58 96.5t-20.5 118.5q0 69 20.5 127t58.5 100t93 65.5 t123 23.5q63 0 115 -23.5t89.5 -64.5t58 -96.5t20.5 -119.5q0 -69 -20.5 -127t-59 -99.5t-93 -65t-122.5 -23.5zM405 838q37 0 66.5 15.5t50 42t31.5 62t11 76.5q0 44 -10.5 82.5t-32 66.5t-54 44t-75.5 16q-38 0 -67.5 -15.5t-50 -42t-31.5 -62.5t-11 -77q0 -44 10.5 -82 t32.5 -66t54 -44t76 -16z" />
<glyph unicode="&#x26;" horiz-adv-x="1366" d="M121 338q0 58 19.5 113t55.5 103.5t87 90t114 73.5q-52 57 -86 101t-54 81.5t-28 72t-8 72.5q0 67 25.5 123t70.5 96.5t106.5 63t133.5 22.5q69 0 128.5 -22t103.5 -61t69.5 -91.5t25.5 -113.5q0 -51 -20.5 -106.5t-57.5 -105.5h488v-113h-213q29 -58 45.5 -124.5 t16.5 -126.5q0 -85 -27.5 -161.5t-73.5 -141.5l174 -192l-95 -84l-169 188q-78 -57 -171.5 -86t-199.5 -29q-101 0 -185.5 26.5t-145.5 74t-95 113t-34 144.5zM660 837q22 28 38.5 52.5t27.5 48.5t16.5 50t5.5 57q0 42 -15 76.5t-42.5 60t-65.5 39.5t-84 14q-38 0 -71.5 -14 t-58.5 -37.5t-39.5 -55t-14.5 -66.5q0 -32 6.5 -61t22 -59t41.5 -64.5t64 -76.5l470 -522q27 43 42.5 95t15.5 97q0 69 -15 132t-49 134h-213zM598 95q36 0 73.5 7t73.5 19t68.5 28t59.5 34l-403 456q-101 -57 -156 -130t-55 -155q0 -60 23.5 -107.5t68 -81.5t107 -52 t140.5 -18z" />
<glyph unicode="'" horiz-adv-x="390" d="M272 1458l-25 -487h-104l-25 487h154z" />
<glyph unicode="(" horiz-adv-x="677" d="M254 673q0 -126 20.5 -233.5t54 -197.5t76 -163t85.5 -129.5t82.5 -97.5t68.5 -67l-73 -81q-31 22 -77.5 63t-98.5 101.5t-104 140.5t-93.5 178.5t-67.5 215.5t-26 253q0 138 26 257.5t68 220t94.5 181.5t104.5 142.5t98.5 103.5t77.5 64l71 -81q-29 -26 -68.5 -67 t-82.5 -97.5t-85.5 -128.5t-76 -160t-54 -192.5t-20.5 -225.5z" />
<glyph unicode=")" horiz-adv-x="677" d="M391 656q0 126 -20.5 233.5t-54 197.5t-76 163t-85.5 129.5t-82.5 97.5t-68.5 67l73 81q31 -22 77.5 -63t98.5 -101.5t104 -140.5t93.5 -178.5t67.5 -215.5t26 -253q0 -138 -26 -257.5t-68 -220t-94.5 -181.5t-104.5 -142.5t-98.5 -103.5t-77.5 -64l-71 81q29 26 68.5 67 t82.5 97.5t85.5 128.5t76 160t54 192.5t20.5 225.5z" />
<glyph unicode="*" horiz-adv-x="819" d="M346 1452h126l-21 -265l250 94l37 -119l-262 -58l185 -190l-93 -81l-159 217l-158 -217l-95 80l186 191l-261 58l35 119l250 -94z" />
<glyph unicode="+" horiz-adv-x="1261" d="M694 1101v-379h372v-115h-372v-377h-128v377h-372v115h372v379h128z" />
<glyph unicode="," horiz-adv-x="402" d="M33 -249q20 15 42 35t41 45.5t31 57t13 69.5q0 34 -8.5 64t-21.5 54.5t-27 43t-25 30.5l142 35q9 -9 22.5 -27t26 -44.5t21.5 -61.5t9 -77q0 -56 -19.5 -102.5t-49.5 -84t-66 -65.5t-69 -47z" />
<glyph unicode="-" horiz-adv-x="888" d="M181 590h526v-115h-526v115z" />
<glyph unicode="." horiz-adv-x="430" d="M116 77q0 45 29.5 74t74.5 29q19 0 36 -7.5t30 -20.5t20.5 -30t7.5 -36q0 -46 -29.5 -76t-73.5 -30q-19 0 -36.5 7.5t-30.5 21t-20.5 31t-7.5 37.5z" />
<glyph unicode="/" horiz-adv-x="830" d="M874 1585l-774 -1835h-137l774 1835h137z" />
<glyph unicode="0" horiz-adv-x="1284" d="M648 102q80 0 146 37.5t113.5 108t73.5 173t26 232.5q0 131 -25 237.5t-73 181.5t-117 116t-157 41q-80 0 -146 -38t-113 -110t-73 -175t-26 -233q0 -131 25 -236.5t73 -179.5t117 -114.5t156 -40.5zM635 -20q-126 0 -221.5 51t-159.5 142t-96 214.5t-32 269.5 q0 147 33 273.5t99 220t163.5 146.5t226.5 53q126 0 221.5 -51.5t159.5 -142.5t96 -216t32 -271t-33 -272t-99 -218.5t-163.5 -145.5t-226.5 -53z" />
<glyph unicode="1" horiz-adv-x="818" d="M351 116v1103q-66 -7 -137.5 -13t-139.5 -9l-13 107q99 8 207.5 20t210.5 26h13v-1234l244 -3v-113h-667v113z" />
<glyph unicode="2" horiz-adv-x="1040" d="M116 105q123 134 216.5 239t162.5 187.5t115 146.5t74 114.5t39.5 92t11.5 80.5q0 125 -67.5 193.5t-200.5 68.5q-47 0 -91 -9t-80.5 -21t-63.5 -24.5t-39 -19.5l-46 97q18 11 51 28t77.5 33t97.5 27.5t111 11.5q91 0 165 -26.5t126.5 -75.5t81 -117t28.5 -152 q0 -79 -35 -161.5t-107.5 -183t-183.5 -226.5t-263 -292h643v-116h-823v105z" />
<glyph unicode="3" horiz-adv-x="1037" d="M710 981q0 119 -72 182.5t-215 63.5q-40 0 -79 -7t-72 -16.5t-57.5 -20t-36.5 -16.5l-46 98q13 7 41.5 21.5t69 28.5t91.5 24.5t108 10.5q99 0 175.5 -27.5t128.5 -75t79 -112t27 -138.5q0 -53 -17.5 -99.5t-45 -85.5t-63 -69.5t-71.5 -50.5q49 -20 93 -50t77 -71.5 t52 -93t19 -113.5q0 -86 -32 -157t-92.5 -121.5t-148 -78t-197.5 -27.5q-53 0 -99.5 7.5t-86 19t-71 25t-53.5 24.5l42 104q17 -7 43 -17t61.5 -19t81 -15t101.5 -6q59 0 114.5 16t98.5 47t69 77t26 106q0 134 -86 203.5t-241 69.5h-90v116h193q29 12 61 33t58.5 51t44 69.5 t17.5 89.5z" />
<glyph unicode="4" horiz-adv-x="1148" d="M697 1331h155v-893h204v-116h-204v-322h-142v322h-629v111zM230 438h480v707z" />
<glyph unicode="5" horiz-adv-x="1045" d="M757 391q0 73 -24.5 130.5t-69.5 97.5t-107.5 61.5t-138.5 21.5q-91 0 -152.5 -10.5t-102.5 -18.5l22 658h661v-116h-526l-14 -403q20 3 57 7t71 4q109 0 196 -30t148 -84.5t93.5 -132t31.5 -171.5q0 -92 -32.5 -169.5t-94 -134.5t-149.5 -89t-199 -32q-57 0 -107.5 9.5 t-91.5 23t-70 27.5t-42 22l41 104q12 -6 38 -16.5t63 -21t83.5 -18t100.5 -7.5q76 0 134.5 22.5t98.5 61.5t61 91.5t21 112.5z" />
<glyph unicode="6" horiz-adv-x="1168" d="M715 1226q-74 0 -134.5 -23.5t-109 -63.5t-85 -94.5t-61 -115.5t-37.5 -126.5t-14 -128.5q20 18 52 39t74 39t92.5 30t106.5 12q93 0 171.5 -27t135.5 -78t89 -125.5t32 -169.5q0 -91 -30.5 -167t-88 -131t-140 -85.5t-185.5 -30.5q-111 0 -196.5 40.5t-143.5 118.5 t-87.5 191.5t-29.5 260.5q0 150 34.5 287t108 242t188 167.5t273.5 62.5q40 0 74 -5t60.5 -12t45 -14.5t27.5 -11.5l-27 -108q-20 7 -73 17t-122 10zM598 102q61 0 112.5 18t88.5 52.5t57.5 86t20.5 117.5q0 82 -24 138.5t-64 91.5t-93.5 50.5t-111.5 15.5q-54 0 -102 -12.5 t-88 -31.5t-70 -42t-47 -43q0 -101 19.5 -182.5t59 -139t100 -88.5t142.5 -31z" />
<glyph unicode="7" horiz-adv-x="1036" d="M919 1217l-510 -1217h-143l511 1215h-555l-10 -225h-97l-14 341h818v-114z" />
<glyph unicode="8" horiz-adv-x="1095" d="M545 -20q-85 0 -162.5 21t-137 63t-94.5 103.5t-35 142.5q0 61 21.5 113t60 97t92.5 83.5t119 73.5q-43 20 -89.5 48.5t-85 68t-63.5 91t-25 117.5q0 76 33.5 140t90 110t129.5 72t151 26q82 0 154.5 -23t127 -66.5t86 -105.5t31.5 -139q0 -61 -22.5 -109.5t-60.5 -88 t-87 -70.5t-103 -58q60 -28 115 -63t96.5 -79.5t66.5 -99t25 -121.5q0 -78 -35.5 -141.5t-95 -109.5t-138 -71t-165.5 -25zM289 1015q0 -51 16 -89t49 -69t82.5 -58t116.5 -57q59 28 106 57t79.5 61t50 68t17.5 78q0 49 -19.5 90t-54.5 71t-82.5 46.5t-104.5 16.5 q-54 0 -101 -16.5t-81.5 -46t-54 -68.5t-19.5 -84zM836 316q0 60 -23 104.5t-63.5 79.5t-97 64.5t-122.5 58.5q-271 -130 -271 -302q0 -55 24 -96.5t64 -69t93 -41.5t110 -14q55 0 106.5 15t91.5 43t64 68t24 90z" />
<glyph unicode="9" horiz-adv-x="1168" d="M470 103q110 0 188.5 41.5t129.5 115.5t76 175.5t28 220.5q-20 -18 -52.5 -39t-74 -39t-91.5 -30t-105 -12q-96 0 -174.5 27.5t-135 79.5t-87.5 125.5t-31 166.5q0 91 30.5 167.5t88 131.5t140 85.5t186.5 30.5q111 0 196 -40.5t143 -118.5t87.5 -192t29.5 -261 q0 -169 -31.5 -308.5t-101.5 -239.5t-182 -155t-272 -55q-42 0 -79.5 5t-69 11.5t-55.5 14.5t-38 14l28 107q29 -10 88.5 -19.5t140.5 -9.5zM570 1228q-61 0 -112.5 -18t-88.5 -53.5t-57.5 -87t-20.5 -117.5q0 -81 24 -137.5t64 -91t93 -50t112 -15.5q54 0 102.5 12.5 t88.5 31.5t70 42t47 43q0 101 -19.5 182.5t-59.5 139t-100.5 88.5t-142.5 31z" />
<glyph unicode=":" horiz-adv-x="430" d="M116 940q0 45 29.5 74.5t74.5 29.5q19 0 36 -7.5t30 -20.5t20.5 -30.5t7.5 -36.5q0 -23 -8 -42t-22 -33.5t-32.5 -22.5t-40.5 -8q-19 0 -36.5 8t-30.5 21t-20.5 30.5t-7.5 37.5zM116 77q0 45 29.5 74t74.5 29q19 0 36 -7.5t30 -20.5t20.5 -30t7.5 -36q0 -46 -29.5 -76 t-73.5 -30q-19 0 -36.5 7.5t-30.5 21t-20.5 31t-7.5 37.5z" />
<glyph unicode=";" horiz-adv-x="402" d="M89 940q1 45 30 74.5t74 29.5q19 0 36.5 -7.5t30.5 -20.5t20.5 -30.5t7.5 -36.5q0 -23 -8 -42t-22 -33.5t-33 -22.5t-41 -8q-19 0 -36.5 8t-30.5 21t-20.5 30.5t-7.5 37.5zM33 -249q20 15 42 35t41 45.5t31 57t13 69.5q0 34 -8.5 64t-21.5 54.5t-27 43t-25 30.5l142 35 q9 -9 22.5 -27t26 -44.5t21.5 -61.5t9 -77q0 -56 -19.5 -102.5t-49.5 -84t-66 -65.5t-69 -47z" />
<glyph unicode="&#x3c;" horiz-adv-x="999" d="M805 1028l-480 -363l480 -363l-76 -90l-595 453l595 453z" />
<glyph unicode="=" horiz-adv-x="1216" d="M194 897h827v-115h-827v115zM194 549h827v-115h-827v115z" />
<glyph unicode="&#x3e;" horiz-adv-x="999" d="M194 302l480 363l-480 363l76 90l595 -453l-595 -453z" />
<glyph unicode="?" horiz-adv-x="799" d="M231 455q0 47 15.5 87t41.5 76.5t61.5 72.5t75.5 74q25 25 50.5 53.5t45.5 59.5t32.5 64.5t12.5 69.5q0 57 -19.5 97.5t-53 66.5t-78 38t-94.5 12q-45 0 -81.5 -6.5t-65.5 -15.5t-50 -19t-34 -17l-46 99q19 12 48 26.5t66.5 27t82.5 21t97 8.5q77 0 145.5 -22.5 t120 -63.5t81.5 -99.5t30 -131.5q0 -56 -17.5 -103.5t-44.5 -88.5t-61 -76.5t-67 -67.5q-32 -31 -62 -59t-53 -56.5t-38 -59t-16 -65.5q-2 -29 1 -47.5t6 -32.5l-118 -15q-5 15 -9.5 42.5t-4.5 50.5zM222 77q0 45 29.5 74t74.5 29q19 0 36 -7.5t30 -20.5t21 -30t8 -36 q0 -46 -30 -76t-74 -30q-19 0 -36.5 7.5t-30.5 21t-20.5 31t-7.5 37.5z" />
<glyph unicode="@" horiz-adv-x="2247" d="M1636 4q-57 0 -101.5 19.5t-76.5 48.5t-51 62.5t-26 60.5q-27 -31 -62 -64.5t-79 -61.5t-97 -46.5t-114 -18.5q-90 0 -157.5 40t-112.5 106t-67.5 150t-22.5 171q0 109 34.5 212t101 183.5t164.5 129t224 48.5q60 0 114.5 -13.5t99 -31.5t76 -36t45.5 -27l-45 -616 q-3 -45 9.5 -81.5t35.5 -62t54 -39t66 -13.5q59 0 107 34.5t81.5 99t52 156.5t18.5 206q0 174 -48.5 311.5t-142 233t-231.5 145.5t-317 50q-132 0 -245.5 -34t-208 -94t-168 -143t-123.5 -181t-76.5 -208t-26.5 -224q0 -179 52 -323t145.5 -244.5t223.5 -154.5t286 -54 q58 0 111 8t96.5 18.5t74.5 21.5t46 17l35 -99q-16 -8 -50 -21.5t-83 -27t-110 -23.5t-131 -10q-188 0 -343 62.5t-267 176.5t-173.5 275.5t-61.5 359.5q0 133 31 260.5t90.5 241t146.5 209t200 165t251 108t298 38.5q198 0 358.5 -60t273.5 -170.5t174.5 -266t61.5 -346.5 q0 -135 -29.5 -251t-84.5 -201t-132.5 -133t-173.5 -48zM1382 875q-6 3 -24 11t-45 15.5t-62 13.5t-75 6q-82 0 -148.5 -35.5t-113 -95t-71.5 -138t-25 -163.5q0 -76 14.5 -142.5t45 -116t77 -78t110.5 -28.5q45 0 87 16.5t77.5 41t63.5 53t46 53.5z" />
<glyph unicode="A" horiz-adv-x="1229" d="M908 361h-587l-135 -361h-152l514 1330h133l513 -1330h-152zM363 477h502l-250 694z" />
<glyph unicode="B" horiz-adv-x="1176" d="M179 0v1330h392q103 0 183.5 -22.5t136.5 -65.5t85.5 -104.5t29.5 -140.5q0 -51 -15.5 -96.5t-41.5 -84.5t-60.5 -69t-72.5 -49q54 -17 100 -47t80 -72.5t53.5 -96.5t19.5 -118q0 -88 -32.5 -155.5t-94.5 -114t-151 -70.5t-202 -24h-410zM321 627v-514h264q78 0 140 15 t105 45t66 74.5t23 102.5q0 66 -22.5 117.5t-65 87t-103 54t-136.5 18.5h-271zM321 740h370q34 14 64 37t52.5 54.5t35.5 70t13 82.5q0 115 -77.5 174t-218.5 59h-239v-477z" />
<glyph unicode="C" horiz-adv-x="1116" d="M99 662q0 151 44.5 277t127.5 217.5t202 142.5t269 51q38 0 76.5 -5.5t74.5 -14.5t68.5 -20.5t58.5 -23.5l-36 -108q-48 19 -109.5 34t-135.5 15q-109 0 -199 -36.5t-154.5 -106t-100 -171.5t-35.5 -234t34.5 -238.5t101 -181.5t164.5 -115.5t225 -40.5q71 0 137 15.5 t111 34.5l38 -107q-29 -15 -64 -27t-74.5 -20.5t-81.5 -13.5t-83 -5q-155 0 -277.5 49.5t-207 139t-129.5 215t-45 278.5z" />
<glyph unicode="D" horiz-adv-x="1280" d="M179 0v1330h368q155 0 273.5 -49t198.5 -137t120.5 -209.5t40.5 -266.5q0 -150 -45 -273t-129 -211t-204.5 -136t-270.5 -48h-352zM544 113q103 0 192 36t154.5 105t102.5 169.5t37 229.5q0 130 -32.5 234.5t-96 178t-156.5 112.5t-214 39h-212v-1104h225z" />
<glyph unicode="E" horiz-adv-x="1046" d="M905 1214h-595v-486h575v-116h-575v-496h616v-116h-758v1330h737v-116z" />
<glyph unicode="F" horiz-adv-x="981" d="M896 1214h-575v-486h533v-116h-533v-612h-142v1330h717v-116z" />
<glyph unicode="G" horiz-adv-x="1231" d="M1113 83q-30 -23 -72.5 -41.5t-91.5 -32.5t-102.5 -21.5t-105.5 -7.5q-155 0 -275 50.5t-201.5 140.5t-123.5 215.5t-42 275.5q0 149 43.5 275t127 218t205 143.5t277.5 51.5q85 0 166 -20.5t143 -52.5l-44 -105q-23 9 -52.5 18.5t-64 17.5t-73.5 13.5t-82 5.5 q-109 0 -200 -35.5t-156.5 -104.5t-102 -172t-36.5 -238t35 -241.5t100.5 -180.5t160 -113t214.5 -39q29 0 59.5 3t58.5 8.5t52 12t41 13.5v429l-265 3v110h407v-599z" />
<glyph unicode="H" horiz-adv-x="1340" d="M1019 612h-698v-612h-142v1330h142v-602h698v602h141v-1330h-141v612z" />
<glyph unicode="I" horiz-adv-x="500" d="M179 1330h142v-1330h-142v1330z" />
<glyph unicode="J" horiz-adv-x="692" d="M552 1330v-1036q0 -152 -82 -233t-240 -81q-23 0 -48.5 4t-51 11.5t-48 17.5t-38.5 22l38 100q29 -14 66.5 -23t91.5 -9q85 0 128 44.5t43 131.5v1051h141z" />
<glyph unicode="K" horiz-adv-x="1187" d="M321 535l595 795h169l-431 -570l499 -760h-169l-422 656l-241 -307v-349h-142v1330h142v-795z" />
<glyph unicode="L" horiz-adv-x="928" d="M894 0h-715v1330h142v-1214h573v-116z" />
<glyph unicode="M" horiz-adv-x="1664" d="M179 1330h215l438 -984l438 984h215v-1330h-138v1189l-451 -1014h-127l-451 1014v-1189h-139v1330z" />
<glyph unicode="N" horiz-adv-x="1341" d="M318 1151v-1151h-139v1330h182l662 -1152v1152h138v-1330h-181z" />
<glyph unicode="O" horiz-adv-x="1396" d="M705 100q101 0 182.5 38.5t139 110t88.5 174t31 230.5q0 134 -31.5 241t-90.5 181.5t-143 114.5t-190 40q-101 0 -182 -38.5t-139 -110.5t-89 -174.5t-31 -229.5q0 -134 31.5 -241t90.5 -181.5t143 -114.5t190 -40zM692 -20q-136 0 -245.5 48t-187 136.5t-119 214.5 t-41.5 283q0 159 42.5 286t121 216.5t190.5 137.5t251 48q136 0 245.5 -48t187 -136.5t119 -214.5t41.5 -283q0 -159 -42 -286t-121 -216.5t-191 -137.5t-251 -48z" />
<glyph unicode="P" horiz-adv-x="1058" d="M179 0v1330h380q102 0 184.5 -27t140 -78t88.5 -123.5t31 -163.5q0 -96 -31.5 -171.5t-90.5 -128t-143 -80t-189 -27.5h-228v-531h-142zM321 1217v-572h238q69 0 123.5 18.5t92.5 54t58 87t20 117.5q0 143 -77 219t-227 76h-228z" />
<glyph unicode="Q" horiz-adv-x="1405" d="M692 -20q-135 0 -244.5 50.5t-187 141t-119.5 215.5t-42 275t43.5 276t123 217.5t191 143t247.5 51.5q135 0 244.5 -50.5t187 -140.5t119.5 -215.5t42 -275.5q0 -107 -22 -202t-64 -174.5t-102 -141.5t-135 -102q45 -82 99 -146t119 -108.5t142.5 -67.5t169.5 -23 q35 0 73.5 3t76.5 10l13 -116q-48 -8 -93.5 -12t-88.5 -4q-110 0 -203.5 28.5t-172 82.5t-143.5 131.5t-116 174.5q-75 -21 -158 -21zM705 100q90 0 170 37t140.5 107.5t95.5 173.5t35 235q0 134 -34.5 241t-95.5 181.5t-144.5 114.5t-180.5 40q-90 0 -170 -37t-140.5 -108 t-95.5 -173.5t-35 -234.5q0 -134 34.5 -241t95.5 -181.5t144 -114.5t181 -40z" />
<glyph unicode="R" horiz-adv-x="1115" d="M179 0v1330h399q101 0 183.5 -26t140.5 -75t89.5 -119.5t31.5 -159.5q0 -65 -23.5 -123.5t-63.5 -107t-93 -85t-111 -56.5l308 -578h-152l-288 553h-279v-553h-142zM321 1217v-552h340q45 13 83.5 38t67 60.5t44.5 79t16 92.5q0 134 -78.5 208t-224.5 74h-248z" />
<glyph unicode="S" horiz-adv-x="1002" d="M129 183q60 -31 144 -55.5t187 -24.5q70 0 126 15.5t95 44t60 69t21 90.5q0 46 -14 83t-44.5 68.5t-80 60t-121.5 57.5l-137 57q-63 26 -112 59t-83.5 75.5t-52.5 95.5t-18 119q0 80 34 145.5t92.5 111.5t135.5 71t164 25q98 0 180.5 -22t142.5 -49l-35 -112 q-27 11 -61 21.5t-72 19t-79 14t-82 5.5q-62 0 -112.5 -16t-86.5 -44.5t-56.5 -69t-20.5 -88.5q0 -47 11.5 -83.5t38 -66.5t69.5 -55.5t106 -51.5l143 -61q145 -63 221 -149t76 -210q0 -82 -31 -147.5t-89.5 -111t-142.5 -69.5t-189 -24q-59 0 -113.5 8t-102 21t-86 29.5 t-65.5 33.5z" />
<glyph unicode="T" horiz-adv-x="996" d="M34 1330h927v-116h-392v-1214h-142v1214h-393v116z" />
<glyph unicode="U" horiz-adv-x="1255" d="M286 524q0 -103 23.5 -181.5t68 -132t108.5 -80.5t146 -27q78 0 140 26.5t105.5 77.5t67 125.5t23.5 169.5v828h142v-814q0 -126 -33.5 -225.5t-96.5 -168.5t-154 -105.5t-206 -36.5q-111 0 -199.5 35.5t-150 103.5t-94 166.5t-32.5 224.5v820h142v-806z" />
<glyph unicode="V" horiz-adv-x="1229" d="M1194 1330l-505 -1330h-149l-506 1330h152l429 -1164l427 1164h152z" />
<glyph unicode="W" horiz-adv-x="1947" d="M1892 1330l-419 -1330h-162l-338 1084l-337 -1084h-162l-420 1330h157l344 -1163l350 1133h136l351 -1133l343 1163h157z" />
<glyph unicode="X" horiz-adv-x="1265" d="M1210 0h-165l-413 575l-409 -575h-169l492 678l-443 652h163l366 -548l369 548h162l-444 -652z" />
<glyph unicode="Y" horiz-adv-x="1099" d="M478 515l-444 815h152l365 -685l364 685h150l-444 -815v-515h-143v515z" />
<glyph unicode="Z" horiz-adv-x="1055" d="M786 1214h-660v116h823v-107l-703 -1107h744v-116h-906v107z" />
<glyph unicode="[" horiz-adv-x="630" d="M564 -272l-383 -7v1884h383v-109l-247 -5v-1654h247v-109z" />
<glyph unicode="\" horiz-adv-x="830" d="M92 1585l774 -1835h-136l-774 1835h136z" />
<glyph unicode="]" horiz-adv-x="630" d="M34 1598l383 7v-1884h-383v109l247 5v1654h-247v109z" />
<glyph unicode="^" horiz-adv-x="1089" d="M114 795l365 685h131l364 -685h-144l-286 549l-285 -549h-145z" />
<glyph unicode="_" horiz-adv-x="1198" d="M181 -77h836v-115h-836v115z" />
<glyph unicode="`" horiz-adv-x="697" d="M544 1209l-428 155l57 127l408 -198z" />
<glyph unicode="a" horiz-adv-x="996" d="M812 185q0 -51 19.5 -73t52.5 -22q20 0 34.5 4t22.5 8l14 -99q-14 -8 -42 -15.5t-61 -7.5q-36 0 -63.5 11.5t-48 31.5t-33 47.5t-16.5 59.5q-63 -72 -141.5 -111t-163.5 -39q-63 0 -117 19.5t-94 55.5t-63 86t-23 110q0 70 26 122.5t71 89.5t105 58.5t128 30.5 q63 9 127 8.5t126 -7.5v117q0 59 -12.5 105.5t-40 79t-72 49.5t-107.5 17q-41 0 -79.5 -6.5t-72.5 -16t-62 -20.5t-47 -21l-40 101q20 12 52 27t73.5 28t90.5 22t102 9q87 0 153 -24.5t111 -70t68 -110.5t23 -147v-507zM234 268q0 -77 49.5 -123t137.5 -46q72 1 137 36.5 t114 94.5v226q-44 5 -96 7t-107 -4q-48 -6 -90.5 -19t-75 -35.5t-51 -56.5t-18.5 -80z" />
<glyph unicode="b" horiz-adv-x="1151" d="M319 1480v-507q66 35 133 53t132 18q103 0 189 -38t148 -107t96 -165.5t34 -213.5q0 -125 -35.5 -225t-101.5 -170t-161 -107.5t-213 -37.5q-44 0 -94 8.5t-98.5 22.5t-92.5 33.5t-76 41.5v1374zM903 504q0 94 -24 171t-69 132t-108 84.5t-141 29.5q-62 0 -123.5 -16 t-118.5 -48v-706q108 -48 227 -48q85 0 151 27t112 78t70 125.5t24 170.5z" />
<glyph unicode="c" horiz-adv-x="930" d="M248 520q0 -97 24.5 -174.5t71 -131.5t114.5 -82.5t154 -28.5q54 0 109.5 11.5t106.5 31.5l37 -103q-26 -14 -58.5 -25.5t-68 -20t-72.5 -13t-73 -4.5q-111 0 -202 38t-156 106.5t-100.5 164.5t-35.5 213q0 122 36.5 222t103.5 171t160 110t206 39q73 0 136.5 -18.5 t105.5 -41.5l-43 -102q-40 15 -90 27t-115 12q-80 0 -145 -28t-110.5 -80.5t-70.5 -126.5t-25 -166z" />
<glyph unicode="d" horiz-adv-x="1165" d="M882 0l-19 128q-68 -72 -154 -110t-172 -38q-100 0 -181 37.5t-138 106.5t-88 165t-31 213q0 120 38.5 219.5t106 171t159 111.5t198.5 40q55 0 121 -16.5t124 -46.5v479l140 20v-1480h-104zM846 859q-54 29 -119 45.5t-136 16.5q-76 0 -139 -29.5t-108.5 -83 t-70.5 -127.5t-25 -162q0 -96 21.5 -173t62.5 -131t99.5 -83t132.5 -29q43 0 84.5 10.5t78 29t67.5 43t52 52.5v621z" />
<glyph unicode="e" horiz-adv-x="1034" d="M249 484q2 -90 26 -161t69 -119.5t110.5 -74.5t150.5 -26q32 0 66 3.5t67 9.5t62.5 14t53.5 17l34 -107q-26 -12 -60 -22.5t-74 -19t-82.5 -13.5t-84.5 -5q-112 0 -202 38t-153.5 107t-98 165t-34.5 213q0 122 33 221.5t94.5 170.5t148.5 110t195 39q87 0 154.5 -25.5 t114 -73.5t71 -117.5t24.5 -156.5q0 -28 -3 -55.5t-8 -52t-10.5 -45t-9.5 -34.5h-654zM553 928q-68 0 -122 -25t-93 -70t-61.5 -108t-26.5 -139h534q12 36 10 94q-1 124 -65 186t-176 62z" />
<glyph unicode="f" horiz-adv-x="648" d="M341 1024h267v-115h-260v-909h-140v909h-174v99l179 11v129q0 74 24.5 135t68.5 105t106.5 68t138.5 24q51 0 94.5 -10.5t67.5 -18.5l-26 -109q-23 6 -60.5 12.5t-80.5 6.5q-103 0 -154 -58t-51 -171v-108z" />
<glyph unicode="g" horiz-adv-x="1035" d="M457 326q-14 0 -26.5 1t-23.5 3q-17 -12 -32.5 -26.5t-27.5 -30.5t-19.5 -32.5t-7.5 -32.5q-1 -38 25.5 -59.5t80.5 -21.5h206q68 0 127 -18t103 -51.5t69.5 -83t25.5 -112.5q0 -66 -34 -121t-96 -94t-148 -61t-190 -22q-95 0 -170.5 16t-128 47t-80 76t-27.5 102 q0 40 16 76.5t42.5 67.5t60.5 56t70 42q-13 7 -26.5 18t-25 27t-19 36t-7.5 46q0 50 35 95.5t86 80.5q-103 36 -161 121t-58 209q0 82 28 149t78.5 115t119 74t149.5 26q67 0 125.5 -20.5t106.5 -57.5q53 45 124 64.5t144 7.5v-118q-46 8 -100.5 1.5t-99.5 -28.5 q29 -42 45 -93t16 -110q0 -82 -28 -149t-78.5 -115t-119 -74t-149.5 -26zM464 432q50 0 93 18t74.5 50t49 77.5t17.5 99.5q0 63 -17.5 111.5t-48.5 81.5t-74 50.5t-94 17.5q-50 0 -93 -18t-74.5 -50.5t-49 -77.5t-17.5 -99q0 -63 17.5 -111.5t48.5 -81.5t74 -50.5t94 -17.5z M514 -323q67 0 122.5 12t95.5 34.5t62.5 54.5t22.5 71q0 75 -54 114.5t-166 39.5h-240q-26 -11 -50.5 -28t-43.5 -38.5t-31 -47t-12 -53.5q0 -78 76.5 -118.5t217.5 -40.5z" />
<glyph unicode="h" horiz-adv-x="1147" d="M319 1480v-580q77 64 166.5 104t180.5 40q158 0 237 -95.5t79 -274.5v-674h-140v652q0 266 -218 266q-36 0 -77 -10.5t-81.5 -29t-78.5 -43t-68 -52.5v-783h-140v1460z" />
<glyph unicode="i" horiz-adv-x="499" d="M319 1024v-1024h-140v1024h140zM150 1345q0 45 29.5 74.5t74.5 29.5q19 0 36 -7.5t30 -20.5t20.5 -30.5t7.5 -36.5q0 -23 -8 -42t-22 -33t-32.5 -22t-40.5 -8q-19 0 -36.5 7.5t-30.5 21t-20.5 30.5t-7.5 37z" />
<glyph unicode="j" horiz-adv-x="498" d="M179 1024h140v-1073q0 -98 -20.5 -167.5t-61.5 -113.5t-102 -65t-143 -21q-10 0 -22.5 0.5t-24.5 2t-22.5 2.5t-17.5 3l15 117q6 -2 16 -3t21 -2q16 0 31 1t29 3q85 7 123.5 60t38.5 167v1089zM150 1345q0 45 29.5 74.5t74.5 29.5q19 0 36 -7.5t30 -20.5t20.5 -30.5 t7.5 -36.5q0 -23 -8 -42t-22 -33t-32.5 -22t-40.5 -8q-19 0 -36.5 7.5t-30.5 21t-20.5 30.5t-7.5 37z" />
<glyph unicode="k" horiz-adv-x="1047" d="M319 1480v-1035l459 579h163l-343 -430l384 -594h-162l-321 499l-180 -221v-278h-140v1460z" />
<glyph unicode="l" horiz-adv-x="499" d="M319 1480v-1480h-140v1460z" />
<glyph unicode="m" horiz-adv-x="1768" d="M290 1024l16 -134q38 34 80.5 62t87 48.5t90.5 32t92 11.5q100 0 167 -43t102 -124q100 88 194.5 127.5t178.5 39.5q152 0 229 -95.5t77 -274.5v-674h-140v652q0 266 -208 266q-65 0 -143 -35.5t-151 -97.5v-785h-140v652q0 266 -208 266q-35 0 -74.5 -10.5t-78.5 -29 t-75.5 -43t-66.5 -52.5v-783h-140v1024h111z" />
<glyph unicode="n" horiz-adv-x="1147" d="M290 1024l16 -134q39 34 83 62t89.5 48.5t93 32t94.5 11.5q158 0 237 -95.5t79 -274.5v-674h-140v652q0 266 -218 266q-36 0 -77 -10.5t-81.5 -29t-78.5 -43t-68 -52.5v-783h-140v1024h111z" />
<glyph unicode="o" horiz-adv-x="1138" d="M563 -20q-104 0 -189 38t-146.5 107t-95 165.5t-33.5 213.5q0 121 34.5 221t97 170.5t150 109.5t194.5 39q103 0 188.5 -38t147 -107t95 -165t33.5 -213q0 -122 -34.5 -221.5t-97 -170.5t-150 -110t-194.5 -39zM575 96q72 0 130 28.5t99 82t63.5 129t22.5 168.5 q0 98 -22.5 176.5t-65 133.5t-103 84.5t-136.5 29.5q-72 0 -130 -29t-99 -82t-63.5 -128t-22.5 -168q0 -99 22.5 -177.5t65 -133.5t103 -84.5t136.5 -29.5z" />
<glyph unicode="p" horiz-adv-x="1165" d="M283 1024l19 -128q69 71 154.5 109.5t171.5 38.5q100 0 181 -37.5t138 -106.5t88 -165.5t31 -214.5q0 -119 -38.5 -218.5t-106 -171t-159 -111t-198.5 -39.5q-55 0 -121 16.5t-124 46.5v-439h-140v1420h104zM319 165q54 -29 119 -45.5t136 -16.5q76 0 139 29.5t108.5 83 t70.5 127t25 161.5q0 96 -21.5 173t-62.5 131.5t-99.5 83.5t-132.5 29q-43 0 -84.5 -10.5t-78 -29t-67.5 -43t-52 -52.5v-621z" />
<glyph unicode="q" horiz-adv-x="1151" d="M831 -396v446q-132 -70 -265 -70q-104 0 -189.5 38t-147.5 106.5t-96 164.5t-34 213q0 126 35.5 226t102 170.5t161 108t213.5 37.5q45 0 95.5 -7.5t98.5 -20.5t91 -30.5t75 -36.5v-1345h-140zM248 519q0 -94 24 -171t69 -131.5t108 -84t141 -29.5q62 0 123.5 16 t117.5 48v709q-48 20 -106 32.5t-121 12.5q-84 0 -150.5 -27t-112 -78t-69.5 -126t-24 -171z" />
<glyph unicode="r" horiz-adv-x="699" d="M283 1024l23 -150q24 28 61.5 56.5t82.5 52.5t95 40.5t99 20.5v-143q-47 -4 -94 -16t-90 -29.5t-79 -39.5t-62 -46v-770h-139q0 257 -0.5 512t-0.5 512h104z" />
<glyph unicode="s" horiz-adv-x="833" d="M125 167q20 -10 49 -21.5t64.5 -21t77 -16t86.5 -6.5q48 0 87 9t67.5 27t44 45.5t15.5 65.5q0 35 -12.5 62.5t-38.5 50.5t-66.5 44t-96.5 44l-87 34q-104 40 -161 107t-57 169q0 67 27.5 119.5t74.5 89t108.5 56t130.5 19.5q48 0 91 -6.5t78.5 -15.5t62 -19t43.5 -18 l-35 -115q-17 7 -42 16t-56 16.5t-67.5 13t-77.5 5.5q-91 0 -146.5 -40t-55.5 -112q0 -29 8 -53.5t29 -46.5t58 -43.5t96 -44.5l88 -35q58 -23 102.5 -51t75.5 -63t47 -78.5t16 -97.5q0 -63 -23 -114t-68 -87t-111 -55.5t-151 -19.5q-106 0 -186 22.5t-130 51.5z" />
<glyph unicode="t" horiz-adv-x="752" d="M343 1024h313v-115h-307v-616q0 -103 43 -148.5t139 -45.5q15 0 32.5 1.5t35.5 4t34 6t28 7.5l27 -109q-17 -6 -39.5 -11.5t-47 -9t-49 -6t-45.5 -2.5q-145 0 -222 73t-77 216v640h-174v99l182 10l4 233l123 19v-246z" />
<glyph unicode="u" horiz-adv-x="1125" d="M835 0l-17 134q-38 -34 -80.5 -62t-87.5 -48.5t-91 -32t-92 -11.5q-154 0 -231 95.5t-77 274.5v674h141v-652q0 -266 209 -266q35 0 74.5 10.5t79 29t76 43t66.5 52.5v783h140v-1024h-110z" />
<glyph unicode="v" horiz-adv-x="1028" d="M994 1024l-415 -1024h-130l-415 1024h149l331 -854l331 854h149z" />
<glyph unicode="w" horiz-adv-x="1605" d="M1550 1024l-334 -1024h-148l-266 813l-267 -813h-148l-333 1024h144l265 -867l278 857h123l278 -857l264 867h144z" />
<glyph unicode="x" horiz-adv-x="996" d="M961 0h-164l-299 425l-299 -425h-165l381 522l-343 502h163l263 -401l263 401h163l-343 -502z" />
<glyph unicode="y" horiz-adv-x="1023" d="M988 1024l-369 -1000q-46 -124 -89.5 -208t-93.5 -135.5t-110 -74t-138 -22.5q-55 0 -98.5 13.5t-62.5 22.5l34 107q17 -6 50.5 -14.5t76.5 -8.5q49 0 87.5 15t70.5 48t60 86t55 128l-436 1043h149l357 -890l309 890h148z" />
<glyph unicode="z" horiz-adv-x="959" d="M663 910h-514v114h675v-106l-560 -804h590v-114h-750v105z" />
<glyph unicode="{" horiz-adv-x="654" d="M289 1370q0 -53 23 -98t49 -83q22 -33 44.5 -65.5t41 -66t30.5 -70t12 -77.5q0 -44 -14 -83t-38 -71t-57.5 -56t-72.5 -37q39 -13 72.5 -36t57.5 -53t38 -64.5t14 -70.5q0 -47 -12 -87t-30.5 -76t-41 -68.5t-44.5 -64.5q-13 -19 -25.5 -39t-23 -41t-17 -43t-6.5 -45 q0 -34 12 -62.5t34 -49.5t53.5 -32.5t70.5 -11.5q32 0 62.5 4.5t55.5 12.5l26 -107q-23 -9 -64.5 -17t-95.5 -8q-63 0 -115 20.5t-89.5 55.5t-58 82.5t-20.5 100.5q0 39 9.5 73.5t25.5 66.5t35.5 62t40.5 60q34 49 60.5 97t26.5 100q0 35 -13 68t-40 59t-69 41.5t-100 15.5 h-20v116h26q55 0 96 15.5t67.5 40t39.5 55t13 59.5q0 57 -27 108t-61 101q-20 30 -40 59.5t-35.5 60t-25 62t-9.5 66.5q0 60 20.5 110.5t59.5 87t94.5 57.5t124.5 21q42 0 81 -8.5t62 -17.5l-26 -107q-25 8 -57.5 13t-75.5 5q-34 0 -62 -11.5t-48.5 -31t-32 -45t-11.5 -52.5 z" />
<glyph unicode="|" horiz-adv-x="497" d="M316 1523v-2022h-135v2022h135z" />
<glyph unicode="}" horiz-adv-x="654" d="M332 -30q0 25 -6.5 48t-16.5 44.5t-22.5 41.5t-25.5 39q-22 32 -44.5 64.5t-41 67.5t-30.5 73.5t-12 82.5q0 39 13.5 75.5t38 67t57.5 54t72 36.5q-39 13 -72 36.5t-57.5 54.5t-38 68.5t-13.5 77.5q0 44 11.5 82.5t30 73t41.5 67t45 65.5q13 19 25.5 39.5t22.5 42.5 t16.5 45.5t6.5 48.5q0 29 -11.5 55.5t-32.5 46.5t-50 31.5t-64 11.5q-40 0 -72 -5t-57 -13l-26 107q23 9 63 17.5t86 8.5q67 0 121 -20.5t92.5 -57t59.5 -86t21 -107.5q0 -37 -9.5 -69.5t-25.5 -63.5t-35.5 -60.5t-40.5 -59.5q-34 -51 -60.5 -101t-26.5 -105q0 -30 13 -61 t39.5 -56t67 -40.5t96.5 -15.5h26v-116h-20q-58 0 -100 -15.5t-69 -41t-40 -58.5t-13 -67q0 -53 26.5 -101.5t60.5 -97.5q21 -30 40.5 -60t35.5 -61.5t25.5 -65t9.5 -70.5q0 -55 -21 -103t-58.5 -84t-91 -56.5t-117.5 -20.5q-50 0 -91 8t-64 17l26 107q25 -8 56.5 -12.5 t66.5 -4.5q38 0 68.5 11.5t51.5 32t32.5 48t11.5 59.5z" />
<glyph unicode="~" horiz-adv-x="1070" d="M154 651q51 51 109.5 80.5t135.5 29.5q43 0 79.5 -12t70.5 -26.5t67 -26.5t71 -12q28 0 53.5 7.5t47.5 18.5t41 24.5t35 24.5l52 -80q-51 -51 -109.5 -80.5t-135.5 -29.5q-44 0 -80 12t-70 26.5t-67.5 26.5t-70.5 12q-28 0 -53.5 -7.5t-47.5 -19t-41 -24.5t-34 -24z" />
<glyph unicode="&#xa1;" horiz-adv-x="490" d="M162 -306l32 965h103l33 -965h-168zM146 940q0 45 29.5 74.5t74.5 29.5q19 0 36 -7.5t30 -20.5t20.5 -30.5t7.5 -36.5q0 -23 -8 -42t-22 -33.5t-32.5 -22.5t-40.5 -8q-19 0 -36.5 8t-30.5 21t-20.5 30.5t-7.5 37.5z" />
<glyph unicode="&#xa2;" horiz-adv-x="1185" d="M773 1445l-9 -252q60 -3 120 -19.5t111 -39.5l-46 -97q-43 15 -100 28.5t-122 13.5q-82 0 -152.5 -26t-122 -77.5t-80.5 -127.5t-29 -176t29 -178.5t83.5 -133t133 -83.5t178.5 -29q57 0 108 10.5t107 30.5l42 -99q-53 -25 -121.5 -40t-137.5 -18l9 -248h-132l8 253 q-110 14 -195 58t-143 112.5t-87.5 158t-29.5 194.5q0 106 31 197t89.5 161t143 114.5t191.5 57.5l-9 255h132z" />
<glyph unicode="&#xa3;" horiz-adv-x="1228" d="M191 735h137q-8 54 -14 108t-6 111q0 89 28 162t79 125t122.5 80.5t157.5 28.5q46 0 87.5 -7t76 -17.5t61.5 -22.5t45 -22l-45 -103q-23 8 -48 16.5t-53 16t-60.5 12t-69.5 4.5q-54 0 -97.5 -18.5t-74 -52.5t-47 -82t-16.5 -106q0 -60 7 -117.5t15 -115.5h372v-112h-357 q5 -35 7.5 -71t2.5 -73q0 -86 -14 -173t-47 -172q16 0 31 -1t29 -3q42 -3 80.5 -8.5t74.5 -11t71.5 -9.5t73.5 -4q36 0 63 10t47.5 28.5t35.5 43.5t27 54l93 -36q-10 -49 -34.5 -89t-60.5 -68.5t-82.5 -44t-100.5 -15.5q-46 0 -92 6t-93 13.5t-96 14t-100 6.5q-8 0 -17 -0.5 t-15 -1.5q-8 -9 -17 -17q-17 -15 -36 -28l-96 24l-22 99q17 8 43 16.5t54 14.5q31 87 43 173.5t12 164.5q0 40 -3.5 79.5t-8.5 78.5h-153v112z" />
<glyph unicode="&#xa4;" horiz-adv-x="1511" d="M1192 160l-195 167q-51 -32 -111.5 -49.5t-129.5 -17.5q-70 0 -131 17.5t-112 49.5l-193 -167l-74 60l164 202q-38 51 -58 112.5t-20 132.5t20.5 133t58.5 114l-165 205l74 61l195 -169q51 32 111.5 50t129.5 18t129.5 -18t111.5 -50l195 169l73 -61l-165 -204 q38 -51 58.5 -113t20.5 -132q0 -71 -20.5 -133.5t-58.5 -113.5l165 -203zM756 378q60 0 111.5 20.5t89.5 58.5t60 91t22 119q0 65 -22 119t-60 93t-89.5 60.5t-111.5 21.5q-59 0 -111 -21t-90 -59.5t-60 -92t-22 -118.5q0 -66 22 -119.5t60 -92t90 -59.5t111 -21z" />
<glyph unicode="&#xa5;" horiz-adv-x="1317" d="M227 853h216l-312 477h154l337 -527l37 -59l375 586h151l-314 -477h221v-111h-865v111zM247 590h824v-112h-342v-478h-142v478h-340v112z" />
<glyph unicode="&#xa6;" horiz-adv-x="497" d="M316 1523v-770h-135v770h135zM316 271v-770h-135v770h135z" />
<glyph unicode="&#xa7;" horiz-adv-x="908" d="M804 1301q-21 8 -50 17.5t-63 18t-71.5 14.5t-76.5 7q-30 -40 -48.5 -93t-19.5 -110q0 -73 20.5 -152t61.5 -175l131 -308q27 -66 53.5 -131t46.5 -129.5t32.5 -128.5t12.5 -128q0 -92 -33.5 -168.5t-94.5 -132.5t-145 -87t-185 -31q-52 0 -99 7t-87.5 18t-73 24.5 t-54.5 25.5l43 104q21 -8 50 -17.5t62.5 -18t71 -14.5t76.5 -7q31 40 49.5 93t19.5 110q1 73 -20 152t-62 175l-131 308q-27 66 -53.5 131t-46.5 129.5t-32.5 128.5t-12.5 128q0 91 33.5 168t94.5 133t145.5 87t185.5 31q52 0 99 -7t87 -18t72 -24.5t55 -25.5zM510 169 q51 -147 43 -256.5t-59 -187.5q96 27 148 97.5t52 170.5q0 60 -13 123.5t-33.5 128t-46.5 129t-53 126.5l-129 303q-32 75 -49 140t-22 124q-8 84 10.5 152.5t54.5 119.5q-96 -27 -147 -98t-51 -170q0 -63 14 -130.5t36.5 -136t50.5 -136t55 -131.5l118 -276q11 -26 16 -49 t5 -43z" />
<glyph unicode="&#xa8;" horiz-adv-x="818" d="M123 1345q0 45 29.5 74.5t74.5 29.5q19 0 36 -7.5t30 -20.5t20.5 -30.5t7.5 -36.5q0 -23 -8 -42t-22 -33t-32.5 -22t-40.5 -8q-19 0 -36.5 7.5t-30.5 21t-20.5 30.5t-7.5 37zM496 1345q0 45 29.5 74.5t74.5 29.5q19 0 36 -7.5t30 -20.5t21 -30.5t8 -36.5q0 -23 -8 -42 t-22 -33t-33 -22t-41 -8q-19 0 -36.5 7.5t-30.5 21t-20.5 30.5t-7.5 37z" />
<glyph unicode="&#xa9;" horiz-adv-x="1546" d="M104 658q0 96 24 185t67.5 165.5t104.5 139.5t135.5 108t160.5 69.5t180 24.5q136 0 256.5 -54t211.5 -146.5t144 -216t53 -263.5q0 -96 -24 -185t-68 -165.5t-106 -139t-137.5 -107t-163 -69t-181.5 -24.5q-89 0 -172.5 24t-156.5 68.5t-133.5 106.5t-103.5 137 t-67 161.5t-24 180.5zM217 670q0 -122 43.5 -228.5t119 -185.5t178 -124.5t219.5 -45.5q76 0 146 20.5t131.5 58t112 90t86.5 116t56 136.5t20 151q0 121 -44 228t-120.5 186.5t-180 125.5t-223.5 46q-111 0 -210 -46t-173.5 -124t-117.5 -182.5t-43 -221.5zM543 671 q0 -68 16.5 -122.5t48 -92.5t77 -58.5t104.5 -20.5q38 0 82.5 8.5t88.5 28.5l33 -89q-42 -26 -101.5 -40t-117.5 -14q-80 0 -146.5 28t-114 78.5t-73.5 122t-26 158.5q0 90 27 163.5t76 126t117 81.5t150 29q58 0 109.5 -15.5t85.5 -36.5l-35 -88q-33 14 -74 24t-90 10 q-54 0 -98 -20.5t-75 -57t-47.5 -88.5t-16.5 -115z" />
<glyph unicode="&#xaa;" horiz-adv-x="625" d="M500 868q0 -41 36 -41q12 0 21 2t14 4l15 -79q-5 -4 -29 -13.5t-56 -9.5q-38 0 -66 18.5t-39 56.5q-28 -29 -65 -52t-92 -23q-39 0 -72 11t-57 31.5t-38.5 51t-15.5 69.5q-2 40 13.5 73t45 56.5t71 37.5t91.5 17q27 2 53.5 0.5t46.5 -3.5v51q0 57 -24.5 89t-87.5 32 q-27 0 -52 -4.5t-45.5 -10.5t-36 -12t-24.5 -9l-29 88q10 6 30 14.5t46 17t58 14t67 5.5q115 0 168 -55.5t53 -149.5v-277zM177 904q2 -38 24.5 -57t59.5 -19q35 0 64.5 16t51.5 40v108q-14 2 -36.5 3.5t-52.5 -1.5q-53 -5 -82.5 -27t-28.5 -63z" />
<glyph unicode="&#xab;" horiz-adv-x="1126" d="M588 878q-59 -90 -140.5 -184t-172.5 -182q91 -88 173 -182t140 -184l-103 -75q-39 54 -83.5 112t-92.5 115t-97 111.5t-96 102.5q48 48 97 102.5t96.5 111.5t92 115t83.5 113zM975 836q-54 -85 -120 -164t-147 -160q81 -81 147 -160.5t120 -162.5l-103 -76 q-72 104 -151 205.5t-170 193.5q91 93 170 193t151 206z" />
<glyph unicode="&#xac;" horiz-adv-x="1226" d="M194 722h838v-433h-126v318h-712v115z" />
<glyph unicode="&#xad;" horiz-adv-x="888" d="M181 590h526v-115h-526v115z" />
<glyph unicode="&#xae;" horiz-adv-x="1546" d="M104 658q0 96 24 185t67.5 165.5t104.5 139.5t135.5 108t160.5 69.5t180 24.5q136 0 256.5 -54t211.5 -146.5t144 -216t53 -263.5q0 -96 -24 -185t-68 -165.5t-106 -139t-137.5 -107t-163 -69t-181.5 -24.5q-89 0 -172.5 24t-156.5 68.5t-133.5 106.5t-103.5 137 t-67 161.5t-24 180.5zM217 670q0 -122 43.5 -228.5t119 -185.5t178 -124.5t219.5 -45.5q76 0 146 20.5t131.5 58t112 90t86.5 116t56 136.5t20 151q0 121 -44 228t-120.5 186.5t-180 125.5t-223.5 46q-111 0 -210 -46t-173.5 -124t-117.5 -182.5t-43 -221.5zM529 276v768 h232q60 0 108.5 -15.5t83.5 -44.5t54 -71t19 -96q0 -36 -12 -69t-32.5 -60.5t-48 -49t-58.5 -33.5l174 -329h-124l-158 306h-123v-306h-115zM644 672h168q19 7 36 20t30 31t21 40t8 46q0 69 -38.5 106.5t-110.5 37.5h-114v-281z" />
<glyph unicode="&#xaf;" horiz-adv-x="756" d="M116 1404h524v-107h-524v107z" />
<glyph unicode="&#xb0;" horiz-adv-x="676" d="M333 819q-59 0 -108.5 21t-85 56.5t-55.5 82.5t-20 99q0 56 20 105.5t56.5 86.5t88 58.5t115.5 21.5q59 0 108.5 -21t85 -56.5t55 -83t19.5 -99.5q0 -56 -19.5 -105.5t-56 -86.5t-88 -58t-115.5 -21zM344 926q33 0 59.5 12.5t45 33t28.5 48t10 57.5q0 34 -10 64.5 t-29.5 53t-48.5 35.5t-67 13q-33 0 -59.5 -12.5t-45 -33.5t-28.5 -48.5t-10 -57.5q0 -34 10 -64t29.5 -52.5t48.5 -35.5t67 -13z" />
<glyph unicode="&#xb1;" horiz-adv-x="1160" d="M643 1212v-338h322v-115h-322v-336h-128v336h-321v115h321v338h128zM215 184h729v-115h-729v115z" />
<glyph unicode="&#xb2;" horiz-adv-x="560" d="M63 839q71 50 124 91.5t88 78.5t52.5 71t17.5 69q0 49 -29 74t-79 25q-25 0 -48 -5t-41.5 -12t-32 -13t-18.5 -9l-37 85q6 4 22.5 13t41.5 18.5t56.5 17t66.5 7.5q55 0 95 -16.5t66.5 -44t39 -63t12.5 -73.5q0 -45 -16 -85t-46 -77t-72.5 -72t-94.5 -70h259v-98h-427v88z " />
<glyph unicode="&#xb3;" horiz-adv-x="523" d="M310 1170q0 40 -30.5 60.5t-78.5 20.5q-38 0 -71 -8t-53 -16l-31 85q17 10 59 24t99 14q97 0 150.5 -41t64.5 -102q2 -10 2.5 -19.5t-1.5 -20.5q-1 -23 -8.5 -41t-18 -32t-23 -24t-23.5 -16q15 -5 31.5 -15.5t30.5 -27.5t23 -40.5t9 -53.5q0 -90 -62 -138t-171 -48 q-58 0 -102 12.5t-66 24.5l31 88q20 -8 57 -17.5t88 -9.5q53 0 83.5 21t30.5 65q0 42 -29.5 65.5t-88.5 23.5h-77v86h132q14 10 28.5 29t14.5 51z" />
<glyph unicode="&#xb4;" horiz-adv-x="705" d="M116 1291l431 208l56 -127l-450 -164z" />
<glyph unicode="&#xb6;" horiz-adv-x="1117" d="M499 -296q101 0 147 53.5t46 177.5v1279h-128v-703q-98 0 -180.5 26.5t-143.5 78.5t-95 128.5t-34 175.5q0 121 44.5 200.5t121.5 126t180 65t220 18.5h293v-116h-136v-1263q0 -97 -21 -166.5t-63 -114t-105 -65.5t-146 -21q-19 0 -43 2.5t-37 5.5l15 117q12 -2 30 -3.5 t35 -1.5z" />
<glyph unicode="&#xb7;" horiz-adv-x="430" d="M116 508q0 45 29.5 74.5t74.5 29.5q19 0 36 -7.5t30 -20.5t20.5 -30.5t7.5 -36.5q0 -46 -29.5 -76t-73.5 -30q-19 0 -36.5 7.5t-30.5 21t-20.5 31t-7.5 37.5z" />
<glyph unicode="&#xb8;" horiz-adv-x="510" d="M126 -336q8 -2 22.5 -4.5t31.5 -3.5q9 -1 17.5 -0.5t16.5 0.5q40 2 57 24.5t17 48.5q0 32 -20.5 53.5t-62.5 21.5h-60l8 83h76q76 0 121.5 -37t45.5 -109q0 -81 -52 -126t-152 -45q-23 0 -45.5 4t-34.5 9z" />
<glyph unicode="&#xb9;" horiz-adv-x="511" d="M216 851v387q-16 -2 -36.5 -5t-41 -5.5t-39.5 -4.5t-32 -3l-12 87q64 9 134 20.5t130 22.5h13v-499l131 -4v-96h-400v96z" />
<glyph unicode="&#xba;" horiz-adv-x="685" d="M336 731q-63 0 -114 24t-87 65t-55.5 96.5t-19.5 117.5q0 67 19.5 125t56.5 100.5t91 66.5t122 24q64 0 115 -24t87 -65.5t55 -96.5t19 -118q0 -67 -19.5 -124.5t-56.5 -100t-90.5 -66.5t-122.5 -24zM350 838q38 0 66.5 15.5t47.5 42.5t28.5 62.5t9.5 75.5q0 44 -10 82 t-30 66.5t-51.5 44.5t-74.5 16q-38 0 -66.5 -16t-48 -43t-29 -63t-9.5 -75q0 -44 10 -81.5t30.5 -66t52 -44.5t74.5 -16z" />
<glyph unicode="&#xbb;" horiz-adv-x="1126" d="M507 147q58 89 139.5 183.5t172.5 182.5q-91 88 -172.5 181.5t-139.5 184.5l103 75q38 -54 82.5 -112t92.5 -115.5t97 -112t96 -101.5q-48 -48 -97 -103t-96.5 -112t-92 -114.5t-82.5 -112.5zM119 189q54 84 120 163.5t147 160.5q-81 81 -147 160t-120 163l103 75 q72 -104 151 -205t170 -193q-91 -94 -170 -194t-151 -205z" />
<glyph unicode="&#xbf;" horiz-adv-x="799" d="M568 569q0 -47 -15.5 -87t-41.5 -76.5t-61 -72.5t-75 -74q-26 -26 -51.5 -54.5t-45.5 -59.5t-32.5 -64t-12.5 -69q0 -57 19.5 -97.5t53 -66.5t78 -38t94.5 -12q45 0 81.5 6.5t65.5 15.5t50 19t34 16l46 -98q-20 -12 -48.5 -26.5t-66 -27t-82.5 -21t-97 -8.5 q-77 0 -145.5 22t-120 63.5t-81.5 100t-30 131.5q0 56 17.5 103.5t44.5 88.5t61 76.5t67 67.5q32 31 62 59t53 56.5t37.5 59t16.5 65.5q2 29 -1 47.5t-5 32.5l117 14q3 -7 5.5 -18t4.5 -24t3 -26t1 -24zM378 940q0 45 29.5 74.5t74.5 29.5q19 0 36.5 -7.5t30.5 -20.5 t20.5 -30.5t7.5 -36.5q0 -23 -8 -42t-22 -33.5t-33 -22.5t-41 -8q-19 0 -36.5 8t-30.5 21t-20.5 30.5t-7.5 37.5z" />
<glyph unicode="&#xc0;" horiz-adv-x="1229" d="M908 361h-587l-135 -361h-152l514 1330h133l513 -1330h-152zM363 477h502l-250 694zM792 1509l-429 155l58 127l407 -198z" />
<glyph unicode="&#xc1;" horiz-adv-x="1229" d="M908 361h-587l-135 -361h-152l514 1330h133l513 -1330h-152zM363 477h502l-250 694zM402 1591l431 208l56 -127l-450 -164z" />
<glyph unicode="&#xc2;" horiz-adv-x="1229" d="M908 361h-587l-135 -361h-152l514 1330h133l513 -1330h-152zM363 477h502l-250 694zM831 1483q-26 17 -55 38t-58.5 43t-56 43.5t-47.5 39.5q-21 -18 -47.5 -39.5t-55 -43.5t-58 -43t-55.5 -38l-68 96q61 38 134.5 89t149.5 111q77 -60 150 -111t134 -89z" />
<glyph unicode="&#xc3;" horiz-adv-x="1229" d="M908 361h-587l-135 -361h-152l514 1330h133l513 -1330h-152zM363 477h502l-250 694zM320 1625q30 52 80.5 85t113.5 33q30 0 58.5 -10t55.5 -22.5t52.5 -22.5t49.5 -10q20 0 36.5 7t30 17t23.5 21t18 20l73 -68q-34 -56 -82 -87t-111 -31q-30 0 -57 10.5t-53 22.5 t-52 22.5t-53 10.5q-20 0 -37 -7t-31 -17.5t-24.5 -21.5t-16.5 -20z" />
<glyph unicode="&#xc4;" horiz-adv-x="1229" d="M908 361h-587l-135 -361h-152l514 1330h133l513 -1330h-152zM363 477h502l-250 694zM321 1645q0 45 29.5 74.5t74.5 29.5q19 0 36 -7.5t30 -20.5t21 -30.5t8 -36.5q0 -23 -8 -42t-22 -33t-33 -22t-41 -8q-19 0 -36.5 7.5t-30.5 21t-20.5 30.5t-7.5 37zM709 1645 q0 45 29.5 74.5t73.5 29.5q19 0 36.5 -7.5t30.5 -20.5t20.5 -30.5t7.5 -36.5q0 -23 -8 -42t-22 -33t-33 -22t-41 -8q-19 0 -36 7.5t-30 21t-20.5 30.5t-7.5 37z" />
<glyph unicode="&#xc5;" horiz-adv-x="1229" d="M908 361h-587l-135 -361h-152l514 1330h133l513 -1330h-152zM363 477h502l-250 694zM412 1646q0 43 15.5 81t43.5 66t66 44t82 16q40 0 76 -15.5t63 -42.5t43 -63t16 -76q0 -44 -16 -82t-43.5 -66t-65.5 -44t-83 -16q-39 0 -74.5 15.5t-63 42.5t-43.5 63t-16 77z M510 1650q0 -22 8.5 -41t22.5 -33.5t33 -23t39 -8.5q23 0 42.5 8.5t33.5 23.5t22 34.5t8 41.5t-8.5 41t-23 33t-33 22t-38.5 8q-23 0 -42 -8.5t-33.5 -23t-22.5 -33.5t-8 -41z" />
<glyph unicode="&#xc6;" horiz-adv-x="1814" d="M1689 1331v-116h-544v-487h524v-116h-524v-496h565v-116h-707v368h-546l-264 -368h-159l963 1331h692zM539 484h464v652z" />
<glyph unicode="&#xc7;" horiz-adv-x="1126" d="M99 662q0 151 44.5 277t127.5 217.5t202 142.5t269 51q38 0 76.5 -5.5t74.5 -14.5t68.5 -20.5t58.5 -23.5l-36 -108q-48 19 -109.5 34t-135.5 15q-109 0 -199 -36.5t-154.5 -106t-100 -171.5t-35.5 -234t34.5 -238.5t101 -181.5t164.5 -115.5t225 -40.5q71 0 137 15.5 t111 34.5l38 -107q-29 -15 -64 -27t-74.5 -20.5t-81.5 -13.5t-83 -5q-155 0 -277.5 49.5t-207 139t-129.5 215t-45 278.5zM558 -336q8 -2 22.5 -4.5t31.5 -3.5q9 -1 17.5 -0.5t16.5 0.5q40 2 56.5 24.5t16.5 48.5q0 32 -20 53.5t-62 21.5h-60l8 83h76q75 0 121 -37t46 -109 q0 -81 -52.5 -126t-152.5 -45q-23 0 -45 4t-35 9z" />
<glyph unicode="&#xc8;" horiz-adv-x="1046" d="M917 1214h-596v-486h575v-116h-575v-496h616v-116h-758v1330h738v-116zM741 1509l-428 155l57 127l408 -198z" />
<glyph unicode="&#xc9;" horiz-adv-x="1046" d="M917 1214h-596v-486h575v-116h-575v-496h616v-116h-758v1330h738v-116zM354 1591l431 208l57 -127l-451 -164z" />
<glyph unicode="&#xca;" horiz-adv-x="1046" d="M917 1214h-596v-486h575v-116h-575v-496h616v-116h-758v1330h738v-116zM780 1483q-26 17 -55 38t-58 43t-56 43.5t-48 39.5q-21 -18 -47.5 -39.5t-55 -43.5t-58 -43t-55.5 -38l-68 96q62 38 135.5 89t148.5 111q77 -60 150 -111t134 -89z" />
<glyph unicode="&#xcb;" horiz-adv-x="1046" d="M917 1214h-596v-486h575v-116h-575v-496h616v-116h-758v1330h738v-116zM274 1645q0 45 29.5 74.5t74.5 29.5q19 0 36 -7.5t30 -20.5t21 -30.5t8 -36.5q0 -23 -8 -42t-22 -33t-33 -22t-41 -8q-19 0 -36.5 7.5t-30.5 21t-20.5 30.5t-7.5 37zM648 1645q0 45 29 74.5t74 29.5 q19 0 36.5 -7.5t30.5 -20.5t20.5 -30.5t7.5 -36.5q0 -23 -8 -42t-22 -33t-33 -22t-41 -8q-19 0 -36 7.5t-30 21t-20.5 30.5t-7.5 37z" />
<glyph unicode="&#xcc;" horiz-adv-x="500" d="M179 1330h142v-1330h-142v1330zM431 1509l-429 155l58 127l407 -198z" />
<glyph unicode="&#xcd;" horiz-adv-x="500" d="M179 1330h142v-1330h-142v1330zM36 1591l431 208l56 -127l-450 -164z" />
<glyph unicode="&#xce;" horiz-adv-x="500" d="M175 1330h141v-1330h-141v1330zM461 1483q-26 17 -55 38t-58 43t-55.5 43.5t-47.5 39.5q-21 -18 -47.5 -39.5t-55.5 -43.5t-58.5 -43t-55.5 -38l-67 96q61 38 134.5 89t149.5 111q76 -60 149.5 -111t134.5 -89z" />
<glyph unicode="&#xcf;" horiz-adv-x="500" d="M179 1330h142v-1330h-142v1330zM-23 1645q0 45 29.5 74.5t74.5 29.5q19 0 36 -7.5t30 -20.5t21 -30.5t8 -36.5q0 -23 -8 -42t-22 -33t-33 -22t-41 -8q-19 0 -36.5 7.5t-30.5 21t-20.5 30.5t-7.5 37zM324 1645q0 45 29.5 74.5t73.5 29.5q19 0 36.5 -7.5t30.5 -20.5 t20.5 -30.5t7.5 -36.5q0 -23 -8 -42t-22 -33t-33 -22t-41 -8q-19 0 -36 7.5t-30 21t-20.5 30.5t-7.5 37z" />
<glyph unicode="&#xd0;" horiz-adv-x="1273" d="M22 722h157v608h368q155 0 273.5 -49t198.5 -137t120.5 -209.5t40.5 -266.5q0 -150 -45 -273t-129 -211t-204.5 -136t-270.5 -48h-352v607h-157v115zM544 113q103 0 192 36t154.5 105t102.5 169.5t37 229.5q0 130 -32.5 234.5t-96 178t-156.5 112.5t-214 39h-212v-495 h388v-115h-388v-494h225z" />
<glyph unicode="&#xd1;" horiz-adv-x="1341" d="M318 1151v-1151h-139v1330h182l662 -1152v1152h138v-1330h-181zM376 1625q30 52 80.5 85t114.5 33q30 0 58 -10t55 -22.5t52.5 -22.5t49.5 -10q20 0 36.5 7t30 17t23.5 21t18 20l73 -68q-34 -56 -82 -87t-111 -31q-30 0 -57 10.5t-53 22.5t-52 22.5t-53 10.5 q-20 0 -37 -7t-31 -17.5t-24.5 -21.5t-16.5 -20z" />
<glyph unicode="&#xd2;" horiz-adv-x="1396" d="M705 100q101 0 182.5 38.5t139 110t88.5 174t31 230.5q0 134 -31.5 241t-90.5 181.5t-143 114.5t-190 40q-101 0 -182 -38.5t-139 -110.5t-89 -174.5t-31 -229.5q0 -134 31.5 -241t90.5 -181.5t143 -114.5t190 -40zM692 -20q-136 0 -245.5 48t-187 136.5t-119 214.5 t-41.5 283q0 159 42.5 286t121 216.5t190.5 137.5t251 48q136 0 245.5 -48t187 -136.5t119 -214.5t41.5 -283q0 -159 -42 -286t-121 -216.5t-191 -137.5t-251 -48zM875 1509l-429 155l57 127l408 -198z" />
<glyph unicode="&#xd3;" horiz-adv-x="1396" d="M705 100q101 0 182.5 38.5t139 110t88.5 174t31 230.5q0 134 -31.5 241t-90.5 181.5t-143 114.5t-190 40q-101 0 -182 -38.5t-139 -110.5t-89 -174.5t-31 -229.5q0 -134 31.5 -241t90.5 -181.5t143 -114.5t190 -40zM692 -20q-136 0 -245.5 48t-187 136.5t-119 214.5 t-41.5 283q0 159 42.5 286t121 216.5t190.5 137.5t251 48q136 0 245.5 -48t187 -136.5t119 -214.5t41.5 -283q0 -159 -42 -286t-121 -216.5t-191 -137.5t-251 -48zM464 1591l431 208l56 -127l-450 -164z" />
<glyph unicode="&#xd4;" horiz-adv-x="1396" d="M705 100q101 0 182.5 38.5t139 110t88.5 174t31 230.5q0 134 -31.5 241t-90.5 181.5t-143 114.5t-190 40q-101 0 -182 -38.5t-139 -110.5t-89 -174.5t-31 -229.5q0 -134 31.5 -241t90.5 -181.5t143 -114.5t190 -40zM692 -20q-136 0 -245.5 48t-187 136.5t-119 214.5 t-41.5 283q0 159 42.5 286t121 216.5t190.5 137.5t251 48q136 0 245.5 -48t187 -136.5t119 -214.5t41.5 -283q0 -159 -42 -286t-121 -216.5t-191 -137.5t-251 -48zM915 1483q-26 17 -55 38t-58 43t-55.5 43.5t-47.5 39.5q-21 -18 -47.5 -39.5t-55.5 -43.5t-58.5 -43 t-55.5 -38l-67 96q61 38 134.5 89t149.5 111q76 -60 149.5 -111t134.5 -89z" />
<glyph unicode="&#xd5;" horiz-adv-x="1396" d="M705 100q101 0 182.5 38.5t139 110t88.5 174t31 230.5q0 134 -31.5 241t-90.5 181.5t-143 114.5t-190 40q-101 0 -182 -38.5t-139 -110.5t-89 -174.5t-31 -229.5q0 -134 31.5 -241t90.5 -181.5t143 -114.5t190 -40zM692 -20q-136 0 -245.5 48t-187 136.5t-119 214.5 t-41.5 283q0 159 42.5 286t121 216.5t190.5 137.5t251 48q136 0 245.5 -48t187 -136.5t119 -214.5t41.5 -283q0 -159 -42 -286t-121 -216.5t-191 -137.5t-251 -48zM404 1625q30 52 80.5 85t114.5 33q30 0 58.5 -10t55.5 -22.5t52.5 -22.5t49.5 -10q20 0 36.5 7t29.5 17 t23 21t18 20l73 -68q-34 -56 -82 -87t-111 -31q-30 0 -57 10.5t-53 22.5t-52 22.5t-53 10.5q-19 0 -36 -7t-31 -17.5t-25 -21.5t-17 -20z" />
<glyph unicode="&#xd6;" horiz-adv-x="1396" d="M705 100q101 0 182.5 38.5t139 110t88.5 174t31 230.5q0 134 -31.5 241t-90.5 181.5t-143 114.5t-190 40q-101 0 -182 -38.5t-139 -110.5t-89 -174.5t-31 -229.5q0 -134 31.5 -241t90.5 -181.5t143 -114.5t190 -40zM692 -20q-136 0 -245.5 48t-187 136.5t-119 214.5 t-41.5 283q0 159 42.5 286t121 216.5t190.5 137.5t251 48q136 0 245.5 -48t187 -136.5t119 -214.5t41.5 -283q0 -159 -42 -286t-121 -216.5t-191 -137.5t-251 -48zM413 1645q0 45 29.5 74.5t74.5 29.5q19 0 36 -7.5t30 -20.5t21 -30.5t8 -36.5q0 -23 -8 -42t-22 -33t-33 -22 t-41 -8q-19 0 -36.5 7.5t-30.5 21t-20.5 30.5t-7.5 37zM787 1645q0 45 29.5 74.5t73.5 29.5q19 0 36.5 -7.5t30.5 -20.5t20.5 -30.5t7.5 -36.5q0 -23 -8 -42t-22 -33t-33 -22t-41 -8q-19 0 -36 7.5t-30 21t-20.5 30.5t-7.5 37z" />
<glyph unicode="&#xd7;" horiz-adv-x="1190" d="M994 983l-317 -317l319 -318l-82 -82l-319 317l-317 -317l-84 82l319 318l-317 317l82 82l317 -317l317 317z" />
<glyph unicode="&#xd8;" horiz-adv-x="1396" d="M692 -20q-92 0 -171.5 22t-145.5 64l-150 -226l-101 63l157 238q-88 90 -135 221.5t-47 299.5q0 159 42.5 286t121 216.5t190.5 137.5t251 48q92 0 171.5 -22t146.5 -65l150 227l101 -63l-158 -239q88 -89 135 -220.5t47 -299.5q0 -159 -42 -286t-121 -216.5t-191 -137.5 t-251 -48zM250 677q0 -130 29 -232.5t84 -177.5l584 882q-53 39 -117 60t-139 21q-101 0 -182 -38.5t-139 -110t-89 -174t-31 -230.5zM705 101q101 0 182.5 38.5t139 110t88.5 173.5t31 230q0 129 -29.5 232t-83.5 178l-584 -883q53 -38 117 -58.5t139 -20.5z" />
<glyph unicode="&#xd9;" horiz-adv-x="1248" d="M279 524q0 -103 23.5 -181.5t68 -132t108.5 -80.5t146 -27q78 0 140 26.5t105.5 77.5t67 125.5t23.5 169.5v828h142v-814q0 -126 -33.5 -225.5t-96.5 -168.5t-154 -105.5t-206 -36.5q-111 0 -199.5 35.5t-150 103.5t-94 166.5t-32.5 224.5v820h142v-806zM778 1509 l-429 155l58 127l407 -198z" />
<glyph unicode="&#xda;" horiz-adv-x="1248" d="M279 524q0 -103 23.5 -181.5t68 -132t108.5 -80.5t146 -27q78 0 140 26.5t105.5 77.5t67 125.5t23.5 169.5v828h142v-814q0 -126 -33.5 -225.5t-96.5 -168.5t-154 -105.5t-206 -36.5q-111 0 -199.5 35.5t-150 103.5t-94 166.5t-32.5 224.5v820h142v-806zM407 1591 l430 208l57 -127l-450 -164z" />
<glyph unicode="&#xdb;" horiz-adv-x="1248" d="M279 524q0 -103 23.5 -181.5t68 -132t108.5 -80.5t146 -27q78 0 140 26.5t105.5 77.5t67 125.5t23.5 169.5v828h142v-814q0 -126 -33.5 -225.5t-96.5 -168.5t-154 -105.5t-206 -36.5q-111 0 -199.5 35.5t-150 103.5t-94 166.5t-32.5 224.5v820h142v-806zM837 1483 q-26 17 -55 38t-58 43t-56 43.5t-48 39.5q-21 -18 -47.5 -39.5t-55 -43.5t-58 -43t-55.5 -38l-68 96q61 38 134.5 89t149.5 111q77 -60 150 -111t134 -89z" />
<glyph unicode="&#xdc;" horiz-adv-x="1248" d="M279 524q0 -103 23.5 -181.5t68 -132t108.5 -80.5t146 -27q78 0 140 26.5t105.5 77.5t67 125.5t23.5 169.5v828h142v-814q0 -126 -33.5 -225.5t-96.5 -168.5t-154 -105.5t-206 -36.5q-111 0 -199.5 35.5t-150 103.5t-94 166.5t-32.5 224.5v820h142v-806zM334 1645 q0 45 29.5 74.5t74.5 29.5q19 0 36 -7.5t30 -20.5t21 -30.5t8 -36.5q0 -23 -8 -42t-22 -33t-33 -22t-41 -8q-19 0 -36.5 7.5t-30.5 21t-20.5 30.5t-7.5 37zM708 1645q0 45 29.5 74.5t73.5 29.5q19 0 36.5 -7.5t30.5 -20.5t20.5 -30.5t7.5 -36.5q0 -23 -8 -42t-22 -33 t-33 -22t-41 -8q-19 0 -36 7.5t-30 21t-20.5 30.5t-7.5 37z" />
<glyph unicode="&#xdd;" horiz-adv-x="1099" d="M478 515l-444 815h152l365 -685l364 685h150l-444 -815v-515h-143v515zM334 1591l431 208l56 -127l-450 -164z" />
<glyph unicode="&#xde;" horiz-adv-x="1060" d="M178 0v1331h142v-287h238q103 0 185 -26t139.5 -75t88 -118t30.5 -155q0 -90 -31 -161.5t-89.5 -121t-143 -76t-190.5 -26.5h-227v-285h-142zM320 931v-532h238q69 0 123.5 17t92.5 50t58 80.5t20 108.5q0 132 -78.5 204t-226.5 72h-227z" />
<glyph unicode="&#xdf;" horiz-adv-x="1123" d="M503 145q38 -15 93.5 -28.5t127.5 -13.5q78 0 125.5 26.5t55.5 80.5q7 39 -10 81q-17 47 -68 87t-124 87q-41 26 -76 51t-60.5 53.5t-40 62.5t-14.5 78q0 39 12 70t34.5 60t56 59t76.5 67q28 23 50.5 45.5t38.5 46.5t24.5 51.5t8.5 59.5q0 34 -14 68.5t-42.5 62 t-72.5 44.5t-104 17q-62 0 -112 -21t-85 -60t-54.5 -94.5t-19.5 -125.5v-1060h-140v1070q0 90 32 165.5t89 129.5t135 84.5t171 30.5q88 0 155 -27.5t112.5 -71t68.5 -97t23 -105.5q0 -47 -10.5 -85.5t-31 -72.5t-50 -64t-68.5 -61q-36 -28 -63.5 -51t-46 -43t-28 -39.5 t-9.5 -40.5q0 -23 7.5 -40.5t24.5 -34.5t44 -36.5t66 -44.5q56 -37 103.5 -71.5t82 -72t53.5 -80.5t19 -97q0 -130 -88.5 -197.5t-248.5 -67.5q-39 0 -77 5t-70.5 13t-57.5 17t-40 18z" />
<glyph unicode="&#xe0;" horiz-adv-x="996" d="M812 185q0 -51 19.5 -73t52.5 -22q20 0 34.5 4t22.5 8l14 -99q-14 -8 -42 -15.5t-61 -7.5q-36 0 -63.5 11.5t-48 31.5t-33 47.5t-16.5 59.5q-63 -72 -141.5 -111t-163.5 -39q-63 0 -117 19.5t-94 55.5t-63 86t-23 110q0 70 26 122.5t71 89.5t105 58.5t128 30.5 q63 9 127 8.5t126 -7.5v117q0 59 -12.5 105.5t-40 79t-72 49.5t-107.5 17q-41 0 -79.5 -6.5t-72.5 -16t-62 -20.5t-47 -21l-40 101q20 12 52 27t73.5 28t90.5 22t102 9q87 0 153 -24.5t111 -70t68 -110.5t23 -147v-507zM234 268q0 -77 49.5 -123t137.5 -46q72 1 137 36.5 t114 94.5v226q-44 5 -96 7t-107 -4q-48 -6 -90.5 -19t-75 -35.5t-51 -56.5t-18.5 -80zM644 1209l-429 155l58 127l407 -198z" />
<glyph unicode="&#xe1;" horiz-adv-x="996" d="M812 185q0 -51 19.5 -73t52.5 -22q20 0 34.5 4t22.5 8l14 -99q-14 -8 -42 -15.5t-61 -7.5q-36 0 -63.5 11.5t-48 31.5t-33 47.5t-16.5 59.5q-63 -72 -141.5 -111t-163.5 -39q-63 0 -117 19.5t-94 55.5t-63 86t-23 110q0 70 26 122.5t71 89.5t105 58.5t128 30.5 q63 9 127 8.5t126 -7.5v117q0 59 -12.5 105.5t-40 79t-72 49.5t-107.5 17q-41 0 -79.5 -6.5t-72.5 -16t-62 -20.5t-47 -21l-40 101q20 12 52 27t73.5 28t90.5 22t102 9q87 0 153 -24.5t111 -70t68 -110.5t23 -147v-507zM234 268q0 -77 49.5 -123t137.5 -46q72 1 137 36.5 t114 94.5v226q-44 5 -96 7t-107 -4q-48 -6 -90.5 -19t-75 -35.5t-51 -56.5t-18.5 -80zM223 1291l431 208l56 -127l-450 -164z" />
<glyph unicode="&#xe2;" horiz-adv-x="996" d="M812 185q0 -51 19.5 -73t52.5 -22q20 0 34.5 4t22.5 8l14 -99q-14 -8 -42 -15.5t-61 -7.5q-36 0 -63.5 11.5t-48 31.5t-33 47.5t-16.5 59.5q-63 -72 -141.5 -111t-163.5 -39q-63 0 -117 19.5t-94 55.5t-63 86t-23 110q0 70 26 122.5t71 89.5t105 58.5t128 30.5 q63 9 127 8.5t126 -7.5v117q0 59 -12.5 105.5t-40 79t-72 49.5t-107.5 17q-41 0 -79.5 -6.5t-72.5 -16t-62 -20.5t-47 -21l-40 101q20 12 52 27t73.5 28t90.5 22t102 9q87 0 153 -24.5t111 -70t68 -110.5t23 -147v-507zM234 268q0 -77 49.5 -123t137.5 -46q72 1 137 36.5 t114 94.5v226q-44 5 -96 7t-107 -4q-48 -6 -90.5 -19t-75 -35.5t-51 -56.5t-18.5 -80zM671 1183q-26 17 -55 38t-58 43t-56 43.5t-48 39.5q-21 -18 -47.5 -39.5t-55 -43.5t-58 -43t-55.5 -38l-68 96q61 38 134.5 89t149.5 111q77 -60 150 -111t134 -89z" />
<glyph unicode="&#xe3;" horiz-adv-x="996" d="M812 185q0 -51 19.5 -73t52.5 -22q20 0 34.5 4t22.5 8l14 -99q-14 -8 -42 -15.5t-61 -7.5q-36 0 -63.5 11.5t-48 31.5t-33 47.5t-16.5 59.5q-63 -72 -141.5 -111t-163.5 -39q-63 0 -117 19.5t-94 55.5t-63 86t-23 110q0 70 26 122.5t71 89.5t105 58.5t128 30.5 q63 9 127 8.5t126 -7.5v117q0 59 -12.5 105.5t-40 79t-72 49.5t-107.5 17q-41 0 -79.5 -6.5t-72.5 -16t-62 -20.5t-47 -21l-40 101q20 12 52 27t73.5 28t90.5 22t102 9q87 0 153 -24.5t111 -70t68 -110.5t23 -147v-507zM234 268q0 -77 49.5 -123t137.5 -46q72 1 137 36.5 t114 94.5v226q-44 5 -96 7t-107 -4q-48 -6 -90.5 -19t-75 -35.5t-51 -56.5t-18.5 -80zM166 1325q30 52 80.5 85t114.5 33q30 0 58.5 -10t55.5 -22.5t52.5 -22.5t49.5 -10q20 0 36.5 7t29.5 17t23 21t18 20l73 -68q-34 -56 -81.5 -87t-110.5 -31q-30 0 -57 10.5t-53.5 22.5 t-52.5 22.5t-53 10.5q-19 0 -36 -7t-31 -17.5t-25 -21.5t-17 -20z" />
<glyph unicode="&#xe4;" horiz-adv-x="996" d="M812 185q0 -51 19.5 -73t52.5 -22q20 0 34.5 4t22.5 8l14 -99q-14 -8 -42 -15.5t-61 -7.5q-36 0 -63.5 11.5t-48 31.5t-33 47.5t-16.5 59.5q-63 -72 -141.5 -111t-163.5 -39q-63 0 -117 19.5t-94 55.5t-63 86t-23 110q0 70 26 122.5t71 89.5t105 58.5t128 30.5 q63 9 127 8.5t126 -7.5v117q0 59 -12.5 105.5t-40 79t-72 49.5t-107.5 17q-41 0 -79.5 -6.5t-72.5 -16t-62 -20.5t-47 -21l-40 101q20 12 52 27t73.5 28t90.5 22t102 9q87 0 153 -24.5t111 -70t68 -110.5t23 -147v-507zM234 268q0 -77 49.5 -123t137.5 -46q72 1 137 36.5 t114 94.5v226q-44 5 -96 7t-107 -4q-48 -6 -90.5 -19t-75 -35.5t-51 -56.5t-18.5 -80zM172 1345q0 45 29.5 74.5t74.5 29.5q19 0 36 -7.5t30 -20.5t21 -30.5t8 -36.5q0 -23 -8 -42t-22 -33t-33 -22t-41 -8q-19 0 -36.5 7.5t-30.5 21t-20.5 30.5t-7.5 37zM546 1345 q0 45 29.5 74.5t73.5 29.5q19 0 36.5 -7.5t30.5 -20.5t20.5 -30.5t7.5 -36.5q0 -23 -8 -42t-22 -33t-33 -22t-41 -8q-19 0 -36 7.5t-30 21t-20.5 30.5t-7.5 37z" />
<glyph unicode="&#xe5;" horiz-adv-x="996" d="M812 185q0 -51 19.5 -73t52.5 -22q20 0 34.5 4t22.5 8l14 -99q-14 -8 -42 -15.5t-61 -7.5q-36 0 -63.5 11.5t-48 31.5t-33 47.5t-16.5 59.5q-63 -72 -141.5 -111t-163.5 -39q-63 0 -117 19.5t-94 55.5t-63 86t-23 110q0 70 26 122.5t71 89.5t105 58.5t128 30.5 q63 9 127 8.5t126 -7.5v117q0 59 -12.5 105.5t-40 79t-72 49.5t-107.5 17q-41 0 -79.5 -6.5t-72.5 -16t-62 -20.5t-47 -21l-40 101q20 12 52 27t73.5 28t90.5 22t102 9q87 0 153 -24.5t111 -70t68 -110.5t23 -147v-507zM234 268q0 -77 49.5 -123t137.5 -46q72 1 137 36.5 t114 94.5v226q-44 5 -96 7t-107 -4q-48 -6 -90.5 -19t-75 -35.5t-51 -56.5t-18.5 -80zM255 1346q0 43 15.5 81t43.5 66t66 44t82 16q39 0 75 -15.5t63.5 -42.5t43.5 -63t16 -76q0 -44 -16 -82t-43.5 -66t-65.5 -44t-83 -16q-39 0 -74.5 15.5t-63 42.5t-43.5 63t-16 77z M353 1350q0 -22 8.5 -41t22.5 -33.5t33 -23t39 -8.5q23 0 42.5 8.5t33.5 23.5t22 34.5t8 41.5t-8.5 41t-23 33t-33 22t-38.5 8q-23 0 -42.5 -8.5t-33.5 -23t-22 -33.5t-8 -41z" />
<glyph unicode="&#xe6;" horiz-adv-x="1606" d="M830 469q7 -176 96 -271t244 -95q79 0 144.5 13t110.5 31l37 -104q-56 -29 -138.5 -46t-172.5 -17q-121 0 -215 49.5t-157 139.5q-56 -55 -106 -91.5t-96.5 -58t-91 -30.5t-90.5 -9q-65 0 -120 21t-96 58.5t-64 89t-23 112.5q0 63 29 116.5t82.5 93t130.5 63t173 27.5 l178 7v103q0 125 -57.5 187.5t-182.5 62.5q-61 0 -133 -17t-136 -44l-34 104q35 18 75.5 32.5t83.5 25t85.5 16.5t82.5 6q118 0 200.5 -52t117.5 -152q58 100 148.5 152t205.5 52q87 0 155 -25.5t114.5 -73.5t71 -118t24.5 -160q0 -24 -3 -50t-7.5 -50.5t-10 -46 t-11.5 -36.5zM1129 928q-64 0 -116 -26.5t-90 -73.5t-61 -112.5t-29 -144.5l525 15q6 24 7 44.5t1 42.5q0 124 -62.5 189.5t-174.5 65.5zM238 274q0 -79 48.5 -125t136.5 -46q81 0 158 44t144 120q-18 48 -28 99.5t-12 102.5l-185 -10q-60 -3 -108.5 -17.5t-82.5 -39 t-52.5 -57t-18.5 -71.5z" />
<glyph unicode="&#xe7;" horiz-adv-x="930" d="M248 520q0 -97 24.5 -174.5t71 -131.5t114.5 -82.5t154 -28.5q54 0 109.5 11.5t106.5 31.5l37 -103q-26 -14 -58.5 -25.5t-68 -20t-72.5 -13t-73 -4.5q-111 0 -202 38t-156 106.5t-100.5 164.5t-35.5 213q0 122 36.5 222t103.5 171t160 110t206 39q73 0 136.5 -18.5 t105.5 -41.5l-43 -102q-40 15 -90 27t-115 12q-80 0 -145 -28t-110.5 -80.5t-70.5 -126.5t-25 -166zM412 -336q8 -2 22.5 -4.5t31.5 -3.5q9 -1 17.5 -0.5t16.5 0.5q40 2 57 24.5t17 48.5q0 32 -20.5 53.5t-62.5 21.5h-60l8 83h76q76 0 121.5 -37t45.5 -109q0 -81 -52 -126 t-152 -45q-23 0 -45.5 4t-34.5 9z" />
<glyph unicode="&#xe8;" horiz-adv-x="1031" d="M249 484q2 -90 26 -161t69 -119.5t110.5 -74.5t150.5 -26q32 0 66 3.5t67 9.5t62.5 14t53.5 17l34 -107q-26 -12 -60 -22.5t-74 -19t-82.5 -13.5t-84.5 -5q-112 0 -202 38t-153.5 107t-98 165t-34.5 213q0 122 33 221.5t94.5 170.5t148.5 110t195 39q87 0 154.5 -25.5 t114 -73.5t71 -117.5t24.5 -156.5q0 -28 -3 -55.5t-8 -52t-10.5 -45t-9.5 -34.5h-654zM553 928q-68 0 -122 -25t-93 -70t-61.5 -108t-26.5 -139h534q12 36 10 94q-1 124 -65 186t-176 62zM747 1209l-429 155l57 127l408 -198z" />
<glyph unicode="&#xe9;" horiz-adv-x="1031" d="M249 484q2 -90 26 -161t69 -119.5t110.5 -74.5t150.5 -26q32 0 66 3.5t67 9.5t62.5 14t53.5 17l34 -107q-26 -12 -60 -22.5t-74 -19t-82.5 -13.5t-84.5 -5q-112 0 -202 38t-153.5 107t-98 165t-34.5 213q0 122 33 221.5t94.5 170.5t148.5 110t195 39q87 0 154.5 -25.5 t114 -73.5t71 -117.5t24.5 -156.5q0 -28 -3 -55.5t-8 -52t-10.5 -45t-9.5 -34.5h-654zM553 928q-68 0 -122 -25t-93 -70t-61.5 -108t-26.5 -139h534q12 36 10 94q-1 124 -65 186t-176 62zM314 1291l430 208l57 -127l-450 -164z" />
<glyph unicode="&#xea;" horiz-adv-x="1031" d="M249 484q2 -90 26 -161t69 -119.5t110.5 -74.5t150.5 -26q32 0 66 3.5t67 9.5t62.5 14t53.5 17l34 -107q-26 -12 -60 -22.5t-74 -19t-82.5 -13.5t-84.5 -5q-112 0 -202 38t-153.5 107t-98 165t-34.5 213q0 122 33 221.5t94.5 170.5t148.5 110t195 39q87 0 154.5 -25.5 t114 -73.5t71 -117.5t24.5 -156.5q0 -28 -3 -55.5t-8 -52t-10.5 -45t-9.5 -34.5h-654zM553 928q-68 0 -122 -25t-93 -70t-61.5 -108t-26.5 -139h534q12 36 10 94q-1 124 -65 186t-176 62zM765 1183q-26 17 -55 38t-58 43t-56 43.5t-48 39.5q-21 -18 -47.5 -39.5t-55 -43.5 t-58 -43t-55.5 -38l-68 96q62 38 135.5 89t148.5 111q77 -60 150 -111t134 -89z" />
<glyph unicode="&#xeb;" horiz-adv-x="1031" d="M249 484q2 -90 26 -161t69 -119.5t110.5 -74.5t150.5 -26q32 0 66 3.5t67 9.5t62.5 14t53.5 17l34 -107q-26 -12 -60 -22.5t-74 -19t-82.5 -13.5t-84.5 -5q-112 0 -202 38t-153.5 107t-98 165t-34.5 213q0 122 33 221.5t94.5 170.5t148.5 110t195 39q87 0 154.5 -25.5 t114 -73.5t71 -117.5t24.5 -156.5q0 -28 -3 -55.5t-8 -52t-10.5 -45t-9.5 -34.5h-654zM553 928q-68 0 -122 -25t-93 -70t-61.5 -108t-26.5 -139h534q12 36 10 94q-1 124 -65 186t-176 62zM263 1345q0 45 29.5 74.5t74.5 29.5q19 0 36 -7.5t30 -20.5t20.5 -30.5t7.5 -36.5 q0 -23 -8 -42t-22 -33t-32.5 -22t-40.5 -8q-19 0 -36.5 7.5t-30.5 21t-20.5 30.5t-7.5 37zM636 1345q0 45 29.5 74.5t74.5 29.5q19 0 36.5 -7.5t30.5 -20.5t20.5 -30.5t7.5 -36.5q0 -23 -8 -42t-22 -33t-33 -22t-41 -8q-19 0 -36.5 7.5t-30.5 21t-20.5 30.5t-7.5 37z" />
<glyph unicode="&#xec;" horiz-adv-x="499" d="M319 1024v-1024h-140v1024h140zM421 1209l-429 155l58 127l407 -198z" />
<glyph unicode="&#xed;" horiz-adv-x="499" d="M319 1024v-1024h-140v1024h140zM64 1291l431 208l57 -127l-451 -164z" />
<glyph unicode="&#xee;" horiz-adv-x="499" d="M319 1024v-1024h-140v1024h140zM465 1183q-26 17 -55 38t-58 43t-55.5 43.5t-47.5 39.5q-21 -18 -47.5 -39.5t-55.5 -43.5t-58 -43t-56 -38l-67 96q61 38 134.5 89t149.5 111q76 -60 149.5 -111t134.5 -89z" />
<glyph unicode="&#xef;" horiz-adv-x="499" d="M319 1024v-1024h-140v1024h140zM-23 1345q0 45 29.5 74.5t74.5 29.5q19 0 36 -7.5t30 -20.5t21 -30.5t8 -36.5q0 -23 -8 -42t-22 -33t-33 -22t-41 -8q-19 0 -36.5 7.5t-30.5 21t-20.5 30.5t-7.5 37zM323 1345q0 45 29.5 74.5t74.5 29.5q19 0 36 -7.5t30 -20.5t20.5 -30.5 t7.5 -36.5q0 -23 -8 -42t-22 -33t-32.5 -22t-40.5 -8q-20 0 -37 7.5t-30 21t-20.5 30.5t-7.5 37z" />
<glyph unicode="&#xf0;" horiz-adv-x="1142" d="M451 1366q-65 0 -110.5 -10.5t-64.5 -17.5l-30 98q11 6 31.5 13.5t48 14t60.5 11.5t71 5q90 0 171 -29l105 136l94 -70l-93 -120q144 -100 221 -305.5t77 -502.5q0 -132 -30.5 -243.5t-90.5 -192.5t-149 -127t-206 -46q-104 0 -188 38t-144 107t-92.5 165.5t-32.5 212.5 q0 122 33 221.5t94.5 170.5t148 110t193.5 39q94 0 167 -38t124 -102q-27 147 -78 244t-123 150l-104 -134l-91 71l90 116q-50 15 -102 15zM892 576q-27 171 -110.5 261.5t-225.5 90.5q-72 0 -129 -29t-96.5 -82t-61 -128.5t-21.5 -168.5q0 -98 21.5 -176.5t62.5 -133.5 t100.5 -84.5t135.5 -29.5q67 0 125 30t100.5 90t66.5 149.5t24 208.5q5 0 11 0.5t11 1.5h-14z" />
<glyph unicode="&#xf1;" horiz-adv-x="1147" d="M290 1024l16 -134q39 34 83 62t89.5 48.5t93 32t94.5 11.5q158 0 237 -95.5t79 -274.5v-674h-140v652q0 266 -218 266q-36 0 -77 -10.5t-81.5 -29t-78.5 -43t-68 -52.5v-783h-140v1024h111zM274 1325q30 52 80.5 85t114.5 33q30 0 58.5 -10t55.5 -22.5t52.5 -22.5 t49.5 -10q20 0 36.5 7t29.5 17t23 21t18 20l73 -68q-34 -56 -81.5 -87t-110.5 -31q-30 0 -57 10.5t-53.5 22.5t-52.5 22.5t-53 10.5q-19 0 -36 -7t-31 -17.5t-25 -21.5t-17 -20z" />
<glyph unicode="&#xf2;" horiz-adv-x="1138" d="M563 -20q-104 0 -189 38t-146.5 107t-95 165.5t-33.5 213.5q0 121 34.5 221t97 170.5t150 109.5t194.5 39q103 0 188.5 -38t147 -107t95 -165t33.5 -213q0 -122 -34.5 -221.5t-97 -170.5t-150 -110t-194.5 -39zM575 96q72 0 130 28.5t99 82t63.5 129t22.5 168.5 q0 98 -22.5 176.5t-65 133.5t-103 84.5t-136.5 29.5q-72 0 -130 -29t-99 -82t-63.5 -128t-22.5 -168q0 -99 22.5 -177.5t65 -133.5t103 -84.5t136.5 -29.5zM765 1209l-429 155l58 127l407 -198z" />
<glyph unicode="&#xf3;" horiz-adv-x="1138" d="M563 -20q-104 0 -189 38t-146.5 107t-95 165.5t-33.5 213.5q0 121 34.5 221t97 170.5t150 109.5t194.5 39q103 0 188.5 -38t147 -107t95 -165t33.5 -213q0 -122 -34.5 -221.5t-97 -170.5t-150 -110t-194.5 -39zM575 96q72 0 130 28.5t99 82t63.5 129t22.5 168.5 q0 98 -22.5 176.5t-65 133.5t-103 84.5t-136.5 29.5q-72 0 -130 -29t-99 -82t-63.5 -128t-22.5 -168q0 -99 22.5 -177.5t65 -133.5t103 -84.5t136.5 -29.5zM331 1291l431 208l56 -127l-450 -164z" />
<glyph unicode="&#xf4;" horiz-adv-x="1138" d="M563 -20q-104 0 -189 38t-146.5 107t-95 165.5t-33.5 213.5q0 121 34.5 221t97 170.5t150 109.5t194.5 39q103 0 188.5 -38t147 -107t95 -165t33.5 -213q0 -122 -34.5 -221.5t-97 -170.5t-150 -110t-194.5 -39zM575 96q72 0 130 28.5t99 82t63.5 129t22.5 168.5 q0 98 -22.5 176.5t-65 133.5t-103 84.5t-136.5 29.5q-72 0 -130 -29t-99 -82t-63.5 -128t-22.5 -168q0 -99 22.5 -177.5t65 -133.5t103 -84.5t136.5 -29.5zM785 1183q-26 17 -55 38t-58 43t-55.5 43.5t-47.5 39.5q-21 -18 -47.5 -39.5t-55.5 -43.5t-58.5 -43t-55.5 -38 l-67 96q61 38 134.5 89t149.5 111q76 -60 149.5 -111t134.5 -89z" />
<glyph unicode="&#xf5;" horiz-adv-x="1138" d="M563 -20q-104 0 -189 38t-146.5 107t-95 165.5t-33.5 213.5q0 121 34.5 221t97 170.5t150 109.5t194.5 39q103 0 188.5 -38t147 -107t95 -165t33.5 -213q0 -122 -34.5 -221.5t-97 -170.5t-150 -110t-194.5 -39zM575 96q72 0 130 28.5t99 82t63.5 129t22.5 168.5 q0 98 -22.5 176.5t-65 133.5t-103 84.5t-136.5 29.5q-72 0 -130 -29t-99 -82t-63.5 -128t-22.5 -168q0 -99 22.5 -177.5t65 -133.5t103 -84.5t136.5 -29.5zM275 1325q30 52 80.5 85t114.5 33q30 0 58.5 -10t55.5 -22.5t52.5 -22.5t49.5 -10q20 0 36.5 7t29.5 17t23 21t18 20 l73 -68q-34 -56 -82 -87t-111 -31q-30 0 -57 10.5t-53 22.5t-52 22.5t-53 10.5q-19 0 -36 -7t-31 -17.5t-25 -21.5t-17 -20z" />
<glyph unicode="&#xf6;" horiz-adv-x="1138" d="M563 -20q-104 0 -189 38t-146.5 107t-95 165.5t-33.5 213.5q0 121 34.5 221t97 170.5t150 109.5t194.5 39q103 0 188.5 -38t147 -107t95 -165t33.5 -213q0 -122 -34.5 -221.5t-97 -170.5t-150 -110t-194.5 -39zM575 96q72 0 130 28.5t99 82t63.5 129t22.5 168.5 q0 98 -22.5 176.5t-65 133.5t-103 84.5t-136.5 29.5q-72 0 -130 -29t-99 -82t-63.5 -128t-22.5 -168q0 -99 22.5 -177.5t65 -133.5t103 -84.5t136.5 -29.5zM283 1345q0 45 29.5 74.5t74.5 29.5q19 0 36 -7.5t30 -20.5t21 -30.5t8 -36.5q0 -23 -8 -42t-22 -33t-33 -22t-41 -8 q-19 0 -36.5 7.5t-30.5 21t-20.5 30.5t-7.5 37zM657 1345q0 45 29.5 74.5t73.5 29.5q19 0 36.5 -7.5t30.5 -20.5t20.5 -30.5t7.5 -36.5q0 -23 -8 -42t-22 -33t-33 -22t-41 -8q-19 0 -36 7.5t-30 21t-20.5 30.5t-7.5 37z" />
<glyph unicode="&#xf7;" horiz-adv-x="1134" d="M194 722h745v-115h-745v115zM468 991q0 45 29.5 74t73.5 29q19 0 36.5 -7.5t30.5 -20.5t20.5 -30t7.5 -36q0 -46 -29.5 -76t-74.5 -30q-19 0 -36 7.5t-30 21t-20.5 31t-7.5 37.5zM468 330q0 45 29.5 74.5t73.5 29.5q19 0 36.5 -7.5t30.5 -20.5t20.5 -30.5t7.5 -36.5 q0 -23 -8 -42t-22 -33.5t-33 -22.5t-41 -8q-19 0 -36 8t-30 21t-20.5 30.5t-7.5 37.5z" />
<glyph unicode="&#xf8;" horiz-adv-x="1138" d="M563 -20q-68 0 -127.5 16.5t-110.5 47.5l-138 -209l-93 58l145 219q-66 70 -103 169t-37 223q0 121 34.5 221t97 170.5t150 109.5t194.5 39q68 0 127 -16.5t110 -47.5l140 210l92 -58l-145 -220q66 -70 103 -169t37 -222q0 -122 -34.5 -221.5t-97 -170.5t-150 -110 t-194.5 -39zM575 96q72 0 130 28.5t99 82t63.5 129t22.5 168.5q0 176 -72 286l-422 -638q74 -56 179 -56zM248 521q0 -89 18 -161t53 -126l423 638q-74 56 -179 56q-72 0 -130 -29t-99 -82t-63.5 -128t-22.5 -168z" />
<glyph unicode="&#xf9;" horiz-adv-x="1125" d="M835 0l-17 134q-38 -34 -80.5 -62t-87.5 -48.5t-91 -32t-92 -11.5q-154 0 -231 95.5t-77 274.5v674h141v-652q0 -266 209 -266q35 0 74.5 10.5t79 29t76 43t66.5 52.5v783h140v-1024h-110zM737 1209l-428 155l57 127l408 -198z" />
<glyph unicode="&#xfa;" horiz-adv-x="1125" d="M835 0l-17 134q-38 -34 -80.5 -62t-87.5 -48.5t-91 -32t-92 -11.5q-154 0 -231 95.5t-77 274.5v674h141v-652q0 -266 209 -266q35 0 74.5 10.5t79 29t76 43t66.5 52.5v783h140v-1024h-110zM323 1291l431 208l57 -127l-451 -164z" />
<glyph unicode="&#xfb;" horiz-adv-x="1125" d="M835 0l-17 134q-38 -34 -80.5 -62t-87.5 -48.5t-91 -32t-92 -11.5q-154 0 -231 95.5t-77 274.5v674h141v-652q0 -266 209 -266q35 0 74.5 10.5t79 29t76 43t66.5 52.5v783h140v-1024h-110zM767 1183q-26 17 -55 38t-58 43t-56 43.5t-48 39.5q-21 -18 -47.5 -39.5 t-55 -43.5t-58 -43t-55.5 -38l-68 96q62 38 135.5 89t148.5 111q77 -60 150 -111t134 -89z" />
<glyph unicode="&#xfc;" horiz-adv-x="1125" d="M835 0l-17 134q-38 -34 -80.5 -62t-87.5 -48.5t-91 -32t-92 -11.5q-154 0 -231 95.5t-77 274.5v674h141v-652q0 -266 209 -266q35 0 74.5 10.5t79 29t76 43t66.5 52.5v783h140v-1024h-110zM265 1345q0 45 29.5 74.5t74.5 29.5q19 0 36 -7.5t30 -20.5t20.5 -30.5 t7.5 -36.5q0 -23 -8 -42t-22 -33t-32.5 -22t-40.5 -8q-19 0 -36.5 7.5t-30.5 21t-20.5 30.5t-7.5 37zM638 1345q0 45 29.5 74.5t74.5 29.5q19 0 36.5 -7.5t30.5 -20.5t20.5 -30.5t7.5 -36.5q0 -23 -8 -42t-22 -33t-33 -22t-41 -8q-19 0 -36.5 7.5t-30.5 21t-20.5 30.5 t-7.5 37z" />
<glyph unicode="&#xfd;" horiz-adv-x="1023" d="M988 1024l-369 -1000q-46 -124 -89.5 -208t-93.5 -135.5t-110 -74t-138 -22.5q-55 0 -98.5 13.5t-62.5 22.5l34 107q17 -6 50.5 -14.5t76.5 -8.5q49 0 87.5 15t70.5 48t60 86t55 128l-436 1043h149l357 -890l309 890h148zM280 1291l431 208l56 -127l-450 -164z" />
<glyph unicode="&#xfe;" horiz-adv-x="1158" d="M1059 520q0 -119 -37.5 -218.5t-104 -171t-157 -111t-196.5 -39.5q-55 0 -121 16.5t-124 46.5v-439h-140v1856l140 20v-507q66 35 133 53t132 18q105 0 192.5 -38t150 -107t97.5 -165.5t35 -213.5zM910 504q0 94 -24.5 171t-70.5 132t-110.5 84.5t-143.5 29.5 q-62 0 -123.5 -16t-118.5 -48v-692q54 -29 119 -45.5t136 -16.5q76 0 138.5 29t106 82t67.5 126.5t24 163.5z" />
<glyph unicode="&#xff;" horiz-adv-x="1023" d="M988 1024l-369 -1000q-46 -124 -89.5 -208t-93.5 -135.5t-110 -74t-138 -22.5q-55 0 -98.5 13.5t-62.5 22.5l34 107q17 -6 50.5 -14.5t76.5 -8.5q49 0 87.5 15t70.5 48t60 86t55 128l-436 1043h149l357 -890l309 890h148zM196 1345q0 45 29.5 74.5t74.5 29.5 q19 0 36 -7.5t30 -20.5t21 -30.5t8 -36.5q0 -23 -8 -42t-22 -33t-33 -22t-41 -8q-19 0 -36.5 7.5t-30.5 21t-20.5 30.5t-7.5 37zM612 1345q0 45 29.5 74.5t73.5 29.5q19 0 36.5 -7.5t30.5 -20.5t20.5 -30.5t7.5 -36.5q0 -23 -8 -42t-22 -33t-33 -22t-41 -8q-19 0 -36 7.5 t-30 21t-20.5 30.5t-7.5 37z" />
<glyph unicode="&#x100;" horiz-adv-x="1229" d="M908 361h-587l-135 -361h-152l514 1330h133l513 -1330h-152zM363 477h502l-250 694zM352 1711h524v-107h-524v107z" />
<glyph unicode="&#x101;" horiz-adv-x="996" d="M812 185q0 -51 19.5 -73t52.5 -22q20 0 34.5 4t22.5 8l14 -99q-14 -8 -42 -15.5t-61 -7.5q-36 0 -63.5 11.5t-48 31.5t-33 47.5t-16.5 59.5q-63 -72 -141.5 -111t-163.5 -39q-63 0 -117 19.5t-94 55.5t-63 86t-23 110q0 70 26 122.5t71 89.5t105 58.5t128 30.5 q63 9 127 8.5t126 -7.5v117q0 59 -12.5 105.5t-40 79t-72 49.5t-107.5 17q-41 0 -79.5 -6.5t-72.5 -16t-62 -20.5t-47 -21l-40 101q20 12 52 27t73.5 28t90.5 22t102 9q87 0 153 -24.5t111 -70t68 -110.5t23 -147v-507zM234 268q0 -77 49.5 -123t137.5 -46q72 1 137 36.5 t114 94.5v226q-44 5 -96 7t-107 -4q-48 -6 -90.5 -19t-75 -35.5t-51 -56.5t-18.5 -80zM197 1404h524v-107h-524v107z" />
<glyph unicode="&#x102;" horiz-adv-x="1229" d="M908 361h-587l-135 -361h-152l514 1330h133l513 -1330h-152zM363 477h502l-250 694zM462 1763q3 -33 13 -62.5t29 -51t46 -34t64 -12.5t64.5 12.5t46 34t29 51t12.5 62.5h101q3 -60 -14 -109t-50.5 -84t-81.5 -54t-107 -19t-107 19t-81.5 54t-50.5 84t-14 109h101z" />
<glyph unicode="&#x103;" horiz-adv-x="996" d="M812 185q0 -51 19.5 -73t52.5 -22q20 0 34.5 4t22.5 8l14 -99q-14 -8 -42 -15.5t-61 -7.5q-36 0 -63.5 11.5t-48 31.5t-33 47.5t-16.5 59.5q-63 -72 -141.5 -111t-163.5 -39q-63 0 -117 19.5t-94 55.5t-63 86t-23 110q0 70 26 122.5t71 89.5t105 58.5t128 30.5 q63 9 127 8.5t126 -7.5v117q0 59 -12.5 105.5t-40 79t-72 49.5t-107.5 17q-41 0 -79.5 -6.5t-72.5 -16t-62 -20.5t-47 -21l-40 101q20 12 52 27t73.5 28t90.5 22t102 9q87 0 153 -24.5t111 -70t68 -110.5t23 -147v-507zM234 268q0 -77 49.5 -123t137.5 -46q72 1 137 36.5 t114 94.5v226q-44 5 -96 7t-107 -4q-48 -6 -90.5 -19t-75 -35.5t-51 -56.5t-18.5 -80zM314 1456q3 -33 13 -62.5t29 -51t46 -34t64 -12.5t64.5 12.5t46 34t29 51t12.5 62.5h101q3 -60 -14 -109t-50.5 -84t-81.5 -54t-107 -19t-107 19t-81.5 54t-50.5 84t-14 109h101z" />
<glyph unicode="&#x104;" horiz-adv-x="1229" d="M1158 0q-27 -20 -54.5 -45t-49 -53.5t-35.5 -59.5t-14 -63q0 -51 26.5 -75t68.5 -24q19 0 37 4t32.5 9t24.5 9.5t13 6.5l32 -74q-7 -6 -22 -14.5t-36.5 -16.5t-47 -14t-53.5 -6q-40 0 -75 11.5t-61.5 33.5t-42 54t-15.5 72q0 39 13 74t35 66t50 57.5t57 48.5l-133 360 h-587l-135 -361h-152l514 1330h133l513 -1330h-36zM363 477h502l-250 694z" />
<glyph unicode="&#x105;" horiz-adv-x="996" d="M812 185q0 -51 19.5 -73t52.5 -22q20 0 34.5 4t22.5 8l14 -99q-3 -2 -6.5 -3.5t-8.5 -2.5q-26 -21 -52.5 -46t-47.5 -52.5t-34.5 -58t-13.5 -61.5q0 -51 26.5 -75t68.5 -24q19 0 37 4t33 9t24.5 9.5t12.5 6.5l32 -74q-6 -6 -21.5 -14.5t-36.5 -16.5t-47 -14t-54 -6 q-40 0 -75 11.5t-61.5 33.5t-42 54t-15.5 72q0 35 11.5 67.5t30 61.5t43 54.5t51.5 46.5q-52 12 -81 51t-37 94q-63 -72 -141.5 -111t-163.5 -39q-63 0 -117 19.5t-94 55.5t-63 86t-23 110q0 73 27.5 126.5t75 90.5t110.5 58t134 29q59 7 119 5.5t117 -7.5v117 q0 59 -12.5 105.5t-40 79t-72 49.5t-107.5 17q-41 0 -79.5 -6.5t-72.5 -16t-62 -20.5t-47 -21l-40 101q20 12 52 27t73.5 28t90.5 22t102 9q87 0 153 -24.5t111 -70t68 -110.5t23 -147v-507zM234 268q0 -77 49.5 -123t137.5 -46q72 1 137 36.5t114 94.5v226q-44 5 -96 7 t-107 -4q-48 -6 -90.5 -19t-75 -35.5t-51 -56.5t-18.5 -80z" />
<glyph unicode="&#x106;" horiz-adv-x="1133" d="M99 662q0 151 44.5 277t127.5 217.5t202 142.5t269 51q38 0 76.5 -5.5t74.5 -14.5t68.5 -20.5t58.5 -23.5l-36 -108q-48 19 -109.5 34t-135.5 15q-109 0 -199 -36.5t-154.5 -106t-100 -171.5t-35.5 -234t34.5 -238.5t101 -181.5t164.5 -115.5t225 -40.5q71 0 137 15.5 t111 34.5l38 -107q-29 -15 -64 -27t-74.5 -20.5t-81.5 -13.5t-83 -5q-155 0 -277.5 49.5t-207 139t-129.5 215t-45 278.5zM464 1593l431 208l56 -127l-450 -164z" />
<glyph unicode="&#x107;" horiz-adv-x="930" d="M248 520q0 -97 24.5 -174.5t71 -131.5t114.5 -82.5t154 -28.5q54 0 109.5 11.5t106.5 31.5l37 -103q-26 -14 -58.5 -25.5t-68 -20t-72.5 -13t-73 -4.5q-111 0 -202 38t-156 106.5t-100.5 164.5t-35.5 213q0 122 36.5 222t103.5 171t160 110t206 39q73 0 136.5 -18.5 t105.5 -41.5l-43 -102q-40 15 -90 27t-115 12q-80 0 -145 -28t-110.5 -80.5t-70.5 -126.5t-25 -166zM321 1291l430 208l57 -127l-450 -164z" />
<glyph unicode="&#x108;" horiz-adv-x="1133" d="M99 662q0 151 44.5 277t127.5 217.5t202 142.5t269 51q38 0 76.5 -5.5t74.5 -14.5t68.5 -20.5t58.5 -23.5l-36 -108q-48 19 -109.5 34t-135.5 15q-109 0 -199 -36.5t-154.5 -106t-100 -171.5t-35.5 -234t34.5 -238.5t101 -181.5t164.5 -115.5t225 -40.5q71 0 137 15.5 t111 34.5l38 -107q-29 -15 -64 -27t-74.5 -20.5t-81.5 -13.5t-83 -5q-155 0 -277.5 49.5t-207 139t-129.5 215t-45 278.5zM919 1485q-26 17 -55 38t-58 43t-56 43.5t-48 39.5q-21 -18 -47.5 -39.5t-55 -43.5t-58 -43t-55.5 -38l-68 96q61 38 135 89.5t149 110.5 q77 -59 150 -110.5t134 -89.5z" />
<glyph unicode="&#x109;" horiz-adv-x="930" d="M248 520q0 -97 24.5 -174.5t71 -131.5t114.5 -82.5t154 -28.5q54 0 109.5 11.5t106.5 31.5l37 -103q-26 -14 -58.5 -25.5t-68 -20t-72.5 -13t-73 -4.5q-111 0 -202 38t-156 106.5t-100.5 164.5t-35.5 213q0 122 36.5 222t103.5 171t160 110t206 39q73 0 136.5 -18.5 t105.5 -41.5l-43 -102q-40 15 -90 27t-115 12q-80 0 -145 -28t-110.5 -80.5t-70.5 -126.5t-25 -166zM779 1183q-26 17 -55 38t-58.5 43t-56 43.5t-47.5 39.5q-21 -18 -47.5 -39.5t-55 -43.5t-58 -43t-55.5 -38l-68 96q61 38 134.5 89t149.5 111q77 -60 150 -111t134 -89z " />
<glyph unicode="&#x10a;" horiz-adv-x="1133" d="M99 662q0 151 44.5 277t127.5 217.5t202 142.5t269 51q38 0 76.5 -5.5t74.5 -14.5t68.5 -20.5t58.5 -23.5l-36 -108q-48 19 -109.5 34t-135.5 15q-109 0 -199 -36.5t-154.5 -106t-100 -171.5t-35.5 -234t34.5 -238.5t101 -181.5t164.5 -115.5t225 -40.5q71 0 137 15.5 t111 34.5l38 -107q-29 -15 -64 -27t-74.5 -20.5t-81.5 -13.5t-83 -5q-155 0 -277.5 49.5t-207 139t-129.5 215t-45 278.5zM609 1647q0 45 29.5 74.5t74.5 29.5q19 0 36 -7.5t30 -20.5t21 -30.5t8 -36.5q0 -23 -8 -42t-22 -33t-33 -22t-41 -8q-19 0 -36.5 7.5t-30.5 21 t-20.5 30.5t-7.5 37z" />
<glyph unicode="&#x10b;" horiz-adv-x="930" d="M248 520q0 -97 24.5 -174.5t71 -131.5t114.5 -82.5t154 -28.5q54 0 109.5 11.5t106.5 31.5l37 -103q-26 -14 -58.5 -25.5t-68 -20t-72.5 -13t-73 -4.5q-111 0 -202 38t-156 106.5t-100.5 164.5t-35.5 213q0 122 36.5 222t103.5 171t160 110t206 39q73 0 136.5 -18.5 t105.5 -41.5l-43 -102q-40 15 -90 27t-115 12q-80 0 -145 -28t-110.5 -80.5t-70.5 -126.5t-25 -166zM469 1345q0 45 29.5 74.5t74.5 29.5q19 0 36 -7.5t30 -20.5t20.5 -30.5t7.5 -36.5q0 -23 -8 -42t-22 -33t-32.5 -22t-40.5 -8q-19 0 -36.5 7.5t-30.5 21t-20.5 30.5 t-7.5 37z" />
<glyph unicode="&#x10c;" horiz-adv-x="1133" d="M99 662q0 151 44.5 277t127.5 217.5t202 142.5t269 51q38 0 76.5 -5.5t74.5 -14.5t68.5 -20.5t58.5 -23.5l-36 -108q-48 19 -109.5 34t-135.5 15q-109 0 -199 -36.5t-154.5 -106t-100 -171.5t-35.5 -234t34.5 -238.5t101 -181.5t164.5 -115.5t225 -40.5q71 0 137 15.5 t111 34.5l38 -107q-29 -15 -64 -27t-74.5 -20.5t-81.5 -13.5t-83 -5q-155 0 -277.5 49.5t-207 139t-129.5 215t-45 278.5zM487 1790q25 -15 53.5 -35.5t57.5 -43t56 -45.5t49 -45q21 22 48.5 45t56 45.5t57.5 43t53 35.5l63 -106q-44 -23 -81 -45t-70.5 -45t-64.5 -48.5 t-62 -54.5q-31 29 -62 54.5t-64.5 48.5t-71 45t-81.5 45z" />
<glyph unicode="&#x10d;" horiz-adv-x="930" d="M248 520q0 -97 24.5 -174.5t71 -131.5t114.5 -82.5t154 -28.5q54 0 109.5 11.5t106.5 31.5l37 -103q-26 -14 -58.5 -25.5t-68 -20t-72.5 -13t-73 -4.5q-111 0 -202 38t-156 106.5t-100.5 164.5t-35.5 213q0 122 36.5 222t103.5 171t160 110t206 39q73 0 136.5 -18.5 t105.5 -41.5l-43 -102q-40 15 -90 27t-115 12q-80 0 -145 -28t-110.5 -80.5t-70.5 -126.5t-25 -166zM349 1488q25 -15 53.5 -35.5t57.5 -43t56 -45.5t49 -45q22 22 49 45t56 45.5t57.5 43t53.5 35.5l62 -106q-44 -23 -81 -45t-70.5 -45t-64.5 -48.5t-62 -54.5 q-31 29 -62 54.5t-64.5 48.5t-71 45t-80.5 45z" />
<glyph unicode="&#x10e;" horiz-adv-x="1273" d="M179 0v1330h368q155 0 273.5 -49t198.5 -137t120.5 -209.5t40.5 -266.5q0 -150 -45 -273t-129 -211t-204.5 -136t-270.5 -48h-352zM544 113q103 0 192 36t154.5 105t102.5 169.5t37 229.5q0 130 -32.5 234.5t-96 178t-156.5 112.5t-214 39h-212v-1104h225zM339 1790 q24 -15 53 -35.5t57.5 -43t56 -45.5t48.5 -45q22 22 49 45t56 45.5t58 43t53 35.5l63 -106q-44 -23 -81 -45t-71 -45t-65 -48.5t-62 -54.5q-31 29 -62 54.5t-64.5 48.5t-71 45t-80.5 45z" />
<glyph unicode="&#x10f;" horiz-adv-x="1261" d="M1247 1523q7 -5 19 -18.5t24 -34t20.5 -46.5t8.5 -57q0 -47 -15 -85t-39 -67.5t-55 -51t-63 -35.5l-48 66q16 10 32.5 24t30 33.5t22.5 44t9 54.5q0 25 -9 48.5t-21 42t-24.5 32.5t-19.5 20zM882 0l-19 128q-68 -72 -154 -110t-172 -38q-100 0 -181 37.5t-138 106.5 t-88 165t-31 213q0 120 38.5 219.5t106 171t159 111.5t198.5 40q55 0 121 -16.5t124 -46.5v479l140 20v-1480h-104zM846 859q-54 29 -119 45.5t-136 16.5q-76 0 -139 -29.5t-108.5 -83t-70.5 -127.5t-25 -162q0 -96 21.5 -173t62.5 -131t99.5 -83t132.5 -29q43 0 84.5 10.5 t78 29t67.5 43t52 52.5v621z" />
<glyph unicode="&#x110;" horiz-adv-x="1273" d="M22 722h157v608h368q155 0 273.5 -49t198.5 -137t120.5 -209.5t40.5 -266.5q0 -150 -45 -273t-129 -211t-204.5 -136t-270.5 -48h-352v607h-157v115zM544 113q103 0 192 36t154.5 105t102.5 169.5t37 229.5q0 130 -32.5 234.5t-96 178t-156.5 112.5t-214 39h-212v-495 h388v-115h-388v-494h225z" />
<glyph unicode="&#x111;" horiz-adv-x="1170" d="M882 0l-19 128q-68 -71 -154 -109.5t-172 -38.5q-100 0 -181 37.5t-138 106.5t-88 165.5t-31 213.5q0 120 38.5 219.5t106 171t159 111t198.5 39.5q55 0 121 -16.5t124 -45.5v232h-342v100h342v146l140 20v-166h170v-100h-170v-1214h-104zM846 859q-54 29 -119 45.5 t-136 16.5q-76 0 -139 -29.5t-108.5 -83t-70.5 -127.5t-25 -162q0 -96 21.5 -173t62.5 -131t99.5 -83t132.5 -29q43 0 84.5 10.5t78 29t67.5 43t52 52.5v621z" />
<glyph unicode="&#x112;" horiz-adv-x="1046" d="M917 1214h-596v-486h575v-116h-575v-496h616v-116h-758v1330h738v-116zM293 1711h524v-107h-524v107z" />
<glyph unicode="&#x113;" horiz-adv-x="1031" d="M249 484q2 -90 26 -161t69 -119.5t110.5 -74.5t150.5 -26q32 0 66 3.5t67 9.5t62.5 14t53.5 17l34 -107q-26 -12 -60 -22.5t-74 -19t-82.5 -13.5t-84.5 -5q-112 0 -202 38t-153.5 107t-98 165t-34.5 213q0 122 33 221.5t94.5 170.5t148.5 110t195 39q87 0 154.5 -25.5 t114 -73.5t71 -117.5t24.5 -156.5q0 -28 -3 -55.5t-8 -52t-10.5 -45t-9.5 -34.5h-654zM553 928q-68 0 -122 -25t-93 -70t-61.5 -108t-26.5 -139h534q12 36 10 94q-1 124 -65 186t-176 62zM282 1404h524v-107h-524v107z" />
<glyph unicode="&#x114;" horiz-adv-x="1046" d="M917 1214h-596v-486h575v-116h-575v-496h616v-116h-758v1330h738v-116zM404 1763q3 -33 13 -62.5t29 -51t46 -34t64 -12.5t64.5 12.5t46 34t29 51t12.5 62.5h102q3 -60 -14.5 -109t-51 -84t-81.5 -54t-107 -19t-107 19t-81 54t-50.5 84t-14.5 109h101z" />
<glyph unicode="&#x115;" horiz-adv-x="1031" d="M249 484q2 -90 26 -161t69 -119.5t110.5 -74.5t150.5 -26q32 0 66 3.5t67 9.5t62.5 14t53.5 17l34 -107q-26 -12 -60 -22.5t-74 -19t-82.5 -13.5t-84.5 -5q-112 0 -202 38t-153.5 107t-98 165t-34.5 213q0 122 33 221.5t94.5 170.5t148.5 110t195 39q87 0 154.5 -25.5 t114 -73.5t71 -117.5t24.5 -156.5q0 -28 -3 -55.5t-8 -52t-10.5 -45t-9.5 -34.5h-654zM553 928q-68 0 -122 -25t-93 -70t-61.5 -108t-26.5 -139h534q12 36 10 94q-1 124 -65 186t-176 62zM391 1456q2 -33 12.5 -62.5t29 -51t46 -34t64.5 -12.5t64 12.5t46 34t29 51t13 62.5 h101q3 -60 -14 -109t-50.5 -84t-81.5 -54t-107 -19t-107 19t-81.5 54t-50.5 84t-14 109h101z" />
<glyph unicode="&#x116;" horiz-adv-x="1046" d="M917 1214h-596v-486h575v-116h-575v-496h616v-116h-758v1330h738v-116zM467 1647q0 45 29 74.5t74 29.5q19 0 36.5 -7.5t30.5 -20.5t20.5 -30.5t7.5 -36.5q0 -23 -8 -42t-22 -33t-33 -22t-41 -8q-19 0 -36 7.5t-30 21t-20.5 30.5t-7.5 37z" />
<glyph unicode="&#x117;" horiz-adv-x="1031" d="M249 484q2 -90 26 -161t69 -119.5t110.5 -74.5t150.5 -26q32 0 66 3.5t67 9.5t62.5 14t53.5 17l34 -107q-26 -12 -60 -22.5t-74 -19t-82.5 -13.5t-84.5 -5q-112 0 -202 38t-153.5 107t-98 165t-34.5 213q0 122 33 221.5t94.5 170.5t148.5 110t195 39q87 0 154.5 -25.5 t114 -73.5t71 -117.5t24.5 -156.5q0 -28 -3 -55.5t-8 -52t-10.5 -45t-9.5 -34.5h-654zM553 928q-68 0 -122 -25t-93 -70t-61.5 -108t-26.5 -139h534q12 36 10 94q-1 124 -65 186t-176 62zM457 1345q0 45 29.5 74.5t73.5 29.5q19 0 36.5 -7.5t30.5 -20.5t20.5 -30.5 t7.5 -36.5q0 -23 -8 -42t-22 -33t-33 -22t-41 -8q-19 0 -36 7.5t-30 21t-20.5 30.5t-7.5 37z" />
<glyph unicode="&#x118;" horiz-adv-x="1046" d="M917 1214h-596v-486h575v-116h-575v-496h616v-116q-27 -20 -54 -45t-49 -53.5t-36 -59.5t-14 -63q0 -51 26.5 -75t68.5 -24q19 0 37 4t33 9t24.5 9.5t12.5 6.5l32 -74q-6 -6 -21.5 -14.5t-36.5 -16.5t-47 -14t-54 -6q-40 0 -75 11.5t-61.5 33.5t-42 54t-15.5 72 q0 38 13 73t35 66t49.5 57.5t57.5 48.5h-641v1330h738v-116z" />
<glyph unicode="&#x119;" horiz-adv-x="1031" d="M249 484q2 -90 26 -161t69 -119.5t110.5 -74.5t150.5 -26q32 0 66 3.5t67 9.5t62.5 14t53.5 17l34 -107q-49 -23 -126 -40h1q-27 -20 -54 -45t-49 -53.5t-36 -59.5t-14 -63q0 -51 26.5 -75t68.5 -24q19 0 37 4t33 9t24.5 9.5t12.5 6.5l32 -74q-7 -6 -22 -14.5t-36 -16.5 t-47 -14t-54 -6q-40 0 -75 11.5t-61.5 33.5t-42 54t-15.5 72q0 34 10.5 66t28.5 60.5t41.5 53.5t49.5 46q-9 0 -17.5 -0.5t-16.5 -0.5q-112 0 -202 38t-153.5 107t-98 165t-34.5 213q0 122 33 221.5t94.5 170.5t148.5 110t195 39q87 0 154.5 -25.5t114 -73.5t71 -117.5 t24.5 -156.5q0 -28 -3 -55.5t-8 -52t-10.5 -45t-9.5 -34.5h-654zM553 928q-68 0 -122 -25t-93 -70t-61.5 -108t-26.5 -139h534q12 36 10 94q-1 124 -65 186t-176 62z" />
<glyph unicode="&#x11a;" horiz-adv-x="1046" d="M917 1214h-596v-486h575v-116h-575v-496h616v-116h-758v1330h738v-116zM358 1788q24 -15 53 -35.5t57.5 -43t56 -45.5t48.5 -45q22 22 49 45t56 45.5t58 43t53 35.5l63 -106q-44 -23 -81 -45t-71 -45t-65 -48.5t-62 -54.5q-31 29 -62 54.5t-64.5 48.5t-71 45t-80.5 45z " />
<glyph unicode="&#x11b;" horiz-adv-x="1031" d="M249 484q2 -90 26 -161t69 -119.5t110.5 -74.5t150.5 -26q32 0 66 3.5t67 9.5t62.5 14t53.5 17l34 -107q-26 -12 -60 -22.5t-74 -19t-82.5 -13.5t-84.5 -5q-112 0 -202 38t-153.5 107t-98 165t-34.5 213q0 122 33 221.5t94.5 170.5t148.5 110t195 39q87 0 154.5 -25.5 t114 -73.5t71 -117.5t24.5 -156.5q0 -28 -3 -55.5t-8 -52t-10.5 -45t-9.5 -34.5h-654zM553 928q-68 0 -122 -25t-93 -70t-61.5 -108t-26.5 -139h534q12 36 10 94q-1 124 -65 186t-176 62zM336 1488q24 -15 53 -35.5t57.5 -43t56 -45.5t48.5 -45q22 22 49 45t56 45.5t58 43 t53 35.5l63 -106q-44 -23 -81 -45t-71 -45t-65 -48.5t-62 -54.5q-31 29 -62 54.5t-64.5 48.5t-71 45t-80.5 45z" />
<glyph unicode="&#x11c;" horiz-adv-x="1231" d="M1113 83q-30 -23 -72.5 -41.5t-91.5 -32.5t-102.5 -21.5t-105.5 -7.5q-155 0 -275 50.5t-201.5 140.5t-123.5 215.5t-42 275.5q0 149 43.5 275t127 218t205 143.5t277.5 51.5q85 0 166 -20.5t143 -52.5l-44 -105q-23 9 -52.5 18.5t-64 17.5t-73.5 13.5t-82 5.5 q-109 0 -200 -35.5t-156.5 -104.5t-102 -172t-36.5 -238t35 -241.5t100.5 -180.5t160 -113t214.5 -39q29 0 59.5 3t58.5 8.5t52 12t41 13.5v429l-265 3v110h407v-599zM933 1490q-26 17 -55 38t-58 43t-55.5 43.5t-47.5 39.5q-21 -18 -47.5 -39.5t-55.5 -43.5t-58.5 -43 t-55.5 -38l-67 96q61 38 134.5 89t149.5 111q76 -60 149.5 -111t134.5 -89z" />
<glyph unicode="&#x11d;" horiz-adv-x="997" d="M455 326q-14 0 -26.5 1t-23.5 3q-17 -12 -32.5 -26.5t-27.5 -30.5t-19.5 -32.5t-7.5 -32.5q-1 -38 25.5 -59.5t80.5 -21.5h206q68 0 127 -18t103 -51.5t69.5 -83t25.5 -112.5q0 -66 -34 -121t-96 -94t-148.5 -61t-190.5 -22q-95 0 -170 16t-127.5 47t-80 76t-27.5 102 q0 40 16 76.5t42 67.5t60.5 56t70.5 42q-13 7 -26.5 18t-25 27t-19 36t-7.5 46q0 50 35 95.5t86 80.5q-103 36 -161 121t-58 209q0 82 28 149t78.5 115t119 74t149.5 26q67 0 125.5 -20.5t106.5 -57.5q53 45 124 64.5t144 7.5v-118q-46 8 -100.5 1.5t-99.5 -28.5 q29 -42 45 -93t16 -110q0 -82 -28 -149t-78.5 -115t-119 -74t-149.5 -26zM462 432q50 0 93 18t74.5 50t49 77.5t17.5 99.5q0 63 -17.5 111.5t-48.5 81.5t-74 50.5t-94 17.5q-50 0 -93 -18t-74.5 -50.5t-49 -77.5t-17.5 -99q0 -63 17.5 -111.5t48.5 -81.5t74 -50.5t94 -17.5z M512 -323q67 0 122.5 12t95.5 34.5t62 54.5t22 71q0 75 -53.5 114.5t-165.5 39.5h-240q-26 -11 -50.5 -28t-43.5 -38.5t-31 -47t-12 -53.5q0 -78 76.5 -118.5t217.5 -40.5zM672 1183q-26 17 -55 38t-58 43t-56 43.5t-48 39.5q-21 -18 -47.5 -39.5t-55 -43.5t-58 -43 t-55.5 -38l-68 96q61 38 135 89t149 111q77 -60 150 -111t134 -89z" />
<glyph unicode="&#x11e;" horiz-adv-x="1231" d="M1113 83q-30 -23 -72.5 -41.5t-91.5 -32.5t-102.5 -21.5t-105.5 -7.5q-155 0 -275 50.5t-201.5 140.5t-123.5 215.5t-42 275.5q0 149 43.5 275t127 218t205 143.5t277.5 51.5q85 0 166 -20.5t143 -52.5l-44 -105q-23 9 -52.5 18.5t-64 17.5t-73.5 13.5t-82 5.5 q-109 0 -200 -35.5t-156.5 -104.5t-102 -172t-36.5 -238t35 -241.5t100.5 -180.5t160 -113t214.5 -39q29 0 59.5 3t58.5 8.5t52 12t41 13.5v429l-265 3v110h407v-599zM542 1763q2 -33 12.5 -62.5t29 -51t46 -34t64.5 -12.5t64 12.5t46 34t29 51t13 62.5h101 q3 -60 -14.5 -109t-50.5 -84t-81 -54t-107 -19t-107 19t-81.5 54t-51 84t-14.5 109h102z" />
<glyph unicode="&#x11f;" horiz-adv-x="997" d="M455 326q-14 0 -26.5 1t-23.5 3q-17 -12 -32.5 -26.5t-27.5 -30.5t-19.5 -32.5t-7.5 -32.5q-1 -38 25.5 -59.5t80.5 -21.5h206q68 0 127 -18t103 -51.5t69.5 -83t25.5 -112.5q0 -66 -34 -121t-96 -94t-148.5 -61t-190.5 -22q-95 0 -170 16t-127.5 47t-80 76t-27.5 102 q0 40 16 76.5t42 67.5t60.5 56t70.5 42q-13 7 -26.5 18t-25 27t-19 36t-7.5 46q0 50 35 95.5t86 80.5q-103 36 -161 121t-58 209q0 82 28 149t78.5 115t119 74t149.5 26q67 0 125.5 -20.5t106.5 -57.5q53 45 124 64.5t144 7.5v-118q-46 8 -100.5 1.5t-99.5 -28.5 q29 -42 45 -93t16 -110q0 -82 -28 -149t-78.5 -115t-119 -74t-149.5 -26zM462 432q50 0 93 18t74.5 50t49 77.5t17.5 99.5q0 63 -17.5 111.5t-48.5 81.5t-74 50.5t-94 17.5q-50 0 -93 -18t-74.5 -50.5t-49 -77.5t-17.5 -99q0 -63 17.5 -111.5t48.5 -81.5t74 -50.5t94 -17.5z M512 -323q67 0 122.5 12t95.5 34.5t62 54.5t22 71q0 75 -53.5 114.5t-165.5 39.5h-240q-26 -11 -50.5 -28t-43.5 -38.5t-31 -47t-12 -53.5q0 -78 76.5 -118.5t217.5 -40.5zM310 1456q2 -33 12.5 -62.5t29 -51t46 -34t64.5 -12.5t64 12.5t46 34t29 51t13 62.5h101 q3 -60 -14 -109t-50.5 -84t-81.5 -54t-107 -19t-107 19t-81.5 54t-51 84t-14.5 109h102z" />
<glyph unicode="&#x120;" horiz-adv-x="1231" d="M1113 83q-30 -23 -72.5 -41.5t-91.5 -32.5t-102.5 -21.5t-105.5 -7.5q-155 0 -275 50.5t-201.5 140.5t-123.5 215.5t-42 275.5q0 149 43.5 275t127 218t205 143.5t277.5 51.5q85 0 166 -20.5t143 -52.5l-44 -105q-23 9 -52.5 18.5t-64 17.5t-73.5 13.5t-82 5.5 q-109 0 -200 -35.5t-156.5 -104.5t-102 -172t-36.5 -238t35 -241.5t100.5 -180.5t160 -113t214.5 -39q29 0 59.5 3t58.5 8.5t52 12t41 13.5v429l-265 3v110h407v-599zM620 1652q0 45 29.5 74.5t74.5 29.5q19 0 36 -7.5t30 -20.5t20.5 -30.5t7.5 -36.5q0 -23 -8 -42t-22 -33 t-32.5 -22t-40.5 -8q-19 0 -36.5 7.5t-30.5 21t-20.5 30.5t-7.5 37z" />
<glyph unicode="&#x121;" horiz-adv-x="997" d="M455 326q-14 0 -26.5 1t-23.5 3q-17 -12 -32.5 -26.5t-27.5 -30.5t-19.5 -32.5t-7.5 -32.5q-1 -38 25.5 -59.5t80.5 -21.5h206q68 0 127 -18t103 -51.5t69.5 -83t25.5 -112.5q0 -66 -34 -121t-96 -94t-148.5 -61t-190.5 -22q-95 0 -170 16t-127.5 47t-80 76t-27.5 102 q0 40 16 76.5t42 67.5t60.5 56t70.5 42q-13 7 -26.5 18t-25 27t-19 36t-7.5 46q0 50 35 95.5t86 80.5q-103 36 -161 121t-58 209q0 82 28 149t78.5 115t119 74t149.5 26q67 0 125.5 -20.5t106.5 -57.5q53 45 124 64.5t144 7.5v-118q-46 8 -100.5 1.5t-99.5 -28.5 q29 -42 45 -93t16 -110q0 -82 -28 -149t-78.5 -115t-119 -74t-149.5 -26zM462 432q50 0 93 18t74.5 50t49 77.5t17.5 99.5q0 63 -17.5 111.5t-48.5 81.5t-74 50.5t-94 17.5q-50 0 -93 -18t-74.5 -50.5t-49 -77.5t-17.5 -99q0 -63 17.5 -111.5t48.5 -81.5t74 -50.5t94 -17.5z M512 -323q67 0 122.5 12t95.5 34.5t62 54.5t22 71q0 75 -53.5 114.5t-165.5 39.5h-240q-26 -11 -50.5 -28t-43.5 -38.5t-31 -47t-12 -53.5q0 -78 76.5 -118.5t217.5 -40.5zM363 1345q0 45 29.5 74.5t73.5 29.5q19 0 36.5 -7.5t30.5 -20.5t20.5 -30.5t7.5 -36.5q0 -23 -8 -42 t-22 -33t-33 -22t-41 -8q-19 0 -36 7.5t-30 21t-20.5 30.5t-7.5 37z" />
<glyph unicode="&#x122;" horiz-adv-x="1231" d="M1113 83q-30 -23 -72.5 -41.5t-91.5 -32.5t-102.5 -21.5t-105.5 -7.5q-155 0 -275 50.5t-201.5 140.5t-123.5 215.5t-42 275.5q0 149 43.5 275t127 218t205 143.5t277.5 51.5q85 0 166 -20.5t143 -52.5l-44 -105q-23 9 -52.5 18.5t-64 17.5t-73.5 13.5t-82 5.5 q-109 0 -200 -35.5t-156.5 -104.5t-102 -172t-36.5 -238t35 -241.5t100.5 -180.5t160 -113t214.5 -39q29 0 59.5 3t58.5 8.5t52 12t41 13.5v429l-265 3v110h407v-599zM744 -102q7 -5 17.5 -17.5t21 -31t18 -42.5t7.5 -52q0 -51 -21.5 -88.5t-56.5 -63.5t-80.5 -41t-94.5 -19 l-26 76q30 6 58 17t49 27.5t33.5 38.5t12.5 49q0 23 -6 43t-14.5 35.5t-17.5 26.5t-15 17z" />
<glyph unicode="&#x123;" horiz-adv-x="1001" d="M458 326q-14 0 -26.5 1t-23.5 3q-17 -12 -32.5 -26.5t-27.5 -30.5t-19.5 -32.5t-7.5 -32.5q-1 -38 25.5 -59.5t80.5 -21.5h206q68 0 127 -18t103 -51.5t69.5 -83t25.5 -112.5q0 -66 -34 -121t-96 -94t-148.5 -61t-190.5 -22q-95 0 -170 16t-127.5 47t-80 76t-27.5 102 q0 40 16 76.5t42 67.5t60.5 56t70.5 42q-13 7 -26.5 18t-25 27t-19 36t-7.5 46q0 50 35 95.5t86 80.5q-103 36 -161 121t-58 209q0 82 28 149t78.5 115t119 74t149.5 26q67 0 125.5 -20.5t106.5 -57.5q53 45 124 64.5t144 7.5v-118q-46 8 -100.5 1.5t-99.5 -28.5 q29 -42 45 -93t16 -110q0 -82 -28 -149t-78.5 -115t-119 -74t-149.5 -26zM465 432q50 0 93 18t74.5 50t49 77.5t17.5 99.5q0 63 -17.5 111.5t-48.5 81.5t-74 50.5t-94 17.5q-50 0 -93 -18t-74.5 -50.5t-49 -77.5t-17.5 -99q0 -63 17.5 -111.5t48.5 -81.5t74 -50.5t94 -17.5z M515 -323q67 0 122.5 12t95.5 34.5t62 54.5t22 71q0 75 -53.5 114.5t-165.5 39.5h-240q-26 -11 -50.5 -28t-43.5 -38.5t-31 -47t-12 -53.5q0 -78 76.5 -118.5t217.5 -40.5zM429 1155q-7 5 -18 17.5t-21.5 30.5t-18 42t-7.5 53q0 51 21.5 88.5t56.5 63.5t81 40.5t95 19.5 l26 -76q-31 -6 -58.5 -17.5t-48.5 -27.5t-33.5 -38t-12.5 -49q0 -23 6 -43t14.5 -35.5t17.5 -26.5t15 -17z" />
<glyph unicode="&#x124;" horiz-adv-x="1335" d="M1014 612h-697v-612h-142v1330h142v-602h697v602h142v-1330h-142v612zM882 1490q-26 17 -55 38t-58 43t-55.5 43.5t-47.5 39.5q-21 -18 -47.5 -39.5t-55.5 -43.5t-58.5 -43t-55.5 -38l-67 96q61 38 134.5 89t149.5 111q76 -60 149.5 -111t134.5 -89z" />
<glyph unicode="&#x125;" horiz-adv-x="1147" d="M319 1480v-580q77 64 166.5 104t180.5 40q158 0 237 -95.5t79 -274.5v-674h-140v652q0 266 -218 266q-36 0 -77 -10.5t-81.5 -29t-78.5 -43t-68 -52.5v-783h-140v1460zM472 1518q-26 17 -55 38t-58 43t-56 43.5t-48 39.5q-21 -18 -47.5 -39.5t-55 -43.5t-58 -43 t-55.5 -38l-68 96q62 38 135.5 89t148.5 111q77 -60 150 -111t134 -89z" />
<glyph unicode="&#x126;" horiz-adv-x="1347" d="M58 1037h125v293h142v-293h697v293h142v-293h125v-100h-125v-937h-142v612h-697v-612h-142v937h-125v100zM1022 728v209h-697v-209h697z" />
<glyph unicode="&#x127;" horiz-adv-x="1147" d="M319 1480v-166h327v-100h-327v-313q77 63 166.5 103t180.5 40q158 0 237 -95.5t79 -274.5v-674h-140v653q0 266 -218 266q-36 0 -77 -11t-81.5 -29.5t-78.5 -43t-68 -52.5v-783h-140v1214h-162v100h162v146z" />
<glyph unicode="&#x128;" horiz-adv-x="500" d="M179 1330h142v-1330h-142v1330zM-45 1625q30 52 80.5 85t114.5 33q30 0 58.5 -10t55.5 -22.5t52.5 -22.5t49.5 -10q20 0 36.5 7t30 17t23.5 21t17 20l74 -68q-34 -56 -82 -87t-111 -31q-30 0 -57 10.5t-53.5 22.5t-52.5 22.5t-53 10.5q-19 0 -36 -7t-31 -17.5t-25 -21.5 t-17 -20z" />
<glyph unicode="&#x129;" horiz-adv-x="499" d="M319 1024v-1024h-140v1024h140zM-45 1325q30 52 80.5 85t113.5 33q30 0 58.5 -10t55.5 -22.5t52.5 -22.5t49.5 -10q20 0 36.5 7t30 17t23.5 21t18 20l73 -68q-34 -56 -82 -87t-111 -31q-30 0 -57 10.5t-53 22.5t-52 22.5t-53 10.5q-20 0 -37 -7t-31 -17.5t-24.5 -21.5 t-16.5 -20z" />
<glyph unicode="&#x12a;" horiz-adv-x="500" d="M179 1330h142v-1330h-142v1330zM-12 1711h524v-107h-524v107z" />
<glyph unicode="&#x12b;" horiz-adv-x="499" d="M319 1024v-1024h-140v1024h140zM-12 1404h524v-107h-524v107z" />
<glyph unicode="&#x12c;" horiz-adv-x="500" d="M175 1330h141v-1330h-141v1330zM94 1763q2 -33 12.5 -62.5t29 -51t46 -34t64.5 -12.5t64 12.5t46 34t29 51t12 62.5h102q3 -60 -14.5 -109t-50.5 -84t-81 -54t-107 -19t-107 19t-81.5 54t-51 84t-14.5 109h102z" />
<glyph unicode="&#x12d;" horiz-adv-x="499" d="M319 1024v-1024h-140v1024h140zM98 1456q2 -33 12.5 -62.5t29 -51t46 -34t64.5 -12.5t64 12.5t46 34t29 51t13 62.5h101q3 -60 -14.5 -109t-50.5 -84t-81 -54t-107 -19t-107 19t-81.5 54t-51 84t-14.5 109h102z" />
<glyph unicode="&#x12e;" horiz-adv-x="500" d="M295 0q-27 -20 -54 -45t-49 -53.5t-36 -59.5t-14 -63q0 -51 26.5 -75t68.5 -24q19 0 37 4t33 9t24.5 9.5t12.5 6.5l32 -74q-7 -6 -22 -14.5t-36 -16.5t-47 -14t-54 -6q-40 0 -75 11.5t-61.5 33.5t-42 54t-15.5 72q0 39 13.5 74t35 66t49.5 57.5t58 48.5v1329h142v-1330 h-26z" />
<glyph unicode="&#x12f;" horiz-adv-x="499" d="M319 1024v-1024h-24q-27 -20 -54 -45t-49 -53.5t-36 -59.5t-14 -63q0 -51 26.5 -75t68.5 -24q19 0 37 4t33 9t24.5 9.5t12.5 6.5l32 -74q-7 -6 -22 -14.5t-36 -16.5t-47 -14t-54 -6q-40 0 -75 11.5t-61.5 33.5t-42 54t-15.5 72q0 39 13.5 74t35 66t49.5 57.5t58 48.5 v1023h140zM150 1345q0 45 29.5 74.5t74.5 29.5q19 0 36 -7.5t30 -20.5t20.5 -30.5t7.5 -36.5q0 -23 -8 -42t-22 -33t-32.5 -22t-40.5 -8q-19 0 -36.5 7.5t-30.5 21t-20.5 30.5t-7.5 37z" />
<glyph unicode="&#x130;" horiz-adv-x="500" d="M179 1330h142v-1330h-142v1330zM151 1647q0 45 29.5 74.5t74.5 29.5q19 0 36 -7.5t30 -20.5t20.5 -30.5t7.5 -36.5q0 -23 -8 -42t-22 -33t-32.5 -22t-40.5 -8q-19 0 -36.5 7.5t-30.5 21t-20.5 30.5t-7.5 37z" />
<glyph unicode="&#x131;" horiz-adv-x="499" d="M319 1024v-1024h-140v1024h140z" />
<glyph unicode="&#x132;" horiz-adv-x="1155" d="M179 1330h142v-1330h-142v1330zM1016 1330v-1036q0 -152 -82.5 -233t-240.5 -81q-23 0 -48.5 4t-50.5 11.5t-47.5 17.5t-38.5 22l37 100q29 -14 66.5 -23t91.5 -9q85 0 128 44.5t43 131.5v1051h142z" />
<glyph unicode="&#x133;" horiz-adv-x="974" d="M319 1024v-1024h-140v1024h140zM150 1345q0 45 29.5 74.5t74.5 29.5q19 0 36 -7.5t30 -20.5t20.5 -30.5t7.5 -36.5q0 -23 -8 -42t-22 -33t-32.5 -22t-40.5 -8q-19 0 -36.5 7.5t-30.5 21t-20.5 30.5t-7.5 37zM655 1024h140v-1073q0 -98 -20.5 -167.5t-61.5 -113.5 t-102 -65t-143 -21q-10 0 -22.5 0.5t-24.5 2t-22.5 2.5t-17.5 3l15 117q6 -2 16 -3t21 -2q16 0 31 1t29 3q85 7 123.5 60t38.5 167v1089zM626 1345q0 45 29.5 74.5t74.5 29.5q19 0 36 -7.5t30 -20.5t20.5 -30.5t7.5 -36.5q0 -23 -8 -42t-22 -33t-32.5 -22t-40.5 -8 q-19 0 -36.5 7.5t-30.5 21t-20.5 30.5t-7.5 37z" />
<glyph unicode="&#x134;" horiz-adv-x="679" d="M540 1330v-1036q0 -152 -82 -233t-240 -81q-23 0 -49 4t-51 11.5t-47.5 17.5t-38.5 22l37 100q29 -14 66.5 -23t91.5 -9q85 0 128 44.5t43 131.5v1051h142zM688 1490q-26 17 -55 38t-58 43t-55.5 43.5t-47.5 39.5q-21 -18 -47.5 -39.5t-55.5 -43.5t-58.5 -43t-55.5 -38 l-67 96q61 38 134.5 89t149.5 111q76 -60 149.5 -111t134.5 -89z" />
<glyph unicode="&#x135;" horiz-adv-x="500" d="M181 1024h139v-1073q0 -98 -20.5 -167.5t-61.5 -113.5t-102 -65t-143 -21q-20 0 -46.5 2.5t-40.5 5.5l15 117q15 -3 37 -5q17 0 32 1t29 3q84 7 123 60t39 167v1089zM465 1183q-26 17 -55 38t-58 43t-55.5 43.5t-47.5 39.5q-21 -18 -47.5 -39.5t-55.5 -43.5t-58.5 -43 t-55.5 -38l-67 96q61 38 134.5 89t149.5 111q76 -60 149.5 -111t134.5 -89z" />
<glyph unicode="&#x136;" horiz-adv-x="1187" d="M321 535l595 795h169l-431 -570l499 -760h-169l-422 656l-241 -307v-349h-142v1330h142v-795zM656 -102q7 -5 17.5 -17.5t21 -31t18 -42.5t7.5 -52q0 -51 -21.5 -88.5t-56.5 -63.5t-80.5 -41t-94.5 -19l-26 76q31 6 58.5 17t48.5 27.5t33.5 38.5t12.5 49q0 23 -6 43 t-14.5 35.5t-17.5 26.5t-15 17z" />
<glyph unicode="&#x137;" horiz-adv-x="1047" d="M319 1480v-1035l459 579h163l-343 -430l384 -594h-162l-321 499l-180 -221v-278h-140v1460zM592 -102q7 -5 17.5 -17.5t21 -31t18 -42.5t7.5 -52q0 -51 -21.5 -88.5t-56.5 -63.5t-80.5 -41t-94.5 -19l-26 76q30 6 58 17t49 27.5t33.5 38.5t12.5 49q0 23 -6 43t-14.5 35.5 t-17.5 26.5t-15 17z" />
<glyph unicode="&#x138;" horiz-adv-x="1047" d="M319 1024v-579l459 579h163l-343 -430q96 -149 192 -297t192 -297h-162l-321 499h-1l-179 -221v-278h-140v1024h140z" />
<glyph unicode="&#x139;" horiz-adv-x="928" d="M894 0h-715v1330h142v-1214h573v-116zM83 1593l431 208l57 -127l-451 -164z" />
<glyph unicode="&#x13a;" horiz-adv-x="499" d="M319 1480v-1480h-140v1460zM39 1630l431 208l57 -127l-451 -164z" />
<glyph unicode="&#x13b;" horiz-adv-x="928" d="M894 0h-715v1330h142v-1214h573v-116zM600 -102q7 -5 18 -17.5t21.5 -31t18 -42.5t7.5 -52q0 -51 -21.5 -88.5t-56.5 -63.5t-81 -41t-95 -19l-26 76q31 6 58.5 17t48.5 27.5t33.5 38.5t12.5 49q0 23 -6 43t-14.5 35.5t-17.5 26.5t-15 17z" />
<glyph unicode="&#x13c;" horiz-adv-x="499" d="M319 1480v-1480h-140v1460zM300 -102q7 -5 18 -17.5t21.5 -31t18 -42.5t7.5 -52q0 -51 -21.5 -88.5t-56.5 -63.5t-81 -41t-95 -19l-26 76q31 6 58.5 17t48.5 27.5t33.5 38.5t12.5 49q0 23 -6 43t-14.5 35.5t-17.5 26.5t-15 17z" />
<glyph unicode="&#x13d;" horiz-adv-x="928" d="M894 0h-715v1330h142v-1214h573v-116zM688 1361q7 -5 17.5 -17.5t21 -31t18 -42.5t7.5 -52q0 -51 -21.5 -88.5t-56.5 -63.5t-80.5 -41t-94.5 -19l-26 76q31 6 58.5 17t48.5 27.5t33.5 38.5t12.5 49q0 23 -6 43t-14.5 35.5t-17.5 26.5t-15 17z" />
<glyph unicode="&#x13e;" horiz-adv-x="594" d="M581 1523q7 -5 19 -18.5t24 -34t20.5 -46.5t8.5 -57q0 -47 -15 -85t-39 -67.5t-55 -51t-63 -35.5l-48 66q15 10 31.5 24t30 33.5t22.5 44t9 54.5q0 25 -9 48.5t-21 42t-24.5 32.5t-19.5 20zM319 1480v-1480h-140v1460z" />
<glyph unicode="&#x13f;" horiz-adv-x="928" d="M894 0h-715v1330h142v-1214h573v-116zM584 693q0 45 29.5 74.5t73.5 29.5q19 0 36.5 -7.5t30.5 -20.5t20.5 -30.5t7.5 -36.5q0 -46 -29.5 -76t-74.5 -30q-19 0 -36 7.5t-30 21t-20.5 31t-7.5 37.5z" />
<glyph unicode="&#x140;" horiz-adv-x="652" d="M319 1480v-1480h-140v1460zM474 743q0 45 29.5 74.5t74.5 29.5q19 0 36 -7.5t30 -20.5t21 -30.5t8 -36.5q0 -46 -30 -76t-74 -30q-19 0 -36.5 7.5t-30.5 21t-20.5 31t-7.5 37.5z" />
<glyph unicode="&#x141;" horiz-adv-x="948" d="M-20 509l220 165v656h141v-549l264 198l70 -90l-334 -252v-521h573v-116h-714v531l-150 -112z" />
<glyph unicode="&#x142;" horiz-adv-x="588" d="M364 1480v-650l136 102l70 -90l-206 -155v-687h-140v582l-137 -103l-70 91l207 155v735z" />
<glyph unicode="&#x143;" horiz-adv-x="1341" d="M318 1151v-1151h-139v1330h182l662 -1152v1152h138v-1330h-181zM467 1591l431 208l57 -127l-451 -164z" />
<glyph unicode="&#x144;" horiz-adv-x="1147" d="M290 1024l16 -134q39 34 83 62t89.5 48.5t93 32t94.5 11.5q158 0 237 -95.5t79 -274.5v-674h-140v652q0 266 -218 266q-36 0 -77 -10.5t-81.5 -29t-78.5 -43t-68 -52.5v-783h-140v1024h111zM353 1291l431 208l56 -127l-450 -164z" />
<glyph unicode="&#x145;" horiz-adv-x="1341" d="M318 1151v-1151h-139v1330h182l662 -1152v1152h138v-1330h-181zM717 -102q7 -5 17.5 -17.5t21 -31t18 -42.5t7.5 -52q0 -51 -21.5 -88.5t-56.5 -63.5t-80.5 -41t-94.5 -19l-26 76q31 6 58.5 17t48.5 27.5t33.5 38.5t12.5 49q0 23 -6 43t-14.5 35.5t-17.5 26.5t-15 17z " />
<glyph unicode="&#x146;" horiz-adv-x="1147" d="M290 1024l16 -134q39 34 83 62t89.5 48.5t93 32t94.5 11.5q158 0 237 -95.5t79 -274.5v-674h-140v652q0 266 -218 266q-36 0 -77 -10.5t-81.5 -29t-78.5 -43t-68 -52.5v-783h-140v1024h111zM611 -102q7 -5 17.5 -17.5t21 -31t18 -42.5t7.5 -52q0 -51 -21.5 -88.5 t-56.5 -63.5t-80.5 -41t-94.5 -19l-26 76q31 6 58.5 17t48.5 27.5t33.5 38.5t12.5 49q0 23 -6 43t-14.5 35.5t-17.5 26.5t-15 17z" />
<glyph unicode="&#x147;" horiz-adv-x="1341" d="M318 1151v-1151h-139v1330h182l662 -1152v1152h138v-1330h-181zM464 1788q24 -15 53 -35.5t58 -43t56 -45.5t49 -45q21 22 48.5 45t56 45.5t57.5 43t53 35.5l63 -106q-44 -23 -81 -45t-70.5 -45t-64.5 -48.5t-62 -54.5q-31 29 -62 54.5t-65 48.5t-71.5 45t-80.5 45z" />
<glyph unicode="&#x148;" horiz-adv-x="1147" d="M290 1024l16 -134q39 34 83 62t89.5 48.5t93 32t94.5 11.5q158 0 237 -95.5t79 -274.5v-674h-140v652q0 266 -218 266q-36 0 -77 -10.5t-81.5 -29t-78.5 -43t-68 -52.5v-783h-140v1024h111zM367 1488q24 -15 53 -35.5t57.5 -43t56 -45.5t48.5 -45q22 22 49 45t56 45.5 t57.5 43t53.5 35.5l62 -106q-44 -23 -81 -45t-70.5 -45t-64.5 -48.5t-62 -54.5q-31 29 -62 54.5t-64.5 48.5t-71 45t-80.5 45z" />
<glyph unicode="&#x149;" horiz-adv-x="1235" d="M378 1024l16 -134q39 34 83 62t89.5 48.5t93 32t94.5 11.5q158 0 237 -95.5t79 -274.5v-674h-140v652q0 266 -218 266q-36 0 -77 -10.5t-81.5 -29t-78.5 -43t-68 -52.5v-783h-140v1024h111zM-17 1040q21 40 40.5 98t19.5 127q0 33 -5.5 61.5t-13 51.5t-15.5 40.5 t-14 28.5l148 25q11 -22 25 -69t14 -116q0 -46 -12 -88.5t-29 -78.5t-37 -64.5t-36 -45.5z" />
<glyph unicode="&#x14a;" horiz-adv-x="1341" d="M1161 -102q0 -152 -80 -233t-235 -81q-25 0 -51 4t-50 10.5t-44.5 15t-34.5 18.5l39 103q26 -14 62.5 -21t87.5 -7q82 0 123.5 44.5t41.5 131.5v96l-699 1145v-1124h-142v1331h178l662 -1103v1103h142v-1433z" />
<glyph unicode="&#x14b;" horiz-adv-x="1147" d="M290 1024l16 -134q39 34 83 62t89.5 48.5t93 32t94.5 11.5q158 0 237 -95.5t79 -274.5v-723q0 -98 -21 -167.5t-63 -113.5t-104.5 -65t-145.5 -21q-19 0 -43.5 2.5t-37.5 5.5l15 117q12 -2 30.5 -3.5t35.5 -1.5q51 0 87.5 12.5t60 40.5t35 72t11.5 106v717 q0 266 -218 266q-36 0 -77 -10.5t-81.5 -29t-78.5 -43t-68 -52.5v-783h-140v1024h111z" />
<glyph unicode="&#x14c;" horiz-adv-x="1396" d="M705 100q101 0 182.5 38.5t139 110t88.5 174t31 230.5q0 134 -31.5 241t-90.5 181.5t-143 114.5t-190 40q-101 0 -182 -38.5t-139 -110.5t-89 -174.5t-31 -229.5q0 -134 31.5 -241t90.5 -181.5t143 -114.5t190 -40zM692 -20q-136 0 -245.5 48t-187 136.5t-119 214.5 t-41.5 283q0 159 42.5 286t121 216.5t190.5 137.5t251 48q136 0 245.5 -48t187 -136.5t119 -214.5t41.5 -283q0 -159 -42 -286t-121 -216.5t-191 -137.5t-251 -48zM437 1711h524v-107h-524v107z" />
<glyph unicode="&#x14d;" horiz-adv-x="1138" d="M563 -20q-104 0 -189 38t-146.5 107t-95 165.5t-33.5 213.5q0 121 34.5 221t97 170.5t150 109.5t194.5 39q103 0 188.5 -38t147 -107t95 -165t33.5 -213q0 -122 -34.5 -221.5t-97 -170.5t-150 -110t-194.5 -39zM575 96q72 0 130 28.5t99 82t63.5 129t22.5 168.5 q0 98 -22.5 176.5t-65 133.5t-103 84.5t-136.5 29.5q-72 0 -130 -29t-99 -82t-63.5 -128t-22.5 -168q0 -99 22.5 -177.5t65 -133.5t103 -84.5t136.5 -29.5zM307 1404h524v-107h-524v107z" />
<glyph unicode="&#x14e;" horiz-adv-x="1396" d="M705 100q101 0 182.5 38.5t139 110t88.5 174t31 230.5q0 134 -31.5 241t-90.5 181.5t-143 114.5t-190 40q-101 0 -182 -38.5t-139 -110.5t-89 -174.5t-31 -229.5q0 -134 31.5 -241t90.5 -181.5t143 -114.5t190 -40zM692 -20q-136 0 -245.5 48t-187 136.5t-119 214.5 t-41.5 283q0 159 42.5 286t121 216.5t190.5 137.5t251 48q136 0 245.5 -48t187 -136.5t119 -214.5t41.5 -283q0 -159 -42 -286t-121 -216.5t-191 -137.5t-251 -48zM547 1763q2 -33 12.5 -62.5t29 -51t46 -34t64.5 -12.5t64 12.5t46 34t29 51t13 62.5h101q3 -60 -14 -109 t-50.5 -84t-81.5 -54t-107 -19t-107 19t-81.5 54t-50.5 84t-14 109h101z" />
<glyph unicode="&#x14f;" horiz-adv-x="1138" d="M563 -20q-104 0 -189 38t-146.5 107t-95 165.5t-33.5 213.5q0 121 34.5 221t97 170.5t150 109.5t194.5 39q103 0 188.5 -38t147 -107t95 -165t33.5 -213q0 -122 -34.5 -221.5t-97 -170.5t-150 -110t-194.5 -39zM575 96q72 0 130 28.5t99 82t63.5 129t22.5 168.5 q0 98 -22.5 176.5t-65 133.5t-103 84.5t-136.5 29.5q-72 0 -130 -29t-99 -82t-63.5 -128t-22.5 -168q0 -99 22.5 -177.5t65 -133.5t103 -84.5t136.5 -29.5zM417 1456q3 -33 13 -62.5t29 -51t46 -34t64 -12.5t64.5 12.5t46 34t29 51t12.5 62.5h101q3 -60 -14 -109t-50.5 -84 t-81.5 -54t-107 -19t-107 19t-81.5 54t-50.5 84t-14 109h101z" />
<glyph unicode="&#x150;" horiz-adv-x="1396" d="M705 100q101 0 182.5 38.5t139 110t88.5 174t31 230.5q0 134 -31.5 241t-90.5 181.5t-143 114.5t-190 40q-101 0 -182 -38.5t-139 -110.5t-89 -174.5t-31 -229.5q0 -134 31.5 -241t90.5 -181.5t143 -114.5t190 -40zM692 -20q-136 0 -245.5 48t-187 136.5t-119 214.5 t-41.5 283q0 159 42.5 286t121 216.5t190.5 137.5t251 48q136 0 245.5 -48t187 -136.5t119 -214.5t41.5 -283q0 -159 -42 -286t-121 -216.5t-191 -137.5t-251 -48zM765 1544l230 297l100 -75l-255 -279zM452 1534l237 307l101 -75l-264 -288z" />
<glyph unicode="&#x151;" horiz-adv-x="1138" d="M563 -20q-104 0 -189 38t-146.5 107t-95 165.5t-33.5 213.5q0 121 34.5 221t97 170.5t150 109.5t194.5 39q103 0 188.5 -38t147 -107t95 -165t33.5 -213q0 -122 -34.5 -221.5t-97 -170.5t-150 -110t-194.5 -39zM575 96q72 0 130 28.5t99 82t63.5 129t22.5 168.5 q0 98 -22.5 176.5t-65 133.5t-103 84.5t-136.5 29.5q-72 0 -130 -29t-99 -82t-63.5 -128t-22.5 -168q0 -99 22.5 -177.5t65 -133.5t103 -84.5t136.5 -29.5zM628 1237l229 297l101 -75l-255 -279zM315 1227l237 307l100 -75l-263 -288z" />
<glyph unicode="&#x152;" horiz-adv-x="1912" d="M1783 1215h-596v-487h575v-116h-575v-496h616v-116h-757v108q-72 -61 -161 -94.5t-193 -33.5q-135 0 -244.5 50.5t-187 140.5t-119.5 215.5t-42 275.5q0 149 43 275t122 218t191 143.5t249 51.5q100 0 186 -32.5t156 -92.5v106h737v-116zM705 100q100 0 189.5 43.5 t151.5 125.5v786q-61 83 -153.5 129t-201.5 46q-89 0 -168.5 -36t-140.5 -105.5t-96.5 -173t-35.5 -238.5t34.5 -242t95.5 -181.5t144.5 -114t180.5 -39.5z" />
<glyph unicode="&#x153;" horiz-adv-x="1666" d="M882 484q4 -82 26.5 -148.5t61.5 -115t93.5 -77t123.5 -34.5q31 -3 60 -3t58 2q51 5 98.5 15t82.5 24l37 -104q-57 -29 -139.5 -46t-173.5 -17q-100 0 -182.5 33t-145.5 94q-61 -61 -141.5 -94t-177.5 -33q-104 0 -189 38t-146.5 107t-95 165.5t-33.5 213.5 q0 121 34.5 221t97 170.5t150 109.5t194.5 39q93 0 170.5 -31.5t137.5 -91.5q60 60 139.5 91.5t178.5 31.5q87 0 155 -25.5t115 -73.5t71.5 -118t24.5 -160q0 -24 -3 -50t-7.5 -50.5t-10 -46t-11.5 -36.5h-653zM575 96q74 0 133 27.5t101 79.5q-37 61 -56 136t-19 163 q0 94 18.5 173.5t53.5 143.5q-42 53 -103.5 81t-139.5 28q-72 0 -130 -29t-99 -82t-63.5 -128t-22.5 -168q0 -99 22.5 -177.5t65 -133.5t103 -84.5t136.5 -29.5zM1188 928q-66 0 -119 -24t-92 -69t-62.5 -108t-29.5 -141h534q5 24 6.5 44.5t1.5 42.5q0 124 -63 189.5 t-176 65.5z" />
<glyph unicode="&#x154;" horiz-adv-x="1115" d="M179 0v1330h399q101 0 183.5 -26t140.5 -75t89.5 -119.5t31.5 -159.5q0 -65 -23.5 -123.5t-63.5 -107t-93 -85t-111 -56.5l308 -578h-152l-288 553h-279v-553h-142zM321 1217v-552h340q45 13 83.5 38t67 60.5t44.5 79t16 92.5q0 134 -78.5 208t-224.5 74h-248zM317 1593 l431 208l56 -127l-450 -164z" />
<glyph unicode="&#x155;" horiz-adv-x="700" d="M285 1024l22 -150q24 28 61.5 56.5t82.5 52.5t95 40.5t100 20.5v-143q-48 -4 -95 -16t-89.5 -29.5t-78.5 -39.5t-62 -46v-770h-140v1024h104zM184 1291l430 208l57 -127l-450 -164z" />
<glyph unicode="&#x156;" horiz-adv-x="1115" d="M179 0v1330h399q101 0 183.5 -26t140.5 -75t89.5 -119.5t31.5 -159.5q0 -65 -23.5 -123.5t-63.5 -107t-93 -85t-111 -56.5l308 -578h-152l-288 553h-279v-553h-142zM321 1217v-552h340q45 13 83.5 38t67 60.5t44.5 79t16 92.5q0 134 -78.5 208t-224.5 74h-248zM625 -102 q7 -5 17.5 -17.5t21 -31t18 -42.5t7.5 -52q0 -51 -21.5 -88.5t-56.5 -63.5t-80.5 -41t-94.5 -19l-26 76q31 6 58.5 17t48.5 27.5t33.5 38.5t12.5 49q0 23 -6 43t-14.5 35.5t-17.5 26.5t-15 17z" />
<glyph unicode="&#x157;" horiz-adv-x="699" d="M283 1024l23 -150q24 28 61.5 56.5t82.5 52.5t95 40.5t99 20.5v-143q-47 -4 -94 -16t-90 -29.5t-79 -39.5t-62 -46v-770h-139q0 257 -0.5 512t-0.5 512h104zM309 -102q7 -5 18 -17.5t21.5 -31t18 -42.5t7.5 -52q0 -51 -21.5 -88.5t-56.5 -63.5t-81 -41t-95 -19l-26 76 q31 6 58.5 17t48.5 27.5t33.5 38.5t12.5 49q0 23 -6 43t-14.5 35.5t-17.5 26.5t-15 17z" />
<glyph unicode="&#x158;" horiz-adv-x="1115" d="M179 0v1330h399q101 0 183.5 -26t140.5 -75t89.5 -119.5t31.5 -159.5q0 -65 -23.5 -123.5t-63.5 -107t-93 -85t-111 -56.5l308 -578h-152l-288 553h-279v-553h-142zM321 1217v-552h340q45 13 83.5 38t67 60.5t44.5 79t16 92.5q0 134 -78.5 208t-224.5 74h-248zM322 1790 q24 -15 53 -35.5t58 -43t56 -45.5t49 -45q21 22 48.5 45t56 45.5t57.5 43t53 35.5l63 -106q-44 -23 -81 -45t-70.5 -45t-64.5 -48.5t-62 -54.5q-31 29 -62 54.5t-65 48.5t-71.5 45t-80.5 45z" />
<glyph unicode="&#x159;" horiz-adv-x="699" d="M283 1024l23 -150q24 28 61.5 56.5t82.5 52.5t95 40.5t99 20.5v-143q-47 -4 -94 -16t-90 -29.5t-79 -39.5t-62 -46v-770h-139q0 257 -0.5 512t-0.5 512h104zM155 1488q24 -15 53 -35.5t57.5 -43t56 -45.5t48.5 -45q22 22 49 45t56 45.5t58 43t53 35.5l63 -106 q-44 -23 -81 -45t-71 -45t-65 -48.5t-62 -54.5q-31 29 -62 54.5t-64.5 48.5t-71 45t-80.5 45z" />
<glyph unicode="&#x15a;" horiz-adv-x="994" d="M125 183q60 -31 144.5 -55.5t186.5 -24.5q70 0 126 15.5t95.5 44t60.5 69t21 90.5q0 46 -14 83t-45 68.5t-80.5 60t-120.5 57.5l-138 57q-62 26 -111.5 59t-84 75.5t-52.5 95.5t-18 119q0 80 34 145.5t92.5 111.5t136 71t163.5 25q98 0 181 -22t143 -49l-35 -112 q-27 11 -61 21.5t-72.5 19t-79.5 14t-82 5.5q-62 0 -112.5 -16t-86.5 -44.5t-56.5 -69t-20.5 -88.5q0 -47 11.5 -83.5t38.5 -66.5t70 -55.5t106 -51.5l142 -61q145 -63 221 -149t76 -210q0 -82 -31 -147.5t-89 -111t-142 -69.5t-189 -24q-59 0 -113.5 8t-102 21t-86 29.5 t-65.5 33.5zM267 1591l430 208l57 -127l-450 -164z" />
<glyph unicode="&#x15b;" horiz-adv-x="820" d="M125 167q20 -10 49 -21.5t64.5 -21t77 -16t86.5 -6.5q48 0 87 9t67.5 27t44 45.5t15.5 65.5q0 35 -12.5 62.5t-38.5 50.5t-66.5 44t-96.5 44l-87 34q-104 40 -161 107t-57 169q0 67 27.5 119.5t74.5 89t108.5 56t130.5 19.5q48 0 91 -6.5t78.5 -15.5t62 -19t43.5 -18 l-35 -115q-17 7 -42 16t-56 16.5t-67.5 13t-77.5 5.5q-91 0 -146.5 -40t-55.5 -112q0 -29 8 -53.5t29 -46.5t58 -43.5t96 -44.5l88 -35q58 -23 102.5 -51t75.5 -63t47 -78.5t16 -97.5q0 -63 -23 -114t-68 -87t-111 -55.5t-151 -19.5q-106 0 -186 22.5t-130 51.5zM188 1291 l431 208l56 -127l-450 -164z" />
<glyph unicode="&#x15c;" horiz-adv-x="994" d="M125 183q60 -31 144.5 -55.5t186.5 -24.5q70 0 126 15.5t95.5 44t60.5 69t21 90.5q0 46 -14 83t-45 68.5t-80.5 60t-120.5 57.5l-138 57q-62 26 -111.5 59t-84 75.5t-52.5 95.5t-18 119q0 80 34 145.5t92.5 111.5t136 71t163.5 25q98 0 181 -22t143 -49l-35 -112 q-27 11 -61 21.5t-72.5 19t-79.5 14t-82 5.5q-62 0 -112.5 -16t-86.5 -44.5t-56.5 -69t-20.5 -88.5q0 -47 11.5 -83.5t38.5 -66.5t70 -55.5t106 -51.5l142 -61q145 -63 221 -149t76 -210q0 -82 -31 -147.5t-89 -111t-142 -69.5t-189 -24q-59 0 -113.5 8t-102 21t-86 29.5 t-65.5 33.5zM723 1483q-26 17 -55 38t-58 43t-55.5 43.5t-47.5 39.5q-21 -18 -48 -39.5t-55.5 -43.5t-58 -43t-55.5 -38l-67 96q61 38 134.5 89t149.5 111q76 -60 149 -111t135 -89z" />
<glyph unicode="&#x15d;" horiz-adv-x="820" d="M125 167q20 -10 49 -21.5t64.5 -21t77 -16t86.5 -6.5q48 0 87 9t67.5 27t44 45.5t15.5 65.5q0 35 -12.5 62.5t-38.5 50.5t-66.5 44t-96.5 44l-87 34q-104 40 -161 107t-57 169q0 67 27.5 119.5t74.5 89t108.5 56t130.5 19.5q48 0 91 -6.5t78.5 -15.5t62 -19t43.5 -18 l-35 -115q-17 7 -42 16t-56 16.5t-67.5 13t-77.5 5.5q-91 0 -146.5 -40t-55.5 -112q0 -29 8 -53.5t29 -46.5t58 -43.5t96 -44.5l88 -35q58 -23 102.5 -51t75.5 -63t47 -78.5t16 -97.5q0 -63 -23 -114t-68 -87t-111 -55.5t-151 -19.5q-106 0 -186 22.5t-130 51.5zM633 1183 q-26 17 -55 38t-58 43t-56 43.5t-48 39.5q-21 -18 -47.5 -39.5t-55 -43.5t-58 -43t-55.5 -38l-68 96q61 38 135 89t149 111q77 -60 150 -111t134 -89z" />
<glyph unicode="&#x15e;" horiz-adv-x="994" d="M125 183q60 -31 144.5 -55.5t186.5 -24.5q70 0 126 15.5t95.5 44t60.5 69t21 90.5q0 46 -14 83t-45 68.5t-80.5 60t-120.5 57.5l-138 57q-62 26 -111.5 59t-84 75.5t-52.5 95.5t-18 119q0 80 34 145.5t92.5 111.5t136 71t163.5 25q98 0 181 -22t143 -49l-35 -112 q-27 11 -61 21.5t-72.5 19t-79.5 14t-82 5.5q-62 0 -112.5 -16t-86.5 -44.5t-56.5 -69t-20.5 -88.5q0 -47 11.5 -83.5t38.5 -66.5t70 -55.5t106 -51.5l142 -61q145 -63 221 -149t76 -210q0 -82 -31 -147.5t-89 -111t-142 -69.5t-189 -24q-59 0 -113.5 8t-102 21t-86 29.5 t-65.5 33.5zM345 -336q8 -2 22 -4.5t31 -3.5q9 -1 18 -0.5t17 0.5q40 2 56.5 24.5t16.5 48.5q0 32 -20 53.5t-63 21.5h-59l8 83h75q76 0 122 -37t46 -109q0 -81 -52.5 -126t-152.5 -45q-23 0 -45 4t-35 9z" />
<glyph unicode="&#x15f;" horiz-adv-x="820" d="M125 167q20 -10 49 -21.5t64.5 -21t77 -16t86.5 -6.5q48 0 87 9t67.5 27t44 45.5t15.5 65.5q0 35 -12.5 62.5t-38.5 50.5t-66.5 44t-96.5 44l-87 34q-104 40 -161 107t-57 169q0 67 27.5 119.5t74.5 89t108.5 56t130.5 19.5q48 0 91 -6.5t78.5 -15.5t62 -19t43.5 -18 l-35 -115q-17 7 -42 16t-56 16.5t-67.5 13t-77.5 5.5q-91 0 -146.5 -40t-55.5 -112q0 -29 8 -53.5t29 -46.5t58 -43.5t96 -44.5l88 -35q58 -23 102.5 -51t75.5 -63t47 -78.5t16 -97.5q0 -63 -23 -114t-68 -87t-111 -55.5t-151 -19.5q-106 0 -186 22.5t-130 51.5zM269 -336 q8 -2 22.5 -4.5t31.5 -3.5q9 -1 17.5 -0.5t16.5 0.5q40 2 56.5 24.5t16.5 48.5q0 32 -20 53.5t-62 21.5h-60l8 83h76q75 0 121 -37t46 -109q0 -81 -52.5 -126t-152.5 -45q-23 0 -45 4t-35 9z" />
<glyph unicode="&#x160;" horiz-adv-x="994" d="M125 183q60 -31 144.5 -55.5t186.5 -24.5q70 0 126 15.5t95.5 44t60.5 69t21 90.5q0 46 -14 83t-45 68.5t-80.5 60t-120.5 57.5l-138 57q-62 26 -111.5 59t-84 75.5t-52.5 95.5t-18 119q0 80 34 145.5t92.5 111.5t136 71t163.5 25q98 0 181 -22t143 -49l-35 -112 q-27 11 -61 21.5t-72.5 19t-79.5 14t-82 5.5q-62 0 -112.5 -16t-86.5 -44.5t-56.5 -69t-20.5 -88.5q0 -47 11.5 -83.5t38.5 -66.5t70 -55.5t106 -51.5l142 -61q145 -63 221 -149t76 -210q0 -82 -31 -147.5t-89 -111t-142 -69.5t-189 -24q-59 0 -113.5 8t-102 21t-86 29.5 t-65.5 33.5zM280 1788q24 -15 53 -35.5t57.5 -43t56 -45.5t48.5 -45q22 22 49 45t56 45.5t57.5 43t53.5 35.5l63 -106q-44 -23 -81.5 -45t-71 -45t-64.5 -48.5t-62 -54.5q-31 29 -62 54.5t-64.5 48.5t-71 45t-80.5 45z" />
<glyph unicode="&#x161;" horiz-adv-x="820" d="M125 167q20 -10 49 -21.5t64.5 -21t77 -16t86.5 -6.5q48 0 87 9t67.5 27t44 45.5t15.5 65.5q0 35 -12.5 62.5t-38.5 50.5t-66.5 44t-96.5 44l-87 34q-104 40 -161 107t-57 169q0 67 27.5 119.5t74.5 89t108.5 56t130.5 19.5q48 0 91 -6.5t78.5 -15.5t62 -19t43.5 -18 l-35 -115q-17 7 -42 16t-56 16.5t-67.5 13t-77.5 5.5q-91 0 -146.5 -40t-55.5 -112q0 -29 8 -53.5t29 -46.5t58 -43.5t96 -44.5l88 -35q58 -23 102.5 -51t75.5 -63t47 -78.5t16 -97.5q0 -63 -23 -114t-68 -87t-111 -55.5t-151 -19.5q-106 0 -186 22.5t-130 51.5zM201 1488 q24 -15 53 -35.5t57.5 -43t56 -45.5t48.5 -45q22 22 49 45t56 45.5t57.5 43t53.5 35.5l63 -106q-44 -23 -81.5 -45t-71 -45t-64.5 -48.5t-62 -54.5q-31 29 -62 54.5t-64.5 48.5t-71 45t-80.5 45z" />
<glyph unicode="&#x162;" horiz-adv-x="996" d="M34 1330h927v-116h-392v-1214h-142v1214h-393v116zM378 -336q8 -2 22.5 -4.5t31.5 -3.5q9 -1 17.5 -0.5t16.5 0.5q40 2 57 24.5t17 48.5q0 32 -20.5 53.5t-62.5 21.5h-60l8 83h76q76 0 121.5 -37t45.5 -109q0 -81 -52 -126t-152 -45q-23 0 -45.5 4t-34.5 9z" />
<glyph unicode="&#x163;" horiz-adv-x="752" d="M321 -336q8 -2 22 -4.5t31 -3.5q10 -1 18.5 -0.5t16.5 0.5q40 2 56.5 24.5t16.5 48.5q0 32 -20 53.5t-62 21.5h-60l8 83h75q76 0 122 -37t46 -109q0 -81 -52.5 -126t-152.5 -45q-23 0 -45 4t-35 9zM343 1024h313v-115h-307v-616q0 -103 43 -148.5t139 -45.5 q15 0 32.5 1.5t35.5 4t34 6t28 7.5l27 -109q-17 -6 -39.5 -11.5t-47 -9t-49 -6t-45.5 -2.5q-145 0 -222 73t-77 216v640h-174v99l182 10l4 233l123 19v-246z" />
<glyph unicode="&#x164;" horiz-adv-x="996" d="M34 1330h927v-116h-392v-1214h-142v1214h-393v116zM281 1790q25 -15 53.5 -35.5t57.5 -43t56 -45.5t49 -45q22 22 49 45t56 45.5t57.5 43t53.5 35.5l62 -106q-44 -23 -81 -45t-70.5 -45t-64.5 -48.5t-62 -54.5q-31 29 -62 54.5t-64.5 48.5t-71 45t-80.5 45z" />
<glyph unicode="&#x165;" horiz-adv-x="752" d="M606 1557q7 -5 19 -18.5t24 -34t20.5 -46.5t8.5 -57q0 -47 -15 -85t-39 -67.5t-55 -51t-63 -35.5l-48 66q16 10 32.5 24t30 33.5t22 44t8.5 54.5q0 25 -9 48.5t-21 42t-24.5 32.5t-19.5 20zM343 1024h313v-115h-307v-616q0 -103 43 -148.5t139 -45.5q15 0 32.5 1.5 t35.5 4t34 6t28 7.5l27 -109q-17 -6 -39.5 -11.5t-47 -9t-49 -6t-45.5 -2.5q-145 0 -222 73t-77 216v640h-174v99l182 10l4 233l123 19v-246z" />
<glyph unicode="&#x166;" horiz-adv-x="996" d="M34 1330h927v-116h-392v-498h256v-101h-256v-615h-142v615h-256v101h256v498h-393v116z" />
<glyph unicode="&#x167;" horiz-adv-x="752" d="M343 1024h313v-115h-307v-273h299v-115h-299v-228q0 -103 43 -148.5t139 -45.5q15 0 32.5 1.5t35.5 4t34 6t28 7.5l27 -109q-17 -6 -39.5 -11.5t-47 -9t-49 -6t-45.5 -2.5q-145 0 -222 73t-77 216v252h-141v101l141 10v277h-174v99l182 10l4 233l123 19v-246z" />
<glyph unicode="&#x168;" horiz-adv-x="1255" d="M286 524q0 -103 23.5 -181.5t68 -132t108.5 -80.5t146 -27q78 0 140 26.5t105.5 77.5t67 125.5t23.5 169.5v828h142v-814q0 -126 -33.5 -225.5t-96.5 -168.5t-154 -105.5t-206 -36.5q-111 0 -199.5 35.5t-150 103.5t-94 166.5t-32.5 224.5v820h142v-806zM333 1625 q30 52 80.5 85t113.5 33q30 0 58.5 -10t55.5 -22.5t52.5 -22.5t49.5 -10q20 0 36.5 7t30 17t23.5 21t18 20l73 -68q-34 -56 -82 -87t-111 -31q-30 0 -57 10.5t-53 22.5t-52 22.5t-53 10.5q-20 0 -37 -7t-31 -17.5t-24.5 -21.5t-16.5 -20z" />
<glyph unicode="&#x169;" horiz-adv-x="1125" d="M835 0l-17 134q-38 -34 -80.5 -62t-87.5 -48.5t-91 -32t-92 -11.5q-154 0 -231 95.5t-77 274.5v674h141v-652q0 -266 209 -266q35 0 74.5 10.5t79 29t76 43t66.5 52.5v783h140v-1024h-110zM253 1325q30 52 80.5 85t114.5 33q30 0 58 -10t55 -22.5t52.5 -22.5t49.5 -10 q20 0 36.5 7t30 17t23.5 21t18 20l73 -68q-34 -56 -82 -87t-111 -31q-30 0 -57 10.5t-53 22.5t-52 22.5t-53 10.5q-20 0 -37 -7t-31 -17.5t-24.5 -21.5t-16.5 -20z" />
<glyph unicode="&#x16a;" horiz-adv-x="1255" d="M286 524q0 -103 23.5 -181.5t68 -132t108.5 -80.5t146 -27q78 0 140 26.5t105.5 77.5t67 125.5t23.5 169.5v828h142v-814q0 -126 -33.5 -225.5t-96.5 -168.5t-154 -105.5t-206 -36.5q-111 0 -199.5 35.5t-150 103.5t-94 166.5t-32.5 224.5v820h142v-806zM365 1711h524 v-107h-524v107z" />
<glyph unicode="&#x16b;" horiz-adv-x="1125" d="M835 0l-17 134q-38 -34 -80.5 -62t-87.5 -48.5t-91 -32t-92 -11.5q-154 0 -231 95.5t-77 274.5v674h141v-652q0 -266 209 -266q35 0 74.5 10.5t79 29t76 43t66.5 52.5v783h140v-1024h-110zM296 1404h524v-107h-524v107z" />
<glyph unicode="&#x16c;" horiz-adv-x="1255" d="M286 524q0 -103 23.5 -181.5t68 -132t108.5 -80.5t146 -27q78 0 140 26.5t105.5 77.5t67 125.5t23.5 169.5v828h142v-814q0 -126 -33.5 -225.5t-96.5 -168.5t-154 -105.5t-206 -36.5q-111 0 -199.5 35.5t-150 103.5t-94 166.5t-32.5 224.5v820h142v-806zM475 1763 q3 -33 13 -62.5t29 -51t46 -34t64 -12.5t64.5 12.5t46 34t29 51t12.5 62.5h102q3 -60 -14.5 -109t-51 -84t-81.5 -54t-107 -19t-107 19t-81.5 54t-50.5 84t-14 109h101z" />
<glyph unicode="&#x16d;" horiz-adv-x="1125" d="M835 0l-17 134q-38 -34 -80.5 -62t-87.5 -48.5t-91 -32t-92 -11.5q-154 0 -231 95.5t-77 274.5v674h141v-652q0 -266 209 -266q35 0 74.5 10.5t79 29t76 43t66.5 52.5v783h140v-1024h-110zM406 1456q3 -33 13 -62.5t29 -51t46 -34t64 -12.5t64.5 12.5t46 34t29 51 t12.5 62.5h101q3 -60 -14 -109t-50.5 -84t-81.5 -54t-107 -19t-107 19t-81.5 54t-50.5 84t-14 109h101z" />
<glyph unicode="&#x16e;" horiz-adv-x="1255" d="M286 524q0 -103 23.5 -181.5t68 -132t108.5 -80.5t146 -27q78 0 140 26.5t105.5 77.5t67 125.5t23.5 169.5v828h142v-814q0 -126 -33.5 -225.5t-96.5 -168.5t-154 -105.5t-206 -36.5q-111 0 -199.5 35.5t-150 103.5t-94 166.5t-32.5 224.5v820h142v-806zM425 1646 q0 43 15.5 81t43.5 66t66 44t82 16q39 0 75 -15.5t63.5 -42.5t43.5 -63t16 -76q0 -44 -16 -82t-43.5 -66t-65.5 -44t-83 -16q-39 0 -74.5 15.5t-63 42.5t-43.5 63t-16 77zM523 1650q0 -22 8.5 -41t22.5 -33.5t33 -23t39 -8.5q23 0 42.5 8.5t33.5 23.5t22 34.5t8 41.5 t-8.5 41t-23 33t-33 22t-38.5 8q-23 0 -42.5 -8.5t-33.5 -23t-22 -33.5t-8 -41z" />
<glyph unicode="&#x16f;" horiz-adv-x="1125" d="M835 0l-17 134q-38 -34 -80.5 -62t-87.5 -48.5t-91 -32t-92 -11.5q-154 0 -231 95.5t-77 274.5v674h141v-652q0 -266 209 -266q35 0 74.5 10.5t79 29t76 43t66.5 52.5v783h140v-1024h-110zM353 1346q0 43 15.5 81t43.5 66t66 44t82 16q39 0 75 -15.5t63.5 -42.5t43.5 -63 t16 -76q0 -44 -16 -82t-43.5 -66t-65.5 -44t-83 -16q-39 0 -74.5 15.5t-63 42.5t-43.5 63t-16 77zM451 1350q0 -22 8.5 -41t22.5 -33.5t32.5 -23t38.5 -8.5q24 0 43.5 8.5t33.5 23.5t22 34.5t8 41.5t-8.5 41t-23 33t-33 22t-39.5 8q-23 0 -42 -8.5t-33 -23t-22 -33.5t-8 -41 z" />
<glyph unicode="&#x170;" horiz-adv-x="1255" d="M286 524q0 -103 23.5 -181.5t68 -132t108.5 -80.5t146 -27q78 0 140 26.5t105.5 77.5t67 125.5t23.5 169.5v828h142v-814q0 -126 -33.5 -225.5t-96.5 -168.5t-154 -105.5t-206 -36.5q-111 0 -199.5 35.5t-150 103.5t-94 166.5t-32.5 224.5v820h142v-806zM692 1544 l230 297l100 -75l-255 -279zM379 1534l237 307l101 -75l-264 -288z" />
<glyph unicode="&#x171;" horiz-adv-x="1125" d="M835 0l-17 134q-38 -34 -80.5 -62t-87.5 -48.5t-91 -32t-92 -11.5q-154 0 -231 95.5t-77 274.5v674h141v-652q0 -266 209 -266q35 0 74.5 10.5t79 29t76 43t66.5 52.5v783h140v-1024h-110zM627 1237l230 297l100 -75l-255 -279zM314 1227l238 307l100 -75l-263 -288z" />
<glyph unicode="&#x172;" horiz-adv-x="1255" d="M286 524q0 -103 23.5 -181.5t68 -132t108.5 -80.5t146 -27q78 0 140 26.5t105.5 77.5t67 125.5t23.5 169.5v828h142v-814q0 -207 -87.5 -339.5t-247.5 -176.5q-27 -20 -54 -45t-48.5 -53.5t-35.5 -59.5t-14 -63q0 -51 26.5 -75t68.5 -24q19 0 37 4t33 9t24.5 9.5 t12.5 6.5l32 -74q-7 -6 -22 -14.5t-36 -16.5t-47 -14t-54 -6q-40 0 -75 11.5t-61.5 33.5t-42 54t-15.5 72q0 34 10.5 65.5t28.5 60t41 53.5t49 47q-26 -1 -51 1t-48 6q-92 13 -164 53.5t-122.5 107t-77 157.5t-26.5 204v820h142v-806z" />
<glyph unicode="&#x173;" horiz-adv-x="1125" d="M949 0q-27 -20 -54 -45t-49 -53.5t-36 -59.5t-14 -63q0 -51 26.5 -75t68.5 -24q19 0 37 4t33 9t24.5 9.5t12.5 6.5l32 -74q-6 -6 -21.5 -14.5t-36.5 -16.5t-47 -14t-54 -6q-40 0 -75 11.5t-61.5 33.5t-42 54t-15.5 72q0 39 13.5 74.5t36 67t51 58.5t58.5 49h-2l-16 130 q-38 -34 -80.5 -62t-87.5 -48.5t-91 -32t-92 -11.5q-154 0 -231 95.5t-77 274.5v674h141v-652q0 -266 209 -266q35 0 74.5 10.5t79 29t76 43t66.5 52.5v783h140v-989l4 -35v0z" />
<glyph unicode="&#x174;" horiz-adv-x="1947" d="M1892 1330l-419 -1330h-162l-338 1084l-337 -1084h-162l-420 1330h157l344 -1163l350 1133h136l351 -1133l343 1163h157zM1190 1490q-26 17 -55 38t-58 43t-55.5 43.5t-47.5 39.5q-21 -18 -48 -39.5t-55.5 -43.5t-58 -43t-55.5 -38l-67 96q61 38 134.5 89t149.5 111 q76 -60 149 -111t135 -89z" />
<glyph unicode="&#x175;" horiz-adv-x="1605" d="M1550 1024l-334 -1024h-148l-266 813l-267 -813h-148l-333 1024h144l265 -867l278 857h123l278 -857l264 867h144zM1016 1183q-26 17 -55 38t-58 43t-56 43.5t-48 39.5q-21 -18 -47.5 -39.5t-55 -43.5t-58 -43t-55.5 -38l-68 96q61 38 134.5 89t149.5 111 q77 -60 150 -111t134 -89z" />
<glyph unicode="&#x176;" horiz-adv-x="1099" d="M478 515l-444 815h152l365 -685l364 685h150l-444 -815v-515h-143v515zM766 1483q-26 17 -55 38t-58 43t-56 43.5t-48 39.5q-21 -18 -47.5 -39.5t-55 -43.5t-58 -43t-55.5 -38l-68 96q61 38 135 89t149 111q77 -60 150 -111t134 -89z" />
<glyph unicode="&#x177;" horiz-adv-x="1023" d="M988 1024l-369 -1000q-46 -124 -89.5 -208t-93.5 -135.5t-110 -74t-138 -22.5q-55 0 -98.5 13.5t-62.5 22.5l34 107q17 -6 50.5 -14.5t76.5 -8.5q49 0 87.5 15t70.5 48t60 86t55 128l-436 1043h149l357 -890l309 890h148zM716 1183q-26 17 -55 38t-58 43t-56 43.5 t-48 39.5q-21 -18 -47.5 -39.5t-55 -43.5t-58 -43t-55.5 -38l-68 96q61 38 135 89t149 111q77 -60 150 -111t134 -89z" />
<glyph unicode="&#x178;" horiz-adv-x="1099" d="M478 515l-444 815h152l365 -685l364 685h150l-444 -815v-515h-143v515zM264 1645q0 45 29.5 74.5t73.5 29.5q19 0 36.5 -7.5t30.5 -20.5t20.5 -30.5t7.5 -36.5q0 -23 -8 -42t-22 -33t-33 -22t-41 -8q-19 0 -36 7.5t-30 21t-20.5 30.5t-7.5 37zM637 1645q0 45 29.5 74.5 t74.5 29.5q19 0 36 -7.5t30 -20.5t20.5 -30.5t7.5 -36.5q0 -23 -8 -42t-22 -33t-32.5 -22t-40.5 -8q-19 0 -36.5 7.5t-30.5 21t-20.5 30.5t-7.5 37z" />
<glyph unicode="&#x179;" horiz-adv-x="1055" d="M786 1214h-660v116h823v-107l-703 -1107h744v-116h-906v107zM332 1591l430 208l57 -127l-450 -164z" />
<glyph unicode="&#x17a;" horiz-adv-x="959" d="M663 910h-514v114h675v-106l-560 -804h590v-114h-750v105zM270 1291l431 208l57 -127l-451 -164z" />
<glyph unicode="&#x17b;" horiz-adv-x="1055" d="M786 1214h-660v116h823v-107l-703 -1107h744v-116h-906v107zM432 1647q0 45 29.5 74.5t74.5 29.5q19 0 36 -7.5t30 -20.5t21 -30.5t8 -36.5q0 -23 -8 -42t-22 -33t-33 -22t-41 -8q-19 0 -36.5 7.5t-30.5 21t-20.5 30.5t-7.5 37z" />
<glyph unicode="&#x17c;" horiz-adv-x="959" d="M663 910h-514v114h675v-106l-560 -804h590v-114h-750v105zM381 1345q0 45 29.5 74.5t74.5 29.5q19 0 36 -7.5t30 -20.5t21 -30.5t8 -36.5q0 -23 -8 -42t-22 -33t-33 -22t-41 -8q-19 0 -36.5 7.5t-30.5 21t-20.5 30.5t-7.5 37z" />
<glyph unicode="&#x17d;" horiz-adv-x="1041" d="M772 1214h-660v116h823v-107l-703 -1107h744v-116h-906v107zM306 1788q25 -15 53.5 -35.5t57.5 -43t56 -45.5t49 -45q22 22 49 45t56 45.5t57.5 43t53.5 35.5l62 -106q-44 -23 -81 -45t-70.5 -45t-64.5 -48.5t-62 -54.5q-31 29 -62 54.5t-64.5 48.5t-71 45t-80.5 45z" />
<glyph unicode="&#x17e;" horiz-adv-x="959" d="M663 910h-514v114h675v-106l-560 -804h590v-114h-750v105zM266 1488q25 -15 53.5 -35.5t57.5 -43t56 -45.5t49 -45q22 22 49 45t56 45.5t57.5 43t53.5 35.5l62 -106q-44 -23 -81 -45t-70.5 -45t-64.5 -48.5t-62 -54.5q-31 29 -62 54.5t-64.5 48.5t-71 45t-80.5 45z" />
<glyph unicode="&#x17f;" horiz-adv-x="556" d="M348 0h-140v909h-174v99l176 11v129q0 74 24.5 135t69 105t107.5 68t140 24q51 0 94.5 -10.5t67.5 -18.5l-26 -109q-23 6 -60.5 12.5t-80.5 6.5q-102 0 -150 -58t-48 -171v-1132z" />
<glyph unicode="&#x192;" horiz-adv-x="1039" d="M510 737h269v-114h-285l-108 -671q-16 -102 -49 -172.5t-81 -114t-109.5 -62.5t-135.5 -19q-15 0 -40 3t-40 7l16 116q15 -3 35 -4.5t40 -1.5q97 0 149.5 56.5t72.5 179.5l110 683h-134v101l154 10l47 285q12 76 45 137.5t83.5 104.5t116 66t142.5 23q48 0 88.5 -10.5 t60.5 -18.5l-30 -109q-22 6 -58.5 12.5t-78.5 6.5q-101 0 -161 -58.5t-77 -170.5z" />
<glyph unicode="&#x1fa;" horiz-adv-x="1229" d="M908 361h-587l-135 -361h-152l514 1330h133l513 -1330h-152zM363 477h502l-250 694zM472 1525q0 31 11 57.5t31 46.5t46.5 31.5t58.5 11.5q28 0 53.5 -11t45 -30t31 -44.5t11.5 -53.5q0 -32 -11.5 -59t-31.5 -47t-47 -31.5t-59 -11.5q-27 0 -52.5 11t-44.5 30t-30.5 45 t-11.5 55zM554 1528q0 -26 18.5 -44.5t42.5 -18.5q28 0 45.5 18.5t17.5 45.5q0 26 -18.5 44t-43.5 18q-27 0 -44.5 -18.5t-17.5 -44.5zM420 1755l332 162l49 -109l-348 -126z" />
<glyph unicode="&#x1fb;" horiz-adv-x="996" d="M812 185q0 -51 19.5 -73t52.5 -22q20 0 34.5 4t22.5 8l14 -99q-14 -8 -42 -15.5t-61 -7.5q-36 0 -63.5 11.5t-48 31.5t-33 47.5t-16.5 59.5q-63 -72 -141.5 -111t-163.5 -39q-63 0 -117 19.5t-94 55.5t-63 86t-23 110q0 70 26 122.5t71 89.5t105 58.5t128 30.5 q63 9 127 8.5t126 -7.5v117q0 59 -12.5 105.5t-40 79t-72 49.5t-107.5 17q-41 0 -79.5 -6.5t-72.5 -16t-62 -20.5t-47 -21l-40 101q20 12 52 27t73.5 28t90.5 22t102 9q87 0 153 -24.5t111 -70t68 -110.5t23 -147v-507zM234 268q0 -77 49.5 -123t137.5 -46q72 1 137 36.5 t114 94.5v226q-44 5 -96 7t-107 -4q-48 -6 -90.5 -19t-75 -35.5t-51 -56.5t-18.5 -80zM265 1482l332 162l49 -109l-348 -126zM317 1252q0 31 11 57.5t31 46.5t47 31.5t59 11.5q28 0 53 -11t44.5 -30t31 -44.5t11.5 -53.5q0 -32 -11.5 -59t-31 -47t-47 -31.5t-58.5 -11.5 q-28 0 -53 11t-44.5 30t-31 45t-11.5 55zM399 1255q0 -26 18.5 -44.5t42.5 -18.5q28 0 45.5 18.5t17.5 45.5q0 26 -18.5 44t-43.5 18q-27 0 -44.5 -18.5t-17.5 -44.5z" />
<glyph unicode="&#x1fc;" horiz-adv-x="1811" d="M1687 1331v-116h-545v-487h524v-116h-524v-496h565v-116h-706v368h-546l-264 -368h-159l963 1331h692zM537 484h464v652zM1090 1598l431 208l56 -127l-450 -164z" />
<glyph unicode="&#x1fd;" horiz-adv-x="1606" d="M830 469q7 -176 96 -271t244 -95q79 0 144.5 13t110.5 31l37 -104q-56 -29 -138.5 -46t-172.5 -17q-121 0 -215 49.5t-157 139.5q-56 -55 -106 -91.5t-96.5 -58t-91 -30.5t-90.5 -9q-65 0 -120 21t-96 58.5t-64 89t-23 112.5q0 63 29 116.5t82.5 93t130.5 63t173 27.5 l178 7v103q0 125 -57.5 187.5t-182.5 62.5q-61 0 -133 -17t-136 -44l-34 104q35 18 75.5 32.5t83.5 25t85.5 16.5t82.5 6q118 0 200.5 -52t117.5 -152q58 100 148.5 152t205.5 52q87 0 155 -25.5t114.5 -73.5t71 -118t24.5 -160q0 -24 -3 -50t-7.5 -50.5t-10 -46 t-11.5 -36.5zM1129 928q-64 0 -116 -26.5t-90 -73.5t-61 -112.5t-29 -144.5l525 15q6 24 7 44.5t1 42.5q0 124 -62.5 189.5t-174.5 65.5zM238 274q0 -79 48.5 -125t136.5 -46q81 0 158 44t144 120q-18 48 -28 99.5t-12 102.5l-185 -10q-60 -3 -108.5 -17.5t-82.5 -39 t-52.5 -57t-18.5 -71.5zM565 1291l431 208l56 -127l-450 -164z" />
<glyph unicode="&#x1fe;" horiz-adv-x="1396" d="M692 -20q-92 0 -170.5 21.5t-144.5 63.5l-150 -225l-101 63l156 236q-88 90 -135.5 222t-47.5 301q0 159 42.5 286t121 216.5t190.5 137.5t251 48q93 0 173 -22.5t146 -65.5l151 228l101 -63l-158 -240q87 -90 133.5 -220.5t46.5 -298.5q0 -159 -42 -286t-121 -216.5 t-191 -137.5t-251 -48zM250 677q0 -131 29.5 -234t85.5 -178l584 883q-53 40 -117.5 61t-140.5 21q-101 0 -182 -38.5t-139 -110t-89 -174t-31 -230.5zM705 101q101 0 182.5 38.5t139 110t88.5 173.5t31 230t-29 230.5t-83 177.5l-583 -883q52 -38 115.5 -57.5t138.5 -19.5z M470 1591l431 208l56 -127l-450 -164z" />
<glyph unicode="&#x1ff;" horiz-adv-x="1138" d="M563 -20q-68 0 -127.5 16.5t-110.5 47.5l-138 -209l-93 58l145 219q-66 70 -103 169t-37 223q0 121 34.5 221t97 170.5t150 109.5t194.5 39q68 0 127 -16.5t110 -47.5l140 210l92 -58l-145 -220q66 -70 103 -169t37 -222q0 -122 -34.5 -221.5t-97 -170.5t-150 -110 t-194.5 -39zM575 96q72 0 130 28.5t99 82t63.5 129t22.5 168.5q0 176 -72 286l-422 -638q74 -56 179 -56zM248 521q0 -89 18 -161t53 -126l423 638q-74 56 -179 56q-72 0 -130 -29t-99 -82t-63.5 -128t-22.5 -168zM338 1291l431 208l56 -127l-450 -164z" />
<glyph unicode="&#x218;" horiz-adv-x="994" d="M125 183q60 -31 144.5 -55.5t186.5 -24.5q70 0 126 15.5t95.5 44t60.5 69t21 90.5q0 46 -14 83t-45 68.5t-80.5 60t-120.5 57.5l-138 57q-62 26 -111.5 59t-84 75.5t-52.5 95.5t-18 119q0 80 34 145.5t92.5 111.5t136 71t163.5 25q98 0 181 -22t143 -49l-35 -112 q-27 11 -61 21.5t-72.5 19t-79.5 14t-82 5.5q-62 0 -112.5 -16t-86.5 -44.5t-56.5 -69t-20.5 -88.5q0 -47 11.5 -83.5t38.5 -66.5t70 -55.5t106 -51.5l142 -61q145 -63 221 -149t76 -210q0 -82 -31 -147.5t-89 -111t-142 -69.5t-189 -24q-59 0 -113.5 8t-102 21t-86 29.5 t-65.5 33.5zM558 -102q7 -5 18 -17.5t21.5 -31t18 -42.5t7.5 -52q0 -51 -21.5 -88.5t-56.5 -63.5t-81 -41t-95 -19l-26 76q31 6 58.5 17t48.5 27.5t33.5 38.5t12.5 49q0 23 -6 43t-14.5 35.5t-17.5 26.5t-15 17z" />
<glyph unicode="&#x219;" horiz-adv-x="820" d="M125 167q20 -10 49 -21.5t64.5 -21t77 -16t86.5 -6.5q48 0 87 9t67.5 27t44 45.5t15.5 65.5q0 35 -12.5 62.5t-38.5 50.5t-66.5 44t-96.5 44l-87 34q-104 40 -161 107t-57 169q0 67 27.5 119.5t74.5 89t108.5 56t130.5 19.5q48 0 91 -6.5t78.5 -15.5t62 -19t43.5 -18 l-35 -115q-17 7 -42 16t-56 16.5t-67.5 13t-77.5 5.5q-91 0 -146.5 -40t-55.5 -112q0 -29 8 -53.5t29 -46.5t58 -43.5t96 -44.5l88 -35q58 -23 102.5 -51t75.5 -63t47 -78.5t16 -97.5q0 -63 -23 -114t-68 -87t-111 -55.5t-151 -19.5q-106 0 -186 22.5t-130 51.5zM477 -102 q7 -5 17.5 -17.5t21 -31t18 -42.5t7.5 -52q0 -51 -21.5 -88.5t-56.5 -63.5t-80.5 -41t-94.5 -19l-26 76q31 6 58.5 17t48.5 27.5t33.5 38.5t12.5 49q0 23 -6 43t-14.5 35.5t-17.5 26.5t-15 17z" />
<glyph unicode="&#x21a;" horiz-adv-x="996" d="M34 1330h927v-116h-392v-1214h-142v1214h-393v116zM542 -102q7 -5 18 -17.5t21.5 -31t18 -42.5t7.5 -52q0 -51 -21.5 -88.5t-56.5 -63.5t-81 -41t-95 -19l-26 76q31 6 58.5 17t48.5 27.5t33.5 38.5t12.5 49q0 23 -6 43t-14.5 35.5t-17.5 26.5t-15 17z" />
<glyph unicode="&#x21b;" horiz-adv-x="752" d="M485 -102q7 -5 18 -17.5t21.5 -31t18 -42.5t7.5 -52q0 -51 -21.5 -88.5t-56.5 -63.5t-81 -41t-95 -19l-26 76q31 6 59 17t49 27.5t33.5 38.5t12.5 49q0 23 -6.5 43t-15 35.5t-17.5 26.5t-14 17zM343 1024h313v-115h-307v-616q0 -103 43 -148.5t139 -45.5q15 0 32.5 1.5 t35.5 4t34 6t28 7.5l27 -109q-17 -6 -39.5 -11.5t-47 -9t-49 -6t-45.5 -2.5q-145 0 -222 73t-77 216v640h-174v99l182 10l4 233l123 19v-246z" />
<glyph unicode="&#x237;" horiz-adv-x="504" d="M185 1024h140v-1073q0 -98 -20.5 -167.5t-61.5 -113.5t-102.5 -65t-142.5 -21q-10 0 -22.5 0.5t-24.5 2t-22.5 2.5t-17.5 3l14 117q15 -3 38 -5q16 0 31 1t29 3q85 7 123.5 60t38.5 167v1089z" />
<glyph unicode="&#x2bc;" horiz-adv-x="367" d="M72 1040q21 40 40.5 98t19.5 127q0 33 -5.5 61.5t-13 51.5t-15.5 40.5t-14 28.5l148 25q11 -22 25 -69t14 -116q0 -46 -12 -88.5t-29 -78.5t-37 -64.5t-36 -45.5z" />
<glyph unicode="&#x2c6;" horiz-adv-x="802" d="M617 1183q-26 17 -55 38t-58 43t-56 43.5t-48 39.5q-21 -18 -47.5 -39.5t-55 -43.5t-58 -43t-55.5 -38l-68 96q62 38 135.5 89t148.5 111q77 -60 150 -111t134 -89z" />
<glyph unicode="&#x2c7;" horiz-adv-x="786" d="M177 1488q25 -15 53.5 -35.5t57.5 -43t56 -45.5t49 -45q21 22 48.5 45t56 45.5t57.5 43t53 35.5l63 -106q-44 -23 -81 -45t-70.5 -45t-64.5 -48.5t-62 -54.5q-31 29 -62 54.5t-64.5 48.5t-71 45t-80.5 45z" />
<glyph unicode="&#x2d8;" horiz-adv-x="739" d="M217 1456q3 -33 13 -62.5t29 -51t46 -34t64 -12.5t64.5 12.5t46 34t29 51t12.5 62.5h102q3 -60 -14.5 -109t-51 -84t-81.5 -54t-107 -19t-107 19t-81.5 54t-50.5 84t-14 109h101z" />
<glyph unicode="&#x2d9;" horiz-adv-x="430" d="M116 1345q0 45 29.5 74.5t74.5 29.5q19 0 36 -7.5t30 -20.5t20.5 -30.5t7.5 -36.5q0 -23 -8 -42t-22 -33t-32.5 -22t-40.5 -8q-19 0 -36.5 7.5t-30.5 21t-20.5 30.5t-7.5 37z" />
<glyph unicode="&#x2da;" horiz-adv-x="572" d="M83 1346q0 43 16 81t43.5 66t65.5 44t82 16q40 0 76 -15.5t63 -42.5t43 -63t16 -76q0 -44 -16 -82t-43.5 -66t-65.5 -44t-83 -16q-39 0 -74.5 15.5t-63 42.5t-43.5 63t-16 77zM182 1350q0 -22 8.5 -41t22.5 -33.5t32.5 -23t38.5 -8.5q23 0 42.5 8.5t33.5 23.5t22 34.5 t8 41.5t-8.5 41t-23 33t-33 22t-38.5 8q-23 0 -42 -8.5t-33 -23t-22 -33.5t-8 -41z" />
<glyph unicode="&#x2db;" horiz-adv-x="565" d="M408 0q-27 -20 -54 -45t-49 -53.5t-36 -59.5t-14 -63q0 -51 26.5 -75t68.5 -24q19 0 37 4t33 9t24.5 9.5t12.5 6.5l32 -74q-6 -6 -21.5 -14.5t-36.5 -16.5t-47 -14t-54 -6q-35 0 -66.5 9t-56.5 26.5t-42.5 42.5t-23.5 58q-3 11 -3.5 23t-0.5 25q2 42 19.5 79t43.5 68.5 t57.5 58t62.5 46.5z" />
<glyph unicode="&#x2dc;" horiz-adv-x="809" d="M109 1325q30 52 80.5 85t114.5 33q30 0 58.5 -10t55.5 -22.5t52.5 -22.5t49.5 -10q20 0 36.5 7t29.5 17t23 21t18 20l73 -68q-34 -56 -82 -87t-111 -31q-30 0 -57 10.5t-53 22.5t-52 22.5t-53 10.5q-19 0 -36 -7t-31 -17.5t-25 -21.5t-17 -20z" />
<glyph unicode="&#x2dd;" horiz-adv-x="875" d="M429 1237l230 297l100 -75l-255 -279zM116 1227l237 307l101 -75l-264 -288z" />
<glyph unicode="&#x301;" horiz-adv-x="613" d="M116 1482l332 162l49 -109l-348 -126z" />
<glyph unicode="&#x307;" horiz-adv-x="430" d="M116 693q0 45 29.5 74.5t74.5 29.5q19 0 36 -7.5t30 -20.5t20.5 -30.5t7.5 -36.5q0 -46 -29.5 -76t-73.5 -30q-19 0 -36.5 7.5t-30.5 21t-20.5 31t-7.5 37.5z" />
<glyph unicode="&#x30a;" horiz-adv-x="520" d="M116 1252q0 31 11 57.5t31 46.5t46.5 31.5t58.5 11.5q28 0 53.5 -11t45 -30t31 -44.5t11.5 -53.5q0 -32 -11.5 -59t-31.5 -47t-47 -31.5t-59 -11.5q-27 0 -52.5 11t-44.5 30t-30.5 45t-11.5 55zM198 1255q0 -26 18.5 -44.5t41.5 -18.5q29 0 46.5 18.5t17.5 45.5 q0 26 -18.5 44t-43.5 18q-27 0 -44.5 -18.5t-17.5 -44.5z" />
<glyph unicode="&#x394;" horiz-adv-x="1275" d="M34 0v96l537 1235h133l537 -1235v-96h-1207zM191 116h892l-446 1056z" />
<glyph unicode="&#x3a9;" horiz-adv-x="1414" d="M1315 0h-473q0 29 0.5 58.5t0.5 58.5q27 17 60.5 44.5t68.5 65t68 85t59 104t41.5 122t15.5 139.5q0 130 -35 232.5t-96.5 174t-145 109t-179.5 37.5q-86 0 -166 -34t-141.5 -101t-98 -166.5t-36.5 -229.5q0 -119 33.5 -215t82.5 -169t102.5 -122.5t94.5 -75.5 q0 -29 0.5 -58.5t0.5 -58.5h-473v116h304q-51 38 -104 93.5t-95.5 127.5t-69.5 159.5t-27 188.5q0 145 43 267t122.5 210.5t191 138t249.5 49.5q137 0 247 -48.5t187 -136t118.5 -208.5t41.5 -266q0 -102 -27 -190t-69.5 -161t-96 -129.5t-106.5 -94.5h307v-116z" />
<glyph unicode="&#x3bc;" horiz-adv-x="1128" d="M163 1024h140v-652q0 -266 209 -266q36 0 75.5 10.5t79 29t76 43t66.5 52.5v783h140v-1024h-110l-17 134q-38 -34 -80.5 -62t-87.5 -48.5t-91 -32t-92 -11.5q-104 0 -172 47v-90q0 -172 -73.5 -262.5t-219.5 -90.5q-17 0 -39.5 2.5t-34.5 5.5l15 117q25 -5 59 -5 q82 0 119.5 50t37.5 167v1103z" />
<glyph unicode="&#x3c0;" horiz-adv-x="1452" d="M34 985q29 11 84.5 25t137.5 14h1086v-115h-271q-13 -37 -27.5 -86t-27 -107t-20.5 -121.5t-8 -129.5q0 -78 11.5 -145.5t39 -118t73.5 -79.5t115 -29q38 0 68 4t41 7l22 -102q-7 -2 -22.5 -6t-36.5 -7.5t-46.5 -6t-53.5 -2.5q-90 0 -155.5 38.5t-108 103t-63 148 t-20.5 173.5q0 74 8.5 142.5t21.5 128.5t29 109.5t30 85.5h-451v-177q0 -171 -22.5 -305t-48.5 -230q-32 -112 -71 -197h-133q37 88 67 202q26 97 47 231.5t21 299.5v176h-95q-71 0 -119 -10.5t-77 -20.5z" />
<glyph unicode="&#xe3f;" horiz-adv-x="1255" d="M672 1514l-9 -251q79 -6 142.5 -28t107.5 -59.5t67.5 -90.5t23.5 -119q0 -48 -16 -91t-41 -78t-55.5 -61t-59.5 -40q45 -14 86 -41t72.5 -65.5t50.5 -87.5t19 -107q0 -155 -101 -237.5t-295 -90.5l9 -251h-131l7 250h-295v1200h296l-9 248h131zM387 631v-459h232 q67 0 121.5 12.5t93.5 38.5t60.5 65.5t21.5 93.5q0 55 -17.5 101t-53.5 79t-91 51t-129 18h-238zM387 736h328q26 11 52 32.5t46.5 50t33.5 63t13 71.5q0 109 -67.5 158t-195.5 49h-210v-424z" />
<glyph unicode="&#x1e80;" horiz-adv-x="1947" d="M1892 1330l-419 -1330h-162l-338 1084l-337 -1084h-162l-420 1330h157l344 -1163l350 1133h136l351 -1133l343 1163h157zM1153 1516l-428 155l57 127l408 -198z" />
<glyph unicode="&#x1e81;" horiz-adv-x="1605" d="M1550 1024l-334 -1024h-148l-266 813l-267 -813h-148l-333 1024h144l265 -867l278 857h123l278 -857l264 867h144zM990 1209l-429 155l58 127l407 -198z" />
<glyph unicode="&#x1e82;" horiz-adv-x="1947" d="M1892 1330l-419 -1330h-162l-338 1084l-337 -1084h-162l-420 1330h157l344 -1163l350 1133h136l351 -1133l343 1163h157zM748 1598l431 208l57 -127l-451 -164z" />
<glyph unicode="&#x1e83;" horiz-adv-x="1605" d="M1550 1024l-334 -1024h-148l-266 813l-267 -813h-148l-333 1024h144l265 -867l278 857h123l278 -857l264 867h144zM571 1291l430 208l57 -127l-450 -164z" />
<glyph unicode="&#x1e84;" horiz-adv-x="1947" d="M1892 1330l-419 -1330h-162l-338 1084l-337 -1084h-162l-420 1330h157l344 -1163l350 1133h136l351 -1133l343 1163h157zM687 1652q0 45 29.5 74.5t74.5 29.5q19 0 36.5 -7.5t30.5 -20.5t20.5 -30.5t7.5 -36.5q0 -23 -8 -42t-22 -33t-33 -22t-41 -8q-19 0 -36.5 7.5 t-30.5 21t-20.5 30.5t-7.5 37zM1061 1652q0 45 29.5 74.5t74.5 29.5q19 0 36 -7.5t30 -20.5t20.5 -30.5t7.5 -36.5q0 -23 -8 -42t-22 -33t-32.5 -22t-40.5 -8q-20 0 -37 7.5t-30 21t-20.5 30.5t-7.5 37z" />
<glyph unicode="&#x1e85;" horiz-adv-x="1605" d="M1550 1024l-334 -1024h-148l-266 813l-267 -813h-148l-333 1024h144l265 -867l278 857h123l278 -857l264 867h144zM514 1345q0 45 29.5 74.5t73.5 29.5q19 0 36.5 -7.5t30.5 -20.5t20.5 -30.5t7.5 -36.5q0 -23 -8 -42t-22 -33t-33 -22t-41 -8q-19 0 -36 7.5t-30 21 t-20.5 30.5t-7.5 37zM887 1345q0 45 29.5 74.5t74.5 29.5q19 0 36 -7.5t30 -20.5t21 -30.5t8 -36.5q0 -23 -8 -42t-22 -33t-33 -22t-41 -8q-19 0 -36.5 7.5t-30.5 21t-20.5 30.5t-7.5 37z" />
<glyph unicode="&#x1e9e;" horiz-adv-x="1197" d="M513 136q28 -11 86 -23t133 -12q56 0 102 17.5t79 48.5t51 74.5t18 94.5q0 57 -19 110t-67 92.5t-131 59.5t-210 10l-3 83l326 523h-292q-77 0 -132 -23.5t-91 -64.5t-53 -96.5t-17 -119.5v-910h-140v900q0 94 29 173t85.5 136t140 89t192.5 32h451v-78l-344 -540 q82 2 158 -21t134 -69.5t92.5 -116.5t34.5 -162q0 -80 -27.5 -146.5t-79.5 -114.5t-127 -75t-171 -27q-41 0 -78.5 4.5t-69 11t-55.5 14.5t-37 15z" />
<glyph unicode="&#x1ef2;" horiz-adv-x="1099" d="M478 515l-444 815h152l365 -685l364 685h150l-444 -815v-515h-143v515zM713 1509l-428 155l57 127l407 -198z" />
<glyph unicode="&#x1ef3;" horiz-adv-x="1023" d="M988 1024l-369 -1000q-46 -124 -89.5 -208t-93.5 -135.5t-110 -74t-138 -22.5q-55 0 -98.5 13.5t-62.5 22.5l34 107q17 -6 50.5 -14.5t76.5 -8.5q49 0 87.5 15t70.5 48t60 86t55 128l-436 1043h149l357 -890l309 890h148zM653 1209l-428 155l57 127l407 -198z" />
<glyph unicode="&#x2013;" horiz-adv-x="1160" d="M181 590h798v-115h-798v115z" />
<glyph unicode="&#x2014;" horiz-adv-x="1771" d="M181 590h1409v-115h-1409v115z" />
<glyph unicode="&#x2018;" horiz-adv-x="417" d="M349 1397q-20 -15 -42 -35t-41 -45.5t-31 -57t-13 -69.5q0 -35 8.5 -65t21 -54.5t27 -42.5t25.5 -30l-142 -35q-9 8 -22.5 26t-26 44.5t-21.5 61.5t-9 78q0 56 19.5 102.5t49.5 83.5t66 65t69 47z" />
<glyph unicode="&#x2019;" horiz-adv-x="417" d="M48 1037q20 15 42 35t41 45.5t31 57t13 69.5q0 35 -8.5 65t-21.5 54t-27 42.5t-25 30.5l142 35q9 -8 22.5 -26t26 -45t21.5 -62t9 -77q0 -56 -19.5 -102.5t-49.5 -84t-66 -65.5t-69 -47z" />
<glyph unicode="&#x201a;" horiz-adv-x="402" d="M32 -249q21 15 43 35t40.5 45.5t30.5 57t13 69.5q0 34 -8.5 64t-21 54.5t-27 43t-25.5 30.5l142 35q9 -9 22.5 -27t26 -44.5t21.5 -61.5t9 -77q0 -56 -19.5 -102.5t-49.5 -84t-65.5 -65.5t-68.5 -47z" />
<glyph unicode="&#x201c;" horiz-adv-x="735" d="M343 1409q-21 -15 -43.5 -36t-41.5 -47.5t-31.5 -58.5t-13.5 -70q0 -35 8.5 -65t21 -55t27 -43.5t25.5 -30.5l-131 -33q-9 8 -22.5 26t-26.5 44.5t-22 61.5t-9 78q0 56 19.5 102.5t49.5 83.5t66 65t69 47zM665 1404q-20 -15 -42 -35t-40.5 -45.5t-31 -57t-12.5 -69.5 q0 -35 8.5 -65t21 -54.5t27 -42.5t25.5 -30l-132 -34q-9 8 -22.5 26t-26 44t-21.5 61t-9 78q0 56 19.5 102.5t49 83t64.5 64t66 45.5z" />
<glyph unicode="&#x201d;" horiz-adv-x="735" d="M357 1032q20 15 42.5 36t42 47.5t32 58.5t13.5 70q0 35 -8.5 65t-21.5 55t-27 43.5t-25 30.5l131 33q9 -8 22.5 -26t26 -44.5t21.5 -61.5t9 -78q0 -56 -19.5 -102.5t-49.5 -83.5t-65.5 -65t-68.5 -47zM34 1037q21 15 43 35t40.5 45.5t31 57t12.5 69.5q0 35 -8.5 65 t-21 54.5t-27 42.5t-25.5 30l132 34q9 -8 22.5 -26t26 -44t21.5 -61t9 -78q0 -56 -19.5 -102.5t-49.5 -83.5t-65 -64t-66 -45z" />
<glyph unicode="&#x201e;" horiz-adv-x="717" d="M345 -254q20 15 42.5 36t42 47.5t32 58.5t13.5 70q0 34 -8.5 64.5t-21.5 55t-27 43t-25 30.5l131 34q9 -9 22.5 -27t26 -44.5t21.5 -61.5t9 -77q0 -56 -19.5 -102.5t-49.5 -84t-65.5 -65.5t-68.5 -47zM22 -249q21 15 43 35t40.5 45.5t31 57t12.5 69.5q0 34 -8.5 64 t-21 54.5t-27 43t-25.5 30.5l132 33q9 -8 22.5 -26t26 -44t21.5 -61t9 -77q0 -56 -19.5 -102.5t-49.5 -83.5t-65 -64t-66 -45z" />
<glyph unicode="&#x2020;" horiz-adv-x="1364" d="M759 1038l426 6v-130l-429 6l-19 -1244h-111l-20 1244l-427 -6v130l426 -6l-9 555h171z" />
<glyph unicode="&#x2021;" horiz-adv-x="1364" d="M756 1151l429 6v-130l-431 6l-6 -396l6 -382l431 6v-130l-429 6l7 -461h-162l7 461l-429 -6v130l431 -6l6 383l-6 395l-431 -6v130l429 -6l-7 456h162z" />
<glyph unicode="&#x2022;" horiz-adv-x="596" d="M130 680q0 40 14.5 75t40 61t60 40.5t75.5 14.5q34 0 65.5 -14t55.5 -38t38.5 -55.5t14.5 -67.5q0 -41 -15 -76.5t-40.5 -61.5t-60.5 -40.5t-75 -14.5q-35 0 -66.5 14t-55 38.5t-37.5 56.5t-14 68z" />
<glyph unicode="&#x2026;" horiz-adv-x="1245" d="M116 77q0 45 29.5 74t74.5 29q19 0 36 -7.5t30 -20.5t20.5 -30t7.5 -36q0 -46 -29.5 -76t-73.5 -30q-19 0 -36.5 7.5t-30.5 21t-20.5 31t-7.5 37.5zM523 77q0 45 29.5 74t74.5 29q19 0 36.5 -7.5t30.5 -20.5t20.5 -30t7.5 -36q0 -46 -30 -76t-74 -30q-19 0 -36.5 7.5 t-30.5 21t-20.5 31t-7.5 37.5zM931 77q0 45 29.5 74t74.5 29q19 0 36 -7.5t30 -20.5t20.5 -30t7.5 -36q0 -46 -29.5 -76t-73.5 -30q-19 0 -36.5 7.5t-30.5 21t-20.5 31t-7.5 37.5z" />
<glyph unicode="&#x2030;" horiz-adv-x="1976" d="M1571 -20q-36 0 -69.5 9.5t-62.5 27t-53 42t-40 55.5q-32 -63 -94 -98.5t-140 -35.5q-62 0 -114.5 24t-90 65t-58.5 96.5t-21 117.5q0 67 21 125t60 100.5t93.5 66.5t121.5 24q36 0 69.5 -9.5t62.5 -27.5t52.5 -43t39.5 -55q33 63 95 99t140 36q62 0 114.5 -24t90 -65.5 t58.5 -97t21 -117.5q0 -67 -21 -124.5t-59.5 -100t-93.5 -66.5t-122 -24zM1583 84q38 0 68 15.5t51 42.5t32 63.5t11 77.5q0 46 -11 84.5t-33 67t-55 44.5t-76 16q-38 0 -67.5 -15.5t-50.5 -42.5t-32 -63.5t-11 -78.5q0 -45 11 -84t33 -67t54.5 -44t75.5 -16zM1125 84 q38 0 68 15.5t50.5 42.5t31.5 63.5t11 77.5q0 46 -11 84.5t-32.5 67t-54.5 44.5t-76 16q-38 0 -68 -15.5t-51 -42.5t-32 -63.5t-11 -78.5q0 -45 11 -84t33 -67t54.5 -44t76.5 -16zM1291 1285l-970 -1304l-93 65l970 1305zM392 731q-63 0 -115 23.5t-89.5 64.5t-58 96.5 t-20.5 118.5q0 69 20.5 127t58.5 100t93 65.5t123 23.5q63 0 115 -23.5t89.5 -64.5t58 -96.5t20.5 -119.5q0 -69 -20.5 -127t-59 -99.5t-93 -65t-122.5 -23.5zM405 838q37 0 66.5 15.5t50 42t31.5 62t11 76.5q0 44 -10.5 82.5t-32 66.5t-54 44t-75.5 16q-38 0 -67.5 -15.5 t-50 -42t-31.5 -62t-11 -76.5q0 -44 10.5 -82.5t32.5 -66.5t54 -44t76 -16z" />
<glyph unicode="&#x2039;" horiz-adv-x="731" d="M595 897q-60 -94 -143 -193.5t-177 -192.5q94 -92 177 -191.5t143 -194.5l-103 -75q-39 57 -84.5 117.5t-94 120.5t-98.5 116.5t-99 106.5q49 51 99.5 108t99 116.5t93.5 120t84 117.5z" />
<glyph unicode="&#x203a;" horiz-adv-x="731" d="M104 126q60 94 143.5 193.5t177.5 192.5q-94 93 -177.5 192t-143.5 194l103 75q39 -56 84.5 -116.5t94 -120.5t98.5 -117t99 -107q-49 -50 -99 -107t-98.5 -117t-94 -120.5t-84.5 -117.5z" />
<glyph unicode="&#x203d;" horiz-adv-x="799" d="M384 1024l-10 -310l24 24l27 27q25 25 50.5 53.5t45.5 59.5t32.5 64.5t12.5 69.5q0 57 -19.5 97.5t-53 66.5t-78 38t-94.5 12q-45 0 -81.5 -6.5t-65.5 -15.5t-50 -19t-34 -17l-46 99q19 12 48 26.5t66.5 27t82.5 21t97 8.5q77 0 145.5 -22.5t120 -63.5t81.5 -99.5 t30 -131.5q0 -56 -17.5 -103.5t-44.5 -88.5t-61 -76.5t-67 -67.5q-26 -25 -50 -48t-45 -45.5t-37.5 -45.5t-25.5 -48l-3 -97v-41l-119 -10q-5 15 -9.5 42.5t-4.5 50.5q0 33 7.5 62.5t21.5 56.5l-14 450h138zM222 77q0 45 29.5 74t74.5 29q19 0 36 -7.5t30 -20.5t21 -30 t8 -36q0 -46 -30 -76t-74 -30q-19 0 -36.5 7.5t-30.5 21t-20.5 31t-7.5 37.5z" />
<glyph unicode="&#x2044;" horiz-adv-x="1132" d="M1098 1284l-970 -1303l-94 65l970 1304z" />
<glyph unicode="&#x2070;" horiz-adv-x="698" d="M343 731q-63 0 -115 23.5t-89.5 64.5t-58 96.5t-20.5 118.5q0 69 20.5 127t58.5 100t93 65.5t123 23.5q63 0 115 -23.5t89.5 -64.5t58 -96.5t20.5 -119.5q0 -69 -20.5 -127t-59 -99.5t-93 -65t-122.5 -23.5zM356 838q37 0 66.5 15.5t50 42t31.5 62t11 76.5 q0 44 -10.5 82.5t-32 66.5t-54 44t-75.5 16q-38 0 -67.5 -15.5t-50 -42t-31.5 -62.5t-11 -77q0 -44 10.5 -82t32.5 -66t54 -44t76 -16z" />
<glyph unicode="&#x2074;" horiz-adv-x="569" d="M429 1330v-364h92v-94h-92v-121h-107v121h-282v88l282 370h107zM161 966h161v213z" />
<glyph unicode="&#x20a3;" horiz-adv-x="1188" d="M1017 1214h-575v-486h533v-116h-533v-251h312v-101h-312v-260h-142v260h-179v101h179v969h717v-116z" />
<glyph unicode="&#x20a4;" horiz-adv-x="1230" d="M188 590h662v-112h-345q0 -88 -14.5 -173.5t-47.5 -170.5q16 0 30.5 -1t28.5 -3q42 -3 80.5 -8.5t74.5 -11t72 -9.5t74 -4q36 0 63 10t47 28.5t35 43.5t27 54l94 -36q-10 -49 -34.5 -89t-60.5 -68.5t-83 -44t-101 -15.5q-46 0 -92 6t-93 13.5t-95.5 14t-99.5 6.5 q-8 0 -17.5 -0.5t-15.5 -1.5q-8 -9 -17 -17q-8 -7 -17 -14.5t-19 -13.5l-95 24l-23 99q17 8 43.5 16.5t54.5 14.5q31 87 43 173.5t12 164.5v13h-171v112zM177 853h139q-2 25 -3.5 50t-1.5 51q0 89 28 162t79 125t122.5 80.5t158.5 28.5q46 0 87 -7t75.5 -17.5t61.5 -22.5 t45 -22l-45 -103q-23 8 -48 16.5t-53 16t-60.5 12t-69.5 4.5q-54 0 -97.5 -18.5t-74 -52.5t-47 -82t-16.5 -106t6 -115h380v-111h-666v111z" />
<glyph unicode="&#x20a9;" horiz-adv-x="2190" d="M1935 1330l-117 -425h261v-86h-285l-38 -139h245v-87h-269l-163 -593h-181l-293 1070l-292 -1070h-181l-163 593h-290v87h266l-38 139h-286v86h263l-116 425h149l113 -425h397l110 395h136l110 -395h397l114 425h151zM1476 181l110 412h-226zM715 181l115 412h-226z M1336 680h273l38 139h-350zM581 680h274l38 139h-350z" />
<glyph unicode="&#x20ac;" horiz-adv-x="1391" d="M166 590h805v-112h-527q23 -89 67.5 -159t109 -118t147 -73t182.5 -25q71 0 132.5 13t127.5 37l39 -103q-30 -16 -67.5 -29t-79.5 -22t-86.5 -14t-88.5 -5q-133 0 -240.5 35.5t-188 101t-133 157t-76.5 204.5h-123v112zM166 853h125q24 111 77 202.5t132 157t181.5 101.5 t225.5 36q50 0 96.5 -7.5t85.5 -18.5t69 -23t47 -21l-46 -103q-21 7 -48.5 16t-60.5 16.5t-70.5 12.5t-78.5 5q-84 0 -158.5 -24t-134.5 -71t-103.5 -117t-64.5 -162h531v-111h-805v111z" />
<glyph unicode="&#x20b1;" horiz-adv-x="1429" d="M161 1078h149v252h380q162 0 271 -66t151 -186h176v-87h-158q2 -13 3 -26t1 -27q0 -17 -1.5 -34t-3.5 -32h159v-87h-179q-43 -122 -154 -187.5t-276 -65.5h-227v-532h-142v785h-149v87h149v119h-149v87zM690 645q97 0 164 36t100 104h-502v-140h238zM452 1218v-140h499 q-33 69 -101 104.5t-171 35.5h-227zM984 923q0 18 -2 35t-4 33h-526v-119h528q2 12 3 24.5t1 26.5z" />
<glyph unicode="&#x20b9;" horiz-adv-x="1225" d="M221 1330h842v-101h-413q69 -40 114.5 -96.5t57.5 -132.5h211v-100h-211q-9 -57 -36.5 -102.5t-66 -80.5t-84.5 -59.5t-92 -40t-88.5 -23t-73.5 -7.5l514 -587h-167l-517 587v85q94 0 174.5 12t141 39t99 70.5t49.5 106.5h-464v100h464q-9 51 -38 91.5t-74 68.5 t-105.5 43t-132.5 15h-104v112z" />
<glyph unicode="&#x20ba;" horiz-adv-x="1096" d="M116 733l227 148v449h142v-355l294 192l48 -70l-342 -224v-149l294 192l48 -70l-342 -224v-500q80 0 146.5 28t113.5 78.5t71.5 119.5t20.5 151l132 9q4 -112 -31.5 -205t-100.5 -160.5t-155.5 -105t-196.5 -37.5h-142v528l-180 -117l-47 71l227 148v149l-180 -117z" />
<glyph unicode="&#x2113;" horiz-adv-x="769" d="M253 488v-164q0 -115 48 -172t139 -57q32 0 62 5.5t56 14t48 18.5t39 19l40 -98q-18 -11 -43 -23.5t-57 -24t-71.5 -19t-87.5 -7.5q-66 0 -121.5 20.5t-95.5 61t-62.5 102t-22.5 142.5v678q0 82 17 149.5t51.5 115.5t86.5 74.5t122 26.5q63 0 110.5 -22.5t79 -62.5 t47.5 -95t16 -120q0 -91 -30 -168t-80 -143t-116 -122.5t-139 -104.5zM253 626q59 42 109 86.5t86.5 96t57 112t20.5 134.5q0 34 -7 66.5t-22 58t-39 41.5t-57 16q-40 0 -68 -18t-46 -50t-26 -77.5t-8 -99.5v-366z" />
<glyph unicode="&#x2122;" horiz-adv-x="771" d="M64 1350h248v-62h-89v-264h-68v264h-91v62zM356 1350h108l68 -229l67 229h108v-326h-68v241l-80 -241h-55l-80 241v-241h-68v326z" />
<glyph unicode="&#x212e;" horiz-adv-x="1851" d="M453 632q-10 0 -10 -10v-351q0 -24 17 -44q88 -90 209 -132.5t257 -42.5q149 0 274.5 49.5t216.5 145.5h110q-51 -60 -115.5 -109t-141 -84t-163.5 -54.5t-183 -19.5q-161 0 -299.5 53.5t-241 146t-161 217t-58.5 267.5q0 95 27.5 182.5t77 164t119 139t154 107t181 69 t201.5 24.5t202.5 -25t182 -71t154 -110t119 -141t77 -165.5t27.5 -183.5v-22h-1233zM1406 1061q0 26 -19 44q-86 87 -206 130t-255 43q-138 0 -257 -42.5t-207 -130.5q-19 -19 -19 -48v-346q0 -12 10 -12h945q8 0 8 12v350z" />
<glyph unicode="&#x2190;" horiz-adv-x="1823" d="M1658 607h-1275l475 -473l-81 -82l-612 612l613 612l80 -81l-473 -473h1273v-115z" />
<glyph unicode="&#x2191;" horiz-adv-x="1553" d="M165 678l611 612l612 -613l-81 -80l-472 473v-1274h-115v1276l-474 -475z" />
<glyph unicode="&#x2192;" horiz-adv-x="1823" d="M966 134l475 473h-1276v115h1273l-473 473l81 81l612 -612l-612 -612z" />
<glyph unicode="&#x2193;" horiz-adv-x="1553" d="M246 489l474 -475v1276h115v-1274l472 474l81 -81l-612 -613l-611 613z" />
<glyph unicode="&#x2196;" horiz-adv-x="1496" d="M235 424v866h864v-114h-669l901 -901l-80 -82l-902 902v-671h-114z" />
<glyph unicode="&#x2197;" horiz-adv-x="1496" d="M165 275l901 901h-669v114h864v-866h-114v671l-902 -902z" />
<glyph unicode="&#x2198;" horiz-adv-x="1496" d="M245 1096l902 -901v671h114v-866h-864v114h669l-901 901z" />
<glyph unicode="&#x2199;" horiz-adv-x="1496" d="M300 866v-671l902 901l80 -81l-901 -901h669v-114h-864v866h114z" />
<glyph unicode="&#x2202;" horiz-adv-x="1189" d="M550 1226q-45 0 -84.5 -6t-72 -14t-55 -16t-32.5 -13l-36 106q8 5 33.5 16t63 22.5t85 20t101.5 8.5q145 0 244 -53t160 -142.5t87 -207.5t26 -247q0 -92 -12 -181t-38 -169t-67.5 -148t-101 -117t-137.5 -77t-177 -28q-86 0 -159.5 23.5t-127.5 70t-85 116.5t-31 163 q0 100 33.5 186t96 148t150.5 97.5t197 35.5q54 0 103.5 -11.5t90.5 -29t72 -38t50 -39.5q0 120 -23.5 217t-70.5 165t-118 105t-165 37zM536 101q83 0 149 32.5t114 93.5t78 147.5t41 193.5q-15 21 -45 44t-70 42.5t-88.5 32t-101.5 12.5q-74 0 -135 -25.5t-104.5 -71 t-67.5 -109t-24 -139.5q0 -56 17 -102.5t49 -80t79.5 -52t108.5 -18.5z" />
<glyph unicode="&#x220f;" horiz-adv-x="1421" d="M1099 1369h-778v-1524h-142v1640h1062v-1640h-142v1524z" />
<glyph unicode="&#x2211;" horiz-adv-x="1209" d="M1074 1369h-781l434 -704l-455 -704h822v-116h-980v107l466 713l-445 714v106h939v-116z" />
<glyph unicode="&#x2212;" horiz-adv-x="1074" d="M194 722h685v-115h-685v115z" />
<glyph unicode="&#x2215;" horiz-adv-x="1132" d="M1098 1284l-970 -1303l-94 65l970 1304z" />
<glyph unicode="&#x2219;" horiz-adv-x="430" d="M116 509q0 45 29.5 74t74.5 29q19 0 36 -7.5t30 -20.5t20.5 -30t7.5 -36q0 -46 -29.5 -76t-73.5 -30q-19 0 -36.5 7.5t-30.5 21t-20.5 31t-7.5 37.5z" />
<glyph unicode="&#x221a;" horiz-adv-x="1352" d="M24 864h353l289 -694l515 1315h146l-593 -1485h-131l-325 749h-254v115z" />
<glyph unicode="&#x221e;" horiz-adv-x="1872" d="M935 587q-50 -50 -100 -94t-104.5 -78t-115.5 -53.5t-133 -19.5q-79 0 -145 22.5t-114 64.5t-74.5 101.5t-26.5 134.5q0 74 26.5 133.5t74.5 101.5t114 64.5t145 22.5q72 0 133 -19.5t115.5 -53t104.5 -78t100 -93.5q51 49 101.5 93.5t105 78t115.5 53t133 19.5 q79 0 145 -22.5t113.5 -64.5t74 -101.5t26.5 -133.5q0 -75 -26.5 -134.5t-74 -101.5t-113.5 -64.5t-145 -22.5q-72 0 -133 19.5t-115.5 53.5t-105 78t-101.5 94zM1380 877q-47 0 -90.5 -15t-87 -43t-89 -67t-95.5 -87q50 -48 95.5 -87.5t89 -67.5t87 -43t90.5 -15 q56 0 101.5 15.5t77.5 43t49.5 67t17.5 87.5t-17.5 87t-49.5 67t-77.5 43t-101.5 15zM492 452q45 0 89 16t88.5 44t90 67t94.5 86q-49 46 -94.5 85t-90 67.5t-88.5 44t-89 15.5q-56 0 -101.5 -15t-77.5 -43t-49.5 -67t-17.5 -87t17.5 -87.5t49.5 -67t77.5 -43t101.5 -15.5z " />
<glyph unicode="&#x222b;" horiz-adv-x="793" d="M494 157q5 -74 -17 -135.5t-64.5 -105t-102.5 -67.5t-130 -24q-50 0 -91.5 10.5t-64.5 18.5l27 110q22 -7 57.5 -13.5t76.5 -6.5q90 0 134.5 60t38.5 169l-59 1000q-4 74 17.5 135t63.5 105t102 68t132 24q49 0 90.5 -10t64.5 -19l-27 -109q-22 6 -57.5 12.5t-76.5 6.5 q-89 0 -134 -60t-38 -169z" />
<glyph unicode="&#x2248;" horiz-adv-x="1090" d="M157 801q51 51 109.5 80.5t135.5 29.5q43 0 79.5 -12t70.5 -26.5t67 -26.5t71 -12q28 0 53.5 7.5t47.5 18.5t41 24.5t35 24.5l52 -80q-51 -51 -109.5 -80.5t-135.5 -29.5q-44 0 -80 12t-70 26.5t-67.5 26.5t-70.5 12q-28 0 -53.5 -7.5t-47.5 -19t-41 -24.5t-34 -24z M157 502q52 53 112.5 83.5t139.5 30.5q43 0 78.5 -12t68 -26.5t65 -26.5t69.5 -12q30 0 57.5 7t51.5 18t44.5 23t37.5 23l52 -80q-54 -49 -116 -78t-143 -29q-42 0 -77.5 12t-68.5 26.5t-65.5 26.5t-69.5 12q-29 0 -55 -8t-49.5 -19.5t-43 -25t-35.5 -25.5z" />
<glyph unicode="&#x2260;" horiz-adv-x="1216" d="M194 897h497l183 314l85 -50l-153 -264h215v-115h-282l-136 -233h418v-115h-484l-183 -315l-86 50l154 265h-228v115h295l136 233h-431v115z" />
<glyph unicode="&#x2264;" horiz-adv-x="985" d="M152 183h656v-114h-656v114zM798 1161l-455 -344l455 -345l-76 -90l-570 435l570 434z" />
<glyph unicode="&#x2265;" horiz-adv-x="1003" d="M194 183h656v-114h-656v114zM204 472l455 345l-455 344l76 90l570 -434l-570 -435z" />
<glyph unicode="&#x2460;" d="M165 665q0 142 54 266.5t147 217.5t217.5 147t266.5 54t266.5 -54t217.5 -147t147 -217.5t54 -266.5t-54 -266.5t-147 -217.5t-217.5 -147t-266.5 -54t-266.5 54t-217.5 147t-147 217.5t-54 266.5zM286 665q0 -117 44 -220t120.5 -179.5t179.5 -120.5t220 -44t220 44 t179.5 120.5t120.5 179.5t44 220t-44 220t-120.5 179.5t-179.5 120.5t-220 44t-220 -44t-179.5 -120.5t-120.5 -179.5t-44 -220zM800 432v466q-26 -3 -63.5 -6t-65.5 -5l-10 92q23 2 54 5t64 6.5t64 7.5t54 7h25v-573l115 -5v-94h-370v94z" />
<glyph unicode="&#x2461;" d="M165 665q0 142 54 266.5t147 217.5t217.5 147t266.5 54t266.5 -54t217.5 -147t147 -217.5t54 -266.5t-54 -266.5t-147 -217.5t-217.5 -147t-266.5 -54t-266.5 54t-217.5 147t-147 217.5t-54 266.5zM286 665q0 -117 44 -220t120.5 -179.5t179.5 -120.5t220 -44t220 44 t179.5 120.5t120.5 179.5t44 220t-44 220t-120.5 179.5t-179.5 120.5t-220 44t-220 -44t-179.5 -120.5t-120.5 -179.5t-44 -220zM619 411q84 87 140 150t89.5 108t47.5 75.5t14 53.5q0 50 -25.5 77t-79.5 27q-23 0 -44 -4t-39 -10t-31.5 -12.5t-22.5 -10.5l-40 85 q15 8 35.5 17.5t45 18t53 14t59.5 5.5q49 0 89 -14.5t68 -41t43 -63.5t15 -81q0 -38 -15 -74.5t-47 -79.5t-81 -96t-116 -123h287v-99h-445v78z" />
<glyph unicode="&#x2462;" d="M165 665q0 142 54 266.5t147 217.5t217.5 147t266.5 54t266.5 -54t217.5 -147t147 -217.5t54 -266.5t-54 -266.5t-147 -217.5t-217.5 -147t-266.5 -54t-266.5 54t-217.5 147t-147 217.5t-54 266.5zM286 665q0 -117 44 -220t120.5 -179.5t179.5 -120.5t220 -44t220 44 t179.5 120.5t120.5 179.5t44 220t-44 220t-120.5 179.5t-179.5 120.5t-220 44t-220 -44t-179.5 -120.5t-120.5 -179.5t-44 -220zM922 811q0 44 -27 67.5t-83 23.5q-46 0 -81.5 -12t-49.5 -18l-39 85l24 12t39 16t52.5 14t63.5 6q54 0 95.5 -14.5t69.5 -39.5t42.5 -59 t14.5 -73q0 -43 -23 -78.5t-62 -60.5q49 -21 77.5 -61.5t28.5 -94.5q0 -45 -17 -82.5t-49.5 -63.5t-79 -40.5t-106.5 -14.5q-30 0 -57 5t-50 12.5t-40.5 16t-28.5 14.5l36 90q9 -4 24 -10t34 -11.5t42 -9.5t49 -4q24 0 46 6t39 17.5t27 28.5t10 39q0 51 -34 78.5t-97 27.5 h-68v95h113q11 4 22.5 12t21 20t15.5 27t6 34z" />
<glyph unicode="&#x2463;" d="M165 665q0 142 54 266.5t147 217.5t217.5 147t266.5 54t266.5 -54t217.5 -147t147 -217.5t54 -266.5t-54 -266.5t-147 -217.5t-217.5 -147t-266.5 -54t-266.5 54t-217.5 147t-147 217.5t-54 266.5zM286 665q0 -117 44 -220t120.5 -179.5t179.5 -120.5t220 -44t220 44 t179.5 120.5t120.5 179.5t44 220t-44 220t-120.5 179.5t-179.5 120.5t-220 44t-220 -44t-179.5 -120.5t-120.5 -179.5t-44 -220zM857 995h115v-413h99v-99h-99v-150h-118v150h-300v77zM854 582v229l-157 -229h157z" />
<glyph unicode="&#x2464;" d="M165 665q0 142 54 266.5t147 217.5t217.5 147t266.5 54t266.5 -54t217.5 -147t147 -217.5t54 -266.5t-54 -266.5t-147 -217.5t-217.5 -147t-266.5 -54t-266.5 54t-217.5 147t-147 217.5t-54 266.5zM286 665q0 -117 44 -220t120.5 -179.5t179.5 -120.5t220 -44t220 44 t179.5 120.5t120.5 179.5t44 220t-44 220t-120.5 179.5t-179.5 120.5t-220 44t-220 -44t-179.5 -120.5t-120.5 -179.5t-44 -220zM941 538q0 59 -39 90.5t-103 31.5q-45 0 -79.5 -5.5t-57.5 -11.5l12 352h364v-99h-251l-5 -140q6 1 15.5 1.5t17.5 0.5q58 0 105 -14.5t79 -42 t49 -67t17 -89.5q0 -48 -18 -88.5t-52 -70.5t-82 -46.5t-108 -16.5q-33 0 -61 5.5t-50.5 12.5t-38 14.5t-21.5 11.5l33 89q20 -8 57.5 -19t85.5 -11q57 0 94 29.5t37 82.5z" />
<glyph unicode="&#x2465;" d="M165 665q0 142 54 266.5t147 217.5t217.5 147t266.5 54t266.5 -54t217.5 -147t147 -217.5t54 -266.5t-54 -266.5t-147 -217.5t-217.5 -147t-266.5 -54t-266.5 54t-217.5 147t-147 217.5t-54 266.5zM286 665q0 -117 44 -220t120.5 -179.5t179.5 -120.5t220 -44t220 44 t179.5 120.5t120.5 179.5t44 220t-44 220t-120.5 179.5t-179.5 120.5t-220 44t-220 -44t-179.5 -120.5t-120.5 -179.5t-44 -220zM892 901q-40 0 -70.5 -16.5t-52.5 -43.5t-35 -62t-17 -72q14 12 47.5 25.5t76.5 13.5q51 0 93 -14t72.5 -40t47 -64t16.5 -86q0 -49 -16 -89 t-46 -69t-74 -45t-101 -16q-122 0 -183 79t-61 229q0 76 18 144t55.5 119t95.5 81t138 30q56 0 92.5 -12t47.5 -17l-28 -94q-11 4 -42 11.5t-74 7.5zM841 425q46 0 75 27.5t29 80.5q0 30 -9 51t-24.5 34t-36 19t-42.5 6q-42 0 -72 -14.5t-45 -31.5q1 -80 31 -126t94 -46z " />
<glyph unicode="&#x2466;" d="M165 665q0 142 54 266.5t147 217.5t217.5 147t266.5 54t266.5 -54t217.5 -147t147 -217.5t54 -266.5t-54 -266.5t-147 -217.5t-217.5 -147t-266.5 -54t-266.5 54t-217.5 147t-147 217.5t-54 266.5zM286 665q0 -117 44 -220t120.5 -179.5t179.5 -120.5t220 -44t220 44 t179.5 120.5t120.5 179.5t44 220t-44 220t-120.5 179.5t-179.5 120.5t-220 44t-220 -44t-179.5 -120.5t-120.5 -179.5t-44 -220zM1082 911l-246 -578h-124l240 563h-203l-6 -99h-96l-7 198h442v-84z" />
<glyph unicode="&#x2467;" d="M165 665q0 142 54 266.5t147 217.5t217.5 147t266.5 54t266.5 -54t217.5 -147t147 -217.5t54 -266.5t-54 -266.5t-147 -217.5t-217.5 -147t-266.5 -54t-266.5 54t-217.5 147t-147 217.5t-54 266.5zM286 665q0 -117 44 -220t120.5 -179.5t179.5 -120.5t220 -44t220 44 t179.5 120.5t120.5 179.5t44 220t-44 220t-120.5 179.5t-179.5 120.5t-220 44t-220 -44t-179.5 -120.5t-120.5 -179.5t-44 -220zM850 323q-43 0 -84 12t-73.5 35t-52.5 57.5t-20 79.5q0 28 9.5 53t25.5 45.5t36.5 37t41.5 29.5q-44 25 -73 59.5t-29 84.5q0 45 19.5 80 t51.5 59.5t72.5 37t82.5 12.5q38 0 77 -12t70 -35.5t50.5 -56.5t19.5 -75q0 -28 -8 -50t-22 -40t-32.5 -32.5t-39.5 -26.5q47 -27 80 -67.5t33 -91.5q0 -47 -20 -83.5t-52.5 -61.5t-75 -37.5t-87.5 -12.5zM754 824q0 -41 29 -68t74 -38q19 5 36 14.5t30 23t21 29.5t8 33 q0 36 -27 60.5t-75 24.5q-45 0 -70.5 -24t-25.5 -55zM964 510q0 22 -10.5 42.5t-27 37t-36.5 28.5t-39 18q-18 -7 -37 -19.5t-34.5 -28.5t-26 -35t-10.5 -39q0 -41 31 -65t83 -24q23 0 42.5 6.5t34 18t22.5 27t8 33.5z" />
<glyph unicode="&#x2468;" d="M165 665q0 142 54 266.5t147 217.5t217.5 147t266.5 54t266.5 -54t217.5 -147t147 -217.5t54 -266.5t-54 -266.5t-147 -217.5t-217.5 -147t-266.5 -54t-266.5 54t-217.5 147t-147 217.5t-54 266.5zM286 665q0 -117 44 -220t120.5 -179.5t179.5 -120.5t220 -44t220 44 t179.5 120.5t120.5 179.5t44 220t-44 220t-120.5 179.5t-179.5 120.5t-220 44t-220 -44t-179.5 -120.5t-120.5 -179.5t-44 -220zM814 427q42 0 72 16t50 43t30.5 62t13.5 73q-15 -12 -48.5 -25.5t-75.5 -13.5q-52 0 -94 14t-72 40t-46.5 64t-16.5 85q0 49 16 89.5t46 69.5 t74 45t101 16q122 0 183 -79t61 -230q0 -80 -16 -148t-51 -118t-92 -78.5t-139 -28.5q-30 0 -56 4.5t-46.5 10.5t-34.5 12t-20 9l32 92q13 -5 46 -14.5t83 -9.5zM856 903q-47 0 -75.5 -27.5t-28.5 -81.5q0 -30 9 -51t24.5 -34t36 -19t42.5 -6q42 0 71.5 14.5t45.5 31.5 q-1 81 -31 127t-94 46z" />
<glyph unicode="&#x24ea;" d="M165 665q0 142 54 266.5t147 217.5t217.5 147t266.5 54t266.5 -54t217.5 -147t147 -217.5t54 -266.5t-54 -266.5t-147 -217.5t-217.5 -147t-266.5 -54t-266.5 54t-217.5 147t-147 217.5t-54 266.5zM286 665q0 -117 44 -220t120.5 -179.5t179.5 -120.5t220 -44t220 44 t179.5 120.5t120.5 179.5t44 220t-44 220t-120.5 179.5t-179.5 120.5t-220 44t-220 -44t-179.5 -120.5t-120.5 -179.5t-44 -220zM853 425q64 0 104 61t40 173q0 56 -10.5 101t-29.5 77t-47 49t-62 17q-64 0 -103.5 -61.5t-39.5 -175.5q0 -55 10 -99.5t29.5 -76t46.5 -48.5 t62 -17zM848 323q-69 0 -119.5 25.5t-83.5 70.5t-49.5 106.5t-16.5 133.5q0 73 17 136t51.5 109.5t86 73.5t119.5 27q69 0 119.5 -25.5t83.5 -71t49.5 -107.5t16.5 -135q0 -72 -17.5 -134.5t-52 -109t-85.5 -73t-119 -26.5z" />
<glyph unicode="&#x24ff;" d="M165 665q0 142 54 266.5t147 217.5t217.5 147t266.5 54t266.5 -54t217.5 -147t147 -217.5t54 -266.5t-54 -266.5t-147 -217.5t-217.5 -147t-266.5 -54t-266.5 54t-217.5 147t-147 217.5t-54 266.5zM853 425q-35 0 -62 17t-46.5 48.5t-29.5 76t-10 99.5q0 114 39.5 175.5 t103.5 61.5q34 0 62 -17t47 -49t29.5 -77t10.5 -101q0 -112 -40 -173t-104 -61zM848 323q68 0 119 26.5t85.5 73t52 109t17.5 134.5q0 73 -16.5 135t-49.5 107.5t-83.5 71t-119.5 25.5q-68 0 -119.5 -27t-86 -73.5t-51.5 -109.5t-17 -136q0 -72 16.5 -133.5t49.5 -106.5 t83.5 -70.5t119.5 -25.5z" />
<glyph unicode="&#x25ca;" horiz-adv-x="1261" d="M687 0h-112l-506 665l506 666h112l505 -666zM631 1200l-400 -535l400 -534l400 534z" />
<glyph unicode="&#x2776;" d="M165 665q0 142 54 266.5t147 217.5t217.5 147t266.5 54t266.5 -54t217.5 -147t147 -217.5t54 -266.5t-54 -266.5t-147 -217.5t-217.5 -147t-266.5 -54t-266.5 54t-217.5 147t-147 217.5t-54 266.5zM667 427v-94h370v94l-115 5v573h-25q-23 -3 -54 -7t-64 -7.5t-64 -6.5 t-54 -5l10 -92q28 2 65.5 5t63.5 6v-466z" />
<glyph unicode="&#x2777;" d="M165 665q0 142 54 266.5t147 217.5t217.5 147t266.5 54t266.5 -54t217.5 -147t147 -217.5t54 -266.5t-54 -266.5t-147 -217.5t-217.5 -147t-266.5 -54t-266.5 54t-217.5 147t-147 217.5t-54 266.5zM619 333h445v99h-287q67 70 116 123t81 96t47 79.5t15 74.5q0 44 -15 81 t-43 63.5t-68 41t-89 14.5q-31 0 -59.5 -5.5t-53 -14t-45 -18t-35.5 -17.5l40 -85q9 4 22.5 10.5t31.5 12.5t39 10t44 4q54 0 79.5 -27t25.5 -77q0 -23 -14 -53.5t-47.5 -75.5t-89.5 -108t-140 -150v-78z" />
<glyph unicode="&#x2778;" d="M165 665q0 142 54 266.5t147 217.5t217.5 147t266.5 54t266.5 -54t217.5 -147t147 -217.5t54 -266.5t-54 -266.5t-147 -217.5t-217.5 -147t-266.5 -54t-266.5 54t-217.5 147t-147 217.5t-54 266.5zM922 811q0 -19 -6 -34t-15.5 -27t-21 -20t-22.5 -12h-113v-95h68 q63 0 97 -27.5t34 -78.5q0 -22 -10 -39t-27 -28.5t-39 -17.5t-46 -6q-26 0 -49 4t-42 9.5t-34 11.5t-24 10l-36 -90q11 -6 28.5 -14.5t40.5 -16t50 -12.5t57 -5q60 0 106.5 14.5t79 40.5t49.5 63.5t17 82.5q0 54 -28.5 94.5t-77.5 61.5q39 25 62 60.5t23 78.5q0 39 -14.5 73 t-42.5 59t-69.5 39.5t-95.5 14.5q-34 0 -63.5 -6t-52.5 -14t-39 -16l-24 -12l39 -85q14 6 49.5 18t81.5 12q56 0 83 -23.5t27 -67.5z" />
<glyph unicode="&#x2779;" d="M165 665q0 142 54 266.5t147 217.5t217.5 147t266.5 54t266.5 -54t217.5 -147t147 -217.5t54 -266.5t-54 -266.5t-147 -217.5t-217.5 -147t-266.5 -54t-266.5 54t-217.5 147t-147 217.5t-54 266.5zM554 560v-77h300v-150h118v150h99v99h-99v413h-115zM697 582l157 229 v-229h-157z" />
<glyph unicode="&#x277a;" d="M165 665q0 142 54 266.5t147 217.5t217.5 147t266.5 54t266.5 -54t217.5 -147t147 -217.5t54 -266.5t-54 -266.5t-147 -217.5t-217.5 -147t-266.5 -54t-266.5 54t-217.5 147t-147 217.5t-54 266.5zM941 538q0 -53 -37 -82.5t-94 -29.5q-48 0 -85.5 11t-57.5 19l-33 -89 q6 -4 21.5 -11.5t38 -14.5t50.5 -12.5t61 -5.5q60 0 108 16.5t82 46.5t52 70.5t18 88.5q0 50 -17 89.5t-49 67t-79 42t-105 14.5q-8 0 -17.5 -0.5t-15.5 -1.5l5 140h251v99h-364l-12 -352q23 6 57.5 11.5t79.5 5.5q64 0 103 -31.5t39 -90.5z" />
<glyph unicode="&#x277b;" d="M165 665q0 142 54 266.5t147 217.5t217.5 147t266.5 54t266.5 -54t217.5 -147t147 -217.5t54 -266.5t-54 -266.5t-147 -217.5t-217.5 -147t-266.5 -54t-266.5 54t-217.5 147t-147 217.5t-54 266.5zM892 901q43 0 74 -7.5t42 -11.5l28 94q-11 5 -47.5 17t-92.5 12 q-80 0 -138 -30t-95.5 -81t-55.5 -119t-18 -144q0 -150 61 -229t183 -79q57 0 101 16t74 45t46 69t16 89q0 48 -16.5 86t-47 64t-72.5 40t-93 14q-43 0 -76.5 -13.5t-47.5 -25.5q4 37 17 72t35 62t52.5 43.5t70.5 16.5zM841 425q-64 0 -94 46t-31 126q15 17 45 31.5t72 14.5 q22 0 42.5 -6t36 -19t24.5 -34t9 -51q0 -53 -29 -80.5t-75 -27.5z" />
<glyph unicode="&#x277c;" d="M165 665q0 142 54 266.5t147 217.5t217.5 147t266.5 54t266.5 -54t217.5 -147t147 -217.5t54 -266.5t-54 -266.5t-147 -217.5t-217.5 -147t-266.5 -54t-266.5 54t-217.5 147t-147 217.5t-54 266.5zM1082 995h-442l7 -198h96l6 99h203l-240 -563h124l246 578v84z" />
<glyph unicode="&#x277d;" d="M165 665q0 142 54 266.5t147 217.5t217.5 147t266.5 54t266.5 -54t217.5 -147t147 -217.5t54 -266.5t-54 -266.5t-147 -217.5t-217.5 -147t-266.5 -54t-266.5 54t-217.5 147t-147 217.5t-54 266.5zM850 323q45 0 87.5 12.5t75 37.5t52.5 61.5t20 83.5q0 51 -33 91.5 t-80 67.5q21 12 39.5 26.5t32.5 32.5t22 40t8 50q0 42 -19.5 75t-50.5 56.5t-70 35.5t-77 12q-42 0 -82.5 -12.5t-72.5 -37t-51.5 -59.5t-19.5 -80q0 -50 29 -84.5t73 -59.5q-21 -13 -41.5 -29.5t-36.5 -37t-25.5 -45.5t-9.5 -53q0 -45 20 -79.5t52.5 -57.5t73.5 -35t84 -12 zM754 824q0 31 25.5 55t70.5 24q48 0 75 -24.5t27 -60.5q0 -17 -8 -33t-21 -29.5t-30 -23t-36 -14.5q-45 11 -74 38t-29 68zM964 510q0 -18 -8 -33.5t-22.5 -27t-34 -18t-42.5 -6.5q-52 0 -83 24t-31 65q0 20 10.5 39t26 35t34.5 28.5t37 19.5q19 -6 39 -18t36.5 -28.5 t27 -37t10.5 -42.5z" />
<glyph unicode="&#x277e;" d="M165 665q0 142 54 266.5t147 217.5t217.5 147t266.5 54t266.5 -54t217.5 -147t147 -217.5t54 -266.5t-54 -266.5t-147 -217.5t-217.5 -147t-266.5 -54t-266.5 54t-217.5 147t-147 217.5t-54 266.5zM814 427q-50 0 -83 9.5t-46 14.5l-32 -92q6 -3 20 -9t34.5 -12 t46.5 -10.5t56 -4.5q82 0 139 28.5t92 78.5t51 118t16 148q0 151 -61 230t-183 79q-57 0 -101 -16t-74 -45t-46 -69.5t-16 -89.5q0 -47 16.5 -85t46.5 -64t72 -40t94 -14q42 0 75.5 13.5t48.5 25.5q-3 -38 -13.5 -73t-30.5 -62t-50 -43t-72 -16zM856 903q64 0 94 -46 t31 -127q-16 -17 -45.5 -31.5t-71.5 -14.5q-22 0 -42.5 6t-36 19t-24.5 34t-9 51q0 54 28.5 81.5t75.5 27.5z" />
<glyph unicode="&#xe000;" horiz-adv-x="1025" d="M0 1025h1025v-1025h-1025v1025z" />
<glyph unicode="&#xfb06;" horiz-adv-x="1537" d="M1131 1024h309v-115h-307v-616q0 -103 43 -148.5t139 -45.5q15 0 32.5 1.5t35.5 4t34 6t28 7.5l27 -109q-17 -6 -39.5 -11.5t-47 -9t-49 -6t-45.5 -2.5q-145 0 -222 73t-77 216v1100h-161q-110 0 -160.5 -46.5t-50.5 -127.5q0 -46 13 -85.5t36 -74.5t54.5 -68t68.5 -67 l-95 -85q-24 17 -45 37.5t-39 40.5q-37 11 -81.5 19.5t-93.5 8.5q-47 0 -84.5 -10.5t-64.5 -30t-41.5 -47.5t-14.5 -64q0 -29 8 -53.5t29 -46.5t58 -43.5t96 -44.5l88 -35q58 -23 102.5 -51t75.5 -63t47 -78.5t16 -97.5q0 -64 -23.5 -115t-69 -87t-112.5 -55t-154 -19 q-100 0 -179 22.5t-131 51.5l41 113q20 -10 48.5 -21.5t63 -21t75 -16t84.5 -6.5q100 0 160 35t60 112q0 35 -12.5 62.5t-38.5 50.5t-66.5 44t-96.5 44l-87 34q-104 40 -161 107t-57 169q0 67 27.5 119.5t74.5 89t109.5 56t132.5 19.5q24 0 46.5 -1.5t43.5 -5.5 q-20 32 -30.5 71.5t-10.5 87.5q0 55 20.5 106t62.5 90.5t106 63.5t151 24h270q8 0 15.5 0.5t15.5 0.5v-457z" />
<glyph horiz-adv-x="1077" d="M34 0v80l430 958h149l430 -958v-80h-1009zM193 113h691q-77 177 -153.5 352.5t-154.5 352.5l-38 90z" />
<glyph horiz-adv-x="1185" d="M136 440h699v-108h-408q42 -106 132.5 -166t223.5 -67q39 -3 82 0q42 3 84.5 13.5t83.5 24.5l41 -98q-27 -13 -60 -24t-69 -18.5t-73.5 -12t-73.5 -4.5q-106 0 -193 25t-154 71t-112.5 111t-68.5 145h-134v108zM136 689h135q24 79 69.5 144.5t110.5 112.5t148.5 72.5 t182.5 25.5q65 0 134.5 -17t128.5 -44l-46 -97q-32 11 -73.5 21.5t-89.5 15.5q-22 2 -44 3t-45 -1q-57 -3 -107.5 -20t-93 -46.5t-74.5 -72t-51 -97.5h414v-107h-699v107z" />
<glyph horiz-adv-x="1250" d="M1137 0h-420v114q37 19 81 57t82 92t64 121.5t26 145.5q0 90 -26 162.5t-72.5 124t-110.5 79t-140 27.5q-74 0 -136.5 -26t-107.5 -74.5t-70.5 -118t-25.5 -155.5q0 -85 25.5 -156.5t64 -127t82.5 -94t81 -57.5v-114h-421v110l254 1q-45 30 -87.5 72.5t-75.5 96.5 t-53.5 118.5t-20.5 138.5q0 106 36 198.5t102 161t158.5 108t205.5 39.5q110 0 200 -39t154 -106.5t99 -159t35 -197.5q0 -75 -20.5 -140.5t-53.5 -120t-75.5 -97.5t-86.5 -73l253 -1v-110z" />
<glyph horiz-adv-x="1410" d="M699 -20q-136 0 -245.5 48t-187 136.5t-119 214.5t-41.5 283q0 159 42.5 286t121 216.5t190.5 137.5t251 48q136 0 245.5 -48t187 -136.5t119 -214.5t41.5 -283q0 -197 -63.5 -343t-181.5 -234l288 -276l-98 -96l-297 310q-57 -23 -119.5 -36t-133.5 -13zM712 100 q101 0 182.5 38.5t139 110t88.5 174t31 230.5q0 134 -31.5 241t-90.5 181.5t-143 114.5t-190 40q-101 0 -182 -38.5t-139 -110.5t-89 -174.5t-31 -229.5q0 -134 31.5 -241t90.5 -181.5t143 -114.5t190 -40z" />
<glyph horiz-adv-x="1077" d="M777 271h-478l-111 -271h-149l436 1024h127l436 -1024h-149zM344 382h388l-194 484z" />
<glyph horiz-adv-x="1077" d="M777 271h-478l-111 -271h-149l436 1024h127l436 -1024h-149zM344 382h388l-194 484zM308 1291l431 208l56 -127l-450 -164z" />
<glyph horiz-adv-x="1077" d="M777 271h-478l-111 -271h-149l436 1024h127l436 -1024h-149zM344 382h388l-194 484zM386 1456q3 -33 13 -62.5t29 -51t46 -34t64 -12.5t64.5 12.5t46 34t29 51t12.5 62.5h102q3 -60 -14.5 -109t-51 -84t-81.5 -54t-107 -19t-107 19t-81.5 54t-50.5 84t-14 109h101z" />
<glyph horiz-adv-x="1077" d="M777 271h-478l-111 -271h-149l436 1024h127l436 -1024h-149zM344 382h388l-194 484zM755 1183q-26 17 -55 38t-58 43t-56 43.5t-48 39.5q-21 -18 -47.5 -39.5t-55 -43.5t-58 -43t-55.5 -38l-68 96q61 38 134.5 89t149.5 111q77 -60 150 -111t134 -89z" />
<glyph horiz-adv-x="1077" d="M777 271h-478l-111 -271h-149l436 1024h127l436 -1024h-149zM344 382h388l-194 484zM253 1345q0 45 29.5 74.5t74.5 29.5q19 0 36 -7.5t30 -20.5t20.5 -30.5t7.5 -36.5q0 -23 -8 -42t-22 -33t-32.5 -22t-40.5 -8q-20 0 -37 7.5t-30 21t-20.5 30.5t-7.5 37zM626 1345 q0 45 29.5 74.5t74.5 29.5q19 0 36 -7.5t30 -20.5t21 -30.5t8 -36.5q0 -23 -8 -42t-22 -33t-33 -22t-41 -8q-19 0 -36.5 7.5t-30.5 21t-20.5 30.5t-7.5 37z" />
<glyph horiz-adv-x="1574" d="M1454 913h-466v-343h448v-111h-448v-349h483v-110h-623v276h-437l-222 -276h-161l825 1024h601v-111zM500 386h348v432z" />
<glyph horiz-adv-x="1574" d="M1454 913h-466v-343h448v-111h-448v-349h483v-110h-623v276h-437l-222 -276h-161l825 1024h601v-111zM500 386h348v432zM953 1291l431 208l56 -127l-450 -164z" />
<glyph horiz-adv-x="749" d="M646 776q0 -67 -26 -125.5t-76 -112t-123 -103t-168 -98.5v-27q0 -108 43.5 -161.5t124.5 -53.5q32 0 61.5 5.5t56 14t48.5 18.5t38 19l40 -98q-18 -11 -42.5 -23.5t-56.5 -24t-71.5 -19t-87.5 -7.5q-61 0 -113 19.5t-89.5 58.5t-59 97.5t-21.5 136.5v385q0 25 1.5 49 t3.5 47q6 61 25.5 111.5t52 85.5t79 54.5t107.5 19.5q63 0 110 -20t79 -55.5t48 -85t16 -107.5zM253 457q58 31 106.5 65t83.5 73.5t55 85.5t20 100q0 29 -7.5 56t-22.5 48t-38.5 33.5t-56.5 12.5q-38 0 -65 -16t-43.5 -45t-24 -69.5t-7.5 -89.5v-254z" />
<glyph horiz-adv-x="1077" d="M777 271h-478l-111 -271h-149l436 1024h127l436 -1024h-149zM344 382h388l-194 484zM730 1209l-428 155l57 127l408 -198z" />
<glyph horiz-adv-x="1077" d="M777 271h-478l-111 -271h-149l436 1024h127l436 -1024h-149zM344 382h388l-194 484zM276 1404h524v-107h-524v107z" />
<glyph horiz-adv-x="1123" d="M110 258q0 94 58.5 170t161.5 126q-41 44 -67.5 77t-42 61t-21.5 53.5t-6 54.5q0 54 21 98.5t58.5 77t88.5 50.5t112 18q57 0 106 -17.5t86 -48.5t58 -73t21 -91q0 -40 -13.5 -77.5t-39.5 -72.5h372v-108h-156q21 -38 32 -84.5t11 -93.5q0 -64 -21.5 -125.5t-57.5 -110.5 l137 -145l-93 -79l-130 141l-21 -11q-57 -32 -123.5 -50t-149.5 -18q-78 0 -147.5 20t-121.5 56t-82 87.5t-30 114.5zM544 647q21 24 34 43t21 36.5t11 35t3 38.5q0 30 -11 54.5t-31 42.5t-47.5 27.5t-61.5 9.5q-27 0 -51.5 -9t-44 -25t-31 -38t-11.5 -48q0 -23 5.5 -43.5 t18 -43t32.5 -48t49 -56.5l361 -387q10 4 17 20.5t12 36.5t7.5 40t2.5 31q0 53 -10.5 101.5t-31.5 90.5h-165zM504 90q56 0 108 13t94 39l-305 335h-4q-74 -40 -114 -92.5t-40 -114.5q0 -44 20 -77.5t55.5 -56t83 -34.5t102.5 -12z" />
<glyph horiz-adv-x="1077" d="M1001 0q-27 -20 -54 -45t-49 -53.5t-36 -59.5t-14 -63q0 -51 26.5 -75t68.5 -24q19 0 37 4t33 9t24.5 9.5t12.5 6.5l32 -74q-7 -6 -22 -14.5t-36 -16.5t-47 -14t-54 -6q-40 0 -75 11.5t-61.5 33.5t-42 54t-15.5 72q0 39 13.5 74.5t36 67t50.5 58t58 48.5l-110 268h-478 l-111 -271h-149l436 1024h127l436 -1024h-37zM344 382h388l-194 484z" />
<glyph horiz-adv-x="1084" d="M154 647q51 50 109.5 80t135.5 30q43 0 79.5 -12t70.5 -26.5t67 -26.5t71 -12q28 0 53.5 7.5t47.5 18.5t41 24t35 24l52 -80q-51 -50 -109.5 -80t-135.5 -30q-44 0 -80 12t-70 26.5t-67.5 26.5t-70.5 12q-28 0 -53.5 -7.5t-47.5 -18.5t-41 -24t-34 -24zM154 348 q52 52 112.5 83t139.5 31q43 0 78.5 -12t68 -26.5t65 -26.5t69.5 -12q30 0 57.5 7t51.5 17.5t44.5 23t37.5 23.5l52 -80q-54 -49 -116 -78t-143 -29q-42 0 -77.5 12t-68.5 26.5t-65.5 26.5t-69.5 12q-29 0 -55 -8t-49.5 -19.5t-43 -25t-35.5 -25.5z" />
<glyph horiz-adv-x="1077" d="M777 271h-478l-111 -271h-149l436 1024h127l436 -1024h-149zM344 382h388l-194 484zM336 1346q0 43 15.5 81t43.5 66t66 44t82 16q39 0 75 -15.5t63.5 -42.5t43.5 -63t16 -76q0 -44 -16 -82t-43.5 -66t-65.5 -44t-83 -16q-39 0 -74.5 15.5t-63 42.5t-43.5 63t-16 77z M434 1350q0 -22 8.5 -41t22.5 -33.5t33 -23t39 -8.5q23 0 42.5 8.5t33.5 23.5t22 34.5t8 41.5t-8.5 41t-23 33t-33 22t-38.5 8q-23 0 -42.5 -8.5t-33.5 -23t-22 -33.5t-8 -41z" />
<glyph horiz-adv-x="1077" d="M777 271h-478l-111 -271h-149l436 1024h127l436 -1024h-149zM344 382h388l-194 484zM346 1482l332 162l49 -109l-348 -126zM398 1252q0 31 11 57.5t31 46.5t46.5 31.5t58.5 11.5q28 0 53.5 -11t44.5 -30t30.5 -44.5t11.5 -53.5q0 -32 -11 -59t-31 -47t-47 -31.5 t-59 -11.5q-28 0 -53 11t-44 30t-30.5 45t-11.5 55zM479 1255q0 -26 18.5 -44.5t42.5 -18.5q28 0 46 18.5t18 45.5q0 26 -18.5 44t-43.5 18q-27 0 -45 -18.5t-18 -44.5z" />
<glyph horiz-adv-x="1077" d="M777 271h-478l-111 -271h-149l436 1024h127l436 -1024h-149zM344 382h388l-194 484zM238 1325q30 52 80.5 85t114.5 33q30 0 58.5 -10t55.5 -22.5t52.5 -22.5t49.5 -10q20 0 36.5 7t30 17t23.5 21t17 20l73 -68q-33 -56 -81 -87t-111 -31q-30 0 -57 10.5t-53.5 22.5 t-52.5 22.5t-53 10.5q-19 0 -36 -7t-31 -17.5t-25 -21.5t-17 -20z" />
<glyph horiz-adv-x="1030" d="M166 0v1024h340q84 0 152.5 -17t117 -50.5t74.5 -83t26 -113.5q0 -40 -12 -73t-31.5 -60t-46 -48t-54.5 -38q39 -12 74.5 -34.5t62.5 -54.5t43.5 -72t16.5 -87q0 -70 -23.5 -124.5t-74 -92t-128.5 -57t-187 -19.5h-350zM304 471v-361h200q137 0 207 37.5t70 133.5 q0 86 -61.5 138t-184.5 52h-231zM303 913q0 -84 0.5 -166t0.5 -167h301q24 10 46 26.5t39.5 38t27.5 48t10 56.5q0 87 -61.5 125.5t-172.5 38.5h-191z" />
<glyph horiz-adv-x="679" d="M296 1218q0 -53 23 -97.5t49 -83.5q22 -33 44.5 -65t41 -66t30.5 -70.5t12 -77.5q0 -44 -14 -83t-38 -71t-57.5 -55.5t-72.5 -36.5q39 -13 72.5 -36.5t57.5 -53.5t38 -64.5t14 -70.5q0 -47 -12 -87t-30.5 -75.5t-41 -68.5t-44.5 -65q-13 -19 -25.5 -39t-23 -41t-17 -43 t-6.5 -44q0 -34 12 -63t34 -50t53.5 -32.5t70.5 -11.5q32 0 62.5 5t55.5 12l26 -107q-23 -8 -64.5 -16.5t-95.5 -8.5q-63 0 -115 20.5t-89.5 55.5t-58 82.5t-20.5 100.5q0 39 9.5 74t25.5 67t35.5 61.5t40.5 59.5q34 50 60.5 98t26.5 99q0 35 -13 68t-40 59t-69 41.5 t-100 15.5h-20v116h26q55 0 96 15.5t67.5 40.5t39.5 55t13 60q0 56 -27 107t-61 101q-20 30 -40 59.5t-35.5 60t-25 62t-9.5 66.5q0 60 20.5 110.5t59.5 87t94.5 57.5t124.5 21q42 0 81 -8.5t62 -16.5l-26 -108q-25 8 -57.5 13.5t-75.5 5.5q-34 0 -62 -11.5t-48.5 -31 t-32 -45t-11.5 -53.5z" />
<glyph horiz-adv-x="679" d="M383 -193q0 52 -23 97.5t-49 83.5q-22 33 -44.5 65.5t-41 66t-30.5 70t-12 78.5q0 43 14 82.5t38 71.5t57.5 55.5t72.5 36.5q-39 13 -72.5 36t-57.5 53t-38 64.5t-14 70.5q0 47 12 87t30.5 76t41 68.5t44.5 64.5q13 19 26 39t23 41t16.5 43t6.5 45q0 34 -12 62.5 t-34 49.5t-53.5 33t-70.5 12q-32 0 -62.5 -5t-54.5 -13l-27 107q23 9 64.5 17t95.5 8q63 0 115 -20.5t89.5 -55.5t58 -82t20.5 -101q0 -39 -9.5 -73.5t-25.5 -66.5t-35.5 -62t-40.5 -60q-34 -49 -60.5 -97t-26.5 -99q0 -35 13 -68.5t40 -59.5t69 -41.5t100 -15.5h20v-115 h-26q-56 0 -96.5 -16t-67 -40.5t-39.5 -55t-13 -59.5t7.5 -55.5t19.5 -52t28 -50.5t33 -50l40 -60t35.5 -60t25 -62t9.5 -66q0 -60 -20.5 -110.5t-59.5 -87.5t-94.5 -58t-124.5 -21q-42 0 -81 8.5t-62 17.5l26 107q25 -8 57.5 -13t75.5 -5q34 0 62 11.5t48.5 31t32 45 t11.5 52.5z" />
<glyph horiz-adv-x="596" d="M550 -421l-383 -7v1882h383v-110l-247 -4v-1652h247v-109z" />
<glyph horiz-adv-x="596" d="M46 1446l383 7v-1882h-383v110l247 4v1652h-247v109z" />
<glyph horiz-adv-x="981" d="M97 509q0 115 37 213.5t106 169.5t168.5 111.5t224.5 40.5q66 0 135 -17t128 -44l-45 -97q-44 14 -100.5 27.5t-122.5 13.5q-82 0 -152 -26t-121.5 -77t-80.5 -127t-29 -176t28.5 -179t83 -133.5t133 -83.5t178.5 -29q55 0 107 11t109 30l41 -98q-27 -13 -60 -24 t-69 -18.5t-73 -12t-73 -4.5q-134 0 -237 39t-173 109t-106.5 167.5t-36.5 213.5z" />
<glyph horiz-adv-x="2069" d="M782 826q-27 20 -50 43.5t-40 43.5q-21 3 -44 5.5t-49 2.5q-80 0 -145 -28t-110.5 -80.5t-70.5 -126.5t-25 -166q0 -97 24.5 -174.5t71 -131.5t114.5 -82.5t154 -28.5q54 0 109.5 11.5t106.5 31.5l37 -103q-26 -14 -58.5 -25.5t-68 -20t-72.5 -13t-73 -4.5 q-111 0 -202 38t-156 106.5t-100.5 164.5t-35.5 213q0 122 36.5 222t103.5 171t160 110t206 39h9.5t9.5 -1q-18 32 -27.5 69.5t-9.5 83.5q0 55 21 106t63 90.5t106 63.5t150 24h310v-507q66 35 133 53t132 18q104 0 190 -38t147.5 -107t95.5 -165.5t34 -213.5 q0 -125 -35.5 -225t-101.5 -170t-161 -107.5t-213 -37.5q-44 0 -93.5 8.5t-98.5 22.5t-92.5 33.5t-75.5 41.5v1283h-170q-109 0 -160 -46.5t-51 -127.5q0 -45 12 -83t33.5 -72t50.5 -65.5t64 -62.5zM1821 504q0 94 -24 171t-69 132t-108 84.5t-141 29.5q-62 0 -123.5 -16 t-117.5 -48h-1v-706q108 -48 227 -48q85 0 151 27t112 78t70 125.5t24 170.5z" />
<glyph horiz-adv-x="1997" d="M1133 0v1024h340q84 0 152.5 -17t117 -50.5t74.5 -83t26 -113.5q0 -40 -12 -73t-31.5 -60t-46 -48t-54.5 -38q39 -12 74.5 -34.5t62.5 -54.5t43.5 -72t16.5 -87q0 -70 -24 -124.5t-74 -92t-128 -57t-187 -19.5h-350zM97 509q0 115 37 213.5t106 169.5t168.5 111.5 t224.5 40.5q66 0 135 -17t128 -44l-45 -97q-44 14 -100.5 27.5t-122.5 13.5q-82 0 -152 -26t-121.5 -77t-80.5 -127t-29 -176t28.5 -179t83 -133.5t133 -83.5t178.5 -29q55 0 107 11t109 30l41 -98q-27 -13 -60 -24t-69 -18.5t-73 -12t-73 -4.5q-134 0 -237 39t-173 109 t-106.5 167.5t-36.5 213.5zM1270 471v-361h201q137 0 207 37.5t70 133.5q0 86 -61.5 138t-184.5 52h-232zM1270 580h302q24 10 46 26.5t39.5 38t27.5 48t10 56.5q0 87 -61.5 125.5t-173.5 38.5h-190v-333z" />
<glyph horiz-adv-x="2065" d="M782 826q-27 20 -50 43.5t-40 43.5q-21 3 -44 5.5t-49 2.5q-80 0 -145 -28t-110.5 -80.5t-70.5 -126.5t-25 -166q0 -97 24.5 -174.5t71 -131.5t114.5 -82.5t154 -28.5q54 0 109.5 11.5t106.5 31.5l37 -103q-26 -14 -58.5 -25.5t-68 -20t-72.5 -13t-73 -4.5 q-111 0 -202 38t-156 106.5t-100.5 164.5t-35.5 213q0 122 36.5 222t103.5 171t160 110t206 39h9.5t9.5 -1q-18 32 -27.5 69.5t-9.5 83.5q0 55 21 106t63 90.5t106 63.5t150 24h310v-580q78 64 167 104t180 40q158 0 237.5 -95.5t79.5 -274.5v-674h-141v652q0 266 -217 266 q-37 0 -78 -10.5t-81.5 -29t-78 -43t-68.5 -52.5v-783h-139v1369h-170q-109 0 -160 -46.5t-51 -127.5q0 -45 12 -83t33.5 -72t50.5 -65.5t64 -62.5z" />
<glyph horiz-adv-x="2156" d="M97 509q0 115 37 213.5t106 169.5t168.5 111.5t224.5 40.5q66 0 135 -17t128 -44l-45 -97q-44 14 -100.5 27.5t-122.5 13.5q-82 0 -152 -26t-121.5 -77t-80.5 -127t-29 -176t28.5 -179t83 -133.5t133 -83.5t178.5 -29q55 0 107 11t109 30l41 -98q-27 -13 -60 -24 t-69 -18.5t-73 -12t-73 -4.5q-134 0 -237 39t-173 109t-106.5 167.5t-36.5 213.5zM1849 459h-555v-459h-141v1024h141v-454h555v454h140v-1024h-140v459z" />
<glyph horiz-adv-x="1965" d="M782 826q-27 20 -50 43.5t-40 43.5q-21 3 -44 5.5t-49 2.5q-80 0 -145 -28t-110.5 -80.5t-70.5 -126.5t-25 -166q0 -97 24.5 -174.5t71 -131.5t114.5 -82.5t154 -28.5q54 0 109.5 11.5t106.5 31.5l37 -103q-26 -14 -58.5 -25.5t-68 -20t-72.5 -13t-73 -4.5 q-111 0 -202 38t-156 106.5t-100.5 164.5t-35.5 213q0 122 36.5 222t103.5 171t160 110t206 39h9.5t9.5 -1q-18 32 -27.5 69.5t-9.5 83.5q0 55 21 106t63 90.5t106 63.5t150 24h310v-1035l459 579h163l-343 -430l385 -594h-162l-322 499l-180 -221v-278h-139v1369h-170 q-109 0 -160 -46.5t-51 -127.5q0 -45 12 -83t33.5 -72t50.5 -65.5t64 -62.5z" />
<glyph horiz-adv-x="2011" d="M97 509q0 115 37 213.5t106 169.5t168.5 111.5t224.5 40.5q66 0 135 -17t128 -44l-45 -97q-44 14 -100.5 27.5t-122.5 13.5q-82 0 -152 -26t-121.5 -77t-80.5 -127t-29 -176t28.5 -179t83 -133.5t133 -83.5t178.5 -29q55 0 107 11t109 30l41 -98q-27 -13 -60 -24 t-69 -18.5t-73 -12t-73 -4.5q-134 0 -237 39t-173 109t-106.5 167.5t-36.5 213.5zM1274 446l477 578h168l-369 -441l425 -583h-168l-348 487l-185 -219v-268h-141v1024h141v-578z" />
<glyph horiz-adv-x="1417" d="M782 826q-27 20 -50 43.5t-40 43.5q-21 3 -44 5.5t-49 2.5q-80 0 -145 -28t-110.5 -80.5t-70.5 -126.5t-25 -166q0 -97 24.5 -174.5t71 -131.5t114.5 -82.5t154 -28.5q54 0 109.5 11.5t106.5 31.5l37 -103q-26 -14 -58.5 -25.5t-68 -20t-72.5 -13t-73 -4.5 q-111 0 -202 38t-156 106.5t-100.5 164.5t-35.5 213q0 122 36.5 222t103.5 171t160 110t206 39h9.5t9.5 -1q-18 32 -27.5 69.5t-9.5 83.5q0 55 21 106t63 90.5t106 63.5t150 24h310v-1480h-139v1369h-170q-109 0 -160 -46.5t-51 -127.5q0 -45 12 -83t33.5 -72t50.5 -65.5 t64 -62.5z" />
<glyph horiz-adv-x="1784" d="M97 509q0 115 37 213.5t106 169.5t168.5 111.5t224.5 40.5q66 0 135 -17t128 -44l-45 -97q-44 14 -100.5 27.5t-122.5 13.5q-82 0 -152 -26t-121.5 -77t-80.5 -127t-29 -176t28.5 -179t83 -133.5t133 -83.5t178.5 -29q55 0 107 11t109 30l41 -98q-27 -13 -60 -24 t-69 -18.5t-73 -12t-73 -4.5q-134 0 -237 39t-173 109t-106.5 167.5t-36.5 213.5zM1749 0h-616v1024h141v-914h475v-110z" />
<glyph horiz-adv-x="1642" d="M248 520q0 -97 24.5 -174.5t71 -131.5t114.5 -82.5t154 -28.5q55 0 110 11.5t106 31.5l37 -103q-26 -14 -58.5 -25.5t-68 -20t-72.5 -13t-73 -4.5q-111 0 -202 38t-156 106.5t-100.5 164.5t-35.5 213q0 122 36.5 222t103.5 171t160 110t206 39h9.5t9.5 -1 q-18 32 -27.5 69.5t-9.5 83.5q0 55 21 106t63 90.5t106 63.5t150 24h282q8 0 14 0.5t14 0.5v-457h308v-115h-307v-616q0 -103 43.5 -148.5t138.5 -45.5q31 0 69 5.5t62 13.5l26 -109q-17 -6 -39.5 -11.5t-46.5 -9t-49 -6t-46 -2.5q-145 0 -222 73t-77 216v1100h-169 q-109 0 -160 -46.5t-51 -127.5q0 -45 12 -83t33.5 -72t50.5 -65.5t64 -62.5l-95 -86q-27 20 -50 43.5t-40 43.5q-21 3 -44 5.5t-49 2.5q-80 0 -145 -28t-110.5 -80.5t-70.5 -126.5t-25 -166z" />
<glyph horiz-adv-x="1854" d="M97 509q0 115 37 213.5t106 169.5t168.5 111.5t224.5 40.5q66 0 135 -17t128 -44l-45 -97q-44 14 -100.5 27.5t-122.5 13.5q-82 0 -152 -26t-121.5 -77t-80.5 -127t-29 -176t28.5 -179t83 -133.5t133 -83.5t178.5 -29q55 0 107 11t109 30l41 -98q-27 -13 -60 -24 t-69 -18.5t-73 -12t-73 -4.5q-134 0 -237 39t-173 109t-106.5 167.5t-36.5 213.5zM1026 1024h789v-111h-324v-913h-141v913h-324v111z" />
<glyph horiz-adv-x="981" d="M98 509q0 115 37 213.5t106 169.5t168.5 111.5t224.5 40.5q65 0 134.5 -17t128.5 -44l-46 -97q-43 14 -99.5 27.5t-122.5 13.5q-82 0 -152.5 -26t-122 -77t-80.5 -127t-29 -176t29 -179t83.5 -133.5t133 -83.5t178.5 -29q55 0 107 11t109 30l41 -98q-27 -13 -60 -24 t-69 -18.5t-73.5 -12t-73.5 -4.5q-133 0 -236 39t-173 109t-106.5 167.5t-36.5 213.5zM384 1291l431 208l56 -127l-450 -164z" />
</font>
</defs>
</svg>
