<?xml version="1.0" standalone="no"?>
<!DOCTYPE svg PUBLIC "-//W3C//DTD SVG 1.1//EN" "http://www.w3.org/Graphics/SVG/1.1/DTD/svg11.dtd" >
<svg xmlns="http://www.w3.org/2000/svg">
<metadata></metadata>
<defs>
<font id="libertadextrabold" horiz-adv-x="1650" >
<font-face units-per-em="2048" ascent="1638" descent="-410" />
<missing-glyph horiz-adv-x="430" />
<glyph unicode="&#x31;&#x2f;&#x34;" horiz-adv-x="1399" d="M1151 579v-336h88v-153h-88v-90h-216v90h-258v137l268 352h206zM935 243v93l-68 -93h68zM1309 1243l-1021 -1263l-164 117l1021 1263zM235 937v202q-11 -2 -29 -4.5t-37.5 -5t-38 -4.5t-31.5 -3l-19 185q30 4 64.5 9t70 10.5t71 11.5t66.5 12h115v-413l129 -4v-182h-512 v182z" />
<glyph unicode="&#x31;&#x2f;&#x32;" horiz-adv-x="1408" d="M850 176q55 29 98 52t72 43t44.5 39.5t15.5 42.5q0 24 -12.5 37.5t-37.5 13.5q-21 0 -41.5 -4t-39 -9t-33.5 -11t-24 -10l-44 173q9 7 31 16.5t51.5 18.5t65.5 15t74 6q65 0 112 -15.5t77 -42.5t44.5 -64t14.5 -80q0 -39 -14 -71t-40 -57.5t-62 -46t-79 -36.5h214v-186 h-487v176zM235 937v202q-11 -2 -29 -4.5t-37.5 -5t-38 -4.5t-31.5 -3l-19 185q30 4 64.5 9t70 10.5t71 11.5t66.5 12h115v-413l129 -4v-182h-512v182zM1309 1243l-1021 -1263l-164 117l1021 1263z" />
<glyph unicode="&#x33;&#x2f;&#x34;" horiz-adv-x="1365" d="M335 1138q0 17 -15.5 29.5t-53.5 12.5q-34 0 -66 -8t-52 -18l-36 154q8 5 26 12t43.5 14t58 11.5t69.5 4.5q131 0 194 -46t63 -126q0 -27 -7.5 -46.5t-18 -34t-23 -24.5t-22.5 -17q11 -6 26.5 -16.5t29.5 -27t23.5 -39.5t9.5 -54q0 -95 -73.5 -141.5t-211.5 -46.5 q-29 0 -59 4t-56.5 9.5t-47 12t-30.5 12.5l36 157q16 -6 51.5 -15.5t83.5 -9.5q42 0 60.5 9.5t18.5 30.5q0 39 -53 39h-101v124h118q5 5 10 13.5t5 20.5zM1117 579v-336h88v-153h-88v-90h-216v90h-258v137l268 352h206zM901 243v93l-68 -93h68zM1275 1243l-1021 -1263 l-164 117l1021 1263z" />
<glyph unicode="ff" horiz-adv-x="1301" d="M1079 1024h232v-238h-228v-786h-328v786h-289v-1182h-328v1182h-138v218l140 9v90q0 83 24.5 152.5t73.5 119.5t121.5 77.5t168.5 27.5q35 0 68 -3.5t60 -8.5t47.5 -10t30.5 -9l-50 -234q-3 1 -13 3t-24 4t-31.5 3.5t-35.5 1.5q-57 0 -87.5 -32.5t-30.5 -107.5v-63h295 v79q0 85 25 154.5t75 119t124.5 76.5t173.5 27q46 0 82.5 -4t66.5 -10t53.5 -14t43.5 -15l-50 -234q-20 7 -54.5 15.5t-79.5 8.5q-69 0 -103.5 -31.5t-34.5 -108.5v-63z" />
<glyph unicode="f&#x131;" horiz-adv-x="1164" d="M721 786h-255v-1182h-328v1182h-138v218l140 9v80q0 86 32 157t96 122t159 79.5t221 28.5q67 0 121.5 -5.5t95.5 -13t69.5 -15.5t44.5 -14l-60 -234q-13 3 -37 8t-55.5 9.5t-69 8t-77.5 3.5q-49 0 -89.5 -7t-69 -24t-44 -45.5t-15.5 -71.5v-55h587v-1024h-328v786z" />
<glyph unicode="fl" horiz-adv-x="1213" d="M644 786h-178v-1182h-328v1182h-138v218l140 9v80q0 86 35.5 157t104 122t168.5 79.5t230 28.5q67 0 135.5 -8t126.5 -18t100.5 -20.5t57.5 -14.5v-1419h-328v1219q-26 3 -54 5.5t-56 2.5q-42 0 -78 -7t-62.5 -24t-42 -45.5t-15.5 -71.5v-55h182v-238z" />
<glyph unicode="ff&#x131;" horiz-adv-x="1781" d="M1338 786h-255v-1182h-328v1182h-289v-1182h-328v1182h-138v218l140 9v90q0 83 24.5 152.5t73.5 119.5t121.5 77.5t168.5 27.5q35 0 68 -3.5t60 -8.5t47.5 -10t30.5 -9l-50 -234q-3 1 -13 3t-24 4t-31.5 3.5t-35.5 1.5q-57 0 -87.5 -32.5t-30.5 -107.5v-63h295v69 q0 86 32 157t96 122t159 79.5t221 28.5q67 0 121.5 -5.5t95.5 -13t69.5 -15.5t44.5 -14l-60 -234q-13 3 -37 8t-55.5 9.5t-69 8t-77.5 3.5q-49 0 -89.5 -7t-69 -24t-44 -45.5t-15.5 -71.5v-55h587v-1024h-328v786z" />
<glyph unicode="ffl" horiz-adv-x="1830" d="M1261 786h-178v-786h-328v786h-289v-1182h-328v1182h-138v218l140 9v90q0 83 24.5 152.5t73.5 119.5t121.5 77.5t168.5 27.5q35 0 68 -3.5t60 -8.5t47.5 -10t30.5 -9l-50 -234q-3 1 -13 3t-24 4t-31.5 3.5t-35.5 1.5q-57 0 -87.5 -32.5t-30.5 -107.5v-63h295v69 q0 86 35.5 157t104 122t168.5 79.5t230 28.5q67 0 135.5 -8t126.5 -18t100.5 -20.5t57.5 -14.5v-1419h-328v1219q-26 3 -54 5.5t-56 2.5q-42 0 -78 -7t-62.5 -24t-42 -45.5t-15.5 -71.5v-55h182v-238z" />
<glyph unicode="&#x2d;&#x3e;" horiz-adv-x="1928" d="M1213 1087l575 -575l-575 -575l-182 182l393 393l-393 393zM140 641h951v-257h-951v257z" />
<glyph unicode="fb" horiz-adv-x="1780" d="M644 786h-178v-786h-328v786h-138v218l140 9v80q0 86 35.5 157t104 122t168.5 79.5t230 28.5q67 0 135.5 -8t126.5 -18t100.5 -20.5t57.5 -14.5v-464q10 10 32.5 25t54 29.5t71 24.5t83.5 10q97 0 172.5 -38t127.5 -107t79 -165t27 -213q0 -121 -35.5 -220.5t-105.5 -171 t-172.5 -110.5t-236.5 -39q-61 0 -120.5 8.5t-114 23.5t-103 36t-87.5 46v1125q-26 3 -54 5.5t-56 2.5q-42 0 -78 -7t-62.5 -24t-42 -45.5t-15.5 -71.5v-55h182v-238zM1407 506q0 63 -11 114.5t-32.5 88t-55 57t-78.5 20.5q-18 0 -37 -4t-37 -10.5t-33.5 -14.5t-24.5 -16 v-500q14 -5 40 -9t67 -4q56 0 94.5 21t62.5 58t34.5 88t10.5 111z" />
<glyph unicode="ffb" horiz-adv-x="2397" d="M1261 786h-178v-786h-328v786h-289v-1182h-328v1182h-138v218l140 9v90q0 83 24.5 152.5t73.5 119.5t121.5 77.5t168.5 27.5q35 0 68 -3.5t60 -8.5t47.5 -10t30.5 -9l-50 -234q-3 1 -13 3t-24 4t-31.5 3.5t-35.5 1.5q-57 0 -87.5 -32.5t-30.5 -107.5v-63h295v69 q0 86 35.5 157t104 122t168.5 79.5t230 28.5q67 0 135.5 -8t126.5 -18t100.5 -20.5t57.5 -14.5v-464q10 10 32.5 25t54 29.5t71 24.5t83.5 10q97 0 172.5 -38t127.5 -107t79 -165t27 -213q0 -121 -35.5 -220.5t-105.5 -171t-172.5 -110.5t-236.5 -39q-61 0 -120.5 8.5 t-114 23.5t-103 36t-87.5 46v1125q-26 3 -54 5.5t-56 2.5q-42 0 -78 -7t-62.5 -24t-42 -45.5t-15.5 -71.5v-55h182v-238zM2024 506q0 63 -11 114.5t-32.5 88t-55 57t-78.5 20.5q-18 0 -37 -4t-37 -10.5t-33.5 -14.5t-24.5 -16v-500q14 -5 40 -9t67 -4q56 0 94.5 21t62.5 58 t34.5 88t10.5 111z" />
<glyph unicode="ffh" horiz-adv-x="2438" d="M1261 786h-178v-784h-328v784h-289v-1182h-328v1182h-138v218l140 9v90q0 83 24.5 152.5t73.5 119.5t121.5 77.5t168.5 27.5q35 0 68 -3.5t60 -8.5t47.5 -10t30.5 -9l-50 -234q-3 1 -13 3t-24 4t-31.5 3.5t-35.5 1.5q-57 0 -87.5 -32.5t-30.5 -107.5v-63h295v69 q0 86 35.5 157t104 122t168.5 79.5t230 28.5q67 0 135.5 -8t126.5 -18t100.5 -20.5t57.5 -14.5v-469q19 15 46 32t60.5 30.5t73 22.5t84.5 9q178 0 268.5 -89t90.5 -281v-674h-328v623q0 81 -30 117t-101 36q-20 0 -42.5 -4.5t-45 -12t-42.5 -18t-34 -21.5v-720h-328v1219 q-26 3 -54 5.5t-56 2.5q-42 0 -78 -7t-62.5 -24t-42 -45.5t-15.5 -71.5v-55h182v-238z" />
<glyph unicode="ff&#x127;" horiz-adv-x="2438" d="M1261 786h-178v-786h-328v786h-289v-1182h-328v1182h-138v218l140 9v90q0 83 24.5 152.5t73.5 119.5t121.5 77.5t168.5 27.5q35 0 68 -3.5t60 -8.5t47.5 -10t30.5 -9l-50 -234q-3 1 -13 3t-24 4t-31.5 3.5t-35.5 1.5q-57 0 -87.5 -32.5t-30.5 -107.5v-63h295v69 q0 86 35.5 157t104 122t168.5 79.5t230 28.5q67 0 135.5 -8t126.5 -18t100.5 -20.5t57.5 -14.5v-113h300v-123h-300v-233q19 15 46 32t60.5 30.5t73 22.5t84.5 9q178 0 268.5 -89t90.5 -281v-674h-328v623q0 81 -30 117t-101 36q-20 0 -42.5 -4.5t-45 -12t-42.5 -18 t-34 -21.5v-720h-328v1219q-26 3 -54 5.5t-56 2.5q-42 0 -78 -7t-62.5 -24t-42 -45.5t-15.5 -71.5v-55h182v-238z" />
<glyph unicode="ff&#x12d;" horiz-adv-x="1859" d="M1079 1024h232v-238h-228v-786h-328v786h-289v-1182h-328v1182h-138v218l140 9v90q0 83 24.5 152.5t73.5 119.5t121.5 77.5t168.5 27.5q35 0 68 -3.5t60 -8.5t47.5 -10t30.5 -9l-50 -234q-3 1 -13 3t-24 4t-31.5 3.5t-35.5 1.5q-57 0 -87.5 -32.5t-30.5 -107.5v-63h295 v79q0 85 28 154.5t82 119t131.5 76.5t176.5 27q53 0 100 -6t87 -14h139q-4 -24 -2.5 -46t10.5 -38t26.5 -25.5t44.5 -9.5t44.5 9.5t26.5 25.5t10.5 38t-2.5 46h223q10 -64 2 -113.5t-29.5 -86t-53 -61.5t-68 -40t-76.5 -21.5t-77 -6.5q-31 0 -63.5 4.5t-64 14t-60 25.5 t-52.5 40q-20 4 -52 8t-71 4q-69 0 -103.5 -31.5t-34.5 -108.5v-63zM1744 1024v-1024h-328v1024h328z" />
<glyph unicode="ff&#xec;" horiz-adv-x="1859" d="M1079 1024h232v-238h-228v-786h-328v786h-289v-1182h-328v1182h-138v218l140 9v90q0 83 24.5 152.5t73.5 119.5t121.5 77.5t168.5 27.5q35 0 68 -3.5t60 -8.5t47.5 -10t30.5 -9l-50 -234q-3 1 -13 3t-24 4t-31.5 3.5t-35.5 1.5q-57 0 -87.5 -32.5t-30.5 -107.5v-63h295 v79q0 85 25.5 154.5t76 119t124.5 76.5t172 27q54 0 94.5 -7t72.5 -18l60 135l493 -292l-69 -151l-443 142l-32 -86q-20 7 -49.5 15.5t-74.5 8.5q-59 0 -93.5 -32t-34.5 -108v-63zM1744 1024v-1024h-328v1024h328z" />
<glyph unicode="ff&#x133;" horiz-adv-x="2359" d="M1338 786h-255v-1182h-328v1182h-289v-1182h-328v1182h-138v218l140 9v90q0 83 24.5 152.5t73.5 119.5t121.5 77.5t168.5 27.5q35 0 68 -3.5t60 -8.5t47.5 -10t30.5 -9l-50 -234q-3 1 -13 3t-24 4t-31.5 3.5t-35.5 1.5q-57 0 -87.5 -32.5t-30.5 -107.5v-63h295v69 q0 86 32 157t96 122t159 79.5t221 28.5q67 0 121.5 -5.5t95.5 -13t69.5 -15.5t44.5 -14l-60 -234q-13 3 -37 8t-55.5 9.5t-69 8t-77.5 3.5q-49 0 -89.5 -7t-69 -24t-44 -45.5t-15.5 -71.5v-55h587v-1024h-328v786zM2244 1024v-1037q0 -205 -101.5 -304t-299.5 -99 q-69 0 -116 12t-79 27l38 234q17 -6 43 -13t62 -7q64 0 94.5 30.5t30.5 100.5v1056h328zM1901 1341q0 95 51.5 141t136.5 46q75 0 122.5 -43.5t47.5 -125.5q0 -96 -51.5 -141.5t-136.5 -45.5q-75 0 -122.5 43.5t-47.5 125.5z" />
<glyph unicode="ff&#x12b;" horiz-adv-x="1889" d="M1079 1024h232v-238h-228v-786h-328v786h-289v-1182h-328v1182h-138v218l140 9v90q0 83 24.5 152.5t73.5 119.5t121.5 77.5t168.5 27.5q35 0 68 -3.5t60 -8.5t47.5 -10t30.5 -9l-50 -234q-3 1 -13 3t-24 4t-31.5 3.5t-35.5 1.5q-57 0 -87.5 -32.5t-30.5 -107.5v-63h295 v79q0 85 25 154.5t75 119t124.5 76.5t173.5 27q62 0 109.5 -16.5t84.5 -42.5v59h562v-237h-548l-32 -50q-17 10 -46.5 22t-67.5 12q-69 0 -103.5 -31.5t-34.5 -108.5v-63zM1744 1024v-1024h-328v1024h328z" />
<glyph unicode="ff&#x12f;" horiz-adv-x="1780" d="M462 1024h295v69q0 86 32 157t96 122t159 79.5t221 28.5q67 0 121.5 -5.5t95.5 -13t69.5 -15.5t44.5 -14l-60 -234q-13 3 -37 8t-55.5 9.5t-69 8t-77.5 3.5q-49 0 -89.5 -7t-69 -24t-44 -45.5t-15.5 -71.5v-55h587v-1024h-105q-39 -34 -67.5 -79.5t-28.5 -92.5 q0 -51 26.5 -73t67.5 -22q39 0 72.5 11.5t56.5 22.5l50 -207q-12 -10 -35.5 -21t-54 -20t-66 -15t-72.5 -6q-57 0 -112.5 12.5t-100 43t-71.5 81.5t-27 128q0 38 14.5 74t35.5 67.5t45 56t44 40.5v785h-255v-786h-328v786h-289v-1182h-328v1182h-138v218l140 9v90 q0 83 24.5 152.5t73.5 119.5t121.5 77.5t168.5 27.5q35 0 68 -3.5t60 -8.5t47.5 -10t30.5 -9l-50 -234q-3 1 -13 3t-24 4t-31.5 3.5t-35.5 1.5q-57 0 -87.5 -32.5t-30.5 -107.5v-63z" />
<glyph unicode="ff&#x129;" horiz-adv-x="1859" d="M1079 1024h232v-238h-228v-786h-328v786h-289v-1182h-328v1182h-138v218l140 9v90q0 83 24.5 152.5t73.5 119.5t121.5 77.5t168.5 27.5q35 0 68 -3.5t60 -8.5t47.5 -10t30.5 -9l-50 -234q-3 1 -13 3t-24 4t-31.5 3.5t-35.5 1.5q-57 0 -87.5 -32.5t-30.5 -107.5v-63h295 v79q0 85 24.5 154.5t73 119t121.5 76.5t169 27q42 0 75 -8.5t62 -22.5q32 31 75 51t98 20q39 0 74 -12t66 -27t58.5 -27t50.5 -12q16 0 29 5.5t25.5 16.5t27 27.5t32.5 37.5l155 -110q-12 -40 -34.5 -81t-57.5 -74t-82.5 -53.5t-108.5 -20.5q-32 0 -63.5 12t-61.5 27t-58 27 t-53 12q-16 0 -28.5 -5.5t-25 -16.5t-26 -27.5t-31.5 -37.5h-1q-10 6 -24 14t-31 15t-37.5 12t-42.5 5q-64 0 -96 -31.5t-32 -108.5v-63zM1744 1024v-1024h-328v1024h328z" />
<glyph unicode="ffj" horiz-adv-x="1781" d="M462 1024h295v69q0 86 32 157t96 122t159 79.5t221 28.5q67 0 121.5 -5.5t95.5 -13t69.5 -15.5t44.5 -14l-60 -234q-13 3 -37 8t-55.5 9.5t-69 8t-77.5 3.5q-49 0 -89.5 -7t-69 -24t-44 -45.5t-15.5 -71.5v-55h587v-1037q0 -205 -101.5 -304t-299.5 -99q-69 0 -116 12 t-79 27l38 234q17 -6 43 -13t62 -7q64 0 94.5 30.5t30.5 100.5v818h-255v-786h-328v786h-289v-1182h-328v1182h-138v218l140 9v90q0 83 24.5 152.5t73.5 119.5t121.5 77.5t168.5 27.5q35 0 68 -3.5t60 -8.5t47.5 -10t30.5 -9l-50 -234q-3 1 -13 3t-24 4t-31.5 3.5t-35.5 1.5 q-57 0 -87.5 -32.5t-30.5 -107.5v-63z" />
<glyph unicode="ffk" horiz-adv-x="2384" d="M1261 786h-178v-786h-328v786h-289v-1182h-328v1182h-138v218l140 9v90q0 83 24.5 152.5t73.5 119.5t121.5 77.5t168.5 27.5q35 0 68 -3.5t60 -8.5t47.5 -10t30.5 -9l-50 -234q-3 1 -13 3t-24 4t-31.5 3.5t-35.5 1.5q-57 0 -87.5 -32.5t-30.5 -107.5v-63h295v69 q0 86 35.5 157t104 122t168.5 79.5t230 28.5q67 0 135.5 -8t126.5 -18t100.5 -20.5t57.5 -14.5v-805l297 410h352l-308 -422l328 -602h-365l-209 406l-95 -131v-275h-328v1219q-26 3 -54 5.5t-56 2.5q-42 0 -78 -7t-62.5 -24t-42 -45.5t-15.5 -71.5v-55h182v-238z" />
<glyph unicode="ff&#x137;" horiz-adv-x="2384" d="M1261 786h-178v-786h-328v786h-289v-1182h-328v1182h-138v218l140 9v90q0 83 24.5 152.5t73.5 119.5t121.5 77.5t168.5 27.5q35 0 68 -3.5t60 -8.5t47.5 -10t30.5 -9l-50 -234q-3 1 -13 3t-24 4t-31.5 3.5t-35.5 1.5q-57 0 -87.5 -32.5t-30.5 -107.5v-63h295v69 q0 86 35.5 157t104 122t168.5 79.5t230 28.5q67 0 135.5 -8t126.5 -18t100.5 -20.5t57.5 -14.5v-805l297 410h352l-308 -422l328 -602h-365l-209 406l-95 -131v-275h-328v1219q-26 3 -54 5.5t-56 2.5q-42 0 -78 -7t-62.5 -24t-42 -45.5t-15.5 -71.5v-55h182v-238zM1757 -303 q0 29 -9.5 54.5t-22.5 46t-26.5 35t-21.5 22.5l254 56q15 -12 34.5 -32.5t36.5 -48t28.5 -60.5t11.5 -69q0 -62 -27.5 -110t-77 -81.5t-118.5 -53.5t-151 -27l-52 151q25 4 50 13.5t45.5 24t33 34t12.5 45.5z" />
<glyph unicode="ff&#x13e;" horiz-adv-x="2075" d="M1875 1299q0 35 -8 63.5t-20 51t-27 39.5t-29 30l217 69q16 -14 35 -34t35 -48.5t26.5 -65t10.5 -82.5q0 -55 -20 -103t-49.5 -86t-63.5 -66t-63 -44l-125 104q12 10 26.5 26t26.5 37t20 48t8 61zM1261 786h-178v-786h-328v786h-289v-1182h-328v1182h-138v218l140 9v90 q0 83 24.5 152.5t73.5 119.5t121.5 77.5t168.5 27.5q35 0 68 -3.5t60 -8.5t47.5 -10t30.5 -9l-50 -234q-3 1 -13 3t-24 4t-31.5 3.5t-35.5 1.5q-57 0 -87.5 -32.5t-30.5 -107.5v-63h295v69q0 86 35.5 157t104 122t168.5 79.5t230 28.5q67 0 135.5 -8t126.5 -18t100.5 -20.5 t57.5 -14.5v-1419h-328v1219q-26 3 -54 5.5t-56 2.5q-42 0 -78 -7t-62.5 -24t-42 -45.5t-15.5 -71.5v-55h182v-238z" />
<glyph unicode="ff&#x13c;" horiz-adv-x="1830" d="M1468 -303q0 29 -9.5 54.5t-22.5 46t-26.5 35t-21.5 22.5l254 56q15 -12 34.5 -32.5t36.5 -48t28.5 -60.5t11.5 -69q0 -62 -27.5 -110t-77 -81.5t-118.5 -53.5t-151 -27l-52 151q25 4 50 13.5t45.5 24t33 34t12.5 45.5zM1261 786h-178v-786h-328v786h-289v-1182h-328 v1182h-138v218l140 9v90q0 83 24.5 152.5t73.5 119.5t121.5 77.5t168.5 27.5q35 0 68 -3.5t60 -8.5t47.5 -10t30.5 -9l-50 -234q-3 1 -13 3t-24 4t-31.5 3.5t-35.5 1.5q-57 0 -87.5 -32.5t-30.5 -107.5v-63h295v69q0 86 35.5 157t104 122t168.5 79.5t230 28.5q67 0 135.5 -8 t126.5 -18t100.5 -20.5t57.5 -14.5v-1419h-328v1219q-26 3 -54 5.5t-56 2.5q-42 0 -78 -7t-62.5 -24t-42 -45.5t-15.5 -71.5v-55h182v-238z" />
<glyph unicode="ff&#x140;" horiz-adv-x="2103" d="M1261 786h-178v-786h-328v786h-289v-1182h-328v1182h-138v218l140 9v90q0 83 24.5 152.5t73.5 119.5t121.5 77.5t168.5 27.5q35 0 68 -3.5t60 -8.5t47.5 -10t30.5 -9l-50 -234q-3 1 -13 3t-24 4t-31.5 3.5t-35.5 1.5q-57 0 -87.5 -32.5t-30.5 -107.5v-63h295v69 q0 86 35.5 157t104 122t168.5 79.5t230 28.5q67 0 135.5 -8t126.5 -18t100.5 -20.5t57.5 -14.5v-1419h-328v1219q-26 3 -54 5.5t-56 2.5q-42 0 -78 -7t-62.5 -24t-42 -45.5t-15.5 -71.5v-55h182v-238zM1795 737q0 95 51.5 141t136.5 46q75 0 122.5 -43.5t47.5 -125.5 q0 -96 -51.5 -141.5t-136.5 -45.5q-75 0 -122.5 43.5t-47.5 125.5z" />
<glyph unicode="ff&#x142;" horiz-adv-x="1830" d="M1261 786h-178v-786h-328v786h-289v-1182h-328v1182h-138v218l140 9v90q0 83 24.5 152.5t73.5 119.5t121.5 77.5t168.5 27.5q35 0 68 -3.5t60 -8.5t47.5 -10t30.5 -9l-50 -234q-3 1 -13 3t-24 4t-31.5 3.5t-35.5 1.5q-57 0 -87.5 -32.5t-30.5 -107.5v-63h295v69 q0 86 35.5 157t104 122t168.5 79.5t230 28.5q67 0 135.5 -8t126.5 -18t100.5 -20.5t57.5 -14.5v-525l123 94l70 -91l-193 -146v-751h-328v502l-122 -92l-69 91l191 145v573q-26 3 -54 5.5t-56 2.5q-42 0 -78 -7t-62.5 -24t-42 -45.5t-15.5 -71.5v-55h182v-238z" />
<glyph unicode="fh" horiz-adv-x="1821" d="M644 786h-178v-786h-328v786h-138v218l140 9v80q0 86 35.5 157t104 122t168.5 79.5t230 28.5q67 0 135.5 -8t126.5 -18t100.5 -20.5t57.5 -14.5v-469q19 15 46 32t60.5 30.5t73 22.5t84.5 9q178 0 268.5 -89t90.5 -281v-674h-328v623q0 81 -30 117t-101 36 q-20 0 -42.5 -4.5t-45 -12t-42.5 -18t-34 -21.5v-720h-328v1219q-26 3 -54 5.5t-56 2.5q-42 0 -78 -7t-62.5 -24t-42 -45.5t-15.5 -71.5v-55h182v-238z" />
<glyph unicode="f&#x127;" horiz-adv-x="1821" d="M644 786h-178v-786h-328v786h-138v218l140 9v80q0 86 35.5 157t104 122t168.5 79.5t230 28.5q67 0 135.5 -8t126.5 -18t100.5 -20.5t57.5 -14.5v-113h300v-123h-300v-233q19 15 46 32t60.5 30.5t73 22.5t84.5 9q178 0 268.5 -89t90.5 -281v-674h-328v623q0 81 -30 117 t-101 36q-20 0 -42.5 -4.5t-45 -12t-42.5 -18t-34 -21.5v-720h-328v1219q-26 3 -54 5.5t-56 2.5q-42 0 -78 -7t-62.5 -24t-42 -45.5t-15.5 -71.5v-55h182v-238z" />
<glyph unicode="f&#x12d;" horiz-adv-x="1242" d="M462 1024h232v-238h-228v-786h-328v786h-138v218l140 9v90q0 85 28 154.5t82 119t131.5 76.5t176.5 27q53 0 100 -6t87 -14h139q-4 -24 -2.5 -46t10.5 -38t26.5 -25.5t44.5 -9.5t44.5 9.5t26.5 25.5t10.5 38t-2.5 46h223q10 -64 2 -113.5t-29.5 -86t-53 -61.5t-68 -40 t-76.5 -21.5t-77 -6.5q-31 0 -63.5 4.5t-64 14t-60 25.5t-52.5 40q-20 4 -52 8t-71 4q-69 0 -103.5 -31.5t-34.5 -108.5v-63zM1127 1024v-1024h-328v1024h328z" />
<glyph unicode="f&#xec;" horiz-adv-x="1242" d="M1189 1147l-443 142l-32 -86q-20 7 -49.5 15.5t-74.5 8.5q-59 0 -93.5 -32t-34.5 -108v-63h232v-238h-228v-786h-328v786h-138v218l140 9v90q0 85 25.5 154.5t76 119t124.5 76.5t172 27q54 0 94.5 -7t72.5 -18l60 135l493 -292zM1127 1024v-1024h-328v1024h328z" />
<glyph unicode="f&#x133;" horiz-adv-x="1742" d="M721 786h-255v-1182h-328v1182h-138v218l140 9v80q0 86 32 157t96 122t159 79.5t221 28.5q67 0 121.5 -5.5t95.5 -13t69.5 -15.5t44.5 -14l-60 -234q-13 3 -37 8t-55.5 9.5t-69 8t-77.5 3.5q-49 0 -89.5 -7t-69 -24t-44 -45.5t-15.5 -71.5v-55h587v-1024h-328v786z M1627 1024v-1037q0 -205 -101.5 -304t-299.5 -99q-69 0 -116 12t-79 27l38 234q17 -6 43 -13t62 -7q64 0 94.5 30.5t30.5 100.5v1056h328zM1284 1341q0 95 51.5 141t136.5 46q75 0 122.5 -43.5t47.5 -125.5q0 -96 -51.5 -141.5t-136.5 -45.5q-75 0 -122.5 43.5t-47.5 125.5z " />
<glyph unicode="f&#x12b;" horiz-adv-x="1272" d="M462 1024h232v-238h-228v-786h-328v786h-138v218l140 9v90q0 85 25 154.5t75 119t124.5 76.5t173.5 27q62 0 109.5 -16.5t84.5 -42.5v59h562v-237h-548l-32 -50q-17 10 -46.5 22t-67.5 12q-69 0 -103.5 -31.5t-34.5 -108.5v-63zM1127 1024v-1024h-328v1024h328z" />
<glyph unicode="f&#x12f;" horiz-adv-x="1154" d="M721 786h-255v-1182h-328v1182h-138v218l140 9v80q0 86 32 157t96 122t159 79.5t221 28.5q67 0 121.5 -5.5t95.5 -13t69.5 -15.5t44.5 -14l-60 -234q-13 3 -37 8t-55.5 9.5t-69 8t-77.5 3.5q-49 0 -89.5 -7t-69 -24t-44 -45.5t-15.5 -71.5v-55h587v-1024h-104 q-39 -34 -67.5 -79.5t-28.5 -92.5q0 -51 26.5 -73t67.5 -22q39 0 72.5 11.5t56.5 22.5l50 -207q-12 -10 -35.5 -21t-54 -20t-66 -15t-72.5 -6q-57 0 -112.5 12.5t-100 43t-71.5 81.5t-27 128q0 38 14 73.5t35 66.5t45 56t44 41v786z" />
<glyph unicode="f&#x129;" horiz-adv-x="1242" d="M725 1181q-10 6 -24 14t-31 15t-37.5 12t-42.5 5q-64 0 -96 -31.5t-32 -108.5v-63h232v-238h-228v-786h-328v786h-138v218l140 9v90q0 85 24.5 154.5t73 119t121.5 76.5t169 27q42 0 75 -8.5t62 -22.5q32 31 75 51t98 20q39 0 74 -12t66 -27t58.5 -27t50.5 -12 q16 0 29 5.5t25.5 16.5t27 27.5t32.5 37.5l155 -110q-12 -40 -34.5 -81t-57.5 -74t-82.5 -53.5t-108.5 -20.5q-32 0 -63.5 12t-61.5 27t-58 27t-53 12q-16 0 -28.5 -5.5t-25 -16.5t-26 -27.5t-31.5 -37.5h-1zM1127 1024v-1024h-328v1024h328z" />
<glyph unicode="fj" horiz-adv-x="1164" d="M1049 -13q0 -205 -101.5 -304t-299.5 -99q-69 0 -116 12t-79 27l38 234q17 -6 43 -13t62 -7q64 0 94.5 30.5t30.5 100.5v818h-255v-786h-328v786h-138v218l140 9v80q0 86 32 157t96 122t159 79.5t221 28.5q67 0 121.5 -5.5t95.5 -13t69.5 -15.5t44.5 -14l-60 -234 q-13 3 -37 8t-55.5 9.5t-69 8t-77.5 3.5q-49 0 -89.5 -7t-69 -24t-44 -45.5t-15.5 -71.5v-55h587v-1037z" />
<glyph unicode="fk" horiz-adv-x="1767" d="M644 786h-178v-786h-328v786h-138v218l140 9v80q0 86 35.5 157t104 122t168.5 79.5t230 28.5q67 0 135.5 -8t126.5 -18t100.5 -20.5t57.5 -14.5v-805l297 410h352l-308 -422l328 -602h-365l-209 406l-95 -131v-275h-328v1219q-26 3 -54 5.5t-56 2.5q-42 0 -78 -7 t-62.5 -24t-42 -45.5t-15.5 -71.5v-55h182v-238z" />
<glyph unicode="f&#x137;" horiz-adv-x="1767" d="M1140 -303q0 29 -9.5 54.5t-22.5 46t-26.5 35t-21.5 22.5l254 56q15 -12 34.5 -32.5t36.5 -48t28.5 -60.5t11.5 -69q0 -62 -27.5 -110t-77 -81.5t-118.5 -53.5t-151 -27l-52 151q25 4 50 13.5t45.5 24t33 34t12.5 45.5zM644 786h-178v-786h-328v786h-138v218l140 9v80 q0 86 35.5 157t104 122t168.5 79.5t230 28.5q67 0 135.5 -8t126.5 -18t100.5 -20.5t57.5 -14.5v-805l297 410h352l-308 -422l328 -602h-365l-209 406l-95 -131v-275h-328v1219q-26 3 -54 5.5t-56 2.5q-42 0 -78 -7t-62.5 -24t-42 -45.5t-15.5 -71.5v-55h182v-238z" />
<glyph unicode="f&#x13e;" horiz-adv-x="1458" d="M644 786h-178v-1182h-328v1182h-138v218l140 9v80q0 86 35.5 157t104 122t168.5 79.5t230 28.5q67 0 135.5 -8t126.5 -18t100.5 -20.5t57.5 -14.5v-1419h-328v1219q-26 3 -54 5.5t-56 2.5q-42 0 -78 -7t-62.5 -24t-42 -45.5t-15.5 -71.5v-55h182v-238zM1258 1299 q0 35 -8 63.5t-20 51t-27 39.5t-29 30l217 69q16 -14 35 -34t35 -48.5t26.5 -65t10.5 -82.5q0 -55 -20 -103t-49.5 -86t-63.5 -66t-63 -44l-125 104q12 10 26.5 26t26.5 37t20 48t8 61z" />
<glyph unicode="f&#x13c;" horiz-adv-x="1213" d="M644 786h-178v-1182h-328v1182h-138v218l140 9v80q0 86 35.5 157t104 122t168.5 79.5t230 28.5q67 0 135.5 -8t126.5 -18t100.5 -20.5t57.5 -14.5v-1419h-328v1219q-26 3 -54 5.5t-56 2.5q-42 0 -78 -7t-62.5 -24t-42 -45.5t-15.5 -71.5v-55h182v-238zM851 -303 q0 29 -9.5 54.5t-22.5 46t-26.5 35t-21.5 22.5l254 56q15 -12 34.5 -32.5t36.5 -48t28.5 -60.5t11.5 -69q0 -62 -27.5 -110t-77 -81.5t-118.5 -53.5t-151 -27l-52 151q25 4 50 13.5t45.5 24t33 34t12.5 45.5z" />
<glyph unicode="f&#x140;" horiz-adv-x="1486" d="M1178 737q0 95 51.5 141t136.5 46q75 0 122.5 -43.5t47.5 -125.5q0 -96 -51.5 -141.5t-136.5 -45.5q-75 0 -122.5 43.5t-47.5 125.5zM644 786h-178v-1182h-328v1182h-138v218l140 9v80q0 86 35.5 157t104 122t168.5 79.5t230 28.5q67 0 135.5 -8t126.5 -18t100.5 -20.5 t57.5 -14.5v-1419h-328v1219q-26 3 -54 5.5t-56 2.5q-42 0 -78 -7t-62.5 -24t-42 -45.5t-15.5 -71.5v-55h182v-238z" />
<glyph unicode="f&#x142;" horiz-adv-x="1213" d="M644 786h-178v-1182h-328v1182h-138v218l140 9v80q0 86 35.5 157t104 122t168.5 79.5t230 28.5q67 0 135.5 -8t126.5 -18t100.5 -20.5t57.5 -14.5v-525l123 94l70 -91l-193 -146v-751h-328v502l-122 -92l-69 91l191 145v573q-26 3 -54 5.5t-56 2.5q-42 0 -78 -7 t-62.5 -24t-42 -45.5t-15.5 -71.5v-55h182v-238z" />
<glyph unicode="&#x3c;&#x2014;" horiz-adv-x="1929" d="M715 -63l-575 575l575 575l182 -182l-393 -393l393 -393zM838 640h951v-257h-951v257z" />
<glyph unicode="&#x17f;f" horiz-adv-x="1287" d="M466 -396h-328v1182h-138v218l140 9v90q0 83 24.5 152.5t73.5 119.5t121.5 77.5t168.5 27.5q35 0 68 -3.5t60 -8.5t47.5 -10t30.5 -9l-50 -234q-3 1 -13 3t-24 4t-31.5 3.5t-35.5 1.5q-57 0 -85.5 -32.5t-28.5 -107.5v-1483zM1065 1024h232v-238h-228v-786h-328v786h-138 v218l140 9v90q0 85 25 154.5t75 119t124.5 76.5t173.5 27q46 0 82.5 -4t66.5 -10t53.5 -14t43.5 -15l-50 -234q-20 7 -54.5 15.5t-79.5 8.5q-69 0 -103.5 -31.5t-34.5 -108.5v-63z" />
<glyph unicode="&#x17f;h" horiz-adv-x="1791" d="M466 -396h-328v1182h-138v218l140 9v50q0 93 33 169.5t97.5 131.5t159.5 85.5t218 30.5q67 0 135.5 -8t126.5 -18t100.5 -20.5t57.5 -14.5v-469q19 15 46 32t60.5 30.5t73 22.5t84.5 9q178 0 268.5 -89t90.5 -281v-674h-328v623q0 81 -30 117t-101 36q-20 0 -42.5 -4.5 t-45 -12t-42.5 -18t-34 -21.5v-720h-328v1220q-23 3 -49 5t-51 2q-37 0 -69 -8.5t-55 -28.5t-36.5 -54.5t-13.5 -86.5v-1445z" />
<glyph unicode="&#x17f;i" horiz-adv-x="1144" d="M466 -396h-328v1182h-138v218l140 9v50q0 93 32 169.5t96 131.5t159 85.5t221 30.5q62 0 111 -5.5t86.5 -13t63 -15.5t40.5 -14l-60 -234q-12 3 -32.5 8t-48 9.5t-60.5 8t-68 3.5q-49 0 -88.5 -8.5t-67.5 -28.5t-43 -54.5t-15 -86.5v-1445zM1029 1024v-1024h-328v1024 h328z" />
<glyph unicode="&#x17f;j" horiz-adv-x="1144" d="M466 0h-328v786h-138v218l140 9v50q0 93 32 169.5t96 131.5t159 85.5t221 30.5q62 0 111 -5.5t86.5 -13t63 -15.5t40.5 -14l-60 -234q-12 3 -32.5 8t-48 9.5t-60.5 8t-68 3.5q-49 0 -88.5 -8.5t-67.5 -28.5t-43 -54.5t-15 -86.5v-1049zM1029 1024v-1037 q0 -205 -101.5 -304t-299.5 -99q-69 0 -116 12t-79 27l38 234q17 -6 43 -13t62 -7q64 0 94.5 30.5t30.5 100.5v1056h328z" />
<glyph unicode="&#x17f;k" horiz-adv-x="1737" d="M466 -396h-328v1182h-138v218l140 9v50q0 93 33 169.5t97.5 131.5t159.5 85.5t218 30.5q67 0 135.5 -8t126.5 -18t100.5 -20.5t57.5 -14.5v-805l297 410h352l-308 -422l328 -602h-365l-209 406l-95 -131v-275h-328v1220q-23 3 -49 5t-51 2q-37 0 -69 -8.5t-55 -28.5 t-36.5 -54.5t-13.5 -86.5v-1445z" />
<glyph unicode="&#x17f;l" horiz-adv-x="1183" d="M466 -396h-328v1182h-138v218l140 9v50q0 93 33 169.5t97.5 131.5t159.5 85.5t218 30.5q67 0 135.5 -8t126.5 -18t100.5 -20.5t57.5 -14.5v-1419h-328v1220q-23 3 -49 5t-51 2q-37 0 -69 -8.5t-55 -28.5t-36.5 -54.5t-13.5 -86.5v-1445z" />
<glyph unicode="&#x17f;&#x17f;" horiz-adv-x="1207" d="M466 -396h-328v1182h-138v218l140 9v90q0 83 24.5 152.5t73.5 119.5t121.5 77.5t168.5 27.5q35 0 68 -3.5t60 -8.5t47.5 -10t30.5 -9l-50 -234q-3 1 -13 3t-24 4t-31.5 3.5t-35.5 1.5q-57 0 -85.5 -32.5t-28.5 -107.5v-1483zM1069 0h-328v786h-138v218l140 9v90 q0 85 25 154.5t75 119t124.5 76.5t173.5 27q46 0 82.5 -4t66.5 -10t53.5 -14t43.5 -15l-50 -234q-20 7 -54.5 15.5t-79.5 8.5q-68 0 -101 -32.5t-33 -107.5v-1087z" />
<glyph unicode="&#xd;" horiz-adv-x="430" />
<glyph unicode=" "  horiz-adv-x="430" />
<glyph unicode="&#x09;" horiz-adv-x="430" />
<glyph unicode="&#xa0;" horiz-adv-x="430" />
<glyph unicode="!" horiz-adv-x="518" d="M85 1330h348l-50 -884h-248zM80 149q0 95 51.5 141t136.5 46q75 0 122.5 -43.5t47.5 -125.5q0 -96 -51.5 -141.5t-136.5 -45.5q-75 0 -122.5 43.5t-47.5 125.5z" />
<glyph unicode="&#x22;" horiz-adv-x="780" d="M730 1509l-43 -597h-214l-43 597h300zM350 1509l-43 -597h-214l-43 597h300z" />
<glyph unicode="#" horiz-adv-x="1534" d="M208 1009h224l47 321h261l-47 -321h213l47 321h261l-47 -321h217l-32 -227h-217l-34 -232h217l-32 -227h-218l-46 -323h-262l47 323h-213l-46 -323h-262l47 323h-223l33 227h223l33 232h-223zM627 550h213l33 232h-212z" />
<glyph unicode="$" horiz-adv-x="1172" d="M725 1496l-24 -234q53 -6 95.5 -17t75.5 -23.5t57 -25t40 -21.5l-52 -235q-23 10 -55 22t-68.5 22t-75.5 16.5t-76 6.5q-39 0 -66 -7t-43.5 -18t-23.5 -25.5t-8 -30.5q-1 -22 5.5 -38t18.5 -28.5t29 -22.5t37 -19l170 -79q66 -31 113.5 -65.5t78 -75t45 -88.5t14.5 -106 q0 -134 -80 -217.5t-234 -109.5l25 -243h-260l23 234q-53 4 -99.5 14t-85.5 23t-69 28t-49 30l60 235q15 -9 42.5 -21.5t65 -24t82 -20t94.5 -8.5q74 0 117 14t43 52q0 37 -24.5 63t-85.5 56l-151 67q-57 26 -103 57.5t-77.5 72t-48.5 91.5t-17 116t22.5 120.5t63.5 99 t98 74t126 45.5l-25 244h260z" />
<glyph unicode="%" horiz-adv-x="1462" d="M1324 1243l-1021 -1263l-164 117l1021 1263zM360 731q-69 0 -127 22t-100 62t-65 96t-23 123q0 73 23.5 131.5t66.5 99.5t103.5 63t134.5 22q70 0 128 -22t99.5 -62.5t64.5 -96.5t23 -123q0 -73 -23.5 -131t-66 -99t-103 -63t-135.5 -22zM369 928q37 0 56 31t19 78 q0 51 -19.5 83t-61.5 32q-37 0 -55.5 -31t-18.5 -78q0 -51 19 -83t61 -32zM1089 -20q-69 0 -127 22t-100 62t-65 96t-23 123q0 73 23.5 131.5t66.5 99.5t103.5 63t134.5 22q70 0 128 -22t99.5 -62.5t64.5 -96.5t23 -123q0 -73 -23.5 -131t-66 -99t-103 -63t-135.5 -22z M1098 177q37 0 56 31t19 78q0 51 -19.5 83t-61.5 32q-37 0 -55.5 -31t-18.5 -78q0 -51 19 -83t61 -32z" />
<glyph unicode="&#x26;" horiz-adv-x="1409" d="M50 367q0 52 18.5 101t51 93t77 80.5t96.5 62.5q-47 49 -78.5 89.5t-50.5 76.5t-27 69.5t-8 69.5q0 73 32.5 135.5t90 108.5t137.5 71.5t175 25.5q89 0 165.5 -24.5t132 -68t87 -102t31.5 -126.5q0 -21 -4.5 -41t-10.5 -37t-13 -29.5t-11 -18.5h428v-238h-230 q7 -11 15.5 -29t15.5 -42.5t12 -54t5 -63.5q0 -41 -8.5 -77.5t-21 -67.5t-27 -55t-26.5 -41l191 -200l-190 -183l-194 204q-25 -14 -59 -27.5t-75.5 -24t-88 -17.5t-96.5 -7q-131 0 -232 29.5t-170 81.5t-104.5 122.5t-35.5 153.5zM609 218q35 0 68.5 7.5t53.5 18.5 l-290 304q-30 -28 -51.5 -66t-21.5 -90q0 -37 16 -68.5t46.5 -55t75.5 -37t103 -13.5zM623 856q12 12 24 26.5t22 32t16.5 38.5t6.5 46q0 27 -11 48t-29 35.5t-42 22t-51 7.5q-60 0 -96 -29.5t-36 -73.5q0 -21 4 -38t13.5 -33.5t25.5 -35t40 -43.5l401 -422q6 20 9 50.5 t1 62.5t-10 63t-24 52h-93z" />
<glyph unicode="'" horiz-adv-x="400" d="M350 1509l-43 -597h-214l-43 597h300z" />
<glyph unicode="(" horiz-adv-x="690" d="M371 672q0 -159 30 -290t76 -236.5t101.5 -187t106.5 -139.5l-165 -135q-32 23 -79 66t-98.5 106t-103 144.5t-92.5 182t-66.5 218.5t-25.5 254q0 140 25.5 262t66.5 224t92.5 185t103 146.5t98.5 106.5t79 66l165 -135q-51 -59 -106.5 -139.5t-101.5 -185t-76 -232.5 t-30 -281z" />
<glyph unicode=")" horiz-adv-x="690" d="M339 657q0 159 -30 290t-76 236.5t-101.5 186.5t-106.5 140l165 135q32 -23 79 -66t98.5 -106t103 -144.5t92.5 -182t66.5 -218.5t25.5 -254q0 -140 -25.5 -262t-66.5 -224t-92.5 -185t-103 -146.5t-98.5 -106.5t-79 -66l-165 135q51 58 106.5 139t101.5 185.5t76 232.5 t30 281z" />
<glyph unicode="*" horiz-adv-x="844" d="M297 1522h250l-20 -240l222 88l75 -241l-226 -47l160 -159l-188 -162l-148 204l-148 -204l-188 162l160 159l-226 47l75 241l222 -88z" />
<glyph unicode="+" horiz-adv-x="1270" d="M764 1169v-376h376v-257h-376v-375h-257v375h-377v257h377v376h257z" />
<glyph unicode="," horiz-adv-x="511" d="M181 43q0 40 -12 74.5t-30 62t-38.5 49.5t-38.5 38l245 69q20 -15 43.5 -40.5t43.5 -60t33.5 -77.5t13.5 -92q0 -66 -22.5 -121t-62 -99t-94.5 -77.5t-119 -58.5l-113 126q29 16 56.5 36t48.5 45.5t33.5 56.5t12.5 69z" />
<glyph unicode="-" horiz-adv-x="891" d="M115 661h661v-257h-661v257z" />
<glyph unicode="." horiz-adv-x="518" d="M80 149q0 95 51.5 141t136.5 46q75 0 122.5 -43.5t47.5 -125.5q0 -96 -51.5 -141.5t-136.5 -45.5q-75 0 -122.5 43.5t-47.5 125.5z" />
<glyph unicode="/" horiz-adv-x="960" d="M1040 1585l-774 -1835h-316l774 1835h316z" />
<glyph unicode="0" horiz-adv-x="1316" d="M663 238q55 0 99.5 27.5t76 80.5t48 130.5t16.5 177.5t-16.5 181t-48 138t-78 88t-107.5 31q-56 0 -100 -27.5t-75.5 -80.5t-48 -130.5t-16.5 -177.5q0 -101 16 -182t47.5 -138t78.5 -87.5t108 -30.5zM652 -20q-141 0 -250 48.5t-184 138t-114 215t-39 279.5 q0 152 40.5 279t118 218t188.5 141.5t252 50.5t250 -49t184 -138t114 -214.5t39 -279.5q0 -152 -40.5 -279t-118 -218t-188.5 -141.5t-252 -50.5z" />
<glyph unicode="1" horiz-adv-x="864" d="M279 268v787q-25 -3 -59 -6.5t-69.5 -6.5t-69 -5t-56.5 -3l-24 257q33 3 75.5 7t89.5 9t96.5 10.5t97 11t90 11t75.5 10.5h82v-1082h237v-268h-844v268h279z" />
<glyph unicode="2" horiz-adv-x="1044" d="M55 230q100 113 176.5 199t133 152t94.5 116.5t61 91.5t33 76t10 72t-12.5 63.5t-34 43.5t-51 25t-62.5 8q-42 0 -83 -8t-76 -19t-63 -23t-44 -20l-92 234q12 7 48 25t89.5 37t121.5 33t144 14q119 0 206.5 -29t144.5 -81.5t84.5 -126t27.5 -162.5q0 -98 -40.5 -186 t-106 -170.5t-148 -163t-166.5 -163.5h534v-268h-929v230z" />
<glyph unicode="3" horiz-adv-x="1058" d="M402 253q51 0 92 6t70.5 21t45 40t15.5 63q0 79 -45.5 117.5t-142.5 38.5h-168v248h241q7 4 18.5 13.5t21.5 25.5t17.5 40t7.5 58q0 31 -6.5 59t-24 49t-47 33t-75.5 12q-40 0 -79 -8t-73.5 -19.5t-61.5 -24.5t-43 -23l-92 234q12 8 47 26.5t87.5 38t119 34.5t140.5 15 q120 0 206 -29.5t141.5 -81t82 -121.5t26.5 -150q0 -41 -14.5 -80t-38 -73.5t-54 -63t-61.5 -46.5q23 -8 60 -29t72 -58.5t60.5 -92.5t25.5 -131q0 -105 -40.5 -183t-111 -129t-166.5 -76.5t-208 -25.5q-76 0 -137.5 10t-109 24t-81 30.5t-54.5 29.5l65 247 q18 -9 46.5 -20.5t64 -22t76.5 -18t85 -7.5z" />
<glyph unicode="4" horiz-adv-x="1093" d="M586 1330h305v-808h172v-258h-172v-264h-328v264h-543v220zM563 522v317l-211 -317h211z" />
<glyph unicode="5" horiz-adv-x="1045" d="M617 410q0 84 -49.5 128.5t-152.5 44.5q-83 0 -162 -6t-143 -11l27 764h761v-268h-448l-11 -220q8 1 24 2t39 1q102 0 187.5 -29t146.5 -83.5t95 -132.5t34 -176q0 -109 -37 -192t-105.5 -139t-165 -84.5t-215.5 -28.5q-76 0 -136.5 8.5t-108 21.5t-82.5 29t-60 32 l60 247q24 -11 56 -22.5t69 -21t77 -15.5t80 -6q47 0 87 8t69.5 26.5t46.5 48.5t17 74z" />
<glyph unicode="6" horiz-adv-x="1129" d="M678 1077q-65 0 -112 -20.5t-78.5 -58t-48.5 -90.5t-21 -118q17 8 53 18.5t96 15.5q118 9 209.5 -16t154.5 -79t95.5 -134.5t32.5 -180.5q0 -99 -34 -179.5t-98.5 -137t-158.5 -87t-213 -30.5q-111 0 -201.5 33.5t-154.5 106.5t-99 187t-35 275q0 178 34.5 320.5t108 242 t187 152.5t272.5 53q63 0 117.5 -8.5t98 -20t74 -24.5t45.5 -22l-63 -247q-14 5 -40 13.5t-61 16.5t-76 13.5t-84 5.5zM571 238q78 0 114 37.5t36 124.5t-46.5 134.5t-126.5 43.5q-48 -2 -78 -12.5t-52 -24.5q-4 -67 3 -123t26 -96t49.5 -62t74.5 -22z" />
<glyph unicode="7" horiz-adv-x="1026" d="M981 1100l-445 -1100h-350l443 1072h-314v-198h-265l-10 456h941v-230z" />
<glyph unicode="8" horiz-adv-x="1162" d="M573 -20q-100 0 -188.5 20.5t-155 64t-105.5 109.5t-39 158q0 66 26 120t62.5 95t76.5 67.5t69 38.5q-41 22 -79.5 52t-68 68.5t-47 86.5t-17.5 107q0 91 35.5 162.5t99 120.5t152 74.5t195.5 25.5q99 0 184 -23t147 -67.5t97 -110t35 -150.5q0 -63 -21.5 -111.5 t-54 -84.5t-71 -60.5t-72.5 -39.5q12 -8 34.5 -22t49.5 -34.5t55.5 -47.5t51.5 -62t38 -78t15 -95q0 -101 -38 -173.5t-105 -119.5t-159.5 -69t-201.5 -22zM444 989q0 -33 8.5 -57.5t26 -45t44.5 -40.5t63 -44q26 13 49.5 31t41 40t28 48t10.5 55q0 60 -39.5 92.5 t-102.5 32.5q-57 0 -93 -31t-36 -81zM746 360q0 33 -16.5 61t-42 52t-56 44t-58.5 37q-27 -14 -55.5 -32t-51 -40.5t-37 -50t-14.5 -58.5q0 -36 14 -62.5t38 -44.5t55.5 -27t66.5 -9q32 0 60.5 9.5t50 27t34 41t12.5 52.5z" />
<glyph unicode="9" horiz-adv-x="1129" d="M451 253q65 0 112 19t78.5 56t48 90t21.5 122q-17 -8 -53 -18.5t-96 -15.5q-118 -9 -209.5 16t-154.5 79t-95.5 134t-32.5 181q0 99 35.5 179.5t101.5 137t161 87t214 30.5q238 0 360 -152.5t122 -459.5q0 -194 -34.5 -336.5t-108 -236t-187 -139.5t-272.5 -46 q-63 0 -117.5 8.5t-98 20t-74 24.5t-45.5 22l63 247q17 -8 44 -16.5t60.5 -15.5t73.5 -12t83 -5zM556 1092q-31 0 -58 -9t-47 -28.5t-31.5 -50.5t-11.5 -74q0 -87 46.5 -134.5t126.5 -43.5q48 2 78 12.5t52 24.5q8 150 -33.5 226.5t-121.5 76.5z" />
<glyph unicode=":" horiz-adv-x="518" d="M80 857q0 95 51.5 141t136.5 46q75 0 122.5 -43.5t47.5 -125.5q0 -96 -51.5 -141.5t-136.5 -45.5q-75 0 -122.5 43.5t-47.5 125.5zM80 149q0 95 51.5 141t136.5 46q75 0 122.5 -43.5t47.5 -125.5q0 -96 -51.5 -141.5t-136.5 -45.5q-75 0 -122.5 43.5t-47.5 125.5z" />
<glyph unicode=";" horiz-adv-x="491" d="M46 857q0 95 51.5 141t136.5 46q75 0 122.5 -43.5t47.5 -125.5q0 -96 -51.5 -141.5t-136.5 -45.5q-75 0 -122.5 43.5t-47.5 125.5zM161 43q0 40 -12 74.5t-30 62t-38.5 49.5t-38.5 38l245 69q20 -15 43.5 -40.5t43.5 -60t33.5 -77.5t13.5 -92q0 -66 -22.5 -121t-62 -99 t-94.5 -77.5t-119 -58.5l-113 126q29 16 56.5 36t48.5 45.5t33.5 56.5t12.5 69z" />
<glyph unicode="&#x3c;" horiz-adv-x="1118" d="M938 1001l-419 -336l419 -334l-161 -190l-657 524l657 527z" />
<glyph unicode="=" horiz-adv-x="1223" d="M130 620h963v-257h-963v257zM130 969h963v-257h-963v257z" />
<glyph unicode="&#x3e;" horiz-adv-x="1118" d="M200 329l419 336l-419 334l161 190l657 -524l-657 -527z" />
<glyph unicode="?" horiz-adv-x="822" d="M197 549q0 28 8 53.5t23 50t36.5 49t48.5 50.5q25 25 53 52.5t51 55t38 54.5t15 51q0 60 -38 93.5t-119 33.5q-40 0 -78.5 -6t-71.5 -14.5t-57 -17.5t-36 -15l-60 227q22 12 55 26.5t77 27.5t100 21.5t123 8.5q101 0 179.5 -27.5t132.5 -75t82 -112t28 -137.5 q0 -50 -20.5 -96.5t-51 -87.5t-65.5 -76.5t-64 -62.5q-26 -24 -50 -48.5t-42 -48.5t-28.5 -49t-8.5 -51l2 -31l-228 -17q-5 7 -10.5 17t-11 23.5t-9 32.5t-3.5 46zM177 149q0 95 51.5 141t136.5 46q75 0 122.5 -43.5t47.5 -125.5q0 -96 -51.5 -141.5t-136.5 -45.5 q-75 0 -122.5 43.5t-47.5 125.5z" />
<glyph unicode="@" horiz-adv-x="2280" d="M1606 -20q-43 0 -82.5 11.5t-74.5 30.5t-63.5 44t-48.5 53q-18 -22 -47.5 -46.5t-68.5 -45t-86.5 -34t-100.5 -13.5q-87 0 -157 33.5t-119.5 95t-76 147t-26.5 189.5q0 134 38.5 244.5t113 189t183 122t249.5 43.5q78 0 144.5 -19t119 -44t88.5 -50t52 -37l-45 -585 q-1 -45 12 -71.5t39 -28.5q37 -4 73.5 25.5t65 85t46.5 133.5t18 172q0 140 -37.5 254t-115 194.5t-194.5 124.5t-276 44q-123 0 -229.5 -28.5t-194.5 -80t-156.5 -122.5t-115 -155.5t-71 -180.5t-24.5 -196q0 -156 40.5 -278t119 -206.5t194 -128.5t265.5 -44q100 0 180 17 t140 41l66 -208q-24 -13 -65 -28t-95.5 -28.5t-119.5 -22.5t-137 -9q-213 0 -382.5 60.5t-288 173t-182 273.5t-63.5 362q0 132 33.5 260t99.5 242t163 210.5t224 166t283 109t340 39.5q221 0 392 -62t287.5 -172t177 -262.5t60.5 -333.5q0 -157 -43.5 -281.5t-119 -210.5 t-178.5 -132t-223 -46zM985 477q0 -54 9 -98t26.5 -75.5t43 -48.5t58.5 -17q29 0 53.5 8.5t44.5 21.5t35.5 28t25.5 29l35 456q-14 5 -39.5 10t-66.5 5q-63 0 -106.5 -25t-69.5 -68t-37.5 -101.5t-11.5 -124.5z" />
<glyph unicode="A" horiz-adv-x="1341" d="M991 0l-97 279h-447l-97 -279h-350l519 1330h302l520 -1330h-350zM533 527h274l-132 381h-10z" />
<glyph unicode="B" horiz-adv-x="1193" d="M115 0v1330h459q117 0 209.5 -22t156.5 -66t98 -112t34 -159q0 -81 -43.5 -144.5t-109.5 -102.5q43 -17 83.5 -46t72 -69t50 -89t18.5 -106q0 -93 -38.5 -169.5t-108.5 -131t-169.5 -84t-220.5 -29.5h-491zM443 565v-312h151q91 0 136 38t45 103q0 81 -46.5 126 t-134.5 45h-151zM443 792h230q59 53 59 139q0 68 -40 107t-118 39h-131v-285z" />
<glyph unicode="C" horiz-adv-x="1156" d="M1116 73q-34 -20 -76.5 -37t-90.5 -29.5t-98 -19.5t-99 -7q-164 0 -293.5 46.5t-219 134t-137 214t-47.5 286.5q0 156 49 283.5t140 217.5t220 139t288 49q46 0 94 -5.5t93 -16t85 -25t69 -31.5l-69 -247q-131 52 -261 52q-86 0 -152 -27t-111 -78.5t-68.5 -126 t-23.5 -169.5q0 -96 24 -174.5t67.5 -133.5t105.5 -85t138 -30q73 0 149 15t145 47z" />
<glyph unicode="D" horiz-adv-x="1328" d="M115 0v1330h459q163 0 293 -45.5t220 -130.5t138 -206t48 -272q0 -159 -46 -284.5t-134 -212.5t-215.5 -133t-290.5 -46h-472zM575 253q83 0 147.5 29.5t108.5 83.5t66.5 129t22.5 166q0 100 -23.5 178t-67 130.5t-105.5 80t-138 27.5h-143v-824h132z" />
<glyph unicode="E" horiz-adv-x="1063" d="M115 1330h858v-268h-530v-262h500v-258h-500v-274h550v-268h-878v1330z" />
<glyph unicode="F" horiz-adv-x="993" d="M115 1330h858v-268h-530v-277h460v-258h-460v-527h-328v1330z" />
<glyph unicode="G" horiz-adv-x="1301" d="M1206 112q-85 -63 -200 -97.5t-244 -34.5q-166 0 -297.5 46.5t-222.5 134t-139 214t-48 286.5q0 156 51 283.5t145 217.5t227.5 139t298.5 49q48 0 98.5 -5.5t97.5 -16t88.5 -25t71.5 -31.5l-69 -247q-138 52 -276 52q-91 0 -162 -27t-119.5 -78.5t-73.5 -126t-25 -169.5 q0 -96 24.5 -174.5t69.5 -133.5t109 -85t142 -30q42 0 80.5 5t73.5 14v250h-221v243h520v-653z" />
<glyph unicode="H" horiz-adv-x="1370" d="M927 537h-484v-537h-328v1330h328v-525h484v525h328v-1330h-328v537z" />
<glyph unicode="I" horiz-adv-x="558" d="M115 1330h328v-1330h-328v1330z" />
<glyph unicode="J" horiz-adv-x="765" d="M332 1330h328v-932q0 -106 -29.5 -184.5t-81 -130.5t-122.5 -77.5t-153 -25.5q-52 0 -93.5 6t-73 14t-53.5 17.5t-34 17.5l42 247q17 -8 55 -19t94 -10q121 1 121 116v961z" />
<glyph unicode="K" horiz-adv-x="1259" d="M443 0h-328v1330h328v-601l415 601h366l-419 -602l434 -728h-382l-291 518l-123 -168v-350z" />
<glyph unicode="L" horiz-adv-x="993" d="M115 1330h328v-1062h540v-268h-868v1330z" />
<glyph unicode="M" horiz-adv-x="1640" d="M1525 0h-323v861l-254 -714h-256l-254 714v-861h-323v1330h431l274 -759l274 759h431v-1330z" />
<glyph unicode="N" horiz-adv-x="1380" d="M438 809v-809h-323v1330h340l487 -810v810h323v-1330h-340z" />
<glyph unicode="O" horiz-adv-x="1436" d="M723 238q66 0 122 27.5t96.5 80.5t63.5 130.5t23 177.5t-22 181t-63 138t-99 88t-131 31q-66 0 -122 -27.5t-96.5 -80.5t-63.5 -130.5t-23 -177.5q0 -101 22 -182t63 -138t99 -87.5t131 -30.5zM712 -20q-156 0 -278.5 48.5t-206.5 138t-128 215t-44 279.5q0 152 45.5 279 t132 218t210.5 141.5t281 50.5q156 0 278.5 -49t206.5 -138t128 -214.5t44 -279.5q0 -152 -46 -279t-132 -218t-210 -141.5t-281 -50.5z" />
<glyph unicode="P" horiz-adv-x="1129" d="M115 1330h454q253 0 386.5 -105.5t133.5 -328.5q0 -111 -38.5 -195.5t-106 -141t-158.5 -85t-197 -28.5h-146v-446h-328v1330zM443 1068v-374h116q97 0 142 51t45 138q0 91 -43.5 138t-123.5 47h-136z" />
<glyph unicode="Q" horiz-adv-x="1436" d="M712 -20q-156 0 -278.5 48.5t-206.5 138t-128 215t-44 279.5q0 152 45.5 279t132 218t210.5 141.5t281 50.5q156 0 278.5 -49t206.5 -138t128 -214.5t44 -279.5q0 -193 -72 -342.5t-206 -238.5q40 -60 82.5 -106t90 -77t102.5 -47t120 -16q58 0 115 9t97 23l26 -250 q-22 -8 -47.5 -15t-57.5 -12.5t-72 -9t-91 -3.5q-123 0 -218 31.5t-169.5 86.5t-131.5 129t-103 160q-32 -5 -65.5 -8t-68.5 -3zM723 238q66 0 122 27.5t96.5 80.5t63.5 130.5t23 177.5t-22 181t-63 138t-99 88t-131 31q-66 0 -122 -27.5t-96.5 -80.5t-63.5 -130.5 t-23 -177.5q0 -101 22 -182t63 -138t99 -87.5t131 -30.5z" />
<glyph unicode="R" horiz-adv-x="1196" d="M115 1330h444q261 0 400.5 -106t139.5 -330q0 -77 -22.5 -135t-56 -101.5t-72 -73.5t-69.5 -49l302 -535h-366l-242 462h-130v-462h-328v1330zM443 1068v-358h226q15 7 30.5 22.5t28 37.5t20.5 50t8 61q0 92 -49.5 139.5t-137.5 47.5h-126z" />
<glyph unicode="S" horiz-adv-x="1095" d="M162 345q18 -9 54 -23t81.5 -27t96.5 -22.5t99 -9.5q97 0 140.5 20.5t43.5 65.5q0 22 -6.5 39.5t-21 33.5t-38.5 31t-59 32l-173 77q-65 29 -117 65t-88 82t-55.5 104.5t-19.5 133.5q0 91 37.5 165t103 127t155 82t193.5 29q82 0 146.5 -12t113.5 -28.5t83.5 -34.5 t56.5 -30l-60 -262q-26 13 -62.5 27.5t-78 26.5t-86 20t-87.5 8q-48 0 -80.5 -8.5t-52.5 -23t-29 -33t-10 -39.5q-1 -25 6.5 -43.5t21.5 -32.5t33 -25.5t42 -21.5l194 -90q76 -36 130 -75t88.5 -85t51 -101t16.5 -122q0 -93 -35 -164.5t-102 -120.5t-164.5 -74.5 t-222.5 -25.5q-62 0 -124.5 8.5t-117.5 23t-99 32.5t-70 36z" />
<glyph unicode="T" horiz-adv-x="1090" d="M381 1062h-371v268h1070v-268h-371v-1062h-328v1062z" />
<glyph unicode="U" horiz-adv-x="1310" d="M433 535q0 -83 16 -139.5t46 -91.5t71.5 -50.5t92.5 -15.5t91.5 15t68.5 48t43 85t15 126v818h328v-805q0 -129 -39 -230t-111.5 -171t-175.5 -107t-231 -37t-229 35.5t-171 105t-106.5 171t-36.5 233.5v805h328v-795z" />
<glyph unicode="V" horiz-adv-x="1311" d="M1311 1330l-450 -1330h-412l-449 1330h365l285 -968h10l286 968h365z" />
<glyph unicode="W" horiz-adv-x="1856" d="M1836 1330l-327 -1330h-383l-198 712l-198 -712h-382l-328 1330h365l183 -903h10l218 883h264l218 -883h10l183 903h365z" />
<glyph unicode="X" horiz-adv-x="1355" d="M423 1330l254 -411l255 411h369l-429 -640l473 -690h-371l-297 458l-295 -458h-372l473 690l-429 640h369z" />
<glyph unicode="Y" horiz-adv-x="1222" d="M447 494l-447 836h356l255 -527l255 527h356l-447 -836v-494h-328v494z" />
<glyph unicode="Z" horiz-adv-x="1127" d="M630 1061h-520v268h928v-230l-592 -831h631v-268h-1007v230z" />
<glyph unicode="[" horiz-adv-x="675" d="M655 -271l-540 -8v1884h540v-223l-252 -5v-1428h252v-220z" />
<glyph unicode="\" horiz-adv-x="940" d="M261 1585l774 -1835h-316l-774 1835h316z" />
<glyph unicode="]" horiz-adv-x="675" d="M40 1597l540 8v-1884h-540v223l252 5v1428h-252v220z" />
<glyph unicode="^" horiz-adv-x="1236" d="M115 765l325 715h356l325 -715h-340l-163 400l-163 -400h-340z" />
<glyph unicode="_" horiz-adv-x="1193" d="M115 0h963v-257h-963v257z" />
<glyph unicode="`" horiz-adv-x="860" d="M676 1147l-561 156l123 270l507 -275z" />
<glyph unicode="a" horiz-adv-x="961" d="M836 284q0 -30 12 -43t33 -13q20 0 35.5 3.5t29.5 7.5l25 -224q-38 -16 -83 -25.5t-99 -9.5q-29 0 -57 4.5t-52.5 15t-45.5 28.5t-36 44q-54 -45 -117 -68.5t-126 -23.5q-75 0 -137 21t-106 59t-68 91.5t-24 118.5q0 85 36 146t102 98t160 49t210 -1v92q0 66 -32.5 96.5 t-108.5 30.5q-38 0 -75.5 -6t-73 -15t-66 -20t-52.5 -21l-58 230q28 15 69.5 32t90.5 31t102.5 23t105.5 9q198 0 302 -87t104 -252v-421zM324 301q0 -45 26 -68t70 -23q27 0 55 8t53 21v153q-100 17 -152 -8t-52 -83z" />
<glyph unicode="b" horiz-adv-x="1125" d="M443 1480v-525q10 10 32.5 25t54 29.5t71 24.5t83.5 10q97 0 172.5 -38t127.5 -107t79 -165t27 -213q0 -121 -35.5 -220.5t-105.5 -171t-172.5 -110.5t-236.5 -39q-61 0 -120.5 8.5t-114 23.5t-103 36t-87.5 46v1365zM752 506q0 63 -11 114.5t-32.5 88t-55 57t-78.5 20.5 q-18 0 -37 -4t-37 -10.5t-33.5 -14.5t-24.5 -16v-500q14 -5 40 -9t67 -4q56 0 94.5 21t62.5 58t34.5 88t10.5 111z" />
<glyph unicode="c" horiz-adv-x="898" d="M373 518q0 -135 52 -205t165 -70q38 0 74 6t65.5 14t50.5 15.5t29 11.5l69 -232q-23 -14 -56.5 -27.5t-76.5 -25t-94.5 -18.5t-111.5 -7q-119 0 -212.5 38t-158 107t-99 165t-34.5 212q0 121 35.5 221t102.5 171.5t164.5 110.5t221.5 39q55 0 102.5 -7.5t86.5 -18.5 t68.5 -24t47.5 -23l-60 -237q-7 3 -27 10.5t-47.5 16t-61.5 14.5t-68 6q-114 0 -170.5 -68.5t-56.5 -194.5z" />
<glyph unicode="d" horiz-adv-x="1135" d="M1020 1480v-1480h-264l-32 98l-32 -29q-10 -10 -32.5 -25t-54 -29.5t-71 -24.5t-83.5 -10q-99 0 -176.5 38t-130.5 107t-81 165t-28 213q0 121 34 220.5t98 171t154.5 110.5t203.5 39q51 0 93 -12t74 -29v456zM692 760q-17 12 -49.5 24t-77.5 12q-48 0 -84 -21t-60 -58 t-36 -88t-12 -111q0 -63 11.5 -114.5t34.5 -88t58 -57t83 -20.5q18 0 37 4t37 10.5t33.5 14.5t24.5 16v477z" />
<glyph unicode="e" horiz-adv-x="997" d="M648 618q8 41 3.5 75.5t-20.5 59.5t-43 39t-64 14q-72 0 -112 -45.5t-49 -142.5h285zM360 445q10 -107 69.5 -154.5t160.5 -47.5q47 0 88 5.5t75.5 14t63 18t51.5 18.5l69 -232q-24 -12 -60 -27t-84 -28.5t-109 -22.5t-135 -9q-121 0 -216.5 38t-161.5 107t-101 165 t-35 212q0 121 35.5 221t101.5 171.5t161.5 110.5t215.5 39q99 0 176 -28.5t129.5 -80t80 -122t27.5 -154.5q0 -70 -8.5 -124t-22.5 -90h-571z" />
<glyph unicode="f" horiz-adv-x="684" d="M462 1024h232v-238h-228v-786h-328v786h-138v218l140 9v90q0 85 25 154.5t75 119t124.5 76.5t173.5 27q46 0 82.5 -4t66.5 -10t53.5 -14t43.5 -15l-50 -234q-20 7 -54.5 15.5t-79.5 8.5q-69 0 -103.5 -31.5t-34.5 -108.5v-63z" />
<glyph unicode="g" horiz-adv-x="1047" d="M428 302q-15 -14 -25.5 -30.5t-11.5 -30.5q-5 -39 46 -39h233q78 0 141 -19t107 -56.5t68 -93t24 -128.5q0 -77 -42.5 -140t-116.5 -107.5t-174 -69t-216 -24.5q-226 0 -336 57.5t-110 173.5q0 42 14 76.5t37.5 61.5t53.5 47.5t62 36.5q-9 7 -20 17.5t-20.5 25.5 t-16 35.5t-6.5 47.5q0 25 10 51.5t28 52t43 48.5t54 41q-105 41 -160.5 125t-55.5 205q0 88 29 158.5t84 119t134.5 74.5t180.5 26q159 0 261 -64q43 24 87 38.5t84 20.5t73.5 4.5t55.5 -8.5v-239q-17 2 -37.5 3.5t-42 2t-42.5 0.5t-38 -1q17 -57 17 -122q0 -88 -29 -158 t-84 -118.5t-134.5 -74.5t-180.5 -26h-28zM465 504q33 0 55.5 12.5t37 34.5t20.5 52t6 65q0 39 -6.5 71t-21.5 54.5t-39 35t-60 12.5q-33 0 -56 -12.5t-37 -34t-20 -51.5t-6 -66q0 -39 6.5 -70.5t21.5 -54.5t39 -35.5t60 -12.5zM500 -212q100 0 156 25.5t56 78.5 q0 28 -20 44.5t-61 16.5h-287q-7 -6 -15 -14.5t-15.5 -19.5t-12.5 -23.5t-5 -26.5q0 -43 52 -62t152 -19z" />
<glyph unicode="h" horiz-adv-x="1166" d="M443 1480v-530q19 15 46 32t60.5 30.5t73 22.5t84.5 9q178 0 268.5 -89t90.5 -281v-674h-328v623q0 81 -30 117t-101 36q-20 0 -42.5 -4.5t-45 -12t-42.5 -18t-34 -21.5v-720h-328v1459z" />
<glyph unicode="i" horiz-adv-x="558" d="M443 1024v-1024h-328v1024h328zM100 1341q0 95 51.5 141t136.5 46q75 0 122.5 -43.5t47.5 -125.5q0 -96 -51.5 -141.5t-136.5 -45.5q-75 0 -122.5 43.5t-47.5 125.5z" />
<glyph unicode="j" horiz-adv-x="578" d="M463 1024v-1037q0 -205 -101.5 -304t-299.5 -99q-69 0 -116 12t-79 27l38 234q17 -6 43 -13t62 -7q64 0 94.5 30.5t30.5 100.5v1056h328zM120 1341q0 95 51.5 141t136.5 46q75 0 122.5 -43.5t47.5 -125.5q0 -96 -51.5 -141.5t-136.5 -45.5q-75 0 -122.5 43.5t-47.5 125.5 z" />
<glyph unicode="k" horiz-adv-x="1112" d="M443 1480v-866l297 410h352l-308 -422l328 -602h-365l-209 406l-95 -131v-275h-328v1459z" />
<glyph unicode="l" horiz-adv-x="558" d="M443 1480v-1480h-328v1459z" />
<glyph unicode="m" horiz-adv-x="1769" d="M379 1024l33 -101q15 16 41.5 37t63.5 40t84 31.5t101 12.5q204 0 290 -120q28 25 63 46.5t76 38t87 26t97 9.5q175 0 264.5 -89t89.5 -281v-674h-328v623q0 81 -29 117t-97 36q-36 0 -80 -15.5t-81 -41.5q1 -11 1.5 -22.5t0.5 -22.5v-674h-328v623q0 81 -29 117t-97 36 q-38 0 -83 -16.5t-76 -39.5v-720h-328v1024h264z" />
<glyph unicode="n" horiz-adv-x="1166" d="M379 1024l33 -101q15 15 42.5 36t65 39.5t84.5 32t103 13.5q178 0 268.5 -89t90.5 -281v-674h-328v623q0 81 -30 117t-101 36q-20 0 -42.5 -4.5t-45 -12t-42.5 -18t-34 -21.5v-720h-328v1024h264z" />
<glyph unicode="o" horiz-adv-x="1111" d="M549 -20q-122 0 -217.5 38t-161.5 107t-100.5 165t-34.5 213q0 121 35.5 220.5t103 171t165.5 110.5t223 39q122 0 217.5 -38t161.5 -107t100.5 -165t34.5 -213q0 -121 -35.5 -220.5t-103 -171t-165.5 -110.5t-223 -39zM560 218q49 0 83 21.5t55 60t30.5 91t9.5 115.5 q0 67 -9.5 122.5t-31.5 95t-58 61t-88 21.5q-50 0 -84 -21.5t-55 -60t-30 -91t-9 -115.5q0 -67 9.5 -122.5t31.5 -95t57.5 -61t88.5 -21.5z" />
<glyph unicode="p" horiz-adv-x="1135" d="M115 -396v1420h264l32 -98l32 29q10 10 32.5 25t54 29.5t71 24.5t83.5 10q99 0 176.5 -38t130.5 -107t81 -165t28 -213q0 -121 -34 -220.5t-98 -171t-154.5 -110.5t-203.5 -39q-51 0 -93 12t-74 29v-417h-328zM443 263q17 -11 49 -23t78 -12q48 0 84 21t60 58t36 88 t12 111q0 63 -11.5 114.5t-34.5 88t-58 57t-83 20.5q-18 0 -37 -4t-37 -10.5t-33.5 -14.5t-24.5 -16v-478z" />
<glyph unicode="q" horiz-adv-x="1125" d="M682 -396v464q-10 -10 -32.5 -25t-54 -29.5t-71 -24.5t-83.5 -10q-97 0 -172.5 38t-127.5 107t-79 165t-27 213q0 121 35.5 220.5t105.5 171t172.5 110.5t236.5 39q61 0 120 -7t114 -19t103.5 -27t87.5 -31v-1355h-328zM373 517q0 -63 11 -114.5t32.5 -88t55 -57 t78.5 -20.5q18 0 37 4t37 10.5t33.5 14.5t24.5 16v498q-14 5 -40 10t-67 5q-56 0 -94.5 -21t-62.5 -58t-34.5 -88t-10.5 -111z" />
<glyph unicode="r" horiz-adv-x="760" d="M379 1024l41 -127q28 31 66 59.5t83 49t93.5 31t97.5 4.5v-294q-41 4 -85 -1t-86.5 -15.5t-80.5 -24.5t-65 -28v-678h-328v1024h264z" />
<glyph unicode="s" horiz-adv-x="877" d="M119 294q24 -11 57.5 -23t70.5 -21.5t75.5 -15.5t73.5 -6q60 0 94.5 11.5t34.5 43.5q0 18 -11.5 31.5t-30.5 24t-44 19.5t-51 18l-70 25q-136 49 -197 124t-61 184q0 76 28 138t80 105.5t126 67.5t166 24q37 0 79.5 -3t87.5 -11t90.5 -22.5t89.5 -36.5l-50 -237 q-28 10 -62.5 21t-71 20t-73.5 15t-70 6q-18 0 -38 -2.5t-36.5 -9.5t-27.5 -19.5t-11 -32.5q0 -18 9 -31.5t26.5 -25t44.5 -23t63 -25.5l78 -30q124 -47 184 -119t60 -186q0 -71 -24.5 -128.5t-75 -98.5t-126.5 -63t-179 -22q-124 0 -216.5 23.5t-154.5 54.5z" />
<glyph unicode="t" horiz-adv-x="764" d="M462 1024h258v-238h-254v-403q0 -40 6.5 -67t20 -43t35 -23t52.5 -7q45 0 85.5 9t62.5 17l36 -238q-21 -9 -51.5 -18.5t-66 -16.5t-73.5 -11.5t-75 -4.5q-99 0 -167.5 20t-111.5 64t-62 113.5t-19 169.5v439h-138v218l160 10l29 237l273 19v-246z" />
<glyph unicode="u" horiz-adv-x="1156" d="M777 0l-33 101q-15 -17 -41.5 -37.5t-63.5 -39.5t-84 -31.5t-101 -12.5q-176 0 -265 89t-89 281v674h328v-623q0 -81 29 -117t97 -36q38 0 83 16.5t76 39.5v720h328v-1024h-264z" />
<glyph unicode="v" horiz-adv-x="1074" d="M1084 1024l-341 -1024h-412l-341 1024h358l184 -690h10l184 690h358z" />
<glyph unicode="w" horiz-adv-x="1610" d="M1620 1024l-281 -1024h-412l-122 482l-122 -482h-412l-281 1024h353l154 -680h10l154 670h288l154 -670h10l154 680h353z" />
<glyph unicode="x" horiz-adv-x="1060" d="M365 1024l165 -278l165 278h361l-338 -493l372 -531h-363l-197 314l-197 -314h-363l372 531l-338 493h361z" />
<glyph unicode="y" horiz-adv-x="1114" d="M1104 1024l-327 -1044q-33 -105 -80 -180t-110 -123t-142.5 -70.5t-176.5 -22.5q-38 0 -74.5 5t-68.5 12t-58.5 15.5t-43.5 16.5l48 234q17 -6 62.5 -18t112.5 -12q61 0 106 31t58 99l-49 93l-361 964h363l205 -700h10l168 700h358z" />
<glyph unicode="z" horiz-adv-x="973" d="M496 786h-396v238h773v-190l-426 -596h456v-238h-833v190z" />
<glyph unicode="{" horiz-adv-x="689" d="M380 1329q0 -26 14 -58t35.5 -68t46 -73.5t46 -75.5t35.5 -74.5t14 -69.5q0 -54 -15.5 -95.5t-43.5 -72.5t-66.5 -50t-84.5 -28q46 -8 84.5 -27t66.5 -48t43.5 -67.5t15.5 -85.5q0 -32 -14 -71t-35.5 -80t-46 -82.5t-46 -79t-35.5 -69t-14 -52.5q0 -45 26.5 -70t81.5 -25 q39 0 70.5 6t50.5 12l30 -202q-25 -14 -76 -26.5t-111 -12.5q-78 0 -142.5 15.5t-111 49.5t-72 87t-25.5 127q0 42 13.5 85t33 84t43 80t43 74.5t33 66.5t13.5 56q0 40 -14 69t-40 48.5t-63 29.5t-83 11v195q92 2 146 38t54 103q0 29 -13.5 62.5t-33 70t-43 75t-43 77 t-33 76t-13.5 72.5q0 80 27.5 138.5t74.5 96.5t111 56t138 18q60 0 111 -12.5t76 -26.5l-30 -202q-19 6 -50.5 12t-70.5 6q-27 0 -47.5 -8.5t-34 -21.5t-20 -30t-6.5 -33z" />
<glyph unicode="|" horiz-adv-x="518" d="M115 1523h288v-2022h-288v2022z" />
<glyph unicode="}" horiz-adv-x="689" d="M329 1329q0 16 -6.5 33t-20 30t-34 21.5t-47.5 8.5q-39 0 -70.5 -6t-50.5 -12l-30 202q25 14 76 26.5t111 12.5q73 0 137.5 -18t111.5 -56t74.5 -96.5t27.5 -138.5q0 -35 -13.5 -72.5t-33 -76t-43 -77t-43 -75t-33 -70t-13.5 -62.5q0 -67 54 -103t146 -38v-195 q-92 -2 -146 -40.5t-54 -117.5q0 -25 13.5 -56t33 -66.5t43 -74.5t43 -80t33 -84t13.5 -85q0 -74 -25.5 -127t-72 -87t-111 -49.5t-142.5 -15.5q-60 0 -111 12.5t-76 26.5l30 202q19 -6 50.5 -12t70.5 -6q55 0 81.5 25t26.5 70q0 21 -14 52.5t-35.5 69t-46 79t-46 82.5 t-35.5 80t-14 71q0 47 15.5 85.5t43.5 67.5t66.5 48t84.5 27q-46 9 -84.5 28t-66.5 50t-43.5 72.5t-15.5 95.5q0 33 14 69.5t35.5 74.5t46 75.5t46 73.5t35.5 68t14 58z" />
<glyph unicode="~" horiz-adv-x="1116" d="M110 662q22 36 53.5 65.5t69.5 51t81 33.5t88 12t86 -10t80 -22.5t77 -22.5t77 -10q28 0 54.5 7.5t49.5 19t43 24t34 23.5l103 -165q-23 -36 -54 -65.5t-69 -51t-81 -33.5t-88 -12t-86 10t-80 22.5t-77 22.5t-77 10q-28 0 -54.5 -7.5t-49.5 -19t-43 -24.5t-34 -23z" />
<glyph unicode="&#xa1;" horiz-adv-x="518" d="M433 -306h-348l50 884h248zM80 857q0 95 51.5 141t136.5 46q75 0 122.5 -43.5t47.5 -125.5q0 -96 -51.5 -141.5t-136.5 -45.5q-75 0 -122.5 43.5t-47.5 125.5z" />
<glyph unicode="&#xa2;" horiz-adv-x="1273" d="M846 1417l-23 -225q81 -9 139 -30t87 -38l-60 -237q-8 3 -28.5 10.5t-49.5 16t-64.5 14.5t-71.5 6q-62 0 -112.5 -16t-87.5 -49t-57 -82.5t-20 -115.5q0 -71 19.5 -123t55.5 -85.5t87.5 -50t114.5 -16.5q38 0 74 6t65.5 14t50.5 15.5t29 11.5l69 -232q-35 -21 -94 -41.5 t-138 -30.5l23 -227h-260l23 228q-105 15 -190 58.5t-144 110t-91 154.5t-32 192q0 105 31 194.5t89.5 158.5t141.5 114.5t188 63.5l-24 231h260z" />
<glyph unicode="&#xa3;" horiz-adv-x="1259" d="M929 607h-296q4 -31 6 -63t2 -65q0 -53 -6.5 -110.5t-20.5 -116.5q47 -8 90 -13.5t85 -5.5q40 -1 65.5 8.5t42 26.5t26.5 41.5t18 53.5l208 -53q-5 -88 -31 -150.5t-70.5 -102.5t-105 -58.5t-134.5 -18.5q-50 0 -96 5.5t-90 12t-87 13t-87 9.5q-11 -9 -24 -19 q-11 -8 -25.5 -17t-28.5 -14l-167 28l-57 187q13 9 32 18t39.5 17.5t42 15t39.5 9.5q13 59 17.5 114t4.5 106q0 37 -2.5 72t-7.5 70h-169v143h147q-6 44 -10.5 88.5t-4.5 92.5q0 97 30 174.5t89 132t145.5 83.5t200.5 29q53 0 99.5 -8.5t84.5 -20.5t67 -25.5t48 -23.5 l-60 -237q-7 3 -30.5 11.5t-56.5 17.5t-71.5 16t-76.5 7q-70 0 -109.5 -33.5t-39.5 -108.5q0 -51 5 -99t13 -96h317v-143z" />
<glyph unicode="&#xa4;" horiz-adv-x="1530" d="M1202 76l-208 201q-50 -23 -107.5 -35t-121.5 -12q-65 0 -122 12t-107 35l-208 -201l-153 127l189 215q-38 53 -58 116.5t-20 135.5t20 135t58 117l-189 215l153 127l208 -203q50 23 107 35.5t122 12.5q64 0 121 -12.5t107 -35.5l209 203l153 -127l-189 -216 q38 -53 58 -116.5t20 -134.5t-19.5 -133t-56.5 -115l187 -219zM765 455q46 0 83 16t63 44.5t40 68t14 86.5t-14 86t-40 67.5t-63 44.5t-83 16t-83 -16t-63 -44.5t-40 -67.5t-14 -86t14 -86.5t40 -68t63 -44.5t83 -16z" />
<glyph unicode="&#xa5;" horiz-adv-x="1342" d="M671 831l245 499h336l-246 -461h118v-143h-905v143h117l-246 461h336zM1099 462h-264v-462h-328v462h-263v143h855v-143z" />
<glyph unicode="&#xa6;" horiz-adv-x="518" d="M115 1523h288v-829h-288v829zM115 330h288v-829h-288v829z" />
<glyph unicode="&#xa7;" horiz-adv-x="1226" d="M199 -91q56 -19 113.5 -33.5t123.5 -21.5q19 32 24 70.5t-2 85t-26 102t-47 123.5l-153 357q-31 71 -53 123t-36.5 98t-21 92.5t-6.5 106.5q0 104 40 190.5t115.5 148t184 95.5t245.5 34q63 0 121 -8.5t108.5 -21t90.5 -27t67 -26.5l-60 -242q-57 19 -114 33.5t-123 21.5 q-20 -32 -25 -70.5t2 -85t26 -102.5t48 -123l153 -357q31 -71 53 -123t36 -98t21 -92.5t7 -106.5q0 -104 -40 -190.5t-115.5 -148t-184 -95.5t-245.5 -34q-63 0 -121 8.5t-108.5 21t-90.5 27t-67 26.5zM544 841q-32 75 -44 131t-9 98t18 72.5t37 54.5q-83 -22 -118.5 -68.5 t-35.5 -106.5q0 -39 5.5 -76.5t19 -82.5t36.5 -102.5t57 -136.5l172 -401q32 -75 44 -131t9 -98t-18.5 -72.5t-37.5 -54.5q84 22 119.5 68.5t35.5 106.5q0 39 -5.5 76.5t-19 82.5t-36.5 102.5t-57 136.5z" />
<glyph unicode="&#xa8;" horiz-adv-x="1044" d="M115 1341q0 95 51.5 141t136.5 46q75 0 122.5 -43.5t47.5 -125.5q0 -96 -51.5 -141.5t-136.5 -45.5q-75 0 -122.5 43.5t-47.5 125.5zM571 1341q0 95 51.5 141t136.5 46q75 0 122.5 -43.5t47.5 -125.5q0 -96 -51.5 -141.5t-136.5 -45.5q-75 0 -122.5 43.5t-47.5 125.5z " />
<glyph unicode="&#xa9;" horiz-adv-x="1600" d="M115 665q0 142 54 266.5t147 217.5t217.5 147t266.5 54t266.5 -54t217.5 -147t147 -217.5t54 -266.5t-54 -266.5t-147 -217.5t-217.5 -147t-266.5 -54t-266.5 54t-217.5 147t-147 217.5t-54 266.5zM288 665q0 -107 40 -200t109.5 -162.5t162.5 -109.5t200 -40 q106 0 199.5 40t163 109.5t109.5 162.5t40 200q0 106 -40 199.5t-109.5 163t-163 109.5t-199.5 40q-107 0 -200 -40t-162.5 -109.5t-109.5 -163t-40 -199.5zM695 670q0 -92 30.5 -134.5t108.5 -42.5q28 0 53 4t45.5 9t35 10t21.5 8l51 -182q-33 -20 -94 -38t-148 -18 q-84 0 -151 27t-113 76t-70.5 117t-24.5 151q0 87 25 158.5t73 122.5t117.5 78.5t157.5 27.5q39 0 73.5 -5.5t62 -13t48.5 -17t34 -16.5l-44 -186q-6 2 -19.5 7t-33 10.5t-43 9.5t-48.5 4q-79 0 -113 -41t-34 -126z" />
<glyph unicode="&#xaa;" horiz-adv-x="618" d="M530 918q0 -33 30 -33q11 0 20 2.5t14 4.5l14 -141q-24 -9 -57.5 -14.5t-68.5 -5.5q-48 0 -75.5 15.5t-45.5 38.5q-22 -18 -56 -36t-85 -18q-91 0 -140.5 43.5t-49.5 128.5q0 58 27 95t69 56t93.5 23.5t101.5 -1.5v12q0 33 -17 48.5t-55 15.5q-54 0 -95 -12t-68 -24 l-37 179q17 9 42.5 18.5t56.5 18t65.5 13.5t70.5 5q119 0 182.5 -50.5t63.5 -146.5v-235zM227 921q0 -19 11 -27.5t30 -8.5q14 0 29.5 5.5t23.5 11.5v60q-46 10 -70 -1.5t-24 -39.5z" />
<glyph unicode="&#xab;" horiz-adv-x="1250" d="M741 866q-61 -90 -143.5 -180t-167.5 -174q85 -84 167.5 -174t143.5 -180l-214 -156q-51 68 -107 138t-113 136.5t-112.5 126.5t-104.5 109q49 49 104.5 109t112.5 126.5t113 136.5t107 138zM1220 826q-57 -79 -127.5 -160t-153.5 -154q83 -73 153.5 -154t127.5 -160 l-214 -156q-48 62 -101 126.5t-106 126t-104.5 117.5t-95.5 100q44 44 95.5 99.5t104.5 117t106 126.5t101 127z" />
<glyph unicode="&#xac;" horiz-adv-x="1218" d="M130 793h958v-513h-257v256h-701v257z" />
<glyph unicode="&#xad;" horiz-adv-x="872" d="M105 661h661v-257h-661v257z" />
<glyph unicode="&#xae;" horiz-adv-x="1600" d="M115 665q0 142 54 266.5t147 217.5t217.5 147t266.5 54t266.5 -54t217.5 -147t147 -217.5t54 -266.5t-54 -266.5t-147 -217.5t-217.5 -147t-266.5 -54t-266.5 54t-217.5 147t-147 217.5t-54 266.5zM288 665q0 -107 40 -200t109.5 -162.5t162.5 -109.5t200 -40 q106 0 199.5 40t163 109.5t109.5 162.5t40 200q0 106 -40 199.5t-109.5 163t-163 109.5t-199.5 40q-107 0 -200 -40t-162.5 -109.5t-109.5 -163t-40 -199.5zM514 1001h307q64 0 116.5 -14.5t89.5 -43t57.5 -71t20.5 -97.5q0 -61 -27.5 -108t-72.5 -79l123 -259h-266l-68 208 h-51v-208h-229v672zM743 839v-156h19q50 0 72 21.5t22 59.5t-21.5 56.5t-62.5 18.5h-29z" />
<glyph unicode="&#xaf;" horiz-adv-x="892" d="M115 1469h662v-237h-662v237z" />
<glyph unicode="&#xb0;" horiz-adv-x="607" d="M297 819q-59 0 -108 21t-84.5 56.5t-55 82.5t-19.5 99q0 56 20 105.5t56.5 86.5t88 58.5t115.5 21.5q59 0 108 -21t84.5 -56.5t55 -83t19.5 -99.5q0 -56 -19.5 -105.5t-56 -86.5t-88.5 -58t-116 -21zM307 1009q30 0 47.5 21t17.5 50q0 33 -18.5 56t-54.5 23 q-30 0 -47.5 -21t-17.5 -50q0 -33 19 -56t54 -23z" />
<glyph unicode="&#xb1;" horiz-adv-x="1214" d="M694 1280v-306h316v-237h-316v-325h-237v325h-317v237h317v306h237zM1010 20h-870v237h870v-237z" />
<glyph unicode="&#xb2;" horiz-adv-x="529" d="M22 927q55 29 98 52t72 43t44.5 39.5t15.5 42.5q0 24 -12.5 37.5t-37.5 13.5q-21 0 -41.5 -4t-39 -9t-33.5 -11t-24 -10l-44 173q9 7 31 16.5t51.5 18.5t65.5 15t74 6q65 0 112 -15.5t77 -42.5t44.5 -64t14.5 -80q0 -39 -14 -71t-40 -57.5t-62 -46t-79 -36.5h214v-186 h-487v176z" />
<glyph unicode="&#xb3;" horiz-adv-x="518" d="M249 1138q0 17 -15.5 29.5t-53.5 12.5q-34 0 -66 -8t-52 -18l-36 154q8 5 26 12t43.5 14t58 11.5t69.5 4.5q131 0 194 -46t63 -126q0 -27 -7.5 -46.5t-18 -34t-23 -24.5t-22.5 -17q11 -6 26.5 -16.5t29.5 -27t23.5 -39.5t9.5 -54q0 -95 -73.5 -141.5t-211.5 -46.5 q-29 0 -59 4t-56.5 9.5t-47 12t-30.5 12.5l36 157q16 -6 51.5 -15.5t83.5 -9.5q42 0 60.5 9.5t18.5 30.5q0 39 -53 39h-101v124h118q5 5 10 13.5t5 20.5z" />
<glyph unicode="&#xb4;" horiz-adv-x="860" d="M115 1298l507 275l123 -270l-561 -156z" />
<glyph unicode="&#xb6;" horiz-adv-x="1259" d="M711 143h328l-328 1v918h-134v-616q-124 0 -224 28.5t-170.5 85t-109 141t-38.5 195.5t38.5 193t109 135.5t170.5 79.5t224 26h622v-268h-160v-1030q0 -114 -29.5 -198t-83 -139.5t-128 -83t-165.5 -27.5q-108 0 -173.5 16.5t-90.5 28.5l42 247q19 -5 59 -12.5t100 -6.5 q72 1 106.5 36t34.5 110v140z" />
<glyph unicode="&#xb7;" horiz-adv-x="618" d="M130 504q0 95 51.5 141t136.5 46q75 0 122.5 -43.5t47.5 -125.5q0 -96 -51.5 -141.5t-136.5 -45.5q-75 0 -122.5 43.5t-47.5 125.5z" />
<glyph unicode="&#xb8;" horiz-adv-x="605" d="M102 -407q14 -4 31 -7t43 -3q49 0 78 18t29 57q0 40 -28.5 54.5t-76.5 14.5h-53l11 167h127q55 0 103.5 -13.5t85 -42t57.5 -71.5t21 -103q0 -69 -25 -116t-68 -75.5t-100 -41t-121 -12.5q-46 0 -81.5 6t-51.5 14z" />
<glyph unicode="&#xb9;" horiz-adv-x="566" d="M180 937v202q-11 -2 -29 -4.5t-37.5 -5t-38 -4.5t-31.5 -3l-19 185q30 4 64.5 9t70 10.5t71 11.5t66.5 12h115v-413l129 -4v-182h-512v182z" />
<glyph unicode="&#xba;" horiz-adv-x="693" d="M340 731q-70 0 -127.5 23.5t-98 64.5t-62.5 96.5t-22 118.5q0 69 22.5 127t64 100t101.5 65.5t135 23.5q70 0 127.5 -23.5t98 -64.5t62.5 -96.5t22 -119.5q0 -69 -22 -127t-64 -99.5t-102 -65t-135 -23.5zM349 928q40 0 55.5 31t15.5 78q0 25 -3.5 46t-12 36.5t-23.5 24 t-38 8.5q-20 0 -34 -8.5t-22 -23t-11.5 -34.5t-3.5 -43q0 -50 16 -82.5t61 -32.5z" />
<glyph unicode="&#xbb;" horiz-adv-x="1250" d="M529 159q61 90 143.5 180t167.5 174q-85 84 -167.5 174t-143.5 180l214 156q51 -68 107 -138t113 -136.5t112 -126.5t105 -109q-50 -49 -105 -109t-112 -126.5t-113 -136.5t-107 -138zM50 199q57 79 127.5 160t153.5 154q-83 73 -153.5 154t-127.5 160l214 156 q48 -62 101 -127t106 -126.5t104.5 -117t95.5 -99.5q-44 -44 -95.5 -99.5t-104.5 -117t-106 -126.5t-101 -127z" />
<glyph unicode="&#xbf;" horiz-adv-x="822" d="M625 475q0 -56 -31 -103.5t-85 -99.5q-26 -25 -53.5 -52.5t-50.5 -55t-38 -54.5t-15 -51q0 -60 38 -93.5t119 -33.5q40 0 78.5 6t71.5 14.5t57 17.5t36 15l60 -227q-22 -12 -55 -26.5t-77 -27.5t-100 -21.5t-123 -8.5q-101 0 -179.5 27.5t-132.5 75t-82 111.5t-28 138 q0 49 20.5 96t51 88t65.5 76.5t64 62.5q26 24 50 48.5t42 48.5t28 49t9 51l-2 31l228 17q4 -8 10 -17.5t11.5 -23t9 -32.5t3.5 -46zM287 857q0 95 51.5 141t136.5 46q75 0 122.5 -43.5t47.5 -125.5q0 -96 -51.5 -141.5t-136.5 -45.5q-75 0 -122.5 43.5t-47.5 125.5z" />
<glyph unicode="&#xc0;" horiz-adv-x="1341" d="M991 0l-97 279h-447l-97 -279h-350l519 1330h302l520 -1330h-350zM896 1447l-561 156l123 270l507 -275zM533 527h274l-132 381h-10z" />
<glyph unicode="&#xc1;" horiz-adv-x="1341" d="M365 1598l507 275l123 -270l-561 -156zM991 0l-97 279h-447l-97 -279h-350l519 1330h302l520 -1330h-350zM533 527h274l-132 381h-10z" />
<glyph unicode="&#xc2;" horiz-adv-x="1341" d="M991 0l-97 279h-447l-97 -279h-350l519 1330h302l520 -1330h-350zM533 527h274l-132 381h-10zM887 1425q-25 19 -54 43t-58.5 49t-56.5 49t-48 44q-21 -20 -48 -44t-56.5 -49t-58.5 -49t-54 -43l-159 190q38 25 84.5 57t96 66t99.5 69t96 68q46 -33 96 -68t99.5 -69 t96 -66t84.5 -57z" />
<glyph unicode="&#xc3;" horiz-adv-x="1341" d="M991 0l-97 279h-447l-97 -279h-350l519 1330h302l520 -1330h-350zM533 527h274l-132 381h-10zM278 1590q8 33 28.5 73t53.5 75t79 58.5t106 23.5q39 0 74 -12t66 -27t58.5 -27t50.5 -12q16 0 29 5.5t25.5 16.5t27 27.5t32.5 37.5l155 -110q-12 -40 -34.5 -81t-57.5 -74 t-82.5 -53.5t-108.5 -20.5q-32 0 -63.5 12t-61.5 27t-58 27t-53 12q-16 0 -28.5 -5.5t-25 -16.5t-26 -27.5t-31.5 -37.5z" />
<glyph unicode="&#xc4;" horiz-adv-x="1341" d="M991 0l-102 294h-437l-102 -294h-350l519 1330h302l520 -1330h-350zM263 1641q0 95 51.5 141t136.5 46q75 0 122.5 -43.5t47.5 -125.5q0 -96 -51.5 -141.5t-136.5 -45.5q-75 0 -122.5 43.5t-47.5 125.5zM719 1641q0 95 51.5 141t136.5 46q75 0 122.5 -43.5t47.5 -125.5 q0 -96 -51.5 -141.5t-136.5 -45.5q-75 0 -122.5 43.5t-47.5 125.5zM538 542h264l-127 366h-10z" />
<glyph unicode="&#xc5;" horiz-adv-x="1341" d="M991 0l-97 279h-447l-97 -279h-350l519 1330h302l520 -1330h-350zM409 1639q0 64 19.5 110.5t55.5 77.5t86 46t111 15q55 0 101 -14.5t79 -43.5t51.5 -71.5t18.5 -97.5q0 -64 -19.5 -111t-55.5 -77.5t-86 -45.5t-111 -15q-56 0 -102 14.5t-79 43.5t-51 71t-18 98z M533 527h274l-132 381h-10zM604 1647q0 -31 17 -47t46 -16q32 0 50.5 17t18.5 52q0 31 -17 47t-46 16q-32 0 -50.5 -17t-18.5 -52z" />
<glyph unicode="&#xc6;" horiz-adv-x="1919" d="M1001 279h-456l-206 -279h-349l981 1330h858v-268h-510v-262h480v-258h-480v-274h530v-268h-848v279zM728 527h273v370z" />
<glyph unicode="&#xc7;" horiz-adv-x="1156" d="M1116 73q-34 -20 -76.5 -37t-90.5 -29.5t-98 -19.5t-99 -7q-164 0 -293.5 46.5t-219 134t-137 214t-47.5 286.5q0 156 49 283.5t140 217.5t220 139t288 49q46 0 94 -5.5t93 -16t85 -25t69 -31.5l-69 -247q-131 52 -261 52q-86 0 -152 -27t-111 -78.5t-68.5 -126 t-23.5 -169.5q0 -96 24 -174.5t67.5 -133.5t105.5 -85t138 -30q73 0 149 15t145 47zM472 -407q14 -4 31 -7t43 -3q49 0 78 18t29 57q0 40 -28.5 54.5t-76.5 14.5h-53l11 167h127q55 0 103.5 -13.5t85 -42t57.5 -71.5t21 -103q0 -69 -25 -116t-68 -75.5t-100 -41t-121 -12.5 q-46 0 -81.5 6t-51.5 14z" />
<glyph unicode="&#xc8;" horiz-adv-x="1063" d="M115 1330h858v-268h-530v-262h500v-258h-500v-274h550v-268h-878v1330zM780 1447l-561 156l123 270l507 -275z" />
<glyph unicode="&#xc9;" horiz-adv-x="1063" d="M115 1330h858v-268h-530v-262h500v-258h-500v-274h550v-268h-878v1330zM259 1598l507 275l123 -270l-561 -156z" />
<glyph unicode="&#xca;" horiz-adv-x="1063" d="M115 1330h858v-268h-530v-262h500v-258h-500v-274h550v-268h-878v1330zM771 1425q-25 19 -54 43t-58.5 49t-56.5 49t-48 44q-21 -20 -48 -44t-56.5 -49t-58.5 -49t-54 -43l-159 190q38 25 84.5 57t96 66t99.5 69t96 68q46 -33 96 -68t99.5 -69t96 -66t84.5 -57z" />
<glyph unicode="&#xcb;" horiz-adv-x="1063" d="M115 1330h858v-268h-530v-262h500v-258h-500v-274h550v-268h-878v1330zM147 1641q0 95 51.5 141t136.5 46q75 0 122.5 -43.5t47.5 -125.5q0 -96 -51.5 -141.5t-136.5 -45.5q-75 0 -122.5 43.5t-47.5 125.5zM603 1641q0 95 51.5 141t136.5 46q75 0 122.5 -43.5 t47.5 -125.5q0 -96 -51.5 -141.5t-136.5 -45.5q-75 0 -122.5 43.5t-47.5 125.5z" />
<glyph unicode="&#xcc;" horiz-adv-x="558" d="M115 1330h328v-1330h-328v1330zM495 1447l-561 156l123 270l507 -275z" />
<glyph unicode="&#xcd;" horiz-adv-x="558" d="M115 1330h328v-1330h-328v1330zM-16 1598l507 275l123 -270l-561 -156z" />
<glyph unicode="&#xce;" horiz-adv-x="558" d="M115 1330h328v-1330h-328v1330zM496 1425q-25 19 -54 43t-58.5 49t-56.5 49t-48 44q-21 -20 -48 -44t-56.5 -49t-58.5 -49t-54 -43l-159 190q38 25 84.5 57t96 66t99.5 69t96 68q46 -33 96 -68t99.5 -69t96 -66t84.5 -57z" />
<glyph unicode="&#xcf;" horiz-adv-x="558" d="M115 1330h328v-1330h-328v1330zM308 1641q0 95 51.5 141t136.5 46q75 0 122.5 -43.5t47.5 -125.5q0 -96 -51.5 -141.5t-136.5 -45.5q-75 0 -122.5 43.5t-47.5 125.5zM-108 1641q0 95 51.5 141t136.5 46q75 0 122.5 -43.5t47.5 -125.5q0 -96 -51.5 -141.5t-136.5 -45.5 q-75 0 -122.5 43.5t-47.5 125.5z" />
<glyph unicode="&#xd0;" horiz-adv-x="1374" d="M-3 738h164v592h459q163 0 293 -45.5t220 -130.5t138 -206t48 -272q0 -159 -46 -284.5t-134 -212.5t-215.5 -133t-290.5 -46h-472v595h-164v143zM621 253q83 0 147.5 29.5t108.5 83.5t66.5 129t22.5 166q0 100 -23.5 178t-67 130.5t-105.5 80t-138 27.5h-143v-339h249 v-143h-249v-342h132z" />
<glyph unicode="&#xd1;" horiz-adv-x="1380" d="M438 809v-809h-323v1330h340l487 -810v810h323v-1330h-340zM288 1590q8 33 28.5 73t53.5 75t79 58.5t106 23.5q39 0 74 -12t66 -27t58.5 -27t50.5 -12q16 0 29 5.5t25.5 16.5t27 27.5t32.5 37.5l155 -110q-12 -40 -34.5 -81t-57.5 -74t-82.5 -53.5t-108.5 -20.5 q-32 0 -63.5 12t-61.5 27t-58 27t-53 12q-16 0 -28.5 -5.5t-25 -16.5t-26 -27.5t-31.5 -37.5z" />
<glyph unicode="&#xd2;" horiz-adv-x="1436" d="M723 238q66 0 122 27.5t96.5 80.5t63.5 130.5t23 177.5t-22 181t-63 138t-99 88t-131 31q-66 0 -122 -27.5t-96.5 -80.5t-63.5 -130.5t-23 -177.5q0 -101 22 -182t63 -138t99 -87.5t131 -30.5zM712 -20q-156 0 -278.5 48.5t-206.5 138t-128 215t-44 279.5q0 152 45.5 279 t132 218t210.5 141.5t281 50.5q156 0 278.5 -49t206.5 -138t128 -214.5t44 -279.5q0 -152 -46 -279t-132 -218t-210 -141.5t-281 -50.5zM954 1447l-561 156l123 270l507 -275z" />
<glyph unicode="&#xd3;" horiz-adv-x="1436" d="M723 238q66 0 122 27.5t96.5 80.5t63.5 130.5t23 177.5t-22 181t-63 138t-99 88t-131 31q-66 0 -122 -27.5t-96.5 -80.5t-63.5 -130.5t-23 -177.5q0 -101 22 -182t63 -138t99 -87.5t131 -30.5zM712 -20q-156 0 -278.5 48.5t-206.5 138t-128 215t-44 279.5q0 152 45.5 279 t132 218t210.5 141.5t281 50.5q156 0 278.5 -49t206.5 -138t128 -214.5t44 -279.5q0 -152 -46 -279t-132 -218t-210 -141.5t-281 -50.5zM403 1598l507 275l123 -270l-561 -156z" />
<glyph unicode="&#xd4;" horiz-adv-x="1436" d="M723 238q66 0 122 27.5t96.5 80.5t63.5 130.5t23 177.5t-22 181t-63 138t-99 88t-131 31q-66 0 -122 -27.5t-96.5 -80.5t-63.5 -130.5t-23 -177.5q0 -101 22 -182t63 -138t99 -87.5t131 -30.5zM712 -20q-156 0 -278.5 48.5t-206.5 138t-128 215t-44 279.5q0 152 45.5 279 t132 218t210.5 141.5t281 50.5q156 0 278.5 -49t206.5 -138t128 -214.5t44 -279.5q0 -152 -46 -279t-132 -218t-210 -141.5t-281 -50.5zM935 1425q-25 19 -54 43t-58.5 49t-56.5 49t-48 44q-21 -20 -48 -44t-56.5 -49t-58.5 -49t-54 -43l-159 190q38 25 84.5 57t96 66 t99.5 69t96 68q46 -33 96 -68t99.5 -69t96 -66t84.5 -57z" />
<glyph unicode="&#xd5;" horiz-adv-x="1436" d="M723 238q66 0 122 27.5t96.5 80.5t63.5 130.5t23 177.5t-22 181t-63 138t-99 88t-131 31q-66 0 -122 -27.5t-96.5 -80.5t-63.5 -130.5t-23 -177.5q0 -101 22 -182t63 -138t99 -87.5t131 -30.5zM712 -20q-156 0 -278.5 48.5t-206.5 138t-128 215t-44 279.5q0 152 45.5 279 t132 218t210.5 141.5t281 50.5q156 0 278.5 -49t206.5 -138t128 -214.5t44 -279.5q0 -152 -46 -279t-132 -218t-210 -141.5t-281 -50.5zM326 1590q8 33 28.5 73t53.5 75t79 58.5t106 23.5q39 0 74 -12t66 -27t58.5 -27t50.5 -12q16 0 29 5.5t25.5 16.5t27 27.5t32.5 37.5 l155 -110q-12 -40 -34.5 -81t-57.5 -74t-82.5 -53.5t-108.5 -20.5q-32 0 -63.5 12t-61.5 27t-58 27t-53 12q-16 0 -28.5 -5.5t-25 -16.5t-26 -27.5t-31.5 -37.5z" />
<glyph unicode="&#xd6;" horiz-adv-x="1436" d="M723 238q66 0 122 27.5t96.5 80.5t63.5 130.5t23 177.5t-22 181t-63 138t-99 88t-131 31q-66 0 -122 -27.5t-96.5 -80.5t-63.5 -130.5t-23 -177.5q0 -101 22 -182t63 -138t99 -87.5t131 -30.5zM712 -20q-156 0 -278.5 48.5t-206.5 138t-128 215t-44 279.5q0 152 45.5 279 t132 218t210.5 141.5t281 50.5q156 0 278.5 -49t206.5 -138t128 -214.5t44 -279.5q0 -152 -46 -279t-132 -218t-210 -141.5t-281 -50.5zM311 1641q0 95 51.5 141t136.5 46q75 0 122.5 -43.5t47.5 -125.5q0 -96 -51.5 -141.5t-136.5 -45.5q-75 0 -122.5 43.5t-47.5 125.5z M767 1641q0 95 51.5 141t136.5 46q75 0 122.5 -43.5t47.5 -125.5q0 -96 -51.5 -141.5t-136.5 -45.5q-75 0 -122.5 43.5t-47.5 125.5z" />
<glyph unicode="&#xd7;" horiz-adv-x="1140" d="M298 1120l273 -273l273 273l181 -182l-273 -273l273 -272l-182 -182l-273 272l-273 -273l-182 181l274 274l-273 273z" />
<glyph unicode="&#xd8;" horiz-adv-x="1436" d="M153 -92l131 206q-112 90 -170.5 229t-58.5 318q0 152 45.5 279t132 218t210.5 141.5t281 50.5q88 0 163.5 -15.5t141.5 -44.5l127 201l127 -69l-131 -207q112 -89 170.5 -228t58.5 -318q0 -152 -46 -279t-132 -218t-210 -141.5t-281 -50.5q-173 0 -305 59l-127 -200z M408 676q0 -83 14.5 -152t42.5 -123l407 643q-34 23 -73.5 35.5t-85.5 12.5q-66 0 -122 -27.5t-96.5 -80.5t-63.5 -130.5t-23 -177.5zM723 238q66 0 122 27.5t96.5 80.5t63.5 130.5t23 177.5q0 82 -15 151t-43 123l-407 -642q34 -23 74 -35.5t86 -12.5z" />
<glyph unicode="&#xd9;" horiz-adv-x="1290" d="M423 535q0 -83 16 -139.5t46 -91.5t71.5 -50.5t92.5 -15.5t91.5 15t68.5 48t43 85t15 126v818h328v-805q0 -129 -39 -230t-111.5 -171t-175.5 -107t-231 -37t-229 35.5t-171 105t-106.5 171t-36.5 233.5v805h328v-795zM876 1447l-561 156l123 270l507 -275z" />
<glyph unicode="&#xda;" horiz-adv-x="1290" d="M423 535q0 -83 16 -139.5t46 -91.5t71.5 -50.5t92.5 -15.5t91.5 15t68.5 48t43 85t15 126v818h328v-805q0 -129 -39 -230t-111.5 -171t-175.5 -107t-231 -37t-229 35.5t-171 105t-106.5 171t-36.5 233.5v805h328v-795zM335 1598l507 275l123 -270l-561 -156z" />
<glyph unicode="&#xdb;" horiz-adv-x="1290" d="M423 535q0 -83 16 -139.5t46 -91.5t71.5 -50.5t92.5 -15.5t91.5 15t68.5 48t43 85t15 126v818h328v-805q0 -129 -39 -230t-111.5 -171t-175.5 -107t-231 -37t-229 35.5t-171 105t-106.5 171t-36.5 233.5v805h328v-795zM867 1425q-25 19 -54 43t-58.5 49t-56.5 49t-48 44 q-21 -20 -48 -44t-56.5 -49t-58.5 -49t-54 -43l-159 190q38 25 84.5 57t96 66t99.5 69t96 68q46 -33 96 -68t99.5 -69t96 -66t84.5 -57z" />
<glyph unicode="&#xdc;" horiz-adv-x="1290" d="M423 535q0 -83 16 -139.5t46 -91.5t71.5 -50.5t92.5 -15.5t91.5 15t68.5 48t43 85t15 126v818h328v-805q0 -129 -39 -230t-111.5 -171t-175.5 -107t-231 -37t-229 35.5t-171 105t-106.5 171t-36.5 233.5v805h328v-795zM243 1641q0 95 51.5 141t136.5 46q75 0 122.5 -43.5 t47.5 -125.5q0 -96 -51.5 -141.5t-136.5 -45.5q-75 0 -122.5 43.5t-47.5 125.5zM699 1641q0 95 51.5 141t136.5 46q75 0 122.5 -43.5t47.5 -125.5q0 -96 -51.5 -141.5t-136.5 -45.5q-75 0 -122.5 43.5t-47.5 125.5z" />
<glyph unicode="&#xdd;" horiz-adv-x="1222" d="M447 494l-447 836h356l255 -527l255 527h356l-447 -836v-494h-328v494zM306 1598l507 275l123 -270l-561 -156z" />
<glyph unicode="&#xde;" horiz-adv-x="1134" d="M115 1330h328v-222h126q127 0 224 -25.5t163 -78t99.5 -132t33.5 -188.5q0 -114 -38.5 -200t-106 -144t-158.5 -87t-197 -29h-146v-224h-328v1330zM443 856v-379h116q97 0 142 52.5t45 141.5q0 91 -43.5 138t-123.5 47h-136z" />
<glyph unicode="&#xdf;" horiz-adv-x="1248" d="M443 0h-328v1043q0 89 31.5 168.5t96.5 139t165 94.5t237 35q120 0 210 -29t150.5 -77.5t91 -111.5t30.5 -131q0 -48 -15.5 -88t-39.5 -74t-53.5 -63.5t-57.5 -56.5q-44 -41 -66 -68.5t-22 -58.5q0 -17 13 -34t35.5 -35.5t52 -38.5t63.5 -44q40 -29 76.5 -57.5t64.5 -62 t44 -73.5t16 -92q0 -71 -27.5 -127.5t-80 -96t-127.5 -60.5t-170 -21q-113 0 -186 20.5t-115 44.5l43 236q21 -9 48 -18.5t57 -17t61.5 -12.5t60.5 -5q54 0 81.5 11.5t27.5 43.5q0 17 -13.5 33.5t-36.5 34t-53 37.5t-64 43q-39 27 -72 52.5t-56.5 55t-36.5 65.5t-13 85 q0 38 9 70.5t25 60.5t36 53.5t43 49.5q21 23 42.5 44.5t39 43.5t28 45.5t10.5 50.5q0 25 -11.5 46.5t-33.5 38t-54 26t-73 9.5q-83 0 -133.5 -53.5t-50.5 -146.5v-1027z" />
<glyph unicode="&#xe0;" horiz-adv-x="961" d="M836 284q0 -30 12 -43t33 -13q20 0 35.5 3.5t29.5 7.5l25 -224q-38 -16 -83 -25.5t-99 -9.5q-29 0 -57 4.5t-52.5 15t-45.5 28.5t-36 44q-54 -45 -117 -68.5t-126 -23.5q-75 0 -137 21t-106 59t-68 91.5t-24 118.5q0 85 36 146t102 98t160 49t210 -1v92q0 66 -32.5 96.5 t-108.5 30.5q-38 0 -75.5 -6t-73 -15t-66 -20t-52.5 -21l-58 230q28 15 69.5 32t90.5 31t102.5 23t105.5 9q198 0 302 -87t104 -252v-421zM324 301q0 -45 26 -68t70 -23q27 0 55 8t53 21v153q-100 17 -152 -8t-52 -83zM716 1147l-561 156l123 270l507 -275z" />
<glyph unicode="&#xe1;" horiz-adv-x="961" d="M836 284q0 -30 12 -43t33 -13q20 0 35.5 3.5t29.5 7.5l25 -224q-38 -16 -83 -25.5t-99 -9.5q-29 0 -57 4.5t-52.5 15t-45.5 28.5t-36 44q-54 -45 -117 -68.5t-126 -23.5q-75 0 -137 21t-106 59t-68 91.5t-24 118.5q0 85 36 146t102 98t160 49t210 -1v92q0 66 -32.5 96.5 t-108.5 30.5q-38 0 -75.5 -6t-73 -15t-66 -20t-52.5 -21l-58 230q28 15 69.5 32t90.5 31t102.5 23t105.5 9q198 0 302 -87t104 -252v-421zM324 301q0 -45 26 -68t70 -23q27 0 55 8t53 21v153q-100 17 -152 -8t-52 -83zM137 1298l507 275l123 -270l-561 -156z" />
<glyph unicode="&#xe2;" horiz-adv-x="961" d="M836 284q0 -30 12 -43t33 -13q20 0 35.5 3.5t29.5 7.5l25 -224q-38 -16 -83 -25.5t-99 -9.5q-29 0 -57 4.5t-52.5 15t-45.5 28.5t-36 44q-54 -45 -117 -68.5t-126 -23.5q-75 0 -137 21t-106 59t-68 91.5t-24 118.5q0 85 36 146t102 98t160 49t210 -1v92q0 66 -32.5 96.5 t-108.5 30.5q-38 0 -75.5 -6t-73 -15t-66 -20t-52.5 -21l-58 230q28 15 69.5 32t90.5 31t102.5 23t105.5 9q198 0 302 -87t104 -252v-421zM324 301q0 -45 26 -68t70 -23q27 0 55 8t53 21v153q-100 17 -152 -8t-52 -83zM670 1125q-25 19 -54 43t-58.5 49t-56.5 49t-48 44 q-21 -20 -48 -44t-56.5 -49t-58.5 -49t-54 -43l-159 190q38 25 84.5 57t96 66t99.5 69t96 68q46 -33 96 -68t99.5 -69t96 -66t84.5 -57z" />
<glyph unicode="&#xe3;" horiz-adv-x="961" d="M836 284q0 -30 12 -43t33 -13q20 0 35.5 3.5t29.5 7.5l25 -224q-38 -16 -83 -25.5t-99 -9.5q-29 0 -57 4.5t-52.5 15t-45.5 28.5t-36 44q-54 -45 -117 -68.5t-126 -23.5q-75 0 -137 21t-106 59t-68 91.5t-24 118.5q0 85 36 146t102 98t160 49t210 -1v92q0 66 -32.5 96.5 t-108.5 30.5q-38 0 -75.5 -6t-73 -15t-66 -20t-52.5 -21l-58 230q28 15 69.5 32t90.5 31t102.5 23t105.5 9q198 0 302 -87t104 -252v-421zM324 301q0 -45 26 -68t70 -23q27 0 55 8t53 21v153q-100 17 -152 -8t-52 -83zM40 1290q8 33 28.5 73t53.5 75t79 58.5t106 23.5 q39 0 74 -12t66 -27t58.5 -27t50.5 -12q16 0 29 5.5t25.5 16.5t27 27.5t32.5 37.5l155 -110q-12 -40 -34.5 -81t-57.5 -74t-82.5 -53.5t-108.5 -20.5q-32 0 -63.5 12t-61.5 27t-58 27t-53 12q-16 0 -28.5 -5.5t-25 -16.5t-26 -27.5t-31.5 -37.5z" />
<glyph unicode="&#xe4;" horiz-adv-x="961" d="M836 284q0 -30 12 -43t33 -13q20 0 35.5 3.5t29.5 7.5l25 -224q-38 -16 -83 -25.5t-99 -9.5q-29 0 -57 4.5t-52.5 15t-45.5 28.5t-36 44q-54 -45 -117 -68.5t-126 -23.5q-75 0 -137 21t-106 59t-68 91.5t-24 118.5q0 85 36 146t102 98t160 49t210 -1v92q0 66 -32.5 96.5 t-108.5 30.5q-38 0 -75.5 -6t-73 -15t-66 -20t-52.5 -21l-58 230q28 15 69.5 32t90.5 31t102.5 23t105.5 9q198 0 302 -87t104 -252v-421zM324 301q0 -45 26 -68t70 -23q27 0 55 8t53 21v153q-100 17 -152 -8t-52 -83zM73 1341q0 95 51.5 141t136.5 46q75 0 122.5 -43.5 t47.5 -125.5q0 -96 -51.5 -141.5t-136.5 -45.5q-75 0 -122.5 43.5t-47.5 125.5zM529 1341q0 95 51.5 141t136.5 46q75 0 122.5 -43.5t47.5 -125.5q0 -96 -51.5 -141.5t-136.5 -45.5q-75 0 -122.5 43.5t-47.5 125.5z" />
<glyph unicode="&#xe5;" horiz-adv-x="961" d="M836 284q0 -30 12 -43t33 -13q20 0 35.5 3.5t29.5 7.5l25 -224q-38 -16 -83 -25.5t-99 -9.5q-29 0 -57 4.5t-52.5 15t-45.5 28.5t-36 44q-54 -45 -117 -68.5t-126 -23.5q-75 0 -137 21t-106 59t-68 91.5t-24 118.5q0 85 36 146t102 98t160 49t210 -1v92q0 66 -32.5 96.5 t-108.5 30.5q-38 0 -75.5 -6t-73 -15t-66 -20t-52.5 -21l-58 230q28 15 69.5 32t90.5 31t102.5 23t105.5 9q198 0 302 -87t104 -252v-421zM324 301q0 -45 26 -68t70 -23q27 0 55 8t53 21v153q-100 17 -152 -8t-52 -83zM189 1339q0 64 19.5 110.5t55.5 77.5t86 46t111 15 q55 0 101 -14.5t79 -43.5t51.5 -71.5t18.5 -97.5q0 -64 -19.5 -111t-55.5 -77.5t-86 -45.5t-111 -15q-56 0 -102 14.5t-79 43.5t-51 71t-18 98zM384 1347q0 -31 17 -47t46 -16q32 0 50.5 17t18.5 52q0 31 -17 47t-46 16q-32 0 -50.5 -17t-18.5 -52z" />
<glyph unicode="&#xe6;" horiz-adv-x="1473" d="M846 436q11 -101 68.5 -147t156.5 -46q46 0 86.5 5.5t74 14t61.5 18t51 18.5l69 -232q-24 -12 -59.5 -27t-83 -28.5t-107.5 -22.5t-133 -9q-99 0 -185 35t-150 100q-36 -29 -77 -53.5t-85 -42.5t-90.5 -28.5t-92.5 -10.5q-72 0 -131.5 20t-102.5 59t-67 95.5t-24 130.5 q0 79 39 135.5t107 92t159.5 52t197.5 15.5v74q0 66 -33.5 96.5t-112.5 30.5q-38 0 -75.5 -6t-73 -15t-66 -20t-52.5 -21l-58 230q28 15 69.5 32t90.5 31t102.5 23t105.5 9q100 0 176 -26t128 -76q60 49 135.5 75.5t165.5 26.5q98 0 174 -28.5t128 -80t79 -122t27 -154.5 q0 -70 -8.5 -120t-22.5 -86zM1124 610q7 43 3 79t-19.5 62t-41 40.5t-61.5 14.5q-70 0 -109.5 -50t-46.5 -155zM329 311q0 -52 25 -76.5t61 -24.5q29 0 58 8t55 21v187q-102 3 -150.5 -27.5t-48.5 -87.5z" />
<glyph unicode="&#xe7;" horiz-adv-x="873" d="M373 518q0 -135 52 -205t165 -70q38 0 74 6t65.5 14t50.5 15.5t29 11.5l69 -232q-23 -14 -56.5 -27.5t-76.5 -25t-94.5 -18.5t-111.5 -7q-119 0 -212.5 38t-158 107t-99 165t-34.5 212q0 121 35.5 221t102.5 171.5t164.5 110.5t221.5 39q55 0 102.5 -7.5t86.5 -18.5 t68.5 -24t47.5 -23l-60 -237q-7 3 -27 10.5t-47.5 16t-61.5 14.5t-68 6q-114 0 -170.5 -68.5t-56.5 -194.5zM301 -407q14 -4 31 -7t43 -3q49 0 78 18t29 57q0 40 -28.5 54.5t-76.5 14.5h-53l11 167h127q55 0 103.5 -13.5t85 -42t57.5 -71.5t21 -103q0 -69 -25 -116 t-68 -75.5t-100 -41t-121 -12.5q-46 0 -81.5 6t-51.5 14z" />
<glyph unicode="&#xe8;" horiz-adv-x="997" d="M648 618q8 41 3.5 75.5t-20.5 59.5t-43 39t-64 14q-72 0 -112 -45.5t-49 -142.5h285zM360 445q10 -107 69.5 -154.5t160.5 -47.5q47 0 88 5.5t75.5 14t63 18t51.5 18.5l69 -232q-24 -12 -60 -27t-84 -28.5t-109 -22.5t-135 -9q-121 0 -216.5 38t-161.5 107t-101 165 t-35 212q0 121 35.5 221t101.5 171.5t161.5 110.5t215.5 39q99 0 176 -28.5t129.5 -80t80 -122t27.5 -154.5q0 -70 -8.5 -124t-22.5 -90h-571zM761 1147l-561 156l123 270l507 -275z" />
<glyph unicode="&#xe9;" horiz-adv-x="997" d="M648 618q8 41 3.5 75.5t-20.5 59.5t-43 39t-64 14q-72 0 -112 -45.5t-49 -142.5h285zM360 445q10 -107 69.5 -154.5t160.5 -47.5q47 0 88 5.5t75.5 14t63 18t51.5 18.5l69 -232q-24 -12 -60 -27t-84 -28.5t-109 -22.5t-135 -9q-121 0 -216.5 38t-161.5 107t-101 165 t-35 212q0 121 35.5 221t101.5 171.5t161.5 110.5t215.5 39q99 0 176 -28.5t129.5 -80t80 -122t27.5 -154.5q0 -70 -8.5 -124t-22.5 -90h-571zM210 1298l507 275l123 -270l-561 -156z" />
<glyph unicode="&#xea;" horiz-adv-x="997" d="M648 618q8 41 3.5 75.5t-20.5 59.5t-43 39t-64 14q-72 0 -112 -45.5t-49 -142.5h285zM360 445q10 -107 69.5 -154.5t160.5 -47.5q47 0 88 5.5t75.5 14t63 18t51.5 18.5l69 -232q-24 -12 -60 -27t-84 -28.5t-109 -22.5t-135 -9q-121 0 -216.5 38t-161.5 107t-101 165 t-35 212q0 121 35.5 221t101.5 171.5t161.5 110.5t215.5 39q99 0 176 -28.5t129.5 -80t80 -122t27.5 -154.5q0 -70 -8.5 -124t-22.5 -90h-571zM732 1125q-25 19 -54 43t-58.5 49t-56.5 49t-48 44q-21 -20 -48 -44t-56.5 -49t-58.5 -49t-54 -43l-159 190q38 25 84.5 57t96 66 t99.5 69t96 68q46 -33 96 -68t99.5 -69t96 -66t84.5 -57z" />
<glyph unicode="&#xeb;" horiz-adv-x="997" d="M648 618q8 41 3.5 75.5t-20.5 59.5t-43 39t-64 14q-72 0 -112 -45.5t-49 -142.5h285zM360 445q10 -107 69.5 -154.5t160.5 -47.5q47 0 88 5.5t75.5 14t63 18t51.5 18.5l69 -232q-24 -12 -60 -27t-84 -28.5t-109 -22.5t-135 -9q-121 0 -216.5 38t-161.5 107t-101 165 t-35 212q0 121 35.5 221t101.5 171.5t161.5 110.5t215.5 39q99 0 176 -28.5t129.5 -80t80 -122t27.5 -154.5q0 -70 -8.5 -124t-22.5 -90h-571zM108 1341q0 95 51.5 141t136.5 46q75 0 122.5 -43.5t47.5 -125.5q0 -96 -51.5 -141.5t-136.5 -45.5q-75 0 -122.5 43.5 t-47.5 125.5zM564 1341q0 95 51.5 141t136.5 46q75 0 122.5 -43.5t47.5 -125.5q0 -96 -51.5 -141.5t-136.5 -45.5q-75 0 -122.5 43.5t-47.5 125.5z" />
<glyph unicode="&#xec;" horiz-adv-x="558" d="M443 1024v-1024h-328v1024h328zM505 1147l-561 156l123 270l507 -275z" />
<glyph unicode="&#xed;" horiz-adv-x="558" d="M443 1024v-1024h-328v1024h328zM14 1298l507 275l123 -270l-561 -156z" />
<glyph unicode="&#xee;" horiz-adv-x="558" d="M443 1024v-1024h-328v1024h328zM496 1125q-25 19 -54 43t-58.5 49t-56.5 49t-48 44q-21 -20 -48 -44t-56.5 -49t-58.5 -49t-54 -43l-159 190q38 25 84.5 57t96 66t99.5 69t96 68q46 -33 96 -68t99.5 -69t96 -66t84.5 -57z" />
<glyph unicode="&#xef;" horiz-adv-x="558" d="M443 1024v-1024h-328v1024h328zM308 1341q0 95 51.5 141t136.5 46q75 0 122.5 -43.5t47.5 -125.5q0 -96 -51.5 -141.5t-136.5 -45.5q-75 0 -122.5 43.5t-47.5 125.5zM-108 1341q0 95 51.5 141t136.5 46q75 0 122.5 -43.5t47.5 -125.5q0 -96 -51.5 -141.5t-136.5 -45.5 q-75 0 -122.5 43.5t-47.5 125.5z" />
<glyph unicode="&#xf0;" horiz-adv-x="1136" d="M819 1532l-60 -111q94 -51 155.5 -137.5t97.5 -197t50 -237.5t14 -258q0 -147 -35.5 -261t-103 -192t-165.5 -118t-223 -40q-122 0 -217.5 38t-161.5 107t-100.5 165t-34.5 213q0 121 35 220.5t100.5 171t159.5 110.5t212 39q70 0 122 -25.5t90 -68.5q-33 164 -121 235 l-60 -112l-124 63l53 100q-7 1 -14 1.5t-15 0.5q-39 0 -76.5 -6t-68.5 -14.5t-54 -17t-34 -12.5l-60 222q15 7 47 19t75 23t95 19.5t107 8.5q65 0 122 -12l68 128zM738 599q-8 44 -22 82t-36.5 65.5t-54 43.5t-74.5 16q-50 0 -84 -21.5t-55 -60t-30 -91t-9 -115.5 q0 -67 9.5 -122.5t31.5 -95t57.5 -61t88.5 -21.5q52 0 86 20t54.5 57.5t29 91t8.5 119.5v93z" />
<glyph unicode="&#xf1;" horiz-adv-x="1166" d="M379 1024l33 -101q15 15 42.5 36t65 39.5t84.5 32t103 13.5q178 0 268.5 -89t90.5 -281v-674h-328v623q0 81 -30 117t-101 36q-20 0 -42.5 -4.5t-45 -12t-42.5 -18t-34 -21.5v-720h-328v1024h264zM179 1290q8 33 28.5 73t53.5 75t79 58.5t106 23.5q39 0 74 -12t66 -27 t58.5 -27t50.5 -12q16 0 29 5.5t25.5 16.5t27 27.5t32.5 37.5l155 -110q-12 -40 -34.5 -81t-57.5 -74t-82.5 -53.5t-108.5 -20.5q-32 0 -63.5 12t-61.5 27t-58 27t-53 12q-16 0 -28.5 -5.5t-25 -16.5t-26 -27.5t-31.5 -37.5z" />
<glyph unicode="&#xf2;" horiz-adv-x="1111" d="M549 -20q-122 0 -217.5 38t-161.5 107t-100.5 165t-34.5 213q0 121 35.5 220.5t103 171t165.5 110.5t223 39q122 0 217.5 -38t161.5 -107t100.5 -165t34.5 -213q0 -121 -35.5 -220.5t-103 -171t-165.5 -110.5t-223 -39zM560 218q49 0 83 21.5t55 60t30.5 91t9.5 115.5 q0 67 -9.5 122.5t-31.5 95t-58 61t-88 21.5q-50 0 -84 -21.5t-55 -60t-30 -91t-9 -115.5q0 -67 9.5 -122.5t31.5 -95t57.5 -61t88.5 -21.5zM791 1147l-561 156l123 270l507 -275z" />
<glyph unicode="&#xf3;" horiz-adv-x="1111" d="M549 -20q-122 0 -217.5 38t-161.5 107t-100.5 165t-34.5 213q0 121 35.5 220.5t103 171t165.5 110.5t223 39q122 0 217.5 -38t161.5 -107t100.5 -165t34.5 -213q0 -121 -35.5 -220.5t-103 -171t-165.5 -110.5t-223 -39zM560 218q49 0 83 21.5t55 60t30.5 91t9.5 115.5 q0 67 -9.5 122.5t-31.5 95t-58 61t-88 21.5q-50 0 -84 -21.5t-55 -60t-30 -91t-9 -115.5q0 -67 9.5 -122.5t31.5 -95t57.5 -61t88.5 -21.5zM240 1298l507 275l123 -270l-561 -156z" />
<glyph unicode="&#xf4;" horiz-adv-x="1111" d="M549 -20q-122 0 -217.5 38t-161.5 107t-100.5 165t-34.5 213q0 121 35.5 220.5t103 171t165.5 110.5t223 39q122 0 217.5 -38t161.5 -107t100.5 -165t34.5 -213q0 -121 -35.5 -220.5t-103 -171t-165.5 -110.5t-223 -39zM560 218q49 0 83 21.5t55 60t30.5 91t9.5 115.5 q0 67 -9.5 122.5t-31.5 95t-58 61t-88 21.5q-50 0 -84 -21.5t-55 -60t-30 -91t-9 -115.5q0 -67 9.5 -122.5t31.5 -95t57.5 -61t88.5 -21.5zM772 1125q-25 19 -54 43t-58.5 49t-56.5 49t-48 44q-21 -20 -48 -44t-56.5 -49t-58.5 -49t-54 -43l-159 190q38 25 84.5 57t96 66 t99.5 69t96 68q46 -33 96 -68t99.5 -69t96 -66t84.5 -57z" />
<glyph unicode="&#xf5;" horiz-adv-x="1111" d="M549 -20q-122 0 -217.5 38t-161.5 107t-100.5 165t-34.5 213q0 121 35.5 220.5t103 171t165.5 110.5t223 39q122 0 217.5 -38t161.5 -107t100.5 -165t34.5 -213q0 -121 -35.5 -220.5t-103 -171t-165.5 -110.5t-223 -39zM560 218q49 0 83 21.5t55 60t30.5 91t9.5 115.5 q0 67 -9.5 122.5t-31.5 95t-58 61t-88 21.5q-50 0 -84 -21.5t-55 -60t-30 -91t-9 -115.5q0 -67 9.5 -122.5t31.5 -95t57.5 -61t88.5 -21.5zM163 1290q8 33 28.5 73t53.5 75t79 58.5t106 23.5q39 0 74 -12t66 -27t58.5 -27t50.5 -12q16 0 29 5.5t25.5 16.5t27 27.5t32.5 37.5 l155 -110q-12 -40 -34.5 -81t-57.5 -74t-82.5 -53.5t-108.5 -20.5q-32 0 -63.5 12t-61.5 27t-58 27t-53 12q-16 0 -28.5 -5.5t-25 -16.5t-26 -27.5t-31.5 -37.5z" />
<glyph unicode="&#xf6;" horiz-adv-x="1111" d="M549 -20q-122 0 -217.5 38t-161.5 107t-100.5 165t-34.5 213q0 121 35.5 220.5t103 171t165.5 110.5t223 39q122 0 217.5 -38t161.5 -107t100.5 -165t34.5 -213q0 -121 -35.5 -220.5t-103 -171t-165.5 -110.5t-223 -39zM560 218q49 0 83 21.5t55 60t30.5 91t9.5 115.5 q0 67 -9.5 122.5t-31.5 95t-58 61t-88 21.5q-50 0 -84 -21.5t-55 -60t-30 -91t-9 -115.5q0 -67 9.5 -122.5t31.5 -95t57.5 -61t88.5 -21.5zM148 1341q0 95 51.5 141t136.5 46q75 0 122.5 -43.5t47.5 -125.5q0 -96 -51.5 -141.5t-136.5 -45.5q-75 0 -122.5 43.5t-47.5 125.5z M604 1341q0 95 51.5 141t136.5 46q75 0 122.5 -43.5t47.5 -125.5q0 -96 -51.5 -141.5t-136.5 -45.5q-75 0 -122.5 43.5t-47.5 125.5z" />
<glyph unicode="&#xf7;" horiz-adv-x="1151" d="M130 783h891v-237h-891v237zM396 1023q0 95 51.5 141t136.5 46q75 0 122.5 -43.5t47.5 -125.5q0 -96 -51.5 -141.5t-136.5 -45.5q-75 0 -122.5 43.5t-47.5 125.5zM396 286q0 95 51.5 141t136.5 46q75 0 122.5 -43.5t47.5 -125.5q0 -96 -51.5 -141.5t-136.5 -45.5 q-75 0 -122.5 43.5t-47.5 125.5z" />
<glyph unicode="&#xf8;" horiz-adv-x="1111" d="M549 -20q-65 0 -122 11t-107 31l-120 -189l-115 61l124 195q-85 69 -129.5 174.5t-44.5 239.5q0 121 35.5 220.5t103 171t165.5 110.5t223 39q64 0 121 -11t106 -31l121 190l115 -61l-124 -195q85 -69 130 -175t45 -240q0 -121 -35.5 -220.5t-103 -171t-165.5 -110.5 t-223 -39zM560 218q49 0 83 21.5t55 60t30.5 91t9.5 115.5q0 86 -16 149l-260 -410q39 -27 98 -27zM373 518q0 -42 3.5 -79t11.5 -69l259 409q-19 13 -43 20t-53 7q-50 0 -84 -21.5t-55 -60t-30 -91t-9 -115.5z" />
<glyph unicode="&#xf9;" horiz-adv-x="1156" d="M777 0l-33 101q-15 -17 -41.5 -37.5t-63.5 -39.5t-84 -31.5t-101 -12.5q-176 0 -265 89t-89 281v674h328v-623q0 -81 29 -117t97 -36q38 0 83 16.5t76 39.5v720h328v-1024h-264zM796 1147l-561 156l123 270l507 -275z" />
<glyph unicode="&#xfa;" horiz-adv-x="1156" d="M777 0l-33 101q-15 -17 -41.5 -37.5t-63.5 -39.5t-84 -31.5t-101 -12.5q-176 0 -265 89t-89 281v674h328v-623q0 -81 29 -117t97 -36q38 0 83 16.5t76 39.5v720h328v-1024h-264zM255 1298l507 275l123 -270l-561 -156z" />
<glyph unicode="&#xfb;" horiz-adv-x="1156" d="M777 0l-33 101q-15 -17 -41.5 -37.5t-63.5 -39.5t-84 -31.5t-101 -12.5q-176 0 -265 89t-89 281v674h328v-623q0 -81 29 -117t97 -36q38 0 83 16.5t76 39.5v720h328v-1024h-264zM787 1125q-25 19 -54 43t-58.5 49t-56.5 49t-48 44q-21 -20 -48 -44t-56.5 -49t-58.5 -49 t-54 -43l-159 190q38 25 84.5 57t96 66t99.5 69t96 68q46 -33 96 -68t99.5 -69t96 -66t84.5 -57z" />
<glyph unicode="&#xfc;" horiz-adv-x="1156" d="M777 0l-33 101q-15 -17 -41.5 -37.5t-63.5 -39.5t-84 -31.5t-101 -12.5q-176 0 -265 89t-89 281v674h328v-623q0 -81 29 -117t97 -36q38 0 83 16.5t76 39.5v720h328v-1024h-264zM163 1341q0 95 51.5 141t136.5 46q75 0 122.5 -43.5t47.5 -125.5q0 -96 -51.5 -141.5 t-136.5 -45.5q-75 0 -122.5 43.5t-47.5 125.5zM619 1341q0 95 51.5 141t136.5 46q75 0 122.5 -43.5t47.5 -125.5q0 -96 -51.5 -141.5t-136.5 -45.5q-75 0 -122.5 43.5t-47.5 125.5z" />
<glyph unicode="&#xfd;" horiz-adv-x="1114" d="M1104 1024l-327 -1044q-33 -105 -80 -180t-110 -123t-142.5 -70.5t-176.5 -22.5q-38 0 -74.5 5t-68.5 12t-58.5 15.5t-43.5 16.5l48 234q17 -6 62.5 -18t112.5 -12q61 0 106 31t58 99l-49 93l-361 964h363l205 -700h10l168 700h358zM252 1298l507 275l123 -270l-561 -156 z" />
<glyph unicode="&#xfe;" horiz-adv-x="1130" d="M115 -396v1855l328 21v-525q10 10 32.5 25t54 29.5t71 24.5t83.5 10q98 0 174.5 -38t129 -107t80 -165t27.5 -213q0 -121 -34 -220.5t-97 -171t-152.5 -110.5t-201.5 -39q-51 0 -93 12t-74 29v-417h-328zM757 506q0 63 -11 114.5t-33.5 88t-57 57t-80.5 20.5 q-18 0 -37 -4t-37 -10.5t-33.5 -14.5t-24.5 -16v-478q17 -11 49 -23t78 -12q47 0 82 21t58.5 58t35 88t11.5 111z" />
<glyph unicode="&#xff;" horiz-adv-x="1114" d="M1104 1024l-327 -1044q-33 -105 -80 -180t-110 -123t-142.5 -70.5t-176.5 -22.5q-38 0 -74.5 5t-68.5 12t-58.5 15.5t-43.5 16.5l48 234q17 -6 62.5 -18t112.5 -12q61 0 106 31t58 99l-49 93l-361 964h363l205 -700h10l168 700h358zM140 1341q0 95 51.5 141t136.5 46 q75 0 122.5 -43.5t47.5 -125.5q0 -96 -51.5 -141.5t-136.5 -45.5q-75 0 -122.5 43.5t-47.5 125.5zM596 1341q0 95 51.5 141t136.5 46q75 0 122.5 -43.5t47.5 -125.5q0 -96 -51.5 -141.5t-136.5 -45.5q-75 0 -122.5 43.5t-47.5 125.5z" />
<glyph unicode="&#x100;" horiz-adv-x="1341" d="M991 0l-102 294h-437l-102 -294h-350l519 1330h302l520 -1330h-350zM339 1775h662v-237h-662v237zM538 542h264l-127 366h-10z" />
<glyph unicode="&#x101;" horiz-adv-x="961" d="M836 284q0 -30 12 -43t33 -13q20 0 35.5 3.5t29.5 7.5l25 -224q-38 -16 -83 -25.5t-99 -9.5q-29 0 -57 4.5t-52.5 15t-45.5 28.5t-36 44q-54 -45 -117 -68.5t-126 -23.5q-75 0 -137 21t-106 59t-68 91.5t-24 118.5q0 85 36 146t102 98t160 49t210 -1v92q0 66 -32.5 96.5 t-108.5 30.5q-38 0 -75.5 -6t-73 -15t-66 -20t-52.5 -21l-58 230q28 15 69.5 32t90.5 31t102.5 23t105.5 9q198 0 302 -87t104 -252v-421zM324 301q0 -45 26 -68t70 -23q27 0 55 8t53 21v153q-100 17 -152 -8t-52 -83zM129 1469h662v-237h-662v237z" />
<glyph unicode="&#x102;" horiz-adv-x="1341" d="M991 0l-97 279h-447l-97 -279h-350l519 1330h302l520 -1330h-350zM591 1821q-4 -32 -2.5 -61t10.5 -50.5t26.5 -34.5t44.5 -13t44.5 13t26.5 34.5t10.5 50.5t-2.5 61h223q15 -108 -9.5 -179.5t-71 -113.5t-106 -59t-115.5 -17t-115.5 17t-106 59t-71 113.5t-9.5 179.5 h223zM533 527h274l-132 381h-10z" />
<glyph unicode="&#x103;" horiz-adv-x="961" d="M836 284q0 -30 12 -43t33 -13q20 0 35.5 3.5t29.5 7.5l25 -224q-38 -16 -83 -25.5t-99 -9.5q-29 0 -57 4.5t-52.5 15t-45.5 28.5t-36 44q-54 -45 -117 -68.5t-126 -23.5q-75 0 -137 21t-106 59t-68 91.5t-24 118.5q0 85 36 146t102 98t160 49t210 -1v92q0 66 -32.5 96.5 t-108.5 30.5q-38 0 -75.5 -6t-73 -15t-66 -20t-52.5 -21l-58 230q28 15 69.5 32t90.5 31t102.5 23t105.5 9q198 0 302 -87t104 -252v-421zM324 301q0 -45 26 -68t70 -23q27 0 55 8t53 21v153q-100 17 -152 -8t-52 -83zM371 1515q-4 -32 -2.5 -61t10.5 -50.5t26.5 -34.5 t44.5 -13t44.5 13t26.5 34.5t10.5 50.5t-2.5 61h223q15 -108 -9.5 -179.5t-71 -113.5t-106 -59t-115.5 -17t-115.5 17t-106 59t-71 113.5t-9.5 179.5h223z" />
<glyph unicode="&#x104;" horiz-adv-x="1341" d="M1215 0q-39 -34 -67.5 -79.5t-28.5 -92.5q0 -51 26.5 -73t67.5 -22q39 0 72.5 11.5t56.5 22.5l50 -207q-12 -10 -35.5 -21t-54 -20t-66 -15t-72.5 -6q-57 0 -112.5 12.5t-100 43t-71.5 81.5t-27 128q0 38 14 73.5t35 66.5t45 56t44 41l-97 279h-447l-97 -279h-350 l519 1330h302l520 -1330h-126zM533 527h274l-132 381h-10z" />
<glyph unicode="&#x105;" horiz-adv-x="961" d="M836 284q0 -30 12 -43t33 -13q20 0 35.5 3.5t29.5 7.5l25 -224q-22 -9 -43 -15q-39 -34 -67 -79.5t-28 -92.5q0 -51 26.5 -73t67.5 -22q39 0 72.5 11.5t56.5 22.5l50 -207q-12 -10 -35.5 -21t-54 -20t-66 -15t-72.5 -6q-57 0 -112.5 12.5t-100 43t-71.5 81.5t-27 128 q0 36 13 70t32.5 64t42 54.5t42.5 41.5q-31 10 -56.5 29t-42.5 50q-54 -45 -117 -68.5t-126 -23.5q-75 0 -137 21t-106 59t-68 91.5t-24 118.5q0 85 36 146t102 98t160 49t210 -1v92q0 66 -32.5 96.5t-108.5 30.5q-38 0 -75.5 -6t-73 -15t-66 -20t-52.5 -21l-58 230 q28 15 69.5 32t90.5 31t102.5 23t105.5 9q198 0 302 -87t104 -252v-421zM324 301q0 -45 26 -68t70 -23q27 0 55 8t53 21v153q-100 17 -152 -8t-52 -83z" />
<glyph unicode="&#x106;" horiz-adv-x="1156" d="M1116 73q-34 -20 -76.5 -37t-90.5 -29.5t-98 -19.5t-99 -7q-164 0 -293.5 46.5t-219 134t-137 214t-47.5 286.5q0 156 49 283.5t140 217.5t220 139t288 49q46 0 94 -5.5t93 -16t85 -25t69 -31.5l-69 -247q-131 52 -261 52q-86 0 -152 -27t-111 -78.5t-68.5 -126 t-23.5 -169.5q0 -96 24 -174.5t67.5 -133.5t105.5 -85t138 -30q73 0 149 15t145 47zM375 1598l507 275l123 -270l-561 -156z" />
<glyph unicode="&#x107;" horiz-adv-x="873" d="M373 518q0 -135 52 -205t165 -70q38 0 74 6t65.5 14t50.5 15.5t29 11.5l69 -232q-23 -14 -56.5 -27.5t-76.5 -25t-94.5 -18.5t-111.5 -7q-119 0 -212.5 38t-158 107t-99 165t-34.5 212q0 121 35.5 221t102.5 171.5t164.5 110.5t221.5 39q55 0 102.5 -7.5t86.5 -18.5 t68.5 -24t47.5 -23l-60 -237q-7 3 -27 10.5t-47.5 16t-61.5 14.5t-68 6q-114 0 -170.5 -68.5t-56.5 -194.5zM205 1298l507 275l123 -270l-561 -156z" />
<glyph unicode="&#x108;" horiz-adv-x="1156" d="M1116 73q-34 -20 -76.5 -37t-90.5 -29.5t-98 -19.5t-99 -7q-164 0 -293.5 46.5t-219 134t-137 214t-47.5 286.5q0 156 49 283.5t140 217.5t220 139t288 49q46 0 94 -5.5t93 -16t85 -25t69 -31.5l-69 -247q-131 52 -261 52q-86 0 -152 -27t-111 -78.5t-68.5 -126 t-23.5 -169.5q0 -96 24 -174.5t67.5 -133.5t105.5 -85t138 -30q73 0 149 15t145 47zM927 1425q-25 19 -54 43t-58.5 49t-56.5 49t-48 44q-21 -20 -48 -44t-56.5 -49t-58.5 -49t-54 -43l-159 190q38 25 84.5 57t96 66t99.5 69t96 68q46 -33 96 -68t99.5 -69t96 -66t84.5 -57z " />
<glyph unicode="&#x109;" horiz-adv-x="873" d="M373 518q0 -135 52 -205t165 -70q38 0 74 6t65.5 14t50.5 15.5t29 11.5l69 -232q-23 -14 -56.5 -27.5t-76.5 -25t-94.5 -18.5t-111.5 -7q-119 0 -212.5 38t-158 107t-99 165t-34.5 212q0 121 35.5 221t102.5 171.5t164.5 110.5t221.5 39q55 0 102.5 -7.5t86.5 -18.5 t68.5 -24t47.5 -23l-60 -237q-7 3 -27 10.5t-47.5 16t-61.5 14.5t-68 6q-114 0 -170.5 -68.5t-56.5 -194.5zM747 1125q-25 19 -54 43t-58.5 49t-56.5 49t-48 44q-21 -20 -48 -44t-56.5 -49t-58.5 -49t-54 -43l-159 190q38 25 84.5 57t96 66t99.5 69t96 68q46 -33 96 -68 t99.5 -69t96 -66t84.5 -57z" />
<glyph unicode="&#x10a;" horiz-adv-x="1156" d="M1116 73q-34 -20 -76.5 -37t-90.5 -29.5t-98 -19.5t-99 -7q-164 0 -293.5 46.5t-219 134t-137 214t-47.5 286.5q0 156 49 283.5t140 217.5t220 139t288 49q46 0 94 -5.5t93 -16t85 -25t69 -31.5l-69 -247q-131 52 -261 52q-86 0 -152 -27t-111 -78.5t-68.5 -126 t-23.5 -169.5q0 -96 24 -174.5t67.5 -133.5t105.5 -85t138 -30q73 0 149 15t145 47zM541 1641q0 95 51.5 141t136.5 46q75 0 122.5 -43.5t47.5 -125.5q0 -96 -51.5 -141.5t-136.5 -45.5q-75 0 -122.5 43.5t-47.5 125.5z" />
<glyph unicode="&#x10b;" horiz-adv-x="873" d="M373 518q0 -135 52 -205t165 -70q38 0 74 6t65.5 14t50.5 15.5t29 11.5l69 -232q-23 -14 -56.5 -27.5t-76.5 -25t-94.5 -18.5t-111.5 -7q-119 0 -212.5 38t-158 107t-99 165t-34.5 212q0 121 35.5 221t102.5 171.5t164.5 110.5t221.5 39q55 0 102.5 -7.5t86.5 -18.5 t68.5 -24t47.5 -23l-60 -237q-7 3 -27 10.5t-47.5 16t-61.5 14.5t-68 6q-114 0 -170.5 -68.5t-56.5 -194.5zM361 1341q0 95 51.5 141t136.5 46q75 0 122.5 -43.5t47.5 -125.5q0 -96 -51.5 -141.5t-136.5 -45.5q-75 0 -122.5 43.5t-47.5 125.5z" />
<glyph unicode="&#x10c;" horiz-adv-x="1156" d="M1116 73q-34 -20 -76.5 -37t-90.5 -29.5t-98 -19.5t-99 -7q-164 0 -293.5 46.5t-219 134t-137 214t-47.5 286.5q0 156 49 283.5t140 217.5t220 139t288 49q46 0 94 -5.5t93 -16t85 -25t69 -31.5l-69 -247q-131 52 -261 52q-86 0 -152 -27t-111 -78.5t-68.5 -126 t-23.5 -169.5q0 -96 24 -174.5t67.5 -133.5t105.5 -85t138 -30q73 0 149 15t145 47zM485 1893q31 -19 64 -44.5t64.5 -53.5t59 -55.5t47.5 -51.5q20 24 47.5 51.5t59 55.5t64.5 53.5t64 44.5l143 -198q-47 -28 -100 -63t-104 -72.5t-96 -76.5t-78 -75q-33 36 -78 75 t-96 76.5t-104 72.5t-100 63z" />
<glyph unicode="&#x10d;" horiz-adv-x="873" d="M373 518q0 -135 52 -205t165 -70q38 0 74 6t65.5 14t50.5 15.5t29 11.5l69 -232q-23 -14 -56.5 -27.5t-76.5 -25t-94.5 -18.5t-111.5 -7q-119 0 -212.5 38t-158 107t-99 165t-34.5 212q0 121 35.5 221t102.5 171.5t164.5 110.5t221.5 39q55 0 102.5 -7.5t86.5 -18.5 t68.5 -24t47.5 -23l-60 -237q-7 3 -27 10.5t-47.5 16t-61.5 14.5t-68 6q-114 0 -170.5 -68.5t-56.5 -194.5zM295 1593q31 -19 64 -44.5t64.5 -53.5t59 -55.5t47.5 -51.5q20 24 47.5 51.5t59 55.5t64.5 53.5t64 44.5l143 -198q-47 -28 -100 -63t-104 -72.5t-96 -76.5t-78 -75 q-33 36 -78 75t-96 76.5t-104 72.5t-100 63z" />
<glyph unicode="&#x10e;" horiz-adv-x="1328" d="M115 0v1330h459q163 0 293 -45.5t220 -130.5t138 -206t48 -272q0 -159 -46 -284.5t-134 -212.5t-215.5 -133t-290.5 -46h-472zM575 253q83 0 147.5 29.5t108.5 83.5t66.5 129t22.5 166q0 100 -23.5 178t-67 130.5t-105.5 80t-138 27.5h-143v-824h132zM367 1893 q31 -19 64 -44.5t64.5 -53.5t59 -55.5t47.5 -51.5q20 24 47.5 51.5t59 55.5t64.5 53.5t64 44.5l143 -198q-47 -28 -100 -63t-104 -72.5t-96 -76.5t-78 -75q-33 36 -78 75t-96 76.5t-104 72.5t-100 63z" />
<glyph unicode="&#x10f;" horiz-adv-x="1380" d="M1020 1480v-1480h-264l-32 98l-32 -29q-10 -10 -32.5 -25t-54 -29.5t-71 -24.5t-83.5 -10q-99 0 -176.5 38t-130.5 107t-81 165t-28 213q0 121 34 220.5t98 171t154.5 110.5t203.5 39q51 0 93 -12t74 -29v456zM692 760q-17 12 -49.5 24t-77.5 12q-48 0 -84 -21t-60 -58 t-36 -88t-12 -111q0 -63 11.5 -114.5t34.5 -88t58 -57t83 -20.5q18 0 37 4t37 10.5t33.5 14.5t24.5 16v477zM1180 1299q0 35 -8 63.5t-20 51t-27 39.5t-29 30l217 69q16 -14 35 -34t35 -48.5t26.5 -65t10.5 -82.5q0 -55 -20 -103t-49.5 -86t-63.5 -66t-63 -44l-125 104 q12 10 26.5 26t26.5 37t20 48t8 61z" />
<glyph unicode="&#x110;" horiz-adv-x="1373" d="M-3 738h163v592h459q163 0 293 -45.5t220 -130.5t138 -206t48 -272q0 -159 -46 -284.5t-134 -212.5t-215.5 -133t-290.5 -46h-472v595h-163v143zM620 253q83 0 147.5 29.5t108.5 83.5t66.5 129t22.5 166q0 100 -23.5 178t-67 130.5t-105.5 80t-138 27.5h-143v-339h250 v-143h-250v-342h132z" />
<glyph unicode="&#x111;" horiz-adv-x="1135" d="M1020 1480v-174h130v-123h-130v-1183h-264l-32 98l-32 -29q-10 -10 -32.5 -25t-54 -29.5t-71 -24.5t-83.5 -10q-99 0 -176.5 38t-130.5 107t-81 165t-28 213q0 121 34 220.5t98 171t154.5 110.5t203.5 39q51 0 93 -12t74 -29v180h-250v123h250v153zM692 760 q-17 12 -49.5 24t-77.5 12q-48 0 -84 -21t-60 -58t-36 -88t-12 -111q0 -63 11.5 -114.5t34.5 -88t58 -57t83 -20.5q18 0 37 4t37 10.5t33.5 14.5t24.5 16v477z" />
<glyph unicode="&#x112;" horiz-adv-x="1063" d="M115 1330h858v-268h-530v-262h500v-258h-500v-274h550v-268h-878v1330zM200 1775h662v-237h-662v237z" />
<glyph unicode="&#x113;" horiz-adv-x="997" d="M648 618q8 41 3.5 75.5t-20.5 59.5t-43 39t-64 14q-72 0 -112 -45.5t-49 -142.5h285zM360 445q10 -107 69.5 -154.5t160.5 -47.5q47 0 88 5.5t75.5 14t63 18t51.5 18.5l69 -232q-24 -12 -60 -27t-84 -28.5t-109 -22.5t-135 -9q-121 0 -216.5 38t-161.5 107t-101 165 t-35 212q0 121 35.5 221t101.5 171.5t161.5 110.5t215.5 39q99 0 176 -28.5t129.5 -80t80 -122t27.5 -154.5q0 -70 -8.5 -124t-22.5 -90h-571zM187 1469h662v-237h-662v237z" />
<glyph unicode="&#x114;" horiz-adv-x="1063" d="M115 1330h858v-268h-530v-262h500v-258h-500v-274h550v-268h-878v1330zM492 1821q-4 -32 -2.5 -61t10.5 -50.5t26.5 -34.5t44.5 -13t44.5 13t26.5 34.5t10.5 50.5t-2.5 61h223q15 -108 -9.5 -179.5t-71 -113.5t-106 -59t-115.5 -17t-115.5 17t-106 59t-71 113.5 t-9.5 179.5h223z" />
<glyph unicode="&#x115;" horiz-adv-x="997" d="M648 618q8 41 3.5 75.5t-20.5 59.5t-43 39t-64 14q-72 0 -112 -45.5t-49 -142.5h285zM360 445q10 -107 69.5 -154.5t160.5 -47.5q47 0 88 5.5t75.5 14t63 18t51.5 18.5l69 -232q-24 -12 -60 -27t-84 -28.5t-109 -22.5t-135 -9q-121 0 -216.5 38t-161.5 107t-101 165 t-35 212q0 121 35.5 221t101.5 171.5t161.5 110.5t215.5 39q99 0 176 -28.5t129.5 -80t80 -122t27.5 -154.5q0 -70 -8.5 -124t-22.5 -90h-571zM449 1515q-4 -32 -2.5 -61t10.5 -50.5t26.5 -34.5t44.5 -13t44.5 13t26.5 34.5t10.5 50.5t-2.5 61h223q15 -108 -9.5 -179.5 t-71 -113.5t-106 -59t-115.5 -17t-115.5 17t-106 59t-71 113.5t-9.5 179.5h223z" />
<glyph unicode="&#x116;" horiz-adv-x="1063" d="M115 1330h858v-268h-530v-262h500v-258h-500v-274h550v-268h-878v1330zM385 1641q0 95 51.5 141t136.5 46q75 0 122.5 -43.5t47.5 -125.5q0 -96 -51.5 -141.5t-136.5 -45.5q-75 0 -122.5 43.5t-47.5 125.5z" />
<glyph unicode="&#x117;" horiz-adv-x="997" d="M648 618q8 41 3.5 75.5t-20.5 59.5t-43 39t-64 14q-72 0 -112 -45.5t-49 -142.5h285zM360 445q10 -107 69.5 -154.5t160.5 -47.5q47 0 88 5.5t75.5 14t63 18t51.5 18.5l69 -232q-24 -12 -60 -27t-84 -28.5t-109 -22.5t-135 -9q-121 0 -216.5 38t-161.5 107t-101 165 t-35 212q0 121 35.5 221t101.5 171.5t161.5 110.5t215.5 39q99 0 176 -28.5t129.5 -80t80 -122t27.5 -154.5q0 -70 -8.5 -124t-22.5 -90h-571zM336 1341q0 95 51.5 141t136.5 46q75 0 122.5 -43.5t47.5 -125.5q0 -96 -51.5 -141.5t-136.5 -45.5q-75 0 -122.5 43.5 t-47.5 125.5z" />
<glyph unicode="&#x118;" horiz-adv-x="1063" d="M115 1330h858v-268h-530v-262h500v-258h-500v-274h550v-268h-1q-39 -34 -67.5 -79.5t-28.5 -92.5q0 -51 26.5 -73t67.5 -22q39 0 72.5 11.5t56.5 22.5l50 -207q-12 -10 -35.5 -21t-54 -20t-66 -15t-72.5 -6q-57 0 -112.5 12.5t-100 43t-71.5 81.5t-27 128q0 38 14 73.5 t35 66.5t45 56t44 41h-653v1330z" />
<glyph unicode="&#x119;" horiz-adv-x="997" d="M360 445q10 -107 69.5 -154.5t160.5 -47.5q47 0 88 5.5t75.5 14t63 18t51.5 18.5l69 -232q-30 -15 -77.5 -34t-113.5 -33q-39 -34 -67.5 -79.5t-28.5 -92.5q0 -51 26.5 -73t67.5 -22q39 0 72.5 11.5t56.5 22.5l50 -207q-12 -10 -35.5 -21t-54 -20t-66 -15t-72.5 -6 q-57 0 -112.5 12.5t-100 43t-71.5 81.5t-27 128q0 33 11 64.5t28 60t37.5 52.5t40.5 42q-110 7 -196.5 47.5t-146.5 109t-91.5 160.5t-31.5 203q0 121 35.5 221t101.5 171.5t161.5 110.5t215.5 39q99 0 176 -28.5t129.5 -80t80 -122t27.5 -154.5q0 -70 -8.5 -124t-22.5 -90 h-571zM648 618q8 41 3.5 75.5t-20.5 59.5t-43 39t-64 14q-72 0 -112 -45.5t-49 -142.5h285z" />
<glyph unicode="&#x11a;" horiz-adv-x="1063" d="M115 1330h858v-268h-530v-262h500v-258h-500v-274h550v-268h-878v1330zM324 1893q31 -19 64 -44.5t64.5 -53.5t59 -55.5t47.5 -51.5q20 24 47.5 51.5t59 55.5t64.5 53.5t64 44.5l143 -198q-47 -28 -100 -63t-104 -72.5t-96 -76.5t-78 -75q-33 36 -78 75t-96 76.5 t-104 72.5t-100 63z" />
<glyph unicode="&#x11b;" horiz-adv-x="997" d="M648 618q8 41 3.5 75.5t-20.5 59.5t-43 39t-64 14q-72 0 -112 -45.5t-49 -142.5h285zM360 445q10 -107 69.5 -154.5t160.5 -47.5q47 0 88 5.5t75.5 14t63 18t51.5 18.5l69 -232q-24 -12 -60 -27t-84 -28.5t-109 -22.5t-135 -9q-121 0 -216.5 38t-161.5 107t-101 165 t-35 212q0 121 35.5 221t101.5 171.5t161.5 110.5t215.5 39q99 0 176 -28.5t129.5 -80t80 -122t27.5 -154.5q0 -70 -8.5 -124t-22.5 -90h-571zM280 1593q31 -19 64 -44.5t64.5 -53.5t59 -55.5t47.5 -51.5q20 24 47.5 51.5t59 55.5t64.5 53.5t64 44.5l143 -198 q-47 -28 -100 -63t-104 -72.5t-96 -76.5t-78 -75q-33 36 -78 75t-96 76.5t-104 72.5t-100 63z" />
<glyph unicode="&#x11c;" horiz-adv-x="1301" d="M1206 112q-85 -63 -200 -97.5t-244 -34.5q-166 0 -297.5 46.5t-222.5 134t-139 214t-48 286.5q0 156 51 283.5t145 217.5t227.5 139t298.5 49q48 0 98.5 -5.5t97.5 -16t88.5 -25t71.5 -31.5l-69 -247q-138 52 -276 52q-91 0 -162 -27t-119.5 -78.5t-73.5 -126t-25 -169.5 q0 -96 24.5 -174.5t69.5 -133.5t109 -85t142 -30q42 0 80.5 5t73.5 14v250h-221v243h520v-653zM967 1431q-25 19 -54 43t-58.5 49t-56.5 49t-48 44q-21 -20 -48 -44t-56.5 -49t-58.5 -49t-54 -43l-159 190q38 25 84.5 57t96 66t99.5 69t96 68q46 -33 96 -68t99.5 -69t96 -66 t84.5 -57z" />
<glyph unicode="&#x11d;" horiz-adv-x="1047" d="M428 302q-15 -14 -25.5 -30.5t-11.5 -30.5q-5 -39 46 -39h233q78 0 141 -19t107 -56.5t68 -93t24 -128.5q0 -77 -42.5 -140t-116.5 -107.5t-174 -69t-216 -24.5q-226 0 -336 57.5t-110 173.5q0 42 14 76.5t37.5 61.5t53.5 47.5t62 36.5q-9 7 -20 17.5t-20.5 25.5 t-16 35.5t-6.5 47.5q0 25 10 51.5t28 52t43 48.5t54 41q-105 41 -160.5 125t-55.5 205q0 88 29 158.5t84 119t134.5 74.5t180.5 26q159 0 261 -64q43 24 87 38.5t84 20.5t73.5 4.5t55.5 -8.5v-239q-17 2 -37.5 3.5t-42 2t-42.5 0.5t-38 -1q17 -57 17 -122q0 -88 -29 -158 t-84 -118.5t-134.5 -74.5t-180.5 -26h-28zM675 1125q-25 19 -54 43t-58.5 49t-56.5 49t-48 44q-21 -20 -48 -44t-56.5 -49t-58.5 -49t-54 -43l-159 190q38 25 84.5 57t96 66t99.5 69t96 68q46 -33 96 -68t99.5 -69t96 -66t84.5 -57zM465 504q33 0 55.5 12.5t37 34.5t20.5 52 t6 65q0 39 -6.5 71t-21.5 54.5t-39 35t-60 12.5q-33 0 -56 -12.5t-37 -34t-20 -51.5t-6 -66q0 -39 6.5 -70.5t21.5 -54.5t39 -35.5t60 -12.5zM500 -212q100 0 156 25.5t56 78.5q0 28 -20 44.5t-61 16.5h-287q-7 -6 -15 -14.5t-15.5 -19.5t-12.5 -23.5t-5 -26.5q0 -43 52 -62 t152 -19z" />
<glyph unicode="&#x11e;" horiz-adv-x="1301" d="M1206 112q-85 -63 -200 -97.5t-244 -34.5q-166 0 -297.5 46.5t-222.5 134t-139 214t-48 286.5q0 156 51 283.5t145 217.5t227.5 139t298.5 49q48 0 98.5 -5.5t97.5 -16t88.5 -25t71.5 -31.5l-69 -247q-138 52 -276 52q-91 0 -162 -27t-119.5 -78.5t-73.5 -126t-25 -169.5 q0 -96 24.5 -174.5t69.5 -133.5t109 -85t142 -30q42 0 80.5 5t73.5 14v250h-221v243h520v-653zM651 1821q-4 -32 -2.5 -61t10.5 -50.5t26.5 -34.5t44.5 -13t44.5 13t26.5 34.5t10.5 50.5t-2.5 61h223q15 -108 -9.5 -179.5t-71 -113.5t-106 -59t-115.5 -17t-115.5 17t-106 59 t-71 113.5t-9.5 179.5h223z" />
<glyph unicode="&#x11f;" horiz-adv-x="1047" d="M428 302q-15 -14 -25.5 -30.5t-11.5 -30.5q-5 -39 46 -39h233q78 0 141 -19t107 -56.5t68 -93t24 -128.5q0 -77 -42.5 -140t-116.5 -107.5t-174 -69t-216 -24.5q-226 0 -336 57.5t-110 173.5q0 42 14 76.5t37.5 61.5t53.5 47.5t62 36.5q-9 7 -20 17.5t-20.5 25.5 t-16 35.5t-6.5 47.5q0 25 10 51.5t28 52t43 48.5t54 41q-105 41 -160.5 125t-55.5 205q0 88 29 158.5t84 119t134.5 74.5t180.5 26q159 0 261 -64q43 24 87 38.5t84 20.5t73.5 4.5t55.5 -8.5v-239q-17 2 -37.5 3.5t-42 2t-42.5 0.5t-38 -1q17 -57 17 -122q0 -88 -29 -158 t-84 -118.5t-134.5 -74.5t-180.5 -26h-28zM465 504q33 0 55.5 12.5t37 34.5t20.5 52t6 65q0 39 -6.5 71t-21.5 54.5t-39 35t-60 12.5q-33 0 -56 -12.5t-37 -34t-20 -51.5t-6 -66q0 -39 6.5 -70.5t21.5 -54.5t39 -35.5t60 -12.5zM500 -212q100 0 156 25.5t56 78.5 q0 28 -20 44.5t-61 16.5h-287q-7 -6 -15 -14.5t-15.5 -19.5t-12.5 -23.5t-5 -26.5q0 -43 52 -62t152 -19zM384 1515q-4 -32 -2.5 -61t10.5 -50.5t26.5 -34.5t44.5 -13t44.5 13t26.5 34.5t10.5 50.5t-2.5 61h223q15 -108 -9.5 -179.5t-71 -113.5t-106 -59t-115.5 -17 t-115.5 17t-106 59t-71 113.5t-9.5 179.5h223z" />
<glyph unicode="&#x120;" horiz-adv-x="1301" d="M1206 112q-85 -63 -200 -97.5t-244 -34.5q-166 0 -297.5 46.5t-222.5 134t-139 214t-48 286.5q0 156 51 283.5t145 217.5t227.5 139t298.5 49q48 0 98.5 -5.5t97.5 -16t88.5 -25t71.5 -31.5l-69 -247q-138 52 -276 52q-91 0 -162 -27t-119.5 -78.5t-73.5 -126t-25 -169.5 q0 -96 24.5 -174.5t69.5 -133.5t109 -85t142 -30q42 0 80.5 5t73.5 14v250h-221v243h520v-653zM531 1647q0 95 51.5 141t136.5 46q75 0 122.5 -43.5t47.5 -125.5q0 -96 -51.5 -141.5t-136.5 -45.5q-75 0 -122.5 43.5t-47.5 125.5z" />
<glyph unicode="&#x121;" horiz-adv-x="1047" d="M428 302q-15 -14 -25.5 -30.5t-11.5 -30.5q-5 -39 46 -39h233q78 0 141 -19t107 -56.5t68 -93t24 -128.5q0 -77 -42.5 -140t-116.5 -107.5t-174 -69t-216 -24.5q-226 0 -336 57.5t-110 173.5q0 42 14 76.5t37.5 61.5t53.5 47.5t62 36.5q-9 7 -20 17.5t-20.5 25.5 t-16 35.5t-6.5 47.5q0 25 10 51.5t28 52t43 48.5t54 41q-105 41 -160.5 125t-55.5 205q0 88 29 158.5t84 119t134.5 74.5t180.5 26q159 0 261 -64q43 24 87 38.5t84 20.5t73.5 4.5t55.5 -8.5v-239q-17 2 -37.5 3.5t-42 2t-42.5 0.5t-38 -1q17 -57 17 -122q0 -88 -29 -158 t-84 -118.5t-134.5 -74.5t-180.5 -26h-28zM465 504q33 0 55.5 12.5t37 34.5t20.5 52t6 65q0 39 -6.5 71t-21.5 54.5t-39 35t-60 12.5q-33 0 -56 -12.5t-37 -34t-20 -51.5t-6 -66q0 -39 6.5 -70.5t21.5 -54.5t39 -35.5t60 -12.5zM500 -212q100 0 156 25.5t56 78.5 q0 28 -20 44.5t-61 16.5h-287q-7 -6 -15 -14.5t-15.5 -19.5t-12.5 -23.5t-5 -26.5q0 -43 52 -62t152 -19zM289 1341q0 95 51.5 141t136.5 46q75 0 122.5 -43.5t47.5 -125.5q0 -96 -51.5 -141.5t-136.5 -45.5q-75 0 -122.5 43.5t-47.5 125.5z" />
<glyph unicode="&#x122;" horiz-adv-x="1301" d="M1206 112q-85 -63 -200 -97.5t-244 -34.5q-166 0 -297.5 46.5t-222.5 134t-139 214t-48 286.5q0 156 51 283.5t145 217.5t227.5 139t298.5 49q48 0 98.5 -5.5t97.5 -16t88.5 -25t71.5 -31.5l-69 -247q-138 52 -276 52q-91 0 -162 -27t-119.5 -78.5t-73.5 -126t-25 -169.5 q0 -96 24.5 -174.5t69.5 -133.5t109 -85t142 -30q42 0 80.5 5t73.5 14v250h-221v243h520v-653zM634 -303q0 29 -9.5 54.5t-22.5 46t-26.5 35t-21.5 22.5l254 56q15 -12 34.5 -32.5t36.5 -48t28.5 -60.5t11.5 -69q0 -62 -27.5 -110t-77 -81.5t-118.5 -53.5t-151 -27l-52 151 q25 4 50 13.5t45.5 24t33 34t12.5 45.5z" />
<glyph unicode="&#x123;" horiz-adv-x="1047" d="M428 302q-15 -14 -25.5 -30.5t-11.5 -30.5q-5 -39 46 -39h233q78 0 141 -19t107 -56.5t68 -93t24 -128.5q0 -77 -42.5 -140t-116.5 -107.5t-174 -69t-216 -24.5q-226 0 -336 57.5t-110 173.5q0 42 14 76.5t37.5 61.5t53.5 47.5t62 36.5q-9 7 -20 17.5t-20.5 25.5 t-16 35.5t-6.5 47.5q0 25 10 51.5t28 52t43 48.5t54 41q-105 41 -160.5 125t-55.5 205q0 88 29 158.5t84 119t134.5 74.5t180.5 26q159 0 261 -64q43 24 87 38.5t84 20.5t73.5 4.5t55.5 -8.5v-239q-17 2 -37.5 3.5t-42 2t-42.5 0.5t-38 -1q17 -57 17 -122q0 -88 -29 -158 t-84 -118.5t-134.5 -74.5t-180.5 -26h-28zM465 504q33 0 55.5 12.5t37 34.5t20.5 52t6 65q0 39 -6.5 71t-21.5 54.5t-39 35t-60 12.5q-33 0 -56 -12.5t-37 -34t-20 -51.5t-6 -66q0 -39 6.5 -70.5t21.5 -54.5t39 -35.5t60 -12.5zM500 -212q100 0 156 25.5t56 78.5 q0 28 -20 44.5t-61 16.5h-287q-7 -6 -15 -14.5t-15.5 -19.5t-12.5 -23.5t-5 -26.5q0 -43 52 -62t152 -19zM596 1334q0 -29 9.5 -54.5t22.5 -46t26.5 -35t21.5 -22.5l-254 -56q-15 12 -34.5 32.5t-36.5 48t-28.5 60.5t-11.5 69q0 62 27.5 110t77 81.5t118 53.5t151.5 27 l52 -151q-25 -4 -50 -13.5t-45.5 -24t-33 -34.5t-12.5 -45z" />
<glyph unicode="&#x124;" horiz-adv-x="1370" d="M927 537h-484v-537h-328v1330h328v-525h484v525h328v-1330h-328v537zM902 1431q-25 19 -54 43t-58.5 49t-56.5 49t-48 44q-21 -20 -48 -44t-56.5 -49t-58.5 -49t-54 -43l-159 190q38 25 84.5 57t96 66t99.5 69t96 68q46 -33 96 -68t99.5 -69t96 -66t84.5 -57z" />
<glyph unicode="&#x125;" horiz-adv-x="1166" d="M443 1480v-530q19 15 46 32t60.5 30.5t73 22.5t84.5 9q178 0 268.5 -89t90.5 -281v-674h-328v623q0 81 -30 117t-101 36q-20 0 -42.5 -4.5t-45 -12t-42.5 -18t-34 -21.5v-720h-328v1459zM509 1495q-25 19 -54 43t-58.5 49t-56.5 49t-48 44q-21 -20 -48 -44t-56.5 -49 t-58.5 -49t-54 -43l-159 190q38 25 84.5 57t96 66t99.5 69t96 68q46 -33 96 -68t99.5 -69t96 -66t84.5 -57z" />
<glyph unicode="&#x126;" horiz-adv-x="1370" d="M-24 1114h139v216h328v-216h484v216h328v-216h139v-143h-139v-971h-328v537h-484v-537h-328v971h-139v143zM927 805v166h-484v-166h484z" />
<glyph unicode="&#x127;" horiz-adv-x="1166" d="M443 1480v-174h250v-123h-250v-233q19 15 46 32t60.5 30.5t73 22.5t84.5 9q178 0 268.5 -89t90.5 -281v-674h-328v623q0 81 -30 117t-101 36q-20 0 -42.5 -4.5t-45 -12t-42.5 -18t-34 -21.5v-720h-328v1183h-130v123h130v153z" />
<glyph unicode="&#x128;" horiz-adv-x="558" d="M115 1330h328v-1330h-328v1330zM-113 1590q8 33 28.5 73t53.5 75t79 58.5t106 23.5q39 0 74 -12t66 -27t58.5 -27t50.5 -12q16 0 29 5.5t25.5 16.5t27 27.5t32.5 37.5l155 -110q-12 -40 -34.5 -81t-57.5 -74t-82.5 -53.5t-108.5 -20.5q-32 0 -63.5 12t-61.5 27t-58 27 t-53 12q-16 0 -28.5 -5.5t-25 -16.5t-26 -27.5t-31.5 -37.5z" />
<glyph unicode="&#x129;" horiz-adv-x="558" d="M443 1024v-1024h-328v1024h328zM-113 1290q8 33 28.5 73t53.5 75t79 58.5t106 23.5q39 0 74 -12t66 -27t58.5 -27t50.5 -12q16 0 29 5.5t25.5 16.5t27 27.5t32.5 37.5l155 -110q-12 -40 -34.5 -81t-57.5 -74t-82.5 -53.5t-108.5 -20.5q-32 0 -63.5 12t-61.5 27t-58 27 t-53 12q-16 0 -28.5 -5.5t-25 -16.5t-26 -27.5t-31.5 -37.5z" />
<glyph unicode="&#x12a;" horiz-adv-x="558" d="M115 1330h328v-1330h-328v1330zM-52 1775h662v-237h-662v237z" />
<glyph unicode="&#x12b;" horiz-adv-x="558" d="M-22 1469h602v-237h-602v237zM443 1024v-1024h-328v1024h328z" />
<glyph unicode="&#x12c;" horiz-adv-x="558" d="M115 1330h328v-1330h-328v1330zM200 1821q-4 -32 -2.5 -61t10.5 -50.5t26.5 -34.5t44.5 -13t44.5 13t26.5 34.5t10.5 50.5t-2.5 61h223q15 -108 -9.5 -179.5t-71 -113.5t-106 -59t-115.5 -17t-115.5 17t-106 59t-71 113.5t-9.5 179.5h223z" />
<glyph unicode="&#x12d;" horiz-adv-x="558" d="M443 1024v-1024h-328v1024h328zM200 1515q-4 -32 -2.5 -61t10.5 -50.5t26.5 -34.5t44.5 -13t44.5 13t26.5 34.5t10.5 50.5t-2.5 61h223q15 -108 -9.5 -179.5t-71 -113.5t-106 -59t-115.5 -17t-115.5 17t-106 59t-71 113.5t-9.5 179.5h223z" />
<glyph unicode="&#x12e;" horiz-adv-x="558" d="M115 1330h328v-1330h-104q-39 -34 -67.5 -79.5t-28.5 -92.5q0 -51 26.5 -73t67.5 -22q39 0 72.5 11.5t56.5 22.5l50 -207q-12 -10 -35.5 -21t-54 -20t-66 -15t-72.5 -6q-57 0 -112.5 12.5t-100 43t-71.5 81.5t-27 128q0 38 14 73.5t35 66.5t45 56t44 41v1330z" />
<glyph unicode="&#x12f;" horiz-adv-x="558" d="M443 1024v-1024h-104q-39 -34 -67.5 -79.5t-28.5 -92.5q0 -51 26.5 -73t67.5 -22q39 0 72.5 11.5t56.5 22.5l50 -207q-12 -10 -35.5 -21t-54 -20t-66 -15t-72.5 -6q-57 0 -112.5 12.5t-100 43t-71.5 81.5t-27 128q0 38 14 73.5t35 66.5t45 56t44 41v1024h328zM100 1341 q0 95 51.5 141t136.5 46q75 0 122.5 -43.5t47.5 -125.5q0 -96 -51.5 -141.5t-136.5 -45.5q-75 0 -122.5 43.5t-47.5 125.5z" />
<glyph unicode="&#x130;" horiz-adv-x="558" d="M115 1330h328v-1330h-328v1330zM100 1641q0 95 51.5 141t136.5 46q75 0 122.5 -43.5t47.5 -125.5q0 -96 -51.5 -141.5t-136.5 -45.5q-75 0 -122.5 43.5t-47.5 125.5z" />
<glyph unicode="&#x131;" horiz-adv-x="558" d="M443 1024v-1024h-328v1024h328z" />
<glyph unicode="&#x132;" horiz-adv-x="1343" d="M910 1330h328v-942q0 -111 -27.5 -188.5t-78 -126.5t-121.5 -71t-159 -22q-44 0 -83.5 5.5t-72 13.5t-57.5 18t-41 18l42 247q23 -9 61.5 -19t85.5 -10q62 0 92.5 29.5t30.5 96.5v951zM115 1330h328v-1330h-328v1330z" />
<glyph unicode="&#x133;" horiz-adv-x="1126" d="M443 1024v-1024h-328v1024h328zM100 1341q0 95 51.5 141t136.5 46q75 0 122.5 -43.5t47.5 -125.5q0 -96 -51.5 -141.5t-136.5 -45.5q-75 0 -122.5 43.5t-47.5 125.5zM1011 1024v-1037q0 -205 -101.5 -304t-299.5 -99q-69 0 -116 12t-79 27l38 234q17 -6 43 -13t62 -7 q64 0 94.5 30.5t30.5 100.5v1056h328zM668 1341q0 95 51.5 141t136.5 46q75 0 122.5 -43.5t47.5 -125.5q0 -96 -51.5 -141.5t-136.5 -45.5q-75 0 -122.5 43.5t-47.5 125.5z" />
<glyph unicode="&#x134;" horiz-adv-x="765" d="M332 1330h328v-942q0 -111 -27.5 -188.5t-78 -126.5t-121.5 -71t-159 -22q-44 0 -83.5 5.5t-72 13.5t-57.5 18t-41 18l42 247q23 -9 61.5 -19t85.5 -10q62 0 92.5 29.5t30.5 96.5v951zM715 1431q-25 19 -54 43t-58.5 49t-56.5 49t-48 44q-21 -20 -48 -44t-56.5 -49 t-58.5 -49t-54 -43l-159 190q38 25 84.5 57t96 66t99.5 69t96 68q46 -33 96 -68t99.5 -69t96 -66t84.5 -57z" />
<glyph unicode="&#x135;" horiz-adv-x="578" d="M463 1024v-1037q0 -205 -101.5 -304t-299.5 -99q-69 0 -116 12t-79 27l38 234q17 -6 43 -13t62 -7q64 0 94.5 30.5t30.5 100.5v1056h328zM506 1125q-25 19 -54 43t-58.5 49t-56.5 49t-48 44q-21 -20 -48 -44t-56.5 -49t-58.5 -49t-54 -43l-159 190q38 25 84.5 57t96 66 t99.5 69t96 68q46 -33 96 -68t99.5 -69t96 -66t84.5 -57z" />
<glyph unicode="&#x136;" horiz-adv-x="1259" d="M443 0h-328v1330h328v-601l415 601h366l-419 -602l434 -728h-382l-291 518l-123 -168v-350zM565 -303q0 29 -9.5 54.5t-22.5 46t-26.5 35t-21.5 22.5l254 56q15 -12 34.5 -32.5t36.5 -48t28.5 -60.5t11.5 -69q0 -62 -27.5 -110t-77 -81.5t-118.5 -53.5t-151 -27l-52 151 q25 4 50 13.5t45.5 24t33 34t12.5 45.5z" />
<glyph unicode="&#x137;" horiz-adv-x="1112" d="M443 1480v-866l297 410h352l-308 -422l328 -602h-365l-209 406l-95 -131v-275h-328v1459zM485 -303q0 29 -9.5 54.5t-22.5 46t-26.5 35t-21.5 22.5l254 56q15 -12 34.5 -32.5t36.5 -48t28.5 -60.5t11.5 -69q0 -62 -27.5 -110t-77 -81.5t-118.5 -53.5t-151 -27l-52 151 q25 4 50 13.5t45.5 24t33 34t12.5 45.5z" />
<glyph unicode="&#x138;" horiz-adv-x="1182" d="M443 1024v-410l297 410h352l-308 -422l328 -602h-365l-209 406l-95 -131v-275h-328v1024h328z" />
<glyph unicode="&#x139;" horiz-adv-x="993" d="M115 1330h328v-1062h540v-268h-868v1330zM15 1598l507 275l123 -270l-561 -156z" />
<glyph unicode="&#x13a;" horiz-adv-x="558" d="M443 1480v-1480h-328v1459zM-16 1667l507 275l123 -270l-561 -156z" />
<glyph unicode="&#x13b;" horiz-adv-x="993" d="M115 1330h328v-1062h540v-268h-868v1330zM493 -303q0 29 -9.5 54.5t-22.5 46t-26.5 35t-21.5 22.5l254 56q15 -12 34.5 -32.5t36.5 -48t28.5 -60.5t11.5 -69q0 -62 -27.5 -110t-77 -81.5t-118.5 -53.5t-151 -27l-52 151q25 4 50 13.5t45.5 24t33 34t12.5 45.5z" />
<glyph unicode="&#x13c;" horiz-adv-x="558" d="M443 1480v-1480h-328v1459zM196 -303q0 29 -9.5 54.5t-22.5 46t-26.5 35t-21.5 22.5l254 56q15 -12 34.5 -32.5t36.5 -48t28.5 -60.5t11.5 -69q0 -62 -27.5 -110t-77 -81.5t-118.5 -53.5t-151 -27l-52 151q25 4 50 13.5t45.5 24t33 34t12.5 45.5z" />
<glyph unicode="&#x13d;" horiz-adv-x="993" d="M115 1330h328v-1062h540v-268h-868v1330zM662 1172q0 29 -9.5 54.5t-22.5 46t-26.5 35t-21.5 22.5l254 56q15 -12 34.5 -32.5t36.5 -48t28.5 -60.5t11.5 -69q0 -62 -27.5 -110t-77 -81.5t-118.5 -53.5t-151 -27l-52 151q25 4 50 13.5t45.5 24t33 34t12.5 45.5z" />
<glyph unicode="&#x13e;" horiz-adv-x="803" d="M603 1299q0 35 -8 63.5t-20 51t-27 39.5t-29 30l217 69q16 -14 35 -34t35 -48.5t26.5 -65t10.5 -82.5q0 -55 -20 -103t-49.5 -86t-63.5 -66t-63 -44l-125 104q12 10 26.5 26t26.5 37t20 48t8 61zM443 1480v-1480h-328v1459z" />
<glyph unicode="&#x13f;" horiz-adv-x="993" d="M115 1330h328v-1062h540v-268h-868v1330zM583 719q0 95 51.5 141t136.5 46q75 0 122.5 -43.5t47.5 -125.5q0 -96 -51.5 -141.5t-136.5 -45.5q-75 0 -122.5 43.5t-47.5 125.5z" />
<glyph unicode="&#x140;" horiz-adv-x="831" d="M443 1480v-1480h-328v1459zM523 737q0 95 51.5 141t136.5 46q75 0 122.5 -43.5t47.5 -125.5q0 -96 -51.5 -141.5t-136.5 -45.5q-75 0 -122.5 43.5t-47.5 125.5z" />
<glyph unicode="&#x141;" horiz-adv-x="993" d="M-84 477l199 151v702h328v-453l220 167l87 -114l-307 -233v-429h540v-268h-868v448l-113 -85z" />
<glyph unicode="&#x142;" horiz-adv-x="558" d="M443 1480v-586l123 94l70 -91l-193 -146v-751h-328v502l-122 -92l-69 91l191 145v813z" />
<glyph unicode="&#x143;" horiz-adv-x="1380" d="M438 809v-809h-323v1330h340l487 -810v810h323v-1330h-340zM365 1598l507 275l123 -270l-561 -156z" />
<glyph unicode="&#x144;" horiz-adv-x="1166" d="M379 1024l33 -101q15 15 42.5 36t65 39.5t84.5 32t103 13.5q178 0 268.5 -89t90.5 -281v-674h-328v623q0 81 -30 117t-101 36q-20 0 -42.5 -4.5t-45 -12t-42.5 -18t-34 -21.5v-720h-328v1024h264zM276 1298l507 275l123 -270l-561 -156z" />
<glyph unicode="&#x145;" horiz-adv-x="1380" d="M438 809v-809h-323v1330h340l487 -810v810h323v-1330h-340zM617 -303q0 29 -9.5 54.5t-22.5 46t-26.5 35t-21.5 22.5l254 56q15 -12 34.5 -32.5t36.5 -48t28.5 -60.5t11.5 -69q0 -62 -27.5 -110t-77 -81.5t-118.5 -53.5t-151 -27l-52 151q25 4 50 13.5t45.5 24t33 34 t12.5 45.5z" />
<glyph unicode="&#x146;" horiz-adv-x="1166" d="M379 1024l33 -101q15 15 42.5 36t65 39.5t84.5 32t103 13.5q178 0 268.5 -89t90.5 -281v-674h-328v623q0 81 -30 117t-101 36q-20 0 -42.5 -4.5t-45 -12t-42.5 -18t-34 -21.5v-720h-328v1024h264zM510 -303q0 29 -9.5 54.5t-22.5 46t-26.5 35t-21.5 22.5l254 56 q15 -12 34.5 -32.5t36.5 -48t28.5 -60.5t11.5 -69q0 -62 -27.5 -110t-77 -81.5t-118.5 -53.5t-151 -27l-52 151q25 4 50 13.5t45.5 24t33 34t12.5 45.5z" />
<glyph unicode="&#x147;" horiz-adv-x="1380" d="M438 809v-809h-323v1330h340l487 -810v810h323v-1330h-340zM445 1893q31 -19 64 -44.5t64.5 -53.5t59 -55.5t47.5 -51.5q20 24 47.5 51.5t59 55.5t64.5 53.5t64 44.5l143 -198q-47 -28 -100 -63t-104 -72.5t-96 -76.5t-78 -75q-33 36 -78 75t-96 76.5t-104 72.5t-100 63z " />
<glyph unicode="&#x148;" horiz-adv-x="1166" d="M379 1024l33 -101q15 15 42.5 36t65 39.5t84.5 32t103 13.5q178 0 268.5 -89t90.5 -281v-674h-328v623q0 81 -30 117t-101 36q-20 0 -42.5 -4.5t-45 -12t-42.5 -18t-34 -21.5v-720h-328v1024h264zM356 1593q31 -19 64 -44.5t64.5 -53.5t59 -55.5t47.5 -51.5 q20 24 47.5 51.5t59 55.5t64.5 53.5t64 44.5l143 -198q-47 -28 -100 -63t-104 -72.5t-96 -76.5t-78 -75q-33 36 -78 75t-96 76.5t-104 72.5t-100 63z" />
<glyph unicode="&#x149;" horiz-adv-x="1342" d="M555 1024l33 -101q15 15 42.5 36t65 39.5t84.5 32t103 13.5q178 0 268.5 -89t90.5 -281v-674h-328v623q0 81 -30 117t-101 36q-20 0 -42.5 -4.5t-45 -12t-42.5 -18t-34 -21.5v-720h-328v1024h264zM22 1248q0 34 -6 67t-15 62t-20 53t-21 40l244 61q10 -14 23.5 -36 t25.5 -53t20 -71t8 -91q0 -55 -14.5 -106.5t-36 -94.5t-47 -75.5t-46.5 -50.5l-161 50q8 17 16 43t15 58t11 69t4 75z" />
<glyph unicode="&#x14a;" horiz-adv-x="1380" d="M937 39l-499 750v-789h-323v1330h340l487 -790v790h323v-1338q0 -111 -27.5 -188.5t-78 -126.5t-121.5 -71t-159 -22q-44 0 -83.5 5.5t-72 13.5t-57.5 18t-41 18l42 247q23 -9 61.5 -19t85.5 -10q62 0 92.5 29.5t30.5 96.5v56z" />
<glyph unicode="&#x14b;" horiz-adv-x="1181" d="M379 1024l33 -101q15 15 42.5 36t65 39.5t84.5 32t103 13.5q178 0 268.5 -89t90.5 -281v-687q0 -205 -101.5 -304t-299.5 -99q-69 0 -116 12t-79 27l38 234q17 -6 43 -13t62 -7q64 0 94.5 30.5t30.5 100.5v655q0 81 -30 117t-101 36q-20 0 -42.5 -4.5t-45 -12t-42.5 -18 t-34 -21.5v-720h-328v1024h264z" />
<glyph unicode="&#x14c;" horiz-adv-x="1436" d="M723 238q66 0 122 27.5t96.5 80.5t63.5 130.5t23 177.5t-22 181t-63 138t-99 88t-131 31q-66 0 -122 -27.5t-96.5 -80.5t-63.5 -130.5t-23 -177.5q0 -101 22 -182t63 -138t99 -87.5t131 -30.5zM712 -20q-156 0 -278.5 48.5t-206.5 138t-128 215t-44 279.5q0 152 45.5 279 t132 218t210.5 141.5t281 50.5q156 0 278.5 -49t206.5 -138t128 -214.5t44 -279.5q0 -152 -46 -279t-132 -218t-210 -141.5t-281 -50.5zM387 1775h662v-237h-662v237z" />
<glyph unicode="&#x14d;" horiz-adv-x="1111" d="M549 -20q-122 0 -217.5 38t-161.5 107t-100.5 165t-34.5 213q0 121 35.5 220.5t103 171t165.5 110.5t223 39q122 0 217.5 -38t161.5 -107t100.5 -165t34.5 -213q0 -121 -35.5 -220.5t-103 -171t-165.5 -110.5t-223 -39zM560 218q49 0 83 21.5t55 60t30.5 91t9.5 115.5 q0 67 -9.5 122.5t-31.5 95t-58 61t-88 21.5q-50 0 -84 -21.5t-55 -60t-30 -91t-9 -115.5q0 -67 9.5 -122.5t31.5 -95t57.5 -61t88.5 -21.5zM224 1469h662v-237h-662v237z" />
<glyph unicode="&#x14e;" horiz-adv-x="1436" d="M723 238q66 0 122 27.5t96.5 80.5t63.5 130.5t23 177.5t-22 181t-63 138t-99 88t-131 31q-66 0 -122 -27.5t-96.5 -80.5t-63.5 -130.5t-23 -177.5q0 -101 22 -182t63 -138t99 -87.5t131 -30.5zM712 -20q-156 0 -278.5 48.5t-206.5 138t-128 215t-44 279.5q0 152 45.5 279 t132 218t210.5 141.5t281 50.5q156 0 278.5 -49t206.5 -138t128 -214.5t44 -279.5q0 -152 -46 -279t-132 -218t-210 -141.5t-281 -50.5zM639 1821q-4 -32 -2.5 -61t10.5 -50.5t26.5 -34.5t44.5 -13t44.5 13t26.5 34.5t10.5 50.5t-2.5 61h223q15 -108 -9.5 -179.5t-71 -113.5 t-106 -59t-115.5 -17t-115.5 17t-106 59t-71 113.5t-9.5 179.5h223z" />
<glyph unicode="&#x14f;" horiz-adv-x="1111" d="M549 -20q-122 0 -217.5 38t-161.5 107t-100.5 165t-34.5 213q0 121 35.5 220.5t103 171t165.5 110.5t223 39q122 0 217.5 -38t161.5 -107t100.5 -165t34.5 -213q0 -121 -35.5 -220.5t-103 -171t-165.5 -110.5t-223 -39zM560 218q49 0 83 21.5t55 60t30.5 91t9.5 115.5 q0 67 -9.5 122.5t-31.5 95t-58 61t-88 21.5q-50 0 -84 -21.5t-55 -60t-30 -91t-9 -115.5q0 -67 9.5 -122.5t31.5 -95t57.5 -61t88.5 -21.5zM476 1515q-4 -32 -2.5 -61t10.5 -50.5t26.5 -34.5t44.5 -13t44.5 13t26.5 34.5t10.5 50.5t-2.5 61h223q15 -108 -9.5 -179.5 t-71 -113.5t-106 -59t-115.5 -17t-115.5 17t-106 59t-71 113.5t-9.5 179.5h223z" />
<glyph unicode="&#x150;" horiz-adv-x="1436" d="M723 238q66 0 122 27.5t96.5 80.5t63.5 130.5t23 177.5t-22 181t-63 138t-99 88t-131 31q-66 0 -122 -27.5t-96.5 -80.5t-63.5 -130.5t-23 -177.5q0 -101 22 -182t63 -138t99 -87.5t131 -30.5zM712 -20q-156 0 -278.5 48.5t-206.5 138t-128 215t-44 279.5q0 152 45.5 279 t132 218t210.5 141.5t281 50.5q156 0 278.5 -49t206.5 -138t128 -214.5t44 -279.5q0 -152 -46 -279t-132 -218t-210 -141.5t-281 -50.5zM384 1514l232 405l223 -137l-298 -361zM736 1524l232 405l223 -137l-298 -361z" />
<glyph unicode="&#x151;" horiz-adv-x="1111" d="M549 -20q-122 0 -217.5 38t-161.5 107t-100.5 165t-34.5 213q0 121 35.5 220.5t103 171t165.5 110.5t223 39q122 0 217.5 -38t161.5 -107t100.5 -165t34.5 -213q0 -121 -35.5 -220.5t-103 -171t-165.5 -110.5t-223 -39zM560 218q49 0 83 21.5t55 60t30.5 91t9.5 115.5 q0 67 -9.5 122.5t-31.5 95t-58 61t-88 21.5q-50 0 -84 -21.5t-55 -60t-30 -91t-9 -115.5q0 -67 9.5 -122.5t31.5 -95t57.5 -61t88.5 -21.5zM212 1208l232 405l223 -137l-298 -361zM564 1218l232 405l223 -137l-298 -361z" />
<glyph unicode="&#x152;" horiz-adv-x="1849" d="M724 1350q48 0 95.5 -5.5t92.5 -14.5h847v-268h-520v-262h490v-258h-490v-274h540v-268h-866q-45 -9 -95 -14.5t-106 -5.5q-156 0 -278.5 48.5t-206.5 138t-128 215t-44 279.5q0 152 45.5 279t132 218t210.5 141.5t281 50.5zM723 238q61 0 107.5 14t80.5 36v754 q-34 22 -82 36t-116 14q-70 0 -126.5 -27.5t-96 -80.5t-61 -130.5t-21.5 -177.5q0 -101 20.5 -182t60.5 -138t98.5 -87.5t135.5 -30.5z" />
<glyph unicode="&#x153;" horiz-adv-x="1588" d="M971 445q9 -107 66 -154.5t154 -47.5q45 0 84 5.5t72.5 14t61.5 18t50 18.5l69 -232q-23 -12 -58 -27t-82 -28.5t-106.5 -22.5t-131.5 -9q-92 0 -168 22.5t-137 65.5q-59 -43 -133 -65.5t-163 -22.5q-122 0 -217.5 38t-161.5 107t-100.5 165t-34.5 213q0 121 35.5 220.5 t103 171t165.5 110.5t223 39q87 0 159.5 -22.5t129.5 -64.5q60 42 134.5 64.5t164.5 22.5q97 0 172 -28.5t126.5 -80t78 -122t26.5 -154.5q0 -70 -8.5 -124t-22.5 -90h-551zM560 218q42 0 72.5 15.5t51.5 44.5q-38 100 -38 224q0 66 10 125.5t30 112.5q-22 32 -55 49t-80 17 q-50 0 -84 -21.5t-55 -60t-30 -91t-9 -115.5q0 -67 9.5 -122.5t31.5 -95t57.5 -61t88.5 -21.5zM1239 618q7 41 3 75.5t-18.5 59.5t-39.5 39t-59 14q-68 0 -105.5 -45.5t-45.5 -142.5h265z" />
<glyph unicode="&#x154;" horiz-adv-x="1196" d="M115 1330h444q261 0 400.5 -106t139.5 -330q0 -77 -22.5 -135t-56 -101.5t-72 -73.5t-69.5 -49l302 -535h-366l-242 462h-130v-462h-328v1330zM443 1068v-358h226q15 7 30.5 22.5t28 37.5t20.5 50t8 61q0 92 -49.5 139.5t-137.5 47.5h-126zM245 1598l507 275l123 -270 l-561 -156z" />
<glyph unicode="&#x155;" horiz-adv-x="760" d="M379 1024l41 -127q28 31 66 59.5t83 49t93.5 31t97.5 4.5v-294q-41 4 -85 -1t-86.5 -15.5t-80.5 -24.5t-65 -28v-678h-328v1024h264zM120 1298l507 275l123 -270l-561 -156z" />
<glyph unicode="&#x156;" horiz-adv-x="1196" d="M115 1330h444q261 0 400.5 -106t139.5 -330q0 -77 -22.5 -135t-56 -101.5t-72 -73.5t-69.5 -49l302 -535h-366l-242 462h-130v-462h-328v1330zM530 -303q0 29 -9.5 54.5t-22.5 46t-26.5 35t-21.5 22.5l254 56q15 -12 34.5 -32.5t36.5 -48t28.5 -60.5t11.5 -69 q0 -62 -27.5 -110t-77 -81.5t-118.5 -53.5t-151 -27l-52 151q25 4 50 13.5t45.5 24t33 34t12.5 45.5zM443 1068v-358h226q15 7 30.5 22.5t28 37.5t20.5 50t8 61q0 92 -49.5 139.5t-137.5 47.5h-126z" />
<glyph unicode="&#x157;" horiz-adv-x="760" d="M379 1024l41 -127q28 31 66 59.5t83 49t93.5 31t97.5 4.5v-294q-41 4 -85 -1t-86.5 -15.5t-80.5 -24.5t-65 -28v-678h-328v1024h264zM215 -303q0 29 -9.5 54.5t-22.5 46t-26.5 35t-21.5 22.5l254 56q15 -12 34.5 -32.5t36.5 -48t28.5 -60.5t11.5 -69q0 -62 -27.5 -110 t-77 -81.5t-118.5 -53.5t-151 -27l-52 151q25 4 50 13.5t45.5 24t33 34t12.5 45.5z" />
<glyph unicode="&#x158;" horiz-adv-x="1196" d="M115 1330h444q261 0 400.5 -106t139.5 -330q0 -77 -22.5 -135t-56 -101.5t-72 -73.5t-69.5 -49l302 -535h-366l-242 462h-130v-462h-328v1330zM315 1893q31 -19 64 -44.5t64.5 -53.5t59 -55.5t47.5 -51.5q20 24 47.5 51.5t59 55.5t64.5 53.5t64 44.5l143 -198 q-47 -28 -100 -63t-104 -72.5t-96 -76.5t-78 -75q-33 36 -78 75t-96 76.5t-104 72.5t-100 63zM443 1068v-358h226q15 7 30.5 22.5t28 37.5t20.5 50t8 61q0 92 -49.5 139.5t-137.5 47.5h-126z" />
<glyph unicode="&#x159;" horiz-adv-x="760" d="M379 1024l41 -127q28 31 66 59.5t83 49t93.5 31t97.5 4.5v-294q-41 4 -85 -1t-86.5 -15.5t-80.5 -24.5t-65 -28v-678h-328v1024h264zM220 1593q31 -19 64 -44.5t64.5 -53.5t59 -55.5t47.5 -51.5q20 24 47.5 51.5t59 55.5t64.5 53.5t64 44.5l143 -198q-47 -28 -100 -63 t-104 -72.5t-96 -76.5t-78 -75q-33 36 -78 75t-96 76.5t-104 72.5t-100 63z" />
<glyph unicode="&#x15a;" horiz-adv-x="1095" d="M162 345q18 -9 54 -23t81.5 -27t96.5 -22.5t99 -9.5q97 0 140.5 20.5t43.5 65.5q0 22 -6.5 39.5t-21 33.5t-38.5 31t-59 32l-173 77q-65 29 -117 65t-88 82t-55.5 104.5t-19.5 133.5q0 91 37.5 165t103 127t155 82t193.5 29q82 0 146.5 -12t113.5 -28.5t83.5 -34.5 t56.5 -30l-60 -262q-26 13 -62.5 27.5t-78 26.5t-86 20t-87.5 8q-48 0 -80.5 -8.5t-52.5 -23t-29 -33t-10 -39.5q-1 -25 6.5 -43.5t21.5 -32.5t33 -25.5t42 -21.5l194 -90q76 -36 130 -75t88.5 -85t51 -101t16.5 -122q0 -93 -35 -164.5t-102 -120.5t-164.5 -74.5 t-222.5 -25.5q-62 0 -124.5 8.5t-117.5 23t-99 32.5t-70 36zM268 1598l507 275l123 -270l-561 -156z" />
<glyph unicode="&#x15b;" horiz-adv-x="896" d="M128 294q24 -11 57.5 -23t70.5 -21.5t75.5 -15.5t73.5 -6q60 0 94.5 11.5t34.5 43.5q0 18 -11.5 31.5t-30.5 24t-44 19.5t-51 18l-70 25q-136 49 -197 124t-61 184q0 76 28 138t80 105.5t126 67.5t166 24q37 0 79.5 -3t87.5 -11t90.5 -22.5t89.5 -36.5l-50 -237 q-28 10 -62.5 21t-71 20t-73.5 15t-70 6q-18 0 -38 -2.5t-36.5 -9.5t-27.5 -19.5t-11 -32.5q0 -18 9 -31.5t26.5 -25t44.5 -23t63 -25.5l78 -30q124 -47 184 -119t60 -186q0 -71 -24.5 -128.5t-75 -98.5t-126.5 -63t-179 -22q-124 0 -216.5 23.5t-154.5 54.5zM132 1298 l507 275l123 -270l-561 -156z" />
<glyph unicode="&#x15c;" horiz-adv-x="1095" d="M162 345q18 -9 54 -23t81.5 -27t96.5 -22.5t99 -9.5q97 0 140.5 20.5t43.5 65.5q0 22 -6.5 39.5t-21 33.5t-38.5 31t-59 32l-173 77q-65 29 -117 65t-88 82t-55.5 104.5t-19.5 133.5q0 91 37.5 165t103 127t155 82t193.5 29q82 0 146.5 -12t113.5 -28.5t83.5 -34.5 t56.5 -30l-60 -262q-26 13 -62.5 27.5t-78 26.5t-86 20t-87.5 8q-48 0 -80.5 -8.5t-52.5 -23t-29 -33t-10 -39.5q-1 -25 6.5 -43.5t21.5 -32.5t33 -25.5t42 -21.5l194 -90q76 -36 130 -75t88.5 -85t51 -101t16.5 -122q0 -93 -35 -164.5t-102 -120.5t-164.5 -74.5 t-222.5 -25.5q-62 0 -124.5 8.5t-117.5 23t-99 32.5t-70 36zM790 1425q-25 19 -54 43t-58.5 49t-56.5 49t-48 44q-21 -20 -48 -44t-56.5 -49t-58.5 -49t-54 -43l-159 190q38 25 84.5 57t96 66t99.5 69t96 68q46 -33 96 -68t99.5 -69t96 -66t84.5 -57z" />
<glyph unicode="&#x15d;" horiz-adv-x="896" d="M128 294q24 -11 57.5 -23t70.5 -21.5t75.5 -15.5t73.5 -6q60 0 94.5 11.5t34.5 43.5q0 18 -11.5 31.5t-30.5 24t-44 19.5t-51 18l-70 25q-136 49 -197 124t-61 184q0 76 28 138t80 105.5t126 67.5t166 24q37 0 79.5 -3t87.5 -11t90.5 -22.5t89.5 -36.5l-50 -237 q-28 10 -62.5 21t-71 20t-73.5 15t-70 6q-18 0 -38 -2.5t-36.5 -9.5t-27.5 -19.5t-11 -32.5q0 -18 9 -31.5t26.5 -25t44.5 -23t63 -25.5l78 -30q124 -47 184 -119t60 -186q0 -71 -24.5 -128.5t-75 -98.5t-126.5 -63t-179 -22q-124 0 -216.5 23.5t-154.5 54.5zM682 1125 q-25 19 -54 43t-58.5 49t-56.5 49t-48 44q-21 -20 -48 -44t-56.5 -49t-58.5 -49t-54 -43l-159 190q38 25 84.5 57t96 66t99.5 69t96 68q46 -33 96 -68t99.5 -69t96 -66t84.5 -57z" />
<glyph unicode="&#x15e;" horiz-adv-x="1095" d="M162 345q18 -9 54 -23t81.5 -27t96.5 -22.5t99 -9.5q97 0 140.5 20.5t43.5 65.5q0 22 -6.5 39.5t-21 33.5t-38.5 31t-59 32l-173 77q-65 29 -117 65t-88 82t-55.5 104.5t-19.5 133.5q0 91 37.5 165t103 127t155 82t193.5 29q82 0 146.5 -12t113.5 -28.5t83.5 -34.5 t56.5 -30l-60 -262q-26 13 -62.5 27.5t-78 26.5t-86 20t-87.5 8q-48 0 -80.5 -8.5t-52.5 -23t-29 -33t-10 -39.5q-1 -25 6.5 -43.5t21.5 -32.5t33 -25.5t42 -21.5l194 -90q76 -36 130 -75t88.5 -85t51 -101t16.5 -122q0 -93 -35 -164.5t-102 -120.5t-164.5 -74.5 t-222.5 -25.5q-62 0 -124.5 8.5t-117.5 23t-99 32.5t-70 36zM337 -407q14 -4 31 -7t43 -3q49 0 78 18t29 57q0 40 -28.5 54.5t-76.5 14.5h-53l11 167h127q55 0 103.5 -13.5t85 -42t57.5 -71.5t21 -103q0 -69 -25 -116t-68 -75.5t-100 -41t-121 -12.5q-46 0 -81.5 6t-51.5 14 z" />
<glyph unicode="&#x15f;" horiz-adv-x="896" d="M128 294q24 -11 57.5 -23t70.5 -21.5t75.5 -15.5t73.5 -6q60 0 94.5 11.5t34.5 43.5q0 18 -11.5 31.5t-30.5 24t-44 19.5t-51 18l-70 25q-136 49 -197 124t-61 184q0 76 28 138t80 105.5t126 67.5t166 24q37 0 79.5 -3t87.5 -11t90.5 -22.5t89.5 -36.5l-50 -237 q-28 10 -62.5 21t-71 20t-73.5 15t-70 6q-18 0 -38 -2.5t-36.5 -9.5t-27.5 -19.5t-11 -32.5q0 -18 9 -31.5t26.5 -25t44.5 -23t63 -25.5l78 -30q124 -47 184 -119t60 -186q0 -71 -24.5 -128.5t-75 -98.5t-126.5 -63t-179 -22q-124 0 -216.5 23.5t-154.5 54.5zM229 -407 q14 -4 31 -7t43 -3q49 0 78 18t29 57q0 40 -28.5 54.5t-76.5 14.5h-53l11 167h127q55 0 103.5 -13.5t85 -42t57.5 -71.5t21 -103q0 -69 -25 -116t-68 -75.5t-100 -41t-121 -12.5q-46 0 -81.5 6t-51.5 14z" />
<glyph unicode="&#x160;" horiz-adv-x="1095" d="M162 345q18 -9 54 -23t81.5 -27t96.5 -22.5t99 -9.5q97 0 140.5 20.5t43.5 65.5q0 22 -6.5 39.5t-21 33.5t-38.5 31t-59 32l-173 77q-65 29 -117 65t-88 82t-55.5 104.5t-19.5 133.5q0 91 37.5 165t103 127t155 82t193.5 29q82 0 146.5 -12t113.5 -28.5t83.5 -34.5 t56.5 -30l-60 -262q-26 13 -62.5 27.5t-78 26.5t-86 20t-87.5 8q-48 0 -80.5 -8.5t-52.5 -23t-29 -33t-10 -39.5q-1 -25 6.5 -43.5t21.5 -32.5t33 -25.5t42 -21.5l194 -90q76 -36 130 -75t88.5 -85t51 -101t16.5 -122q0 -93 -35 -164.5t-102 -120.5t-164.5 -74.5 t-222.5 -25.5q-62 0 -124.5 8.5t-117.5 23t-99 32.5t-70 36zM348 1893q31 -19 64 -44.5t64.5 -53.5t59 -55.5t47.5 -51.5q20 24 47.5 51.5t59 55.5t64.5 53.5t64 44.5l143 -198q-47 -28 -100 -63t-104 -72.5t-96 -76.5t-78 -75q-33 36 -78 75t-96 76.5t-104 72.5t-100 63z " />
<glyph unicode="&#x161;" horiz-adv-x="896" d="M128 294q24 -11 57.5 -23t70.5 -21.5t75.5 -15.5t73.5 -6q60 0 94.5 11.5t34.5 43.5q0 18 -11.5 31.5t-30.5 24t-44 19.5t-51 18l-70 25q-136 49 -197 124t-61 184q0 76 28 138t80 105.5t126 67.5t166 24q37 0 79.5 -3t87.5 -11t90.5 -22.5t89.5 -36.5l-50 -237 q-28 10 -62.5 21t-71 20t-73.5 15t-70 6q-18 0 -38 -2.5t-36.5 -9.5t-27.5 -19.5t-11 -32.5q0 -18 9 -31.5t26.5 -25t44.5 -23t63 -25.5l78 -30q124 -47 184 -119t60 -186q0 -71 -24.5 -128.5t-75 -98.5t-126.5 -63t-179 -22q-124 0 -216.5 23.5t-154.5 54.5zM230 1593 q31 -19 64 -44.5t64.5 -53.5t59 -55.5t47.5 -51.5q20 24 47.5 51.5t59 55.5t64.5 53.5t64 44.5l143 -198q-47 -28 -100 -63t-104 -72.5t-96 -76.5t-78 -75q-33 36 -78 75t-96 76.5t-104 72.5t-100 63z" />
<glyph unicode="&#x162;" horiz-adv-x="1090" d="M381 1062h-371v268h1070v-268h-371v-1062h-328v1062zM342 -407q14 -4 31 -7t43 -3q49 0 78 18t29 57q0 40 -28.5 54.5t-76.5 14.5h-53l11 167h127q55 0 103.5 -13.5t85 -42t57.5 -71.5t21 -103q0 -69 -25 -116t-68 -75.5t-100 -41t-121 -12.5q-46 0 -81.5 6t-51.5 14z " />
<glyph unicode="&#x163;" horiz-adv-x="774" d="M462 1024h258v-238h-254v-403q0 -40 6.5 -67t20 -43t35 -23t52.5 -7q45 0 85.5 9t62.5 17l36 -238q-21 -9 -51.5 -18.5t-66 -16.5t-73.5 -11.5t-75 -4.5q-99 0 -167.5 20t-111.5 64t-62 113.5t-19 169.5v439h-138v218l160 10l29 237l273 19v-246zM216 -407q14 -4 31 -7 t43 -3q49 0 78 18t29 57q0 40 -28.5 54.5t-76.5 14.5h-53l11 167h127q55 0 103.5 -13.5t85 -42t57.5 -71.5t21 -103q0 -69 -25 -116t-68 -75.5t-100 -41t-121 -12.5q-46 0 -81.5 6t-51.5 14z" />
<glyph unicode="&#x164;" horiz-adv-x="1090" d="M381 1062h-371v268h1070v-268h-371v-1062h-328v1062zM310 1893q31 -19 64 -44.5t64.5 -53.5t59 -55.5t47.5 -51.5q20 24 47.5 51.5t59 55.5t64.5 53.5t64 44.5l143 -198q-47 -28 -100 -63t-104 -72.5t-96 -76.5t-78 -75q-33 36 -78 75t-96 76.5t-104 72.5t-100 63z" />
<glyph unicode="&#x165;" horiz-adv-x="752" d="M572 1369q0 35 -8 63.5t-20 51t-27 39.5t-29 30l217 69q16 -14 35 -34t35 -48.5t26.5 -65t10.5 -82.5q0 -55 -20 -103t-49.5 -86t-63.5 -66t-63 -44l-125 104q12 10 26.5 26t26.5 37t20 48t8 61zM452 1024h258v-238h-254v-403q0 -40 6.5 -67t20 -43t35 -23t52.5 -7 q45 0 85.5 9t62.5 17l36 -238q-21 -9 -51.5 -18.5t-66 -16.5t-73.5 -11.5t-75 -4.5q-99 0 -167.5 20t-111.5 64t-62 113.5t-19 169.5v439h-138v218l160 10l29 237l273 19v-246z" />
<glyph unicode="&#x166;" horiz-adv-x="1090" d="M1080 1062h-371v-338h189v-143h-189v-581h-328v581h-191v143h191v338h-371v268h1070v-268z" />
<glyph unicode="&#x167;" horiz-adv-x="774" d="M462 1024h258v-238h-254v-151h238v-123h-238v-129q0 -40 6.5 -67t20 -43t35 -23t52.5 -7q45 0 85.5 9t62.5 17l36 -238q-21 -9 -51.5 -18.5t-66 -16.5t-73.5 -11.5t-75 -4.5q-99 0 -167.5 20t-111.5 64t-62 113.5t-19 169.5v165h-128v109l128 8v157h-138v218l160 10 l29 237l273 19v-246z" />
<glyph unicode="&#x168;" horiz-adv-x="1290" d="M423 535q0 -83 16 -139.5t46 -91.5t71.5 -50.5t92.5 -15.5t91.5 15t68.5 48t43 85t15 126v818h328v-805q0 -129 -39 -230t-111.5 -171t-175.5 -107t-231 -37t-229 35.5t-171 105t-106.5 171t-36.5 233.5v805h328v-795zM258 1590q8 33 28.5 73t53.5 75t79 58.5t106 23.5 q39 0 74 -12t66 -27t58.5 -27t50.5 -12q16 0 29 5.5t25.5 16.5t27 27.5t32.5 37.5l155 -110q-12 -40 -34.5 -81t-57.5 -74t-82.5 -53.5t-108.5 -20.5q-32 0 -63.5 12t-61.5 27t-58 27t-53 12q-16 0 -28.5 -5.5t-25 -16.5t-26 -27.5t-31.5 -37.5z" />
<glyph unicode="&#x169;" horiz-adv-x="1156" d="M777 0l-33 101q-15 -17 -41.5 -37.5t-63.5 -39.5t-84 -31.5t-101 -12.5q-176 0 -265 89t-89 281v674h328v-623q0 -81 29 -117t97 -36q38 0 83 16.5t76 39.5v720h328v-1024h-264zM188 1290q8 33 28.5 73t53.5 75t79 58.5t106 23.5q39 0 74 -12t66 -27t58.5 -27t50.5 -12 q16 0 29 5.5t25.5 16.5t27 27.5t32.5 37.5l155 -110q-12 -40 -34.5 -81t-57.5 -74t-82.5 -53.5t-108.5 -20.5q-32 0 -63.5 12t-61.5 27t-58 27t-53 12q-16 0 -28.5 -5.5t-25 -16.5t-26 -27.5t-31.5 -37.5z" />
<glyph unicode="&#x16a;" horiz-adv-x="1290" d="M423 535q0 -83 16 -139.5t46 -91.5t71.5 -50.5t92.5 -15.5t91.5 15t68.5 48t43 85t15 126v818h328v-805q0 -129 -39 -230t-111.5 -171t-175.5 -107t-231 -37t-229 35.5t-171 105t-106.5 171t-36.5 233.5v805h328v-795zM314 1775h662v-237h-662v237z" />
<glyph unicode="&#x16b;" horiz-adv-x="1156" d="M777 0l-33 101q-15 -17 -41.5 -37.5t-63.5 -39.5t-84 -31.5t-101 -12.5q-176 0 -265 89t-89 281v674h328v-623q0 -81 29 -117t97 -36q38 0 83 16.5t76 39.5v720h328v-1024h-264zM242 1469h662v-237h-662v237z" />
<glyph unicode="&#x16c;" horiz-adv-x="1290" d="M423 535q0 -83 16 -139.5t46 -91.5t71.5 -50.5t92.5 -15.5t91.5 15t68.5 48t43 85t15 126v818h328v-805q0 -129 -39 -230t-111.5 -171t-175.5 -107t-231 -37t-229 35.5t-171 105t-106.5 171t-36.5 233.5v805h328v-795zM566 1821q-4 -32 -2.5 -61t10.5 -50.5t26.5 -34.5 t44.5 -13t44.5 13t26.5 34.5t10.5 50.5t-2.5 61h223q15 -108 -9.5 -179.5t-71 -113.5t-106 -59t-115.5 -17t-115.5 17t-106 59t-71 113.5t-9.5 179.5h223z" />
<glyph unicode="&#x16d;" horiz-adv-x="1156" d="M777 0l-33 101q-15 -17 -41.5 -37.5t-63.5 -39.5t-84 -31.5t-101 -12.5q-176 0 -265 89t-89 281v674h328v-623q0 -81 29 -117t97 -36q38 0 83 16.5t76 39.5v720h328v-1024h-264zM489 1515q-4 -32 -2.5 -61t10.5 -50.5t26.5 -34.5t44.5 -13t44.5 13t26.5 34.5t10.5 50.5 t-2.5 61h223q15 -108 -9.5 -179.5t-71 -113.5t-106 -59t-115.5 -17t-115.5 17t-106 59t-71 113.5t-9.5 179.5h223z" />
<glyph unicode="&#x16e;" horiz-adv-x="1290" d="M423 535q0 -83 16 -139.5t46 -91.5t71.5 -50.5t92.5 -15.5t91.5 15t68.5 48t43 85t15 126v818h328v-805q0 -129 -39 -230t-111.5 -171t-175.5 -107t-231 -37t-229 35.5t-171 105t-106.5 171t-36.5 233.5v805h328v-795zM389 1639q0 64 19.5 110.5t55.5 77.5t86 46t111 15 q55 0 101 -14.5t79 -43.5t51.5 -71.5t18.5 -97.5q0 -64 -19.5 -111t-55.5 -77.5t-86 -45.5t-111 -15q-56 0 -102 14.5t-79 43.5t-51 71t-18 98zM584 1647q0 -31 17 -47t46 -16q32 0 50.5 17t18.5 52q0 31 -17 47t-46 16q-32 0 -50.5 -17t-18.5 -52z" />
<glyph unicode="&#x16f;" horiz-adv-x="1156" d="M777 0l-33 101q-15 -17 -41.5 -37.5t-63.5 -39.5t-84 -31.5t-101 -12.5q-176 0 -265 89t-89 281v674h328v-623q0 -81 29 -117t97 -36q38 0 83 16.5t76 39.5v720h328v-1024h-264zM309 1339q0 64 19.5 110.5t55.5 77.5t86 46t111 15q55 0 101 -14.5t79 -43.5t51.5 -71.5 t18.5 -97.5q0 -64 -19.5 -111t-55.5 -77.5t-86 -45.5t-111 -15q-56 0 -102 14.5t-79 43.5t-51 71t-18 98zM504 1347q0 -31 17 -47t46 -16q32 0 50.5 17t18.5 52q0 31 -17 47t-46 16q-32 0 -50.5 -17t-18.5 -52z" />
<glyph unicode="&#x170;" horiz-adv-x="1290" d="M423 535q0 -83 16 -139.5t46 -91.5t71.5 -50.5t92.5 -15.5t91.5 15t68.5 48t43 85t15 126v818h328v-805q0 -129 -39 -230t-111.5 -171t-175.5 -107t-231 -37t-229 35.5t-171 105t-106.5 171t-36.5 233.5v805h328v-795zM311 1514l232 405l223 -137l-298 -361zM663 1524 l232 405l223 -137l-298 -361z" />
<glyph unicode="&#x171;" horiz-adv-x="1156" d="M777 0l-33 101q-15 -17 -41.5 -37.5t-63.5 -39.5t-84 -31.5t-101 -12.5q-176 0 -265 89t-89 281v674h328v-623q0 -81 29 -117t97 -36q38 0 83 16.5t76 39.5v720h328v-1024h-264zM234 1208l232 405l223 -137l-298 -361zM586 1218l232 405l223 -137l-298 -361z" />
<glyph unicode="&#x172;" horiz-adv-x="1290" d="M423 535q0 -83 16 -139.5t46 -91.5t71.5 -50.5t92.5 -15.5t91.5 15t68.5 48t43 85t15 126v818h328v-805q0 -105 -26.5 -192t-76 -154t-120.5 -112t-161 -67q-39 -34 -67 -79.5t-28 -92.5q0 -51 26.5 -73t67.5 -22q39 0 72.5 11.5t56.5 22.5l50 -207q-12 -10 -35.5 -21 t-54 -20t-66 -15t-72.5 -6q-57 0 -112.5 12.5t-100 43t-71.5 81.5t-27 128q0 33 11 65t28.5 60.5t38 52.5t40.5 42q-112 9 -200 48.5t-148.5 108.5t-92.5 165.5t-32 219.5v805h328v-795z" />
<glyph unicode="&#x173;" horiz-adv-x="1156" d="M1001 0q-39 -34 -67.5 -79.5t-28.5 -92.5q0 -51 26.5 -73t67.5 -22q39 0 72.5 11.5t56.5 22.5l50 -207q-12 -10 -35.5 -21t-54 -20t-66 -15t-72.5 -6q-57 0 -112.5 12.5t-100 43t-71.5 81.5t-27 128q0 38 14 73.5t35 66.5t45 56t44 41l-33 101q-15 -17 -41.5 -37.5 t-63.5 -39.5t-84 -31.5t-101 -12.5q-176 0 -265 89t-89 281v674h328v-623q0 -81 29 -117t97 -36q38 0 83 16.5t76 39.5v720h328v-1024h-40z" />
<glyph unicode="&#x174;" horiz-adv-x="1856" d="M1836 1330l-327 -1330h-383l-198 712l-198 -712h-382l-328 1330h365l183 -903h10l218 883h264l218 -883h10l183 903h365zM1145 1431q-25 19 -54 43t-58.5 49t-56.5 49t-48 44q-21 -20 -48 -44t-56.5 -49t-58.5 -49t-54 -43l-159 190q38 25 84.5 57t96 66t99.5 69t96 68 q46 -33 96 -68t99.5 -69t96 -66t84.5 -57z" />
<glyph unicode="&#x175;" horiz-adv-x="1610" d="M1620 1024l-281 -1024h-412l-122 482l-122 -482h-412l-281 1024h353l154 -680h10l154 670h288l154 -670h10l154 680h353zM1022 1125q-25 19 -54 43t-58.5 49t-56.5 49t-48 44q-21 -20 -48 -44t-56.5 -49t-58.5 -49t-54 -43l-159 190q38 25 84.5 57t96 66t99.5 69t96 68 q46 -33 96 -68t99.5 -69t96 -66t84.5 -57z" />
<glyph unicode="&#x176;" horiz-adv-x="1222" d="M447 494l-447 836h356l255 -527l255 527h356l-447 -836v-494h-328v494zM828 1425q-25 19 -54 43t-58.5 49t-56.5 49t-48 44q-21 -20 -48 -44t-56.5 -49t-58.5 -49t-54 -43l-159 190q38 25 84.5 57t96 66t99.5 69t96 68q46 -33 96 -68t99.5 -69t96 -66t84.5 -57z" />
<glyph unicode="&#x177;" horiz-adv-x="1114" d="M1104 1024l-327 -1044q-33 -105 -80 -180t-110 -123t-142.5 -70.5t-176.5 -22.5q-38 0 -74.5 5t-68.5 12t-58.5 15.5t-43.5 16.5l48 234q17 -6 62.5 -18t112.5 -12q61 0 106 31t58 99l-49 93l-361 964h363l205 -700h10l168 700h358zM771 1125q-25 19 -54 43t-58.5 49 t-56.5 49t-48 44q-21 -20 -48 -44t-56.5 -49t-58.5 -49t-54 -43l-159 190q38 25 84.5 57t96 66t99.5 69t96 68q46 -33 96 -68t99.5 -69t96 -66t84.5 -57z" />
<glyph unicode="&#x178;" horiz-adv-x="1222" d="M447 494l-447 836h356l255 -527l255 527h356l-447 -836v-494h-328v494zM204 1641q0 95 51.5 141t136.5 46q75 0 122.5 -43.5t47.5 -125.5q0 -96 -51.5 -141.5t-136.5 -45.5q-75 0 -122.5 43.5t-47.5 125.5zM660 1641q0 95 51.5 141t136.5 46q75 0 122.5 -43.5 t47.5 -125.5q0 -96 -51.5 -141.5t-136.5 -45.5q-75 0 -122.5 43.5t-47.5 125.5z" />
<glyph unicode="&#x179;" horiz-adv-x="1127" d="M630 1061h-520v268h928v-230l-592 -831h631v-268h-1007v230zM262 1598l507 275l123 -270l-561 -156z" />
<glyph unicode="&#x17a;" horiz-adv-x="973" d="M496 786h-396v238h773v-190l-426 -596h456v-238h-833v190zM181 1298l507 275l123 -270l-561 -156z" />
<glyph unicode="&#x17b;" horiz-adv-x="1127" d="M630 1061h-520v268h928v-230l-592 -831h631v-268h-1007v230zM388 1641q0 95 51.5 141t136.5 46q75 0 122.5 -43.5t47.5 -125.5q0 -96 -51.5 -141.5t-136.5 -45.5q-75 0 -122.5 43.5t-47.5 125.5z" />
<glyph unicode="&#x17c;" horiz-adv-x="973" d="M496 786h-396v238h773v-190l-426 -596h456v-238h-833v190zM317 1341q0 95 51.5 141t136.5 46q75 0 122.5 -43.5t47.5 -125.5q0 -96 -51.5 -141.5t-136.5 -45.5q-75 0 -122.5 43.5t-47.5 125.5z" />
<glyph unicode="&#x17d;" horiz-adv-x="1127" d="M630 1061h-520v268h928v-230l-592 -831h631v-268h-1007v230zM342 1893q31 -19 64 -44.5t64.5 -53.5t59 -55.5t47.5 -51.5q20 24 47.5 51.5t59 55.5t64.5 53.5t64 44.5l143 -198q-47 -28 -100 -63t-104 -72.5t-96 -76.5t-78 -75q-33 36 -78 75t-96 76.5t-104 72.5t-100 63 z" />
<glyph unicode="&#x17e;" horiz-adv-x="973" d="M496 786h-396v238h773v-190l-426 -596h456v-238h-833v190zM261 1593q31 -19 64 -44.5t64.5 -53.5t59 -55.5t47.5 -51.5q20 24 47.5 51.5t59 55.5t64.5 53.5t64 44.5l143 -198q-47 -28 -100 -63t-104 -72.5t-96 -76.5t-78 -75q-33 36 -78 75t-96 76.5t-104 72.5t-100 63z " />
<glyph unicode="&#x17f;" horiz-adv-x="604" d="M466 0h-328v786h-138v218l140 9v90q0 85 25 154.5t75 119t124.5 76.5t173.5 27q46 0 82.5 -4t66.5 -10t53.5 -14t43.5 -15l-50 -234q-20 7 -54.5 15.5t-79.5 8.5q-68 0 -101 -32.5t-33 -107.5v-1087z" />
<glyph unicode="&#x192;" horiz-adv-x="1160" d="M721 798h209v-238h-246l-95 -600q-14 -85 -50 -154.5t-94 -119t-137 -76.5t-179 -27q-42 0 -75 4t-59.5 10t-47 13.5t-37.5 15.5l67 234q19 -7 52 -15.5t78 -8.5q66 0 105 31.5t51 108.5l92 584h-123v218l160 9l29 185q13 85 49.5 154.5t95 119t137.5 76.5t178 27 q42 0 75 -4t59 -10t47 -14t38 -15l-67 -234q-19 7 -52 15.5t-78 8.5q-66 0 -105.5 -31.5t-51.5 -108.5z" />
<glyph unicode="&#x1fa;" horiz-adv-x="1341" d="M991 0l-97 279h-447l-97 -279h-350l519 1330h302l520 -1330h-350zM533 527h274l-132 381h-10zM467 1593q0 103 58 153t154 50q43 0 79 -12t61.5 -35.5t39.5 -58t14 -79.5q0 -104 -58 -153.5t-154 -49.5q-43 0 -79 12t-61.5 35.5t-39.5 58t-14 79.5zM629 1600 q0 -19 11 -29t28 -10q20 0 31.5 10.5t11.5 32.5q0 19 -11 29t-28 10q-20 0 -31.5 -10.5t-11.5 -32.5zM408 1910l388 229l113 -216l-436 -137z" />
<glyph unicode="&#x1fb;" horiz-adv-x="961" d="M836 284q0 -30 12 -43t33 -13q20 0 35.5 3.5t29.5 7.5l25 -224q-38 -16 -83 -25.5t-99 -9.5q-29 0 -57 4.5t-52.5 15t-45.5 28.5t-36 44q-54 -45 -117 -68.5t-126 -23.5q-75 0 -137 21t-106 59t-68 91.5t-24 118.5q0 85 36 146t102 98t160 49t210 -1v92q0 66 -32.5 96.5 t-108.5 30.5q-38 0 -75.5 -6t-73 -15t-66 -20t-52.5 -21l-58 230q28 15 69.5 32t90.5 31t102.5 23t105.5 9q198 0 302 -87t104 -252v-421zM324 301q0 -45 26 -68t70 -23q27 0 55 8t53 21v153q-100 17 -152 -8t-52 -83zM179 1604l388 229l113 -216l-436 -137zM239 1287 q0 103 58 153t154 50q43 0 79 -12t61.5 -35.5t39.5 -58t14 -79.5q0 -104 -58 -153.5t-154 -49.5q-43 0 -79 12t-61.5 35.5t-39.5 58t-14 79.5zM401 1294q0 -19 11 -29t28 -10q20 0 31.5 10.5t11.5 32.5q0 19 -11 29t-28 10q-20 0 -31.5 -10.5t-11.5 -32.5z" />
<glyph unicode="&#x1fc;" horiz-adv-x="1929" d="M1001 279h-456l-206 -279h-349l981 1330h858v-268h-510v-262h480v-258h-480v-274h530v-268h-848v279zM1096 1598l507 275l123 -270l-561 -156zM728 527h273v370z" />
<glyph unicode="&#x1fd;" horiz-adv-x="1468" d="M841 436q11 -101 68.5 -147t156.5 -46q46 0 86.5 5.5t74 14t61.5 18t51 18.5l69 -232q-24 -12 -59.5 -27t-83 -28.5t-107.5 -22.5t-133 -9q-99 0 -185 35t-150 100q-36 -29 -77 -53.5t-85 -42.5t-90.5 -28.5t-92.5 -10.5q-72 0 -131.5 20t-102.5 59t-67 95.5t-24 130.5 q0 79 39 135.5t107 92t159.5 52t197.5 15.5v74q0 66 -33.5 96.5t-112.5 30.5q-38 0 -75.5 -6t-73 -15t-66 -20t-52.5 -21l-58 230q28 15 69.5 32t90.5 31t102.5 23t105.5 9q100 0 176 -26t128 -76q60 49 135.5 75.5t165.5 26.5q98 0 174 -28.5t128 -80t79 -122t27 -154.5 q0 -70 -8.5 -120t-22.5 -86zM439 1298l507 275l123 -270l-561 -156zM1119 610q7 43 3 79t-19.5 62t-41 40.5t-61.5 14.5q-70 0 -109.5 -50t-46.5 -155zM324 311q0 -52 25 -76.5t61 -24.5q29 0 58 8t55 21v187q-102 3 -150.5 -27.5t-48.5 -87.5z" />
<glyph unicode="&#x1fe;" horiz-adv-x="1436" d="M153 -92l131 206q-112 90 -170.5 229t-58.5 318q0 152 45.5 279t132 218t210.5 141.5t281 50.5q88 0 163.5 -15.5t141.5 -44.5l127 201l127 -69l-131 -207q112 -89 170.5 -228t58.5 -318q0 -152 -46 -279t-132 -218t-210 -141.5t-281 -50.5q-173 0 -305 59l-127 -200z M408 676q0 -83 14.5 -152t42.5 -123l407 643q-34 23 -73.5 35.5t-85.5 12.5q-66 0 -122 -27.5t-96.5 -80.5t-63.5 -130.5t-23 -177.5zM723 238q66 0 122 27.5t96.5 80.5t63.5 130.5t23 177.5q0 82 -15 151t-43 123l-407 -642q34 -23 74 -35.5t86 -12.5zM403 1598l507 275 l123 -270l-561 -156z" />
<glyph unicode="&#x1ff;" horiz-adv-x="1111" d="M549 -20q-65 0 -122 11t-107 31l-120 -189l-115 61l124 195q-85 69 -129.5 174.5t-44.5 239.5q0 121 35.5 220.5t103 171t165.5 110.5t223 39q64 0 121 -11t106 -31l121 190l115 -61l-124 -195q85 -69 130 -175t45 -240q0 -121 -35.5 -220.5t-103 -171t-165.5 -110.5 t-223 -39zM240 1298l507 275l123 -270l-561 -156zM560 218q49 0 83 21.5t55 60t30.5 91t9.5 115.5q0 86 -16 149l-260 -410q39 -27 98 -27zM373 518q0 -42 3.5 -79t11.5 -69l259 409q-19 13 -43 20t-53 7q-50 0 -84 -21.5t-55 -60t-30 -91t-9 -115.5z" />
<glyph unicode="&#x218;" horiz-adv-x="1095" d="M162 345q18 -9 54 -23t81.5 -27t96.5 -22.5t99 -9.5q97 0 140.5 20.5t43.5 65.5q0 22 -6.5 39.5t-21 33.5t-38.5 31t-59 32l-173 77q-65 29 -117 65t-88 82t-55.5 104.5t-19.5 133.5q0 91 37.5 165t103 127t155 82t193.5 29q82 0 146.5 -12t113.5 -28.5t83.5 -34.5 t56.5 -30l-60 -262q-26 13 -62.5 27.5t-78 26.5t-86 20t-87.5 8q-48 0 -80.5 -8.5t-52.5 -23t-29 -33t-10 -39.5q-1 -25 6.5 -43.5t21.5 -32.5t33 -25.5t42 -21.5l194 -90q76 -36 130 -75t88.5 -85t51 -101t16.5 -122q0 -93 -35 -164.5t-102 -120.5t-164.5 -74.5 t-222.5 -25.5q-62 0 -124.5 8.5t-117.5 23t-99 32.5t-70 36zM495 -303q0 29 -9.5 54.5t-22.5 46t-26.5 35t-21.5 22.5l254 56q15 -12 34.5 -32.5t36.5 -48t28.5 -60.5t11.5 -69q0 -62 -27.5 -110t-77 -81.5t-118.5 -53.5t-151 -27l-52 151q25 4 50 13.5t45.5 24t33 34 t12.5 45.5z" />
<glyph unicode="&#x219;" horiz-adv-x="896" d="M128 294q24 -11 57.5 -23t70.5 -21.5t75.5 -15.5t73.5 -6q60 0 94.5 11.5t34.5 43.5q0 18 -11.5 31.5t-30.5 24t-44 19.5t-51 18l-70 25q-136 49 -197 124t-61 184q0 76 28 138t80 105.5t126 67.5t166 24q37 0 79.5 -3t87.5 -11t90.5 -22.5t89.5 -36.5l-50 -237 q-28 10 -62.5 21t-71 20t-73.5 15t-70 6q-18 0 -38 -2.5t-36.5 -9.5t-27.5 -19.5t-11 -32.5q0 -18 9 -31.5t26.5 -25t44.5 -23t63 -25.5l78 -30q124 -47 184 -119t60 -186q0 -71 -24.5 -128.5t-75 -98.5t-126.5 -63t-179 -22q-124 0 -216.5 23.5t-154.5 54.5zM387 -303 q0 29 -9.5 54.5t-22.5 46t-26.5 35t-21.5 22.5l254 56q15 -12 34.5 -32.5t36.5 -48t28.5 -60.5t11.5 -69q0 -62 -27.5 -110t-77 -81.5t-118.5 -53.5t-151 -27l-52 151q25 4 50 13.5t45.5 24t33 34t12.5 45.5z" />
<glyph unicode="&#x21a;" horiz-adv-x="1090" d="M381 1062h-371v268h1070v-268h-371v-1062h-328v1062zM461 -303q0 29 -9.5 54.5t-22.5 46t-26.5 35t-21.5 22.5l254 56q15 -12 34.5 -32.5t36.5 -48t28.5 -60.5t11.5 -69q0 -62 -27.5 -110t-77 -81.5t-118.5 -53.5t-151 -27l-52 151q25 4 50 13.5t45.5 24t33 34t12.5 45.5 z" />
<glyph unicode="&#x21b;" horiz-adv-x="774" d="M462 1024h258v-238h-254v-403q0 -40 6.5 -67t20 -43t35 -23t52.5 -7q45 0 85.5 9t62.5 17l36 -238q-21 -9 -51.5 -18.5t-66 -16.5t-73.5 -11.5t-75 -4.5q-99 0 -167.5 20t-111.5 64t-62 113.5t-19 169.5v439h-138v218l160 10l29 237l273 19v-246zM354 -303 q0 29 -9.5 54.5t-22.5 46t-26.5 35t-21.5 22.5l254 56q15 -12 34.5 -32.5t36.5 -48t28.5 -60.5t11.5 -69q0 -62 -27.5 -110t-77 -81.5t-118.5 -53.5t-151 -27l-52 151q25 4 50 13.5t45.5 24t33 34t12.5 45.5z" />
<glyph unicode="&#x237;" horiz-adv-x="578" d="M463 1024v-1037q0 -205 -101.5 -304t-299.5 -99q-69 0 -116 12t-79 27l38 234q17 -6 43 -13t62 -7q64 0 94.5 30.5t30.5 100.5v1056h328z" />
<glyph unicode="&#x2bc;" horiz-adv-x="431" d="M112 1248q0 34 -6 67t-15 62t-20 53t-21 40l244 61q10 -14 23.5 -36t25.5 -53t20 -71t8 -91q0 -55 -14.5 -106.5t-36 -94.5t-47 -75.5t-46.5 -50.5l-161 50q8 17 16 43t15 58t11 69t4 75z" />
<glyph unicode="&#x2c6;" horiz-adv-x="982" d="M708 1125q-25 19 -54 43t-58.5 49t-56.5 49t-48 44q-21 -20 -48 -44t-56.5 -49t-58.5 -49t-54 -43l-159 190q38 25 84.5 57t96 66t99.5 69t96 68q46 -33 96 -68t99.5 -69t96 -66t84.5 -57z" />
<glyph unicode="&#x2c7;" horiz-adv-x="986" d="M258 1593q31 -19 64 -44.5t64.5 -53.5t59 -55.5t47.5 -51.5q20 24 47.5 51.5t59 55.5t64.5 53.5t64 44.5l143 -198q-47 -28 -100 -63t-104 -72.5t-96 -76.5t-78 -75q-33 36 -78 75t-96 76.5t-104 72.5t-100 63z" />
<glyph unicode="&#x2d8;" horiz-adv-x="846" d="M344 1515q-4 -32 -2.5 -61t10.5 -50.5t26.5 -34.5t44.5 -13t44.5 13t26.5 34.5t10.5 50.5t-2.5 61h223q15 -108 -9.5 -179.5t-71 -113.5t-106 -59t-115.5 -17t-115.5 17t-106 59t-71 113.5t-9.5 179.5h223z" />
<glyph unicode="&#x2d9;" horiz-adv-x="588" d="M115 1341q0 95 51.5 141t136.5 46q75 0 122.5 -43.5t47.5 -125.5q0 -96 -51.5 -141.5t-136.5 -45.5q-75 0 -122.5 43.5t-47.5 125.5z" />
<glyph unicode="&#x2da;" horiz-adv-x="752" d="M115 1339q0 64 19.5 110.5t55.5 77.5t86 46t111 15q55 0 101 -14.5t79 -43.5t51.5 -71.5t18.5 -97.5q0 -64 -19.5 -111t-55.5 -77.5t-86 -45.5t-111 -15q-56 0 -102 14.5t-79 43.5t-51 71t-18 98zM310 1347q0 -31 17 -47t46 -16q32 0 50.5 17t18.5 52q0 31 -17 47t-46 16 q-32 0 -50.5 -17t-18.5 -52z" />
<glyph unicode="&#x2db;" horiz-adv-x="734" d="M552 0q-39 -34 -67.5 -79.5t-28.5 -92.5q0 -51 26.5 -73t67.5 -22q39 0 72.5 11.5t56.5 22.5l50 -207q-12 -10 -35.5 -21t-54 -20t-66 -15t-72.5 -6q-57 0 -112.5 12.5t-100 43t-71.5 81.5t-27 128q0 46 20.5 88.5t47.5 77t55 58.5t43 33z" />
<glyph unicode="&#x2dc;" horiz-adv-x="1015" d="M115 1290q8 33 28.5 73t53.5 75t79 58.5t106 23.5q39 0 74 -12t66 -27t58.5 -27t50.5 -12q16 0 29 5.5t25.5 16.5t27 27.5t32.5 37.5l155 -110q-12 -40 -34.5 -81t-57.5 -74t-82.5 -53.5t-108.5 -20.5q-32 0 -63.5 12t-61.5 27t-58 27t-53 12q-16 0 -28.5 -5.5t-25 -16.5 t-26 -27.5t-31.5 -37.5z" />
<glyph unicode="&#x2dd;" horiz-adv-x="1037" d="M115 1208l232 405l223 -137l-298 -361zM467 1218l232 405l223 -137l-298 -361z" />
<glyph unicode="&#x301;" horiz-adv-x="731" d="M115 1604l388 229l113 -216l-436 -137z" />
<glyph unicode="&#x307;" horiz-adv-x="518" d="M80 681q0 95 51.5 141t136.5 46q75 0 122.5 -43.5t47.5 -125.5q0 -96 -51.5 -141.5t-136.5 -45.5q-75 0 -122.5 43.5t-47.5 125.5z" />
<glyph unicode="&#x30a;" horiz-adv-x="636" d="M115 1287q0 103 58 153t154 50q43 0 79 -12t61.5 -35.5t39.5 -58t14 -79.5q0 -104 -58 -153.5t-154 -49.5q-43 0 -79 12t-61.5 35.5t-39.5 58t-14 79.5zM277 1294q0 -19 11 -29t28 -10q20 0 31.5 10.5t11.5 32.5q0 19 -11 29t-28 10q-20 0 -31.5 -10.5t-11.5 -32.5z" />
<glyph unicode="&#x394;" horiz-adv-x="1309" d="M0 0v228l514 1102h281l514 -1102v-228h-1309zM350 268h609l-305 689z" />
<glyph unicode="&#x3a9;" horiz-adv-x="1471" d="M662 0h-607v248h239q-45 27 -87 70.5t-74 100.5t-51.5 126.5t-19.5 148.5q0 141 49.5 261t139.5 207.5t215 137.5t275 50t273.5 -49.5t211 -135t135.5 -200.5t48 -246q0 -88 -19.5 -162.5t-52 -134t-74.5 -103.5t-88 -71h241v-248h-607v220q60 25 106.5 69.5t77.5 105.5 t47 136.5t16 162.5q0 93 -23.5 166.5t-66.5 125t-103.5 79t-134.5 27.5q-68 0 -125 -27t-99 -76.5t-65.5 -119.5t-23.5 -155q0 -91 17.5 -170t49.5 -143t77.5 -110.5t102.5 -71.5v-219z" />
<glyph unicode="&#x3bc;" horiz-adv-x="1156" d="M428 1024v-623q0 -81 29 -117t97 -36q38 0 83 16.5t76 39.5v720h328v-1024h-264l-33 101q-15 -17 -41.5 -37.5t-63.5 -39.5t-84 -31.5t-101 -12.5h-13.5t-12.5 1q-2 -202 -103.5 -299.5t-297.5 -97.5q-69 0 -116 12t-79 27l38 234q17 -6 43 -13t62 -7q64 0 94.5 30.5 t30.5 100.5v1056h328z" />
<glyph unicode="&#x3c0;" horiz-adv-x="1505" d="M0 945q15 12 40 25.5t61 25.5t81.5 20t101.5 8h1153v-238h-239q-27 -81 -44 -172.5t-17 -180.5q0 -96 42 -143t112 -47q38 0 70 8.5t48 14.5l36 -238q-36 -19 -97.5 -33.5t-138.5 -14.5q-89 0 -162.5 29t-126 83t-82 131t-29.5 174q0 56 7 110.5t18 104.5t25 94t28 80 h-274v-153q0 -134 -22 -249t-48 -201q-31 -100 -70 -183h-318q39 88 70 192q13 44 25.5 95.5t22.5 108.5t16 118.5t6 125.5v146h-21q-80 0 -130.5 -12.5t-75.5 -26.5z" />
<glyph unicode="&#xe3f;" horiz-adv-x="1272" d="M706 1496l-25 -242q89 -6 159.5 -28t119 -61.5t74 -96t25.5 -131.5q0 -72 -38.5 -128t-97.5 -91q39 -15 74.5 -41t63.5 -61t44.5 -78.5t16.5 -94.5q0 -79 -31 -144.5t-88 -113t-138 -75.5t-181 -33l25 -243h-260l24 242h-263v1180h261l-25 240h260zM506 569v-261h115 q80 0 120 32t40 86q0 67 -41 105t-119 38h-115zM506 787h185q52 46 52 115q0 56 -35.5 89t-104.5 33h-97v-237z" />
<glyph unicode="&#x1e80;" horiz-adv-x="1856" d="M1836 1330l-327 -1330h-383l-198 712l-198 -712h-382l-328 1330h365l183 -903h10l218 883h264l218 -883h10l183 903h365zM1174 1453l-561 156l123 270l507 -275z" />
<glyph unicode="&#x1e81;" horiz-adv-x="1610" d="M1620 1024l-281 -1024h-412l-122 482l-122 -482h-412l-281 1024h353l154 -680h10l154 670h288l154 -670h10l154 680h353zM1021 1147l-561 156l123 270l507 -275z" />
<glyph unicode="&#x1e82;" horiz-adv-x="1856" d="M1836 1330l-327 -1330h-383l-198 712l-198 -712h-382l-328 1330h365l183 -903h10l218 883h264l218 -883h10l183 903h365zM673 1604l507 275l123 -270l-561 -156z" />
<glyph unicode="&#x1e83;" horiz-adv-x="1610" d="M1620 1024l-281 -1024h-412l-122 482l-122 -482h-412l-281 1024h353l154 -680h10l154 670h288l154 -670h10l154 680h353zM510 1298l507 275l123 -270l-561 -156z" />
<glyph unicode="&#x1e84;" horiz-adv-x="1856" d="M1836 1330l-327 -1330h-383l-198 712l-198 -712h-382l-328 1330h365l183 -903h10l218 883h264l218 -883h10l183 903h365zM521 1647q0 95 51.5 141t136.5 46q75 0 122.5 -43.5t47.5 -125.5q0 -96 -51.5 -141.5t-136.5 -45.5q-75 0 -122.5 43.5t-47.5 125.5zM977 1647 q0 95 51.5 141t136.5 46q75 0 122.5 -43.5t47.5 -125.5q0 -96 -51.5 -141.5t-136.5 -45.5q-75 0 -122.5 43.5t-47.5 125.5z" />
<glyph unicode="&#x1e85;" horiz-adv-x="1610" d="M1620 1024l-281 -1024h-412l-122 482l-122 -482h-412l-281 1024h353l154 -680h10l154 670h288l154 -670h10l154 680h353zM854 1341q0 95 51.5 141t136.5 46q75 0 122.5 -43.5t47.5 -125.5q0 -96 -51.5 -141.5t-136.5 -45.5q-75 0 -122.5 43.5t-47.5 125.5zM398 1341 q0 95 51.5 141t136.5 46q75 0 122.5 -43.5t47.5 -125.5q0 -96 -51.5 -141.5t-136.5 -45.5q-75 0 -122.5 43.5t-47.5 125.5z" />
<glyph unicode="&#x1e9e;" horiz-adv-x="1288" d="M443 0h-328v873q0 89 31.5 171.5t96.5 146t165 101.5t237 38h545v-231l-242 -377q58 -8 112 -33t96 -67.5t67 -102.5t25 -136q0 -105 -32.5 -181t-90 -125.5t-137.5 -73t-175 -23.5q-93 0 -157.5 13.5t-98.5 31.5l43 234q7 -3 24 -8t41 -10t54 -9t63 -4q61 0 100 38 t39 107q0 59 -21 95.5t-61.5 54t-99 18.5t-133.5 -11l-10 118l243 393h-212q-83 0 -133.5 -46t-50.5 -138v-857z" />
<glyph unicode="&#x1ef2;" horiz-adv-x="1222" d="M447 494l-447 836h356l255 -527l255 527h356l-447 -836v-494h-328v494zM807 1447l-561 156l123 270l507 -275z" />
<glyph unicode="&#x1ef3;" horiz-adv-x="1114" d="M1104 1024l-327 -1044q-33 -105 -80 -180t-110 -123t-142.5 -70.5t-176.5 -22.5q-38 0 -74.5 5t-68.5 12t-58.5 15.5t-43.5 16.5l48 234q17 -6 62.5 -18t112.5 -12q61 0 106 31t58 99l-49 93l-361 964h363l205 -700h10l168 700h358zM757 1147l-561 156l123 270l507 -275z " />
<glyph unicode="&#x2013;" horiz-adv-x="1181" d="M115 661h951v-257h-951v257z" />
<glyph unicode="&#x2014;" horiz-adv-x="1783" d="M115 661h1553v-257h-1553v257z" />
<glyph unicode="&#x2018;" horiz-adv-x="456" d="M270 1196q0 -41 12 -75t30 -61.5t38.5 -49.5t38.5 -38l-245 -69q-20 15 -43.5 40.5t-43.5 60t-33.5 77t-13.5 92.5q0 66 22.5 121t62 99t94 77.5t119.5 58.5l113 -126q-29 -16 -56.5 -36t-48.5 -45.5t-33.5 -57t-12.5 -68.5z" />
<glyph unicode="&#x2019;" horiz-adv-x="486" d="M176 1236q0 40 -12 74.5t-30 62t-38.5 49.5t-38.5 38l245 69q20 -15 43.5 -40.5t43.5 -60t33.5 -77.5t13.5 -92q0 -66 -22.5 -121t-62 -99t-94.5 -77.5t-119 -58.5l-113 126q29 16 56.5 36t48.5 45.5t33.5 56.5t12.5 69z" />
<glyph unicode="&#x201a;" horiz-adv-x="491" d="M161 43q0 40 -12 74.5t-30 62t-38.5 49.5t-38.5 38l245 69q20 -15 43.5 -40.5t43.5 -60t33.5 -77.5t13.5 -92q0 -66 -22.5 -121t-62 -99t-94.5 -77.5t-119 -58.5l-113 126q29 16 56.5 36t48.5 45.5t33.5 56.5t12.5 69z" />
<glyph unicode="&#x201c;" horiz-adv-x="875" d="M260 1178q0 -41 12 -75t30 -61.5t38.5 -49.5t38.5 -38l-235 -69q-20 15 -43.5 40.5t-43.5 60t-33.5 77t-13.5 92.5q0 66 22.5 121t62 99t94 77.5t119.5 58.5l103 -126q-29 -16 -56.5 -36t-48.5 -45.5t-33.5 -57t-12.5 -68.5zM689 1198q0 -41 12 -75t30 -61.5t38.5 -49.5 t38.5 -38l-235 -69q-20 15 -43.5 40.5t-43.5 60t-33.5 77t-13.5 92.5q0 66 22.5 121t62 99t94 77.5t119.5 58.5l103 -126q-29 -16 -56.5 -36t-48.5 -45.5t-33.5 -57t-12.5 -68.5z" />
<glyph unicode="&#x201d;" horiz-adv-x="905" d="M605 1238q0 40 -12 74.5t-30 62t-38.5 49.5t-38.5 38l235 69q20 -15 43.5 -40.5t43.5 -60t33.5 -77.5t13.5 -92q0 -66 -22.5 -121t-62 -99t-94.5 -77.5t-119 -58.5l-103 126q29 16 56.5 36t48.5 45.5t33.5 56.5t12.5 69zM176 1218q0 40 -12 74.5t-30 62t-38.5 49.5 t-38.5 38l235 69q20 -15 43.5 -40.5t43.5 -60t33.5 -77.5t13.5 -92q0 -66 -22.5 -121t-62 -99t-94.5 -77.5t-119 -58.5l-103 126q29 16 56.5 36t48.5 45.5t33.5 56.5t12.5 69z" />
<glyph unicode="&#x201e;" horiz-adv-x="910" d="M590 63q0 40 -12 74.5t-30 62t-38.5 49.5t-38.5 38l235 69q20 -15 43.5 -40.5t43.5 -60t33.5 -77.5t13.5 -92q0 -66 -22.5 -121t-62 -99t-94.5 -77.5t-119 -58.5l-103 126q29 16 56.5 36t48.5 45.5t33.5 56.5t12.5 69zM161 43q0 40 -12 74.5t-30 62t-38.5 49.5t-38.5 38 l235 69q20 -15 43.5 -40.5t43.5 -60t33.5 -77.5t13.5 -92q0 -66 -22.5 -121t-62 -99t-94.5 -77.5t-119 -58.5l-103 126q29 16 56.5 36t48.5 45.5t33.5 56.5t12.5 69z" />
<glyph unicode="&#x2020;" horiz-adv-x="1236" d="M793 1593l-12 -495l375 16v-287l-381 16l-27 -1167h-261l-28 1167l-379 -16v287l373 -16l-11 495h351z" />
<glyph unicode="&#x2021;" horiz-adv-x="1216" d="M432 -324l16 421l-368 -16v287l378 -17l11 284l-11 300l-378 -16v287l368 -16l-16 403h351l-16 -403l369 16v-287l-379 16l-12 -300l11 -284l380 17v-287l-370 16l17 -421h-351z" />
<glyph unicode="&#x2022;" horiz-adv-x="787" d="M110 672q0 74 21 128.5t59.5 90.5t92 54t119.5 18q58 0 107 -17.5t84 -51t54.5 -82.5t19.5 -112q0 -75 -21 -129.5t-59.5 -90.5t-92.5 -53.5t-120 -17.5q-58 0 -106.5 17t-83.5 50.5t-54.5 82.5t-19.5 113z" />
<glyph unicode="&#x2026;" horiz-adv-x="1670" d="M80 149q0 95 51.5 141t136.5 46q75 0 122.5 -43.5t47.5 -125.5q0 -96 -51.5 -141.5t-136.5 -45.5q-75 0 -122.5 43.5t-47.5 125.5zM656 149q0 95 51.5 141t136.5 46q75 0 122.5 -43.5t47.5 -125.5q0 -96 -51.5 -141.5t-136.5 -45.5q-75 0 -122.5 43.5t-47.5 125.5z M1232 149q0 95 51.5 141t136.5 46q75 0 122.5 -43.5t47.5 -125.5q0 -96 -51.5 -141.5t-136.5 -45.5q-75 0 -122.5 43.5t-47.5 125.5z" />
<glyph unicode="&#x2030;" horiz-adv-x="1838" d="M1485 -20q-69 0 -117 23.5t-81 68.5q-34 -45 -84 -68.5t-124 -23.5q-68 0 -125 23.5t-98 64.5t-64 96.5t-23 118.5q0 69 23 127t65.5 100t102 65.5t132.5 23.5q69 0 117 -24t81 -69q34 45 84 69t124 24q69 0 126 -23.5t98 -64.5t63.5 -96.5t22.5 -119.5q0 -69 -23 -127 t-65 -99.5t-102 -65t-133 -23.5zM1088 177q38 0 59 31t21 78q0 50 -20.5 82.5t-65.5 32.5q-38 0 -58.5 -31t-20.5 -78q0 -50 21 -82.5t64 -32.5zM1494 177q38 0 59 31t21 78q0 50 -20.5 82.5t-65.5 32.5q-38 0 -58.5 -31t-20.5 -78q0 -50 21 -82.5t64 -32.5zM1324 1243 l-1021 -1263l-164 117l1021 1263zM370 731q-69 0 -127 22t-100 62t-65 96t-23 123q0 73 23.5 131.5t66.5 99.5t103.5 63t134.5 22q70 0 128 -22t99.5 -62.5t64.5 -96.5t23 -123q0 -73 -23.5 -131t-66 -99t-103 -63t-135.5 -22zM379 928q37 0 56 31t19 78q0 51 -19.5 83 t-61.5 32q-37 0 -55.5 -31t-18.5 -78q0 -51 19 -83t61 -32z" />
<glyph unicode="&#x2039;" horiz-adv-x="781" d="M751 859q-61 -88 -141.5 -176.5t-169.5 -170.5q89 -82 169.5 -170.5t141.5 -176.5l-224 -163q-51 68 -107 138t-113 136.5t-112.5 126.5t-104.5 109q49 49 104.5 109t112.5 126.5t113 136.5t107 138z" />
<glyph unicode="&#x203a;" horiz-adv-x="781" d="M50 164q61 88 141.5 176.5t169.5 170.5q-89 82 -169.5 170.5t-141.5 176.5l224 163q51 -68 107 -138t113 -136.5t112 -126.5t105 -109q-50 -49 -105 -109t-112 -126.5t-113 -136.5t-107 -138z" />
<glyph unicode="&#x203d;" horiz-adv-x="822" d="M197 549q0 29 8.5 55.5t25.5 52.5v306h134v-160q20 20 39 41t33.5 42t23.5 41t9 38q0 60 -38 93.5t-119 33.5q-40 0 -78.5 -6t-71.5 -14.5t-57 -17.5t-36 -15l-60 227q22 12 55 26.5t77 27.5t100 21.5t123 8.5q101 0 179.5 -27.5t132.5 -75t82 -112t28 -137.5 q0 -50 -20.5 -96.5t-51 -87.5t-65.5 -76.5t-64 -62.5q-26 -24 -50 -48.5t-42 -48.5t-28.5 -49t-8.5 -51l2 -31l-228 -17q-5 7 -10.5 17t-11 23.5t-9 32.5t-3.5 46zM177 149q0 95 51.5 141t136.5 46q75 0 122.5 -43.5t47.5 -125.5q0 -96 -51.5 -141.5t-136.5 -45.5 q-75 0 -122.5 43.5t-47.5 125.5z" />
<glyph unicode="&#x2044;" horiz-adv-x="1205" d="M1195 1243l-1021 -1263l-164 117l1021 1263z" />
<glyph unicode="&#x2070;" horiz-adv-x="673" d="M345 731q-69 0 -127 22t-100 62t-65 96t-23 123q0 73 23.5 131.5t66.5 99.5t103.5 63t134.5 22q70 0 128 -22t99.5 -62.5t64.5 -96.5t23 -123q0 -73 -23.5 -131t-66 -99t-103 -63t-135.5 -22zM354 928q37 0 56 31t19 78q0 51 -19.5 83t-61.5 32q-37 0 -55.5 -31 t-18.5 -78q0 -51 19 -83t61 -32z" />
<glyph unicode="&#x2074;" horiz-adv-x="592" d="M489 1330v-336h88v-153h-88v-90h-216v90h-258v137l268 352h206zM273 994v93l-68 -93h68z" />
<glyph unicode="&#x20a3;" horiz-adv-x="1217" d="M229 214h-129v143h129v973h858v-268h-530v-277h460v-258h-460v-170h249v-143h-249v-214h-328v214z" />
<glyph unicode="&#x20a4;" horiz-adv-x="1239" d="M909 462h-288q-2 -50 -8 -103t-19 -107q47 -8 90 -13.5t85 -5.5q40 -1 65.5 8.5t42 26.5t26.5 41.5t18 53.5l208 -53q-5 -88 -31 -150.5t-70.5 -102.5t-105 -58.5t-134.5 -18.5q-50 0 -96 5.5t-90 12t-87 13t-87 9.5q-11 -9 -24 -19q-11 -8 -25.5 -17t-28.5 -14l-167 28 l-57 187q13 9 32 18t39.5 17.5t42 15t39.5 9.5q12 57 17 111.5t5 105.5h-159v143h767v-143zM889 726h-767v143h133q-1 15 -1 30v32q0 97 30 174.5t89 132t145.5 83.5t200.5 29q53 0 99.5 -8.5t84.5 -20.5t67 -25.5t48 -23.5l-60 -237q-7 3 -30.5 11.5t-56.5 17.5t-71.5 16 t-76.5 7q-70 0 -109.5 -33.5t-39.5 -108.5q0 -39 3 -76h312v-143z" />
<glyph unicode="&#x20a9;" horiz-adv-x="2122" d="M1962 600h-206l-138 -600h-373l-188 742l-188 -742h-372l-139 600h-196v123h167l-28 122h-221v123h193l-84 362h345l62 -362h255l84 342h244l83 -342h256l62 362h345l-84 -362h201v-123h-229l-28 -122h177v-123zM638 723h153l30 122h-204zM1322 723h154l21 122h-205z M1417 377l38 223h-103l55 -223h10zM707 377l54 223h-102l38 -223h10z" />
<glyph unicode="&#x20ac;" horiz-adv-x="1396" d="M980 462h-375q40 -100 116.5 -154.5t181.5 -54.5q73 0 149 15t145 47l79 -242q-34 -20 -76.5 -37t-90.5 -29.5t-98 -19.5t-99 -7q-137 0 -250 32.5t-199 94t-143.5 151t-83.5 204.5h-121v143h865v-143zM980 726h-865v143h125q29 111 88.5 200t145.5 151.5t196.5 96 t241.5 33.5q46 0 94 -5.5t93 -16t85 -25t69 -31.5l-69 -247q-131 52 -261 52q-122 0 -203.5 -53.5t-119.5 -154.5h380v-143z" />
<glyph unicode="&#x20b1;" horiz-adv-x="1359" d="M65 1008h140v322h454q220 0 349 -78.5t161 -243.5h140v-93h-131q0 -5 0.5 -9.5t0.5 -9.5q0 -11 -0.5 -22t-1.5 -22h132v-93h-148q-21 -78 -66.5 -136.5t-108.5 -97.5t-141 -59t-166 -20h-146v-446h-328v759h-140v93h140v63h-140v93zM836 883q0 8 -0.5 16t-1.5 16h-301 v-63h301q1 8 1.5 15.5t0.5 15.5zM649 694q56 0 93.5 16.5t60.5 48.5h-270v-65h116zM533 1068v-60h269q-43 60 -133 60h-136z" />
<glyph unicode="&#x20b9;" horiz-adv-x="1160" d="M160 720h176q69 0 116 26t63 84h-345v123h345q-17 61 -65.5 93t-123.5 32h-165v252h889v-123h-311q102 -93 115 -254h155v-123h-159q-10 -60 -36.5 -112.5t-66.5 -95t-93.5 -73t-117.5 -47.5l452 -502h-422l-406 482v238z" />
<glyph unicode="&#x20ba;" horiz-adv-x="1244" d="M105 761l196 120v449h328v-249l181 111l76 -121l-257 -157v-87l171 105l76 -121l-247 -151v-385q46 6 83.5 28.5t63.5 57t39 78.5t12 93l311 29q4 -118 -37 -220.5t-117 -178t-182.5 -119t-232.5 -43.5h-268v460l-131 -80l-75 121l206 126v87l-121 -74z" />
<glyph unicode="&#x2113;" horiz-adv-x="867" d="M80 974q0 85 25 154.5t72 118.5t116.5 76t159.5 27q85 0 154 -26t118 -75t75.5 -118t26.5 -155q0 -64 -20 -121.5t-53.5 -109t-77 -95.5t-91 -81t-96 -66.5t-91.5 -51.5v-68q0 -40 11 -67t31.5 -43t48.5 -23t63 -7q33 0 63 5.5t56 13t46.5 15t32.5 12.5l56 -226 q-13 -10 -42 -24.5t-69.5 -27.5t-90.5 -22t-104 -9q-93 0 -170.5 20t-133 64t-86 113.5t-30.5 169.5v627zM398 733q23 19 45 45t39 59t27 73.5t10 90.5q0 111 -57 111q-30 0 -47 -28t-17 -102v-249z" />
<glyph unicode="&#x2122;" horiz-adv-x="786" d="M30 1350h258v-92h-75v-234h-108v234h-75v92zM322 1350h175l42 -200l42 200h175v-326h-109v220l-62 -220h-92l-62 220v-220h-109v326z" />
<glyph unicode="&#x212e;" horiz-adv-x="1822" d="M439 632q-10 0 -10 -10v-351q0 -24 17 -44q88 -90 208.5 -132.5t257.5 -42.5q149 0 274.5 49.5t216.5 145.5h110q-51 -60 -115.5 -109t-141 -84t-163.5 -54.5t-183 -19.5q-161 0 -299.5 53.5t-241 146t-161 217t-58.5 267.5q0 95 27.5 182.5t77 164t119 139t154 107 t181 69t201.5 24.5t202.5 -25t182 -71t154 -110t119 -141t77 -165.5t27.5 -183.5v-22h-1233zM1392 1061q0 26 -19 44q-86 87 -206 130t-255 43q-138 0 -257 -42.5t-207 -130.5q-19 -19 -19 -48v-346q0 -12 10 -12h945q8 0 8 12v350z" />
<glyph unicode="&#x2190;" horiz-adv-x="1858" d="M989 1164l-371 -370h1100v-257h-1101l372 -372l-175 -174l-674 674l674 674z" />
<glyph unicode="&#x2191;" horiz-adv-x="1628" d="M686 -226v1039l-372 -372l-174 175l674 674l674 -674l-175 -175l-370 370v-1037h-257z" />
<glyph unicode="&#x2192;" horiz-adv-x="1858" d="M160 794h1099l-370 370l175 175l674 -674l-674 -674l-175 174l372 372h-1101v257z" />
<glyph unicode="&#x2193;" horiz-adv-x="1628" d="M1488 448l-674 -674l-674 674l174 175l372 -372v1039h257v-1038l370 371z" />
<glyph unicode="&#x2196;" horiz-adv-x="1501" d="M1163 1083h-524l722 -721l-182 -182l-722 722v-525h-247v953h953v-247z" />
<glyph unicode="&#x2197;" horiz-adv-x="1501" d="M160 362l722 721h-524v247h953v-953h-247v525l-722 -722z" />
<glyph unicode="&#x2198;" horiz-adv-x="1501" d="M342 1110l722 -722v525h247v-953h-953v247h524l-722 721z" />
<glyph unicode="&#x2199;" horiz-adv-x="1501" d="M1163 -40h-953v953h247v-525l722 722l182 -182l-722 -721h524v-247z" />
<glyph unicode="&#x2202;" horiz-adv-x="1279" d="M571 1092q-42 0 -83.5 -6.5t-77.5 -15.5t-64 -19t-44 -17l-82 219q12 7 46 23.5t84 32.5t112.5 28.5t131.5 12.5q170 0 286.5 -53.5t188.5 -143.5t103.5 -208t31.5 -248q0 -92 -14 -180.5t-45 -168.5t-80 -147.5t-118 -116.5t-159.5 -76.5t-205.5 -27.5q-104 0 -194 24.5 t-156 74t-104 123.5t-38 172q0 105 40 195t113.5 155.5t178 102.5t233.5 37q73 0 127 -12t89 -32q-6 62 -27 112.5t-58.5 86t-91 54.5t-123.5 19zM581 218q117 0 186.5 91t89.5 256q-32 28 -85 44.5t-116 16.5q-51 0 -93 -18.5t-72 -52t-46.5 -79.5t-16.5 -101 q0 -69 39 -113t114 -44z" />
<glyph unicode="&#x220f;" horiz-adv-x="1446" d="M1003 1217h-560v-1372h-328v1640h1216v-1640h-328v1372z" />
<glyph unicode="&#x2211;" horiz-adv-x="1222" d="M1127 1217h-677l387 -552l-387 -553h677v-267h-1032v247l390 573l-390 572v247h1032v-267z" />
<glyph unicode="&#x2212;" horiz-adv-x="1071" d="M130 793h811v-257h-811v257z" />
<glyph unicode="&#x2215;" horiz-adv-x="1205" d="M1195 1243l-1021 -1263l-164 117l1021 1263z" />
<glyph unicode="&#x2219;" horiz-adv-x="423" d="M80 504q0 95 51.5 141t136.5 46q75 0 122.5 -43.5t47.5 -125.5q0 -96 -51.5 -141.5t-136.5 -45.5q-75 0 -122.5 43.5t-47.5 125.5z" />
<glyph unicode="&#x221a;" horiz-adv-x="1495" d="M50 903h502l196 -474l409 1056h338l-602 -1485h-276l-287 636h-280v267z" />
<glyph unicode="&#x221e;" horiz-adv-x="1744" d="M872 485q-32 -33 -70 -65.5t-82 -58t-95 -41t-109 -15.5q-86 0 -160 24.5t-129 71t-86 113.5t-31 151t31 151t86 113t129 70.5t160 24.5q58 0 109 -16t95 -41.5t82 -57.5t70 -65q32 33 69.5 65t82 57.5t95.5 41.5t109 16q86 0 160 -24.5t129 -70.5t86 -113t31 -151 t-31 -151t-86 -113.5t-129 -71t-160 -24.5q-58 0 -109 15.5t-95.5 41t-82 58t-69.5 65.5zM1220 537q25 0 48.5 8.5t42 25t29.5 40.5t11 54t-11 54t-29.5 40t-42 24.5t-48.5 8.5q-27 0 -53.5 -10t-52 -27t-50.5 -40t-49 -50q49 -54 99.5 -91t105.5 -37zM524 537 q55 0 105.5 37t99.5 91q-24 27 -49 50t-50.5 40t-52 27t-53.5 10q-25 0 -48.5 -8.5t-42 -24.5t-29.5 -40t-11 -54t11 -54t29.5 -40.5t42 -25t48.5 -8.5z" />
<glyph unicode="&#x222b;" horiz-adv-x="891" d="M247 1140q-6 80 19 147t77 115.5t128.5 75.5t173.5 27q46 0 82.5 -4t66.5 -10t53.5 -14t43.5 -15l-50 -234q-20 7 -54.5 15.5t-79.5 8.5q-65 0 -102 -30t-32 -96l71 -936q6 -80 -19 -147t-77 -115.5t-128.5 -75.5t-173.5 -27q-46 0 -82.5 4t-66.5 10t-53.5 13.5 t-43.5 15.5l50 234q20 -7 54.5 -15.5t79.5 -8.5q65 0 102 30t32 96z" />
<glyph unicode="&#x2248;" horiz-adv-x="1126" d="M140 494q21 32 50 61t64.5 51.5t75.5 36t82 13.5q36 0 72 -10t74 -22.5t78.5 -22.5t85.5 -10q29 0 57 6t52.5 15.5t45.5 20.5t36 22l103 -165q-23 -32 -55.5 -59.5t-71.5 -48t-83.5 -32.5t-91.5 -12q-44 0 -83.5 10t-77.5 22.5t-74.5 22.5t-74.5 10q-21 0 -44 -7.5 t-45 -19t-40.5 -24.5t-31.5 -23zM110 830q22 36 53.5 65.5t69.5 51t81 33.5t88 12t86 -10t80 -22.5t77 -22.5t77 -10q28 0 54.5 7.5t49.5 19t43 24t34 23.5l103 -165q-23 -36 -54 -65.5t-69 -51t-81 -33.5t-88 -12t-86 10t-80 22.5t-77 22.5t-77 10q-28 0 -54.5 -7.5 t-49.5 -19t-43 -24.5t-34 -23z" />
<glyph unicode="&#x2260;" horiz-adv-x="1223" d="M130 969h582l159 250l125 -66l-117 -184h214v-257h-378l-58 -92h436v-257h-600l-159 -251l-125 66l117 185h-196v257h360l58 92h-418v257z" />
<glyph unicode="&#x2264;" horiz-adv-x="1078" d="M160 257h768v-237h-768v237zM928 1159l-389 -312l389 -310l-161 -190l-627 500l627 503z" />
<glyph unicode="&#x2265;" horiz-adv-x="1078" d="M918 20h-768v237h768v-237zM311 1350l627 -503l-627 -500l-161 190l389 310l-389 312z" />
<glyph unicode="&#x2460;" d="M736 524v278l-112 -8l-17 152q17 1 54 4.5t77.5 7.5t77.5 8t54 7h67v-450l106 1v-159h-432v159h125zM140 665q0 142 54 266.5t147 217.5t217.5 147t266.5 54t266.5 -54t217.5 -147t147 -217.5t54 -266.5t-54 -266.5t-147 -217.5t-217.5 -147t-266.5 -54t-266.5 54 t-217.5 147t-147 217.5t-54 266.5zM378 665q0 -93 35 -174.5t95.5 -142t142 -95.5t174.5 -35t174.5 35t142 95.5t95.5 142t35 174.5t-35 174.5t-95.5 142t-142 95.5t-174.5 35t-174.5 -35t-142 -95.5t-95.5 -142t-35 -174.5z" />
<glyph unicode="&#x2461;" d="M603 483q62 66 103.5 112t67 78t36.5 53.5t11 39.5q0 20 -14.5 31.5t-34.5 11.5q-29 0 -57 -10t-48 -21l-68 132q13 9 34.5 20t49 20.5t60 16t68.5 6.5q54 0 95.5 -14t69.5 -37.5t42.5 -54t14.5 -63.5q0 -37 -13.5 -70.5t-37.5 -67t-56.5 -68.5t-69.5 -74h193v-159h-446 v118zM140 665q0 142 54 266.5t147 217.5t217.5 147t266.5 54t266.5 -54t217.5 -147t147 -217.5t54 -266.5t-54 -266.5t-147 -217.5t-217.5 -147t-266.5 -54t-266.5 54t-217.5 147t-147 217.5t-54 266.5zM378 665q0 -93 35 -174.5t95.5 -142t142 -95.5t174.5 -35t174.5 35 t142 95.5t95.5 142t35 174.5t-35 174.5t-95.5 142t-142 95.5t-174.5 35t-174.5 -35t-142 -95.5t-95.5 -142t-35 -174.5z" />
<glyph unicode="&#x2462;" d="M845 771q0 16 -14 26.5t-40 10.5q-32 0 -63 -9.5t-50 -17.5l-61 134q19 12 44 22.5t53 18.5t56 12.5t53 4.5q57 0 99 -16t69.5 -41.5t41 -57t13.5 -63.5q0 -37 -19.5 -66.5t-43.5 -48.5q32 -21 55.5 -55t23.5 -80q0 -41 -17.5 -75.5t-50.5 -60t-80.5 -39.5t-107.5 -14 q-32 0 -61 5.5t-54.5 13.5t-46 17.5t-33.5 18.5l57 140q23 -10 57 -20.5t73 -10.5q63 0 63 35q0 20 -13.5 33t-41.5 13h-101v132h126q5 6 9.5 15.5t4.5 22.5zM140 665q0 142 54 266.5t147 217.5t217.5 147t266.5 54t266.5 -54t217.5 -147t147 -217.5t54 -266.5t-54 -266.5 t-147 -217.5t-217.5 -147t-266.5 -54t-266.5 54t-217.5 147t-147 217.5t-54 266.5zM378 665q0 -93 35 -174.5t95.5 -142t142 -95.5t174.5 -35t174.5 35t142 95.5t95.5 142t35 174.5t-35 174.5t-95.5 142t-142 95.5t-174.5 35t-174.5 -35t-142 -95.5t-95.5 -142t-35 -174.5z " />
<glyph unicode="&#x2463;" d="M795 963h166v-331h96v-149h-96v-118h-188v118h-237v130zM140 665q0 142 54 266.5t147 217.5t217.5 147t266.5 54t266.5 -54t217.5 -147t147 -217.5t54 -266.5t-54 -266.5t-147 -217.5t-217.5 -147t-266.5 -54t-266.5 54t-217.5 147t-147 217.5t-54 266.5zM378 665 q0 -93 35 -174.5t95.5 -142t142 -95.5t174.5 -35t174.5 35t142 95.5t95.5 142t35 174.5t-35 174.5t-95.5 142t-142 95.5t-174.5 35t-174.5 -35t-142 -95.5t-95.5 -142t-35 -174.5zM784 633v84l-62 -84h62z" />
<glyph unicode="&#x2464;" d="M844 565q0 26 -18 39.5t-49 13.5q-35 0 -63 -1t-48 -3q-24 -2 -43 -3l13 352h380v-159h-200l-1 -59q52 1 95.5 -10.5t75 -34.5t49 -58.5t17.5 -81.5q0 -47 -19 -84.5t-53 -64t-82 -41t-107 -14.5q-35 0 -65.5 4.5t-54.5 10.5t-41.5 13t-26.5 12l43 147q29 -10 60 -16.5 t69 -6.5q31 0 50 11t19 34zM140 665q0 142 54 266.5t147 217.5t217.5 147t266.5 54t266.5 -54t217.5 -147t147 -217.5t54 -266.5t-54 -266.5t-147 -217.5t-217.5 -147t-266.5 -54t-266.5 54t-217.5 147t-147 217.5t-54 266.5zM378 665q0 -93 35 -174.5t95.5 -142t142 -95.5 t174.5 -35t174.5 35t142 95.5t95.5 142t35 174.5t-35 174.5t-95.5 142t-142 95.5t-174.5 35t-174.5 -35t-142 -95.5t-95.5 -142t-35 -174.5z" />
<glyph unicode="&#x2465;" d="M856 810q-43 0 -67.5 -21t-27.5 -50q5 2 22.5 4t39.5 2q43 0 82.5 -9t69.5 -29.5t48 -54t18 -82.5q0 -48 -16 -87t-46 -67.5t-73.5 -44t-99.5 -15.5q-120 0 -180 77.5t-60 214.5q0 68 14 127.5t47.5 103t89 68.5t137.5 25q31 0 59 -4.5t49.5 -10.5t36.5 -12t21 -10 l-34 -147q-15 5 -48.5 13.5t-81.5 8.5zM808 520q23 0 31 16.5t8 38.5q0 24 -12.5 37t-32.5 13q-14 0 -24.5 -2.5t-17.5 -6.5q0 -18 1.5 -35.5t6.5 -31t14.5 -21.5t25.5 -8zM140 665q0 142 54 266.5t147 217.5t217.5 147t266.5 54t266.5 -54t217.5 -147t147 -217.5t54 -266.5 t-54 -266.5t-147 -217.5t-217.5 -147t-266.5 -54t-266.5 54t-217.5 147t-147 217.5t-54 266.5zM378 665q0 -93 35 -174.5t95.5 -142t142 -95.5t174.5 -35t174.5 35t142 95.5t95.5 142t35 174.5t-35 174.5t-95.5 142t-142 95.5t-174.5 35t-174.5 -35t-142 -95.5t-95.5 -142 t-35 -174.5z" />
<glyph unicode="&#x2466;" d="M1064 794l-178 -429h-210l187 439h-86v-95h-160l-11 254h458v-169zM140 665q0 142 54 266.5t147 217.5t217.5 147t266.5 54t266.5 -54t217.5 -147t147 -217.5t54 -266.5t-54 -266.5t-147 -217.5t-217.5 -147t-266.5 -54t-266.5 54t-217.5 147t-147 217.5t-54 266.5z M378 665q0 -93 35 -174.5t95.5 -142t142 -95.5t174.5 -35t174.5 35t142 95.5t95.5 142t35 174.5t-35 174.5t-95.5 142t-142 95.5t-174.5 35t-174.5 -35t-142 -95.5t-95.5 -142t-35 -174.5z" />
<glyph unicode="&#x2467;" d="M822 357q-47 0 -88 12t-72 34.5t-49 55t-18 74.5q0 24 7.5 45t20 38.5t27.5 31t30 22.5q-13 7 -27 18t-25 26.5t-18.5 35t-7.5 43.5q0 42 18 75t49 56.5t72 36t87 12.5q43 0 83 -12.5t71 -35t50 -54t19 -70.5q0 -48 -23 -79.5t-53 -46.5q15 -9 30 -22.5t27 -31t20 -38 t8 -42.5q0 -44 -19 -78t-51 -57.5t-75.5 -36t-92.5 -12.5zM787 775q0 -17 11.5 -30.5t27.5 -21.5q15 8 27.5 22t12.5 28q0 20 -12 31t-29 11t-27.5 -11.5t-10.5 -28.5zM876 560q0 20 -17.5 38.5t-34.5 26.5q-20 -8 -34 -26t-14 -36q0 -22 14.5 -35t37.5 -13q19 0 33.5 12.5 t14.5 32.5zM140 665q0 142 54 266.5t147 217.5t217.5 147t266.5 54t266.5 -54t217.5 -147t147 -217.5t54 -266.5t-54 -266.5t-147 -217.5t-217.5 -147t-266.5 -54t-266.5 54t-217.5 147t-147 217.5t-54 266.5zM378 665q0 -93 35 -174.5t95.5 -142t142 -95.5t174.5 -35 t174.5 35t142 95.5t95.5 142t35 174.5t-35 174.5t-95.5 142t-142 95.5t-174.5 35t-174.5 -35t-142 -95.5t-95.5 -142t-35 -174.5z" />
<glyph unicode="&#x2468;" d="M140 665q0 142 54 266.5t147 217.5t217.5 147t266.5 54t266.5 -54t217.5 -147t147 -217.5t54 -266.5t-54 -266.5t-147 -217.5t-217.5 -147t-266.5 -54t-266.5 54t-217.5 147t-147 217.5t-54 266.5zM378 665q0 -93 35 -174.5t95.5 -142t142 -95.5t174.5 -35t174.5 35 t142 95.5t95.5 142t35 174.5t-35 174.5t-95.5 142t-142 95.5t-174.5 35t-174.5 -35t-142 -95.5t-95.5 -142t-35 -174.5zM784 518q43 0 67.5 21t27.5 50q-5 -2 -22.5 -4t-39.5 -2q-44 0 -83.5 9t-69.5 29.5t-47.5 54t-17.5 82.5q0 48 16 87t46 67.5t73.5 44t99.5 15.5 q120 0 180 -77.5t60 -214.5q0 -68 -14 -127.5t-47.5 -103t-89 -68.5t-137.5 -25q-32 0 -59.5 4.5t-49 10.5t-36.5 12t-21 10l34 147q15 -5 48.5 -13.5t81.5 -8.5zM832 808q-23 0 -31 -16.5t-8 -38.5q0 -24 12.5 -37t32.5 -13q14 0 24.5 2.5t17.5 6.5q0 18 -1.5 35.5t-6.5 31 t-14.5 21.5t-25.5 8z" />
<glyph unicode="&#x24ea;" d="M827 520q29 0 48 36.5t19 104.5q0 69 -19.5 109t-51.5 40q-29 0 -47 -37t-18 -106q0 -68 18.5 -107.5t50.5 -39.5zM823 357q-69 0 -119.5 23t-84 63.5t-50 96.5t-16.5 121q0 66 17.5 123t52 99t85.5 66t119 24q69 0 120 -23t84 -64t49.5 -97t16.5 -122 q0 -65 -17.5 -121.5t-52 -98.5t-85.5 -66t-119 -24zM140 665q0 142 54 266.5t147 217.5t217.5 147t266.5 54t266.5 -54t217.5 -147t147 -217.5t54 -266.5t-54 -266.5t-147 -217.5t-217.5 -147t-266.5 -54t-266.5 54t-217.5 147t-147 217.5t-54 266.5zM378 665 q0 -93 35 -174.5t95.5 -142t142 -95.5t174.5 -35t174.5 35t142 95.5t95.5 142t35 174.5t-35 174.5t-95.5 142t-142 95.5t-174.5 35t-174.5 -35t-142 -95.5t-95.5 -142t-35 -174.5z" />
<glyph unicode="&#x24ff;" d="M827 520q-32 0 -50.5 39.5t-18.5 107.5q0 69 18 106t47 37q32 0 51.5 -40t19.5 -109q0 -68 -19 -104.5t-48 -36.5zM823 357q68 0 119 24t85.5 66t52 98.5t17.5 121.5q0 66 -16.5 122t-49.5 97t-84 64t-120 23q-68 0 -119 -24t-85.5 -66t-52 -99t-17.5 -123 q0 -65 16.5 -121t50 -96.5t84 -63.5t119.5 -23zM140 665q0 142 54 266.5t147 217.5t217.5 147t266.5 54t266.5 -54t217.5 -147t147 -217.5t54 -266.5t-54 -266.5t-147 -217.5t-217.5 -147t-266.5 -54t-266.5 54t-217.5 147t-147 217.5t-54 266.5z" />
<glyph unicode="&#x25ca;" horiz-adv-x="1315" d="M774 0h-234l-515 665l515 665h234l516 -665zM657 1029l-268 -364l268 -364l270 364z" />
<glyph unicode="&#x25fc;" horiz-adv-x="1025" d="M0 1025h1025v-1025h-1025v1025z" />
<glyph unicode="&#x2776;" d="M611 524v-159h432v159l-106 -1v450h-67q-17 -3 -54 -7t-77.5 -8t-77.5 -7.5t-54 -4.5l17 -152l112 8v-278h-125zM140 665q0 142 54 266.5t147 217.5t217.5 147t266.5 54t266.5 -54t217.5 -147t147 -217.5t54 -266.5t-54 -266.5t-147 -217.5t-217.5 -147t-266.5 -54 t-266.5 54t-217.5 147t-147 217.5t-54 266.5z" />
<glyph unicode="&#x2777;" d="M603 365h446v159h-193q37 39 69.5 74t56.5 68.5t37.5 67t13.5 70.5q0 33 -14.5 63.5t-42.5 54t-69.5 37.5t-95.5 14q-36 0 -68.5 -6.5t-60 -16t-49 -20.5t-34.5 -20l68 -132q20 11 48 21t57 10q20 0 34.5 -11.5t14.5 -31.5q0 -18 -11 -39.5t-36.5 -53.5t-67 -78 t-103.5 -112v-118zM140 665q0 142 54 266.5t147 217.5t217.5 147t266.5 54t266.5 -54t217.5 -147t147 -217.5t54 -266.5t-54 -266.5t-147 -217.5t-217.5 -147t-266.5 -54t-266.5 54t-217.5 147t-147 217.5t-54 266.5z" />
<glyph unicode="&#x2778;" d="M845 771q0 -13 -4.5 -22.5t-9.5 -15.5h-126v-132h101q28 0 41.5 -13t13.5 -33q0 -35 -63 -35q-39 0 -73 10.5t-57 20.5l-57 -140q13 -9 33.5 -18.5t46 -17.5t54.5 -13.5t61 -5.5q60 0 107.5 14t80.5 39.5t50.5 60t17.5 75.5q0 46 -23.5 80t-55.5 55q24 19 43.5 48.5 t19.5 66.5q0 32 -13.5 63.5t-41 57t-69.5 41.5t-99 16q-25 0 -53 -4.5t-56 -12.5t-53 -18.5t-44 -22.5l61 -134q19 8 50 17.5t63 9.5q26 0 40 -10.5t14 -26.5zM140 665q0 142 54 266.5t147 217.5t217.5 147t266.5 54t266.5 -54t217.5 -147t147 -217.5t54 -266.5t-54 -266.5 t-147 -217.5t-217.5 -147t-266.5 -54t-266.5 54t-217.5 147t-147 217.5t-54 266.5z" />
<glyph unicode="&#x2779;" d="M536 613v-130h237v-118h188v118h96v149h-96v331h-166zM140 665q0 142 54 266.5t147 217.5t217.5 147t266.5 54t266.5 -54t217.5 -147t147 -217.5t54 -266.5t-54 -266.5t-147 -217.5t-217.5 -147t-266.5 -54t-266.5 54t-217.5 147t-147 217.5t-54 266.5zM722 633l62 84 v-84h-62z" />
<glyph unicode="&#x277a;" d="M844 565q0 -23 -19 -34t-50 -11q-38 0 -69 6.5t-60 16.5l-43 -147q9 -5 26.5 -12t41.5 -13t54.5 -10.5t65.5 -4.5q59 0 107 14.5t82 41t53 64t19 84.5q0 46 -17.5 81.5t-49 58.5t-75 34.5t-95.5 10.5l1 59h200v159h-380l-13 -352q19 1 43 3q20 2 48 3t63 1q31 0 49 -13.5 t18 -39.5zM140 665q0 142 54 266.5t147 217.5t217.5 147t266.5 54t266.5 -54t217.5 -147t147 -217.5t54 -266.5t-54 -266.5t-147 -217.5t-217.5 -147t-266.5 -54t-266.5 54t-217.5 147t-147 217.5t-54 266.5z" />
<glyph unicode="&#x277b;" d="M856 810q48 0 81.5 -8.5t48.5 -13.5l34 147q-6 4 -21 10t-36.5 12t-49.5 10.5t-59 4.5q-82 0 -137.5 -25t-89 -68.5t-47.5 -103t-14 -127.5q0 -137 60 -214.5t180 -77.5q56 0 99.5 15.5t73.5 44t46 67.5t16 87q0 49 -18 82.5t-48 54t-69.5 29.5t-82.5 9q-22 0 -39.5 -2 t-22.5 -4q3 29 27.5 50t67.5 21zM808 520q-16 0 -25.5 8t-14.5 21.5t-6.5 31t-1.5 35.5q7 4 17.5 6.5t24.5 2.5q20 0 32.5 -13t12.5 -37q0 -22 -8 -38.5t-31 -16.5zM140 665q0 142 54 266.5t147 217.5t217.5 147t266.5 54t266.5 -54t217.5 -147t147 -217.5t54 -266.5 t-54 -266.5t-147 -217.5t-217.5 -147t-266.5 -54t-266.5 54t-217.5 147t-147 217.5t-54 266.5z" />
<glyph unicode="&#x277c;" d="M1064 963h-458l11 -254h160v95h86l-187 -439h210l178 429v169zM140 665q0 142 54 266.5t147 217.5t217.5 147t266.5 54t266.5 -54t217.5 -147t147 -217.5t54 -266.5t-54 -266.5t-147 -217.5t-217.5 -147t-266.5 -54t-266.5 54t-217.5 147t-147 217.5t-54 266.5z" />
<glyph unicode="&#x277d;" d="M822 357q49 0 92.5 12.5t75.5 36t51 57.5t19 78q0 22 -8 42.5t-20 38t-27 31t-30 22.5q30 15 53 46.5t23 79.5q0 39 -19 70.5t-50 54t-71 35t-83 12.5q-46 0 -87 -12.5t-72 -36t-49 -56.5t-18 -75q0 -24 7.5 -43.5t18.5 -35t25 -26.5t27 -18q-15 -9 -30 -22.5t-27.5 -31 t-20 -38.5t-7.5 -45q0 -42 18 -74.5t49 -55t72 -34.5t88 -12zM787 775q0 17 10.5 28.5t27.5 11.5t29 -11t12 -31q0 -14 -12.5 -28t-27.5 -22q-16 8 -27.5 21.5t-11.5 30.5zM876 560q0 -20 -14.5 -32.5t-33.5 -12.5q-23 0 -37.5 13t-14.5 35q0 18 14 36t34 26 q17 -8 34.5 -26.5t17.5 -38.5zM140 665q0 142 54 266.5t147 217.5t217.5 147t266.5 54t266.5 -54t217.5 -147t147 -217.5t54 -266.5t-54 -266.5t-147 -217.5t-217.5 -147t-266.5 -54t-266.5 54t-217.5 147t-147 217.5t-54 266.5z" />
<glyph unicode="&#x277e;" d="M140 665q0 142 54 266.5t147 217.5t217.5 147t266.5 54t266.5 -54t217.5 -147t147 -217.5t54 -266.5t-54 -266.5t-147 -217.5t-217.5 -147t-266.5 -54t-266.5 54t-217.5 147t-147 217.5t-54 266.5zM784 518q-48 0 -81.5 8.5t-48.5 13.5l-34 -147q6 -4 21 -10t36.5 -12 t49 -10.5t59.5 -4.5q82 0 137.5 25t89 68.5t47.5 103t14 127.5q0 137 -60 214.5t-180 77.5q-56 0 -99.5 -15.5t-73.5 -44t-46 -67.5t-16 -87q0 -49 17.5 -82.5t47.5 -54t69.5 -29.5t83.5 -9q22 0 39.5 2t22.5 4q-3 -29 -27.5 -50t-67.5 -21zM832 808q16 0 25.5 -8 t14.5 -21.5t6.5 -31t1.5 -35.5q-7 -4 -17.5 -6.5t-24.5 -2.5q-20 0 -32.5 13t-12.5 37q0 22 8 38.5t31 16.5z" />
<glyph unicode="&#xfb06;" horiz-adv-x="1616" d="M679 688q-34 20 -62 46.5t-52 54.5q-20 3 -39 5t-37 2t-38 -2.5t-36.5 -9.5t-27.5 -19.5t-11 -32.5q0 -18 9 -31.5t26.5 -25t44.5 -23t63 -25.5l78 -30q124 -47 184 -119t60 -186q0 -71 -24 -128.5t-73 -98.5t-123.5 -63t-174.5 -22q-125 0 -219 23.5t-157 54.5l63 236 q25 -11 58.5 -23t71.5 -21.5t77 -15.5t75 -6q55 0 87 11.5t32 43.5q0 18 -11.5 31.5t-30.5 24t-44 19.5t-51 18l-70 25q-136 49 -197 124t-61 184q0 73 26 133t74 103.5t116.5 68.5t154.5 29q-20 49 -20 105q0 70 31.5 130.5t93 105.5t152.5 70.5t210 25.5h397v-456h258 v-238h-254v-403q0 -40 6.5 -67t20 -43t35 -23t52.5 -7q45 0 85.5 9t62.5 17l36 -238q-21 -9 -51.5 -18.5t-66 -16.5t-73.5 -11.5t-75 -4.5q-99 0 -167.5 20t-111.5 64t-62 113.5t-19 169.5v905h-82q-44 0 -76 -12.5t-53 -34.5t-31 -50.5t-10 -61.5q0 -31 10.5 -60.5 t28.5 -57t42 -52t51 -46.5z" />
<glyph horiz-adv-x="1108" d="M0 0v218l405 806h297l406 -806v-218h-1108zM330 248h448l-225 468z" />
<glyph horiz-adv-x="1156" d="M826 354h-266q35 -57 95.5 -84t142.5 -27q38 0 74 6t65.5 14t50.5 15.5t29 11.5l69 -232q-23 -14 -56.5 -27.5t-76.5 -25t-94.5 -18.5t-111.5 -7q-107 0 -197 26.5t-160 75.5t-118 118t-71 154h-96v116h721v-116zM826 554h-721v116h100q25 86 75 155t122 118t164 75 t201 26q55 0 102.5 -7.5t86.5 -18.5t68.5 -24t47.5 -23l-60 -237q-8 3 -28.5 10.5t-49.5 16t-64.5 14.5t-71.5 6q-81 0 -142.5 -27.5t-96.5 -83.5h267v-116z" />
<glyph horiz-adv-x="1233" d="M575 0h-520v228h227q-30 15 -66 45.5t-67 74t-52 97.5t-21 117q0 97 34 184.5t102 153.5t170 105t239 39q136 0 237 -40t167.5 -106.5t99 -151.5t32.5 -175q0 -75 -22 -133t-53.5 -100.5t-67 -69.5t-63.5 -40h227v-228h-520v216q37 21 69 53.5t56 74t37.5 91.5t13.5 107 q0 49 -14.5 94.5t-43 81t-70 57t-96.5 21.5q-50 0 -89 -21.5t-66 -55t-41.5 -74t-14.5 -78.5q0 -66 13.5 -121t37.5 -99t56 -77t69 -54v-216z" />
<glyph horiz-adv-x="1436" d="M712 -20q-156 0 -278.5 48.5t-206.5 138t-128 215t-44 279.5q0 152 45.5 279t132 218t210.5 141.5t281 50.5q156 0 278.5 -49t206.5 -138t128 -214.5t44 -279.5q0 -175 -59 -314.5t-171 -231.5l302 -273l-247 -189l-274 349q-51 -14 -105.5 -22t-114.5 -8zM723 238 q66 0 122 27.5t96.5 80.5t63.5 130.5t23 177.5t-22 181t-63 138t-99 88t-131 31q-66 0 -122 -27.5t-96.5 -80.5t-63.5 -130.5t-23 -177.5q0 -101 22 -182t63 -138t99 -87.5t131 -30.5z" />
<glyph horiz-adv-x="1128" d="M804 0l-66 184h-348l-66 -184h-329l414 1024h310l414 -1024h-329zM473 415h182l-91 253z" />
<glyph horiz-adv-x="1128" d="M804 0l-66 184h-348l-66 -184h-329l414 1024h310l414 -1024h-329zM473 415h182l-91 253zM259 1298l507 275l123 -270l-561 -156z" />
<glyph horiz-adv-x="1128" d="M804 0l-66 184h-348l-66 -184h-329l414 1024h310l414 -1024h-329zM473 415h182l-91 253zM485 1515q-4 -32 -2.5 -61t10.5 -50.5t26.5 -34.5t44.5 -13t44.5 13t26.5 34.5t10.5 50.5t-2.5 61h223q15 -108 -9.5 -179.5t-71 -113.5t-106 -59t-115.5 -17t-115.5 17t-106 59 t-71 113.5t-9.5 179.5h223z" />
<glyph horiz-adv-x="1128" d="M804 0l-66 184h-348l-66 -184h-329l414 1024h310l414 -1024h-329zM473 415h182l-91 253zM781 1125q-25 19 -54 43t-58.5 49t-56.5 49t-48 44q-21 -20 -48 -44t-56.5 -49t-58.5 -49t-54 -43l-159 190q38 25 84.5 57t96 66t99.5 69t96 68q46 -33 96 -68t99.5 -69t96 -66 t84.5 -57z" />
<glyph horiz-adv-x="1128" d="M804 0l-66 184h-348l-66 -184h-329l414 1024h310l414 -1024h-329zM473 415h182l-91 253zM157 1341q0 95 51.5 141t136.5 46q75 0 122.5 -43.5t47.5 -125.5q0 -96 -51.5 -141.5t-136.5 -45.5q-75 0 -122.5 43.5t-47.5 125.5zM613 1341q0 95 51.5 141t136.5 46 q75 0 122.5 -43.5t47.5 -125.5q0 -96 -51.5 -141.5t-136.5 -45.5q-75 0 -122.5 43.5t-47.5 125.5z" />
<glyph horiz-adv-x="1535" d="M779 0v174h-320l-120 -174h-349l721 1024h754v-243h-363v-146h343v-238h-343v-154h383v-243h-706zM618 405h161v232z" />
<glyph horiz-adv-x="1535" d="M779 0v174h-320l-120 -174h-349l721 1024h754v-243h-363v-146h343v-238h-343v-154h383v-243h-706zM618 405h161v232zM809 1298l507 275l123 -270l-561 -156z" />
<glyph horiz-adv-x="827" d="M80 698q0 76 23.5 139.5t68 109.5t110 71.5t151.5 25.5q87 0 153.5 -23t111 -65.5t67 -102.5t22.5 -133q0 -48 -18.5 -89.5t-49.5 -76.5t-71.5 -63.5t-84.5 -51t-89.5 -38t-85.5 -25.5q1 -38 11.5 -63.5t29.5 -41t45 -22t58 -6.5q31 0 60 5.5t53.5 13t43.5 15t31 12.5 l56 -226q-12 -10 -40.5 -24.5t-68 -27.5t-87.5 -22t-100 -9q-89 0 -162.5 20t-126 64t-82 113.5t-29.5 169.5v351zM388 584q42 20 71.5 53.5t29.5 87.5q0 35 -12 58t-35 23q-26 0 -40 -24.5t-14 -75.5v-122z" />
<glyph horiz-adv-x="1128" d="M804 0l-66 184h-348l-66 -184h-329l414 1024h310l414 -1024h-329zM473 415h182l-91 253zM800 1147l-561 156l123 270l507 -275z" />
<glyph horiz-adv-x="1128" d="M804 0l-66 184h-348l-66 -184h-329l414 1024h310l414 -1024h-329zM473 415h182l-91 253zM233 1469h662v-237h-662v237z" />
<glyph horiz-adv-x="1116" d="M30 270q0 52 17 93.5t42.5 74t56 55t57.5 35.5q-37 39 -60.5 72.5t-37 64t-18.5 59t-5 55.5q0 57 28.5 106t78 84.5t116.5 55.5t144 20q73 0 138 -19t113 -53t76 -79.5t28 -98.5q0 -30 -9.5 -49t-12.5 -24h314v-209h-156q10 -20 16.5 -51.5t6.5 -85.5q0 -32 -7.5 -60 t-18 -49.5t-22 -37.5t-18.5 -24l162 -153l-178 -170l-170 162q-17 -9 -42 -20.5t-58 -21t-73 -16t-86 -6.5q-106 0 -185 21.5t-131.5 59.5t-79 91.5t-26.5 117.5zM455 186q25 0 50.5 5t37.5 13l-197 188q-12 -11 -23 -31.5t-11 -55.5q0 -29 11 -51t30 -37t45.5 -23t56.5 -8z M503 657q17 20 29 43t12 55q0 23 -8.5 39t-22 26t-30.5 14.5t-34 4.5q-38 0 -65 -20.5t-26 -54.5q0 -14 3 -25.5t10 -23t18 -24t28 -28.5l313 -298q6 12 9.5 30.5t2.5 39t-6 41t-16 37.5h-77z" />
<glyph horiz-adv-x="1200" d="M1028 0q-39 -34 -67.5 -79.5t-28.5 -92.5q0 -51 26.5 -73t67.5 -22q39 0 72.5 11.5t56.5 22.5l50 -207q-12 -10 -35.5 -21t-54 -20t-66 -15t-72.5 -6q-57 0 -112.5 12.5t-100 43t-71.5 81.5t-27 128q0 38 14 73.5t35 66.5t45 56t44 41l-66 184h-348l-66 -184h-329 l414 1024h310l414 -1024h-105zM473 415h182l-91 253z" />
<glyph horiz-adv-x="1126" d="M140 341q21 32 50 61t64.5 51.5t75.5 36t82 13.5q36 0 72 -10t74 -22.5t78.5 -22.5t85.5 -10q29 0 57 6t52.5 15.5t45.5 20.5t36 22l103 -165q-23 -32 -55.5 -59.5t-71.5 -48t-83.5 -32.5t-91.5 -12q-44 0 -83.5 10t-77.5 22.5t-74.5 22.5t-74.5 10q-21 0 -44 -7.5 t-45 -19t-40.5 -24.5t-31.5 -23zM110 677q22 36 53.5 65.5t69.5 51t81 33.5t88 12t86 -10t80 -22.5t77 -22.5t77 -10q28 0 54.5 7.5t49.5 19t43 24t34 23.5l103 -165q-23 -36 -54 -65.5t-69 -51t-81 -33.5t-88 -12t-86 10t-80 22.5t-77 22.5t-77 10q-28 0 -54.5 -7.5 t-49.5 -19t-43 -24.5t-34 -23z" />
<glyph horiz-adv-x="1128" d="M804 0l-66 184h-348l-66 -184h-329l414 1024h310l414 -1024h-329zM473 415h182l-91 253zM303 1339q0 64 19.5 110.5t55.5 77.5t86 46t111 15q55 0 101 -14.5t79 -43.5t51.5 -71.5t18.5 -97.5q0 -64 -19.5 -111t-55.5 -77.5t-86 -45.5t-111 -15q-56 0 -102 14.5t-79 43.5 t-51 71t-18 98zM498 1347q0 -31 17 -47t46 -16q32 0 50.5 17t18.5 52q0 31 -17 47t-46 16q-32 0 -50.5 -17t-18.5 -52z" />
<glyph horiz-adv-x="1128" d="M804 0l-66 184h-348l-66 -184h-329l414 1024h310l414 -1024h-329zM473 415h182l-91 253zM361 1287q0 103 58 153t154 50q43 0 79 -12t61.5 -35.5t39.5 -58t14 -79.5q0 -104 -58 -153.5t-154 -49.5q-43 0 -79 12t-61.5 35.5t-39.5 58t-14 79.5zM523 1294q0 -19 11 -29 t28 -10q20 0 31.5 10.5t11.5 32.5q0 19 -11 29t-28 10q-20 0 -31.5 -10.5t-11.5 -32.5zM314 1604l388 229l113 -216l-436 -137z" />
<glyph horiz-adv-x="1128" d="M804 0l-66 184h-348l-66 -184h-329l414 1024h310l414 -1024h-329zM473 415h182l-91 253zM172 1290q8 33 28.5 73t53.5 75t79 58.5t106 23.5q39 0 74 -12t66 -27t58.5 -27t50.5 -12q16 0 29 5.5t25.5 16.5t27 27.5t32.5 37.5l155 -110q-12 -40 -34.5 -81t-57.5 -74 t-82.5 -53.5t-108.5 -20.5q-32 0 -63.5 12t-61.5 27t-58 27t-53 12q-16 0 -28.5 -5.5t-25 -16.5t-26 -27.5t-31.5 -37.5z" />
<glyph horiz-adv-x="974" d="M95 0v1024h374q220 0 330 -72t110 -216q0 -58 -31 -110t-88 -87q35 -11 63.5 -31.5t48.5 -49t31 -63.5t11 -74q0 -76 -28 -135.5t-82 -101t-132 -63t-177 -21.5h-430zM413 424v-190h97q51 0 78.5 21.5t27.5 63.5q0 50 -28 77.5t-78 27.5h-97zM413 619h140q13 17 20.5 39 t7.5 44q0 39 -29.5 63.5t-77.5 24.5h-61v-171z" />
<glyph horiz-adv-x="689" d="M380 1176q0 -26 14 -58t35.5 -68t46 -73.5t46 -75.5t35.5 -74.5t14 -69.5q0 -54 -15.5 -95.5t-43.5 -72.5t-66.5 -50t-84.5 -28q46 -8 84.5 -27t66.5 -48t43.5 -67.5t15.5 -85.5q0 -32 -14 -71t-35.5 -80t-46 -82.5t-46 -79t-35.5 -69t-14 -52.5q0 -45 26.5 -70t81.5 -25 q39 0 70.5 6t50.5 12l30 -202q-25 -14 -76 -26.5t-111 -12.5q-78 0 -142.5 15.5t-111 49.5t-72 87t-25.5 127q0 42 13.5 85t33 84t43 80t43 74.5t33 66.5t13.5 56q0 40 -14 69t-40 48.5t-63 29.5t-83 11v195q92 2 146 38t54 103q0 29 -13.5 62.5t-33 70t-43 75t-43 77 t-33 76t-13.5 72.5q0 80 27.5 138.5t74.5 96.5t111 56t138 18q60 0 111 -12.5t76 -26.5l-30 -202q-19 6 -50.5 12t-70.5 6q-27 0 -47.5 -8.5t-34 -21.5t-20 -30t-6.5 -33z" />
<glyph horiz-adv-x="719" d="M359 -153q0 26 -14 58t-35.5 68t-46 73.5t-46 75.5t-35.5 74.5t-14 69.5q0 54 15.5 95.5t43.5 72.5t66.5 50t84.5 28q-46 8 -84.5 27t-66.5 48t-43.5 67.5t-15.5 85.5q0 32 14 71t35.5 80t46 82.5t46 79t35.5 69t14 52.5q0 45 -26.5 70t-81.5 25q-39 0 -70.5 -6 t-50.5 -12l-30 202q25 14 76 26.5t111 12.5q78 0 142.5 -16t111 -49.5t72 -86.5t25.5 -127q0 -43 -13.5 -85.5t-33 -83.5t-43 -80t-43 -74.5t-33 -66.5t-13.5 -56q0 -40 14 -69t40 -48.5t63 -29.5t83 -11v-195q-92 -2 -146 -38t-54 -103q0 -29 13.5 -62.5t33 -70t43 -75 t43 -77t33 -76t13.5 -72.5q0 -80 -27.5 -138.5t-74.5 -96.5t-111.5 -56t-137.5 -18q-60 0 -111 12.5t-76 26.5l30 202q19 -6 50.5 -12t70.5 -6q27 0 47.5 8.5t34 21.5t20 29.5t6.5 33.5z" />
<glyph horiz-adv-x="665" d="M655 -422l-540 -8v1884h540v-223l-252 -5v-1428h252v-220z" />
<glyph horiz-adv-x="665" d="M30 1446l540 8v-1884h-540v223l252 5v1428h-252v220z" />
<glyph horiz-adv-x="958" d="M373 518q0 -71 19.5 -123t55.5 -85.5t87.5 -50t114.5 -16.5q38 0 74 6t65.5 14t50.5 15.5t29 11.5l69 -232q-23 -14 -56.5 -27.5t-76.5 -25t-94.5 -18.5t-111.5 -7q-128 0 -232.5 38t-178 107t-113.5 165t-40 212q0 121 41 221t117 171.5t184 110.5t242 39 q55 0 102.5 -7.5t86.5 -18.5t68.5 -24t47.5 -23l-60 -237q-8 3 -28.5 10.5t-49.5 16t-64.5 14.5t-71.5 6q-62 0 -112.5 -16t-87.5 -49t-57 -82.5t-20 -115.5z" />
<glyph horiz-adv-x="2022" d="M710 688q-31 18 -57.5 42.5t-49.5 50.5h-3q-114 0 -170.5 -68.5t-56.5 -194.5q0 -135 54.5 -205t172.5 -70q40 0 78 6t68.5 14t52.5 15.5t30 11.5l69 -232q-24 -14 -58.5 -27.5t-78.5 -25t-97 -18.5t-115 -7q-121 0 -216.5 38t-161.5 107t-101 165t-35 212 q0 111 29.5 203.5t85.5 162t137.5 113.5t185.5 57q-11 25 -16.5 52t-5.5 58q0 70 31.5 130.5t93 105.5t152.5 70.5t210 25.5h397v-1l5 1v-525q10 10 32.5 25t54 29.5t71 24.5t83.5 10q97 0 172.5 -38t127.5 -107t79 -165t27 -213q0 -121 -35.5 -220.5t-105.5 -171 t-172.5 -110.5t-236.5 -39q-61 0 -120.5 8.5t-114 23.5t-103 36t-87.5 46v1158h-83q-44 0 -76 -12.5t-53 -34.5t-31 -50.5t-10 -61.5q0 -31 10.5 -60.5t28.5 -57t42 -52t51 -46.5zM1649 506q0 63 -11 114.5t-32.5 88t-55 57t-78.5 20.5q-18 0 -37 -4t-37 -10.5t-33.5 -14.5 t-24.5 -16v-500q14 -5 40 -9t67 -4q56 0 94.5 21t62.5 58t34.5 88t10.5 111z" />
<glyph horiz-adv-x="1952" d="M373 518q0 -71 19.5 -123t55.5 -85.5t87.5 -50t114.5 -16.5q38 0 74 6t65.5 14t50.5 15.5t29 11.5l69 -232q-23 -14 -56.5 -27.5t-76.5 -25t-94.5 -18.5t-111.5 -7q-128 0 -232.5 38t-178 107t-113.5 165t-40 212q0 121 41 221t117 171.5t184 110.5t242 39 q55 0 102.5 -7.5t86.5 -18.5t68.5 -24t47.5 -23l-60 -237q-8 3 -28.5 10.5t-49.5 16t-64.5 14.5t-71.5 6q-62 0 -112.5 -16t-87.5 -49t-57 -82.5t-20 -115.5zM1073 0v1024h374q220 0 330 -72t110 -216q0 -58 -31 -110t-88 -87q35 -11 63.5 -31.5t48.5 -49t31 -63.5t11 -74 q0 -76 -28 -135.5t-82 -101t-132 -63t-177 -21.5h-430zM1391 424v-190h97q51 0 78.5 21.5t27.5 63.5q0 50 -28 77.5t-78 27.5h-97zM1391 619h140q13 17 20.5 39t7.5 44q0 39 -29.5 63.5t-77.5 24.5h-61v-171z" />
<glyph horiz-adv-x="2059" d="M710 688q-31 18 -57.5 42.5t-49.5 50.5h-3q-114 0 -170.5 -68.5t-56.5 -194.5q0 -135 54.5 -205t172.5 -70q40 0 78 6t68.5 14t52.5 15.5t30 11.5l69 -232q-24 -14 -58.5 -27.5t-78.5 -25t-97 -18.5t-115 -7q-121 0 -216.5 38t-161.5 107t-101 165t-35 212 q0 111 29.5 203.5t85.5 162t137.5 113.5t185.5 57q-11 25 -16.5 52t-5.5 58q0 70 31.5 130.5t93 105.5t152.5 70.5t210 25.5h397v-531q19 16 46 32.5t61 30.5t73.5 23t84.5 9q178 0 268.5 -89t90.5 -281v-674h-328v623q0 81 -30 117t-101 36q-20 0 -42.5 -4.5t-45 -12 t-42.5 -18t-34 -21.5v-720h-329v1252h-78q-44 0 -76 -12.5t-53 -34.5t-31 -50.5t-10 -61.5q0 -31 10.5 -60.5t28.5 -57t42 -52t51 -46.5z" />
<glyph horiz-adv-x="2170" d="M373 518q0 -71 19.5 -123t55.5 -85.5t87.5 -50t114.5 -16.5q38 0 74 6t65.5 14t50.5 15.5t29 11.5l69 -232q-23 -14 -56.5 -27.5t-76.5 -25t-94.5 -18.5t-111.5 -7q-128 0 -232.5 38t-178 107t-113.5 165t-40 212q0 121 41 221t117 171.5t184 110.5t242 39 q55 0 102.5 -7.5t86.5 -18.5t68.5 -24t47.5 -23l-60 -237q-8 3 -28.5 10.5t-49.5 16t-64.5 14.5t-71.5 6q-62 0 -112.5 -16t-87.5 -49t-57 -82.5t-20 -115.5zM1747 397h-326v-397h-328v1024h328v-389h326v389h328v-1024h-328v397z" />
<glyph horiz-adv-x="2004" d="M710 688q-31 18 -57.5 42.5t-49.5 50.5h-3q-114 0 -170.5 -68.5t-56.5 -194.5q0 -135 54.5 -205t172.5 -70q40 0 78 6t68.5 14t52.5 15.5t30 11.5l69 -232q-24 -14 -58.5 -27.5t-78.5 -25t-97 -18.5t-115 -7q-121 0 -216.5 38t-161.5 107t-101 165t-35 212 q0 111 29.5 203.5t85.5 162t137.5 113.5t185.5 57q-11 25 -16.5 52t-5.5 58q0 70 31.5 130.5t93 105.5t152.5 70.5t210 25.5h397v-866l297 410h352l-308 -422l328 -602h-365l-209 406l-95 -131v-275h-328v1252h-78q-44 0 -76 -12.5t-53 -34.5t-31 -50.5t-10 -61.5 q0 -31 10.5 -60.5t28.5 -57t42 -52t51 -46.5z" />
<glyph horiz-adv-x="2060" d="M373 518q0 -71 19.5 -123t55.5 -85.5t87.5 -50t114.5 -16.5q38 0 74 6t65.5 14t50.5 15.5t29 11.5l69 -232q-23 -14 -56.5 -27.5t-76.5 -25t-94.5 -18.5t-111.5 -7q-128 0 -232.5 38t-178 107t-113.5 165t-40 212q0 121 41 221t117 171.5t184 110.5t242 39 q55 0 102.5 -7.5t86.5 -18.5t68.5 -24t47.5 -23l-60 -237q-8 3 -28.5 10.5t-49.5 16t-64.5 14.5t-71.5 6q-62 0 -112.5 -16t-87.5 -49t-57 -82.5t-20 -115.5zM1401 1024v-396l287 396h367l-320 -429l325 -595h-365l-209 406l-85 -118v-288h-328v1024h328z" />
<glyph horiz-adv-x="1454" d="M710 688q-31 18 -57.5 42.5t-49.5 50.5h-3q-114 0 -170.5 -68.5t-56.5 -194.5q0 -135 54.5 -205t172.5 -70q40 0 78 6t68.5 14t52.5 15.5t30 11.5l69 -232q-24 -14 -58.5 -27.5t-78.5 -25t-97 -18.5t-115 -7q-121 0 -216.5 38t-161.5 107t-101 165t-35 212 q0 111 29.5 203.5t85.5 162t137.5 113.5t185.5 57q-11 25 -16.5 52t-5.5 58q0 70 31.5 130.5t93 105.5t152.5 70.5t210 25.5h397v-1l4 1v-1480h-328v1252h-82q-44 0 -76 -12.5t-53 -34.5t-31 -50.5t-10 -61.5q0 -31 10.5 -60.5t28.5 -57t42 -52t51 -46.5z" />
<glyph horiz-adv-x="1821" d="M373 518q0 -71 19.5 -123t55.5 -85.5t87.5 -50t114.5 -16.5q38 0 74 6t65.5 14t50.5 15.5t29 11.5l69 -232q-23 -14 -56.5 -27.5t-76.5 -25t-94.5 -18.5t-111.5 -7q-128 0 -232.5 38t-178 107t-113.5 165t-40 212q0 121 41 221t117 171.5t184 110.5t242 39 q55 0 102.5 -7.5t86.5 -18.5t68.5 -24t47.5 -23l-60 -237q-8 3 -28.5 10.5t-49.5 16t-64.5 14.5t-71.5 6q-62 0 -112.5 -16t-87.5 -49t-57 -82.5t-20 -115.5zM1073 1024h328v-779h430v-245h-758v1024z" />
<glyph horiz-adv-x="1647" d="M710 688q-31 18 -57.5 42.5t-49.5 50.5h-3q-114 0 -170.5 -68.5t-56.5 -194.5q0 -135 54.5 -205t172.5 -70q40 0 78 6t68.5 14t52.5 15.5t30 11.5l69 -232q-24 -14 -58.5 -27.5t-78.5 -25t-97 -18.5t-115 -7q-121 0 -216.5 38t-161.5 107t-101 165t-35 212 q0 111 29.5 203.5t85.5 162t137.5 113.5t185.5 57q-11 25 -16.5 52t-5.5 58q0 70 31.5 130.5t93 105.5t152.5 70.5t210 25.5h397v-456h258v-238h-254v-403q0 -40 6.5 -67t20 -43t35 -23t52.5 -7q45 0 85.5 9t62.5 17l36 -238q-21 -9 -51.5 -18.5t-66 -16.5t-73.5 -11.5 t-75 -4.5q-99 0 -167.5 20t-111.5 64t-62 113.5t-19 169.5v905h-82q-44 0 -76 -12.5t-53 -34.5t-31 -50.5t-10 -61.5q0 -31 10.5 -60.5t28.5 -57t42 -52t51 -46.5z" />
<glyph horiz-adv-x="1908" d="M373 518q0 -71 19.5 -123t55.5 -85.5t87.5 -50t114.5 -16.5q38 0 74 6t65.5 14t50.5 15.5t29 11.5l69 -232q-23 -14 -56.5 -27.5t-76.5 -25t-94.5 -18.5t-111.5 -7q-128 0 -232.5 38t-178 107t-113.5 165t-40 212q0 121 41 221t117 171.5t184 110.5t242 39 q55 0 102.5 -7.5t86.5 -18.5t68.5 -24t47.5 -23l-60 -237q-8 3 -28.5 10.5t-49.5 16t-64.5 14.5t-71.5 6q-62 0 -112.5 -16t-87.5 -49t-57 -82.5t-20 -115.5zM1289 779h-296v245h920v-245h-296v-779h-328v779z" />
<glyph horiz-adv-x="959" d="M374 518q0 -71 19.5 -123t55.5 -85.5t87.5 -50t114.5 -16.5q38 0 74 6t65.5 14t50.5 15.5t29 11.5l69 -232q-23 -14 -56.5 -27.5t-76.5 -25t-94.5 -18.5t-111.5 -7q-128 0 -232.5 38t-178 107t-113.5 165t-40 212q0 121 41 221t117 171.5t184 110.5t242 39 q55 0 102.5 -7.5t86.5 -18.5t68.5 -24t47.5 -23l-60 -237q-8 3 -28.5 10.5t-49.5 16t-64.5 14.5t-71.5 6q-62 0 -112.5 -16t-87.5 -49t-57 -82.5t-20 -115.5zM280 1298l507 275l123 -270l-561 -156z" />
<glyph horiz-adv-x="958" d="M373 518q0 -71 19.5 -123t55.5 -85.5t87.5 -50t114.5 -16.5q38 0 74 6t65.5 14t50.5 15.5t29 11.5l69 -232q-23 -14 -56.5 -27.5t-76.5 -25t-94.5 -18.5t-111.5 -7q-128 0 -232.5 38t-178 107t-113.5 165t-40 212q0 121 41 221t117 171.5t184 110.5t242 39 q55 0 102.5 -7.5t86.5 -18.5t68.5 -24t47.5 -23l-60 -237q-8 3 -28.5 10.5t-49.5 16t-64.5 14.5t-71.5 6q-62 0 -112.5 -16t-87.5 -49t-57 -82.5t-20 -115.5zM365 1593q31 -19 64 -44.5t64.5 -53.5t59 -55.5t47.5 -51.5q20 24 47.5 51.5t59 55.5t64.5 53.5t64 44.5l143 -198 q-47 -28 -100 -63t-104 -72.5t-96 -76.5t-78 -75q-33 36 -78 75t-96 76.5t-104 72.5t-100 63z" />
<glyph horiz-adv-x="958" d="M373 518q0 -71 19.5 -123t55.5 -85.5t87.5 -50t114.5 -16.5q38 0 74 6t65.5 14t50.5 15.5t29 11.5l69 -232q-23 -14 -56.5 -27.5t-76.5 -25t-94.5 -18.5t-111.5 -7q-128 0 -232.5 38t-178 107t-113.5 165t-40 212q0 121 41 221t117 171.5t184 110.5t242 39 q55 0 102.5 -7.5t86.5 -18.5t68.5 -24t47.5 -23l-60 -237q-8 3 -28.5 10.5t-49.5 16t-64.5 14.5t-71.5 6q-62 0 -112.5 -16t-87.5 -49t-57 -82.5t-20 -115.5zM330 -407q14 -4 31 -7t43 -3q49 0 78 18t29 57q0 40 -28.5 54.5t-76.5 14.5h-53l11 167h127q55 0 103.5 -13.5 t85 -42t57.5 -71.5t21 -103q0 -69 -25 -116t-68 -75.5t-100 -41t-121 -12.5q-46 0 -81.5 6t-51.5 14z" />
<glyph horiz-adv-x="958" d="M373 518q0 -71 19.5 -123t55.5 -85.5t87.5 -50t114.5 -16.5q38 0 74 6t65.5 14t50.5 15.5t29 11.5l69 -232q-23 -14 -56.5 -27.5t-76.5 -25t-94.5 -18.5t-111.5 -7q-128 0 -232.5 38t-178 107t-113.5 165t-40 212q0 121 41 221t117 171.5t184 110.5t242 39 q55 0 102.5 -7.5t86.5 -18.5t68.5 -24t47.5 -23l-60 -237q-8 3 -28.5 10.5t-49.5 16t-64.5 14.5t-71.5 6q-62 0 -112.5 -16t-87.5 -49t-57 -82.5t-20 -115.5zM805 1125q-25 19 -54 43t-58.5 49t-56.5 49t-48 44q-21 -20 -48 -44t-56.5 -49t-58.5 -49t-54 -43l-159 190 q38 25 84.5 57t96 66t99.5 69t96 68q46 -33 96 -68t99.5 -69t96 -66t84.5 -57z" />
<glyph horiz-adv-x="958" d="M373 518q0 -71 19.5 -123t55.5 -85.5t87.5 -50t114.5 -16.5q38 0 74 6t65.5 14t50.5 15.5t29 11.5l69 -232q-23 -14 -56.5 -27.5t-76.5 -25t-94.5 -18.5t-111.5 -7q-128 0 -232.5 38t-178 107t-113.5 165t-40 212q0 121 41 221t117 171.5t184 110.5t242 39 q55 0 102.5 -7.5t86.5 -18.5t68.5 -24t47.5 -23l-60 -237q-8 3 -28.5 10.5t-49.5 16t-64.5 14.5t-71.5 6q-62 0 -112.5 -16t-87.5 -49t-57 -82.5t-20 -115.5zM419 1341q0 95 51.5 141t136.5 46q75 0 122.5 -43.5t47.5 -125.5q0 -96 -51.5 -141.5t-136.5 -45.5 q-75 0 -122.5 43.5t-47.5 125.5z" />
<glyph horiz-adv-x="1123" d="M806 1264l-23 -225q81 -9 139 -30t87 -38l-60 -237q-8 3 -28.5 10.5t-49.5 16t-64.5 14.5t-71.5 6q-62 0 -112.5 -16t-87.5 -49t-57 -82.5t-20 -115.5q0 -71 19.5 -123t55.5 -85.5t87.5 -50t114.5 -16.5q38 0 74 6t65.5 14t50.5 15.5t29 11.5l69 -232q-35 -21 -94 -41 t-138 -30l23 -228h-260l23 228q-105 15 -190 58.5t-144 110t-91 154.5t-32 192q0 105 31 194.5t89.5 158.5t141.5 114.5t188 63.5l-24 231h260z" />
<glyph horiz-adv-x="528" d="M176 -303q0 29 -9.5 54.5t-22.5 46t-26.5 35t-21.5 22.5l254 56q15 -12 34.5 -32.5t36.5 -48t28.5 -60.5t11.5 -69q0 -62 -27.5 -110t-77 -81.5t-118.5 -53.5t-151 -27l-52 151q25 4 50 13.5t45.5 24t33 34t12.5 45.5z" />
<glyph horiz-adv-x="1400" d="M1137 -83l-208 201q-50 -23 -107.5 -35t-121.5 -12q-65 0 -122 12t-107 35l-208 -201l-153 127l189 215q-38 53 -58 116.5t-20 135.5t20 135t58 117l-189 215l153 127l208 -203q50 23 107 35.5t122 12.5q64 0 121 -12.5t107 -35.5l209 203l153 -127l-189 -216 q38 -53 58 -116.5t20 -134.5t-19.5 -133t-56.5 -115l187 -219zM700 296q46 0 83 16t63 44.5t40 68t14 86.5t-14 86t-40 67.5t-63 44.5t-83 16t-83 -16t-63 -44.5t-40 -67.5t-14 -86t14 -86.5t40 -68t63 -44.5t83 -16z" />
<glyph horiz-adv-x="1109" d="M95 0v1024h399q138 0 246 -35t182 -100.5t113 -159t39 -209.5q0 -123 -37.5 -219.5t-109.5 -163t-178.5 -102t-244.5 -35.5h-409zM495 234q58 0 103 20t75.5 56.5t46.5 87t16 111.5q0 136 -63 208.5t-169 72.5h-81v-556h72z" />
<glyph horiz-adv-x="1286" d="M818 1393l-10 -403l363 23v-287l-368 23l-24 -1023h-273l-24 1023l-367 -23v287l361 -23l-9 403h351z" />
<glyph horiz-adv-x="1246" d="M447 -274l19 377l-351 -23v287l363 -24l11 213l-12 235l-362 -23v287l350 -23l-18 361h351l-19 -361l352 23v-287l-364 23l-11 -230l11 -218l364 24v-287l-352 23l19 -377h-351z" />
<glyph horiz-adv-x="1109" d="M95 0v1024h399q138 0 246 -35t182 -100.5t113 -159t39 -209.5q0 -123 -37.5 -219.5t-109.5 -163t-178.5 -102t-244.5 -35.5h-409zM495 234q58 0 103 20t75.5 56.5t46.5 87t16 111.5q0 136 -63 208.5t-169 72.5h-81v-556h72zM272 1593q31 -19 64 -44.5t64.5 -53.5 t59 -55.5t47.5 -51.5q20 24 47.5 51.5t59 55.5t64.5 53.5t64 44.5l143 -198q-47 -28 -100 -63t-104 -72.5t-96 -76.5t-78 -75q-33 36 -78 75t-96 76.5t-104 72.5t-100 63z" />
<glyph horiz-adv-x="1124" d="M-25 574h135v450h399q138 0 246 -35t182 -100.5t113 -159t39 -209.5q0 -123 -37.5 -219.5t-109.5 -163t-178.5 -102t-244.5 -35.5h-409v451h-135v123zM510 234q58 0 103 20t75.5 56.5t46.5 87t16 111.5q0 136 -63 208.5t-169 72.5h-81v-216h165v-123h-165v-217h72z" />
</font>
</defs>
</svg>
