<?xml version="1.0" standalone="no"?>
<!DOCTYPE svg PUBLIC "-//W3C//DTD SVG 1.1//EN" "http://www.w3.org/Graphics/SVG/1.1/DTD/svg11.dtd" >
<svg xmlns="http://www.w3.org/2000/svg">
<metadata></metadata>
<defs>
<font id="libertadbold_italic" horiz-adv-x="1674" >
<font-face units-per-em="2048" ascent="1638" descent="-410" />
<missing-glyph horiz-adv-x="426" />
<glyph unicode="&#x31;&#x2f;&#x34;" horiz-adv-x="1425" d="M1224 410l-28 -170h89l-20 -132h-85l-17 -108h-169l16 108h-288l21 129l217 362l174 -20l-208 -339h108l28 170h162zM146 751l30 185q23 0 47 0.5t47 1.5l37 233l-30 -5t-37.5 -5.5t-38 -4.5t-31.5 -3l7 154q31 4 65.5 9t69.5 10.5t69.5 11.5t66.5 12h80l-65 -408 q20 0 40.5 -1t40.5 -1l-30 -189h-368zM1365 1247l-1189 -1267l-126 103l1188 1268z" />
<glyph unicode="&#x31;&#x2f;&#x32;" horiz-adv-x="1455" d="M1365 1247l-1189 -1267l-126 103l1188 1268zM805 144q69 37 121 67.5t87 57.5t52.5 54t17.5 57q0 27 -13.5 42t-42.5 15q-21 0 -42.5 -4.5t-40.5 -10.5t-34.5 -12t-22.5 -9l-21 142q9 6 30 15.5t50 18.5t64 15.5t71 6.5q54 0 92.5 -13t63.5 -36.5t37 -55t12 -68.5 q0 -48 -17.5 -87t-49.5 -71.5t-76.5 -60t-98.5 -52.5h222l-24 -155h-460zM146 751l30 185q23 0 47 0.5t47 1.5l37 233l-30 -5t-37.5 -5.5t-38 -4.5t-31.5 -3l7 154q31 4 65.5 9t69.5 10.5t69.5 11.5t66.5 12h80l-65 -408q20 0 40.5 -1t40.5 -1l-30 -189h-368z" />
<glyph unicode="&#x33;&#x2f;&#x34;" horiz-adv-x="1495" d="M487 1153q2 24 -14.5 37.5t-51.5 13.5q-33 0 -67.5 -8t-56.5 -18l-15 131q8 4 26 11t43 14t55.5 11.5t65.5 4.5q109 0 161 -41t52 -108q0 -31 -10 -55t-24 -41.5t-30 -29.5t-28 -19h-1q10 -6 22 -15.5t22.5 -24.5t17.5 -34.5t7 -44.5q0 -98 -76.5 -152t-216.5 -54 q-29 0 -56.5 4t-50.5 9.5t-41 12t-27 12.5l55 134q15 -7 49 -16.5t80 -9.5q48 0 72 14.5t24 49.5q0 46 -61 46h-94l18 113h122q8 6 17.5 19.5t11.5 33.5zM1435 1247l-1189 -1267l-126 103l1188 1268zM1294 410l-28 -170h89l-20 -132h-85l-17 -108h-169l16 108h-288l21 129 l217 362l174 -20l-208 -339h108l28 170h162z" />
<glyph unicode="ff" horiz-adv-x="1274" d="M1121 1120q-2 -26 -1 -54t3 -42h243l-32 -199h-233l-131 -825h-264l131 825h-318l-194 -1221h-264l194 1221h-142l29 181l149 10q-2 18 -2.5 38.5t-0.5 41.5q1 91 27.5 162.5t77 120.5t122.5 75t165 26q36 0 67.5 -4t56 -9.5t41 -10.5t22.5 -8l-66 -187q-19 5 -46.5 9.5 t-56.5 4.5q-81 0 -117.5 -41.5t-40.5 -114.5q-2 -24 -1.5 -51.5t2.5 -43.5h331q-2 23 -2 52t3 57q8 165 116.5 256t305.5 91q37 0 72.5 -5t64.5 -11.5t50.5 -13.5t29.5 -10l-63 -187q-26 8 -71 15t-91 7q-44 0 -74.5 -11.5t-50 -32.5t-29.5 -49.5t-12 -61.5z" />
<glyph unicode="f&#x131;" horiz-adv-x="1118" d="M797 825h-278l-194 -1221h-264l194 1221h-142l29 181l149 10q-11 110 13.5 196t84.5 145.5t156 91t230 31.5q54 0 102.5 -6.5t87 -15.5t65.5 -18t38 -14l-66 -187q-18 6 -44 12.5t-57.5 12t-66 8.5t-70.5 3q-55 0 -94.5 -10t-65.5 -28.5t-41 -45t-21 -59.5 q-5 -27 -4.5 -58t3.5 -50h552l-123 -773q-15 -92 -19 -153.5t-1 -97.5h-248q-3 10 -6 31t-4.5 48t-0.5 58t6 63z" />
<glyph unicode="fl" horiz-adv-x="1165" d="M893 1162q9 52 15 102q-29 5 -65.5 8t-78.5 3q-55 0 -94.5 -10t-65.5 -28.5t-41 -45t-21 -59.5q-5 -27 -4.5 -58t3.5 -50h204l-31 -199h-195l-194 -1221h-264l194 1221h-142l29 181l149 10q-11 110 13.5 196t84.5 145.5t155.5 91t227.5 31.5q67 0 130 -8t118 -19.5 t98.5 -24t70.5 -21.5q-6 -71 -16 -141l-161 -1015q-14 -94 -18.5 -154.5t-1.5 -96.5h-247q-4 10 -7 31t-4.5 48t-0.5 58t6 63z" />
<glyph unicode="ff&#x131;" horiz-adv-x="1700" d="M1379 825h-278l-131 -825h-264l131 825h-318l-194 -1221h-264l194 1221h-142l29 181l149 10q-11 108 10 194t70.5 146t127.5 92t181 32q36 0 67.5 -4t56 -9.5t41 -10.5t22.5 -8l-66 -187q-19 5 -46.5 9.5t-56.5 4.5q-72 0 -109.5 -33t-46.5 -95q-5 -29 -4.5 -64.5 t3.5 -58.5h331q-10 100 11 180.5t71.5 139t128 92t181.5 39.5q30 2 60.5 1.5t59.5 -2.5q32 -3 60.5 -8.5t52 -11.5t40.5 -12t25 -10l-66 -187q-15 6 -36 11t-46.5 9.5t-54 7t-57.5 2.5q-44 0 -76 -10t-53.5 -28.5t-33.5 -45t-17 -59.5q-4 -27 -3 -58t4 -50h244h308 l-123 -773q-15 -94 -19 -154.5t-1 -96.5h-248q-3 10 -6.5 31t-5 48t0 58t6.5 63z" />
<glyph unicode="ffl" horiz-adv-x="1745" d="M1475 1162q9 52 15 102q-29 5 -65.5 8t-78.5 3q-55 0 -94.5 -10t-65.5 -28.5t-41 -45t-21 -59.5q-5 -27 -4.5 -58t3.5 -50h204l-31 -199h-195l-194 -1221h-264l194 1221h-318l-194 -1221h-264l194 1221h-142l29 181l149 10q-11 108 10 194t70.5 146t127.5 92t181 32 q36 0 67.5 -4t56 -9.5t41 -10.5t22.5 -8l-66 -187q-19 5 -46.5 9.5t-56.5 4.5q-72 0 -109.5 -33t-46.5 -95q-5 -29 -4.5 -64.5t3.5 -58.5h331q-10 108 15 192.5t85 143t155.5 89.5t226.5 31q66 0 129 -8t118 -19.5t98.5 -24t71.5 -21.5q-6 -54 -12.5 -106t-14.5 -105 l-150 -945q-14 -94 -18.5 -154.5t-1.5 -96.5h-247q-4 10 -7 31t-4.5 48t-0.5 58t6 63z" />
<glyph unicode="&#x2d;&#x3e;" horiz-adv-x="1825" d="M1241 1063l464 -551l-89 -76q-137 -120 -274.5 -237.5t-275.5 -237.5l-126 149l467 402l-340 402zM213 618h900l-33 -211h-900z" />
<glyph unicode="fb" horiz-adv-x="1718" d="M1029 619q33 85 78.5 162t100.5 135.5t117.5 93t128.5 34.5q106 0 169.5 -80t63.5 -246q0 -96 -17.5 -188t-51 -174t-82.5 -151t-112 -119t-139.5 -78t-165.5 -28q-71 0 -136.5 12.5t-118.5 30t-90.5 35t-52.5 26.5l172 1078q9 52 15 102q-29 5 -65.5 8t-78.5 3 q-63 0 -104.5 -13t-67.5 -35.5t-37.5 -53t-14.5 -66.5q-2 -22 -1.5 -46t2.5 -37h204l-31 -199h-195l-131 -825h-264l131 825h-142l29 181l149 10q-3 18 -3.5 37.5t-0.5 39.5q3 184 124.5 285.5t360.5 101.5q67 0 130 -8t118 -19.5t98.5 -24t70.5 -21.5 q-11 -104 -26.5 -204.5t-31.5 -201.5q-14 -86 -39.5 -181.5t-62.5 -200.5zM1141 186q58 0 108 43.5t87 116.5t58.5 168t21.5 197q0 103 -58 103q-21 0 -51 -22t-64.5 -61.5t-70.5 -94.5t-69.5 -121t-62 -140.5t-46.5 -153.5q5 -3 19 -9t33.5 -11.5t44 -10t50.5 -4.5z" />
<glyph unicode="ffb" horiz-adv-x="2300" d="M1611 619q33 85 78.5 162t100.5 135.5t117.5 93t128.5 34.5q106 0 169.5 -80t63.5 -246q0 -96 -17.5 -188t-51 -174t-82.5 -151t-112 -119t-139.5 -78t-165.5 -28q-71 0 -136.5 12.5t-118.5 30t-90.5 35t-52.5 26.5l172 1078q9 52 15 102q-29 5 -65.5 8t-78.5 3 q-63 0 -104.5 -13t-67.5 -35.5t-37.5 -53t-14.5 -66.5q-2 -22 -1.5 -46t2.5 -37h204l-31 -199h-195l-131 -825h-264l131 825h-318l-194 -1221h-264l194 1221h-142l29 181l149 10q-2 18 -2.5 38.5t-0.5 41.5q1 91 27.5 162.5t77 120.5t122.5 75t165 26q36 0 67.5 -4t56 -9.5 t41 -10.5t22.5 -8l-66 -187q-19 5 -46.5 9.5t-56.5 4.5q-81 0 -117.5 -41.5t-40.5 -114.5q-2 -24 -1.5 -51.5t2.5 -43.5h331q-2 17 -2.5 34.5t-0.5 35.5q3 184 124.5 285t360.5 101q67 0 130 -8t118 -19.5t98.5 -24t70.5 -21.5q-11 -104 -26.5 -204.5t-31.5 -201.5 q-14 -86 -40 -181.5t-62 -200.5zM1723 186q58 0 108 43.5t87 116.5t58.5 168t21.5 197q0 103 -59 103q-21 0 -51 -22t-64 -61.5t-70 -94.5t-69.5 -121t-62 -140.5t-46.5 -153.5q5 -3 19 -9t33.5 -11.5t44 -10t50.5 -4.5z" />
<glyph unicode="ffh" horiz-adv-x="2330" d="M1481 1200q3 17 5 33t4 31q-29 5 -65.5 8t-78.5 3q-63 0 -104.5 -13t-67.5 -35.5t-37.5 -53t-14.5 -66.5q-2 -22 -1.5 -46t2.5 -37h204l-31 -199h-195l-131 -825h-264l131 825h-318l-194 -1221h-264l194 1221h-142l29 181l149 10q-2 18 -2.5 38.5t-0.5 41.5 q1 91 27.5 162.5t77 120.5t122.5 75t165 26q36 0 67.5 -4t56 -9.5t41 -10.5t22.5 -8l-66 -187q-19 5 -46.5 9.5t-56.5 4.5q-81 0 -117.5 -41.5t-40.5 -114.5q-2 -24 -1.5 -51.5t2.5 -43.5h331q-2 17 -2.5 34.5t-0.5 35.5q3 184 124.5 285t360.5 101q67 0 130 -8t118 -19.5 t98.5 -24t70.5 -21.5q-5 -54 -11.5 -104t-14.5 -102l-32 -200q-7 -43 -15.5 -84.5t-20.5 -88.5q-7 -26 -16 -57t-19.5 -62.5l-20.5 -61.5t-18 -55q45 98 98 181t111.5 143t122 94t131.5 34q67 0 111 -25t67 -70.5t26.5 -108.5t-8.5 -139l-71 -450q-15 -94 -19 -154.5 t-1 -96.5h-248q-3 10 -6.5 31t-5 48t0 58t6.5 63l74 468q4 25 4 45.5t-5.5 35.5t-16.5 23.5t-30 8.5q-36 0 -88 -40.5t-105.5 -119.5t-100.5 -196t-71 -271v1l-25 -155h-264l191 1200v0z" />
<glyph unicode="ff&#x127;" horiz-adv-x="2330" d="M682 -149l155 974h-318l-194 -1221h-264l194 1221h-142l29 181l149 10q-2 18 -2.5 38.5t-0.5 41.5q1 91 27.5 162.5t77 120.5t122.5 75t165 26q36 0 67.5 -4t56 -9.5t41 -10.5t22.5 -8l-66 -187q-19 5 -46.5 9.5t-56.5 4.5q-81 0 -117.5 -41.5t-40.5 -114.5 q-2 -24 -1.5 -51.5t2.5 -43.5h331q-2 17 -2.5 34.5t-0.5 35.5q3 184 124.5 285t360.5 101q67 0 130 -8t118 -19.5t98.5 -24t70.5 -21.5q-2 -26 -4.5 -49t-5.5 -46h307l-19 -120h-306q-2 -11 -3 -20.5t-3 -20.5l-25 -157q-13 -80 -35 -166q-7 -26 -16 -57t-19.5 -62.5 l-20.5 -61.5t-18 -55q45 98 98 181t111.5 143t122 94t131.5 34q67 0 111 -25t67 -70.5t26.5 -108.5t-8.5 -139l-71 -450q-15 -94 -19 -154.5t-1 -96.5h-248q-3 10 -6.5 31t-5 48t0 58t6.5 63l74 468q4 25 4 45.5t-5.5 35.5t-16.5 23.5t-30 8.5q-36 0 -88 -40.5 t-105.5 -119.5t-100.5 -196t-71 -271v1l-25 -155h-264l191 1200q3 17 5 33t4 31q-29 5 -65.5 8t-78.5 3q-63 0 -104.5 -13t-67.5 -35.5t-37.5 -53t-14.5 -66.5q-2 -22 -1.5 -46t2.5 -37h204l-31 -199h-195l-155 -974h-264z" />
<glyph unicode="ff&#x12d;" horiz-adv-x="1700" d="M1379 825h-278l-194 -1221h-264l194 1221h-318l-194 -1221h-264l194 1221h-142l29 181l149 10q-3 32 -3 71.5t5 76.5q9 75 39 134t79.5 99.5t117.5 61.5t151 21q36 0 67.5 -4t56 -9.5t41 -10.5t22.5 -8l-66 -187q-19 5 -46.5 9.5t-56.5 4.5q-72 0 -109.5 -33t-46.5 -95 q-5 -29 -4.5 -64.5t3.5 -58.5h331q-12 124 15.5 211t89 141.5t155.5 79t215 24.5q51 0 99 -3t92 -5q-8 -29 -9.5 -54t5.5 -44t23.5 -29.5t44.5 -10.5t48 11.5t34 31t21.5 46t10.5 57.5h188q-4 -89 -35 -150t-78 -98.5t-104.5 -54.5t-112.5 -17q-35 0 -69 7t-63.5 21 t-53 36.5t-36.5 53.5q-16 2 -32.5 3t-33.5 1q-40 0 -69 -10t-48.5 -28.5t-31 -44.5t-15.5 -57t-3 -64.5t4 -53.5h552l-123 -773q-15 -94 -19 -154.5t-1 -96.5h-248q-3 10 -6.5 31t-5 48t0 58t6.5 63z" />
<glyph unicode="ff&#xec;" horiz-adv-x="1776" d="M1121 1120q-2 -26 -1 -54t3 -42h247l-32 -199h-237l-194 -1221h-264l194 1221h-318l-194 -1221h-264l194 1221h-142l29 181l149 10q-2 18 -2.5 38.5t-0.5 41.5q1 91 27.5 162.5t77 120.5t122.5 75t165 26q36 0 67.5 -4t56 -9.5t41 -10.5t22.5 -8l-66 -187 q-19 5 -46.5 9.5t-56.5 4.5q-81 0 -117.5 -41.5t-40.5 -114.5q-2 -24 -1.5 -51.5t2.5 -43.5h331q-2 23 -2 52t3 57q6 155 102 244.5t271 98.5q49 3 99 0q41 -5 74 -12l75 125l409 -278l-76 -129l-372 147l-26 -74q-24 8 -65.5 14t-83.5 6t-71.5 -11.5t-48 -32.5t-28 -49.5 t-11.5 -61.5zM1494 1024h264l-122 -773q-16 -94 -20 -154.5t-1 -96.5h-247q-3 10 -6.5 31t-5 48t0 58t6.5 63z" />
<glyph unicode="ff&#x133;" horiz-adv-x="2217" d="M1379 825h-278l-131 -825h-264l131 825h-318l-194 -1221h-264l194 1221h-142l29 181l149 10q-11 108 10 194t70.5 146t127.5 92t181 32q36 0 67.5 -4t56 -9.5t41 -10.5t22.5 -8l-66 -187q-19 5 -46.5 9.5t-56.5 4.5q-72 0 -109.5 -33t-46.5 -95q-5 -29 -4.5 -64.5 t3.5 -58.5h331q-10 100 11 180.5t71.5 139t128 92t181.5 39.5q30 2 60.5 1.5t59.5 -2.5q32 -3 60.5 -8.5t52 -11.5t40.5 -12t25 -10l-66 -187q-15 6 -36 11t-46.5 9.5t-54 7t-57.5 2.5q-44 0 -76 -10t-53.5 -28.5t-33.5 -45t-17 -59.5q-4 -27 -3 -58t4 -50h552l-123 -773 q-15 -94 -19 -154.5t-1 -96.5h-248q-3 10 -6.5 31t-5 48t0 58t6.5 63zM1928 1024h264l-168 -1071q-17 -104 -49.5 -174.5t-81 -113.5t-112.5 -62t-142 -19q-38 0 -70.5 5t-58 12t-42.5 14.5t-24 11.5l51 188q17 -6 51.5 -14t73.5 -8q33 0 55.5 8t38.5 26t26 47.5t17 73.5z M1955 1320q0 43 14 77t39.5 57.5t59.5 35.5t75 12q58 0 91.5 -32.5t33.5 -90.5q0 -44 -14 -78t-39 -57.5t-59.5 -35.5t-74.5 -12q-58 0 -92 32.5t-34 91.5z" />
<glyph unicode="ff&#x12b;" horiz-adv-x="1768" d="M1121 1120q-2 -26 -1 -54t3 -42h243l-32 -199h-233l-194 -1221h-264l194 1221h-318l-194 -1221h-264l194 1221h-142l29 181l149 10q-2 18 -2.5 38.5t-0.5 41.5q1 91 27.5 162.5t77 120.5t122.5 75t165 26q36 0 67.5 -4t56 -9.5t41 -10.5t22.5 -8l-66 -187 q-19 5 -46.5 9.5t-56.5 4.5q-81 0 -117.5 -41.5t-40.5 -114.5q-2 -24 -1.5 -51.5t2.5 -43.5h331q-2 23 -2 53t2 59q3 75 29.5 136t74 105t115.5 69t155 30q28 2 56 1t55 -3q52 -5 89.5 -16t48.5 -16l-66 -187q-24 8 -65.5 14t-83.5 6t-71.5 -11.5t-48 -32.5t-28 -49.5 t-11.5 -61.5zM1495 1024h264l-123 -773q-15 -94 -19 -154.5t-1 -96.5h-247q-4 10 -7 31t-4.5 48t-0.5 58t6 63zM1369 1398h621l-32 -198h-620z" />
<glyph unicode="ff&#x12f;" horiz-adv-x="1700" d="M1379 825h-278l-131 -825h-264l131 825h-318l-194 -1221h-264l194 1221h-142l29 181l149 10q-11 108 10 194t70.5 146t127.5 92t181 32q36 0 67.5 -4t56 -9.5t41 -10.5t22.5 -8l-66 -187q-19 5 -46.5 9.5t-56.5 4.5q-72 0 -109.5 -33t-46.5 -95q-5 -29 -4.5 -64.5 t3.5 -58.5h331q-10 101 11.5 182.5t72.5 140t130.5 92t185.5 38.5q28 2 56.5 0.5t55.5 -3.5q32 -3 60.5 -8.5t52 -11.5t40.5 -12t25 -10l-66 -187q-15 6 -36 11t-46.5 9.5t-54 7t-57.5 2.5q-44 0 -76 -10t-53.5 -28.5t-33.5 -45t-17 -59.5q-4 -27 -3 -58t4 -50h255h297 l-117 -736q-5 -30 -9 -57t-7 -52q-8 -61 -10.5 -106t0.5 -73h-83q-26 -19 -51 -42t-44.5 -49.5t-32 -55t-12.5 -59.5q0 -39 20 -57.5t52 -18.5q18 0 36.5 3.5t35 9t30.5 11t23 9.5l17 -162q-11 -8 -32.5 -18t-49.5 -19t-61 -15t-66 -6q-46 0 -88 11t-74.5 34t-51.5 60 t-19 90q0 52 22.5 98t54 83t65.5 64t58 41q-3 14 -5.5 35t-3.5 46t0.5 52.5t6.5 54.5z" />
<glyph unicode="ff&#x129;" horiz-adv-x="1762" d="M1122 1118q-2 -25 -1.5 -52.5t2.5 -41.5h243l-32 -199h-233l-194 -1221h-264l194 1221h-318l-194 -1221h-264l194 1221h-142l29 181l149 10q-2 18 -2.5 38.5t-0.5 41.5q1 91 27.5 162.5t77 120.5t122.5 75t165 26q36 0 67.5 -4t56 -9.5t41 -10.5t22.5 -8l-66 -187 q-19 5 -46.5 9.5t-56.5 4.5q-81 0 -117.5 -41.5t-40.5 -114.5q-2 -24 -1.5 -51.5t2.5 -43.5h331q-2 23 -2 51.5t3 57.5q4 82 32 146.5t76.5 109t117 68t152.5 23.5q42 0 79 -12.5t66.5 -31t51.5 -40t36 -40.5l-58 -169q-11 12 -26.5 27t-36 28.5t-46.5 23t-57 9.5 q-35 0 -60.5 -12t-42 -33t-25 -49.5t-10.5 -62.5zM1487 1024h264l-123 -773q-15 -94 -19 -154.5t-1 -96.5h-248q-3 10 -6 31t-4.5 48t-0.5 58t6 63zM1395 1362q16 21 35.5 40.5t42.5 34t50 23.5t57 9q33 0 61.5 -10.5t53.5 -22.5t47.5 -22.5t44.5 -10.5q32 0 59 20.5 t62 51.5l114 -97q-20 -36 -47.5 -69t-62.5 -59t-77 -41.5t-91 -15.5q-30 0 -56.5 10.5t-50.5 23t-47 23t-46 10.5q-32 0 -58.5 -21t-59.5 -52z" />
<glyph unicode="ffj" horiz-adv-x="1699" d="M1379 825h-278l-131 -825h-264l131 825h-318l-194 -1221h-264l194 1221h-142l29 181l149 10q-11 108 10 194t70.5 146t127.5 92t181 32q36 0 67.5 -4t56 -9.5t41 -10.5t22.5 -8l-66 -187q-19 5 -46.5 9.5t-56.5 4.5q-72 0 -109.5 -33t-46.5 -95q-5 -29 -4.5 -64.5 t3.5 -58.5h331q-10 108 15 192.5t85.5 143t156.5 89.5t228 31q54 0 102.5 -6.5t87 -15.5t65.5 -18t38 -14l-66 -187q-18 6 -44 12.5t-57.5 12t-66 8.5t-70.5 3q-79 0 -125.5 -20.5t-70 -55t-28 -80t0.5 -95.5h551l-168 -1071q-16 -104 -49 -174.5t-81.5 -113.5t-112.5 -62 t-142 -19q-38 0 -70 5t-57.5 12t-43 14.5t-24.5 11.5l51 188q17 -6 51.5 -14t73.5 -8q33 0 55.5 8t38.5 26t26 47.5t17 73.5z" />
<glyph unicode="ffk" horiz-adv-x="2215" d="M1122 1107q-2 -22 -1.5 -46t2.5 -37h204l-31 -199h-195l-131 -825h-264l131 825h-318l-194 -1221h-264l194 1221h-142l29 181l149 10q-2 18 -2.5 38.5t-0.5 41.5q1 91 27.5 162.5t77 120.5t122.5 75t165 26q36 0 67.5 -4t56 -9.5t41 -10.5t22.5 -8l-66 -187 q-19 5 -46.5 9.5t-56.5 4.5q-81 0 -117.5 -41.5t-40.5 -114.5q-2 -24 -1.5 -51.5t2.5 -43.5h331q-2 21 -2 48t3 53q10 168 130.5 261.5t350.5 93.5q67 0 130 -8t118 -19.5t98.5 -24t70.5 -21.5q-6 -72 -16 -140l-108 -683q69 26 128 68t98.5 98.5t55.5 125t0 148.5l275 20 q27 -92 11.5 -171.5t-56.5 -145t-98.5 -116.5t-113.5 -86l183 -525h-287l-124 428q-26 -11 -52 -21t-50 -18l-61 -389h-267l186 1163q9 51 15 101q-29 5 -65.5 8t-78.5 3q-63 0 -104.5 -13t-67 -35.5t-37.5 -53t-15 -66.5z" />
<glyph unicode="ff&#x137;" horiz-adv-x="2226" d="M682 -149l155 974h-318l-194 -1221h-264l194 1221h-142l29 181l149 10q-2 18 -2.5 38.5t-0.5 41.5q1 91 27.5 162.5t77 120.5t122.5 75t165 26q36 0 67.5 -4t56 -9.5t41 -10.5t22.5 -8l-66 -187q-19 5 -46.5 9.5t-56.5 4.5q-81 0 -117.5 -41.5t-40.5 -114.5 q-2 -24 -1.5 -51.5t2.5 -43.5h331q-2 21 -2 48t3 53q10 168 130.5 261.5t350.5 93.5q67 0 130 -8t118 -19.5t98.5 -24t70.5 -21.5q-6 -72 -16 -140l-108 -683q69 26 128 68t98.5 98.5t55.5 125t0 148.5l275 20q27 -92 11.5 -171.5t-56.5 -145t-98.5 -116.5t-113.5 -86 l183 -525h-287l-124 428q-26 -11 -52 -21t-50 -18l-61 -389h-267l186 1163q9 51 15 101q-29 5 -65.5 8t-78.5 3q-63 0 -104.5 -13t-67.5 -35.5t-37.5 -53t-14.5 -66.5q-2 -22 -1.5 -46t2.5 -37h204l-31 -199h-195l-155 -974h-264zM1741 -92q9 -8 21 -23.5t22.5 -36.5 t17.5 -47t7 -55q0 -64 -29 -113t-79.5 -83.5t-118.5 -55t-145 -27.5l-23 127q27 5 53.5 14.5t48.5 25t37.5 36.5t18.5 50q3 31 -4 57q-6 32 -19 54t-21 30z" />
<glyph unicode="ff&#x13e;" horiz-adv-x="1861" d="M643 -396l194 1221h-318l-194 -1221h-264l194 1221h-142l29 181l149 10q-11 108 10 194t70.5 146t127.5 92t181 32q36 0 67.5 -4t56 -9.5t41 -10.5t22.5 -8l-66 -187q-19 5 -46.5 9.5t-56.5 4.5q-72 0 -109.5 -33t-46.5 -95q-5 -29 -4.5 -64.5t3.5 -58.5h331 q-10 108 15 192.5t85 143t155.5 89.5t226.5 31q67 0 130 -8t118 -19.5t98.5 -24t70.5 -21.5q-4 -39 -7.5 -75t-9.5 -74q-40 -254 -80 -503.5t-80 -503.5q-14 -94 -18.5 -154.5t-1.5 -96.5h-247q-4 10 -7 31t-4.5 48t-0.5 58t6 63l154 962q9 52 15 102q-29 5 -65.5 8t-78.5 3 q-55 0 -94.5 -10t-65.5 -28.5t-41 -45t-21 -59.5q-5 -27 -4.5 -58t3.5 -50h204l-31 -199h-195l-195 -1221h-263zM2055 1544q9 -9 20.5 -24t21.5 -36t17 -48t7 -60q0 -59 -23 -108t-57.5 -88t-74.5 -67.5t-75 -44.5l-84 93q16 11 34.5 27.5t34.5 39.5t26.5 52.5t10.5 65.5 q0 26 -6 48.5t-14.5 40.5t-18.5 31.5t-18 21.5z" />
<glyph unicode="ff&#x13c;" horiz-adv-x="1741" d="M643 -396l194 1221h-318l-194 -1221h-264l194 1221h-142l29 181l149 10q-11 108 10 194t70.5 146t127.5 92t181 32q36 0 67.5 -4t56 -9.5t41 -10.5t22.5 -8l-66 -187q-19 5 -46.5 9.5t-56.5 4.5q-72 0 -109.5 -33t-46.5 -95q-5 -29 -4.5 -64.5t3.5 -58.5h331 q-10 108 15 192.5t85 143t155.5 89.5t226.5 31q67 0 130 -8t118 -19.5t98.5 -24t70.5 -21.5q-4 -39 -7.5 -75t-9.5 -74q-40 -254 -80 -503.5t-80 -503.5q-14 -94 -18.5 -154.5t-1.5 -96.5h-247q-4 10 -7 31t-4.5 48t-0.5 58t6 63l154 962q9 52 15 102q-29 5 -65.5 8t-78.5 3 q-55 0 -94.5 -10t-65.5 -28.5t-41 -45t-21 -59.5q-5 -27 -4.5 -58t3.5 -50h204l-31 -199h-195l-195 -1221h-263zM1489 -92q9 -8 21 -23.5t22 -36.5t17 -47t7 -55q0 -64 -29 -113t-79.5 -83.5t-118 -55t-144.5 -27.5l-23 127q27 5 53.5 14.5t48.5 25t37 36.5t18 50 q2 14 1 28.5t-4 28.5q-6 32 -19.5 54t-20.5 30z" />
<glyph unicode="ff&#x140;" horiz-adv-x="1793" d="M643 -396l194 1221h-318l-194 -1221h-264l194 1221h-142l29 181l149 10q-11 108 10 194t70.5 146t127.5 92t181 32q36 0 67.5 -4t56 -9.5t41 -10.5t22.5 -8l-66 -187q-19 5 -46.5 9.5t-56.5 4.5q-72 0 -109.5 -33t-46.5 -95q-5 -29 -4.5 -64.5t3.5 -58.5h331 q-10 108 15 192.5t85 143t155.5 89.5t226.5 31q67 0 130 -8t118 -19.5t98.5 -24t70.5 -21.5q-4 -39 -7.5 -75t-9.5 -74q-40 -254 -80 -503.5t-80 -503.5q-14 -94 -18.5 -154.5t-1.5 -96.5h-247q-4 10 -7 31t-4.5 48t-0.5 58t6 63l154 962q9 52 15 102q-29 5 -65.5 8t-78.5 3 q-55 0 -94.5 -10t-65.5 -28.5t-41 -45t-21 -59.5q-5 -27 -4.5 -58t3.5 -50h204l-31 -199h-195l-195 -1221h-263zM1748 717q0 43 14 77t39 57.5t59.5 35.5t75.5 12q57 0 91 -32.5t34 -90.5q0 -44 -14 -78t-39.5 -57.5t-60 -35.5t-74.5 -12q-57 0 -91 32.5t-34 91.5z" />
<glyph unicode="ff&#x142;" horiz-adv-x="1748" d="M643 -396l194 1221h-318l-194 -1221h-264l194 1221h-142l29 181l149 10q-11 108 10 194t70.5 146t127.5 92t181 32q36 0 67.5 -4t56 -9.5t41 -10.5t22.5 -8l-66 -187q-19 5 -46.5 9.5t-56.5 4.5q-72 0 -109.5 -33t-46.5 -95q-5 -29 -4.5 -64.5t3.5 -58.5h331 q-10 108 15 192.5t85 143t155.5 89.5t226.5 31q67 0 130 -8t118 -19.5t98.5 -24t70.5 -21.5q-5 -50 -10.5 -96t-13.5 -94l-52 -329l124 85l59 -97l-208 -141l-76 -484q-14 -94 -18.5 -154.5t-1.5 -96.5h-247q-4 10 -7 31t-4.5 48t-0.5 58t6 63l53 335l-155 -105l-58 96 l238 162l78 486q4 24 7 46.5t6 43.5q-29 5 -65.5 8t-78.5 3q-60 0 -101 -11.5t-67 -32.5t-39 -50t-17 -64q-2 -24 -1.5 -51t2.5 -42h204l-31 -199h-195l-195 -1221h-263z" />
<glyph unicode="fh" horiz-adv-x="1748" d="M904 1233q-16 11 -34 20t-36 16q-12 2 -29.5 4t-40.5 2q-63 0 -104.5 -13t-67.5 -35.5t-37.5 -53t-14.5 -66.5q-2 -22 -1.5 -46t2.5 -37h204l-31 -199h-195l-131 -825h-264l131 825h-142l29 181l149 10q-3 18 -3.5 37.5t-0.5 39.5q3 184 124.5 285.5t360.5 101.5 q67 0 130 -8t118 -19.5t98.5 -24t70.5 -21.5q-5 -52 -11 -100.5t-14 -98.5q-15 -96 -29 -188t-40 -192q-7 -26 -16 -57t-19.5 -62.5l-20.5 -61.5t-18 -55q45 98 98 181t111.5 143t122 94t131.5 34q54 0 93 -16.5t64 -47t37 -74t12 -96.5q0 -35 -5 -71.5t-10 -74.5l-66 -413 q-11 -69 -16.5 -119.5t-4.5 -86.5q-1 -13 -0.5 -24.5t1.5 -20.5h-248q-3 9 -5.5 24.5t-4 35t-1.5 42.5t2 46q0 12 1 25t3 27l74 468q2 14 3.5 27t0.5 24q-1 29 -13.5 45.5t-38.5 16.5q-36 0 -88 -40.5t-105.5 -119.5t-100.5 -196t-71 -271v1l-25 -155h-264l196 1233v0z" />
<glyph unicode="f&#x127;" horiz-adv-x="1743" d="M61 -396l194 1221h-142l29 181l149 10q-12 109 12.5 195.5t84.5 146t156 91t228 31.5q67 0 130 -8t118 -19.5t98.5 -24t70.5 -21.5q-2 -26 -4.5 -49t-5.5 -46h307l-19 -120h-306q-2 -11 -3 -20.5t-3 -20.5l-25 -157q-13 -80 -35 -166q-7 -26 -16 -57t-19.5 -62.5 l-20.5 -61.5t-18 -55q45 98 98 181t111.5 143t122 94t131.5 34q67 0 111 -25t67 -70.5t27 -108.5t-8 -139l-72 -450q-15 -94 -19 -154.5t-1 -96.5h-248q-3 10 -6.5 31t-5 48t0 58t6.5 63l74 468q4 25 4 45.5t-5.5 35.5t-16.5 23.5t-30 8.5q-36 0 -88 -40.5t-105.5 -119.5 t-100.5 -196t-71 -271v1l-25 -155h-264l191 1200q6 35 9 64q-29 5 -65.5 8t-78.5 3q-60 0 -100.5 -11.5t-66.5 -32.5t-39 -50t-17 -64q-3 -24 -2.5 -51t2.5 -42h204l-31 -199h-195l-194 -1221h-264z" />
<glyph unicode="f&#x12d;" horiz-adv-x="1118" d="M797 825h-278l-194 -1221h-264l194 1221h-142l29 181l149 10q-11 109 10 195t73 146t135 91.5t196 31.5q66 0 129 -3t122 -5q-8 -29 -9.5 -54t5.5 -44t23.5 -29.5t44.5 -10.5t48 11.5t34 31t21.5 46t10.5 57.5h188q-4 -89 -35 -150t-78 -98.5t-104 -54.5t-112 -17 q-36 0 -70 7t-63.5 21t-52.5 36.5t-37 53.5q-16 2 -32.5 3t-33.5 1q-80 0 -117.5 -38.5t-45.5 -101.5q-5 -31 -4 -64.5t4 -53.5h255h297l-123 -773q-15 -94 -19 -154.5t-1 -96.5h-248q-3 10 -6 31t-4.5 48t-0.5 58t6 63z" />
<glyph unicode="f&#xec;" horiz-adv-x="1195" d="M539 1120q-2 -26 -1 -54t3 -42h243l-32 -199h-233l-194 -1221h-264l194 1221h-142l29 181l149 10q-2 24 -2.5 55.5t2.5 61.5q4 82 33 147t82 109t128 67.5t171 23.5q37 0 71.5 -5t60.5 -11l76 125l409 -278l-76 -129l-373 147l-26 -74q-24 8 -65.5 14t-83.5 6 t-71.5 -11.5t-48 -32.5t-28 -49.5t-11.5 -61.5zM913 1024h264l-123 -773q-15 -94 -19 -154.5t-1 -96.5h-247q-4 10 -7 31t-4.5 48t-0.5 58t6 63z" />
<glyph unicode="f&#x133;" horiz-adv-x="1635" d="M797 825h-278l-194 -1221h-264l194 1221h-142l29 181l149 10q-11 110 13.5 196t84.5 145.5t156 91t230 31.5q54 0 102.5 -6.5t87 -15.5t65.5 -18t38 -14l-66 -187q-18 6 -44 12.5t-57.5 12t-66 8.5t-70.5 3q-55 0 -94.5 -10t-65.5 -28.5t-41 -45t-21 -59.5 q-5 -27 -4.5 -58t3.5 -50h552l-116 -731q-17 -106 -24 -179t-3 -114h-248q-3 10 -6 31t-4.5 48t-0.5 58t6 63zM1346 1024h264l-168 -1071q-16 -104 -49 -174.5t-81.5 -113.5t-112.5 -62t-142 -19q-38 0 -70.5 5t-58 12t-42.5 14.5t-24 11.5l51 188q17 -6 51.5 -14t73.5 -8 q33 0 55.5 8t38.5 26t26 47.5t17 73.5zM1373 1320q0 43 14 77t39.5 57.5t59.5 35.5t75 12q58 0 91.5 -32.5t33.5 -90.5q0 -44 -14 -78t-39 -57.5t-59.5 -35.5t-74.5 -12q-58 0 -92 32.5t-34 91.5z" />
<glyph unicode="f&#x12b;" horiz-adv-x="1186" d="M905 1024h264l-123 -773q-15 -94 -19 -154.5t-1 -96.5h-247q-4 10 -7 31t-4.5 48t-0.5 58t6 63zM539 1120q-2 -26 -1 -54t3 -42h243l-32 -199h-233l-194 -1221h-264l194 1221h-142l29 181l149 10q-2 24 -2.5 55.5t2.5 61.5q4 82 33 147t82 109t128 67.5t171 23.5 q36 0 70.5 -5t62.5 -11t47.5 -12.5t27.5 -9.5l-66 -187q-24 8 -65.5 14t-83.5 6t-71.5 -11.5t-48 -32.5t-28 -49.5t-11.5 -61.5zM787 1398h621l-32 -198h-620z" />
<glyph unicode="f&#x12f;" horiz-adv-x="1118" d="M797 825h-278l-194 -1221h-264l194 1221h-142l29 181l149 10q-12 109 12.5 195.5t84.5 146t156.5 91t230.5 31.5q54 0 102.5 -6.5t87 -15.5t65.5 -18t38 -14l-66 -187q-18 6 -44 12.5t-57.5 12t-66 8.5t-70.5 3q-60 0 -100.5 -11.5t-66.5 -32.5t-39 -50t-17 -64 q-3 -24 -2.5 -51t2.5 -42h255h297l-117 -736q-5 -30 -9 -57t-7 -52q-8 -61 -10.5 -106t0.5 -73h-82q-26 -19 -51 -42t-45 -49.5t-32.5 -55t-12.5 -59.5q0 -39 20 -57.5t53 -18.5q18 0 36 3.5t34.5 9t30.5 11t23 9.5l18 -162q-12 -8 -33.5 -18t-49.5 -19t-61 -15t-66 -6 q-46 0 -88 11t-74.5 34t-51.5 60t-19 90q0 52 22.5 98t54 83t65.5 64t58 41q-3 14 -5.5 35t-3.5 46t0.5 52.5t6.5 54.5z" />
<glyph unicode="f&#x129;" horiz-adv-x="1180" d="M905 1024h264l-123 -773q-15 -94 -19 -154.5t-1 -96.5h-247q-4 10 -7 31t-4.5 48t-0.5 58t6 63zM541 1118q-2 -25 -2 -52.5t2 -41.5h243l-32 -199h-233l-194 -1221h-264l194 1221h-142l29 181l149 10q-2 24 -2 55.5t2 62.5q4 81 32 145.5t76.5 109t117 68t152.5 23.5 q42 0 79 -12.5t67 -31t52 -40t35 -40.5l-58 -169q-11 12 -26.5 27t-36 28.5t-46.5 23t-57 9.5q-35 0 -60.5 -12t-42 -33t-25 -50t-9.5 -62zM813 1362q16 21 35.5 40.5t42.5 34t50 23.5t57 9q34 0 62.5 -10.5t53.5 -22.5t47.5 -22.5t44.5 -10.5q32 0 58.5 20.5t61.5 51.5 l114 -97q-20 -36 -47.5 -69t-62.5 -59t-77 -41.5t-91 -15.5q-30 0 -56.5 10.5t-50.5 23t-47 23t-46 10.5q-32 0 -58.5 -21t-59.5 -52z" />
<glyph unicode="fj" horiz-adv-x="1117" d="M797 825h-278l-131 -825h-264l131 825h-142l29 181l149 10q-11 110 13.5 196t84.5 145.5t155.5 91t227.5 31.5q54 0 103 -6.5t88 -15.5t66.5 -18t38.5 -14l-66 -187q-18 6 -44.5 12.5t-58.5 12t-67.5 8.5t-71.5 3q-58 0 -98 -11.5t-65.5 -32.5t-38.5 -50t-17 -64 q-3 -24 -2.5 -51t2.5 -42h551l-168 -1071q-16 -103 -48.5 -173.5t-81.5 -114t-113 -62.5t-142 -19q-38 0 -70 5t-57.5 12t-43 14.5t-24.5 11.5l51 188q17 -6 51.5 -14t73.5 -8q33 0 56 8t38.5 26t25.5 47.5t17 73.5z" />
<glyph unicode="fk" horiz-adv-x="1633" d="M540 1107q-2 -22 -1.5 -46t2.5 -37h204l-31 -199h-195l-131 -825h-264l131 825h-142l29 181l149 10q-3 18 -3.5 37.5t-0.5 39.5q3 184 124.5 285.5t360.5 101.5q67 0 130 -8t118 -19.5t98.5 -24t70.5 -21.5q-6 -72 -16 -140l-108 -683q70 26 128.5 68t98 98.5t55.5 125 t0 148.5l275 20q27 -92 11.5 -171.5t-56.5 -145t-98 -116.5t-113 -86l182 -525h-287l-124 428q-26 -11 -52 -21t-50 -18l-61 -389h-267l186 1163q9 51 15 101q-29 5 -65.5 8t-78.5 3q-63 0 -104.5 -13t-67 -35.5t-37.5 -53t-15 -66.5z" />
<glyph unicode="f&#x137;" horiz-adv-x="1633" d="M61 -396l194 1221h-142l29 181l149 10q-2 23 -2.5 52t2.5 57q10 168 130.5 261.5t350.5 93.5q67 0 130 -8t118 -19.5t98.5 -24t70.5 -21.5q-6 -72 -16 -140l-108 -683q70 26 128.5 68t98 98.5t55.5 125t0 148.5l275 20q27 -92 11.5 -171.5t-56.5 -145t-98 -116.5 t-113 -86l182 -525h-287l-124 428q-26 -11 -52 -21t-50 -18l-61 -389h-267l185 1156q5 29 8.5 55.5t7.5 52.5q-29 5 -65.5 8t-78.5 3q-63 0 -104.5 -13t-67.5 -35.5t-37.5 -53t-14.5 -66.5q-2 -22 -1.5 -46t2.5 -37h204l-31 -199h-195l-194 -1221h-264zM1159 -92 q9 -8 21 -23.5t22.5 -36.5t17.5 -47t7 -55q0 -64 -29 -113t-79.5 -83.5t-118.5 -55t-145 -27.5l-23 127q27 5 53.5 14.5t48.5 25t37.5 36.5t18.5 50q3 31 -4 57q-6 32 -19 54t-21 30z" />
<glyph unicode="f&#x13e;" horiz-adv-x="1279" d="M893 1162q9 52 15 102q-29 5 -65.5 8t-78.5 3q-55 0 -94.5 -10t-65.5 -28.5t-41 -45t-21 -59.5q-5 -27 -4.5 -58t3.5 -50h204l-31 -199h-195l-194 -1221h-264l194 1221h-142l29 181l149 10q-11 110 13.5 196t84.5 145.5t155.5 91t227.5 31.5q67 0 130 -8t118 -19.5 t98.5 -24t70.5 -21.5q-6 -71 -16 -141l-161 -1015q-14 -94 -18.5 -154.5t-1.5 -96.5h-247q-4 10 -7 31t-4.5 48t-0.5 58t6 63zM1473 1544q9 -9 20.5 -24t21.5 -36t17 -48t7 -60q0 -59 -23 -108t-57.5 -88t-74.5 -67.5t-75 -44.5l-84 93q16 11 34.5 27.5t34.5 39.5t26.5 52.5 t10.5 65.5q0 26 -6 48.5t-14.5 40.5t-18.5 31.5t-18 21.5z" />
<glyph unicode="f&#x13c;" horiz-adv-x="1159" d="M907 -92q9 -8 21 -23.5t22 -36.5t17 -47t7 -55q0 -64 -29 -113t-79.5 -83.5t-118 -55t-144.5 -27.5l-23 127q27 5 53.5 14.5t48.5 25t37.5 36.5t18.5 50q2 14 0.5 28.5t-4.5 28.5q-6 32 -19 54t-21 30zM893 1162q9 52 15 102q-29 5 -65.5 8t-78.5 3q-55 0 -94.5 -10 t-65.5 -28.5t-41 -45t-21 -59.5q-5 -27 -4.5 -58t3.5 -50h204l-31 -199h-195l-194 -1221h-264l194 1221h-142l29 181l149 10q-11 110 13.5 196t84.5 145.5t155.5 91t227.5 31.5q67 0 130 -8t118 -19.5t98.5 -24t70.5 -21.5q-6 -71 -16 -141l-161 -1015q-14 -94 -18.5 -154.5 t-1.5 -96.5h-247q-4 10 -7 31t-4.5 48t-0.5 58t6 63z" />
<glyph unicode="f&#x140;" horiz-adv-x="1382" d="M1166 717q0 43 14 77t39 57.5t59.5 35.5t75.5 12q57 0 91 -32.5t34 -90.5q0 -44 -14 -78t-39.5 -57.5t-60 -35.5t-74.5 -12q-57 0 -91 32.5t-34 91.5zM893 1162q9 52 15 102q-29 5 -65.5 8t-78.5 3q-55 0 -94.5 -10t-65.5 -28.5t-41 -45t-21 -59.5q-5 -27 -4.5 -58 t3.5 -50h204l-31 -199h-195l-194 -1221h-264l194 1221h-142l29 181l149 10q-11 110 13.5 196t84.5 145.5t155.5 91t227.5 31.5q67 0 130 -8t118 -19.5t98.5 -24t70.5 -21.5q-6 -71 -16 -141l-161 -1015q-14 -94 -18.5 -154.5t-1.5 -96.5h-247q-4 10 -7 31t-4.5 48t-0.5 58 t6 63z" />
<glyph unicode="f&#x142;" horiz-adv-x="1166" d="M579 526l238 162l78 486q4 24 7 46.5t6 43.5q-29 5 -65.5 8t-78.5 3q-60 0 -100.5 -11.5t-66.5 -32.5t-39 -50t-17 -64q-3 -24 -2.5 -51t2.5 -42h204l-31 -199h-195l-194 -1221h-264l194 1221h-142l29 181l149 10q-12 109 12.5 195t84.5 146t156 91.5t228 31.5 q67 0 130 -8t118 -19.5t98.5 -24t70.5 -21.5q-5 -50 -10.5 -96t-13.5 -94l-52 -329l124 85l59 -97l-207 -141l-77 -484q-14 -94 -18.5 -154.5t-1.5 -96.5h-247q-4 10 -7 31t-4.5 48t-0.5 58t6 63l54 335l-156 -105z" />
<glyph unicode="&#x3c;&#x2014;" horiz-adv-x="1830" d="M944 914l-466 -402l339 -402l-173 -149l-464 551l639 551zM810 617h900l-33 -210h-900z" />
<glyph unicode="&#x17f;f" horiz-adv-x="1255" d="M325 -396h-264l194 1221h-142l29 181l149 10l21 122q13 77 40.5 140t75.5 108t119 69.5t170 24.5q31 0 58 -4t48.5 -10t36 -11.5t20.5 -8.5l-63 -187q-12 4 -40.5 10t-58.5 6q-73 0 -107 -43.5t-47 -122.5zM1102 1120q-2 -26 -1 -54t3 -42h243l-32 -199h-233l-131 -825 h-264l131 825h-142l29 181l149 10q-3 18 -3.5 38.5t-0.5 42.5q2 183 111 283t315 100q37 0 72.5 -5t65 -11.5t50.5 -13.5t29 -10l-63 -187q-26 8 -71 15t-91 7q-44 0 -74.5 -11.5t-50 -32.5t-29.5 -49.5t-12 -61.5z" />
<glyph unicode="&#x17f;h" horiz-adv-x="1748" d="M764 1275q-48 0 -83 -12t-58.5 -34t-38 -54.5t-21.5 -72.5l-238 -1498h-264l194 1221h-142l29 181l149 10l19 112q15 81 47 146t87 110.5t136 70.5t194 25q66 0 129 -8t117.5 -19.5t98 -24t70.5 -21.5q-6 -57 -13 -111.5t-16 -110.5l-29 -184q-8 -51 -20 -100.5 t-29 -111.5q-6 -24 -14 -51t-16.5 -54t-16.5 -51t-14 -41q45 98 98 181t111.5 143t122 94t131.5 34q67 0 111 -25t67 -70.5t27 -108.5t-8 -139l-72 -450q-15 -94 -19 -154.5t-1 -96.5h-248q-3 10 -6.5 31t-5 48t0 58t6.5 63l74 468q4 25 4 45.5t-5.5 35.5t-16.5 23.5 t-30 8.5q-36 0 -88 -40.5t-105.5 -119.5t-100.5 -196t-71 -271v1l-25 -155h-264l189 1184q3 20 5.5 39t5.5 36q-29 6 -65.5 11t-78.5 5z" />
<glyph unicode="&#x17f;i" horiz-adv-x="1118" d="M325 -396h-264l194 1221h-142l29 181l149 10l19 112q15 81 46.5 146t86.5 110.5t135 70.5t191 25q57 0 106.5 -7t88.5 -16t66 -18t38 -13l-66 -187q-12 4 -36 10t-55.5 12t-68 10t-72.5 4q-97 0 -144.5 -46t-62.5 -127zM829 1024h264l-123 -773q-15 -94 -19 -154.5 t-1 -96.5h-248q-3 10 -6 31t-4.5 48t-0.5 58t6 63z" />
<glyph unicode="&#x17f;j" horiz-adv-x="1121" d="M388 0h-264l131 825h-142l29 181l149 10l19 112q15 81 46.5 146t86.5 110.5t135 70.5t191 25q57 0 106.5 -7t88.5 -16t66 -18t38 -13l-66 -187q-12 4 -36 10t-55.5 12t-68 10t-72.5 4q-97 0 -144.5 -46t-62.5 -127zM829 1024h263l-168 -1071q-16 -104 -48.5 -174.5 t-81 -113.5t-112.5 -62t-143 -19q-38 0 -70 5t-57.5 12t-43 14.5t-24.5 11.5l51 188q17 -6 51.5 -14t73.5 -8q33 0 56 8t38.5 26t25.5 47.5t17 73.5z" />
<glyph unicode="&#x17f;k" horiz-adv-x="1633" d="M764 1275q-48 0 -83 -12t-58.5 -34t-38 -54.5t-21.5 -72.5l-238 -1498h-264l194 1221h-142l29 181l149 10l19 112q15 81 47 146t87 110.5t136 70.5t194 25q66 0 129 -8t117.5 -19.5t98 -24t70.5 -21.5q-6 -57 -13 -111.5t-16 -110.5q-23 -152 -47 -301t-48 -300 q64 22 123 62t100.5 96t59 127t-0.5 155l275 20q20 -66 18 -124.5t-20 -110t-48 -95t-65.5 -79t-72.5 -63.5t-68 -47l182 -525h-287l-124 428q-26 -11 -52 -21t-50 -18l-61 -389h-267l190 1184q3 20 5.5 39t5.5 36q-29 6 -65.5 11t-78.5 5z" />
<glyph unicode="&#x17f;l" horiz-adv-x="1163" d="M739 200q38 238 76 474t76 475q5 29 8.5 56.5t8.5 53.5q-29 6 -65.5 11t-78.5 5q-48 0 -83 -12t-58.5 -34t-38 -54.5t-21.5 -72.5l-238 -1498h-264l194 1221h-142l29 181l149 10l19 112q15 81 47 146t87 110.5t136 70.5t194 25q66 0 129 -8t117.5 -19.5t98 -24 t70.5 -21.5q-3 -42 -8 -80t-11 -78l-158 -998q-14 -94 -18.5 -154.5t-1.5 -96.5h-247q-4 10 -7 31t-4.5 48t-0.5 58t6 63z" />
<glyph unicode="&#x17f;&#x17f;" horiz-adv-x="1144" d="M325 -396h-264l194 1221h-142l29 181l149 10l21 122q13 77 40.5 140t75.5 108t119 69.5t170 24.5q31 0 58 -4t48.5 -10t36 -11.5t20.5 -8.5l-63 -187q-12 4 -40.5 10t-58.5 6q-73 0 -107 -43.5t-47 -122.5zM951 0h-264l131 825h-142l29 181l149 10l21 122q13 77 40.5 140 t75.5 108t118.5 69.5t169.5 24.5q31 0 58.5 -4t49 -10t36 -11.5t20.5 -8.5l-63 -187q-12 4 -41 10t-58 6q-73 0 -107 -43.5t-47 -122.5z" />
<glyph unicode="&#xd;" horiz-adv-x="456" />
<glyph unicode=" "  horiz-adv-x="426" />
<glyph unicode="&#x09;" horiz-adv-x="426" />
<glyph unicode="&#xa0;" horiz-adv-x="426" />
<glyph unicode="!" horiz-adv-x="597" d="M577 1330l-187 -909h-201l100 909h288zM90 103q0 44 14 78t39.5 57.5t59.5 35.5t75 12q57 0 91 -32.5t34 -90.5q0 -44 -14 -78t-39.5 -57.5t-60 -35.5t-74.5 -12q-57 0 -91 32.5t-34 90.5z" />
<glyph unicode="&#x22;" horiz-adv-x="866" d="M879 1491l-125 -560h-180l53 560h252zM532 1491l-126 -560h-180l53 560h253z" />
<glyph unicode="#" horiz-adv-x="1296" d="M1209 1330l-100 -338h227l-57 -191h-226l-81 -273h226l-56 -190h-227l-100 -338h-219l99 338h-242l-99 -338h-219l100 338h-235l56 190h235l81 273h-233l56 191h234l100 338h219l-100 -338h242l101 338h218zM510 528h242l82 273h-243z" />
<glyph unicode="$" horiz-adv-x="940" d="M755 1492l-54 -230q46 -5 84.5 -14t68 -20.5t51 -22.5t35.5 -19l-74 -191q-20 9 -47.5 19.5t-60 19.5t-68.5 14.5t-73 5.5q-49 0 -83.5 -10t-57 -27t-34 -39.5t-13.5 -48.5q-4 -31 8 -55t35 -43.5t55 -37t68 -35.5q69 -35 119.5 -68.5t84 -70t49.5 -79.5t16 -97 q0 -155 -91.5 -248.5t-265.5 -119.5l-19 -237h-219l53 230q-49 4 -91.5 13t-77 21.5t-61 27t-42.5 28.5l82 189q16 -10 42.5 -22t60.5 -22.5t76 -18t90 -7.5q94 0 146 27.5t52 92.5q0 29 -16.5 54t-46.5 48.5t-72 46.5t-93 48q-99 50 -152 117t-53 167q0 73 26 135t73 110.5 t111 81.5t141 48l20 239h218z" />
<glyph unicode="%" horiz-adv-x="1555" d="M1455 1247l-1189 -1267l-126 103l1188 1268zM414 731q-59 0 -105.5 20t-79 54.5t-50 82t-17.5 102.5q0 79 27 145t75 114t114.5 74.5t144.5 26.5q58 0 105 -20t79 -54.5t49.5 -82.5t17.5 -103q0 -79 -27 -145t-75 -113.5t-114 -74t-144 -26.5zM449 896q26 0 48 13.5 t38 37t25 55t9 67.5q0 49 -19.5 82.5t-63.5 33.5q-26 0 -48 -13.5t-38 -37.5t-24.5 -55.5t-8.5 -67.5q0 -48 19.5 -81.5t62.5 -33.5zM1078 -20q-59 0 -105.5 20t-79 54.5t-50 82t-17.5 102.5q0 79 27 145t75 114t114.5 74.5t144.5 26.5q58 0 105 -20t79 -54.5t49.5 -82.5 t17.5 -103q0 -79 -27 -145t-75 -113.5t-114 -74t-144 -26.5zM1113 145q26 0 48 13.5t38 37t25 55t9 67.5q0 49 -19.5 82.5t-63.5 33.5q-26 0 -48 -13.5t-38 -37.5t-24.5 -55.5t-8.5 -67.5q0 -48 19.5 -81.5t62.5 -33.5z" />
<glyph unicode="&#x26;" horiz-adv-x="1243" d="M1038 1079q0 -42 -11.5 -79.5t-29.5 -68.5t-40 -54.5t-43 -38.5q51 -14 99.5 -42t85.5 -70.5t59.5 -98.5t22.5 -126q0 -113 -60.5 -210.5t-179.5 -170.5l68 -123q32 -56 42.5 -115.5t2.5 -119.5q-5 -47 -20 -92t-38 -86l-194 20q14 38 23 76t11 76q2 42 -8 83.5t-34 85.5 l-58 104q-21 -10 -49 -19t-60.5 -15.5t-68 -10.5t-69.5 -4q-93 0 -174 22.5t-140.5 64.5t-93.5 101t-34 132q0 69 22.5 130t63.5 112t98.5 92.5t126.5 72.5q-32 54 -53.5 92.5t-34 69.5t-18 59t-5.5 61q0 79 37 145t99.5 114t145 75t173.5 27q74 0 135.5 -20.5t106 -56.5 t69.5 -85.5t25 -108.5zM663 847q54 35 91 82t37 108q0 44 -26 71t-68 35q-17 4 -33.5 4t-33.5 -2q-63 -8 -100 -48.5t-37 -96.5q0 -24 3.5 -45t11.5 -44t21.5 -50.5t34.5 -64.5l285 -513q39 35 60.5 82t21.5 109q0 49 -15 88t-41.5 67.5t-61.5 47t-74 26.5zM568 182 q13 8 28 20t27 28l-182 329q-32 -17 -57 -40t-42 -50.5t-25 -58.5t-6 -64q3 -48 26.5 -81t59 -52.5t80 -27t91.5 -3.5z" />
<glyph unicode="'" horiz-adv-x="518" d="M532 1491l-126 -560h-180l53 560h253z" />
<glyph unicode="(" horiz-adv-x="738" d="M449 561q-11 -145 6.5 -264t49.5 -212t72 -161t73 -111l-153 -122q-23 19 -56 55t-68.5 88t-70.5 120t-63 150.5t-45 179t-17 207.5q0 164 36 305.5t93 261t128 216t141 169.5t131.5 122.5t100.5 74.5l113 -121q-40 -38 -89 -89t-99 -115.5t-97.5 -143.5t-86.5 -173 t-65.5 -203t-33.5 -234z" />
<glyph unicode=")" horiz-adv-x="778" d="M369 768q11 145 -6.5 264t-50 212t-72 161t-72.5 111l153 121q23 -19 56 -55t68.5 -88t70.5 -119.5t62.5 -150t44.5 -179.5t17 -207q0 -164 -36 -305.5t-93 -261t-128 -216t-140.5 -169.5t-131.5 -122.5t-100 -74.5l-114 121q40 38 89 89t99 115.5t98 143.5t87 173 t65.5 203t33.5 234z" />
<glyph unicode="*" horiz-adv-x="856" d="M479 1501h211l-60 -247q60 22 119.5 45t118.5 45l30 -203l-241 -50h1l137 -169l-178 -138l-114 207l-177 -207l-136 137l190 170h1l-224 50l94 203l208 -90z" />
<glyph unicode="+" horiz-adv-x="1358" d="M878 1147l-60 -377h375l-33 -211h-375l-60 -376h-216l60 376h-374l33 211h374l60 377h216z" />
<glyph unicode="," horiz-adv-x="504" d="M-53 -191q30 17 60 38.5t54 49t39.5 62t17.5 76.5q2 35 -4.5 65t-17.5 55t-24.5 43.5t-24.5 31.5l222 59q12 -11 25.5 -30.5t25.5 -46.5t19.5 -60t7.5 -71q0 -70 -25 -128t-68 -104.5t-99.5 -82.5t-119.5 -63z" />
<glyph unicode="-" horiz-adv-x="1055" d="M231 638h616l-33 -211h-617z" />
<glyph unicode="." horiz-adv-x="528" d="M57 103q0 44 14 78t39.5 57.5t59.5 35.5t75 12q58 0 91.5 -32.5t33.5 -90.5q0 -44 -14 -78t-39 -57.5t-59.5 -35.5t-74.5 -12q-58 0 -92 32.5t-34 90.5z" />
<glyph unicode="/" horiz-adv-x="891" d="M1133 1585l-1065 -1835h-256l1065 1835h256z" />
<glyph unicode="0" horiz-adv-x="1266" d="M599 195q69 0 128 45t102.5 124t68 187.5t24.5 236.5q0 81 -12.5 145t-37 109t-61 69t-84.5 24q-69 0 -128 -45t-102 -124t-67.5 -188t-24.5 -236q0 -81 12.5 -145t36.5 -109t60.5 -69t84.5 -24zM555 -20q-106 0 -188 39t-137.5 110t-84 170t-28.5 219q0 117 21 224 t61 199.5t97 168t130 129t159.5 82.5t185.5 29q106 0 188 -39t137.5 -110t84 -170t28.5 -219q0 -117 -21 -224t-61 -199.5t-97 -168t-130 -129t-159.5 -82.5t-185.5 -29z" />
<glyph unicode="1" horiz-adv-x="727" d="M195 0l175 1106q-26 -3 -60 -6.5t-69 -6.5t-69 -5.5t-60 -3.5l19 212q46 4 108.5 10t128.5 13.5t130.5 15t115.5 15.5h65l-214 -1350h-270z" />
<glyph unicode="2" horiz-adv-x="995" d="M27 187q128 131 229.5 234t183.5 189q60 64 100.5 113.5t64.5 92t34 81t10 79.5q0 73 -41 109.5t-114 36.5q-39 0 -77.5 -5t-72 -12.5t-61 -15.5t-44.5 -14l-45 195q16 7 52.5 20.5t86 26.5t109 23t122.5 10q93 0 163 -23.5t117 -66.5t70.5 -104t23.5 -136 q0 -71 -19.5 -135.5t-54.5 -125.5t-83.5 -120t-107.5 -117q-75 -76 -155 -150t-161 -151h526l-34 -221h-852z" />
<glyph unicode="3" horiz-adv-x="976" d="M504 773q21 10 43 27.5t39.5 44t29 61t11.5 79.5q0 63 -35 100t-115 37q-39 0 -77.5 -6t-72 -14t-60.5 -16.5t-42 -14.5l-46 195q15 7 50 21t84.5 28t109.5 24.5t124 10.5q96 0 166 -23t115.5 -65t68 -100t22.5 -128q0 -60 -20 -111.5t-51.5 -94t-70.5 -75t-78 -54.5 q25 -10 54.5 -31t55.5 -54t43.5 -78.5t17.5 -104.5q0 -108 -43 -192t-118 -141.5t-177 -87.5t-221 -30q-67 0 -120.5 8.5t-95 21t-71 27.5t-47.5 28l89 204q15 -8 39.5 -18.5t57 -20t72.5 -16t86 -6.5q54 0 101.5 10.5t83 34t56 61.5t20.5 93q0 82 -50 120t-137 38h-133 l33 208h209v0z" />
<glyph unicode="4" horiz-adv-x="1121" d="M944 928l-62 -433h181l-33 -215h-182l-44 -280h-253l44 280h-548l30 195l498 875l253 -20l-470 -835h273l74 433h239z" />
<glyph unicode="5" horiz-adv-x="1016" d="M381 208q56 0 105.5 14t86 43t58 73.5t21.5 104.5q0 87 -52 134t-154 47q-44 0 -88 -1.5t-81 -3.5t-63 -4t-35 -4l137 719h697l-35 -221h-442l-54 -274q8 2 27.5 4.5t45.5 2.5q87 0 158.5 -25.5t122 -72t78 -113t27.5 -148.5q0 -119 -41.5 -212t-116 -158t-178.5 -99 t-230 -34q-65 0 -118 8t-94.5 20t-71 26.5t-48.5 28.5l85 205q17 -9 43.5 -19.5t59 -19.5t71 -15t79.5 -6z" />
<glyph unicode="6" horiz-adv-x="1146" d="M800 1122q-74 0 -133.5 -29.5t-104.5 -80t-75 -118t-45 -144.5q10 8 28 18.5t43.5 20.5t59 17t73.5 9q92 5 164 -16t122 -65.5t76 -109.5t26 -147q0 -110 -37.5 -201t-107 -157t-169 -102.5t-222.5 -36.5q-89 0 -159.5 28.5t-120 85.5t-75.5 142.5t-26 200.5 q0 120 18.5 234.5t56 215.5t95.5 186.5t137 146.5t180.5 95.5t225.5 34.5q52 0 97 -7t79.5 -16t58.5 -18.5t34 -14.5l-83 -206q-10 3 -30 8.5t-48 11.5t-63 10t-75 4zM546 195q100 0 152.5 61.5t52.5 178.5q0 45 -11.5 77.5t-32.5 54t-50.5 31.5t-64.5 9q-62 -2 -108 -22.5 t-72 -42.5q-14 -74 -13 -137t17 -110t48.5 -73.5t81.5 -26.5z" />
<glyph unicode="7" horiz-adv-x="907" d="M948 1137l-602 -1137h-279l591 1115h-517l33 215h805z" />
<glyph unicode="8" horiz-adv-x="1100" d="M465 -20q-84 0 -156.5 18.5t-126 55.5t-84.5 93t-31 131q0 74 28.5 134t72.5 107.5t97 82t103 57.5q-37 21 -68.5 48.5t-54.5 61.5t-36 75t-13 89q0 93 39 170t106.5 132t158 85t192.5 30q83 0 151 -20.5t117 -59t75.5 -94.5t26.5 -127q0 -74 -25.5 -131t-64.5 -100 t-86 -72.5t-90 -49.5q26 -17 59 -43.5t62 -64t49 -86.5t20 -110q0 -99 -41 -175.5t-111.5 -129t-165.5 -80t-203 -27.5zM508 188q38 0 75 12.5t66 36t47 56t18 73.5q0 33 -12.5 62.5t-34.5 56t-50.5 48.5t-61.5 40q-106 -52 -159.5 -111t-53.5 -131q0 -36 13.5 -63 t36.5 -44.5t53 -26.5t63 -9zM784 1008q0 63 -37 99t-98 36q-36 0 -68 -13t-56 -36t-38 -55.5t-14 -71.5q0 -51 25.5 -89.5t78.5 -73.5l23 -21q36 20 69.5 43t59 50t40.5 60t15 72z" />
<glyph unicode="9" horiz-adv-x="1140" d="M394 208q73 0 131 28t101.5 77.5t71.5 118t42 148.5q-10 -8 -28.5 -18.5t-44.5 -20.5t-59 -17.5t-73 -8.5q-92 -5 -164.5 16t-122.5 65.5t-76 109.5t-26 147q0 109 38 200.5t108 157.5t169 102.5t221 36.5q184 0 282.5 -114t98.5 -343q0 -190 -37.5 -356.5t-118.5 -290 t-210 -195t-312 -71.5q-58 0 -107 7.5t-87.5 18t-64.5 22t-39 18.5l84 206q10 -5 30.5 -12.5t49 -14.5t65 -12t78.5 -5zM634 1135q-100 0 -152.5 -61.5t-52.5 -178.5q0 -89 44.5 -131.5t114.5 -40.5q62 2 107.5 22.5t71.5 42.5q14 73 13.5 136t-16.5 110t-48.5 74t-81.5 27z " />
<glyph unicode=":" horiz-adv-x="533" d="M178 861q0 44 14 78t39.5 57.5t59.5 35.5t75 12q58 0 91.5 -32.5t33.5 -90.5q0 -44 -14 -78t-39 -57.5t-59.5 -35.5t-74.5 -12q-58 0 -92 32.5t-34 90.5zM57 103q0 44 14 78t39.5 57.5t59.5 35.5t75 12q58 0 91.5 -32.5t33.5 -90.5q0 -44 -14 -78t-39 -57.5t-59.5 -35.5 t-74.5 -12q-58 0 -92 32.5t-34 90.5z" />
<glyph unicode=";" horiz-adv-x="507" d="M152 861q0 44 14 78t39.5 57.5t59.5 35.5t75 12q57 0 91 -32.5t34 -90.5q0 -44 -14 -78t-39.5 -57.5t-60 -35.5t-74.5 -12q-57 0 -91 32.5t-34 90.5zM-53 -191q30 17 60 38.5t54 49t39.5 62t17.5 76.5q2 35 -4.5 65t-17.5 55t-24.5 43.5t-24.5 31.5l222 59 q12 -11 25.5 -30.5t25.5 -46.5t19.5 -60t7.5 -71q0 -70 -25 -128t-68 -104.5t-99.5 -82.5t-119.5 -63z" />
<glyph unicode="&#x3c;" horiz-adv-x="1092" d="M972 1010l-495 -345l386 -343l-159 -158l-559 501l718 503z" />
<glyph unicode="=" horiz-adv-x="1347" d="M233 597h919l-33 -211h-919zM288 945h919l-33 -210h-918z" />
<glyph unicode="&#x3e;" horiz-adv-x="1090" d="M208 320l495 345l-385 343l158 158l559 -501l-718 -503z" />
<glyph unicode="?" horiz-adv-x="786" d="M192 407q-10 54 -5.5 103.5t25 97t59 94.5t95.5 96q43 36 78.5 66t61.5 57t40.5 53t14.5 54q0 54 -40.5 81t-132.5 27q-32 0 -64.5 -3t-60.5 -6.5t-50 -8t-34 -7.5l16 206q13 4 39.5 9.5t62 10.5t78 9t89.5 4q90 0 159.5 -19.5t117 -54.5t71.5 -82.5t24 -103.5 q0 -75 -26.5 -132.5t-69.5 -106t-99 -92t-114 -89.5q-38 -30 -64 -58t-42 -57.5t-23 -61t-7 -69.5zM110 103q0 44 14 78t39.5 57.5t59.5 35.5t75 12q57 0 91 -32.5t34 -90.5q0 -44 -14 -78t-39.5 -57.5t-60 -35.5t-74.5 -12q-57 0 -91 32.5t-34 90.5z" />
<glyph unicode="@" horiz-adv-x="2107" d="M1485 343q-12 -85 -3.5 -124.5t42.5 -41.5q27 -2 58.5 18t63 59.5t60 96.5t49 128t30 155t3.5 178q-6 105 -40 191t-99.5 147.5t-163.5 95t-232 33.5q-138 0 -256.5 -36t-215 -100t-170.5 -152t-124.5 -192t-76.5 -221t-26 -238q0 -138 32.5 -242.5t94.5 -174t152 -105 t206 -35.5q50 0 98.5 5t91.5 12.5t78 16t58 16.5l36 -175q-21 -9 -61 -22t-93.5 -24.5t-117 -19.5t-131.5 -8q-172 0 -305.5 47.5t-225 139.5t-139.5 226.5t-48 308.5q0 148 35 292.5t103.5 274.5t170.5 241.5t235 192.5t296.5 127t356.5 46q185 0 328.5 -59t240 -163 t142.5 -246.5t37 -310.5q-6 -102 -30 -195t-63 -173t-92 -145.5t-116.5 -111.5t-136 -71t-150.5 -25q-54 0 -104 22t-82.5 71.5t-39 128t26.5 192.5q-39 -92 -84 -168.5t-97 -131t-110 -84.5t-122 -30q-53 0 -96 19.5t-74 60t-47.5 102t-16.5 144.5q0 96 17.5 188t50 174 t80 151t107 119t131 78t152.5 28q56 0 103 -22.5t84 -52.5l17 67h232q-3 -17 -5.5 -34.5t-5.5 -34.5zM1166 839q-57 0 -107 -44t-87 -117t-58.5 -168t-21.5 -197q0 -103 59 -103q22 0 52 21.5t63 59.5t67.5 90.5t66 114.5t58 131t43.5 141q-3 6 -14.5 17.5t-29 23.5t-41 21 t-50.5 9z" />
<glyph unicode="A" horiz-adv-x="1182" d="M786 308h-433l-151 -308h-280l687 1330h247l264 -1330h-280zM452 513h300l-74 477z" />
<glyph unicode="B" horiz-adv-x="1109" d="M65 0l211 1330h414q93 0 167 -18.5t125.5 -56t79 -93t27.5 -129.5q0 -57 -17 -105.5t-45 -89t-64.5 -71.5t-75.5 -52q36 -15 67 -42t54 -62.5t36 -78.5t13 -92q0 -98 -39 -178.5t-111 -139t-174.5 -90.5t-228.5 -32h-439zM422 584l-60 -374h168q53 0 96.5 13.5t74 39.5 t47 65t16.5 90q0 74 -42 120t-132 46h-168zM452 776h243q21 15 41 36.5t36 48.5t25.5 57.5t9.5 62.5q0 68 -38.5 103.5t-115.5 35.5h-146z" />
<glyph unicode="C" horiz-adv-x="1052" d="M95 499q0 187 52.5 343.5t148.5 269.5t230 175.5t297 62.5q49 0 94.5 -6t83.5 -15.5t67 -20.5t46 -20l-76 -202q-39 11 -102.5 24.5t-140.5 13.5q-94 0 -170.5 -42.5t-130.5 -119.5t-83 -185t-29 -239q0 -75 17 -136.5t51.5 -105t85 -67t118.5 -23.5q70 0 142.5 17 t134.5 46l31 -201q-33 -20 -74 -36t-86 -27.5t-92 -18t-93 -6.5q-126 0 -223.5 37t-164 105.5t-100.5 164t-34 212.5z" />
<glyph unicode="D" horiz-adv-x="1262" d="M65 0l211 1330h410q132 0 233 -38t169.5 -108.5t103.5 -170t35 -222.5q0 -178 -52 -324t-149.5 -249.5t-238.5 -160.5t-318 -57h-404zM502 210q98 0 179 39t138.5 111.5t89 175t31.5 228.5q0 84 -19 150.5t-56 112t-90 69.5t-122 24h-146l-145 -910h140z" />
<glyph unicode="E" horiz-adv-x="986" d="M1016 1109h-509l-52 -331h484l-34 -215h-484l-55 -342h527l-34 -221h-794l211 1330h775z" />
<glyph unicode="F" horiz-adv-x="954" d="M1009 1109h-502l-54 -341h447l-34 -214h-447l-88 -554h-266l211 1330h768z" />
<glyph unicode="G" horiz-adv-x="1169" d="M1055 99q-39 -27 -87.5 -49t-102 -37.5t-110 -24t-113.5 -8.5q-136 0 -238.5 37t-171 105.5t-103 164t-34.5 212.5q0 187 53 343.5t153 269t243 175.5t322 63q106 0 184.5 -21t123.5 -44l-80 -201q-42 14 -107 27t-149 13q-110 0 -195 -42t-143 -119t-88 -185t-30 -239 q0 -75 17.5 -136.5t54 -105t92.5 -67.5t133 -24q40 0 80.5 6t72.5 16l49 309l-224 1l31 199h468z" />
<glyph unicode="H" horiz-adv-x="1293" d="M910 560h-490l-89 -560h-266l211 1330h266l-87 -549h489l88 549h266l-210 -1330h-267z" />
<glyph unicode="I" horiz-adv-x="537" d="M276 1330h266l-210 -1330h-267z" />
<glyph unicode="J" horiz-adv-x="728" d="M739 1330l-154 -968q-15 -95 -51 -166.5t-89 -119.5t-120 -72t-144 -24q-44 0 -79.5 6t-63.5 15.5t-47.5 20.5t-30.5 20l74 202q21 -12 58 -25t87 -12q57 0 91.5 33.5t44.5 98.5l157 991h267z" />
<glyph unicode="K" horiz-adv-x="1141" d="M444 716q99 20 183 73t141 132.5t80 183t0 225.5l265 12q32 -115 18 -220.5t-61 -196.5t-119.5 -163.5t-156.5 -120.5l236 -641h-285l-182 552q-38 -12 -76 -23t-76 -20l-81 -509h-265l211 1330h265z" />
<glyph unicode="L" horiz-adv-x="918" d="M839 0h-774l211 1330h266l-176 -1109h507z" />
<glyph unicode="M" horiz-adv-x="1559" d="M276 1330h354l160 -810l416 810h358l-211 -1330h-257l149 942l-406 -787h-210l-158 787l-149 -942h-257z" />
<glyph unicode="N" horiz-adv-x="1300" d="M466 907l-144 -907h-257l211 1330h285l342 -908l145 908h257l-211 -1330h-286z" />
<glyph unicode="O" horiz-adv-x="1315" d="M629 195q76 0 144 43t120 121t82.5 187.5t30.5 242.5q0 77 -14.5 140.5t-45 109.5t-77.5 71t-111 25q-76 0 -144.5 -43t-120 -121.5t-82 -188t-30.5 -242.5q0 -77 14.5 -140t45 -109t77 -71t111.5 -25zM585 -20q-119 0 -210 39.5t-153.5 110t-94.5 167.5t-32 212 q0 180 51 334t144 266.5t223.5 176.5t288.5 64q118 0 209.5 -39.5t154 -110t94.5 -168t32 -212.5q0 -180 -51 -334t-144 -266.5t-223.5 -176t-288.5 -63.5z" />
<glyph unicode="P" horiz-adv-x="1047" d="M439 680h135q57 0 100.5 19.5t72.5 54.5t44 83.5t15 107.5q0 81 -39.5 125t-117.5 44h-141zM65 0l211 1330h406q198 0 302.5 -87t104.5 -258q0 -122 -41 -217.5t-113 -161t-169.5 -99.5t-210.5 -34h-148l-76 -473h-266z" />
<glyph unicode="Q" horiz-adv-x="1315" d="M585 -19q-119 0 -210 39.5t-153.5 110t-94.5 167.5t-32 212q0 120 23 229t66.5 202.5t106 169t141 129t171.5 82.5t199 29q118 0 209.5 -39.5t154 -109.5t94.5 -167.5t32 -212.5q0 -116 -21.5 -221t-61.5 -196t-98 -165.5t-131 -129.5q43 -89 81.5 -148.5t77 -96 t78.5 -52t87 -15.5q22 0 47.5 4t50.5 10t46.5 13t35.5 13l39 -197q-21 -10 -50 -20t-62.5 -18.5t-69.5 -13.5t-69 -5q-81 0 -144.5 18t-120.5 65.5t-112 130.5t-118 213q-45 -14 -93 -22t-99 -8zM629 197q76 0 144 43t120 121t82.5 187.5t30.5 242.5q0 76 -14.5 139.5 t-45 109.5t-77.5 71t-111 25q-76 0 -144.5 -43t-120 -121t-82 -187.5t-30.5 -242.5q0 -77 14.5 -140t45 -109t77 -71t111.5 -25z" />
<glyph unicode="R" horiz-adv-x="1103" d="M65 0l211 1330h408q203 0 311.5 -86.5t108.5 -257.5q0 -85 -28.5 -154.5t-72.5 -124t-98.5 -94t-106.5 -63.5l61 -275q7 -32 22 -50.5t35.5 -28t44.5 -12t49 -1.5q3 -35 8.5 -69.5t9.5 -69.5q-4 -6 -14.5 -14t-24.5 -15.5t-31 -14.5t-33 -13q-10 -3 -22 -5t-25 -2 q-81 0 -140.5 33.5t-91.5 111.5q-10 23 -18.5 48t-13.5 53l-54 266h-152l-78 -492h-265zM440 698h234q26 12 52 34.5t47 54t34.5 71.5t13.5 85q0 82 -43.5 126.5t-124.5 44.5h-146z" />
<glyph unicode="S" horiz-adv-x="976" d="M103 276q19 -10 51 -21t71.5 -20.5t84 -16t88.5 -6.5q100 0 152 26t63 78q3 18 2 37t-9 39q-8 37 -38.5 65.5t-84.5 61.5l-116 73q-48 30 -86.5 62t-65.5 69t-41.5 82t-14.5 102q0 101 40.5 183t110 139.5t163 89t200.5 31.5q64 0 115.5 -7.5t91.5 -18t69 -22t48 -20.5 l-77 -214q-23 8 -53.5 16.5t-66 16t-74 12t-75.5 4.5q-48 0 -86.5 -11t-65.5 -30.5t-42.5 -46t-18.5 -57.5q-6 -54 22.5 -91t82.5 -71l135 -89q50 -33 90 -65t69 -66.5t46 -73.5t21 -85q2 -23 1.5 -46t-3.5 -46q-19 -172 -151.5 -265.5t-371.5 -93.5q-58 0 -113 7t-102 18.5 t-84 26t-58 28.5z" />
<glyph unicode="T" horiz-adv-x="1018" d="M170 1330h963l-35 -221h-348l-175 -1109h-267l176 1109h-349z" />
<glyph unicode="U" horiz-adv-x="1205" d="M386 532q-13 -79 -10 -141.5t24 -105.5t62 -65.5t105 -22.5q105 0 178.5 79t97.5 233l131 821h266l-128 -808q-20 -128 -70.5 -228.5t-126 -170t-175 -106.5t-218.5 -37q-124 0 -210 38.5t-136 109t-64.5 170.5t5.5 222l129 810h266z" />
<glyph unicode="V" horiz-adv-x="1181" d="M1323 1330l-645 -1330h-319l-222 1330h292l140 -1005l458 1005h296z" />
<glyph unicode="W" horiz-adv-x="1707" d="M1839 1330l-536 -1330h-308l-83 818l-342 -818h-306l-117 1330h291l56 -977q96 238 192.5 478t191.5 479h224l81 -957l364 977h292z" />
<glyph unicode="X" horiz-adv-x="1168" d="M1105 0h-290l-216 485l-369 -485h-296l543 688l-297 642h291l189 -443l333 443h295l-507 -646z" />
<glyph unicode="Y" horiz-adv-x="1043" d="M391 501h1l-280 829h278l173 -565l354 565h283l-543 -829h1l-80 -501h-267z" />
<glyph unicode="Z" horiz-adv-x="985" d="M702 1108h-523l34 221h847l-29 -188l-726 -920h615l-34 -221h-920l29 188z" />
<glyph unicode="[" horiz-adv-x="736" d="M581 -271l-484 -8l298 1884h483l-29 -187l-245 -5l-237 -1499h244z" />
<glyph unicode="\" horiz-adv-x="1216" d="M268 1585l1065 -1835h-256l-1065 1835h256z" />
<glyph unicode="]" horiz-adv-x="706" d="M194 1597l484 8l-298 -1884h-483l30 187l245 5l237 1499h-244z" />
<glyph unicode="^" horiz-adv-x="1123" d="M127 776l440 704h281l218 -704h-276l-123 444l-264 -444h-276z" />
<glyph unicode="_" horiz-adv-x="1479" d="M185 -26h1013l-34 -210h-1013z" />
<glyph unicode="`" horiz-adv-x="753" d="M712 1166l-495 159l136 225l437 -252z" />
<glyph unicode="a" horiz-adv-x="1074" d="M929 251q-15 -94 -19 -154.5t-1 -96.5h-250q-11 33 -9.5 81t12.5 98q4 23 13 52t19 59.5t20.5 60t18.5 53.5q-38 -85 -85 -162t-101 -135t-115 -92.5t-128 -34.5q-53 0 -96 19.5t-73.5 60t-47 102t-16.5 144.5q0 96 17.5 188t50 174t79.5 151t106.5 119t131 78t152.5 28 q61 0 110.5 -24t87.5 -56l20 80h229q-3 -20 -6.5 -38.5t-6.5 -38.5zM619 837q-59 0 -109.5 -43.5t-88 -116t-58.5 -167t-21 -197.5t59 -103q21 0 52 22.5t66 61.5t71.5 93t70 116.5t61 132t44.5 139.5q-6 5 -19.5 15.5t-33 21t-43.5 18t-51 7.5z" />
<glyph unicode="b" horiz-adv-x="1074" d="M387 624q36 84 81 160t98 133.5t114 92t130 34.5q106 0 169.5 -80t63.5 -246q0 -96 -17.5 -188t-51 -174t-82.5 -151t-112 -119t-140 -78t-166 -28q-71 0 -136 12.5t-118 30t-90.5 35t-52.5 26.5l181 1135q14 86 14.5 144t-3.5 93l257 24q10 -38 10.5 -100.5 t-11.5 -137.5l-37 -235q-14 -87 -40 -184.5t-61 -198.5zM497 186q58 0 108 43.5t87 116.5t58.5 168t21.5 197q0 103 -59 103q-32 0 -82 -48.5t-103.5 -130t-101.5 -189t-76 -225.5q5 -3 19 -9t33.5 -11.5t43.5 -10t51 -4.5z" />
<glyph unicode="c" horiz-adv-x="807" d="M782 795q-6 2 -20.5 7t-34.5 10t-45 8.5t-51 3.5q-69 0 -122.5 -47t-90.5 -121.5t-56.5 -166t-19.5 -180.5q0 -54 17 -82.5t59 -28.5q32 0 70 8t76 20t72.5 25.5t58.5 24.5l33 -189q-25 -15 -63.5 -33.5t-88 -35t-109 -27.5t-126.5 -11q-130 0 -200 79.5t-70 246.5 q0 84 15.5 171.5t46 169.5t77.5 154.5t109.5 126t142 85t175.5 31.5q41 0 76.5 -6t63 -13.5t46.5 -16t28 -12.5z" />
<glyph unicode="d" horiz-adv-x="1077" d="M929 251q-15 -94 -19 -154.5t-1 -96.5h-250q-11 33 -9.5 81t12.5 98q4 23 13 52t19 59.5t20.5 60t18.5 53.5q-38 -85 -85 -162t-101 -135t-115 -92.5t-128 -34.5q-53 0 -96 19.5t-73.5 60t-47 102t-16.5 144.5q0 96 17.5 188t50 174t79.5 151t106.5 119t131 78t152.5 28 q51 0 94.5 -17t78.5 -43l38 235q14 86 14.5 144t-3.5 93l257 24q10 -38 10.5 -100.5t-11.5 -137.5l-44 -275zM619 837q-59 0 -109.5 -43.5t-88 -116t-58.5 -167t-21 -197.5t59 -103q21 0 52 22.5t66 61.5t71.5 93t70 116.5t61 132t44.5 139.5q-6 6 -19.5 16t-33 20.5 t-43.5 18t-51 7.5z" />
<glyph unicode="e" horiz-adv-x="875" d="M877 810q1 -82 -37.5 -147t-108.5 -113.5t-167.5 -81t-213.5 -49.5q-5 -28 -6.5 -56t-1.5 -54q0 -54 18.5 -82.5t61.5 -28.5q35 0 79 10.5t88.5 25t84 30.5t65.5 28l31 -190q-25 -16 -67.5 -37t-98.5 -40t-122 -32t-138 -13q-131 0 -202 79.5t-71 246.5q0 84 15.5 171.5 t45.5 169.5t75.5 154.5t104.5 126t132.5 85t160.5 31.5q132 0 202 -62.5t70 -171.5zM584 845q-35 0 -67.5 -23t-61 -62t-50.5 -90.5t-35 -108.5q56 11 105 32.5t85.5 50.5t57.5 64.5t21 74.5q0 31 -14.5 46.5t-40.5 15.5z" />
<glyph unicode="f" horiz-adv-x="692" d="M539 1120q-2 -26 -1 -54t3 -42h247l-32 -199h-237l-194 -1221h-264l194 1221h-142l29 181l149 10q-3 18 -3.5 38.5t-0.5 42.5q3 183 111.5 283t314.5 100q37 0 72.5 -5t65 -11.5t50.5 -13.5t29 -10l-63 -187q-26 8 -71 15t-91 7q-44 0 -74.5 -11.5t-50 -32.5t-29.5 -49.5 t-12 -61.5z" />
<glyph unicode="g" horiz-adv-x="1091" d="M1055 967q-27 -168 -48 -306.5t-39 -257t-33.5 -221.5t-30.5 -202q-18 -105 -59.5 -180t-107.5 -123t-157.5 -70.5t-210.5 -22.5q-60 0 -112 7.5t-93 18t-69 21.5t-40 18l53 192q15 -6 43 -14.5t63.5 -16t77 -12.5t84.5 -5q121 0 188.5 50t87.5 144q14 70 26.5 143 t32.5 161q9 29 18 58.5t20 61.5q-38 -87 -85 -165t-101.5 -137t-116 -94t-129.5 -35q-53 0 -95.5 19.5t-73.5 60t-47.5 102t-16.5 144.5q0 96 17.5 188t50 174t79.5 151t106.5 119t131 78t152.5 28q61 0 111 -24t88 -56l19 80h229q-3 -20 -6 -38.5t-7 -38.5zM632 837 q-59 0 -109.5 -43.5t-88 -116t-58.5 -167t-21 -197.5t59 -103q21 0 52 22.5t66 61.5t71.5 93t70 116.5t61 132t44.5 139.5q-6 5 -19.5 15.5t-33 21t-43.5 18t-51 7.5z" />
<glyph unicode="h" horiz-adv-x="1106" d="M260 1219q14 86 14.5 144t-3.5 93l256 24q8 -29 10 -75.5t-3 -96.5q-4 -45 -12 -100l-35 -218q-7 -40 -15 -79t-20 -83q-7 -26 -16 -57t-19 -62.5t-20 -61.5t-18 -55q45 98 97.5 181t111 143t122.5 94t132 34q67 0 110.5 -25t66.5 -70.5t27 -108.5t-8 -139l-72 -450 q-15 -94 -19 -154.5t-1 -96.5h-247q-4 10 -7 31t-4.5 48t-0.5 58t6 63l74 468q5 20 3 36q2 27 -4 45t-25 23q-18 9 -49 0q-38 -10 -87.5 -56.5t-98 -126t-89.5 -189.5t-63 -246v1l-24 -155h-264l194 1219v0z" />
<glyph unicode="i" horiz-adv-x="517" d="M228 1024h264l-123 -773q-15 -94 -19 -154.5t-1 -96.5h-247q-4 10 -7 31t-4.5 48t-0.5 58t6 63zM256 1320q0 43 14 77t39 57.5t59.5 35.5t75.5 12q57 0 91 -32.5t34 -90.5q0 -44 -14 -78t-39.5 -57.5t-60 -35.5t-74.5 -12q-57 0 -91 32.5t-34 91.5z" />
<glyph unicode="j" horiz-adv-x="518" d="M230 1024h263l-168 -1071q-16 -104 -49 -174.5t-81.5 -113.5t-112.5 -62t-142 -19q-38 0 -70 5t-57.5 12t-43 14.5t-24.5 11.5l51 188q17 -6 51.5 -14t73.5 -8q33 0 55.5 8t38.5 26t26 47.5t17 73.5zM257 1320q0 43 14 77t39 57.5t59.5 35.5t75.5 12q57 0 91 -32.5 t34 -90.5q0 -44 -14 -78t-39.5 -57.5t-60 -35.5t-74.5 -12q-57 0 -91 32.5t-34 91.5z" />
<glyph unicode="k" horiz-adv-x="991" d="M424 584q64 22 123 62t100 96t58.5 127t-0.5 155l276 20q20 -66 17.5 -124.5t-20.5 -110t-48 -95t-65 -79t-72 -63.5t-69 -47l183 -525h-287l-124 428q-26 -11 -52 -21t-50 -18l-62 -389h-266l195 1219q14 86 14.5 144t-3.5 93l256 24q11 -38 11.5 -100.5t-11.5 -137.5z " />
<glyph unicode="l" horiz-adv-x="517" d="M260 1219q14 86 14 144t-3 93l256 24q10 -38 10.5 -100.5t-10.5 -137.5l-158 -991q-15 -94 -19 -154.5t-1 -96.5h-247q-4 10 -7 31t-4.5 48t-0.5 58t6 63z" />
<glyph unicode="m" horiz-adv-x="1687" d="M458 1024q11 -34 9 -83t-13 -100q-6 -29 -15 -61.5t-19.5 -65.5t-21 -64.5t-19.5 -57.5q44 99 96 182t109.5 143t120.5 93.5t129 33.5q50 0 86.5 -14.5t60.5 -38.5t36 -56t14 -68q2 -21 -0.5 -46t-7.5 -52q-4 -20 -11 -43t-14.5 -47t-15.5 -46t-14 -40q45 98 96.5 181 t109 143t120.5 93.5t129 33.5q67 0 110.5 -25t66.5 -70.5t27 -108.5t-8 -139l-72 -450q-15 -94 -19 -154.5t-1 -96.5h-247q-4 10 -7 31t-4.5 48t-0.5 58t6 63l75 468q8 50 -1.5 81.5t-46.5 31.5q-35 0 -86 -40.5t-103.5 -119.5t-98.5 -196t-70 -271l-25 -154h-264l107 673 q7 48 -3 78t-46 30q-35 0 -86 -40.5t-103.5 -119.5t-98.5 -196t-70 -271l-24 -154h-264l122 773q15 94 19.5 154.5t1.5 96.5h249z" />
<glyph unicode="n" horiz-adv-x="1106" d="M458 1024q11 -34 9 -83t-13 -100q-6 -29 -15.5 -62t-20 -66t-21 -64.5t-18.5 -56.5q45 98 97.5 181t111 143t122.5 94t132 34q67 0 110.5 -25t66.5 -70.5t27 -108.5t-8 -139l-72 -450q-15 -94 -19 -154.5t-1 -96.5h-247q-4 10 -7 31t-4.5 48t-0.5 58t6 63l74 468 q2 13 3 32.5t-3 37.5t-15 30.5t-33 12.5q-35 0 -87.5 -40.5t-106 -119.5t-100.5 -196t-71 -271l-24 -154h-264l122 773q15 94 19.5 154.5t1.5 96.5h249z" />
<glyph unicode="o" horiz-adv-x="983" d="M392 -20q-78 0 -140 25.5t-105 72t-65.5 112t-22.5 145.5q0 153 40.5 283t115.5 224.5t180.5 148t236.5 53.5q79 0 140.5 -25.5t104.5 -72t65.5 -112.5t22.5 -146q0 -153 -41 -283t-116 -224.5t-180.5 -147.5t-235.5 -53zM434 179q56 0 104 40.5t82.5 109.5t54 159 t19.5 189q0 87 -25.5 125t-77.5 38q-56 0 -103.5 -40t-82.5 -107.5t-55 -156.5t-20 -188q0 -87 26 -128t78 -41z" />
<glyph unicode="p" horiz-adv-x="1080" d="M187 773q15 94 19 154.5t1 96.5h250q10 -33 9 -81t-12 -98q-5 -23 -13.5 -52t-18.5 -59.5t-20.5 -60t-18.5 -53.5q38 85 84.5 162t100.5 135t115 92.5t129 34.5q106 0 169.5 -80t63.5 -246q0 -96 -17.5 -188t-50 -174t-79.5 -151t-106.5 -119t-131 -78t-152.5 -28 q-52 0 -95 17t-78 43l-71 -436h-264l74 453zM497 187q59 0 109.5 43.5t88 116t58.5 167t21 197.5t-59 103q-22 0 -52.5 -22.5t-65.5 -61.5t-71.5 -93t-70 -116.5t-61 -132t-44.5 -139.5q6 -6 19.5 -16.5t33 -20.5t43.5 -17.5t51 -7.5z" />
<glyph unicode="q" horiz-adv-x="1071" d="M823 -396h-263q22 138 41.5 281t51.5 276q12 50 33 113t41 126q-36 -84 -81 -160t-98 -134t-114 -92t-130 -34q-53 0 -96 19.5t-73.5 60t-47 102t-16.5 144.5q0 96 17.5 188t51 174t82.5 151t112 119t140 78t166 28q71 0 136 -13t118 -30t90.5 -34.5t52.5 -26.5zM617 837 q-58 0 -108 -43.5t-87 -116t-58.5 -167.5t-21.5 -197q0 -103 59 -103q32 0 82 48.5t103.5 130t101.5 189t76 225.5q-5 3 -19 8.5t-33.5 11.5t-43.5 10t-51 4z" />
<glyph unicode="r" horiz-adv-x="784" d="M458 1024q12 -38 8.5 -93t-18.5 -116q-5 -21 -12.5 -46t-15.5 -51.5t-16 -51.5t-15 -45q38 86 80.5 163t90.5 134.5t102 91.5t115 34q25 0 43.5 -5.5t26.5 -9.5l-52 -301q-11 2 -33 4.5t-45 2.5q-45 0 -98 -30.5t-103 -99t-93.5 -179.5t-68.5 -272l-24 -154h-264l122 773 q15 94 19.5 154.5t1.5 96.5h249z" />
<glyph unicode="s" horiz-adv-x="757" d="M74 236q15 -6 41 -14.5t59 -16t70 -13t74 -5.5q60 0 93 16.5t33 58.5q0 20 -10 40t-30 43t-51.5 51.5t-74.5 64.5q-45 38 -78 72t-54 68t-31 69t-10 75q0 67 24.5 122t71.5 94.5t117 61t160 21.5q47 0 91 -5.5t80 -13t61.5 -15t35.5 -11.5l-42 -202q-10 3 -33.5 9t-55 12 t-68 10.5t-72.5 4.5q-50 0 -76 -14.5t-33 -36.5q-4 -10 -5 -21t3 -23q3 -17 11.5 -33.5t24.5 -34.5t40.5 -40.5t58.5 -51.5q53 -45 90.5 -83.5t61.5 -74.5t35 -71.5t11 -74.5q1 -68 -21 -122t-67.5 -92.5t-115 -59t-163.5 -20.5q-55 0 -103.5 5.5t-88 14t-69.5 18.5t-48 19z " />
<glyph unicode="t" horiz-adv-x="748" d="M512 1024h257l-32 -199h-253l-82 -520q-4 -28 -3 -42q-2 -35 10.5 -50t41.5 -15q18 0 46 5.5t58.5 14.5t60 19.5t51.5 19.5l31 -189q-23 -13 -58.5 -28.5t-79 -28.5t-92 -22t-98.5 -9q-67 0 -117 16t-81 52t-41.5 93.5t2.5 139.5l87 544h-144l29 181l160 10l56 235 l230 19z" />
<glyph unicode="u" horiz-adv-x="1094" d="M677 0q-11 34 -9.5 82.5t12.5 99.5q6 29 15.5 62t20 66.5t21 64.5t19.5 57q-44 -99 -95 -182t-108 -143t-118.5 -93.5t-127.5 -33.5q-67 0 -110.5 25t-66.5 70.5t-27 108.5t8 139l72 450q14 94 18.5 154.5t1.5 96.5h247q4 -10 7 -31t4.5 -48t0.5 -58.5t-7 -62.5l-74 -468 q-3 -22 -2 -36q-2 -35 9.5 -56t40.5 -21q34 0 84.5 40.5t102 119.5t96.5 196t69 271v-1l24 155h264l-123 -773q-15 -94 -19 -154.5t-1 -96.5h-249z" />
<glyph unicode="v" horiz-adv-x="905" d="M881 1044q14 -30 22.5 -77t8.5 -104q0 -131 -43 -258t-115 -240.5t-165 -207t-193 -157.5h-208l-49 813q-2 32 -5.5 64t-8 60.5t-10 51t-9.5 35.5h249q11 -32 18 -77.5t10 -99.5l32 -595q55 55 99 123t75 145.5t47.5 160.5t16.5 168q0 50 -6 95t-17 80z" />
<glyph unicode="w" horiz-adv-x="1424" d="M1394 1044q14 -31 23.5 -79t9.5 -107q0 -131 -40.5 -257t-109 -237.5t-158.5 -204.5t-189 -159h-200l-34 313q-57 -95 -127.5 -173.5t-147.5 -139.5h-220l-55 813q-2 32 -6.5 64t-9.5 60.5t-10.5 51t-9.5 35.5h248q12 -32 19.5 -77.5t10.5 -99.5l37 -611q112 115 172 256 t67 301q-5 75 -14.5 127t-19.5 84l253 20q14 -31 23.5 -79t9.5 -107q0 -94 -26 -187q1 -11 1.5 -21.5t1.5 -21.5l35 -372q59 62 104.5 134t76 149.5t46 159t15.5 162.5q0 53 -6.5 100t-18.5 83z" />
<glyph unicode="x" horiz-adv-x="1005" d="M930 0h-281l-148 355l-250 -355h-283l412 528l-223 496h279l118 -323l213 323h282l-372 -497z" />
<glyph unicode="y" horiz-adv-x="941" d="M203 229q-6 103 -13.5 199.5t-15.5 182t-16.5 158t-15.5 126.5t-13 87.5t-9 41.5h248q10 -33 34 -224.5t42 -543.5q2 -29 1.5 -54.5t-2.5 -48.5q15 24 28.5 48.5t26.5 49.5q43 72 78.5 150.5t60.5 159.5t38.5 161.5t13.5 157.5q0 38 -4 75t-15 69l251 20 q10 -26 18.5 -70.5t8.5 -96.5q0 -87 -23.5 -183.5t-65.5 -198t-100 -205.5t-128 -204.5t-149.5 -196t-163.5 -180.5q-57 -64 -132.5 -94.5t-166.5 -30.5q-70 0 -118 18t-71 34l71 184q18 -10 53.5 -18.5t69.5 -8.5q49 0 86 18.5t60 67t31.5 133.5t1.5 217z" />
<glyph unicode="z" horiz-adv-x="833" d="M-23 92l544 733h-387l31 199h676l-26 -165l-461 -622q11 -16 40 -28.5t75 -12.5q33 0 69.5 11.5t70 27.5t62 33t46.5 29l59 -204q-21 -15 -52 -34.5t-71 -37t-88 -29.5t-102 -12q-47 0 -84 13.5t-63.5 36t-42.5 51.5t-21 61l-121 -162z" />
<glyph unicode="{" horiz-adv-x="767" d="M560 1334q-3 -44 16 -92.5t43 -99.5t45 -103t21 -104t-18.5 -96.5t-51 -79t-76 -59t-92.5 -36.5q73 -20 118 -72.5t45 -126.5q0 -43 -19.5 -87.5t-49 -89t-63.5 -88t-63.5 -83.5t-49 -76t-19.5 -66q0 -43 26 -68.5t78 -25.5q35 0 67.5 5.5t55.5 12.5l2 -173 q-26 -12 -76 -23.5t-107 -11.5q-64 0 -116.5 15t-90 44.5t-58 72.5t-20.5 100q0 52 19.5 100.5t48 93.5t62.5 87.5t62.5 82.5t48 77t19.5 73q0 72 -48.5 105.5t-136.5 35.5l27 172q16 1 31 2t29 3q41 4 73.5 19t55 37t34.5 50t12 59q0 45 -18.5 93.5t-40 98t-40 100 t-18.5 100.5q0 76 29.5 136.5t81 102.5t120.5 64t148 22q54 0 98.5 -11.5t67.5 -22.5l-57 -174q-20 7 -51.5 13t-70.5 6q-29 0 -53 -10t-41.5 -26.5t-27.5 -36.5t-11 -41z" />
<glyph unicode="|" horiz-adv-x="574" d="M567 1523l-320 -2022h-240l320 2022h240z" />
<glyph unicode="}" horiz-adv-x="797" d="M297 -5q3 44 -16 92.5t-43.5 99t-45 103t-20.5 104.5t18.5 96.5t51 79t75.5 59t93 36.5q-73 20 -118 72.5t-45 126.5q0 43 19.5 87.5t49 89t63.5 87.5t63.5 83.5t49 76.5t19.5 66q0 43 -26 68.5t-78 25.5q-35 0 -67.5 -5.5t-55.5 -13.5l-2 174q26 12 76 23t107 11 q64 0 116.5 -15t89.5 -44t57.5 -72t20.5 -100q0 -52 -19 -100.5t-48 -93.5t-62.5 -87.5t-62.5 -82.5t-48 -77.5t-19 -72.5q0 -72 48.5 -105.5t136.5 -35.5l-27 -172q-17 -1 -32 -2t-29 -3q-41 -5 -73 -19.5t-54.5 -36.5t-34.5 -50t-12 -59q0 -45 18.5 -93.5t40 -98t40 -100 t18.5 -100.5q0 -76 -29.5 -136.5t-81 -102.5t-120.5 -64.5t-148 -22.5q-54 0 -98.5 12t-67.5 23l57 174q20 -7 51 -13t71 -6q29 0 53 10t41 26.5t27 36.5t12 41z" />
<glyph unicode="~" horiz-adv-x="1147" d="M165 662q66 65 147.5 103t166.5 38q44 0 80.5 -10.5t70.5 -23.5t67 -23.5t71 -10.5q28 0 56 7.5t53.5 18.5t48.5 23.5t40 22.5l46 -139q-66 -65 -147.5 -103t-166.5 -38q-44 0 -81 10.5t-70.5 23.5t-67 23.5t-71.5 10.5q-28 0 -56 -7.5t-53.5 -18.5t-48 -23.5 t-39.5 -22.5z" />
<glyph unicode="&#xa1;" horiz-adv-x="567" d="M30 -306l187 909h201l-100 -909h-288zM204 861q0 44 14 78t39.5 57.5t59.5 35.5t75 12q57 0 91 -32.5t34 -90.5q0 -44 -14 -78t-39.5 -57.5t-60 -35.5t-74.5 -12q-57 0 -91 32.5t-34 90.5z" />
<glyph unicode="&#xa2;" horiz-adv-x="988" d="M100 569q-1 123 36.5 228t106.5 186t165.5 134t213.5 70l19 230h219l-53 -226q70 -10 119.5 -29t73.5 -35l-78 -191q-9 4 -28.5 11.5t-46.5 15.5t-60 14t-69 6q-75 0 -137.5 -26.5t-108 -76t-71 -120.5t-24.5 -160q0 -125 65.5 -191t186.5 -66q34 0 68 5.5t63 13.5 t52.5 16.5t36.5 14.5l28 -189q-34 -19 -92 -39.5t-139 -28.5l-19 -224h-219l53 227q-85 13 -152 50t-113 92.5t-70.5 128.5t-25.5 159z" />
<glyph unicode="&#xa3;" horiz-adv-x="1105" d="M149 748h138q0 46 3 93t11 98q15 97 55.5 173.5t104 129t148 80.5t188.5 28q51 0 94 -8t77.5 -20t60 -25.5t41.5 -23.5l-85 -193q-10 5 -32 13.5t-51 17t-64.5 15t-72.5 6.5q-78 0 -131 -45.5t-67 -133.5q-8 -53 -10.5 -103.5t-2.5 -101.5h321l-22 -138h-303 q-4 -95 -26 -194.5t-66 -200.5q57 -6 111 -15.5t110 -10.5q36 -1 62 8t46 26t35.5 42t29.5 57l166 -49q-37 -151 -129.5 -222t-229.5 -71q-47 0 -91 6t-87.5 13t-88.5 13.5t-94 7.5l-7 -5.5t-18 -13.5t-24.5 -16.5t-28.5 -14.5l-140 29l-20 156q12 7 29.5 14.5t36.5 14.5 t39 13t37 10q42 106 61.5 205t23.5 198h-160z" />
<glyph unicode="&#xa4;" horiz-adv-x="1267" d="M997 105l-171 187q-54 -25 -114.5 -38t-126.5 -13q-65 0 -120 14t-100 40l-234 -190l-111 106l215 213q-46 83 -46 187q0 89 31 168t88 142l-143 207l145 107l171 -188q54 24 114 37.5t126 13.5q65 0 120 -14.5t100 -40.5l235 192l111 -107l-215 -214q22 -41 34 -87.5 t12 -97.5q0 -89 -31 -167.5t-86 -141.5l140 -209zM616 432q55 0 103.5 21t84 58t56 87.5t20.5 109.5q0 44 -13 80.5t-38 62.5t-60 40.5t-78 14.5q-56 0 -104 -20.5t-83.5 -57.5t-56 -87t-20.5 -109q0 -44 13 -81t38 -63.5t59.5 -41t78.5 -14.5z" />
<glyph unicode="&#xa5;" horiz-adv-x="1202" d="M231 866h140l-179 464h275l173 -487q4 -11 8.5 -22t9.5 -23l359 532h275l-329 -464h143l-21 -137h-875zM212 602h830l-22 -137h-282l-74 -465h-267l74 465h-281z" />
<glyph unicode="&#xa6;" horiz-adv-x="574" d="M567 1523l-128 -810h-240l128 810h240zM375 311l-128 -810h-240l128 810h240z" />
<glyph unicode="&#xa7;" horiz-adv-x="1030" d="M1022 1200q-48 18 -107.5 35.5t-127.5 22.5q-35 -45 -47.5 -104.5t-7.5 -132.5q3 -42 11 -91t22 -101l86 -327q13 -53 24.5 -100.5t19.5 -92t13 -87.5t5 -87q0 -125 -44 -227t-125 -174t-194.5 -111t-252.5 -39q-59 0 -111.5 8t-96.5 20.5t-79 27t-58 26.5l87 198 q48 -18 106.5 -35.5t127.5 -22.5q35 45 47.5 104.5t6.5 132.5q-2 42 -10.5 91t-21.5 101l-85 327q-28 103 -45.5 191.5t-17.5 175.5q0 125 44.5 226.5t125.5 173.5t194.5 111.5t251.5 39.5q58 0 111 -8t97 -20.5t79 -27t58 -26.5zM552 149q13 -63 12.5 -113.5t-11 -90.5 t-29.5 -70.5t-43 -54.5q99 29 146 97.5t47 183.5q0 68 -14 150t-41 188l-86 335q-21 84 -31.5 147t-6.5 115q4 69 26 120.5t59 87.5q-100 -29 -147 -97.5t-47 -182.5q0 -68 14 -151t41 -189q29 -118 61.5 -239t49.5 -236z" />
<glyph unicode="&#xa8;" horiz-adv-x="898" d="M197 1320q0 43 14 77t39.5 57.5t59.5 35.5t75 12q58 0 91.5 -32.5t33.5 -90.5q0 -44 -14 -78t-39 -57.5t-59.5 -35.5t-74.5 -12q-58 0 -92 32.5t-34 91.5zM627 1320q0 43 14 77t39.5 57.5t59.5 35.5t75 12q57 0 91 -32.5t34 -90.5q0 -44 -14 -78t-39.5 -57.5t-60 -35.5 t-74.5 -12q-57 0 -91 32.5t-34 91.5z" />
<glyph unicode="&#xa9;" horiz-adv-x="1520" d="M641 616q0 -78 36.5 -119.5t111.5 -41.5q48 0 92.5 10.5t71.5 21.5l22 -151q-40 -23 -103.5 -39.5t-138.5 -16.5q-73 0 -130.5 23t-97 64t-60 99t-20.5 128q0 99 32 182.5t90.5 144t140 94.5t179.5 34q71 0 122.5 -17t79.5 -35l-67 -153q-19 8 -57.5 19.5t-87.5 11.5 q-55 0 -95.5 -18.5t-67.5 -52t-40 -81.5t-13 -107zM264 595q0 -97 33 -181.5t92.5 -146.5t141.5 -98t181 -36q119 0 229.5 48t196 130t136.5 191t51 231q0 97 -33 182t-92.5 147.5t-142.5 98.5t-182 36q-79 0 -155 -22t-143.5 -61.5t-125 -95t-99 -122.5t-65 -143.5 t-23.5 -157.5zM107 574q0 105 30.5 203.5t84.5 185t128.5 157.5t163.5 122.5t188 79.5t203 28q126 0 232 -46.5t183 -127t120 -189t43 -232.5q0 -105 -30.5 -203.5t-85 -184.5t-129.5 -157.5t-164 -122.5t-188.5 -79t-203.5 -28q-126 0 -231.5 46.5t-182 126.5t-119 188.5 t-42.5 232.5z" />
<glyph unicode="&#xaa;" horiz-adv-x="645" d="M718 879q-8 -46 -10 -82.5t0 -53.5h-176q-4 11 -4.5 33t1.5 43q0 12 1 24.5t3 24.5q-20 -28 -43 -53t-49.5 -43.5t-57 -29t-65.5 -10.5q-79 0 -119 48.5t-40 139.5t24 170t67 136.5t102 90.5t129 33q43 0 74.5 -17t54.5 -36l20 43h163l-19 -110zM495 1198q-32 0 -57 -23 t-42.5 -59t-27 -81t-9.5 -90q0 -26 6.5 -40t23.5 -14q19 0 44 21.5t50 59.5t47 88.5t36 109.5q-8 8 -25.5 18t-45.5 10z" />
<glyph unicode="&#xab;" horiz-adv-x="1222" d="M764 870q-35 -44 -77.5 -89.5t-88.5 -90.5t-94.5 -89.5t-96.5 -86.5q34 -41 68.5 -86t66.5 -90.5t60 -91t49 -88.5l-198 -132q-36 64 -77 130.5t-83 130t-84.5 121.5t-81.5 106q54 48 115 106t123.5 121t124 129.5t118.5 131.5zM1195 829q-66 -79 -146 -159.5 t-170 -155.5q67 -75 121 -155.5t95 -159.5l-198 -133q-34 60 -71.5 120.5t-75.5 118.5t-76 111t-74 98q50 45 104.5 97.5t111 110.5t113 118.5t110.5 120.5z" />
<glyph unicode="&#xac;" horiz-adv-x="1314" d="M228 770h921l-78 -490h-216l44 279h-704z" />
<glyph unicode="&#xad;" horiz-adv-x="942" d="M231 638h616l-33 -211h-617z" />
<glyph unicode="&#xae;" horiz-adv-x="1520" d="M466 309l112 708h283q115 0 180.5 -49.5t65.5 -143.5q0 -38 -11.5 -73t-32 -64.5t-48.5 -53.5t-61 -40l96 -284h-218l-63 243h-73l-39 -243h-191zM716 681h42q33 0 56 8.5t37 23.5q19 12 33 34.5t14 50.5q0 73 -75 78q-9 2 -18.5 2h-18.5h-39zM264 595q0 -97 33 -181.5 t92.5 -146.5t141.5 -98t181 -36q119 0 229.5 48t196 130t136.5 191t51 231q0 97 -33 182t-92.5 147.5t-142.5 98.5t-182 36q-79 0 -155 -22t-143.5 -61.5t-125 -95t-99 -122.5t-65 -143.5t-23.5 -157.5zM107 574q0 105 30.5 203.5t84.5 185t128.5 157.5t163.5 122.5 t188 79.5t203 28q126 0 232 -46.5t183 -127t120 -189t43 -232.5q0 -105 -30.5 -203.5t-85 -184.5t-129.5 -157.5t-164 -122.5t-188.5 -79t-203.5 -28q-126 0 -231.5 46.5t-182 126.5t-119 188.5t-42.5 232.5z" />
<glyph unicode="&#xaf;" horiz-adv-x="847" d="M259 1449h620l-31 -198h-621z" />
<glyph unicode="&#xb0;" horiz-adv-x="596" d="M391 819q-53 0 -94.5 18t-70 49t-43.5 72t-15 86q0 63 23.5 119t66 97.5t101 65.5t129.5 24q52 0 93.5 -18t70 -49t43.5 -72t15 -86q0 -64 -23.5 -119.5t-65.5 -97t-101 -65.5t-129 -24zM426 979q47 0 75 34.5t28 88.5q0 35 -18.5 61t-57.5 26q-48 0 -76 -34.5t-28 -87.5 q0 -35 18.5 -61.5t58.5 -26.5z" />
<glyph unicode="&#xb1;" horiz-adv-x="1246" d="M838 1254l-50 -314h318l-31 -198h-319l-51 -326h-204l52 326h-318l31 198h318l51 314h203zM162 233h826l-32 -198h-826z" />
<glyph unicode="&#xb2;" horiz-adv-x="538" d="M156 895q68 37 120 67.5t87 57.5t53 54t18 57q0 27 -14 42t-43 15q-21 0 -42.5 -4.5t-40.5 -10.5t-34 -12t-22 -9l-21 142q9 6 30 15.5t50 18.5t64 15.5t71 6.5q54 0 92.5 -13t63.5 -36.5t37 -55t12 -68.5q0 -48 -17.5 -87t-49.5 -71.5t-76.5 -60t-98.5 -52.5h222 l-24 -155h-460z" />
<glyph unicode="&#xb3;" horiz-adv-x="514" d="M418 1153q2 24 -14.5 37.5t-51.5 13.5q-33 0 -67.5 -8t-56.5 -18l-15 131q8 4 26 11t43 14t55.5 11.5t65.5 4.5q109 0 161 -41t52 -108q0 -31 -10 -55t-24 -41.5t-30 -29.5t-28 -19h-1q10 -6 22 -15.5t22.5 -24.5t17.5 -34.5t7 -44.5q0 -98 -76.5 -152t-216.5 -54 q-29 0 -56.5 4t-50.5 9.5t-41 12t-27 12.5l55 134q15 -7 49 -16.5t80 -9.5q48 0 72 14.5t24 49.5q0 46 -61 46h-94l18 113h122q8 6 17.5 19.5t11.5 33.5z" />
<glyph unicode="&#xb4;" horiz-adv-x="718" d="M197 1295l512 257l72 -225l-541 -161z" />
<glyph unicode="&#xb6;" horiz-adv-x="1296" d="M613 470q-101 0 -181.5 24t-137 70.5t-87 114.5t-30.5 157q0 121 42.5 213.5t118.5 154.5t181.5 94t231.5 32h548l-35 -218h-153l-240 -1508q-67 0 -133 0.5t-133 0.5l239 1507h-129z" />
<glyph unicode="&#xb7;" horiz-adv-x="498" d="M97 483q0 43 14 77t39.5 57.5t59.5 35.5t75 12q58 0 91.5 -32.5t33.5 -90.5q0 -44 -14 -78t-39 -57.5t-59.5 -35.5t-74.5 -12q-58 0 -92 32.5t-34 91.5z" />
<glyph unicode="&#xb8;" horiz-adv-x="494" d="M-56 -370q12 -4 31 -7t45 -3q53 0 79.5 21.5t26.5 58.5q0 55 -85 55h-57l32 139h111q43 0 80 -10t64 -30.5t42.5 -51.5t15.5 -73q0 -66 -24.5 -113t-67 -77t-99 -44t-120.5 -14q-39 0 -69 5.5t-44 12.5z" />
<glyph unicode="&#xb9;" horiz-adv-x="512" d="M175 751l30 185q23 0 47 0.5t47 1.5l37 233l-30 -5t-37.5 -5.5t-38 -4.5t-31.5 -3l7 154q31 4 65.5 9t69.5 10.5t69.5 11.5t66.5 12h80l-65 -408q20 0 40.5 -1t40.5 -1l-30 -189h-368z" />
<glyph unicode="&#xba;" horiz-adv-x="644" d="M404 731q-57 0 -101.5 20t-75.5 55t-47 81.5t-16 100.5q0 76 25 142t71 115t110.5 77t142.5 28q57 0 102 -20t76 -54.5t47 -81.5t16 -101q0 -76 -25 -142t-71 -115t-110.5 -77t-143.5 -28zM439 896q30 0 51 16t34.5 42t19.5 58t6 65q0 47 -16.5 77.5t-56.5 30.5 q-30 0 -51 -16t-34.5 -42t-19.5 -58.5t-6 -64.5q0 -47 17 -77.5t56 -30.5z" />
<glyph unicode="&#xbb;" horiz-adv-x="1242" d="M499 155q35 44 77 89.5t88.5 90.5t95 89.5t96.5 86.5q-34 41 -68.5 86t-67 90.5t-60 91t-48.5 88.5l198 132q36 -65 76.5 -131t83 -129.5t84.5 -121.5t81 -106q-54 -48 -115 -106t-123 -121.5t-123.5 -130t-118.5 -130.5zM67 196q66 79 146 159.5t170 155.5 q-66 75 -120 155.5t-96 159.5l199 133q34 -60 71 -120.5t75 -118.5t76.5 -111t74.5 -98q-50 -45 -105 -97.5t-111.5 -110.5t-113 -118.5t-109.5 -120.5z" />
<glyph unicode="&#xbf;" horiz-adv-x="766" d="M634 617q10 -54 5.5 -103.5t-25 -97t-59 -94.5t-95.5 -96q-43 -36 -78.5 -66t-61 -57t-40 -53t-14.5 -54q0 -54 40.5 -81t131.5 -27q32 0 64.5 3t61 6.5t50.5 8t34 7.5l-16 -206q-14 -4 -40.5 -9.5t-62 -11t-78.5 -9t-89 -3.5q-90 0 -159.5 19.5t-117 54.5t-71.5 82 t-24 103q0 75 26.5 133t70 106.5t99 92t114.5 89.5q38 30 64 58t42 57.5t23 61t7 69.5zM403 861q0 30 7.5 60t22.5 46q5 7 16 20t29 25.5t43.5 21.5t58.5 9q3 1 11 1q54 0 89.5 -31t35.5 -92q0 -58 -15 -93.5t-40.5 -55.5t-59.5 -27t-72 -7q-57 0 -91.5 32.5t-34.5 90.5z " />
<glyph unicode="&#xc0;" horiz-adv-x="1182" d="M786 308h-433l-151 -308h-280l687 1330h247l264 -1330h-280zM452 513h300l-74 477zM954 1466l-494 159l135 225l438 -252z" />
<glyph unicode="&#xc1;" horiz-adv-x="1182" d="M786 308h-433l-151 -308h-280l687 1330h247l264 -1330h-280zM452 513h300l-74 477zM494 1595l512 257l72 -225l-541 -161z" />
<glyph unicode="&#xc2;" horiz-adv-x="1182" d="M786 308h-433l-151 -308h-280l687 1330h247l264 -1330h-280zM452 513h300l-74 477zM956 1450q-21 19 -45.5 41.5t-48.5 46.5t-46.5 47t-40.5 43q-24 -20 -54 -43t-62 -47t-63.5 -46.5t-59.5 -41.5l-106 159q37 22 82.5 51t95 61t101.5 66t101 67q39 -33 80 -67t80 -66 t75 -60.5t66 -50.5z" />
<glyph unicode="&#xc3;" horiz-adv-x="1182" d="M786 308h-433l-151 -308h-280l687 1330h247l264 -1330h-280zM452 513h300l-74 477zM408 1602q17 33 43 67t60 61.5t75.5 45.5t89.5 18q34 0 63.5 -11.5t56 -25t50 -25t45.5 -11.5q32 0 58.5 22.5t61.5 56.5l114 -97q-20 -37 -47.5 -71.5t-62 -61t-77 -42.5t-91.5 -16 q-30 0 -57 11.5t-52.5 25t-50 25t-47.5 11.5q-32 0 -58 -22.5t-60 -56.5z" />
<glyph unicode="&#xc4;" horiz-adv-x="1182" d="M786 308h-433l-151 -308h-280l687 1330h247l264 -1330h-280zM452 513h300l-74 477zM407 1620q0 43 14 77t39 57.5t59.5 35.5t75.5 12q57 0 91 -32.5t34 -90.5q0 -44 -14 -78t-39.5 -57.5t-60 -35.5t-74.5 -12q-57 0 -91 32.5t-34 91.5zM836 1620q0 43 14 77t39.5 57.5 t59.5 35.5t75 12q58 0 91.5 -32.5t33.5 -90.5q0 -44 -14 -78t-39 -57.5t-59.5 -35.5t-74.5 -12q-58 0 -92 32.5t-34 91.5z" />
<glyph unicode="&#xc5;" horiz-adv-x="1182" d="M786 308h-433l-151 -308h-280l687 1330h247l264 -1330h-280zM452 513h300l-74 477zM697 1637q0 -29 18 -47t47 -18q41 0 67.5 25.5t26.5 66.5q0 29 -18.5 46.5t-47.5 17.5q-39 0 -66 -25t-27 -66zM532 1609q0 62 22 111.5t61 84t91.5 53t114.5 18.5q45 0 81.5 -13t63 -37 t41 -58t14.5 -76q0 -63 -22 -112.5t-60.5 -84t-91.5 -53t-115 -18.5q-45 0 -81.5 13t-63 37t-41 58t-14.5 77z" />
<glyph unicode="&#xc6;" horiz-adv-x="1745" d="M1775 1109h-478l-52 -331h453l-34 -215h-453l-55 -342h496l-34 -221h-761l49 307h-450l-262 -307h-290l1146 1330h760zM938 516l70 439l-373 -439h303z" />
<glyph unicode="&#xc7;" horiz-adv-x="1052" d="M95 499q0 187 52.5 343.5t148.5 269.5t230 175.5t297 62.5q49 0 94.5 -6t83.5 -15.5t67 -20.5t46 -20l-76 -202q-39 11 -102.5 24.5t-140.5 13.5q-94 0 -170.5 -42.5t-130.5 -119.5t-83 -185t-29 -239q0 -75 17 -136.5t51.5 -105t85 -67t118.5 -23.5q70 0 142.5 17 t134.5 46l31 -201q-33 -20 -74 -36t-86 -27.5t-92 -18t-93 -6.5q-126 0 -223.5 37t-164 105.5t-100.5 164t-34 212.5zM325 -370q12 -4 30.5 -7t44.5 -3q54 0 80.5 21.5t26.5 58.5q0 55 -85 55h-58l32 139h111q43 0 80.5 -10t64.5 -30.5t42.5 -51.5t15.5 -73 q0 -66 -24.5 -113t-67 -77t-99.5 -44t-121 -14q-38 0 -68 5.5t-44 12.5z" />
<glyph unicode="&#xc8;" horiz-adv-x="986" d="M1016 1109h-509l-52 -331h484l-34 -215h-484l-55 -342h527l-34 -221h-794l211 1330h775zM868 1466l-494 159l135 225l438 -252z" />
<glyph unicode="&#xc9;" horiz-adv-x="986" d="M1016 1109h-509l-52 -331h484l-34 -215h-484l-55 -342h527l-34 -221h-794l211 1330h775zM466 1595l512 257l72 -225l-541 -161z" />
<glyph unicode="&#xca;" horiz-adv-x="986" d="M1016 1109h-509l-52 -331h484l-34 -215h-484l-55 -342h527l-34 -221h-794l211 1330h775zM887 1450q-21 19 -45.5 41.5t-48.5 46.5t-46.5 47t-40.5 43q-24 -20 -54 -43t-62 -47t-63.5 -46.5t-59.5 -41.5l-106 159q37 22 82.5 51t95 61t101.5 66t101 67q39 -33 80 -67 t80 -66t75 -60.5t66 -50.5z" />
<glyph unicode="&#xcb;" horiz-adv-x="986" d="M1016 1109h-509l-52 -331h484l-34 -215h-484l-55 -342h527l-34 -221h-794l211 1330h775zM335 1620q0 43 14 77t39.5 57.5t59.5 35.5t75 12q57 0 91 -32.5t34 -90.5q0 -44 -14 -78t-39.5 -57.5t-60 -35.5t-74.5 -12q-57 0 -91 32.5t-34 91.5zM765 1620q0 43 14 77 t39.5 57.5t59.5 35.5t75 12q57 0 91 -32.5t34 -90.5q0 -44 -14 -78t-39.5 -57.5t-60 -35.5t-74.5 -12q-57 0 -91 32.5t-34 91.5z" />
<glyph unicode="&#xcc;" horiz-adv-x="537" d="M275 1330h266l-210 -1330h-267zM587 1466l-494 159l135 225l438 -252z" />
<glyph unicode="&#xcd;" horiz-adv-x="537" d="M275 1330h266l-210 -1330h-267zM189 1595l511 257l72 -225l-541 -161z" />
<glyph unicode="&#xce;" horiz-adv-x="537" d="M275 1330h266l-210 -1330h-267zM637 1450q-21 19 -45.5 41.5t-48.5 46.5t-46.5 47t-39.5 43q-24 -20 -54 -43t-62 -47t-63.5 -46.5t-59.5 -41.5l-106 159q37 22 82.5 51t95 61t101.5 66t101 67q39 -33 79.5 -67t80 -66t75.5 -60.5t66 -50.5z" />
<glyph unicode="&#xcf;" horiz-adv-x="537" d="M275 1330h266l-210 -1330h-267zM102 1619q0 44 14 78t39.5 57.5t59.5 35.5t75 12q57 0 91 -32.5t34 -90.5q0 -44 -14 -78t-39.5 -57.5t-60 -35.5t-74.5 -12q-57 0 -91 32.5t-34 90.5zM492 1619q0 44 14 78t39 57.5t59.5 35.5t75.5 12q57 0 91 -32.5t34 -90.5 q0 -44 -14 -78t-39.5 -57.5t-60 -35.5t-74.5 -12q-57 0 -91 32.5t-34 90.5z" />
<glyph unicode="&#xd0;" horiz-adv-x="1309" d="M61 735h167l94 595h411q132 0 233 -38t169.5 -108.5t103.5 -170t35 -222.5q0 -178 -52 -324t-150 -249.5t-238.5 -160.5t-318.5 -57h-403l94 596h-167zM549 210q98 0 179 39t138.5 111.5t89 175t31.5 228.5q0 84 -19 150.5t-56 112t-90 69.5t-122 24h-146l-62 -385h257 l-23 -139h-256l-61 -386h140z" />
<glyph unicode="&#xd1;" horiz-adv-x="1300" d="M466 907l-144 -907h-257l211 1330h285l342 -908l145 908h257l-211 -1330h-286zM472 1602q17 33 43 67t60 61.5t75.5 45.5t89.5 18q34 0 63.5 -11.5t56 -25t50.5 -25t46 -11.5q32 0 58.5 22.5t61.5 56.5l114 -97q-20 -37 -47.5 -71.5t-62.5 -61t-77 -42.5t-91 -16 q-30 0 -57.5 11.5t-53 25t-50 25t-47.5 11.5q-32 0 -58 -22.5t-60 -56.5z" />
<glyph unicode="&#xd2;" horiz-adv-x="1315" d="M629 195q76 0 144 43t120 121t82.5 187.5t30.5 242.5q0 77 -14.5 140.5t-45 109.5t-77.5 71t-111 25q-76 0 -144.5 -43t-120 -121.5t-82 -188t-30.5 -242.5q0 -77 14.5 -140t45 -109t77 -71t111.5 -25zM585 -20q-119 0 -210 39.5t-153.5 110t-94.5 167.5t-32 212 q0 180 51 334t144 266.5t223.5 176.5t288.5 64q118 0 209.5 -39.5t154 -110t94.5 -168t32 -212.5q0 -180 -51 -334t-144 -266.5t-223.5 -176t-288.5 -63.5zM1006 1466l-494 159l135 225l438 -252z" />
<glyph unicode="&#xd3;" horiz-adv-x="1315" d="M629 195q76 0 144 43t120 121t82.5 187.5t30.5 242.5q0 77 -14.5 140.5t-45 109.5t-77.5 71t-111 25q-76 0 -144.5 -43t-120 -121.5t-82 -188t-30.5 -242.5q0 -77 14.5 -140t45 -109t77 -71t111.5 -25zM585 -20q-119 0 -210 39.5t-153.5 110t-94.5 167.5t-32 212 q0 180 51 334t144 266.5t223.5 176.5t288.5 64q118 0 209.5 -39.5t154 -110t94.5 -168t32 -212.5q0 -180 -51 -334t-144 -266.5t-223.5 -176t-288.5 -63.5zM570 1595l512 257l72 -225l-541 -161z" />
<glyph unicode="&#xd4;" horiz-adv-x="1315" d="M629 195q76 0 144 43t120 121t82.5 187.5t30.5 242.5q0 77 -14.5 140.5t-45 109.5t-77.5 71t-111 25q-76 0 -144.5 -43t-120 -121.5t-82 -188t-30.5 -242.5q0 -77 14.5 -140t45 -109t77 -71t111.5 -25zM585 -20q-119 0 -210 39.5t-153.5 110t-94.5 167.5t-32 212 q0 180 51 334t144 266.5t223.5 176.5t288.5 64q118 0 209.5 -39.5t154 -110t94.5 -168t32 -212.5q0 -180 -51 -334t-144 -266.5t-223.5 -176t-288.5 -63.5zM1030 1450q-21 19 -45.5 41.5t-48.5 46.5t-46.5 47t-40.5 43q-24 -20 -53.5 -43t-61.5 -47t-64 -46.5t-59 -41.5 l-106 159q37 22 82.5 51t95 61t101.5 66t101 67q39 -33 79.5 -67t80 -66t75.5 -60.5t66 -50.5z" />
<glyph unicode="&#xd5;" horiz-adv-x="1315" d="M629 195q76 0 144 43t120 121t82.5 187.5t30.5 242.5q0 77 -14.5 140.5t-45 109.5t-77.5 71t-111 25q-76 0 -144.5 -43t-120 -121.5t-82 -188t-30.5 -242.5q0 -77 14.5 -140t45 -109t77 -71t111.5 -25zM585 -20q-119 0 -210 39.5t-153.5 110t-94.5 167.5t-32 212 q0 180 51 334t144 266.5t223.5 176.5t288.5 64q118 0 209.5 -39.5t154 -110t94.5 -168t32 -212.5q0 -180 -51 -334t-144 -266.5t-223.5 -176t-288.5 -63.5zM486 1602q17 33 43 67t59.5 61.5t75 45.5t90.5 18q34 0 63.5 -11.5t55.5 -25t50 -25t46 -11.5q32 0 58.5 22.5 t61.5 56.5l114 -97q-20 -37 -47.5 -71.5t-62.5 -61t-77 -42.5t-91 -16q-30 0 -57 11.5t-52.5 25t-50 25t-47.5 11.5q-32 0 -58.5 -22.5t-59.5 -56.5z" />
<glyph unicode="&#xd6;" horiz-adv-x="1315" d="M629 195q76 0 144 43t120 121t82.5 187.5t30.5 242.5q0 77 -14.5 140.5t-45 109.5t-77.5 71t-111 25q-76 0 -144.5 -43t-120 -121.5t-82 -188t-30.5 -242.5q0 -77 14.5 -140t45 -109t77 -71t111.5 -25zM585 -20q-119 0 -210 39.5t-153.5 110t-94.5 167.5t-32 212 q0 180 51 334t144 266.5t223.5 176.5t288.5 64q118 0 209.5 -39.5t154 -110t94.5 -168t32 -212.5q0 -180 -51 -334t-144 -266.5t-223.5 -176t-288.5 -63.5zM480 1620q0 43 14 77t39.5 57.5t59.5 35.5t75 12q58 0 91.5 -32.5t33.5 -90.5q0 -44 -14 -78t-39 -57.5t-59.5 -35.5 t-74.5 -12q-58 0 -92 32.5t-34 91.5zM910 1620q0 43 14 77t39.5 57.5t59.5 35.5t75 12q57 0 91 -32.5t34 -90.5q0 -44 -14 -78t-39.5 -57.5t-60 -35.5t-74.5 -12q-57 0 -91 32.5t-34 91.5z" />
<glyph unicode="&#xd7;" horiz-adv-x="1255" d="M1135 953l-332 -288l241 -286l-173 -150l-242 287l-333 -288l-126 150l333 288l-241 286l173 150l242 -287l332 287z" />
<glyph unicode="&#xd8;" horiz-adv-x="1315" d="M87 -83l146 205q-69 69 -103.5 167.5t-34.5 219.5q0 180 51 334t144 266.5t223.5 176.5t288.5 64q71 0 130.5 -16t110.5 -45l139 195l118 -71l-146 -205q69 -70 103.5 -168.5t34.5 -219.5q0 -180 -51 -334t-144 -266.5t-223.5 -176t-288.5 -63.5q-71 0 -131 15.5 t-111 44.5l-138 -194zM381 540q0 -47 5.5 -88.5t16.5 -77.5l502 710q-29 24 -65.5 37.5t-81.5 13.5q-76 0 -144.5 -43t-120 -121.5t-82 -188t-30.5 -242.5zM629 195q76 0 144 43t120 121t82.5 187.5t30.5 242.5q0 47 -5.5 88.5t-16.5 77.5l-502 -710q28 -24 64.5 -37 t82.5 -13z" />
<glyph unicode="&#xd9;" horiz-adv-x="1205" d="M386 532q-13 -79 -10 -141.5t24 -105.5t62 -65.5t105 -22.5q105 0 178.5 79t97.5 233l131 821h266l-128 -808q-20 -128 -70.5 -228.5t-126 -170t-175 -106.5t-218.5 -37q-124 0 -210 38.5t-136 109t-64.5 170.5t5.5 222l129 810h266zM911 1466l-495 159l136 225l437 -252 z" />
<glyph unicode="&#xda;" horiz-adv-x="1205" d="M386 532q-13 -79 -10 -141.5t24 -105.5t62 -65.5t105 -22.5q105 0 178.5 79t97.5 233l131 821h266l-128 -808q-20 -128 -70.5 -228.5t-126 -170t-175 -106.5t-218.5 -37q-124 0 -210 38.5t-136 109t-64.5 170.5t5.5 222l129 810h266zM552 1595l512 257l72 -225l-541 -161 z" />
<glyph unicode="&#xdb;" horiz-adv-x="1205" d="M386 532q-13 -79 -10 -141.5t24 -105.5t62 -65.5t105 -22.5q105 0 178.5 79t97.5 233l131 821h266l-128 -808q-20 -128 -70.5 -228.5t-126 -170t-175 -106.5t-218.5 -37q-124 0 -210 38.5t-136 109t-64.5 170.5t5.5 222l129 810h266zM980 1450q-21 19 -45.5 41.5 t-48.5 46.5t-46.5 47t-40.5 43q-24 -20 -53.5 -43t-61.5 -47t-64 -46.5t-59 -41.5l-106 159q37 22 82.5 51t95 61t101.5 66t101 67q39 -33 79.5 -67t80 -66t75.5 -60.5t66 -50.5z" />
<glyph unicode="&#xdc;" horiz-adv-x="1205" d="M386 532q-13 -79 -10 -141.5t24 -105.5t62 -65.5t105 -22.5q105 0 178.5 79t97.5 233l131 821h266l-128 -808q-20 -128 -70.5 -228.5t-126 -170t-175 -106.5t-218.5 -37q-124 0 -210 38.5t-136 109t-64.5 170.5t5.5 222l129 810h266zM417 1620q0 43 14 77t39.5 57.5 t59.5 35.5t75 12q57 0 91 -32.5t34 -90.5q0 -44 -14 -78t-39.5 -57.5t-60 -35.5t-74.5 -12q-57 0 -91 32.5t-34 91.5zM847 1620q0 43 14 77t39.5 57.5t59.5 35.5t75 12q57 0 91 -32.5t34 -90.5q0 -44 -14 -78t-39.5 -57.5t-60 -35.5t-74.5 -12q-57 0 -91 32.5t-34 91.5z" />
<glyph unicode="&#xdd;" horiz-adv-x="1043" d="M391 501h1l-280 829h278l173 -565l354 565h283l-543 -829h1l-80 -501h-267zM425 1595l512 257l71 -225l-540 -161z" />
<glyph unicode="&#xde;" horiz-adv-x="1028" d="M399 451h138q58 0 101.5 18t72.5 51.5t44 80t15 103.5q0 81 -40.5 122.5t-118.5 41.5h-145zM65 0l211 1330h263l-39 -246h143q197 0 301.5 -85.5t104.5 -253.5q0 -120 -40.5 -213.5t-112 -157.5t-168.5 -97.5t-210 -33.5h-152l-38 -243h-263z" />
<glyph unicode="&#xdf;" horiz-adv-x="1174" d="M515 239q37 -19 91 -34.5t111 -15.5q68 0 103.5 23.5t35.5 71.5q0 20 -10.5 38.5t-28.5 38t-43 40.5t-54 45q-28 24 -52 46.5t-41.5 47.5t-27.5 54.5t-10 67.5q0 46 14 85t36.5 72t51.5 62t59 57q28 25 52 49t42 48.5t28.5 51.5t10.5 59q0 25 -9 47.5t-27 39.5t-45.5 27 t-65.5 10q-44 0 -83.5 -15.5t-71 -45.5t-53 -73t-29.5 -98l-228 -1434h-266l230 1451q13 89 56.5 166.5t113 135t165 90.5t212.5 33q94 0 164.5 -25t117 -66t69.5 -95.5t23 -112.5q0 -56 -16.5 -100.5t-44 -82.5t-64 -72t-75.5 -68q-25 -22 -45 -40t-34.5 -34.5t-22 -33.5 t-7.5 -36q0 -32 32.5 -65t85.5 -78q34 -30 63 -58t50 -58t33 -64.5t12 -76.5q0 -77 -29.5 -138.5t-84.5 -105t-133 -67t-175 -23.5q-94 0 -159.5 20.5t-100.5 44.5z" />
<glyph unicode="&#xe0;" horiz-adv-x="1077" d="M929 251q-15 -94 -19 -154.5t-1 -96.5h-250q-11 33 -9.5 81t12.5 98q4 23 13 52t19 59.5t20.5 60t18.5 53.5q-38 -85 -85 -162t-101 -135t-115 -92.5t-128 -34.5q-53 0 -96 19.5t-73.5 60t-47 102t-16.5 144.5q0 96 17.5 188t50 174t79.5 151t106.5 119t131 78t152.5 28 q61 0 110.5 -24t87.5 -56l20 80h229q-3 -20 -6.5 -38.5t-6.5 -38.5zM619 837q-59 0 -109.5 -43.5t-88 -116t-58.5 -167t-21 -197.5t59 -103q21 0 52 22.5t66 61.5t71.5 93t70 116.5t61 132t44.5 139.5q-6 5 -19.5 15.5t-33 21t-43.5 18t-51 7.5zM858 1166l-494 159l135 225 l438 -252z" />
<glyph unicode="&#xe1;" horiz-adv-x="1080" d="M929 251q-15 -94 -19 -154.5t-1 -96.5h-250q-11 33 -9.5 81t12.5 98q4 23 13 52t19 59.5t20.5 60t18.5 53.5q-38 -85 -85 -162t-101 -135t-115 -92.5t-128 -34.5q-53 0 -96 19.5t-73.5 60t-47 102t-16.5 144.5q0 96 17.5 188t50 174t79.5 151t106.5 119t131 78t152.5 28 q61 0 110.5 -24t87.5 -56l20 80h229q-3 -20 -6.5 -38.5t-6.5 -38.5zM619 837q-59 0 -109.5 -43.5t-88 -116t-58.5 -167t-21 -197.5t59 -103q21 0 52 22.5t66 61.5t71.5 93t70 116.5t61 132t44.5 139.5q-6 5 -19.5 15.5t-33 21t-43.5 18t-51 7.5zM463 1295l512 257l72 -225 l-541 -161z" />
<glyph unicode="&#xe2;" horiz-adv-x="1077" d="M929 251q-15 -94 -19 -154.5t-1 -96.5h-250q-11 33 -9.5 81t12.5 98q4 23 13 52t19 59.5t20.5 60t18.5 53.5q-38 -85 -85 -162t-101 -135t-115 -92.5t-128 -34.5q-53 0 -96 19.5t-73.5 60t-47 102t-16.5 144.5q0 96 17.5 188t50 174t79.5 151t106.5 119t131 78t152.5 28 q61 0 110.5 -24t87.5 -56l20 80h229q-3 -20 -6.5 -38.5t-6.5 -38.5zM619 837q-59 0 -109.5 -43.5t-88 -116t-58.5 -167t-21 -197.5t59 -103q21 0 52 22.5t66 61.5t71.5 93t70 116.5t61 132t44.5 139.5q-6 5 -19.5 15.5t-33 21t-43.5 18t-51 7.5zM861 1150q-21 19 -45.5 41.5 t-48.5 46.5t-46.5 47t-40.5 43q-24 -20 -53.5 -43t-61.5 -47t-64 -46.5t-59 -41.5l-106 159q37 22 82.5 51t95 61t101.5 66t101 67q39 -33 79.5 -67t80 -66t75.5 -60.5t66 -50.5z" />
<glyph unicode="&#xe3;" horiz-adv-x="1077" d="M929 251q-15 -94 -19 -154.5t-1 -96.5h-250q-11 33 -9.5 81t12.5 98q4 23 13 52t19 59.5t20.5 60t18.5 53.5q-38 -85 -85 -162t-101 -135t-115 -92.5t-128 -34.5q-53 0 -96 19.5t-73.5 60t-47 102t-16.5 144.5q0 96 17.5 188t50 174t79.5 151t106.5 119t131 78t152.5 28 q61 0 110.5 -24t87.5 -56l20 80h229q-3 -20 -6.5 -38.5t-6.5 -38.5zM619 837q-59 0 -109.5 -43.5t-88 -116t-58.5 -167t-21 -197.5t59 -103q21 0 52 22.5t66 61.5t71.5 93t70 116.5t61 132t44.5 139.5q-6 5 -19.5 15.5t-33 21t-43.5 18t-51 7.5zM317 1302q18 33 43.5 67 t59.5 61.5t75.5 45.5t89.5 18q34 0 63.5 -11.5t56 -25t50.5 -25t46 -11.5q32 0 58.5 22.5t61.5 56.5l114 -97q-20 -37 -47.5 -71.5t-62.5 -61t-77 -42.5t-91 -16q-30 0 -57.5 11.5t-53 25t-49.5 25t-47 11.5q-32 0 -58.5 -22.5t-60.5 -56.5z" />
<glyph unicode="&#xe4;" horiz-adv-x="1077" d="M929 251q-15 -94 -19 -154.5t-1 -96.5h-250q-11 33 -9.5 81t12.5 98q4 23 13 52t19 59.5t20.5 60t18.5 53.5q-38 -85 -85 -162t-101 -135t-115 -92.5t-128 -34.5q-53 0 -96 19.5t-73.5 60t-47 102t-16.5 144.5q0 96 17.5 188t50 174t79.5 151t106.5 119t131 78t152.5 28 q61 0 110.5 -24t87.5 -56l20 80h229q-3 -20 -6.5 -38.5t-6.5 -38.5zM619 837q-59 0 -109.5 -43.5t-88 -116t-58.5 -167t-21 -197.5t59 -103q21 0 52 22.5t66 61.5t71.5 93t70 116.5t61 132t44.5 139.5q-6 5 -19.5 15.5t-33 21t-43.5 18t-51 7.5zM307 1320q0 43 14 77 t39.5 57.5t59.5 35.5t75 12q57 0 91 -32.5t34 -90.5q0 -44 -14 -78t-39.5 -57.5t-60 -35.5t-74.5 -12q-57 0 -91 32.5t-34 91.5zM737 1320q0 43 14 77t39 57.5t59.5 35.5t75.5 12q57 0 91 -32.5t34 -90.5q0 -44 -14 -78t-39.5 -57.5t-60 -35.5t-74.5 -12q-57 0 -91 32.5 t-34 91.5z" />
<glyph unicode="&#xe5;" horiz-adv-x="1077" d="M929 251q-15 -94 -19 -154.5t-1 -96.5h-250q-11 33 -9.5 81t12.5 98q4 23 13 52t19 59.5t20.5 60t18.5 53.5q-38 -85 -85 -162t-101 -135t-115 -92.5t-128 -34.5q-53 0 -96 19.5t-73.5 60t-47 102t-16.5 144.5q0 96 17.5 188t50 174t79.5 151t106.5 119t131 78t152.5 28 q61 0 110.5 -24t87.5 -56l20 80h229q-3 -20 -6.5 -38.5t-6.5 -38.5zM619 837q-59 0 -109.5 -43.5t-88 -116t-58.5 -167t-21 -197.5t59 -103q21 0 52 22.5t66 61.5t71.5 93t70 116.5t61 132t44.5 139.5q-6 5 -19.5 15.5t-33 21t-43.5 18t-51 7.5zM415 1309q0 62 22 111.5 t61 84t91.5 53t114.5 18.5q45 0 81.5 -13t63 -37t41 -58t14.5 -76q0 -63 -22 -112.5t-60.5 -84t-91.5 -53t-115 -18.5q-45 0 -81.5 13t-63 37t-41 58t-14.5 77zM580 1337q0 -29 18 -47t47 -18q41 0 67.5 25.5t26.5 66.5q0 29 -18.5 46.5t-47.5 17.5q-39 0 -66 -25t-27 -66z " />
<glyph unicode="&#xe6;" horiz-adv-x="1310" d="M512 1044q85 0 148 -26.5t102 -81.5q58 51 127.5 79.5t152.5 28.5q132 0 202.5 -62.5t70.5 -171.5q1 -79 -36.5 -140.5t-106.5 -108t-166.5 -78t-217.5 -49.5q-5 -32 -6.5 -64t-1.5 -61q0 -54 18 -82.5t62 -28.5q35 0 79 10.5t88.5 25t84 30.5t65.5 28l30 -190 q-24 -16 -67 -37t-98.5 -40t-121.5 -32t-138 -13q-75 0 -130.5 25.5t-90.5 79.5q-63 -43 -126 -70t-126 -32q-47 -3 -90 3q-94 11 -151 69t-57 160q0 63 23 114.5t66 90.5t104.5 66t139.5 42q48 10 97 17t101 12q10 39 22.5 76.5t29.5 72.5q-5 62 -39.5 91t-106.5 29 q-37 0 -74 -5.5t-70.5 -14.5t-62 -19t-49.5 -19l-21 189q26 13 64.5 28.5t83.5 28.5t95 21.5t98 8.5zM269 265q0 -44 25.5 -66t67.5 -22q37 0 76 14t75 37q-3 21 -3.5 45t-0.5 49q0 47 6 95q-64 -8 -122 -21q-61 -15 -92.5 -49t-31.5 -82zM1022 845q-34 0 -66.5 -21.5 t-60.5 -57.5t-50 -84t-35 -101q57 10 106 30.5t85 47t56 58.5t20 66q0 31 -14.5 46.5t-40.5 15.5z" />
<glyph unicode="&#xe7;" horiz-adv-x="809" d="M782 795q-6 2 -20.5 7t-34.5 10t-45 8.5t-51 3.5q-69 0 -122.5 -47t-90.5 -121.5t-56.5 -166t-19.5 -180.5q0 -54 17 -82.5t59 -28.5q32 0 70 8t76 20t72.5 25.5t58.5 24.5l33 -189q-25 -15 -63.5 -33.5t-88 -35t-109 -27.5t-126.5 -11q-130 0 -200 79.5t-70 246.5 q0 84 15.5 171.5t46 169.5t77.5 154.5t109.5 126t142 85t175.5 31.5q41 0 76.5 -6t63 -13.5t46.5 -16t28 -12.5zM157 -370q12 -4 30.5 -7t44.5 -3q54 0 80.5 21.5t26.5 58.5q0 55 -85 55h-58l32 139h111q43 0 80.5 -10t64.5 -30.5t42.5 -51.5t15.5 -73q0 -66 -24.5 -113 t-67 -77t-99.5 -44t-121 -14q-38 0 -68 5.5t-44 12.5z" />
<glyph unicode="&#xe8;" horiz-adv-x="873" d="M877 810q1 -82 -37.5 -147t-108.5 -113.5t-167.5 -81t-213.5 -49.5q-5 -28 -6.5 -56t-1.5 -54q0 -54 18.5 -82.5t61.5 -28.5q35 0 79 10.5t88.5 25t84 30.5t65.5 28l31 -190q-25 -16 -67.5 -37t-98.5 -40t-122 -32t-138 -13q-131 0 -202 79.5t-71 246.5q0 84 15.5 171.5 t45.5 169.5t75.5 154.5t104.5 126t132.5 85t160.5 31.5q132 0 202 -62.5t70 -171.5zM584 845q-35 0 -67.5 -23t-61 -62t-50.5 -90.5t-35 -108.5q56 11 105 32.5t85.5 50.5t57.5 64.5t21 74.5q0 31 -14.5 46.5t-40.5 15.5zM844 1166l-494 159l135 225l438 -252z" />
<glyph unicode="&#xe9;" horiz-adv-x="873" d="M877 810q1 -82 -37.5 -147t-108.5 -113.5t-167.5 -81t-213.5 -49.5q-5 -28 -6.5 -56t-1.5 -54q0 -54 18.5 -82.5t61.5 -28.5q35 0 79 10.5t88.5 25t84 30.5t65.5 28l31 -190q-25 -16 -67.5 -37t-98.5 -40t-122 -32t-138 -13q-131 0 -202 79.5t-71 246.5q0 84 15.5 171.5 t45.5 169.5t75.5 154.5t104.5 126t132.5 85t160.5 31.5q132 0 202 -62.5t70 -171.5zM584 845q-35 0 -67.5 -23t-61 -62t-50.5 -90.5t-35 -108.5q56 11 105 32.5t85.5 50.5t57.5 64.5t21 74.5q0 31 -14.5 46.5t-40.5 15.5zM378 1295l512 257l71 -225l-540 -161z" />
<glyph unicode="&#xea;" horiz-adv-x="873" d="M877 810q1 -82 -37.5 -147t-108.5 -113.5t-167.5 -81t-213.5 -49.5q-5 -28 -6.5 -56t-1.5 -54q0 -54 18.5 -82.5t61.5 -28.5q35 0 79 10.5t88.5 25t84 30.5t65.5 28l31 -190q-25 -16 -67.5 -37t-98.5 -40t-122 -32t-138 -13q-131 0 -202 79.5t-71 246.5q0 84 15.5 171.5 t45.5 169.5t75.5 154.5t104.5 126t132.5 85t160.5 31.5q132 0 202 -62.5t70 -171.5zM584 845q-35 0 -67.5 -23t-61 -62t-50.5 -90.5t-35 -108.5q56 11 105 32.5t85.5 50.5t57.5 64.5t21 74.5q0 31 -14.5 46.5t-40.5 15.5zM823 1150q-21 19 -45.5 41.5t-48.5 46.5t-46.5 47 t-40.5 43q-24 -20 -53.5 -43t-61.5 -47t-64 -46.5t-59 -41.5l-106 159q37 22 82.5 51t95 61t101.5 66t101 67q39 -33 79.5 -67t80 -66t75.5 -60.5t66 -50.5z" />
<glyph unicode="&#xeb;" horiz-adv-x="873" d="M877 810q1 -82 -37.5 -147t-108.5 -113.5t-167.5 -81t-213.5 -49.5q-5 -28 -6.5 -56t-1.5 -54q0 -54 18.5 -82.5t61.5 -28.5q35 0 79 10.5t88.5 25t84 30.5t65.5 28l31 -190q-25 -16 -67.5 -37t-98.5 -40t-122 -32t-138 -13q-131 0 -202 79.5t-71 246.5q0 84 15.5 171.5 t45.5 169.5t75.5 154.5t104.5 126t132.5 85t160.5 31.5q132 0 202 -62.5t70 -171.5zM584 845q-35 0 -67.5 -23t-61 -62t-50.5 -90.5t-35 -108.5q56 11 105 32.5t85.5 50.5t57.5 64.5t21 74.5q0 31 -14.5 46.5t-40.5 15.5zM272 1320q0 43 14 77t39.5 57.5t59.5 35.5t75 12 q57 0 91 -32.5t34 -90.5q0 -44 -14 -78t-39.5 -57.5t-60 -35.5t-74.5 -12q-57 0 -91 32.5t-34 91.5zM702 1320q0 43 14 77t39 57.5t59.5 35.5t75.5 12q57 0 91 -32.5t34 -90.5q0 -44 -14 -78t-39.5 -57.5t-60 -35.5t-74.5 -12q-57 0 -91 32.5t-34 91.5z" />
<glyph unicode="&#xec;" horiz-adv-x="528" d="M228 1024h264l-123 -773q-15 -94 -19 -154.5t-1 -96.5h-247q-4 10 -7 31t-4.5 48t-0.5 58t6 63zM577 1166l-494 159l135 225l438 -252z" />
<glyph unicode="&#xed;" horiz-adv-x="528" d="M228 1024h264l-123 -773q-15 -94 -19 -154.5t-1 -96.5h-247q-4 10 -7 31t-4.5 48t-0.5 58t6 63zM169 1295l512 257l72 -225l-541 -161z" />
<glyph unicode="&#xee;" horiz-adv-x="528" d="M228 1024h264l-123 -773q-15 -94 -19 -154.5t-1 -96.5h-247q-4 10 -7 31t-4.5 48t-0.5 58t6 63zM597 1150q-21 19 -45.5 41.5t-48.5 46.5t-46.5 47t-40.5 43q-24 -20 -53.5 -43t-61.5 -47t-64 -46.5t-59 -41.5l-106 159q37 22 82.5 51t95 61t101.5 66t101 67 q39 -33 79.5 -67t80 -66t75.5 -60.5t66 -50.5z" />
<glyph unicode="&#xef;" horiz-adv-x="528" d="M228 1024h264l-123 -773q-15 -94 -19 -154.5t-1 -96.5h-247q-4 10 -7 31t-4.5 48t-0.5 58t6 63zM50 1320q0 43 14 77t39.5 57.5t59.5 35.5t75 12q57 0 91 -32.5t34 -90.5q0 -44 -14 -78t-39.5 -57.5t-60 -35.5t-74.5 -12q-57 0 -91 32.5t-34 91.5zM468 1320q0 43 14 77 t39.5 57.5t59.5 35.5t75 12q58 0 91.5 -32.5t33.5 -90.5q0 -44 -14 -78t-39 -57.5t-59.5 -35.5t-74.5 -12q-58 0 -92 32.5t-34 91.5z" />
<glyph unicode="&#xf0;" horiz-adv-x="1057" d="M520 1170l82 106q-19 4 -44 4q-34 0 -65.5 -5t-58.5 -12t-46.5 -14t-29.5 -11l-24 181q13 6 41 16.5t65.5 20t81.5 17t89 7.5q36 0 68 -5t61 -13l99 128l109 -72l-90 -114q54 -40 89.5 -98.5t56.5 -132t28.5 -158.5t4.5 -178q-7 -201 -50 -360.5t-120 -269.5 t-186.5 -168.5t-249.5 -58.5q-90 0 -159.5 27.5t-116.5 79.5t-71.5 127.5t-24.5 170.5q0 133 39.5 252.5t112 210t175 143.5t228.5 53q63 0 107 -22t65 -48q-9 163 -71 237l-89 -112zM590 847q-46 0 -82.5 -21t-65 -55.5t-48.5 -80t-33.5 -95.5t-19.5 -100.5t-6 -94.5 q0 -52 7 -93t23.5 -69.5t43 -43.5t64.5 -15q58 0 105 36t81.5 103.5t56.5 163t30 215.5q-3 29 -14 56t-30 48t-47 33.5t-65 12.5z" />
<glyph unicode="&#xf1;" horiz-adv-x="1106" d="M458 1024q11 -34 9 -83t-13 -100q-6 -29 -15.5 -62t-20 -66t-21 -64.5t-18.5 -56.5q45 98 97.5 181t111 143t122.5 94t132 34q67 0 110.5 -25t66.5 -70.5t27 -108.5t-8 -139l-72 -450q-15 -94 -19 -154.5t-1 -96.5h-247q-4 10 -7 31t-4.5 48t-0.5 58t6 63l74 468 q5 20 3 36q2 35 -9.5 56t-41.5 21q-35 0 -87.5 -40.5t-106 -119.5t-100.5 -196t-71 -271l-24 -154h-264l122 773q15 94 19.5 154.5t1.5 96.5h249zM341 1302q17 33 43 67t60 61.5t75.5 45.5t89.5 18q34 0 63.5 -11.5t56 -25t50.5 -25t46 -11.5q32 0 58.5 22.5t61.5 56.5 l114 -97q-20 -37 -47.5 -71.5t-62.5 -61t-77 -42.5t-91 -16q-30 0 -57.5 11.5t-53 25t-49.5 25t-47 11.5q-32 0 -58.5 -22.5t-60.5 -56.5z" />
<glyph unicode="&#xf2;" horiz-adv-x="983" d="M392 -20q-78 0 -140 25.5t-105 72t-65.5 112t-22.5 145.5q0 153 40.5 283t115.5 224.5t180.5 148t236.5 53.5q79 0 140.5 -25.5t104.5 -72t65.5 -112.5t22.5 -146q0 -153 -41 -283t-116 -224.5t-180.5 -147.5t-235.5 -53zM434 179q56 0 104 40.5t82.5 109.5t54 159 t19.5 189q0 137 -69 158q-34 10 -75 -1q-48 -14 -88 -58t-69.5 -109.5t-46 -147.5t-16.5 -171q0 -87 26 -128t78 -41zM832 1166l-495 159l136 225l437 -252z" />
<glyph unicode="&#xf3;" horiz-adv-x="983" d="M392 -20q-78 0 -140 25.5t-105 72t-65.5 112t-22.5 145.5q0 153 40.5 283t115.5 224.5t180.5 148t236.5 53.5q79 0 140.5 -25.5t104.5 -72t65.5 -112.5t22.5 -146q0 -153 -41 -283t-116 -224.5t-180.5 -147.5t-235.5 -53zM434 179q56 0 104 40.5t82.5 109.5t54 159 t19.5 189q0 137 -69 158q-34 10 -75 -1q-48 -14 -88 -58t-69.5 -109.5t-46 -147.5t-16.5 -171q0 -87 26 -128t78 -41zM383 1295l512 257l71 -225l-540 -161z" />
<glyph unicode="&#xf4;" horiz-adv-x="983" d="M392 -20q-78 0 -140 25.5t-105 72t-65.5 112t-22.5 145.5q0 153 40.5 283t115.5 224.5t180.5 148t236.5 53.5q79 0 140.5 -25.5t104.5 -72t65.5 -112.5t22.5 -146q0 -153 -41 -283t-116 -224.5t-180.5 -147.5t-235.5 -53zM434 179q56 0 104 40.5t82.5 109.5t54 159 t19.5 189q0 137 -69 158q-34 10 -75 -1q-48 -14 -88 -58t-69.5 -109.5t-46 -147.5t-16.5 -171q0 -87 26 -128t78 -41zM833 1150q-21 19 -45.5 41.5t-48.5 46.5t-46.5 47t-40.5 43q-24 -20 -54 -43t-62 -47t-63.5 -46.5t-59.5 -41.5l-106 159q37 22 82.5 51t95 61t101.5 66 t101 67q39 -33 80 -67t80 -66t75 -60.5t66 -50.5z" />
<glyph unicode="&#xf5;" horiz-adv-x="983" d="M392 -20q-78 0 -140 25.5t-105 72t-65.5 112t-22.5 145.5q0 153 40.5 283t115.5 224.5t180.5 148t236.5 53.5q79 0 140.5 -25.5t104.5 -72t65.5 -112.5t22.5 -146q0 -153 -41 -283t-116 -224.5t-180.5 -147.5t-235.5 -53zM434 179q56 0 104 40.5t82.5 109.5t54 159 t19.5 189q0 137 -69 158q-34 10 -75 -1q-48 -14 -88 -58t-69.5 -109.5t-46 -147.5t-16.5 -171q0 -87 26 -128t78 -41zM289 1302q17 33 43 67t59.5 61.5t75 45.5t90.5 18q33 0 62.5 -11.5t56 -25t50.5 -25t46 -11.5q32 0 58.5 22.5t61.5 56.5l114 -97q-20 -37 -47.5 -71.5 t-62.5 -61t-77 -42.5t-91 -16q-30 0 -57 11.5t-52.5 25t-50 25t-47.5 11.5q-32 0 -58.5 -22.5t-59.5 -56.5z" />
<glyph unicode="&#xf6;" horiz-adv-x="983" d="M392 -20q-78 0 -140 25.5t-105 72t-65.5 112t-22.5 145.5q0 153 40.5 283t115.5 224.5t180.5 148t236.5 53.5q79 0 140.5 -25.5t104.5 -72t65.5 -112.5t22.5 -146q0 -153 -41 -283t-116 -224.5t-180.5 -147.5t-235.5 -53zM434 179q56 0 104 40.5t82.5 109.5t54 159 t19.5 189q0 137 -69 158q-34 10 -75 -1q-48 -14 -88 -58t-69.5 -109.5t-46 -147.5t-16.5 -171q0 -87 26 -128t78 -41zM280 1320q0 43 14 77t39.5 57.5t59.5 35.5t75 12q57 0 91 -32.5t34 -90.5q0 -44 -14 -78t-39.5 -57.5t-60 -35.5t-74.5 -12q-57 0 -91 32.5t-34 91.5z M710 1320q0 43 14 77t39.5 57.5t59.5 35.5t75 12q57 0 91 -32.5t34 -90.5q0 -44 -14 -78t-39.5 -57.5t-60 -35.5t-74.5 -12q-57 0 -91 32.5t-34 91.5z" />
<glyph unicode="&#xf7;" horiz-adv-x="1235" d="M227 763h843l-32 -198h-843zM419 277q0 43 14 77t39.5 57.5t59.5 35.5t75 12q57 0 91 -32.5t34 -90.5q0 -44 -14 -78t-39.5 -57.5t-60 -35.5t-74.5 -12q-57 0 -91 32.5t-34 91.5zM531 991q0 44 14 78t39.5 57.5t59.5 35.5t75 12q57 0 91 -32.5t34 -90.5q0 -44 -14 -78 t-39.5 -57.5t-60 -35.5t-74.5 -12q-57 0 -91 32.5t-34 90.5z" />
<glyph unicode="&#xf8;" horiz-adv-x="983" d="M392 -20q-57 0 -104 13.5t-85 37.5l-152 -189l-101 63l168 211q-59 88 -59 219q0 153 40.5 283t115.5 224.5t180.5 148t236.5 53.5q56 0 103 -13t85 -38l152 190l101 -63l-168 -210q29 -45 44.5 -100.5t15.5 -121.5q0 -153 -41 -283t-116 -224.5t-180.5 -147.5 t-235.5 -53zM434 179q49 0 91.5 30.5t75.5 83.5t54.5 124t28.5 152q2 18 3.5 36t1.5 35l-334 -418q27 -43 79 -43zM333 410l12 2t13 3l310 387q-27 43 -79 43t-96.5 -35t-78.5 -94t-55.5 -138.5t-25.5 -167.5z" />
<glyph unicode="&#xf9;" horiz-adv-x="1091" d="M677 0q-11 34 -9.5 82.5t12.5 99.5q6 29 15.5 62t20 66.5t21 64.5t19.5 57q-44 -99 -95 -182t-108 -143t-118.5 -93.5t-127.5 -33.5q-67 0 -110.5 25t-66.5 70.5t-27 108.5t8 139l72 450q14 94 18.5 154.5t1.5 96.5h247q4 -10 7 -31t4.5 -48t0.5 -58.5t-7 -62.5l-74 -468 q-3 -22 -2 -36q-2 -35 9.5 -56t40.5 -21q34 0 84.5 40.5t102 119.5t96.5 196t69 271v-1l24 155h264l-123 -773q-15 -94 -19 -154.5t-1 -96.5h-249zM844 1166l-494 159l135 225l438 -252z" />
<glyph unicode="&#xfa;" horiz-adv-x="1091" d="M677 0q-11 34 -9.5 82.5t12.5 99.5q6 29 15.5 62t20 66.5t21 64.5t19.5 57q-44 -99 -95 -182t-108 -143t-118.5 -93.5t-127.5 -33.5q-67 0 -110.5 25t-66.5 70.5t-27 108.5t8 139l72 450q14 94 18.5 154.5t1.5 96.5h247q4 -10 7 -31t4.5 -48t0.5 -58.5t-7 -62.5l-74 -468 q-3 -22 -2 -36q-2 -35 9.5 -56t40.5 -21q34 0 84.5 40.5t102 119.5t96.5 196t69 271v-1l24 155h264l-123 -773q-15 -94 -19 -154.5t-1 -96.5h-249zM441 1295l512 257l72 -225l-541 -161z" />
<glyph unicode="&#xfb;" horiz-adv-x="1091" d="M677 0q-11 34 -9.5 82.5t12.5 99.5q6 29 15.5 62t20 66.5t21 64.5t19.5 57q-44 -99 -95 -182t-108 -143t-118.5 -93.5t-127.5 -33.5q-67 0 -110.5 25t-66.5 70.5t-27 108.5t8 139l72 450q14 94 18.5 154.5t1.5 96.5h247q4 -10 7 -31t4.5 -48t0.5 -58.5t-7 -62.5l-74 -468 q-3 -22 -2 -36q-2 -35 9.5 -56t40.5 -21q34 0 84.5 40.5t102 119.5t96.5 196t69 271v-1l24 155h264l-123 -773q-15 -94 -19 -154.5t-1 -96.5h-249zM866 1150q-21 19 -45.5 41.5t-48.5 46.5t-46.5 47t-40.5 43q-24 -20 -53.5 -43t-61.5 -47t-64 -46.5t-59 -41.5l-106 159 q37 22 82.5 51t95 61t101.5 66t101 67q39 -33 79.5 -67t80 -66t75.5 -60.5t66 -50.5z" />
<glyph unicode="&#xfc;" horiz-adv-x="1091" d="M677 0q-11 34 -9.5 82.5t12.5 99.5q6 29 15.5 62t20 66.5t21 64.5t19.5 57q-44 -99 -95 -182t-108 -143t-118.5 -93.5t-127.5 -33.5q-67 0 -110.5 25t-66.5 70.5t-27 108.5t8 139l72 450q14 94 18.5 154.5t1.5 96.5h247q4 -10 7 -31t4.5 -48t0.5 -58.5t-7 -62.5l-74 -468 q-3 -22 -2 -36q-2 -35 9.5 -56t40.5 -21q34 0 84.5 40.5t102 119.5t96.5 196t69 271v-1l24 155h264l-123 -773q-15 -94 -19 -154.5t-1 -96.5h-249zM752 1320q0 43 14 77t39.5 57.5t59.5 35.5t75 12q58 0 91.5 -32.5t33.5 -90.5q0 -44 -14 -78t-39 -57.5t-59.5 -35.5 t-74.5 -12q-58 0 -92 32.5t-34 91.5zM323 1320q0 43 14 77t39 57.5t59.5 35.5t75.5 12q57 0 91 -32.5t34 -90.5q0 -44 -14 -78t-39.5 -57.5t-60 -35.5t-74.5 -12q-57 0 -91 32.5t-34 91.5z" />
<glyph unicode="&#xfd;" horiz-adv-x="950" d="M203 229q-6 103 -13.5 199.5t-15.5 182t-16.5 158t-15.5 126.5t-13 87.5t-9 41.5h248q10 -33 34 -224.5t42 -543.5q2 -29 1.5 -54.5t-2.5 -48.5q15 24 28.5 48.5t26.5 49.5q43 72 78.5 150.5t60.5 159.5t38.5 161.5t13.5 157.5q0 38 -4 75t-15 69l251 20 q10 -26 18.5 -70.5t8.5 -96.5q0 -87 -23.5 -183.5t-65.5 -198t-100 -205.5t-128 -204.5t-149.5 -196t-163.5 -180.5q-57 -64 -132.5 -94.5t-166.5 -30.5q-70 0 -118 18t-71 34l71 184q18 -10 53.5 -18.5t69.5 -8.5q49 0 86 18.5t60 67t31.5 133.5t1.5 217zM343 1295l511 257 l72 -225l-541 -161z" />
<glyph unicode="&#xfe;" horiz-adv-x="1080" d="M91 167q26 167 52.5 332t53.5 333l62 387q14 86 14.5 144t-3.5 93l256 24q10 -38 11 -100.5t-11 -137.5l-37 -235q-27 -168 -97 -365q38 85 84 158.5t98.5 127.5t112 85t125.5 31q106 0 169.5 -80t63.5 -246q0 -96 -17.5 -188t-50 -174t-79.5 -151t-106.5 -119t-131 -78 t-152.5 -28q-52 0 -95.5 17t-78.5 43l-12 -74v-1l-59 -361h-264l74 453zM497 187q59 0 109.5 43.5t88 116t58.5 167t21 197.5t-59 103q-22 0 -52.5 -22.5t-65 -61.5t-71 -93t-69.5 -116.5t-60 -132t-43 -139.5q6 -6 18.5 -16.5t31.5 -20.5t42.5 -17.5t50.5 -7.5z" />
<glyph unicode="&#xff;" horiz-adv-x="953" d="M203 229q-6 103 -13.5 199.5t-15.5 182t-16.5 158t-15.5 126.5t-13 87.5t-9 41.5h248q10 -33 34 -224.5t42 -543.5q2 -29 1.5 -54.5t-2.5 -48.5q15 24 28.5 48.5t26.5 49.5q43 72 78.5 150.5t60.5 159.5t38.5 161.5t13.5 157.5q0 38 -4 75t-15 69l251 20 q10 -26 18.5 -70.5t8.5 -96.5q0 -87 -23.5 -183.5t-65.5 -198t-100 -205.5t-128 -204.5t-149.5 -196t-163.5 -180.5q-57 -64 -132.5 -94.5t-166.5 -30.5q-70 0 -118 18t-71 34l71 184q18 -10 53.5 -18.5t69.5 -8.5q49 0 86 18.5t60 67t31.5 133.5t1.5 217zM649 1320 q0 43 14 77t39.5 57.5t59.5 35.5t75 12q57 0 91 -32.5t34 -90.5q0 -44 -14 -78t-39.5 -57.5t-60 -35.5t-74.5 -12q-57 0 -91 32.5t-34 91.5zM219 1320q0 43 14 77t39.5 57.5t59.5 35.5t75 12q57 0 91 -32.5t34 -90.5q0 -44 -14 -78t-39.5 -57.5t-60 -35.5t-74.5 -12 q-57 0 -91 32.5t-34 91.5z" />
<glyph unicode="&#x100;" horiz-adv-x="1182" d="M786 308h-433l-151 -308h-280l687 1330h247l264 -1330h-280zM452 513h300l-74 477zM479 1755h620l-31 -198h-621z" />
<glyph unicode="&#x101;" horiz-adv-x="1077" d="M929 251q-15 -94 -19 -154.5t-1 -96.5h-250q-11 33 -9.5 81t12.5 98q4 23 13 52t19 59.5t20.5 60t18.5 53.5q-38 -85 -85 -162t-101 -135t-115 -92.5t-128 -34.5q-53 0 -96 19.5t-73.5 60t-47 102t-16.5 144.5q0 96 17.5 188t50 174t79.5 151t106.5 119t131 78t152.5 28 q61 0 110.5 -24t87.5 -56l20 80h229q-3 -20 -6.5 -38.5t-6.5 -38.5zM619 837q-59 0 -109.5 -43.5t-88 -116t-58.5 -167t-21 -197.5t59 -103q21 0 52 22.5t66 61.5t71.5 93t70 116.5t61 132t44.5 139.5q-6 5 -19.5 15.5t-33 21t-43.5 18t-51 7.5zM378 1449h621l-32 -198h-620 z" />
<glyph unicode="&#x102;" horiz-adv-x="1182" d="M786 308h-433l-151 -308h-280l687 1330h247l264 -1330h-280zM452 513h300l-74 477zM725 1808q-8 -33 -9.5 -62.5t5.5 -51.5t23.5 -35t44.5 -13t48.5 13t34.5 35t21.5 51.5t10.5 62.5h188q-4 -92 -35 -156t-78 -104t-104.5 -57.5t-112.5 -17.5t-106.5 17.5t-86.5 57.5 t-46 104t15 156h187z" />
<glyph unicode="&#x103;" horiz-adv-x="1080" d="M929 251q-15 -94 -19 -154.5t-1 -96.5h-250q-11 33 -9.5 81t12.5 98q4 23 13 52t19 59.5t20.5 60t18.5 53.5q-38 -85 -85 -162t-101 -135t-115 -92.5t-128 -34.5q-53 0 -96 19.5t-73.5 60t-47 102t-16.5 144.5q0 96 17.5 188t50 174t79.5 151t106.5 119t131 78t152.5 28 q61 0 110.5 -24t87.5 -56l20 80h229q-3 -20 -6.5 -38.5t-6.5 -38.5zM619 837q-59 0 -109.5 -43.5t-88 -116t-58.5 -167t-21 -197.5t59 -103q21 0 52 22.5t66 61.5t71.5 93t70 116.5t61 132t44.5 139.5q-6 5 -19.5 15.5t-33 21t-43.5 18t-51 7.5zM606 1502q-8 -33 -9.5 -62.5 t5.5 -51.5t23.5 -35t44.5 -13t48.5 13t34.5 35t21.5 51.5t10.5 62.5h188q-4 -92 -35 -156t-78 -104t-104.5 -57.5t-112.5 -17.5t-106.5 17.5t-86.5 57.5t-46 104t15 156h187z" />
<glyph unicode="&#x104;" horiz-adv-x="1182" d="M786 308h-433l-151 -308h-280l687 1330h247q66 -334 130.5 -665t133.5 -665h-74q-26 -19 -51 -42t-44.5 -49.5t-32 -55t-12.5 -59.5q0 -39 19.5 -57.5t52.5 -18.5q18 0 36.5 3.5t35 9t30 11t22.5 9.5l18 -162q-9 -6 -24 -14t-34.5 -15.5t-42.5 -13.5t-48 -9q-49 -6 -93 1 q-46 7 -85 26.5t-63 52.5q-24 48 -17 99t32 108q-2 30 7.5 57t24.5 50t32.5 40.5t30.5 28.5zM452 513h300l-74 477z" />
<glyph unicode="&#x105;" horiz-adv-x="1077" d="M935 289q-6 -37 -10 -66.5t-6.5 -53.5t-3 -44t-0.5 -38q-23 -29 -43 -52.5t-38 -34.5q-26 -19 -51 -42.5t-45 -49.5t-32.5 -55t-12.5 -60q0 -38 20 -57t53 -19q18 0 36 3.5t34.5 9t30.5 11t23 9.5l18 -161q-12 -8 -33.5 -18.5t-49.5 -19.5t-61 -15t-66 -6q-46 0 -88 11 t-74.5 34.5t-51.5 60.5t-19 90q0 52 22.5 97.5t54 83t66 64.5t57.5 41q-5 11 -7 22.5t-4 23.5q-2 23 0.5 59t9.5 70q5 22 13.5 50.5t18.5 58t19.5 57.5t17.5 51q-38 -85 -85 -162t-101 -135t-115 -92.5t-128 -34.5q-53 0 -96 19.5t-73.5 60t-47 102t-16.5 144.5 q0 96 17.5 188t50 174t79.5 151t106.5 119t131 78t152.5 28q61 0 110.5 -24t87.5 -56l20 80h229q-3 -20 -6.5 -38.5t-6.5 -38.5zM619 837q-59 0 -109.5 -43.5t-88 -116t-58.5 -167t-21 -197.5t59 -103q21 0 52 22.5t66 61.5t71.5 93t70 116.5t61 132t44.5 139.5 q-6 5 -19.5 15.5t-33 21t-43.5 18t-51 7.5z" />
<glyph unicode="&#x106;" horiz-adv-x="1052" d="M95 499q0 187 52.5 343.5t148.5 269.5t230 175.5t297 62.5q49 0 94.5 -6t83.5 -15.5t67 -20.5t46 -20l-76 -202q-39 11 -102.5 24.5t-140.5 13.5q-94 0 -170.5 -42.5t-130.5 -119.5t-83 -185t-29 -239q0 -75 17 -136.5t51.5 -105t85 -67t118.5 -23.5q70 0 142.5 17 t134.5 46l31 -201q-33 -20 -74 -36t-86 -27.5t-92 -18t-93 -6.5q-126 0 -223.5 37t-164 105.5t-100.5 164t-34 212.5zM527 1595l511 257l72 -225l-541 -161z" />
<glyph unicode="&#x107;" horiz-adv-x="809" d="M782 795q-6 2 -20.5 7t-34.5 10t-45 8.5t-51 3.5q-69 0 -122.5 -47t-90.5 -121.5t-56.5 -166t-19.5 -180.5q0 -54 17 -82.5t59 -28.5q32 0 70 8t76 20t72.5 25.5t58.5 24.5l33 -189q-25 -15 -63.5 -33.5t-88 -35t-109 -27.5t-126.5 -11q-130 0 -200 79.5t-70 246.5 q0 84 15.5 171.5t46 169.5t77.5 154.5t109.5 126t142 85t175.5 31.5q41 0 76.5 -6t63 -13.5t46.5 -16t28 -12.5zM385 1295l512 257l72 -225l-541 -161z" />
<glyph unicode="&#x108;" horiz-adv-x="1052" d="M95 499q0 187 52.5 343.5t148.5 269.5t230 175.5t297 62.5q49 0 94.5 -6t83.5 -15.5t67 -20.5t46 -20l-76 -202q-39 11 -102.5 24.5t-140.5 13.5q-94 0 -170.5 -42.5t-130.5 -119.5t-83 -185t-29 -239q0 -75 17 -136.5t51.5 -105t85 -67t118.5 -23.5q70 0 142.5 17 t134.5 46l31 -201q-33 -20 -74 -36t-86 -27.5t-92 -18t-93 -6.5q-126 0 -223.5 37t-164 105.5t-100.5 164t-34 212.5zM1012 1450q-21 19 -45.5 41.5t-48.5 46.5t-46.5 47t-40.5 43q-24 -20 -53.5 -43t-61.5 -47t-64 -46.5t-59 -41.5l-106 159q37 22 82.5 51t95 61t101 66 t100.5 67q39 -33 80 -67t80.5 -66t75.5 -60.5t66 -50.5z" />
<glyph unicode="&#x109;" horiz-adv-x="809" d="M782 795q-6 2 -20.5 7t-34.5 10t-45 8.5t-51 3.5q-69 0 -122.5 -47t-90.5 -121.5t-56.5 -166t-19.5 -180.5q0 -54 17 -82.5t59 -28.5q32 0 70 8t76 20t72.5 25.5t58.5 24.5l33 -189q-25 -15 -63.5 -33.5t-88 -35t-109 -27.5t-126.5 -11q-130 0 -200 79.5t-70 246.5 q0 84 15.5 171.5t46 169.5t77.5 154.5t109.5 126t142 85t175.5 31.5q41 0 76.5 -6t63 -13.5t46.5 -16t28 -12.5zM819 1150q-21 19 -45.5 41.5t-48.5 46.5t-46.5 47t-40.5 43q-24 -20 -54 -43t-62 -47t-63.5 -46.5t-59.5 -41.5l-106 159q37 22 82.5 51t95 61t101.5 66t101 67 q39 -33 80 -67t80 -66t75 -60.5t66 -50.5z" />
<glyph unicode="&#x10a;" horiz-adv-x="1052" d="M95 499q0 187 52.5 343.5t148.5 269.5t230 175.5t297 62.5q49 0 94.5 -6t83.5 -15.5t67 -20.5t46 -20l-76 -202q-39 11 -102.5 24.5t-140.5 13.5q-94 0 -170.5 -42.5t-130.5 -119.5t-83 -185t-29 -239q0 -75 17 -136.5t51.5 -105t85 -67t118.5 -23.5q70 0 142.5 17 t134.5 46l31 -201q-33 -20 -74 -36t-86 -27.5t-92 -18t-93 -6.5q-126 0 -223.5 37t-164 105.5t-100.5 164t-34 212.5zM682 1620q0 43 14 77t39.5 57.5t59.5 35.5t75 12q58 0 91.5 -32.5t33.5 -90.5q0 -44 -14 -78t-39 -57.5t-59.5 -35.5t-74.5 -12q-58 0 -92 32.5t-34 91.5z " />
<glyph unicode="&#x10b;" horiz-adv-x="809" d="M782 795q-6 2 -20.5 7t-34.5 10t-45 8.5t-51 3.5q-69 0 -122.5 -47t-90.5 -121.5t-56.5 -166t-19.5 -180.5q0 -54 17 -82.5t59 -28.5q32 0 70 8t76 20t72.5 25.5t58.5 24.5l33 -189q-25 -15 -63.5 -33.5t-88 -35t-109 -27.5t-126.5 -11q-130 0 -200 79.5t-70 246.5 q0 84 15.5 171.5t46 169.5t77.5 154.5t109.5 126t142 85t175.5 31.5q41 0 76.5 -6t63 -13.5t46.5 -16t28 -12.5zM480 1320q0 43 14 77t39.5 57.5t59.5 35.5t75 12q58 0 91.5 -32.5t33.5 -90.5q0 -44 -14 -78t-39 -57.5t-59.5 -35.5t-74.5 -12q-58 0 -92 32.5t-34 91.5z" />
<glyph unicode="&#x10c;" horiz-adv-x="1052" d="M95 499q0 187 52.5 343.5t148.5 269.5t230 175.5t297 62.5q49 0 94.5 -6t83.5 -15.5t67 -20.5t46 -20l-76 -202q-39 11 -102.5 24.5t-140.5 13.5q-94 0 -170.5 -42.5t-130.5 -119.5t-83 -185t-29 -239q0 -75 17 -136.5t51.5 -105t85 -67t118.5 -23.5q70 0 142.5 17 t134.5 46l31 -201q-33 -20 -74 -36t-86 -27.5t-92 -18t-93 -6.5q-126 0 -223.5 37t-164 105.5t-100.5 164t-34 212.5zM649 1867q25 -18 52.5 -42t53 -50t48 -52t38.5 -49q24 23 54.5 49t64 52t68.5 50t67 42l87 -170q-50 -27 -101 -57.5t-100 -63.5t-94 -68t-83 -70 q-54 70 -133.5 137.5t-162.5 121.5z" />
<glyph unicode="&#x10d;" horiz-adv-x="809" d="M782 795q-6 2 -20.5 7t-34.5 10t-45 8.5t-51 3.5q-69 0 -122.5 -47t-90.5 -121.5t-56.5 -166t-19.5 -180.5q0 -54 17 -82.5t59 -28.5q32 0 70 8t76 20t72.5 25.5t58.5 24.5l33 -189q-25 -15 -63.5 -33.5t-88 -35t-109 -27.5t-126.5 -11q-130 0 -200 79.5t-70 246.5 q0 84 15.5 171.5t46 169.5t77.5 154.5t109.5 126t142 85t175.5 31.5q41 0 76.5 -6t63 -13.5t46.5 -16t28 -12.5zM459 1567q25 -18 52.5 -42t53 -50t48 -52t38.5 -49q24 23 54.5 49t64 52t68.5 50t67 42l87 -170q-50 -27 -101 -57.5t-100 -63.5t-94 -68t-83 -70 q-54 70 -133.5 137.5t-162.5 121.5z" />
<glyph unicode="&#x10e;" horiz-adv-x="1262" d="M65 0l211 1330h410q132 0 233 -38t169.5 -108.5t103.5 -170t35 -222.5q0 -178 -52 -324t-149.5 -249.5t-238.5 -160.5t-318 -57h-404zM502 210q98 0 179 39t138.5 111.5t89 175t31.5 228.5q0 84 -19 150.5t-56 112t-90 69.5t-122 24h-146l-145 -910h140zM486 1867 q25 -18 52.5 -42t53 -50t48 -52t38.5 -49q24 23 54.5 49t64 52t68.5 50t67 42l87 -170q-50 -27 -101 -57.5t-100 -63.5t-94 -68t-83 -70q-54 70 -133.5 137.5t-162.5 121.5z" />
<glyph unicode="&#x10f;" horiz-adv-x="1212" d="M929 251q-15 -94 -19 -154.5t-1 -96.5h-250q-11 33 -9.5 81t12.5 98q4 23 13 52t19 59.5t20.5 60t18.5 53.5q-38 -85 -85 -162t-101 -135t-115 -92.5t-128 -34.5q-53 0 -96 19.5t-73.5 60t-47 102t-16.5 144.5q0 96 17.5 188t50 174t79.5 151t106.5 119t131 78t152.5 28 q51 0 94.5 -17t78.5 -43l38 235q14 86 14.5 144t-3.5 93l257 24q10 -38 10.5 -100.5t-11.5 -137.5l-44 -275zM619 837q-59 0 -109.5 -43.5t-88 -116t-58.5 -167t-21 -197.5t59 -103q21 0 52 22.5t66 61.5t71.5 93t70 116.5t61 132t44.5 139.5q-6 6 -19.5 16t-33 20.5 t-43.5 18t-51 7.5zM1406 1544q9 -9 20.5 -24t21.5 -36t17 -48t7 -60q0 -59 -23 -108t-57.5 -88t-74.5 -67.5t-75 -44.5l-85 93q16 11 35 27.5t35 39.5t26.5 52.5t10.5 65.5q0 26 -6 48.5t-14.5 40.5t-18.5 31.5t-18 21.5z" />
<glyph unicode="&#x110;" horiz-adv-x="1308" d="M61 735h166l95 595h410q132 0 233 -38t169.5 -108.5t103.5 -170t35 -222.5q0 -178 -52 -324t-149.5 -249.5t-238.5 -160.5t-318 -57h-404l94 596h-166zM548 210q98 0 179 39t138.5 111.5t89.5 175t32 228.5q0 84 -19.5 150.5t-56 112t-90 69.5t-122.5 24h-146l-61 -385 h257l-23 -139h-257l-61 -386h140z" />
<glyph unicode="&#x111;" horiz-adv-x="1080" d="M544 1312h286q4 48 3.5 83.5t-3.5 60.5l257 24q8 -29 10 -73t-3 -95h139l-19 -120h-135l-25 -156l-125 -785q-15 -94 -19 -154.5t-1 -96.5h-250q-12 38 -8.5 91.5t17.5 112.5q5 21 13 47.5t17.5 54t18.5 53t16 45.5q-38 -85 -85 -162t-101 -135t-115 -92.5t-128 -34.5 q-53 0 -96 19.5t-73.5 60t-47 102t-16.5 144.5q0 96 17.5 188t50 174t79.5 151t106.5 119t131 78t152.5 28q51 0 94.5 -17t78.5 -43l33 208h-289zM619 837q-59 0 -109.5 -43.5t-88 -116t-58.5 -167t-21 -197.5t59 -103q21 0 52 22.5t66 61.5t71.5 93t70 116.5t61 132 t44.5 139.5q-6 6 -19.5 16t-33 20.5t-43.5 18t-51 7.5z" />
<glyph unicode="&#x112;" horiz-adv-x="986" d="M1016 1109h-509l-52 -331h484l-34 -215h-484l-55 -342h527l-34 -221h-794l211 1330h775zM405 1755h620l-32 -198h-620z" />
<glyph unicode="&#x113;" horiz-adv-x="873" d="M877 810q1 -82 -37.5 -147t-108.5 -113.5t-167.5 -81t-213.5 -49.5q-5 -28 -6.5 -56t-1.5 -54q0 -54 18.5 -82.5t61.5 -28.5q35 0 79 10.5t88.5 25t84 30.5t65.5 28l31 -190q-25 -16 -67.5 -37t-98.5 -40t-122 -32t-138 -13q-131 0 -202 79.5t-71 246.5q0 84 15.5 171.5 t45.5 169.5t75.5 154.5t104.5 126t132.5 85t160.5 31.5q132 0 202 -62.5t70 -171.5zM584 845q-35 0 -67.5 -23t-61 -62t-50.5 -90.5t-35 -108.5q56 11 105 32.5t85.5 50.5t57.5 64.5t21 74.5q0 31 -14.5 46.5t-40.5 15.5zM345 1449h621l-32 -198h-620z" />
<glyph unicode="&#x114;" horiz-adv-x="986" d="M1016 1109h-509l-52 -331h484l-34 -215h-484l-55 -342h527l-34 -221h-794l211 1330h775zM663 1808q-8 -33 -9.5 -62.5t5.5 -51.5t23.5 -35t44.5 -13t48 13t34 35t21.5 51.5t10.5 62.5h188q-4 -92 -35 -156t-78 -104t-104 -57.5t-112 -17.5q-56 0 -107.5 17.5t-86 57.5 t-46 104t14.5 156h188z" />
<glyph unicode="&#x115;" horiz-adv-x="873" d="M877 810q1 -82 -37.5 -147t-108.5 -113.5t-167.5 -81t-213.5 -49.5q-5 -28 -6.5 -56t-1.5 -54q0 -54 18.5 -82.5t61.5 -28.5q35 0 79 10.5t88.5 25t84 30.5t65.5 28l31 -190q-25 -16 -67.5 -37t-98.5 -40t-122 -32t-138 -13q-131 0 -202 79.5t-71 246.5q0 84 15.5 171.5 t45.5 169.5t75.5 154.5t104.5 126t132.5 85t160.5 31.5q132 0 202 -62.5t70 -171.5zM584 845q-35 0 -67.5 -23t-61 -62t-50.5 -90.5t-35 -108.5q56 11 105 32.5t85.5 50.5t57.5 64.5t21 74.5q0 31 -14.5 46.5t-40.5 15.5zM569 1502q-8 -33 -9.5 -62.5t5.5 -51.5t23.5 -35 t44.5 -13t48.5 13t34.5 35t21.5 51.5t10.5 62.5h188q-4 -92 -35 -156t-78 -104t-104.5 -57.5t-112.5 -17.5t-106.5 17.5t-86 57.5t-46 104t14.5 156h187z" />
<glyph unicode="&#x116;" horiz-adv-x="986" d="M1016 1109h-509l-52 -331h484l-34 -215h-484l-55 -342h527l-34 -221h-794l211 1330h775zM557 1620q0 43 14 77t39 57.5t59.5 35.5t75.5 12q57 0 91 -32.5t34 -90.5q0 -44 -14 -78t-39.5 -57.5t-60 -35.5t-74.5 -12q-57 0 -91 32.5t-34 91.5z" />
<glyph unicode="&#x117;" horiz-adv-x="873" d="M877 810q1 -82 -37.5 -147t-108.5 -113.5t-167.5 -81t-213.5 -49.5q-5 -28 -6.5 -56t-1.5 -54q0 -54 18.5 -82.5t61.5 -28.5q35 0 79 10.5t88.5 25t84 30.5t65.5 28l31 -190q-25 -16 -67.5 -37t-98.5 -40t-122 -32t-138 -13q-131 0 -202 79.5t-71 246.5q0 84 15.5 171.5 t45.5 169.5t75.5 154.5t104.5 126t132.5 85t160.5 31.5q132 0 202 -62.5t70 -171.5zM584 845q-35 0 -67.5 -23t-61 -62t-50.5 -90.5t-35 -108.5q56 11 105 32.5t85.5 50.5t57.5 64.5t21 74.5q0 31 -14.5 46.5t-40.5 15.5zM483 1320q0 43 14 77t39.5 57.5t59.5 35.5t75 12 q58 0 91.5 -32.5t33.5 -90.5q0 -44 -14 -78t-39 -57.5t-59.5 -35.5t-74.5 -12q-58 0 -92 32.5t-34 91.5z" />
<glyph unicode="&#x118;" horiz-adv-x="986" d="M1016 1109h-509l-52 -331h484l-34 -215h-484l-55 -342h527l-25 -164l-5 -57q-26 -19 -51.5 -42t-45.5 -49.5t-32.5 -55t-12.5 -59.5q0 -39 20 -57.5t53 -18.5q18 0 36 3.5t34.5 9t30.5 11t23 9.5l18 -162q-12 -8 -33.5 -18t-49.5 -19t-60.5 -15t-66.5 -6q-45 0 -87.5 11 t-74.5 34t-51.5 60t-19.5 90q0 46 18 87.5t45 76.5t58.5 63t59.5 47h-609l211 1330h775z" />
<glyph unicode="&#x119;" horiz-adv-x="873" d="M877 810q1 -82 -37.5 -147t-108.5 -113.5t-167.5 -81t-213.5 -49.5q-5 -28 -6.5 -56t-1.5 -54q0 -54 18 -82.5t62 -28.5q35 0 79 10.5t88.5 25t84 30.5t65.5 28l31 -190q-34 -22 -100 -52t-153 -50q-26 -19 -51 -42t-45 -49.5t-32.5 -55t-12.5 -59.5q0 -39 20 -57.5 t52 -18.5q18 0 36.5 3.5t35 9t30.5 11t23 9.5l17 -162q-11 -8 -32.5 -18t-49.5 -19t-61 -15t-66 -6q-46 0 -88 11t-74.5 34t-51.5 60t-19 90q0 42 14.5 79.5t37.5 70.5t51 60.5t55 47.5q-28 4 -54 15q-86 20 -133.5 96.5t-47.5 210.5q0 84 15.5 171.5t45.5 169.5t75.5 154.5 t104.5 126t132.5 85t160.5 31.5q132 0 202 -62.5t70 -171.5zM584 845q-35 0 -67.5 -23t-61 -62t-50.5 -90.5t-35 -108.5q56 11 105 32.5t85.5 50.5t57.5 64.5t21 74.5q0 31 -14.5 46.5t-40.5 15.5z" />
<glyph unicode="&#x11a;" horiz-adv-x="986" d="M1016 1109h-509l-52 -331h484l-34 -215h-484l-55 -342h527l-34 -221h-794l211 1330h775zM526 1867q25 -18 52 -42t52.5 -50t48 -52t39.5 -49q23 23 53.5 49t64.5 52t68.5 50t66.5 42l88 -170q-50 -27 -101 -57.5t-100.5 -63.5t-94.5 -68t-83 -70q-26 35 -60 70t-72.5 68 t-80 63.5t-82.5 57.5z" />
<glyph unicode="&#x11b;" horiz-adv-x="873" d="M877 810q1 -82 -37.5 -147t-108.5 -113.5t-167.5 -81t-213.5 -49.5q-5 -28 -6.5 -56t-1.5 -54q0 -54 18.5 -82.5t61.5 -28.5q35 0 79 10.5t88.5 25t84 30.5t65.5 28l31 -190q-25 -16 -67.5 -37t-98.5 -40t-122 -32t-138 -13q-131 0 -202 79.5t-71 246.5q0 84 15.5 171.5 t45.5 169.5t75.5 154.5t104.5 126t132.5 85t160.5 31.5q132 0 202 -62.5t70 -171.5zM584 845q-35 0 -67.5 -23t-61 -62t-50.5 -90.5t-35 -108.5q56 11 105 32.5t85.5 50.5t57.5 64.5t21 74.5q0 31 -14.5 46.5t-40.5 15.5zM452 1567q25 -18 52.5 -42t53 -50t48 -52t38.5 -49 q24 23 54.5 49t64 52t68.5 50t67 42l87 -170q-50 -27 -101 -57.5t-100 -63.5t-94 -68t-83 -70q-26 35 -60 70t-73 68t-80.5 63.5t-82.5 57.5z" />
<glyph unicode="&#x11c;" horiz-adv-x="1183" d="M1055 99q-39 -27 -87.5 -49t-102 -37.5t-110 -24t-113.5 -8.5q-136 0 -238.5 37t-171 105.5t-103 164t-34.5 212.5q0 187 53 343.5t153 269t243 175.5t322 63q106 0 184.5 -21t123.5 -44l-80 -201q-42 14 -107 27t-149 13q-110 0 -195 -42t-143 -119t-88 -185t-30 -239 q0 -75 17.5 -136.5t54 -105t92.5 -67.5t133 -24q40 0 80.5 6t72.5 16l49 309l-224 1l31 199h468zM1068 1456q-21 19 -45.5 41.5t-48.5 46.5t-46.5 47t-40.5 43q-24 -20 -53.5 -43t-61.5 -47t-64 -46.5t-59 -41.5l-106 159q37 22 82.5 51t95 61t101 66t100.5 67 q39 -33 80 -67t80.5 -66t75.5 -60.5t66 -50.5z" />
<glyph unicode="&#x11d;" horiz-adv-x="1095" d="M1055 967q-27 -168 -48 -306.5t-39 -257t-33.5 -221.5t-30.5 -202q-18 -105 -59.5 -180t-107.5 -123t-157.5 -70.5t-210.5 -22.5q-60 0 -112 7.5t-93 18t-69 21.5t-40 18l53 192q15 -6 43 -14.5t63.5 -16t77 -12.5t84.5 -5q121 0 188.5 50t87.5 144q14 70 26.5 143 t32.5 161q9 29 18 58.5t20 61.5q-38 -87 -85 -165t-101.5 -137t-116 -94t-129.5 -35q-53 0 -95.5 19.5t-73.5 60t-47.5 102t-16.5 144.5q0 96 17.5 188t50 174t79.5 151t106.5 119t131 78t152.5 28q61 0 111 -24t88 -56l19 80h229q-3 -20 -6 -38.5t-7 -38.5zM632 837 q-59 0 -109.5 -43.5t-88 -116t-58.5 -167t-21 -197.5t59 -103q21 0 52 22.5t66 61.5t71.5 93t70 116.5t61 132t44.5 139.5q-6 5 -19.5 15.5t-33 21t-43.5 18t-51 7.5zM889 1150q-21 19 -45.5 41.5t-48.5 46.5t-46.5 47t-40.5 43q-24 -20 -54 -43t-62 -47t-63.5 -46.5 t-59.5 -41.5l-106 159q37 22 82.5 51t95 61t101.5 66t101 67q39 -33 79.5 -67t80 -66t75.5 -60.5t66 -50.5z" />
<glyph unicode="&#x11e;" horiz-adv-x="1169" d="M1055 99q-39 -27 -87.5 -49t-102 -37.5t-110 -24t-113.5 -8.5q-136 0 -238.5 37t-171 105.5t-103 164t-34.5 212.5q0 187 53 343.5t153 269t243 175.5t322 63q106 0 184.5 -21t123.5 -44l-80 -201q-42 14 -107 27t-149 13q-110 0 -195 -42t-143 -119t-88 -185t-30 -239 q0 -75 17.5 -136.5t54 -105t92.5 -67.5t133 -24q40 0 80.5 6t72.5 16l49 309l-224 1l31 199h468zM820 1808q-8 -33 -9.5 -62.5t5.5 -51.5t23.5 -35t44.5 -13t48.5 13t34.5 35t21.5 51.5t10.5 62.5h188q-4 -92 -35 -156t-78 -104t-104.5 -57.5t-112.5 -17.5t-106.5 17.5 t-86 57.5t-46 104t14.5 156h187z" />
<glyph unicode="&#x11f;" horiz-adv-x="1095" d="M1055 967q-27 -168 -48 -306.5t-39 -257t-33.5 -221.5t-30.5 -202q-18 -105 -59.5 -180t-107.5 -123t-157.5 -70.5t-210.5 -22.5q-60 0 -112 7.5t-93 18t-69 21.5t-40 18l53 192q15 -6 43 -14.5t63.5 -16t77 -12.5t84.5 -5q121 0 188.5 50t87.5 144q14 70 26.5 143 t32.5 161q9 29 18 58.5t20 61.5q-38 -87 -85 -165t-101.5 -137t-116 -94t-129.5 -35q-53 0 -95.5 19.5t-73.5 60t-47.5 102t-16.5 144.5q0 96 17.5 188t50 174t79.5 151t106.5 119t131 78t152.5 28q61 0 111 -24t88 -56l19 80h229q-3 -20 -6 -38.5t-7 -38.5zM632 837 q-59 0 -109.5 -43.5t-88 -116t-58.5 -167t-21 -197.5t59 -103q21 0 52 22.5t66 61.5t71.5 93t70 116.5t61 132t44.5 139.5q-6 5 -19.5 15.5t-33 21t-43.5 18t-51 7.5zM641 1502q-8 -33 -9.5 -62.5t5.5 -51.5t23.5 -35t44.5 -13t48 13t34 35t22 51.5t11 62.5h187 q-3 -92 -34 -156t-78 -104t-104.5 -57.5t-112.5 -17.5t-106.5 17.5t-86.5 57.5t-46 104t15 156h187z" />
<glyph unicode="&#x120;" horiz-adv-x="1169" d="M1055 99q-39 -27 -87.5 -49t-102 -37.5t-110 -24t-113.5 -8.5q-136 0 -238.5 37t-171 105.5t-103 164t-34.5 212.5q0 187 53 343.5t153 269t243 175.5t322 63q106 0 184.5 -21t123.5 -44l-80 -201q-42 14 -107 27t-149 13q-110 0 -195 -42t-143 -119t-88 -185t-30 -239 q0 -75 17.5 -136.5t54 -105t92.5 -67.5t133 -24q40 0 80.5 6t72.5 16l49 309l-224 1l31 199h468zM707 1626q0 43 14 77t39.5 57.5t59.5 35.5t75 12q57 0 91 -32.5t34 -90.5q0 -44 -14 -78t-39.5 -57.5t-60 -35.5t-74.5 -12q-57 0 -91 32.5t-34 91.5z" />
<glyph unicode="&#x121;" horiz-adv-x="1095" d="M1055 967q-27 -168 -48 -306.5t-39 -257t-33.5 -221.5t-30.5 -202q-18 -105 -59.5 -180t-107.5 -123t-157.5 -70.5t-210.5 -22.5q-60 0 -112 7.5t-93 18t-69 21.5t-40 18l53 192q15 -6 43 -14.5t63.5 -16t77 -12.5t84.5 -5q121 0 188.5 50t87.5 144q14 70 26.5 143 t32.5 161q9 29 18 58.5t20 61.5q-38 -87 -85 -165t-101.5 -137t-116 -94t-129.5 -35q-53 0 -95.5 19.5t-73.5 60t-47.5 102t-16.5 144.5q0 96 17.5 188t50 174t79.5 151t106.5 119t131 78t152.5 28q61 0 111 -24t88 -56l19 80h229q-3 -20 -6 -38.5t-7 -38.5zM632 837 q-59 0 -109.5 -43.5t-88 -116t-58.5 -167t-21 -197.5t59 -103q21 0 52 22.5t66 61.5t71.5 93t70 116.5t61 132t44.5 139.5q-6 5 -19.5 15.5t-33 21t-43.5 18t-51 7.5zM553 1320q0 43 14 77t39.5 57.5t59.5 35.5t75 12q57 0 91 -32.5t34 -90.5q0 -44 -14 -78t-39.5 -57.5 t-60 -35.5t-74.5 -12q-57 0 -91 32.5t-34 91.5z" />
<glyph unicode="&#x122;" horiz-adv-x="1169" d="M1055 99q-39 -27 -87.5 -49t-102 -37.5t-110 -24t-113.5 -8.5q-136 0 -238.5 37t-171 105.5t-103 164t-34.5 212.5q0 187 53 343.5t153 269t243 175.5t322 63q106 0 184.5 -21t123.5 -44l-80 -201q-42 14 -107 27t-149 13q-110 0 -195 -42t-143 -119t-88 -185t-30 -239 q0 -75 17.5 -136.5t54 -105t92.5 -67.5t133 -24q40 0 80.5 6t72.5 16l49 309l-224 1l31 199h468zM660 -92q9 -8 20.5 -23.5t22 -36.5t17.5 -47t7 -55q0 -64 -29 -113t-79.5 -83.5t-118 -55t-145.5 -27.5l-22 127q26 5 53 14.5t49 25t37 36.5t18 50q2 14 1 28.5t-4 28.5 q-6 32 -19.5 54t-21.5 30z" />
<glyph unicode="&#x123;" horiz-adv-x="1095" d="M1055 967q-27 -168 -48 -306.5t-39 -257t-33.5 -221.5t-30.5 -202q-18 -105 -59.5 -180t-107.5 -123t-157.5 -70.5t-210.5 -22.5q-60 0 -112 7.5t-93 18t-69 21.5t-40 18l53 192q15 -6 43 -14.5t63.5 -16t77 -12.5t84.5 -5q121 0 188.5 50t87.5 144q14 70 26.5 143 t32.5 161q9 29 18 58.5t20 61.5q-38 -87 -85 -165t-101.5 -137t-116 -94t-129.5 -35q-53 0 -95.5 19.5t-73.5 60t-47.5 102t-16.5 144.5q0 96 17.5 188t50 174t79.5 151t106.5 119t131 78t152.5 28q61 0 111 -24t88 -56l19 80h229q-3 -20 -6 -38.5t-7 -38.5zM632 837 q-59 0 -109.5 -43.5t-88 -116t-58.5 -167t-21 -197.5t59 -103q21 0 52 22.5t66 61.5t71.5 93t70 116.5t61 132t44.5 139.5q-6 5 -19.5 15.5t-33 21t-43.5 18t-51 7.5zM612 1138q-9 8 -20.5 23.5t-22 37t-17.5 47.5t-7 55q0 64 29 112.5t79.5 83t118 55t145.5 27.5l22 -127 q-26 -5 -53 -14.5t-49 -24.5t-37 -37t-18 -50q-2 -14 -1 -28t4 -28q6 -33 19.5 -55t21.5 -30z" />
<glyph unicode="&#x124;" horiz-adv-x="1328" d="M910 560h-490l-89 -560h-266l211 1330h266l-87 -549h489l88 549h266l-210 -1330h-267zM1014 1456q-21 19 -45.5 41.5t-48.5 46.5t-46.5 47t-40.5 43q-24 -20 -53.5 -43t-61.5 -47t-64 -46.5t-59 -41.5l-106 159q37 22 82.5 51t95 61t101.5 66t101 67q39 -33 79.5 -67 t80 -66t75.5 -60.5t66 -50.5z" />
<glyph unicode="&#x125;" horiz-adv-x="1106" d="M260 1219q14 86 14.5 144t-3.5 93l256 24q8 -29 10 -75.5t-3 -96.5q-4 -45 -12 -100l-35 -218q-7 -40 -15 -79t-20 -83q-7 -26 -16 -57t-19 -62.5t-20 -61.5t-18 -55q45 98 97.5 181t111 143t122.5 94t132 34q67 0 110.5 -25t66.5 -70.5t27 -108.5t-8 -139l-72 -450 q-15 -94 -19 -154.5t-1 -96.5h-247q-4 10 -7 31t-4.5 48t-0.5 58t6 63l74 468q5 20 3 36q2 27 -4 45t-25 23q-18 9 -49 0q-38 -10 -87.5 -56.5t-98 -126t-89.5 -189.5t-63 -246v1l-24 -155h-264zM627 1507q-21 18 -45.5 41t-48.5 47t-46.5 47t-40.5 43q-24 -20 -54 -43 t-62 -47t-63.5 -47t-59.5 -41l-106 159q37 22 82.5 51t95 61t101.5 66t101 67q39 -33 79.5 -67t80 -66t75.5 -60.5t66 -50.5z" />
<glyph unicode="&#x126;" horiz-adv-x="1293" d="M103 1088h134l39 242h266l-39 -242h490l39 242h266l-38 -242h135l-21 -132h-135l-151 -956h-267l89 560h-490l-89 -560h-266l151 956h-134zM944 781l28 175h-490l-27 -175h489z" />
<glyph unicode="&#x127;" horiz-adv-x="1106" d="M128 1312h143q4 48 3 83.5t-3 60.5l256 24q8 -29 10 -73t-2 -95h278l-20 -120h-274l-31 -198q-7 -42 -15.5 -81.5t-20.5 -84.5q-7 -26 -16 -57t-19 -62.5t-20 -61.5t-18 -55q45 98 97.5 181t111 143t122.5 94t132 34q67 0 110.5 -25t66.5 -70.5t27 -108.5t-8 -139 l-72 -450q-15 -94 -19 -154.5t-1 -96.5h-247q-4 10 -7 31t-4.5 48t-0.5 58t6 63l74 468q8 50 -1 81.5t-47 31.5q-35 0 -87.5 -40.5t-106 -119.5t-100.5 -196t-71 -271v1l-24 -155h-264l189 1192h-146z" />
<glyph unicode="&#x128;" horiz-adv-x="537" d="M275 1330h266l-210 -1330h-267zM95 1602q17 33 43 67t59.5 61.5t75 45.5t90.5 18q34 0 63.5 -11.5t56 -25t50 -25t45.5 -11.5q32 0 58.5 22.5t61.5 56.5l114 -97q-20 -37 -47.5 -71.5t-62 -61t-77 -42.5t-91.5 -16q-30 0 -57 11.5t-52.5 25t-50 25t-47.5 11.5 q-32 0 -58 -22.5t-60 -56.5z" />
<glyph unicode="&#x129;" horiz-adv-x="528" d="M228 1024h264l-123 -773q-15 -94 -19 -154.5t-1 -96.5h-247q-4 10 -7 31t-4.5 48t-0.5 58t6 63zM56 1302q18 33 43.5 67t59.5 61.5t75.5 45.5t89.5 18q34 0 63.5 -11.5t56 -25t50.5 -25t46 -11.5q32 0 58.5 22.5t61.5 56.5l114 -97q-20 -37 -47.5 -71.5t-62.5 -61 t-77 -42.5t-91 -16q-30 0 -57.5 11.5t-53 25t-49.5 25t-47 11.5q-32 0 -58.5 -22.5t-60.5 -56.5z" />
<glyph unicode="&#x12a;" horiz-adv-x="537" d="M275 1330h266l-210 -1330h-267zM157 1755h621l-32 -198h-620z" />
<glyph unicode="&#x12b;" horiz-adv-x="528" d="M228 1024h264l-123 -773q-15 -94 -19 -154.5t-1 -96.5h-247q-4 10 -7 31t-4.5 48t-0.5 58t6 63zM119 1449h620l-32 -198h-620z" />
<glyph unicode="&#x12c;" horiz-adv-x="537" d="M275 1330h266l-210 -1330h-267zM392 1808q-8 -33 -9.5 -62.5t5.5 -51.5t23.5 -35t44.5 -13t48.5 13t34.5 35t21.5 51.5t10.5 62.5h188q-4 -92 -35 -156t-78 -104t-104.5 -57.5t-112.5 -17.5t-106.5 17.5t-86 57.5t-46 104t14.5 156h187z" />
<glyph unicode="&#x12d;" horiz-adv-x="528" d="M228 1024h264l-123 -773q-15 -94 -19 -154.5t-1 -96.5h-247q-4 10 -7 31t-4.5 48t-0.5 58t6 63zM340 1502q-8 -33 -9.5 -62.5t5.5 -51.5t23.5 -35t44.5 -13t48 13t34 35t21.5 51.5t10.5 62.5h188q-4 -92 -35 -156t-78 -104t-104.5 -57.5t-112.5 -17.5t-106.5 17.5 t-86 57.5t-46 104t14.5 156h188z" />
<glyph unicode="&#x12e;" horiz-adv-x="537" d="M275 1330h266l-210 -1330h-75q-26 -19 -51 -42t-44.5 -49.5t-32 -55t-12.5 -59.5q0 -39 19.5 -57.5t52.5 -18.5q18 0 36.5 3.5t35 9t30 11t22.5 9.5l18 -162q-12 -8 -33.5 -18t-49.5 -19t-60.5 -15t-66.5 -6q-45 0 -87 10.5t-74.5 34t-52 60.5t-19.5 90q0 46 18 87.5 t45 76.5t58.5 63t59.5 47h-4z" />
<glyph unicode="&#x12f;" horiz-adv-x="528" d="M228 1024h264l-118 -743q-17 -103 -22.5 -172t-2.5 -109h-82q-26 -19 -51 -42t-45 -49.5t-32.5 -55t-12.5 -59.5q0 -39 20 -57.5t53 -18.5q18 0 36 3.5t34.5 9t30.5 11t23 9.5l18 -162q-12 -8 -33.5 -18t-49.5 -19t-61 -15t-66 -6q-45 0 -87 10.5t-74.5 34t-52 60.5 t-19.5 90q0 52 22.5 98t54 83t65.5 64t58 41q-3 14 -5.5 35t-3 46t1 52.5t5.5 54.5zM256 1320q0 43 14 77t39 57.5t59.5 35.5t75.5 12q57 0 91 -32.5t34 -90.5q0 -44 -14 -78t-39.5 -57.5t-60 -35.5t-74.5 -12q-57 0 -91 32.5t-34 91.5z" />
<glyph unicode="&#x130;" horiz-adv-x="537" d="M275 1330h266l-210 -1330h-267zM295 1620q0 43 14 77t39.5 57.5t59.5 35.5t75 12q57 0 91 -32.5t34 -90.5q0 -44 -14 -78t-39.5 -57.5t-60 -35.5t-74.5 -12q-57 0 -91 32.5t-34 91.5z" />
<glyph unicode="&#x131;" horiz-adv-x="517" d="M228 1024h264l-123 -773q-15 -94 -19 -154.5t-1 -96.5h-247q-4 10 -7 31t-4.5 48t-0.5 58t6 63z" />
<glyph unicode="&#x132;" horiz-adv-x="1261" d="M275 1330h266l-210 -1330h-267zM1273 1330l-154 -968q-15 -95 -51.5 -166.5t-89 -119.5t-120 -72t-144.5 -24q-44 0 -79.5 6t-63.5 15.5t-47 20.5t-30 20l73 202q21 -12 58.5 -25t87.5 -12q57 0 91 33.5t45 98.5l157 991h267z" />
<glyph unicode="&#x133;" horiz-adv-x="1034" d="M228 1024h264l-123 -773q-15 -94 -19 -154.5t-1 -96.5h-247q-4 10 -7 31t-4.5 48t-0.5 58t6 63zM256 1320q0 43 14 77t39 57.5t59.5 35.5t75.5 12q57 0 91 -32.5t34 -90.5q0 -44 -14 -78t-39.5 -57.5t-60 -35.5t-74.5 -12q-57 0 -91 32.5t-34 91.5zM746 1024h263 l-168 -1071q-16 -104 -48.5 -174.5t-81 -113.5t-112.5 -62t-143 -19q-38 0 -70 5t-57.5 12t-43 14.5t-24.5 11.5l51 188q17 -6 51.5 -14t73.5 -8q33 0 56 8t38.5 26t25.5 47.5t17 73.5zM773 1320q0 43 14 77t39.5 57.5t59.5 35.5t75 12q57 0 91 -32.5t34 -90.5 q0 -44 -14 -78t-39.5 -57.5t-60 -35.5t-74.5 -12q-57 0 -91 32.5t-34 91.5z" />
<glyph unicode="&#x134;" horiz-adv-x="728" d="M739 1330l-154 -968q-15 -95 -51 -166.5t-89 -119.5t-120 -72t-144 -24q-44 0 -79.5 6t-63.5 15.5t-47.5 20.5t-30.5 20l74 202q21 -12 58 -25t87 -12q57 0 91.5 33.5t44.5 98.5l157 991h267zM832 1456q-21 19 -45.5 41.5t-48.5 46.5t-46.5 47t-40.5 43 q-24 -20 -53.5 -43t-61.5 -47t-64 -46.5t-59 -41.5l-106 159q37 22 82.5 51t95 61t101.5 66t101 67q39 -33 79.5 -67t80 -66t75.5 -60.5t66 -50.5z" />
<glyph unicode="&#x135;" horiz-adv-x="518" d="M230 1024h263l-168 -1071q-16 -104 -49 -174.5t-81.5 -113.5t-112.5 -62t-142 -19q-38 0 -70 5t-57.5 12t-43 14.5t-24.5 11.5l51 188q17 -6 51.5 -14t73.5 -8q33 0 55.5 8t38.5 26t26 47.5t17 73.5zM595 1150q-21 19 -45.5 41.5t-48.5 46.5t-46.5 47t-40.5 43 q-24 -20 -53.5 -43t-61.5 -47t-64 -46.5t-59 -41.5l-106 159q37 22 82.5 51t95 61t101.5 66t101 67q39 -33 79.5 -67t80 -66t75.5 -60.5t66 -50.5z" />
<glyph unicode="&#x136;" horiz-adv-x="1141" d="M444 716q99 20 183 73t141 132.5t80 183t0 225.5l265 12q32 -115 18 -220.5t-61 -196.5t-119.5 -163.5t-156.5 -120.5l236 -641h-285l-182 552q-38 -12 -76 -23t-76 -20l-81 -509h-265l211 1330h265zM596 -92q9 -8 21 -23.5t22.5 -36.5t17.5 -47t7 -55q0 -64 -29 -113 t-79.5 -83.5t-118 -55t-145.5 -27.5l-22 127q26 5 53 14.5t49 25t37 36.5t18 50q3 30 -3 57q-6 32 -19.5 54t-21.5 30z" />
<glyph unicode="&#x137;" horiz-adv-x="991" d="M424 584q64 22 123 62t100 96t58.5 127t-0.5 155l276 20q20 -66 17.5 -124.5t-20.5 -110t-48 -95t-65 -79t-72 -63.5t-69 -47l183 -525h-287l-124 428q-26 -11 -52 -21t-50 -18l-62 -389h-266l195 1219q14 86 14.5 144t-3.5 93l256 24q11 -38 11.5 -100.5t-11.5 -137.5z M518 -92q9 -8 20.5 -23.5t22 -36.5t17.5 -47t7 -55q0 -64 -29 -113t-79.5 -83.5t-118 -55t-145.5 -27.5l-22 127q26 5 53 14.5t49 25t37 36.5t18 50q2 14 1 28.5t-4 28.5q-6 32 -19.5 54t-21.5 30z" />
<glyph unicode="&#x138;" horiz-adv-x="991" d="M425 584q64 22 122 62t98.5 96t57 127t-1.5 155l276 20q20 -65 18 -123.5t-19.5 -110t-47 -95t-64.5 -79.5t-71.5 -64t-68.5 -47l186 -525h-286l-128 428q-26 -11 -52 -21t-50 -18l-62 -389h-266l164 1024h264z" />
<glyph unicode="&#x139;" horiz-adv-x="949" d="M839 0h-774l211 1330h266l-176 -1109h507zM217 1595l512 257l71 -225l-540 -161z" />
<glyph unicode="&#x13a;" horiz-adv-x="517" d="M272 1219q14 86 14 144t-3 93l256 24q10 -38 10.5 -100.5t-10.5 -137.5l-158 -991q-15 -94 -19 -154.5t-1 -96.5h-247q-4 10 -7 31t-4.5 48t-0.5 58t6 63zM184 1652l511 258l72 -225l-541 -161z" />
<glyph unicode="&#x13b;" horiz-adv-x="949" d="M839 0h-774l211 1330h266l-176 -1109h507zM545 -92q9 -8 21 -23.5t22.5 -36.5t17.5 -47t7 -55q0 -64 -29 -113t-79.5 -83.5t-118.5 -55t-145 -27.5l-22 127q26 5 52.5 14.5t48.5 25t37.5 36.5t18.5 50q3 30 -3 57q-7 32 -20 54t-21 30z" />
<glyph unicode="&#x13c;" horiz-adv-x="517" d="M272 1219q14 86 14 144t-3 93l256 24q10 -38 10.5 -100.5t-10.5 -137.5l-158 -991q-15 -94 -19 -154.5t-1 -96.5h-247q-4 10 -7 31t-4.5 48t-0.5 58t6 63zM276 -92q9 -8 21 -23.5t22 -36.5t17 -47t7 -55q0 -64 -29 -113t-79.5 -83.5t-118 -55t-144.5 -27.5l-23 127 q27 5 53.5 14.5t48.5 25t37.5 36.5t18.5 50q2 14 0.5 28.5t-4.5 28.5q-6 32 -19 54t-21 30z" />
<glyph unicode="&#x13d;" horiz-adv-x="918" d="M839 0h-774l211 1330h266l-176 -1109h507zM935 1377q9 -8 21 -24t22.5 -37t17.5 -47t7 -55q0 -64 -29 -113t-79.5 -83.5t-118.5 -54.5t-145 -27l-23 126q27 5 53.5 14.5t48.5 25t37.5 37t18.5 49.5q3 31 -4 57q-6 32 -19 54t-21 31z" />
<glyph unicode="&#x13e;" horiz-adv-x="648" d="M842 1544q9 -9 20.5 -24t21.5 -36t17 -48t7 -60q0 -59 -23 -108t-57.5 -88t-74.5 -67.5t-75 -44.5l-84 93q16 11 34.5 27.5t34.5 39.5t26.5 52.5t10.5 65.5q0 26 -6 48.5t-14.5 40.5t-18.5 31.5t-18 21.5zM272 1219q14 86 14 144t-3 93l256 24q10 -38 10.5 -100.5 t-10.5 -137.5l-158 -991q-15 -94 -19 -154.5t-1 -96.5h-247q-4 10 -7 31t-4.5 48t-0.5 58t6 63z" />
<glyph unicode="&#x13f;" horiz-adv-x="949" d="M839 0h-774l211 1330h266l-176 -1109h507zM618 687q0 43 14 77t39.5 57.5t59.5 35.5t75 12q57 0 91 -32.5t34 -90.5q0 -44 -14 -78t-39.5 -57.5t-60 -35.5t-74.5 -12q-57 0 -91 32.5t-34 91.5z" />
<glyph unicode="&#x140;" horiz-adv-x="751" d="M272 1219q14 86 14 144t-3 93l256 24q10 -38 10.5 -100.5t-10.5 -137.5l-158 -991q-15 -94 -19 -154.5t-1 -96.5h-247q-4 10 -7 31t-4.5 48t-0.5 58t6 63zM535 717q0 43 14 77t39 57.5t59.5 35.5t75.5 12q57 0 91 -32.5t34 -90.5q0 -44 -14 -78t-39.5 -57.5t-60 -35.5 t-74.5 -12q-57 0 -91 32.5t-34 91.5z" />
<glyph unicode="&#x141;" horiz-adv-x="929" d="M-87 489l270 183l104 658h267l-73 -456l210 143l68 -110l-306 -207l-76 -479h507l-34 -221h-774l79 498l-177 -120z" />
<glyph unicode="&#x142;" horiz-adv-x="552" d="M-34 526l238 162l85 531q14 86 14.5 144t-3.5 93l256 24q9 -32 10.5 -82t-3.5 -105q-3 -20 -6 -40.5t-6 -42.5l-51 -321l124 84l59 -97l-207 -140l-73 -457q-17 -100 -22.5 -170.5t-1.5 -108.5h-248q-3 10 -6.5 31t-5 48t0 58t6.5 63l53 335l-155 -105z" />
<glyph unicode="&#x143;" horiz-adv-x="1300" d="M466 907l-144 -907h-257l211 1330h285l342 -908l145 908h257l-211 -1330h-286zM585 1595l511 257l72 -225l-541 -161z" />
<glyph unicode="&#x144;" horiz-adv-x="1106" d="M458 1024q11 -34 9 -83t-13 -100q-6 -29 -15.5 -62t-20 -66t-21 -64.5t-18.5 -56.5q45 98 97.5 181t111 143t122.5 94t132 34q67 0 110.5 -25t66.5 -70.5t27 -108.5t-8 -139l-72 -450q-15 -94 -19 -154.5t-1 -96.5h-247q-4 10 -7 31t-4.5 48t-0.5 58t6 63l74 468 q5 20 3 36q2 35 -9.5 56t-41.5 21q-35 0 -87.5 -40.5t-106 -119.5t-100.5 -196t-71 -271l-24 -154h-264l122 773q15 94 19.5 154.5t1.5 96.5h249zM421 1295l512 257l72 -225l-541 -161z" />
<glyph unicode="&#x145;" horiz-adv-x="1300" d="M466 907l-144 -907h-257l211 1330h285l342 -908l145 908h257l-211 -1330h-286zM645 -92q9 -8 21 -23.5t22 -36.5t17 -47t7 -55q0 -64 -29 -113t-79.5 -83.5t-118 -55t-144.5 -27.5l-23 127q27 5 53.5 14.5t48.5 25t37.5 36.5t18.5 50q2 14 0.5 28.5t-4.5 28.5 q-6 32 -19 54t-21 30z" />
<glyph unicode="&#x146;" horiz-adv-x="1106" d="M458 1024q11 -34 9 -83t-13 -100q-6 -29 -15.5 -62t-20 -66t-21 -64.5t-18.5 -56.5q45 98 97.5 181t111 143t122.5 94t132 34q67 0 110.5 -25t66.5 -70.5t27 -108.5t-8 -139l-72 -450q-15 -94 -19 -154.5t-1 -96.5h-247q-4 10 -7 31t-4.5 48t-0.5 58t6 63l74 468 q5 20 3 36q2 35 -9.5 56t-41.5 21q-35 0 -87.5 -40.5t-106 -119.5t-100.5 -196t-71 -271l-24 -154h-264l122 773q15 94 19.5 154.5t1.5 96.5h249zM569 -92q9 -8 21 -23.5t22.5 -36.5t17.5 -47t7 -55q0 -64 -29 -113t-79.5 -83.5t-118.5 -55t-145 -27.5l-23 127 q27 5 53.5 14.5t48.5 25t37.5 36.5t18.5 50q3 31 -4 57q-6 32 -19 54t-21 30z" />
<glyph unicode="&#x147;" horiz-adv-x="1300" d="M466 907l-144 -907h-257l211 1330h285l342 -908l145 908h257l-211 -1330h-286zM643 1867q25 -18 52.5 -42t53 -50t48 -52t38.5 -49q24 23 54.5 49t64 52t68.5 50t67 42l87 -170q-50 -27 -101 -57.5t-100 -63.5t-94 -68t-83 -70q-54 70 -133.5 137.5t-162.5 121.5z" />
<glyph unicode="&#x148;" horiz-adv-x="1106" d="M458 1024q11 -34 9 -83t-13 -100q-6 -29 -15.5 -62t-20 -66t-21 -64.5t-18.5 -56.5q45 98 97.5 181t111 143t122.5 94t132 34q67 0 110.5 -25t66.5 -70.5t27 -108.5t-8 -139l-72 -450q-15 -94 -19 -154.5t-1 -96.5h-247q-4 10 -7 31t-4.5 48t-0.5 58t6 63l74 468 q5 20 3 36q2 35 -9.5 56t-41.5 21q-35 0 -87.5 -40.5t-106 -119.5t-100.5 -196t-71 -271l-24 -154h-264l122 773q15 94 19.5 154.5t1.5 96.5h249zM507 1567q25 -18 52.5 -42t53 -50t48 -52t38.5 -49q24 23 54.5 49t64.5 52t68.5 50t66.5 42l87 -170q-50 -27 -101 -57.5 t-100 -63.5t-94 -68t-83 -70q-26 35 -60 70t-73 68t-80.5 63.5t-82.5 57.5z" />
<glyph unicode="&#x149;" horiz-adv-x="1257" d="M609 1024q11 -34 9.5 -83t-12.5 -100q-6 -29 -16 -62t-20.5 -66t-21 -64.5t-18.5 -56.5q45 98 98 181t111.5 143t122 94t131.5 34q67 0 110.5 -25t66.5 -70.5t27 -108.5t-8 -139l-72 -450q-15 -94 -19 -154.5t-1 -96.5h-247q-4 10 -7 31t-4.5 48t-0.5 58t6 63l75 468 q3 22 2 36q2 35 -9.5 56t-40.5 21q-36 0 -88 -40.5t-105.5 -119.5t-100.5 -196t-71 -271l-25 -154h-264l123 773q14 94 18.5 154.5t1.5 96.5h249zM54 1016q13 21 29 52.5t29.5 69.5t23 80t9.5 83q0 53 -10 97t-20 65l224 50q11 -20 22.5 -62t11.5 -105q0 -68 -20.5 -127.5 t-50 -108t-62 -84t-57.5 -54.5z" />
<glyph unicode="&#x14a;" horiz-adv-x="1300" d="M834 37l-366 861l-142 -898h-261l211 1330h285l347 -855l136 855h261q-54 -334 -106.5 -664.5t-104.5 -665.5l-7 -47q-16 -104 -49 -174.5t-81.5 -113.5t-112.5 -62t-142 -19q-38 0 -70.5 5t-58 12t-42.5 14.5t-24 11.5l51 188q17 -6 51.5 -14t73.5 -8q33 0 56 8t38.5 26 t25.5 47.5t17 73.5z" />
<glyph unicode="&#x14b;" horiz-adv-x="1106" d="M458 1024q11 -34 9 -83t-13 -100q-12 -58 -31.5 -119.5t-36.5 -111.5q45 99 96.5 179t109.5 136.5t121 87.5t129 31q67 0 110.5 -25t66.5 -70.5t27 -108.5t-8 -139l-118 -748q-17 -104 -49.5 -174.5t-81 -113.5t-112.5 -62t-142 -19q-38 0 -70.5 5t-58 12t-42.5 14.5 t-24 11.5l51 188q17 -6 51.5 -14t73.5 -8q33 0 55.5 8t38.5 26t26 47.5t17 73.5l114 720q5 20 3 36q2 35 -9.5 56t-41.5 21q-35 0 -87.5 -40.5t-106 -119.5t-100.5 -196t-71 -271l-24 -154h-264l122 773q15 94 19.5 154.5t1.5 96.5h249z" />
<glyph unicode="&#x14c;" horiz-adv-x="1315" d="M629 195q76 0 144 43t120 121t82.5 187.5t30.5 242.5q0 77 -14.5 140.5t-45 109.5t-77.5 71t-111 25q-76 0 -144.5 -43t-120 -121.5t-82 -188t-30.5 -242.5q0 -77 14.5 -140t45 -109t77 -71t111.5 -25zM585 -20q-119 0 -210 39.5t-153.5 110t-94.5 167.5t-32 212 q0 180 51 334t144 266.5t223.5 176.5t288.5 64q118 0 209.5 -39.5t154 -110t94.5 -168t32 -212.5q0 -180 -51 -334t-144 -266.5t-223.5 -176t-288.5 -63.5zM553 1755h621l-32 -198h-620z" />
<glyph unicode="&#x14d;" horiz-adv-x="983" d="M392 -20q-78 0 -140 25.5t-105 72t-65.5 112t-22.5 145.5q0 153 40.5 283t115.5 224.5t180.5 148t236.5 53.5q79 0 140.5 -25.5t104.5 -72t65.5 -112.5t22.5 -146q0 -153 -41 -283t-116 -224.5t-180.5 -147.5t-235.5 -53zM434 179q56 0 104 40.5t82.5 109.5t54 159 t19.5 189q0 137 -69 158q-34 10 -75 -1q-48 -14 -88 -58t-69.5 -109.5t-46 -147.5t-16.5 -171q0 -87 26 -128t78 -41zM357 1449h620l-31 -198h-621z" />
<glyph unicode="&#x14e;" horiz-adv-x="1315" d="M629 195q76 0 144 43t120 121t82.5 187.5t30.5 242.5q0 77 -14.5 140.5t-45 109.5t-77.5 71t-111 25q-76 0 -144.5 -43t-120 -121.5t-82 -188t-30.5 -242.5q0 -77 14.5 -140t45 -109t77 -71t111.5 -25zM585 -20q-119 0 -210 39.5t-153.5 110t-94.5 167.5t-32 212 q0 180 51 334t144 266.5t223.5 176.5t288.5 64q118 0 209.5 -39.5t154 -110t94.5 -168t32 -212.5q0 -180 -51 -334t-144 -266.5t-223.5 -176t-288.5 -63.5zM793 1808q-8 -33 -9.5 -62.5t5.5 -51.5t23.5 -35t44.5 -13t48 13t34 35t22 51.5t11 62.5h187q-3 -92 -34 -156 t-78 -104t-104.5 -57.5t-112.5 -17.5t-106.5 17.5t-86.5 57.5t-46 104t15 156h187z" />
<glyph unicode="&#x14f;" horiz-adv-x="983" d="M392 -20q-78 0 -140 25.5t-105 72t-65.5 112t-22.5 145.5q0 153 40.5 283t115.5 224.5t180.5 148t236.5 53.5q79 0 140.5 -25.5t104.5 -72t65.5 -112.5t22.5 -146q0 -153 -41 -283t-116 -224.5t-180.5 -147.5t-235.5 -53zM434 179q56 0 104 40.5t82.5 109.5t54 159 t19.5 189q0 137 -69 158q-34 10 -75 -1q-48 -14 -88 -58t-69.5 -109.5t-46 -147.5t-16.5 -171q0 -87 26 -128t78 -41zM574 1502q-8 -33 -9.5 -62.5t5.5 -51.5t23.5 -35t44.5 -13t48 13t34 35t21.5 51.5t10.5 62.5h188q-4 -92 -35 -156t-78 -104t-104.5 -57.5t-112.5 -17.5 t-106.5 17.5t-86 57.5t-46 104t14.5 156h188z" />
<glyph unicode="&#x150;" horiz-adv-x="1315" d="M629 195q76 0 144 43t120 121t82.5 187.5t30.5 242.5q0 77 -14.5 140.5t-45 109.5t-77.5 71t-111 25q-76 0 -144.5 -43t-120 -121.5t-82 -188t-30.5 -242.5q0 -77 14.5 -140t45 -109t77 -71t111.5 -25zM585 -20q-119 0 -210 39.5t-153.5 110t-94.5 167.5t-32 212 q0 180 51 334t144 266.5t223.5 176.5t288.5 64q118 0 209.5 -39.5t154 -110t94.5 -168t32 -212.5q0 -180 -51 -334t-144 -266.5t-223.5 -176t-288.5 -63.5zM815 1533l285 373l167 -124l-334 -335zM479 1523l288 376l168 -124l-337 -338z" />
<glyph unicode="&#x151;" horiz-adv-x="983" d="M392 -20q-78 0 -140 25.5t-105 72t-65.5 112t-22.5 145.5q0 153 40.5 283t115.5 224.5t180.5 148t236.5 53.5q79 0 140.5 -25.5t104.5 -72t65.5 -112.5t22.5 -146q0 -153 -41 -283t-116 -224.5t-180.5 -147.5t-235.5 -53zM434 179q56 0 104 40.5t82.5 109.5t54 159 t19.5 189q0 137 -69 158q-34 10 -75 -1q-48 -14 -88 -58t-69.5 -109.5t-46 -147.5t-16.5 -171q0 -87 26 -128t78 -41zM645 1227l286 373l166 -124l-334 -335zM309 1217l289 376l167 -124l-337 -338z" />
<glyph unicode="&#x152;" horiz-adv-x="1765" d="M1795 1109h-497l-52 -331h472l-34 -215h-472l-55 -342h515l-34 -221h-782l8 49q-60 -32 -129.5 -50.5t-145.5 -18.5q-118 0 -210 40t-155 111.5t-96 170.5t-33 218q0 182 53 334.5t148 262.5t226.5 171.5t288.5 61.5q76 0 138 -22t109 -54l9 56h763zM634 193 q89 0 155.5 35t116.5 84l110 700q-16 23 -38.5 45.5t-52.5 40t-67.5 28.5t-84.5 11q-80 0 -151.5 -42t-125 -118.5t-84.5 -184.5t-31 -240q0 -80 15.5 -146t47 -113t79 -73.5t111.5 -26.5z" />
<glyph unicode="&#x153;" horiz-adv-x="1395" d="M632 1044q68 0 122 -28.5t92 -79.5q58 51 128 79.5t153 28.5q132 0 202.5 -62.5t70.5 -171.5q1 -82 -38 -147t-108.5 -113.5t-167 -81t-213.5 -49.5q-5 -28 -6.5 -56t-1.5 -54q0 -54 18 -82.5t62 -28.5q35 0 79 10.5t88.5 25t84 30.5t65.5 28l30 -190q-24 -16 -67 -37 t-98.5 -40t-121.5 -32t-138 -13q-69 0 -121.5 21.5t-87.5 66.5q-58 -42 -124.5 -65t-141.5 -23q-78 0 -140 25.5t-105 72t-65.5 112t-22.5 145.5q0 153 40.5 283t115.5 224.5t180.5 148t236.5 53.5zM434 179q48 0 88 22t74 64q-1 10 -1.5 20t-0.5 21q0 107 25 219t74 209 q-12 96 -74 106q-27 4 -57 0q-47 -9 -87.5 -47t-71.5 -97.5t-50 -136t-22 -161.5q-2 -49 3 -91q12 -128 100 -128zM1107 845q-35 0 -67.5 -23t-61 -62t-50.5 -90.5t-35 -108.5q56 11 105 32.5t85.5 50.5t57.5 64.5t21 74.5q0 31 -14.5 46.5t-40.5 15.5z" />
<glyph unicode="&#x154;" horiz-adv-x="1103" d="M65 0l211 1330h408q203 0 311.5 -86.5t108.5 -257.5q0 -85 -28.5 -154.5t-72.5 -124t-98.5 -94t-106.5 -63.5l61 -275q7 -32 22 -50.5t35.5 -28t44.5 -12t49 -1.5q3 -35 8.5 -69.5t9.5 -69.5q-4 -6 -14.5 -14t-24.5 -15.5t-31 -14.5t-33 -13q-10 -3 -22 -5t-25 -2 q-81 0 -140.5 33.5t-91.5 111.5q-10 23 -18.5 48t-13.5 53l-54 266h-152l-78 -492h-265zM440 698h234q26 12 52 34.5t47 54t34.5 71.5t13.5 85q0 82 -43.5 126.5t-124.5 44.5h-146zM434 1595l512 257l72 -225l-541 -161z" />
<glyph unicode="&#x155;" horiz-adv-x="750" d="M458 1024q12 -38 8.5 -93t-18.5 -116q-5 -20 -12.5 -45t-15.5 -51t-16 -51t-15 -46q38 86 80.5 162.5t90.5 134.5t101.5 91.5t115.5 33.5q25 0 43.5 -5.5t26.5 -9.5l-52 -301q-11 2 -33 4.5t-45 2.5q-45 0 -98 -30.5t-103 -99t-93.5 -179.5t-68.5 -272l-24 -154h-264 l122 773q15 94 19.5 154.5t1.5 96.5h249zM326 1295l511 257l72 -225l-541 -161z" />
<glyph unicode="&#x156;" horiz-adv-x="1103" d="M65 0l211 1330h408q203 0 311.5 -86.5t108.5 -257.5q0 -85 -28.5 -154.5t-72.5 -124t-98.5 -94t-106.5 -63.5l61 -275q7 -32 22 -50.5t35.5 -28t44.5 -12t49 -1.5q3 -35 8.5 -69.5t9.5 -69.5q-4 -6 -14.5 -14t-24.5 -15.5t-31 -14.5t-33 -13q-10 -3 -22 -5t-25 -2 q-81 0 -140.5 33.5t-91.5 111.5q-10 23 -18.5 48t-13.5 53l-54 266h-152l-78 -492h-265zM440 698h234q26 12 52 34.5t47 54t34.5 71.5t13.5 85q0 82 -43.5 126.5t-124.5 44.5h-146zM556 -92q9 -8 21 -23.5t22.5 -36.5t17.5 -47t7 -55q0 -64 -29 -113t-79.5 -83.5t-118.5 -55 t-145 -27.5l-23 127q27 5 53.5 14.5t48.5 25t37.5 36.5t18.5 50q3 31 -4 57q-6 32 -19 54t-21 30z" />
<glyph unicode="&#x157;" horiz-adv-x="750" d="M458 1024q12 -38 8.5 -93t-18.5 -116q-5 -20 -12.5 -45t-15.5 -51t-16 -51t-15 -46q38 86 80.5 162.5t90.5 134.5t101.5 91.5t115.5 33.5q25 0 43.5 -5.5t26.5 -9.5l-52 -301q-11 2 -33 4.5t-45 2.5q-45 0 -98 -30.5t-103 -99t-93.5 -179.5t-68.5 -272l-24 -154h-264 l122 773q15 94 19.5 154.5t1.5 96.5h249zM255 -92q9 -8 21 -23.5t22 -36.5t17 -47t7 -55q0 -64 -29 -113t-79.5 -83.5t-118 -55t-144.5 -27.5l-23 127q27 5 53.5 14.5t48.5 25t37.5 36.5t18.5 50q2 14 0.5 28.5t-4.5 28.5q-6 32 -19 54t-21 30z" />
<glyph unicode="&#x158;" horiz-adv-x="1103" d="M65 0l211 1330h408q203 0 311.5 -86.5t108.5 -257.5q0 -85 -28.5 -154.5t-72.5 -124t-98.5 -94t-106.5 -63.5l61 -275q7 -32 22 -50.5t35.5 -28t44.5 -12t49 -1.5q3 -35 8.5 -69.5t9.5 -69.5q-4 -6 -14.5 -14t-24.5 -15.5t-31 -14.5t-33 -13q-10 -3 -22 -5t-25 -2 q-81 0 -140.5 33.5t-91.5 111.5q-10 23 -18.5 48t-13.5 53l-54 266h-152l-78 -492h-265zM440 698h234q26 12 52 34.5t47 54t34.5 71.5t13.5 85q0 82 -43.5 126.5t-124.5 44.5h-146zM516 1867q25 -18 52.5 -42t53 -50t48 -52t38.5 -49q24 23 54.5 49t64 52t68 50t66.5 42 l88 -170q-50 -27 -101 -57.5t-100 -63.5t-94.5 -68t-83.5 -70q-26 35 -60 70t-72.5 68t-80 63.5t-82.5 57.5z" />
<glyph unicode="&#x159;" horiz-adv-x="750" d="M458 1024q11 -38 8 -93t-18 -116q-5 -20 -12.5 -45t-15.5 -51t-16 -51t-15 -46q38 86 80.5 162.5t90.5 134.5t101.5 91.5t115.5 33.5q25 0 43.5 -5.5t26.5 -9.5l-52 -301q-11 2 -33 4.5t-45 2.5q-45 0 -98 -30.5t-103 -99t-93.5 -179.5t-68.5 -272l-24 -154h-264l122 773 q15 94 19.5 154.5t1.5 96.5h249zM408 1567q25 -18 52.5 -42t53 -50t48 -52t38.5 -49q24 23 54.5 49t64.5 52t68.5 50t66.5 42l87 -170q-50 -27 -101 -57.5t-100 -63.5t-94 -68t-83 -70q-26 35 -60 70t-73 68t-80.5 63.5t-82.5 57.5z" />
<glyph unicode="&#x15a;" horiz-adv-x="976" d="M103 276q19 -10 51 -21t71.5 -20.5t84 -16t88.5 -6.5q100 0 152 26t63 78q3 18 2 37t-9 39q-8 37 -38.5 65.5t-84.5 61.5l-116 73q-48 30 -86.5 62t-65.5 69t-41.5 82t-14.5 102q0 101 40.5 183t110 139.5t163 89t200.5 31.5q64 0 115.5 -7.5t91.5 -18t69 -22t48 -20.5 l-77 -214q-23 8 -53.5 16.5t-66 16t-74 12t-75.5 4.5q-48 0 -86.5 -11t-65.5 -30.5t-42.5 -46t-18.5 -57.5q-6 -54 22.5 -91t82.5 -71l135 -89q50 -33 90 -65t69 -66.5t46 -73.5t21 -85q2 -23 1.5 -46t-3.5 -46q-19 -172 -151.5 -265.5t-371.5 -93.5q-58 0 -113 7t-102 18.5 t-84 26t-58 28.5zM419 1595l512 257l71 -225l-540 -161z" />
<glyph unicode="&#x15b;" horiz-adv-x="842" d="M80 236q14 -6 40 -14.5t59 -16t70.5 -13t74.5 -5.5q60 0 93 16.5t33 58.5q0 20 -10 40t-30 43t-51.5 51.5t-74.5 64.5q-45 38 -78 72t-54.5 68t-31.5 69t-10 75q0 67 24.5 122t72 94.5t117.5 61t160 21.5q47 0 91 -5.5t80 -13t61.5 -15t35.5 -11.5l-42 -202 q-10 3 -33.5 9t-55 12t-68.5 10.5t-73 4.5q-50 0 -75.5 -14.5t-33.5 -36.5q-8 -20 -2 -44q3 -17 12 -33.5t25 -34.5t40.5 -40.5t58.5 -51.5q52 -45 89.5 -83.5t61.5 -74.5t35.5 -71.5t11.5 -74.5q0 -68 -22 -122t-67 -92.5t-114.5 -59t-163.5 -20.5q-55 0 -103.5 5.5t-88 14 t-69.5 18.5t-48 19zM262 1295l512 257l71 -225l-540 -161z" />
<glyph unicode="&#x15c;" horiz-adv-x="984" d="M103 276q19 -10 51 -21t71.5 -20.5t84 -16t88.5 -6.5q100 0 152 26t63 78q3 18 2 37t-9 39q-8 37 -38.5 65.5t-84.5 61.5l-116 73q-48 30 -86.5 62t-65.5 69t-41.5 82t-14.5 102q0 101 40.5 183t110 139.5t163 89t200.5 31.5q64 0 115.5 -7.5t91.5 -18t69 -22t48 -20.5 l-77 -214q-23 8 -53.5 16.5t-66 16t-74 12t-75.5 4.5q-48 0 -86.5 -11t-65.5 -30.5t-42.5 -46t-18.5 -57.5q-6 -54 22.5 -91t82.5 -71l135 -89q50 -33 90 -65t69 -66.5t46 -73.5t21 -85q2 -23 1.5 -46t-3.5 -46q-19 -172 -151.5 -265.5t-371.5 -93.5q-58 0 -113 7t-102 18.5 t-84 26t-58 28.5zM894 1450q-21 19 -45.5 41.5t-48.5 46.5t-46.5 47t-40.5 43q-24 -20 -54 -43t-62 -47t-63.5 -46.5t-59.5 -41.5l-106 159q37 22 82.5 51t95 61t101.5 66t101 67q39 -33 79.5 -67t80 -66t75.5 -60.5t66 -50.5z" />
<glyph unicode="&#x15d;" horiz-adv-x="842" d="M80 236q14 -6 40 -14.5t59 -16t70.5 -13t74.5 -5.5q60 0 93 16.5t33 58.5q0 20 -10 40t-30 43t-51.5 51.5t-74.5 64.5q-45 38 -78 72t-54.5 68t-31.5 69t-10 75q0 67 24.5 122t72 94.5t117.5 61t160 21.5q47 0 91 -5.5t80 -13t61.5 -15t35.5 -11.5l-42 -202 q-10 3 -33.5 9t-55 12t-68.5 10.5t-73 4.5q-50 0 -75.5 -14.5t-33.5 -36.5q-8 -20 -2 -44q3 -17 12 -33.5t25 -34.5t40.5 -40.5t58.5 -51.5q52 -45 89.5 -83.5t61.5 -74.5t35.5 -71.5t11.5 -74.5q0 -68 -22 -122t-67 -92.5t-114.5 -59t-163.5 -20.5q-55 0 -103.5 5.5t-88 14 t-69.5 18.5t-48 19zM714 1150q-21 19 -45.5 41.5t-48.5 46.5t-46.5 47t-40.5 43q-24 -20 -53.5 -43t-61.5 -47t-64 -46.5t-59 -41.5l-106 159q37 22 82.5 51t95 61t101.5 66t101 67q39 -33 79.5 -67t80 -66t75.5 -60.5t66 -50.5z" />
<glyph unicode="&#x15e;" horiz-adv-x="976" d="M103 276q19 -10 51 -21t71.5 -20.5t84 -16t88.5 -6.5q100 0 152 26t63 78q3 18 2 37t-9 39q-8 37 -38.5 65.5t-84.5 61.5l-116 73q-48 30 -86.5 62t-65.5 69t-41.5 82t-14.5 102q0 101 40.5 183t110 139.5t163 89t200.5 31.5q64 0 115.5 -7.5t91.5 -18t69 -22t48 -20.5 l-77 -214q-23 8 -53.5 16.5t-66 16t-74 12t-75.5 4.5q-48 0 -86.5 -11t-65.5 -30.5t-42.5 -46t-18.5 -57.5q-6 -54 22.5 -91t82.5 -71l135 -89q50 -33 90 -65t69 -66.5t46 -73.5t21 -85q2 -23 1.5 -46t-3.5 -46q-19 -172 -151.5 -265.5t-371.5 -93.5q-58 0 -113 7t-102 18.5 t-84 26t-58 28.5zM184 -370q12 -4 30.5 -7t44.5 -3q54 0 80.5 21.5t26.5 58.5q0 55 -85 55h-58l32 139h111q43 0 80.5 -10t64.5 -30.5t42.5 -51.5t15.5 -73q0 -66 -24.5 -113t-67 -77t-99.5 -44t-121 -14q-38 0 -68 5.5t-44 12.5z" />
<glyph unicode="&#x15f;" horiz-adv-x="842" d="M80 236q14 -6 40 -14.5t59 -16t70.5 -13t74.5 -5.5q60 0 93 16.5t33 58.5q0 20 -10 40t-30 43t-51.5 51.5t-74.5 64.5q-45 38 -78 72t-54.5 68t-31.5 69t-10 75q0 67 24.5 122t72 94.5t117.5 61t160 21.5q47 0 91 -5.5t80 -13t61.5 -15t35.5 -11.5l-42 -202 q-10 3 -33.5 9t-55 12t-68.5 10.5t-73 4.5q-50 0 -75.5 -14.5t-33.5 -36.5q-8 -20 -2 -44q3 -17 12 -33.5t25 -34.5t40.5 -40.5t58.5 -51.5q52 -45 89.5 -83.5t61.5 -74.5t35.5 -71.5t11.5 -74.5q0 -68 -22 -122t-67 -92.5t-114.5 -59t-163.5 -20.5q-55 0 -103.5 5.5t-88 14 t-69.5 18.5t-48 19zM83 -370q13 -4 31.5 -7t44.5 -3q54 0 80.5 21.5t26.5 58.5q0 55 -86 55h-57l32 139h111q43 0 80 -10t64 -30.5t42.5 -51.5t15.5 -73q0 -66 -24.5 -113t-66.5 -77t-99 -44t-121 -14q-38 0 -68.5 5.5t-44.5 12.5z" />
<glyph unicode="&#x160;" horiz-adv-x="985" d="M103 276q19 -10 51 -21t71.5 -20.5t84 -16t88.5 -6.5q100 0 152 26t63 78q3 18 2 37t-9 39q-8 37 -38.5 65.5t-84.5 61.5l-116 73q-48 30 -86.5 62t-65.5 69t-41.5 82t-14.5 102q0 101 40.5 183t110 139.5t163 89t200.5 31.5q64 0 115.5 -7.5t91.5 -18t69 -22t48 -20.5 l-77 -214q-23 8 -53.5 16.5t-66 16t-74 12t-75.5 4.5q-48 0 -86.5 -11t-65.5 -30.5t-42.5 -46t-18.5 -57.5q-6 -54 22.5 -91t82.5 -71l135 -89q50 -33 90 -65t69 -66.5t46 -73.5t21 -85q2 -23 1.5 -46t-3.5 -46q-19 -172 -151.5 -265.5t-371.5 -93.5q-58 0 -113 7t-102 18.5 t-84 26t-58 28.5zM522 1867q25 -18 52.5 -42t53 -50t48 -52t39.5 -49q23 23 53.5 49t64.5 52t68.5 50t66.5 42l87 -170q-50 -27 -101 -57.5t-100 -63.5t-94 -68t-83 -70q-26 35 -60 70t-73 68t-80.5 63.5t-82.5 57.5z" />
<glyph unicode="&#x161;" horiz-adv-x="842" d="M80 236q14 -6 40 -14.5t59 -16t70.5 -13t74.5 -5.5q60 0 93 16.5t33 58.5q0 20 -10 40t-30 43t-51.5 51.5t-74.5 64.5q-45 38 -78 72t-54.5 68t-31.5 69t-10 75q0 67 24.5 122t72 94.5t117.5 61t160 21.5q47 0 91 -5.5t80 -13t61.5 -15t35.5 -11.5l-42 -202 q-10 3 -33.5 9t-55 12t-68.5 10.5t-73 4.5q-50 0 -75.5 -14.5t-33.5 -36.5q-8 -20 -2 -44q3 -17 12 -33.5t25 -34.5t40.5 -40.5t58.5 -51.5q52 -45 89.5 -83.5t61.5 -74.5t35.5 -71.5t11.5 -74.5q0 -68 -22 -122t-67 -92.5t-114.5 -59t-163.5 -20.5q-55 0 -103.5 5.5t-88 14 t-69.5 18.5t-48 19zM356 1567q25 -18 52 -42t52.5 -50t48 -52t39.5 -49q23 23 53.5 49t64.5 52t68.5 50t66.5 42l87 -170q-50 -27 -101 -57.5t-100 -63.5t-94 -68t-83 -70q-26 35 -60 70t-72.5 68t-80 63.5t-82.5 57.5z" />
<glyph unicode="&#x162;" horiz-adv-x="1018" d="M170 1330h963l-35 -221h-348l-175 -1109h-267l176 1109h-349zM200 -370q12 -4 31 -7t45 -3q53 0 79.5 21.5t26.5 58.5q0 55 -85 55h-57l32 139h111q43 0 80 -10t64 -30.5t42.5 -51.5t15.5 -73q0 -66 -24.5 -113t-66.5 -77t-99 -44t-121 -14q-38 0 -68.5 5.5t-44.5 12.5z " />
<glyph unicode="&#x163;" horiz-adv-x="741" d="M512 1024h257l-32 -199h-253l-82 -520q-4 -28 -3 -42q-2 -35 10.5 -50t41.5 -15q18 0 46 5.5t58.5 14.5t60 19.5t51.5 19.5l31 -189q-23 -13 -58.5 -28.5t-79 -28.5t-92 -22t-98.5 -9q-67 0 -117 16t-81 52t-41.5 93.5t2.5 139.5l87 544h-144l29 181l160 10l56 235 l230 19zM123 -370q12 -4 30.5 -7t44.5 -3q54 0 80.5 21.5t26.5 58.5q0 55 -85 55h-58l32 139h111q43 0 80.5 -10t64.5 -30.5t42.5 -51.5t15.5 -73q0 -66 -24.5 -113t-67 -77t-99.5 -44t-121 -14q-38 0 -68 5.5t-44 12.5z" />
<glyph unicode="&#x164;" horiz-adv-x="1018" d="M170 1330h963l-35 -221h-348l-175 -1109h-267l176 1109h-349zM499 1867q25 -18 52.5 -42t53 -50t48 -52t38.5 -49q24 23 54.5 49t64 52t68 50t66.5 42l88 -170q-50 -27 -101 -57.5t-100 -63.5t-94.5 -68t-83.5 -70q-26 35 -60 70t-72.5 68t-80 63.5t-82.5 57.5z" />
<glyph unicode="&#x165;" horiz-adv-x="741" d="M856 1589q9 -9 20.5 -24t21.5 -36t17 -48t7 -60q0 -59 -23 -108t-57.5 -88t-74.5 -67.5t-75 -44.5l-85 93q16 11 35 27.5t35 39.5t26.5 52.5t10.5 65.5q0 26 -6 48.5t-15 40.5t-19 31.5t-18 21.5zM512 1024h257l-32 -199h-253l-82 -520q-4 -28 -3 -42q-2 -35 10.5 -50 t41.5 -15q18 0 46 5.5t58.5 14.5t60 19.5t51.5 19.5l31 -189q-23 -13 -58.5 -28.5t-79 -28.5t-92 -22t-98.5 -9q-67 0 -117 16t-81 52t-41.5 93.5t2.5 139.5l87 544h-144l29 181l160 10l56 235l230 19z" />
<glyph unicode="&#x166;" horiz-adv-x="1018" d="M170 1330h963l-35 -221h-348l-61 -386h204l-21 -132h-204l-93 -591h-267l94 591h-194l21 132h193l62 386h-349z" />
<glyph unicode="&#x167;" horiz-adv-x="741" d="M512 1024h257l-32 -199h-253l-30 -186h237l-20 -127h-237l-27 -175q-4 -22 -5.5 -40t-2.5 -34q-2 -35 10.5 -50t41.5 -15q18 0 46 5.5t58.5 14.5t60 19.5t51.5 19.5l31 -189q-23 -13 -58.5 -28.5t-79 -28.5t-92 -22t-98.5 -9q-67 0 -117 16t-81 52t-41.5 93.5t2.5 139.5 l37 231h-135l18 113l137 8l30 192h-144l29 181l160 10l56 235l230 19z" />
<glyph unicode="&#x168;" horiz-adv-x="1236" d="M386 532q-13 -79 -10 -141.5t24 -105.5t62 -65.5t105 -22.5q105 0 178.5 79t97.5 233l131 821h266l-128 -808q-20 -128 -70.5 -228.5t-126 -170t-175 -106.5t-218.5 -37q-124 0 -210 38.5t-136 109t-64.5 170.5t5.5 222l129 810h266zM423 1602q17 33 43 67t60 61.5 t75.5 45.5t89.5 18q34 0 63.5 -11.5t56 -25t50 -25t45.5 -11.5q32 0 59 22.5t62 56.5l114 -97q-20 -37 -47.5 -71.5t-62.5 -61t-77 -42.5t-91 -16q-30 0 -57.5 11.5t-53 25t-50 25t-47.5 11.5q-32 0 -58 -22.5t-60 -56.5z" />
<glyph unicode="&#x169;" horiz-adv-x="1091" d="M677 0q-11 34 -9.5 82.5t12.5 99.5q6 29 15.5 62t20 66.5t21 64.5t19.5 57q-44 -99 -95 -182t-108 -143t-118.5 -93.5t-127.5 -33.5q-67 0 -110.5 25t-66.5 70.5t-27 108.5t8 139l72 450q14 94 18.5 154.5t1.5 96.5h247q4 -10 7 -31t4.5 -48t0.5 -58.5t-7 -62.5l-74 -468 q-3 -22 -2 -36q-2 -35 9.5 -56t40.5 -21q34 0 84.5 40.5t102 119.5t96.5 196t69 271v-1l24 155h264l-123 -773q-15 -94 -19 -154.5t-1 -96.5h-249zM339 1302q17 33 43 67t59.5 61.5t75 45.5t90.5 18q33 0 62.5 -11.5t56 -25t50.5 -25t46 -11.5q32 0 58.5 22.5t61.5 56.5 l114 -97q-20 -37 -47.5 -71.5t-62.5 -61t-77 -42.5t-91 -16q-30 0 -57 11.5t-52.5 25t-50 25t-47.5 11.5q-32 0 -58.5 -22.5t-59.5 -56.5z" />
<glyph unicode="&#x16a;" horiz-adv-x="1205" d="M386 532q-13 -79 -10 -141.5t24 -105.5t62 -65.5t105 -22.5q105 0 178.5 79t97.5 233l131 821h266l-128 -808q-20 -128 -70.5 -228.5t-126 -170t-175 -106.5t-218.5 -37q-124 0 -210 38.5t-136 109t-64.5 170.5t5.5 222l129 810h266zM497 1755h621l-32 -198h-620z" />
<glyph unicode="&#x16b;" horiz-adv-x="1091" d="M677 0q-11 34 -9.5 82.5t12.5 99.5q6 29 15.5 62t20 66.5t21 64.5t19.5 57q-44 -99 -95 -182t-108 -143t-118.5 -93.5t-127.5 -33.5q-67 0 -110.5 25t-66.5 70.5t-27 108.5t8 139l72 450q14 94 18.5 154.5t1.5 96.5h247q4 -10 7 -31t4.5 -48t0.5 -58.5t-7 -62.5l-74 -468 q-3 -22 -2 -36q-2 -35 9.5 -56t40.5 -21q34 0 84.5 40.5t102 119.5t96.5 196t69 271v-1l24 155h264l-123 -773q-15 -94 -19 -154.5t-1 -96.5h-249zM405 1449h621l-32 -198h-620z" />
<glyph unicode="&#x16c;" horiz-adv-x="1205" d="M386 532q-13 -79 -10 -141.5t24 -105.5t62 -65.5t105 -22.5q105 0 178.5 79t97.5 233l131 821h266l-128 -808q-20 -128 -70.5 -228.5t-126 -170t-175 -106.5t-218.5 -37q-124 0 -210 38.5t-136 109t-64.5 170.5t5.5 222l129 810h266zM749 1808q-8 -33 -9.5 -62.5 t5.5 -51.5t23.5 -35t44.5 -13t48 13t34 35t21.5 51.5t10.5 62.5h188q-4 -92 -35 -156t-78 -104t-104.5 -57.5t-112.5 -17.5t-106.5 17.5t-86 57.5t-46 104t14.5 156h188z" />
<glyph unicode="&#x16d;" horiz-adv-x="1091" d="M677 0q-11 34 -9.5 82.5t12.5 99.5q6 29 15.5 62t20 66.5t21 64.5t19.5 57q-44 -99 -95 -182t-108 -143t-118.5 -93.5t-127.5 -33.5q-67 0 -110.5 25t-66.5 70.5t-27 108.5t8 139l72 450q14 94 18.5 154.5t1.5 96.5h247q4 -10 7 -31t4.5 -48t0.5 -58.5t-7 -62.5l-74 -468 q-3 -22 -2 -36q-2 -35 9.5 -56t40.5 -21q34 0 84.5 40.5t102 119.5t96.5 196t69 271v-1l24 155h264l-123 -773q-15 -94 -19 -154.5t-1 -96.5h-249zM620 1502q-8 -33 -9.5 -62.5t5.5 -51.5t23.5 -35t44.5 -13t48 13t34 35t21.5 51.5t10.5 62.5h188q-4 -92 -35 -156t-78 -104 t-104 -57.5t-112 -17.5q-56 0 -107.5 17.5t-86 57.5t-46 104t14.5 156h188z" />
<glyph unicode="&#x16e;" horiz-adv-x="1205" d="M386 532q-13 -79 -10 -141.5t24 -105.5t62 -65.5t105 -22.5q105 0 178.5 79t97.5 233l131 821h266l-128 -808q-20 -128 -70.5 -228.5t-126 -170t-175 -106.5t-218.5 -37q-124 0 -210 38.5t-136 109t-64.5 170.5t5.5 222l129 810h266zM709 1637q0 -29 18 -47t46 -18 q41 0 67.5 25.5t26.5 66.5q0 29 -18 46.5t-47 17.5q-39 0 -66 -25t-27 -66zM543 1609q0 62 22 111.5t61 84t91.5 53t114.5 18.5q45 0 82 -13t63.5 -37t41 -58t14.5 -76q0 -63 -22 -112.5t-61 -84t-92 -53t-115 -18.5q-44 0 -81 13t-63.5 37t-41 58t-14.5 77z" />
<glyph unicode="&#x16f;" horiz-adv-x="1091" d="M677 0q-11 34 -9.5 82.5t12.5 99.5q6 29 15.5 62t20 66.5t21 64.5t19.5 57q-44 -99 -95 -182t-108 -143t-118.5 -93.5t-127.5 -33.5q-67 0 -110.5 25t-66.5 70.5t-27 108.5t8 139l72 450q14 94 18.5 154.5t1.5 96.5h247q4 -10 7 -31t4.5 -48t0.5 -58.5t-7 -62.5l-74 -468 q-3 -22 -2 -36q-2 -35 9.5 -56t40.5 -21q34 0 84.5 40.5t102 119.5t96.5 196t69 271v-1l24 155h264l-123 -773q-15 -94 -19 -154.5t-1 -96.5h-249zM444 1309q0 62 22 111.5t61 84t92 53t115 18.5q45 0 81.5 -13t63 -37t41 -58t14.5 -76q0 -63 -22 -112.5t-61 -84t-92 -53 t-115 -18.5q-44 0 -81 13t-63.5 37t-41 58t-14.5 77zM610 1337q0 -29 18 -47t47 -18q40 0 66.5 25.5t26.5 66.5q0 29 -18 46.5t-47 17.5q-39 0 -66 -25t-27 -66z" />
<glyph unicode="&#x170;" horiz-adv-x="1205" d="M386 532q-13 -79 -10 -141.5t24 -105.5t62 -65.5t105 -22.5q105 0 178.5 79t97.5 233l131 821h266l-128 -808q-20 -128 -70.5 -228.5t-126 -170t-175 -106.5t-218.5 -37q-124 0 -210 38.5t-136 109t-64.5 170.5t5.5 222l129 810h266zM820 1533l285 373l167 -124 l-334 -335zM484 1523l288 376l168 -124l-337 -338z" />
<glyph unicode="&#x171;" horiz-adv-x="1091" d="M677 0q-11 34 -9.5 82.5t12.5 99.5q6 29 15.5 62t20 66.5t21 64.5t19.5 57q-44 -99 -95 -182t-108 -143t-118.5 -93.5t-127.5 -33.5q-67 0 -110.5 25t-66.5 70.5t-27 108.5t8 139l72 450q14 94 18.5 154.5t1.5 96.5h247q4 -10 7 -31t4.5 -48t0.5 -58.5t-7 -62.5l-74 -468 q-3 -22 -2 -36q-2 -35 9.5 -56t40.5 -21q34 0 84.5 40.5t102 119.5t96.5 196t69 271v-1l24 155h264l-123 -773q-15 -94 -19 -154.5t-1 -96.5h-249zM355 1217l289 376l168 -124l-338 -338zM692 1227l285 373l167 -124l-334 -335z" />
<glyph unicode="&#x172;" horiz-adv-x="1205" d="M386 532q-13 -79 -10 -141.5t24 -105.5t62 -65.5t105 -22.5q61 0 108 23.5t81.5 71.5t58.5 120.5t39 169.5l120 748h266l-128 -808q-33 -210 -143.5 -343.5t-281.5 -178.5q-26 -19 -51 -42t-45 -49.5t-32.5 -55t-12.5 -59.5q0 -39 20 -57.5t53 -18.5q18 0 36 3.5t34.5 9 t30.5 11t23 9.5l18 -162q-12 -8 -33.5 -18t-49.5 -19t-60.5 -15t-66.5 -6q-45 0 -87.5 11t-74.5 34t-51.5 60t-19.5 90q0 42 14.5 79.5t37.5 70t50.5 59.5t54.5 47q-113 7 -190 48.5t-120.5 112t-54.5 166t7 211.5l129 810h266z" />
<glyph unicode="&#x173;" horiz-adv-x="1091" d="M841 0q-26 -19 -51 -42t-44.5 -49.5t-32 -55t-12.5 -59.5q0 -39 20 -57.5t52 -18.5q18 0 36.5 3.5t35 9t30.5 11t23 9.5l17 -162q-11 -8 -32.5 -18t-49.5 -19t-61 -15t-66 -6q-46 0 -88 11t-74.5 34t-51.5 60t-19 90q0 52 22.5 98t54 83.5t66 64.5t57.5 41q-9 38 -4 91.5 t20 111.5q6 26 14.5 55.5t18 59t18.5 55.5t16 46q-44 -99 -95 -182t-108 -143t-118.5 -93.5t-127.5 -33.5q-67 0 -110.5 25t-66.5 70.5t-27 108.5t8 139q1 8 2 15.5t3 15.5l67 419q14 94 18.5 154.5t1.5 96.5h247q4 -10 7 -31t4.5 -48t0.5 -58.5t-7 -62.5l-74 -468 q-3 -22 -2 -36q-2 -35 9.5 -56t40.5 -21q34 0 84.5 40.5t102 119.5t96.5 196t69 271v-1l24 155h264l-117 -740q-17 -103 -23 -174t-3 -110h-85z" />
<glyph unicode="&#x174;" horiz-adv-x="1707" d="M1839 1330l-536 -1330h-308l-83 818l-342 -818h-306l-117 1330h291l56 -977q96 238 192.5 478t191.5 479h224l81 -957l364 977h292zM1222 1456q-21 19 -45.5 41.5t-48.5 46.5t-46.5 47t-40.5 43q-24 -20 -54 -43t-62 -47t-63.5 -46.5t-59.5 -41.5l-106 159q37 22 82.5 51 t95 61t101.5 66t101 67q39 -33 79.5 -67t80 -66t75.5 -60.5t66 -50.5z" />
<glyph unicode="&#x175;" horiz-adv-x="1424" d="M1394 1044q14 -31 23.5 -79t9.5 -107q0 -131 -40.5 -257t-109 -237.5t-158.5 -204.5t-189 -159h-200l-34 313q-57 -95 -127.5 -173.5t-147.5 -139.5h-220l-55 813q-2 32 -6.5 64t-9.5 60.5t-10.5 51t-9.5 35.5h248q12 -32 19.5 -77.5t10.5 -99.5l37 -611q112 115 172 256 t67 301q-5 75 -14.5 127t-19.5 84l253 20q14 -31 23.5 -79t9.5 -107q0 -94 -26 -187q1 -11 1.5 -21.5t1.5 -21.5l35 -372q59 62 104.5 134t76 149.5t46 159t15.5 162.5q0 53 -6.5 100t-18.5 83zM1022 1150q-21 19 -45.5 41.5t-48.5 46.5t-46.5 47t-40.5 43q-24 -20 -54 -43 t-62 -47t-63.5 -46.5t-59.5 -41.5l-106 159q37 22 82.5 51t95 61t101.5 66t101 67q39 -33 80 -67t80 -66t75 -60.5t66 -50.5z" />
<glyph unicode="&#x176;" horiz-adv-x="1043" d="M391 501h1l-280 829h278l173 -565l354 565h283l-543 -829h1l-80 -501h-267zM879 1450q-21 19 -45.5 41.5t-48.5 46.5t-46.5 47t-39.5 43q-24 -20 -54 -43t-62 -47t-63.5 -46.5t-59.5 -41.5l-106 159q37 22 82.5 51t95 61t101.5 66t101 67q39 -33 79.5 -67t80 -66 t75.5 -60.5t66 -50.5z" />
<glyph unicode="&#x177;" horiz-adv-x="949" d="M203 229q-6 103 -13.5 199.5t-15.5 182t-16.5 158t-15.5 126.5t-13 87.5t-9 41.5h248q10 -33 34 -224.5t42 -543.5q2 -29 1.5 -54.5t-2.5 -48.5q15 24 28.5 48.5t26.5 49.5q43 72 78.5 150.5t60.5 159.5t38.5 161.5t13.5 157.5q0 38 -4 75t-15 69l251 20 q10 -26 18.5 -70.5t8.5 -96.5q0 -87 -23.5 -183.5t-65.5 -198t-100 -205.5t-128 -204.5t-149.5 -196t-163.5 -180.5q-57 -64 -132.5 -94.5t-166.5 -30.5q-70 0 -118 18t-71 34l71 184q18 -10 53.5 -18.5t69.5 -8.5q49 0 86 18.5t60 67t31.5 133.5t1.5 217zM780 1150 q-21 19 -45.5 41.5t-48.5 46.5t-46.5 47t-40.5 43q-24 -20 -54 -43t-61.5 -47t-63.5 -46.5t-59 -41.5l-107 159q37 22 82.5 51t95.5 61t101.5 66t100.5 67q39 -33 80 -67t80 -66t75.5 -60.5t66.5 -50.5z" />
<glyph unicode="&#x178;" horiz-adv-x="1043" d="M391 501h1l-280 829h278l173 -565l354 565h283l-543 -829h1l-80 -501h-267zM320 1620q0 43 14 77t39.5 57.5t59.5 35.5t75 12q57 0 91 -32.5t34 -90.5q0 -44 -14 -78t-39.5 -57.5t-60 -35.5t-74.5 -12q-57 0 -91 32.5t-34 91.5zM750 1620q0 43 14 77t39.5 57.5t59.5 35.5 t75 12q57 0 91 -32.5t34 -90.5q0 -44 -14 -78t-39.5 -57.5t-60 -35.5t-74.5 -12q-57 0 -91 32.5t-34 91.5z" />
<glyph unicode="&#x179;" horiz-adv-x="985" d="M702 1108h-523l34 221h847l-29 -188l-726 -920h615l-34 -221h-920l29 188zM382 1595l511 257l72 -225l-541 -161z" />
<glyph unicode="&#x17a;" horiz-adv-x="833" d="M-23 92l544 733h-387l31 199h676l-26 -165l-461 -622q11 -16 40 -28.5t75 -12.5q33 0 69.5 11.5t70 27.5t62 33t46.5 29l59 -204q-21 -15 -52 -34.5t-71 -37t-88 -29.5t-102 -12q-47 0 -84 13.5t-63.5 36t-42.5 51.5t-21 61l-121 -162zM264 1295l512 257l72 -225 l-541 -161z" />
<glyph unicode="&#x17b;" horiz-adv-x="985" d="M702 1108h-523l34 221h847l-29 -188l-726 -920h615l-34 -221h-920l29 188zM518 1620q0 43 14 77t39.5 57.5t59.5 35.5t75 12q58 0 91.5 -32.5t33.5 -90.5q0 -44 -14 -78t-39 -57.5t-59.5 -35.5t-74.5 -12q-58 0 -92 32.5t-34 91.5z" />
<glyph unicode="&#x17c;" horiz-adv-x="833" d="M-23 92l544 733h-387l31 199h676l-26 -165l-461 -622q11 -16 40 -28.5t75 -12.5q33 0 69.5 11.5t70 27.5t62 33t46.5 29l59 -204q-21 -15 -52 -34.5t-71 -37t-88 -29.5t-102 -12q-47 0 -84 13.5t-63.5 36t-42.5 51.5t-21 61l-121 -162zM392 1320q0 43 14 77t39.5 57.5 t59.5 35.5t75 12q57 0 91 -32.5t34 -90.5q0 -44 -14 -78t-39.5 -57.5t-60 -35.5t-74.5 -12q-57 0 -91 32.5t-34 91.5z" />
<glyph unicode="&#x17d;" horiz-adv-x="985" d="M702 1108h-523l34 221h847l-29 -188l-726 -920h615l-34 -221h-920l29 188zM484 1867q25 -18 52.5 -42t53 -50t48 -52t38.5 -49q24 23 54.5 49t64.5 52t68.5 50t66.5 42l87 -170q-50 -27 -101 -57.5t-100 -63.5t-94 -68t-83 -70q-26 35 -60 70t-73 68t-80.5 63.5 t-82.5 57.5z" />
<glyph unicode="&#x17e;" horiz-adv-x="833" d="M-23 92l544 733h-387l31 199h676l-26 -165l-461 -622q11 -16 40 -28.5t75 -12.5q33 0 69.5 11.5t70 27.5t62 33t46.5 29l59 -204q-21 -15 -52 -34.5t-71 -37t-88 -29.5t-102 -12q-47 0 -84 13.5t-63.5 36t-42.5 51.5t-21 61l-121 -162zM355 1567q25 -18 52.5 -42t53 -50 t48 -52t38.5 -49q24 23 54.5 49t64 52t68.5 50t67 42l87 -170q-50 -27 -101 -57.5t-100 -63.5t-94 -68t-83 -70q-27 35 -61 70t-72.5 68t-80 63.5t-82.5 57.5z" />
<glyph unicode="&#x17f;" horiz-adv-x="588" d="M325 -396h-264l194 1221h-142l29 181l149 10l21 122q13 77 41.5 140t78 108t122.5 69.5t175 24.5q37 0 69.5 -5t58 -11.5t43 -13.5t24.5 -10l-63 -187l-21 6t-32 7.5t-38 6t-40 2.5q-78 0 -115.5 -43.5t-50.5 -122.5z" />
<glyph unicode="&#x192;" horiz-adv-x="1056" d="M677 778h228l-31 -198h-258q-47 -149 -93.5 -295.5t-93.5 -295.5q-8 -22 -15.5 -44t-15.5 -42q-33 -82 -74 -140.5t-92.5 -97t-115 -58t-141.5 -22.5q-24 -1 -46.5 0.5t-43.5 3.5q-37 5 -65 12t-40 12l70 198q17 -5 44 -11.5t62 -6.5q36 0 66 8t54.5 27.5t44 52 t34.5 82.5l195 617h-126l28 181l159 9l61 192q7 22 14 41.5t15 39.5q63 157 176 232t282 75q33 0 62.5 -4t53.5 -10t41 -12.5t26 -10.5l-74 -195q-20 7 -51 14.5t-73 7.5q-78 0 -128 -41.5t-78 -127.5z" />
<glyph unicode="&#x1fa;" horiz-adv-x="1182" d="M786 308h-433l-151 -308h-280l687 1330h247l264 -1330h-280zM452 513h300l-74 477zM593 1851l386 208l67 -180l-411 -134zM723 1564q0 -17 10.5 -28.5t27.5 -11.5q25 0 40.5 15t15.5 41q0 17 -10.5 28t-27.5 11q-24 0 -40 -15t-16 -40zM586 1539q0 49 16 87.5t45 65.5 t69 41t88 14q67 0 109 -38t42 -104q0 -50 -16 -88.5t-45.5 -65.5t-69.5 -41t-88 -14q-67 0 -108.5 38.5t-41.5 104.5z" />
<glyph unicode="&#x1fb;" horiz-adv-x="1077" d="M929 251q-15 -94 -19 -154.5t-1 -96.5h-250q-11 33 -9.5 81t12.5 98q4 23 13 52t19 59.5t20.5 60t18.5 53.5q-38 -85 -85 -162t-101 -135t-115 -92.5t-128 -34.5q-53 0 -96 19.5t-73.5 60t-47 102t-16.5 144.5q0 96 17.5 188t50 174t79.5 151t106.5 119t131 78t152.5 28 q61 0 110.5 -24t87.5 -56l20 80h229q-3 -20 -6.5 -38.5t-6.5 -38.5zM619 837q-59 0 -109.5 -43.5t-88 -116t-58.5 -167t-21 -197.5t59 -103q21 0 52 22.5t66 61.5t71.5 93t70 116.5t61 132t44.5 139.5q-6 5 -19.5 15.5t-33 21t-43.5 18t-51 7.5zM612 1275q0 -17 10.5 -28.5 t27.5 -11.5q25 0 40.5 15t15.5 41q0 17 -10.5 28t-27.5 11q-24 0 -40 -15t-16 -40zM475 1250q0 49 16 87.5t45 65.5t69 41t88 14q67 0 109 -38t42 -104q0 -50 -16 -88.5t-45.5 -65.5t-69.5 -41t-88 -14q-67 0 -108.5 38.5t-41.5 104.5zM469 1563l386 208l67 -181l-411 -134z " />
<glyph unicode="&#x1fc;" horiz-adv-x="1745" d="M1775 1109h-478l-52 -331h453l-34 -215h-453l-55 -342h496l-34 -221h-761l49 307h-450l-262 -307h-290l1146 1330h760zM938 516l70 439l-373 -439h303zM1201 1597l512 258l72 -225l-541 -161z" />
<glyph unicode="&#x1fd;" horiz-adv-x="1329" d="M512 1044q85 0 148 -26.5t102 -81.5q58 51 127.5 79.5t152.5 28.5q132 0 202.5 -62.5t70.5 -171.5q1 -79 -36.5 -140.5t-106.5 -108t-166.5 -78t-217.5 -49.5q-5 -32 -6.5 -64t-1.5 -61q0 -54 18 -82.5t62 -28.5q35 0 79 10.5t88.5 25t84 30.5t65.5 28l30 -190 q-24 -16 -67 -37t-98.5 -40t-121.5 -32t-138 -13q-75 0 -130.5 25.5t-90.5 79.5q-63 -43 -126 -70t-126 -32q-47 -3 -90 3q-94 11 -151 69t-57 160q0 63 23 114.5t66 90.5t104.5 66t139.5 42q48 10 97 17t101 12q10 39 22.5 76.5t29.5 72.5q-5 62 -39.5 91t-106.5 29 q-37 0 -74 -5.5t-70.5 -14.5t-62 -19t-49.5 -19l-21 189q26 13 64.5 28.5t83.5 28.5t95 21.5t98 8.5zM269 265q0 -44 25.5 -66t67.5 -22q37 0 76 14t75 37q-3 21 -3.5 45t-0.5 49q0 47 6 95q-64 -8 -122 -21q-61 -15 -92.5 -49t-31.5 -82zM1022 845q-34 0 -66.5 -21.5 t-60.5 -57.5t-50 -84t-35 -101q57 10 106 30.5t85 47t56 58.5t20 66q0 31 -14.5 46.5t-40.5 15.5zM575 1295l511 257l72 -225l-541 -161z" />
<glyph unicode="&#x1fe;" horiz-adv-x="1315" d="M87 -83l146 205q-69 69 -103.5 167.5t-34.5 219.5q0 180 51 334t144 266.5t223.5 176.5t288.5 64q71 0 130.5 -16t110.5 -45l139 195l118 -71l-146 -205q69 -70 103.5 -168.5t34.5 -219.5q0 -180 -51 -334t-144 -266.5t-223.5 -176t-288.5 -63.5q-71 0 -131 15.5 t-111 44.5l-138 -194zM381 540q0 -47 5.5 -88.5t16.5 -77.5l502 710q-29 24 -65.5 37.5t-81.5 13.5q-76 0 -144.5 -43t-120 -121.5t-82 -188t-30.5 -242.5zM629 195q76 0 144 43t120 121t82.5 187.5t30.5 242.5q0 47 -5.5 88.5t-16.5 77.5l-502 -710q28 -24 64.5 -37 t82.5 -13zM570 1595l512 257l72 -225l-541 -161z" />
<glyph unicode="&#x1ff;" horiz-adv-x="983" d="M392 -20q-54 0 -99.5 12t-82.5 35l-148 -185l-102 63l162 203q-31 45 -47 102t-16 125q0 153 40.5 283t115.5 224.5t180.5 148t236.5 53.5q114 0 194 -57l157 196l101 -63l-175 -219q27 -43 41.5 -96.5t14.5 -116.5q0 -153 -41 -283t-116 -224.5t-180.5 -147.5 t-235.5 -53zM333 410l12 -4t14 -2l314 391q-26 50 -84 50q-52 0 -96.5 -35t-78.5 -94t-55.5 -138.5t-25.5 -167.5zM434 179q49 0 91.5 30.5t75.5 83.5t54.5 124t28.5 152q4 28 6 58l-329 -411q25 -37 73 -37zM383 1295l512 257l71 -225l-540 -161z" />
<glyph unicode="&#x218;" horiz-adv-x="976" d="M103 276q19 -10 51 -21t71.5 -20.5t84 -16t88.5 -6.5q100 0 152 26t63 78q3 18 2 37t-9 39q-8 37 -38.5 65.5t-84.5 61.5l-116 73q-48 30 -86.5 62t-65.5 69t-41.5 82t-14.5 102q0 101 40.5 183t110 139.5t163 89t200.5 31.5q64 0 115.5 -7.5t91.5 -18t69 -22t48 -20.5 l-77 -214q-23 8 -53.5 16.5t-66 16t-74 12t-75.5 4.5q-48 0 -86.5 -11t-65.5 -30.5t-42.5 -46t-18.5 -57.5q-6 -54 22.5 -91t82.5 -71l135 -89q50 -33 90 -65t69 -66.5t46 -73.5t21 -85q2 -23 1.5 -46t-3.5 -46q-19 -172 -151.5 -265.5t-371.5 -93.5q-58 0 -113 7t-102 18.5 t-84 26t-58 28.5zM501 -92q9 -8 21 -23.5t22.5 -36.5t17.5 -47t7 -55q0 -64 -29 -113t-79.5 -83.5t-118.5 -55t-145 -27.5l-23 127q27 5 53.5 14.5t48.5 25t37.5 36.5t18.5 50q3 31 -4 57q-6 32 -19 54t-21 30z" />
<glyph unicode="&#x219;" horiz-adv-x="842" d="M80 236q14 -6 40 -14.5t59 -16t70.5 -13t74.5 -5.5q60 0 93 16.5t33 58.5q0 20 -10 40t-30 43t-51.5 51.5t-74.5 64.5q-45 38 -78 72t-54.5 68t-31.5 69t-10 75q0 67 24.5 122t72 94.5t117.5 61t160 21.5q47 0 91 -5.5t80 -13t61.5 -15t35.5 -11.5l-42 -202 q-10 3 -33.5 9t-55 12t-68.5 10.5t-73 4.5q-50 0 -75.5 -14.5t-33.5 -36.5q-8 -20 -2 -44q3 -17 12 -33.5t25 -34.5t40.5 -40.5t58.5 -51.5q52 -45 89.5 -83.5t61.5 -74.5t35.5 -71.5t11.5 -74.5q0 -68 -22 -122t-67 -92.5t-114.5 -59t-163.5 -20.5q-55 0 -103.5 5.5t-88 14 t-69.5 18.5t-48 19zM392 -92q9 -8 20.5 -23.5t22 -36.5t17.5 -47t7 -55q0 -64 -29 -113t-79.5 -83.5t-118 -55t-145.5 -27.5l-22 127q26 5 53 14.5t49 25t37 36.5t18 50q2 14 1 28.5t-4 28.5q-6 32 -19.5 54t-21.5 30z" />
<glyph unicode="&#x21a;" horiz-adv-x="1018" d="M170 1330h963l-35 -221h-348l-175 -1109h-267l176 1109h-349zM506 -92q9 -8 21 -23.5t22.5 -36.5t17.5 -47t7 -55q0 -64 -29 -113t-79.5 -83.5t-118.5 -55t-145 -27.5l-23 127q27 5 53.5 14.5t48.5 25t37.5 36.5t18.5 50q3 31 -4 57q-6 32 -19 54t-21 30z" />
<glyph unicode="&#x21b;" horiz-adv-x="741" d="M512 1024h257l-32 -199h-253l-82 -520q-4 -28 -3 -42q-2 -35 10.5 -50t41.5 -15q18 0 46 5.5t58.5 14.5t60 19.5t51.5 19.5l31 -189q-23 -13 -58.5 -28.5t-79 -28.5t-92 -22t-98.5 -9q-67 0 -117 16t-81 52t-41.5 93.5t2.5 139.5l87 544h-144l29 181l160 10l56 235 l230 19zM409 -92q9 -8 21 -23.5t22.5 -36.5t17.5 -47t7 -55q0 -64 -29 -113t-79.5 -83.5t-118.5 -55t-145 -27.5l-23 127q27 5 53.5 14.5t48.5 25t37.5 36.5t18.5 50q3 31 -4 57q-6 32 -19 54t-21 30z" />
<glyph unicode="&#x237;" horiz-adv-x="518" d="M230 1024h263l-168 -1071q-16 -104 -49 -174.5t-81.5 -113.5t-112.5 -62t-142 -19q-38 0 -70 5t-57.5 12t-43 14.5t-24.5 11.5l51 188q17 -6 51.5 -14t73.5 -8q33 0 55.5 8t38.5 26t26 47.5t17 73.5z" />
<glyph unicode="&#x2bc;" horiz-adv-x="399" d="M142 1016q13 21 29 52.5t29.5 69.5t23 80t9.5 83q0 53 -10 97t-20 65l224 50q11 -20 22.5 -62t11.5 -105q0 -68 -20.5 -127.5t-50 -108t-62 -84t-57.5 -54.5z" />
<glyph unicode="&#x2c6;" horiz-adv-x="846" d="M733 1150q-21 19 -45.5 41.5t-48.5 46.5t-46.5 47t-40.5 43q-24 -20 -54 -43t-61.5 -47t-63.5 -46.5t-59 -41.5l-107 159q37 22 82.5 51t95.5 61t101.5 66t100.5 67q39 -33 80 -67t80 -66t75.5 -60.5t66.5 -50.5z" />
<glyph unicode="&#x2c7;" horiz-adv-x="799" d="M338 1567q25 -18 52.5 -42t53 -50t48 -52t39.5 -49q23 23 53.5 49t64.5 52t68.5 50t66.5 42l87 -170q-50 -27 -101 -57.5t-100 -63.5t-94 -68t-83 -70q-26 35 -60 70t-73 68t-80.5 63.5t-82.5 57.5z" />
<glyph unicode="&#x2d8;" horiz-adv-x="717" d="M423 1502q-8 -33 -9.5 -62.5t5.5 -51.5t23.5 -35t44.5 -13t48 13t34 35t22 51.5t11 62.5h187q-3 -92 -34 -156t-78 -104t-104.5 -57.5t-112.5 -17.5t-106.5 17.5t-86.5 57.5t-46 104t15 156h187z" />
<glyph unicode="&#x2d9;" horiz-adv-x="468" d="M197 1320q0 43 14 77t39.5 57.5t59.5 35.5t75 12q58 0 91.5 -32.5t33.5 -90.5q0 -44 -14 -78t-39 -57.5t-59.5 -35.5t-74.5 -12q-58 0 -92 32.5t-34 91.5z" />
<glyph unicode="&#x2da;" horiz-adv-x="564" d="M333 1337q0 -29 18 -47t47 -18q40 0 66.5 25.5t26.5 66.5q0 29 -18 46.5t-47 17.5q-39 0 -66 -25t-27 -66zM167 1309q0 62 22 111.5t61 84t92 53t115 18.5q45 0 81.5 -13t63 -37t41 -58t14.5 -76q0 -63 -22 -112.5t-61 -84t-92 -53t-115 -18.5q-44 0 -81 13t-63.5 37 t-41 58t-14.5 77z" />
<glyph unicode="&#x2db;" horiz-adv-x="536" d="M443 0q-26 -19 -51.5 -42.5t-45.5 -49.5t-32.5 -55t-12.5 -60q0 -38 20 -57t53 -19q18 0 36 3.5t34.5 9t30.5 11t23 9.5l18 -161q-12 -8 -33.5 -18.5t-49.5 -19.5t-60.5 -15t-66.5 -6q-46 0 -88 11t-74.5 34.5t-51.5 60.5t-19 90q0 54 24.5 101.5t58.5 85.5t70.5 66 t60.5 42z" />
<glyph unicode="&#x2dc;" horiz-adv-x="792" d="M167 1302q18 33 43.5 67t59.5 61.5t75.5 45.5t89.5 18q34 0 63.5 -11.5t56 -25t50.5 -25t46 -11.5q32 0 58.5 22.5t61.5 56.5l114 -97q-20 -37 -47.5 -71.5t-62.5 -61t-77 -42.5t-91 -16q-30 0 -57.5 11.5t-53 25t-49.5 25t-47 11.5q-32 0 -58.5 -22.5t-60.5 -56.5z" />
<glyph unicode="&#x2dd;" horiz-adv-x="894" d="M544 1227l285 373l167 -124l-334 -335zM207 1217l289 376l168 -124l-338 -338z" />
<glyph unicode="&#x301;" horiz-adv-x="529" d="M170 1562l385 208l68 -180l-412 -134z" />
<glyph unicode="&#x307;" horiz-adv-x="458" d="M107 663q0 43 14 77t39.5 57.5t59.5 35.5t75 12q58 0 91.5 -32.5t33.5 -90.5q0 -44 -14 -78t-39 -57.5t-59.5 -35.5t-74.5 -12q-58 0 -92 32.5t-34 91.5z" />
<glyph unicode="&#x30a;" horiz-adv-x="459" d="M147 1275q0 -17 10.5 -28.5t27.5 -11.5q25 0 40.5 15t15.5 41q0 17 -10.5 28t-27.5 11q-25 0 -40.5 -15t-15.5 -40zM9 1250q0 49 16 87.5t45.5 65.5t69.5 41t88 14q67 0 109 -38t42 -104q0 -50 -16 -88.5t-45.5 -65.5t-69.5 -41t-88 -14q-67 0 -109 38.5t-42 104.5z" />
<glyph unicode="&#x394;" horiz-adv-x="1334" d="M-40 0l29 182l688 1148h233l324 -1148l-29 -182h-1245zM281 218h671l-208 805z" />
<glyph unicode="&#x3a9;" horiz-adv-x="1595" d="M638 0h-548l32 206h246q-35 27 -66 68t-54 92.5t-36.5 112t-13.5 128.5q0 102 26 196.5t74 177t116 150.5t151.5 116.5t180.5 75.5t203 27q127 0 226.5 -41.5t168.5 -114t105 -172t36 -215.5q0 -110 -28.5 -203.5t-75 -169.5t-106 -133t-120.5 -95h248l-33 -206h-547 l29 184q66 29 128 84.5t109.5 132.5t76.5 172t29 204q0 84 -20.5 150.5t-58.5 113t-92 71.5t-121 25q-81 0 -156.5 -36.5t-134 -105.5t-93.5 -168.5t-35 -225.5q0 -78 14.5 -145.5t39.5 -120.5t58 -91.5t70 -59.5l1 -1z" />
<glyph unicode="&#x3bc;" horiz-adv-x="1094" d="M677 0q-12 38 -8.5 93t18.5 116q6 26 15 56.5t18.5 60.5t19 57.5t16.5 48.5q-38 -85 -82 -159.5t-92 -132.5t-100.5 -96t-106.5 -50q-37 -9 -75 -7l-5 -34q-16 -104 -47 -174.5t-76.5 -113.5t-105.5 -62t-134 -19q-35 0 -65.5 5t-54 12t-40 14.5t-22.5 11.5l51 188 q16 -6 47 -14t66 -8q33 0 55.5 8t38.5 26t26 47.5t17 73.5l132 825q14 94 18.5 154.5t1.5 96.5h247q4 -10 7 -31t4.5 -48t0.5 -58.5t-7 -62.5l-74 -468q-3 -22 -2 -36q-2 -35 9.5 -56t40.5 -21q34 0 84.5 40.5t102 119.5t96.5 196t69 271v-1l24 155h264l-123 -773 q-15 -94 -19 -154.5t-1 -96.5h-249z" />
<glyph unicode="&#x3c0;" horiz-adv-x="1460" d="M120 962q9 5 20.5 11t25.5 12q38 15 90 27t122 12h1062l-32 -199h-218q-20 -58 -38 -118t-32.5 -118.5t-24.5 -114t-14 -105.5q-2 -26 -0.5 -49.5t4.5 -43.5q5 -44 28 -64t68 -20q31 0 61 7.5t43 12.5l1 -193q-29 -14 -83 -26.5t-122 -12.5q-56 0 -102.5 13.5t-82 41.5 t-57 70t-27.5 98q-7 50 -4 111q4 67 17 135t31 133t38.5 126.5t40.5 116.5h-307l-28 -179q-18 -114 -48 -217.5t-60 -188.5t-53.5 -147t-28.5 -93h-259q5 31 29 95t54 150.5t60 190t47 214.5l28 175h-29q-74 0 -120 -11t-75 -23z" />
<glyph unicode="&#xe3f;" horiz-adv-x="1077" d="M775 1492l-55 -234q151 -11 234 -77t83 -188q0 -51 -15.5 -94.5t-42 -79t-60 -63t-69.5 -46.5q34 -14 64.5 -37.5t52.5 -55.5t35 -71t13 -83q0 -83 -33.5 -152.5t-95 -120.5t-149 -82t-195.5 -36l-19 -234h-219l54 233h-268l188 1189h260l19 232h218zM417 587l-52 -323 h149q101 0 160.5 45t59.5 132q0 65 -41 105.5t-127 40.5h-149zM446 772h221q37 23 62 57.5t33 76.5q9 33 4 67q-15 94 -145 94h-128z" />
<glyph unicode="&#x1e80;" horiz-adv-x="1707" d="M1839 1330l-536 -1330h-308l-83 818l-342 -818h-306l-117 1330h291l56 -977q96 238 192.5 478t191.5 479h224l81 -957l364 977h292zM1219 1472l-494 159l135 225l438 -252z" />
<glyph unicode="&#x1e81;" horiz-adv-x="1424" d="M1394 1044q14 -31 23.5 -79t9.5 -107q0 -131 -40.5 -257t-109 -237.5t-158.5 -204.5t-189 -159h-200l-34 313q-57 -95 -127.5 -173.5t-147.5 -139.5h-220l-55 813q-2 32 -6.5 64t-9.5 60.5t-10.5 51t-9.5 35.5h248q12 -32 19.5 -77.5t10.5 -99.5l37 -611q112 115 172 256 t67 301q-5 75 -14.5 127t-19.5 84l253 20q14 -31 23.5 -79t9.5 -107q0 -94 -26 -187q1 -11 1.5 -21.5t1.5 -21.5l35 -372q59 62 104.5 134t76 149.5t46 159t15.5 162.5q0 53 -6.5 100t-18.5 83zM989 1166l-495 159l136 225l437 -252z" />
<glyph unicode="&#x1e82;" horiz-adv-x="1707" d="M1839 1330l-536 -1330h-308l-83 818l-342 -818h-306l-117 1330h291l56 -977q96 238 192.5 478t191.5 479h224l81 -957l364 977h292zM789 1598l512 258l72 -225l-541 -161z" />
<glyph unicode="&#x1e83;" horiz-adv-x="1424" d="M1394 1044q14 -31 23.5 -79t9.5 -107q0 -131 -40.5 -257t-109 -237.5t-158.5 -204.5t-189 -159h-200l-34 313q-57 -95 -127.5 -173.5t-147.5 -139.5h-220l-55 813q-2 32 -6.5 64t-9.5 60.5t-10.5 51t-9.5 35.5h248q12 -32 19.5 -77.5t10.5 -99.5l37 -611q112 115 172 256 t67 301q-5 75 -14.5 127t-19.5 84l253 20q14 -31 23.5 -79t9.5 -107q0 -94 -26 -187q1 -11 1.5 -21.5t1.5 -21.5l35 -372q59 62 104.5 134t76 149.5t46 159t15.5 162.5q0 53 -6.5 100t-18.5 83zM569 1295l512 257l71 -225l-540 -161z" />
<glyph unicode="&#x1e84;" horiz-adv-x="1707" d="M1839 1330l-536 -1330h-308l-83 818l-342 -818h-306l-117 1330h291l56 -977q96 238 192.5 478t191.5 479h224l81 -957l364 977h292zM674 1626q0 43 14 77t39.5 57.5t59.5 35.5t75 12q57 0 91 -32.5t34 -90.5q0 -44 -14 -78t-39.5 -57.5t-60 -35.5t-74.5 -12 q-57 0 -91 32.5t-34 91.5zM1104 1626q0 43 14 77t39 57.5t59.5 35.5t75.5 12q57 0 91 -32.5t34 -90.5q0 -44 -14 -78t-39.5 -57.5t-60 -35.5t-74.5 -12q-57 0 -91 32.5t-34 91.5z" />
<glyph unicode="&#x1e85;" horiz-adv-x="1424" d="M1394 1044q14 -31 23.5 -79t9.5 -107q0 -131 -40.5 -257t-109 -237.5t-158.5 -204.5t-189 -159h-200l-34 313q-57 -95 -127.5 -173.5t-147.5 -139.5h-220l-55 813q-2 32 -6.5 64t-9.5 60.5t-10.5 51t-9.5 35.5h248q12 -32 19.5 -77.5t10.5 -99.5l37 -611q112 115 172 256 t67 301q-5 75 -14.5 127t-19.5 84l253 20q14 -31 23.5 -79t9.5 -107q0 -94 -26 -187q1 -11 1.5 -21.5t1.5 -21.5l35 -372q59 62 104.5 134t76 149.5t46 159t15.5 162.5q0 53 -6.5 100t-18.5 83zM471 1320q0 43 14 77t39.5 57.5t59.5 35.5t75 12q57 0 91 -32.5t34 -90.5 q0 -44 -14 -78t-39.5 -57.5t-60 -35.5t-74.5 -12q-57 0 -91 32.5t-34 91.5zM901 1320q0 43 14 77t39.5 57.5t59.5 35.5t75 12q57 0 91 -32.5t34 -90.5q0 -44 -14 -78t-39.5 -57.5t-60 -35.5t-74.5 -12q-57 0 -91 32.5t-34 91.5z" />
<glyph unicode="&#x1e9e;" horiz-adv-x="1229" d="M518 217q20 -8 65 -19t108 -11q40 0 76.5 15.5t63.5 43.5t43 66.5t16 85.5q0 74 -46 117t-143 47q-24 2 -53.5 0.5t-62.5 -6.5l10 107l317 436h-204q-101 0 -163.5 -60t-79.5 -164l-139 -875h-267l141 885q13 91 55 172t112 141.5t168.5 96t225.5 35.5h482l-28 -177 l-323 -433q52 -5 100.5 -26.5t85.5 -58.5t59 -90t22 -122q0 -103 -35.5 -185t-99 -139.5t-152.5 -88t-195 -30.5q-81 0 -140.5 14t-88.5 31z" />
<glyph unicode="&#x1ef2;" horiz-adv-x="1043" d="M391 501h1l-280 829h278l173 -565l354 565h283l-543 -829h1l-80 -501h-267zM842 1466l-494 159l135 225l438 -252z" />
<glyph unicode="&#x1ef3;" horiz-adv-x="941" d="M203 229q-6 103 -13.5 199.5t-15.5 182t-16.5 158t-15.5 126.5t-13 87.5t-9 41.5h248q10 -33 34 -224.5t42 -543.5q2 -29 1.5 -54.5t-2.5 -48.5q15 24 28.5 48.5t26.5 49.5q43 72 78.5 150.5t60.5 159.5t38.5 161.5t13.5 157.5q0 38 -4 75t-15 69l251 20 q10 -26 18.5 -70.5t8.5 -96.5q0 -87 -23.5 -183.5t-65.5 -198t-100 -205.5t-128 -204.5t-149.5 -196t-163.5 -180.5q-57 -64 -132.5 -94.5t-166.5 -30.5q-70 0 -118 18t-71 34l71 184q18 -10 53.5 -18.5t69.5 -8.5q49 0 86 18.5t60 67t31.5 133.5t1.5 217zM731 1166 l-494 159l135 225l438 -252z" />
<glyph unicode="&#x2013;" horiz-adv-x="1311" d="M231 638h985l-33 -211h-986z" />
<glyph unicode="&#x2014;" horiz-adv-x="1996" d="M231 638h1670l-34 -211h-1670z" />
<glyph unicode="&#x2018;" horiz-adv-x="484" d="M567 1398q-30 -17 -59.5 -38t-53.5 -49t-40 -62t-18 -76q-2 -36 4.5 -66t17.5 -54.5t24.5 -43t24.5 -31.5l-221 -59q-12 11 -26 30.5t-25.5 46t-19.5 60t-8 71.5q0 70 25 128t68 104.5t99.5 82.5t119.5 63z" />
<glyph unicode="&#x2019;" horiz-adv-x="484" d="M137 1033q30 17 60 38.5t54 49.5t39.5 62t17.5 76q2 36 -4.5 66t-17.5 54.5t-24.5 43t-24.5 31.5l222 59q12 -11 25.5 -30.5t25.5 -46t19.5 -60t7.5 -71.5q0 -70 -25 -128t-68 -104.5t-99.5 -82.5t-119.5 -63z" />
<glyph unicode="&#x201a;" horiz-adv-x="484" d="M-53 -191q30 17 60 38.5t54 49t39.5 62t17.5 76.5q2 35 -4.5 65t-17.5 55t-24.5 43.5t-24.5 31.5l222 59q12 -11 25.5 -30.5t25.5 -46.5t19.5 -60t7.5 -71q0 -70 -25 -128t-68 -104.5t-99.5 -82.5t-119.5 -63z" />
<glyph unicode="&#x201c;" horiz-adv-x="797" d="M563 1393q-31 -18 -61 -40t-54 -49.5t-39.5 -62t-18.5 -76.5q-2 -35 4.5 -65t17.5 -54.5t24.5 -44t25.5 -32.5l-211 -58q-12 11 -25.5 30.5t-25.5 46.5t-19.5 60t-7.5 71q0 70 25 128t68 104.5t99.5 82.5t119.5 63zM949 1404q-31 -18 -61 -39.5t-54 -49t-39.5 -61.5 t-17.5 -76q-2 -36 4.5 -66t17.5 -54.5t24.5 -44t25.5 -32.5l-211 -57q-12 11 -25.5 30.5t-25.5 46t-19.5 60t-7.5 71.5q0 70 25 127t67.5 103.5t98.5 82.5t119 63z" />
<glyph unicode="&#x201d;" horiz-adv-x="861" d="M523 1024q31 18 61 39.5t54 49.5t40 62.5t18 76.5q3 35 -3.5 65t-17.5 54.5t-24.5 43.5t-25.5 33l210 58q12 -11 26 -30.5t25.5 -46.5t19.5 -60t8 -71q0 -70 -25.5 -128t-68 -104.5t-99 -82.5t-119.5 -63zM137 1013q31 18 61 39.5t54 49t39.5 61.5t17.5 76q2 36 -4.5 66 t-17.5 54.5t-24 43.5t-25 33l210 57q12 -11 26 -30.5t25.5 -46t19.5 -60t8 -71.5q0 -70 -25 -127t-67.5 -103.5t-98.5 -82.5t-119 -63z" />
<glyph unicode="&#x201e;" horiz-adv-x="861" d="M333 -180q31 18 61 39.5t54 49.5t40 62.5t18 76.5q3 35 -3.5 65t-17.5 54.5t-24.5 43.5t-25.5 33l210 58q12 -11 26 -31t25.5 -46.5t19.5 -60t8 -71.5q0 -70 -25.5 -128t-68 -104.5t-99 -82t-119.5 -62.5zM-53 -191q31 18 61 39.5t54 49t39.5 61.5t17.5 76q2 35 -4.5 65 t-17.5 55t-24 44t-25 32l210 58q12 -11 26 -30.5t25.5 -46.5t19.5 -60t8 -71q0 -70 -25 -127.5t-67.5 -104t-98.5 -82t-119 -62.5z" />
<glyph unicode="&#x2020;" horiz-adv-x="1394" d="M986 1593l-93 -517l383 12l-36 -235l-384 12l-213 -1189h-212l163 1189l-387 -12l37 235l378 -12l71 517h293z" />
<glyph unicode="&#x2021;" horiz-adv-x="1518" d="M1079 1601l-79 -422l380 12l-37 -234l-384 12l-62 -331l-42 -319l389 12l-37 -234l-377 12l-56 -433h-288l82 433l-381 -12l37 234l384 -12l60 318l43 332l-387 -12l37 234l376 -12l54 422h288z" />
<glyph unicode="&#x2022;" horiz-adv-x="655" d="M47 639q0 70 23 125.5t64 93.5t97 58t122 20q94 0 149.5 -53.5t55.5 -147.5q0 -72 -23 -127.5t-64.5 -93.5t-97.5 -57.5t-122 -19.5q-94 0 -149 53t-55 149z" />
<glyph unicode="&#x2026;" horiz-adv-x="1537" d="M57 103q0 44 14 78t39.5 57.5t59.5 35.5t75 12q58 0 91.5 -32.5t33.5 -90.5q0 -44 -14 -78t-39 -57.5t-59.5 -35.5t-74.5 -12q-58 0 -92 32.5t-34 90.5zM556 103q0 44 14 78t39.5 57.5t59.5 35.5t75 12q57 0 91 -32.5t34 -90.5q0 -44 -14 -78t-39.5 -57.5t-60 -35.5 t-74.5 -12q-57 0 -91 32.5t-34 90.5zM1054 103q0 44 14 78t39.5 57.5t59.5 35.5t75 12q58 0 91.5 -32.5t33.5 -90.5q0 -44 -14 -78t-39 -57.5t-59.5 -35.5t-74.5 -12q-58 0 -92 32.5t-34 90.5z" />
<glyph unicode="&#x2030;" horiz-adv-x="1875" d="M1078 -20q-59 0 -105.5 20t-79 54.5t-50 82t-17.5 102.5q0 79 27 145t75 114t114.5 74.5t144.5 26.5q56 0 97.5 -23t70.5 -61q43 40 98 62t120 22q59 0 105.5 -20t79 -54.5t50 -82.5t17.5 -103q0 -79 -27 -145t-75 -113.5t-114 -74t-144 -26.5q-56 0 -98.5 22.5 t-71.5 60.5q-42 -40 -97 -61.5t-120 -21.5zM414 731q-59 0 -105.5 20t-79 54.5t-50 82t-17.5 102.5q0 79 27 145t75 114t114.5 74.5t144.5 26.5q58 0 105 -20t79 -54.5t49.5 -82.5t17.5 -103q0 -79 -27 -145t-75 -113.5t-114 -74t-144 -26.5zM1455 1247l-1189 -1267 l-126 103l1188 1268zM1113 145q26 0 48 13.5t38 37t25 55t9 67.5q0 49 -19.5 82.5t-63.5 33.5q-26 0 -48 -13.5t-38 -37.5t-24.5 -55.5t-8.5 -67.5q0 -48 19.5 -81.5t62.5 -33.5zM1500 145q26 0 48 13.5t38 37t25 55t9 67.5q0 49 -19.5 82.5t-63.5 33.5q-26 0 -48 -13.5 t-38 -37.5t-24.5 -55.5t-8.5 -67.5q0 -48 19.5 -81.5t62.5 -33.5zM449 896q26 0 48 13.5t38 37t25 55t9 67.5q0 49 -19.5 82.5t-63.5 33.5q-26 0 -48 -13.5t-38 -37.5t-24.5 -55.5t-8.5 -67.5q0 -48 19.5 -81.5t62.5 -33.5z" />
<glyph unicode="&#x2039;" horiz-adv-x="802" d="M774 872q-35 -43 -77.5 -89t-89 -92t-96 -91t-98.5 -87q36 -42 71 -87t67.5 -91t60.5 -92t49 -89l-206 -136q-36 65 -77 132t-83.5 131.5t-85 124t-82.5 107.5q55 49 116.5 108t124.5 123.5t125 132t119 132.5z" />
<glyph unicode="&#x203a;" horiz-adv-x="822" d="M67 150q35 43 77.5 89t89.5 92t96.5 91t98.5 87q-72 85 -138.5 178.5t-109.5 180.5l206 137q36 -65 77 -132.5t83.5 -132t85 -123.5t81.5 -108q-55 -49 -116.5 -108t-124.5 -123t-125 -131.5t-119 -132.5z" />
<glyph unicode="&#x203d;" horiz-adv-x="786" d="M418 986l-31 -170q39 32 71 59t55 52t35.5 49.5t12.5 51.5q0 54 -40.5 81t-132.5 27q-32 0 -64.5 -3t-60.5 -6.5t-50 -8t-34 -7.5l16 206q13 4 39.5 9.5t62 10.5t78 9t89.5 4q90 0 159.5 -19.5t117 -54.5t71.5 -82.5t24 -103.5q0 -75 -26.5 -132.5t-69.5 -106t-99 -92 t-114 -89.5q-38 -30 -64 -58t-42 -57.5t-23 -61t-7 -69.5l-199 -17q-13 66 -3 125t46 119l45 335h138zM110 103q0 44 14 78t39.5 57.5t59.5 35.5t75 12q57 0 91 -32.5t34 -90.5q0 -44 -14 -78t-39.5 -57.5t-60 -35.5t-74.5 -12q-57 0 -91 32.5t-34 90.5z" />
<glyph unicode="&#x2044;" horiz-adv-x="1102" d="M1235 1247l-1189 -1267l-126 103l1188 1268z" />
<glyph unicode="&#x2070;" horiz-adv-x="646" d="M415 731q-59 0 -105.5 20t-79 54.5t-50 82t-17.5 102.5q0 79 27 145t75 114t114.5 74.5t144.5 26.5q58 0 105 -20t79 -54.5t49.5 -82.5t17.5 -103q0 -79 -27 -145t-75 -113.5t-114 -74t-144 -26.5zM450 896q26 0 48 13.5t38 37t25 55t9 67.5q0 49 -19.5 82.5t-63.5 33.5 q-26 0 -48 -13.5t-38 -37.5t-24.5 -55.5t-8.5 -67.5q0 -48 19.5 -81.5t62.5 -33.5z" />
<glyph unicode="&#x2074;" horiz-adv-x="576" d="M633 1161l-28 -170h89l-20 -132h-85l-17 -108h-169l16 108h-288l21 129l217 362l174 -20l-208 -339h108l28 170h162z" />
<glyph unicode="&#x20a3;" horiz-adv-x="1039" d="M1034 1109h-502l-54 -341h447l-34 -214h-447l-31 -193h259l-21 -132h-259l-36 -229h-266l36 229h-146l21 132h146l154 969h768z" />
<glyph unicode="&#x20a4;" horiz-adv-x="1105" d="M60 155q12 7 29.5 14.5t36.5 14.5t39 13t37 10q28 66 45 132.5t26 125.5h-159l21 138h713l-21 -138h-293q-11 -59 -30.5 -123.5t-45.5 -126.5q57 -6 111 -15.5t110 -10.5q36 -1 62 8t46 26t35.5 42t29.5 57l166 -49q-37 -151 -129.5 -222t-229.5 -71q-47 0 -91 6 t-87.5 13t-88.5 13.5t-94 7.5l-7 -5.5t-18 -13.5t-24.5 -16.5t-28.5 -14.5l-140 29zM161 867h131q10 114 47 203.5t100.5 151.5t153 95t204.5 33q51 0 94 -8t77.5 -20t60 -25.5t41.5 -23.5l-85 -193q-10 5 -32 13.5t-51 17t-64.5 15t-72.5 6.5q-53 0 -90 -17.5t-61.5 -51 t-38 -83t-17.5 -113.5h317l-22 -138h-714z" />
<glyph unicode="&#x20a9;" horiz-adv-x="2045" d="M107 946h216l-34 384h285l18 -384h287l150 364h215l34 -364h287l139 384h287l-156 -384h230l-17 -112h-258l-52 -126h210l-18 -112h-237l-240 -596h-309l-82 839l-349 -839h-309l-51 596h-231l18 112h203l-11 126h-242zM596 834q2 -32 3 -63t2 -63h181l52 126h-238z M1300 708h180l45 126h-237zM620 329l24 43l46 112l46 112h-130zM1335 329l33 64q18 51 36 101.5t36 101.5h-130z" />
<glyph unicode="&#x20ac;" horiz-adv-x="1331" d="M153 602h836l-22 -137h-406q21 -111 87 -177.5t173 -77.5q22 -3 45.5 -4.5t47.5 0.5q60 4 117 17.5t121 39.5l35 -197q-34 -19 -76.5 -35t-89 -27t-95 -17.5t-96.5 -6.5q-128 0 -229.5 33.5t-173.5 96t-113.5 152.5t-49.5 203h-133zM195 866h131q43 111 113 200.5 t161.5 152.5t202.5 97t237 34q43 0 86.5 -5.5t84 -16t76.5 -25t64 -32.5l-92 -198q-44 18 -92.5 31.5t-103.5 17.5q-47 4 -98 -2q-119 -12 -207.5 -78t-140.5 -176h414l-22 -137h-836z" />
<glyph unicode="&#x20b1;" horiz-adv-x="1291" d="M163 1034h141l47 296h406q183 0 286 -74.5t118 -221.5h190l-14 -93h-175q-1 -22 -3.5 -42t-6.5 -40h172l-15 -93h-187q-30 -71 -79 -125.5t-112.5 -92t-140 -56.5t-160.5 -19h-148l-75 -473h-267l121 766h-141l15 93h141l13 82h-141zM872 859q8 29 8 59l2 23h-326 l-13 -82h329zM649 680q61 0 107 22.5t75 63.5h-303l-14 -86h135zM570 1034h295q-20 45 -59 62.5t-100 17.5h-123z" />
<glyph unicode="&#x20b9;" horiz-adv-x="1039" d="M198 973h373q-7 72 -60 111.5t-148 39.5h-143q8 51 16 102.5t17 103.5h856l-20 -119h-337q33 -32 57 -78.5t32 -108.5q4 -11 6.5 -24t1.5 -27h167l-19 -119h-166q-23 -71 -66.5 -126.5t-99 -95.5t-117.5 -65.5t-121 -37.5l370 -529h-330l-347 521l29 183q71 -1 135.5 2.5 t118 18.5t92.5 45.5t60 83.5h-376z" />
<glyph unicode="&#x20ba;" horiz-adv-x="1069" d="M97 750l222 131l71 449h266l-44 -279l231 138l50 -105l-304 -181l-17 -105l225 135l48 -106l-296 -176l-68 -426q55 5 103.5 29.5t85.5 63.5t61.5 90.5t31.5 110.5l256 22q-15 -115 -68.5 -213.5t-135 -171t-186 -114t-221.5 -42.5h-229l77 481l-158 -93l-48 106l229 134 l16 106l-150 -89z" />
<glyph unicode="&#x2113;" horiz-adv-x="840" d="M377 425q-2 -15 -5 -30.5t-5 -30.5q-2 -14 -2.5 -25.5t1.5 -20.5q-5 -69 30.5 -97t97.5 -28q32 0 63 6t58 14.5t48.5 17.5t34.5 14l25 -182q-15 -11 -44 -25t-68.5 -27t-87 -22t-99.5 -9q-82 0 -147.5 20t-108 63t-59.5 110.5t-2 161.5l101 640q14 86 46.5 155.5t83 118 t117 75t148.5 26.5q112 0 181.5 -56t86.5 -156q9 -48 6 -102q-6 -99 -54 -184t-118 -155.5t-152.5 -126t-157.5 -95.5zM420 702q41 28 79 64.5t67.5 81.5t47.5 99.5t18 119.5q0 42 -14 64.5t-41 22.5q-85 0 -112 -171z" />
<glyph unicode="&#x2122;" horiz-adv-x="816" d="M461 1350h154l14 -193l75 193h155l-52 -326h-101l31 198l-88 -198h-83l-26 198l-31 -198h-100zM181 1350h252l-14 -83h-75l-39 -243h-100l39 243h-77z" />
<glyph unicode="&#x212e;" horiz-adv-x="1829" d="M443 632q-10 0 -10 -10v-351q0 -24 17 -44q87 -90 208 -132.5t258 -42.5q149 0 274.5 49.5t216.5 145.5h110q-51 -60 -115.5 -109t-141 -84t-163.5 -54.5t-183 -19.5q-161 0 -299.5 53.5t-241 146t-161 217t-58.5 267.5q0 95 27.5 182.5t77 164t119 139t154 107t181 69 t201.5 24.5t202.5 -25t182 -71t154 -110t119 -141t77 -165.5t27.5 -183.5v-22h-1233zM1396 1061q0 26 -19 44q-87 87 -206.5 130t-254.5 43q-138 0 -257 -42.5t-207 -130.5q-19 -19 -19 -48v-346q0 -12 10 -12h945q8 0 8 12v350z" />
<glyph unicode="&#x2190;" horiz-adv-x="1859" d="M1712 560h-1161l342 -407l-167 -144l-552 656l760 656l122 -145l-471 -405h1161z" />
<glyph unicode="&#x2191;" horiz-adv-x="1599" d="M588 -226l177 1123l-470 -408l-121 145l759 656l552 -656l-168 -145l-341 406l-177 -1121h-211z" />
<glyph unicode="&#x2192;" horiz-adv-x="1858" d="M207 771h1159l-341 405l168 145l552 -656l-760 -656l-121 144l471 407h-1161z" />
<glyph unicode="&#x2193;" horiz-adv-x="1599" d="M1071 1290l-178 -1122l470 407l122 -145l-760 -656l-551 656l167 145l341 -407l179 1122h210z" />
<glyph unicode="&#x2196;" horiz-adv-x="1486" d="M244 387l147 928h927l-33 -204h-574l662 -785l-173 -149l-661 785l-91 -575h-204z" />
<glyph unicode="&#x2197;" horiz-adv-x="1653" d="M174 326l909 785h-573l33 204h927l-147 -928h-204l90 575l-909 -785z" />
<glyph unicode="&#x2198;" horiz-adv-x="1487" d="M346 1113l661 -785l92 575h204l-147 -928h-927l32 204h573l-660 785z" />
<glyph unicode="&#x2199;" horiz-adv-x="1653" d="M595 903l-92 -575l911 785l125 -149l-909 -785h573l-32 -204h-927l147 928h204z" />
<glyph unicode="&#x2202;" horiz-adv-x="1263" d="M647 1135q-41 0 -82 -6.5t-76.5 -15.5t-63 -18.5t-42.5 -15.5l-37 184q12 7 45 21.5t80 29t105 25.5t120 11q132 0 223 -41t147.5 -111.5t81.5 -163.5t25 -198q0 -96 -16.5 -196.5t-52 -195.5t-91.5 -179.5t-134.5 -147.5t-180.5 -100t-231 -37q-86 0 -159 21t-126 62 t-82.5 102.5t-29.5 142.5q0 112 45 211t125.5 172.5t191.5 116.5t244 43q80 0 137.5 -20t89.5 -44q9 79 -2 143.5t-42.5 110t-84 70t-127.5 24.5zM498 181q63 0 118 26.5t100 76.5t80.5 121.5t59.5 160.5q-12 16 -33 31t-48.5 27t-60.5 19t-69 7q-63 0 -117 -25t-94 -68 t-63 -100.5t-23 -122.5q0 -69 37.5 -111t112.5 -42z" />
<glyph unicode="&#x220f;" horiz-adv-x="1438" d="M1117 1267h-605l-226 -1422h-266l260 1640h1138l-260 -1640h-266z" />
<glyph unicode="&#x2211;" horiz-adv-x="1171" d="M1166 1267h-686q73 -151 146.5 -301.5t146.5 -300.5l-490 -603h699l-35 -217h-987l32 200l499 620l-296 619l32 200h974z" />
<glyph unicode="&#x2212;" horiz-adv-x="1164" d="M228 770h771l-34 -211h-770z" />
<glyph unicode="&#x2215;" horiz-adv-x="1102" d="M1235 1247l-1189 -1267l-126 103l1188 1268z" />
<glyph unicode="&#x2219;" horiz-adv-x="499" d="M99 488q0 39 15.5 71.5t41 55t59 35t69.5 12.5q61 0 93.5 -36.5t32.5 -95.5q0 -40 -16 -72.5t-42.5 -55t-60 -35t-68.5 -12.5q-62 0 -93 35.5t-31 97.5z" />
<glyph unicode="&#x221a;" horiz-adv-x="1457" d="M94 888h449q6 -26 12.5 -50t12.5 -50l108 -439l607 1136h274l-817 -1485h-228l-186 672h-266z" />
<glyph unicode="&#x221e;" horiz-adv-x="1800" d="M1224 316q-62 0 -112 17t-91.5 45t-76 64.5t-65.5 75.5q-43 -39 -89 -75.5t-96.5 -64.5t-106 -45t-116.5 -17q-74 0 -134.5 20.5t-104.5 59t-68 94t-24 124.5q0 91 35 165t95 126t140.5 80t170.5 28q61 0 111.5 -17t92 -45t76.5 -64t65 -75q43 39 89 75t96.5 64t106 45 t116.5 17q73 0 134 -20.5t105 -58.5t68 -93.5t24 -124.5q0 -92 -35 -165.5t-95 -126t-140.5 -80.5t-170.5 -28zM1026 665q26 -35 52 -63.5t53 -49.5t55 -32.5t60 -11.5q37 0 71 13t59.5 36.5t40.5 57t15 74.5q0 62 -38.5 97t-98.5 35q-32 0 -64 -11.5t-65 -32.5t-68 -49.5 t-72 -62.5zM510 508q31 0 63.5 12t66.5 33t69 50t71 62q-26 33 -51.5 61.5t-53 49.5t-56.5 33t-60 12q-37 0 -70.5 -12.5t-59 -36t-41 -57t-15.5 -74.5q0 -62 38.5 -97.5t98.5 -35.5z" />
<glyph unicode="&#x222b;" horiz-adv-x="866" d="M358 1110q6 53 18 104q18 63 55.5 116.5t90 92.5t118 60.5t140.5 21.5q76 0 125 -13t81 -26l-74 -194q-20 8 -53.5 15.5t-75.5 7.5q-65 0 -109 -40t-52 -120l-85 -915q-4 -53 -18 -104q-18 -63 -55 -116.5t-90 -92.5t-118.5 -60.5t-140.5 -21.5q-76 0 -124.5 13t-80.5 25 l73 195q20 -8 53.5 -16t75.5 -8q65 0 108.5 40.5t51.5 120.5z" />
<glyph unicode="&#x2248;" horiz-adv-x="1156" d="M165 711q68 66 149.5 104t168.5 38q43 0 79 -10.5t69 -23t66 -23t71 -10.5q29 0 58 7t56 17.5t50 22.5t41 22l46 -138q-68 -64 -150.5 -101.5t-170.5 -37.5q-43 0 -79 10.5t-69.5 23t-67 23t-70.5 10.5q-29 0 -57.5 -7.5t-54.5 -19t-49 -24t-40 -22.5zM176 613 q28 30 61 56t69 44.5t75 29.5t80 11q38 0 72.5 -10.5t69 -23t70.5 -23t78 -10.5q29 0 57 6.5t53 16t47 21t39 21.5l62 -139q-60 -60 -137.5 -97t-165.5 -37q-43 0 -79.5 10.5t-71 23t-68.5 23t-71 10.5q-24 0 -49 -7.5t-48.5 -18.5t-44.5 -23.5t-36 -22.5z" />
<glyph unicode="&#x2260;" horiz-adv-x="1386" d="M308 945h542l210 272l105 -63l-161 -209h223l-33 -210h-355l-105 -138h438l-34 -211h-568l-211 -273l-105 63l162 210h-197l34 211h327l106 138h-411z" />
<glyph unicode="&#x2264;" horiz-adv-x="1061" d="M961 1159l-464 -323l361 -322l-158 -158l-536 480l688 481zM82 233h736l-32 -198h-736z" />
<glyph unicode="&#x2265;" horiz-adv-x="1055" d="M160 514l463 322l-361 323l159 158l534 -481l-687 -480zM112 233h736l-32 -198h-736z" />
<glyph unicode="&#x2460;" d="M762 495l54 338l-58.5 -4.5t-60.5 -4.5l7 134q19 1 55 4.5t75 7.5t74.5 8t55.5 7h54l-78 -491q27 -1 54.5 -1t54.5 -1l-22 -139h-414l22 139zM174 577q0 105 30.5 203t85 184t130 157t164.5 122t188.5 79t203.5 28q128 0 235.5 -46.5t185 -127t121 -189.5t43.5 -234 q0 -105 -30.5 -203t-85.5 -184t-130 -157t-164 -122t-189 -79t-203 -28q-128 0 -235.5 46.5t-185 127t-121 189.5t-43.5 234zM378 602q0 -88 30.5 -164.5t85 -133.5t130.5 -89.5t167 -32.5q73 0 143.5 20t133.5 55.5t116 86t91 111t59.5 130t21.5 143.5q0 88 -30.5 164.5 t-85.5 133.5t-130.5 89.5t-166.5 32.5q-73 0 -143.5 -20t-133 -55.5t-115.5 -86t-91.5 -111t-60 -130t-21.5 -143.5z" />
<glyph unicode="&#x2461;" d="M606 459q87 77 144 130.5t90.5 90t47.5 61.5t14 45q0 25 -15.5 39t-43.5 14q-35 0 -67 -11.5t-55 -22.5l-41 119q17 9 40 20t51 20t60 15t67 6q48 0 84.5 -12.5t61 -34t37 -50.5t12.5 -62q0 -41 -17 -77.5t-49 -75t-79.5 -81.5t-108.5 -97h224l-23 -142h-450zM174 577 q0 105 30.5 203t85 184t130 157t164.5 122t188.5 79t203.5 28q128 0 235.5 -46.5t185 -127t121 -189.5t43.5 -234q0 -105 -30.5 -203t-85.5 -184t-130 -157t-164 -122t-189 -79t-203 -28q-128 0 -235.5 46.5t-185 127t-121 189.5t-43.5 234zM378 602q0 -88 30.5 -164.5 t85 -133.5t130.5 -89.5t167 -32.5q73 0 143.5 20t133.5 55.5t116 86t91 111t59.5 130t21.5 143.5q0 88 -30.5 164.5t-85.5 133.5t-130.5 89.5t-166.5 32.5q-73 0 -143.5 -20t-133 -55.5t-115.5 -86t-91.5 -111t-60 -130t-21.5 -143.5z" />
<glyph unicode="&#x2462;" d="M923 792q0 21 -16 33.5t-47 12.5q-38 0 -72.5 -10t-52.5 -18l-37 120q16 9 40 19t51.5 18t57.5 13t59 5q51 0 88.5 -13.5t62 -35.5t36.5 -51t12 -60q0 -48 -27 -84.5t-65 -60.5q30 -18 48.5 -49.5t18.5 -71.5q0 -46 -20.5 -85t-58 -68t-91 -45.5t-120.5 -16.5 q-32 0 -60 5.5t-51.5 13.5t-41.5 17t-29 17l71 127q20 -10 55 -22t78 -12q40 0 65 15t25 47q0 26 -17.5 40.5t-52.5 14.5h-92l20 123h123q14 8 27 23.5t13 38.5zM174 577q0 105 30.5 203t85 184t130 157t164.5 122t188.5 79t203.5 28q128 0 235.5 -46.5t185 -127t121 -189.5 t43.5 -234q0 -105 -30.5 -203t-85.5 -184t-130 -157t-164 -122t-189 -79t-203 -28q-128 0 -235.5 46.5t-185 127t-121 189.5t-43.5 234zM378 602q0 -88 30.5 -164.5t85 -133.5t130.5 -89.5t167 -32.5q73 0 143.5 20t133.5 55.5t116 86t91 111t59.5 130t21.5 143.5 q0 88 -30.5 164.5t-85.5 133.5t-130.5 89.5t-166.5 32.5q-73 0 -143.5 -20t-133 -55.5t-115.5 -86t-91.5 -111t-60 -130t-21.5 -143.5z" />
<glyph unicode="&#x2463;" d="M898 975h152l-57 -358h97l-22 -135h-97l-19 -129h-169l20 129h-259l18 112zM832 618l20 123l-107 -123h87zM174 577q0 105 30.5 203t85 184t130 157t164.5 122t188.5 79t203.5 28q128 0 235.5 -46.5t185 -127t121 -189.5t43.5 -234q0 -105 -30.5 -203t-85.5 -184 t-130 -157t-164 -122t-189 -79t-203 -28q-128 0 -235.5 46.5t-185 127t-121 189.5t-43.5 234zM378 602q0 -88 30.5 -164.5t85 -133.5t130.5 -89.5t167 -32.5q73 0 143.5 20t133.5 55.5t116 86t91 111t59.5 130t21.5 143.5q0 88 -30.5 164.5t-85.5 133.5t-130.5 89.5 t-166.5 32.5q-73 0 -143.5 -20t-133 -55.5t-115.5 -86t-91.5 -111t-60 -130t-21.5 -143.5z" />
<glyph unicode="&#x2464;" d="M892 567q0 31 -21.5 47.5t-59.5 16.5q-59 0 -100 -4.5t-50 -6.5l69 355h379l-23 -142h-218l-15 -82h25t24 -2q92 -8 139 -57t33 -137q-8 -47 -33 -86t-63.5 -67t-90 -43t-111.5 -15q-35 0 -64 4.5t-51.5 11t-38 13.5t-22.5 12l61 130q26 -10 57.5 -17.5t72.5 -7.5 q42 0 71.5 19.5t29.5 57.5zM174 577q0 105 30.5 203t85 184t130 157t164.5 122t188.5 79t203.5 28q128 0 235.5 -46.5t185 -127t121 -189.5t43.5 -234q0 -105 -30.5 -203t-85.5 -184t-130 -157t-164 -122t-189 -79t-203 -28q-128 0 -235.5 46.5t-185 127t-121 189.5 t-43.5 234zM378 602q0 -88 30.5 -164.5t85 -133.5t130.5 -89.5t167 -32.5q73 0 143.5 20t133.5 55.5t116 86t91 111t59.5 130t21.5 143.5q0 88 -30.5 164.5t-85.5 133.5t-130.5 89.5t-166.5 32.5q-73 0 -143.5 -20t-133 -55.5t-115.5 -86t-91.5 -111t-60 -130t-21.5 -143.5z " />
<glyph unicode="&#x2465;" d="M928 839q-53 0 -88 -31.5t-48 -75.5q9 5 32 10.5t51 5.5q42 0 78.5 -9.5t63 -29t41.5 -49t15 -70.5q0 -53 -19 -98t-55 -78t-87 -51.5t-115 -18.5q-103 0 -153 60t-50 169q0 75 18 148.5t60 132t110.5 94.5t168.5 36q31 0 57.5 -4t46.5 -10t33.5 -11.5t18.5 -8.5 l-54 -133q-14 5 -46 13.5t-79 8.5zM825 490q36 0 54 25.5t18 57.5q0 29 -16.5 42.5t-40.5 13.5q-23 0 -40.5 -6.5t-28.5 -14.5q-8 -50 2.5 -84t51.5 -34zM174 577q0 105 30.5 203t85 184t130 157t164.5 122t188.5 79t203.5 28q128 0 235.5 -46.5t185 -127t121 -189.5 t43.5 -234q0 -105 -30.5 -203t-85.5 -184t-130 -157t-164 -122t-189 -79t-203 -28q-128 0 -235.5 46.5t-185 127t-121 189.5t-43.5 234zM378 602q0 -88 30.5 -164.5t85 -133.5t130.5 -89.5t167 -32.5q73 0 143.5 20t133.5 55.5t116 86t91 111t59.5 130t21.5 143.5 q0 88 -30.5 164.5t-85.5 133.5t-130.5 89.5t-166.5 32.5q-73 0 -143.5 -20t-133 -55.5t-115.5 -86t-91.5 -111t-60 -130t-21.5 -143.5z" />
<glyph unicode="&#x2466;" d="M1133 835l-279 -482h-185l281 480h-120l-18 -97h-142l29 239h456zM174 577q0 105 30.5 203t85 184t130 157t164.5 122t188.5 79t203.5 28q128 0 235.5 -46.5t185 -127t121 -189.5t43.5 -234q0 -105 -30.5 -203t-85.5 -184t-130 -157t-164 -122t-189 -79t-203 -28 q-128 0 -235.5 46.5t-185 127t-121 189.5t-43.5 234zM378 602q0 -88 30.5 -164.5t85 -133.5t130.5 -89.5t167 -32.5q73 0 143.5 20t133.5 55.5t116 86t91 111t59.5 130t21.5 143.5q0 88 -30.5 164.5t-85.5 133.5t-130.5 89.5t-166.5 32.5q-73 0 -143.5 -20t-133 -55.5 t-115.5 -86t-91.5 -111t-60 -130t-21.5 -143.5z" />
<glyph unicode="&#x2467;" d="M815 344q-42 0 -79.5 10.5t-65.5 31t-44 49.5t-16 67q0 30 10.5 56t28 47t38.5 37.5t42 27.5q-26 17 -46.5 44.5t-20.5 68.5q0 46 22 83.5t58.5 63.5t83.5 40.5t96 14.5q39 0 74.5 -11t63 -31.5t44 -49.5t16.5 -65q0 -28 -9 -51.5t-24 -42t-34.5 -33.5t-40.5 -25 q29 -20 51.5 -53t22.5 -74q0 -47 -23 -85t-60.5 -64.5t-86.5 -41t-101 -14.5zM830 785q0 -22 14 -38t35 -24q26 8 47 28.5t21 44.5q0 21 -13.5 34t-38.5 13q-27 0 -46 -17.5t-19 -40.5zM919 550q0 13 -5.5 25t-13.5 22t-18.5 18t-20.5 12q-14 -5 -28.5 -14.5t-26 -21.5 t-19 -25.5t-7.5 -27.5q0 -23 17.5 -37.5t46.5 -14.5t52 18.5t23 45.5zM174 577q0 105 30.5 203t85 184t130 157t164.5 122t188.5 79t203.5 28q128 0 235.5 -46.5t185 -127t121 -189.5t43.5 -234q0 -105 -30.5 -203t-85.5 -184t-130 -157t-164 -122t-189 -79t-203 -28 q-128 0 -235.5 46.5t-185 127t-121 189.5t-43.5 234zM378 602q0 -88 30.5 -164.5t85 -133.5t130.5 -89.5t167 -32.5q73 0 143.5 20t133.5 55.5t116 86t91 111t59.5 130t21.5 143.5q0 88 -30.5 164.5t-85.5 133.5t-130.5 89.5t-166.5 32.5q-73 0 -143.5 -20t-133 -55.5 t-115.5 -86t-91.5 -111t-60 -130t-21.5 -143.5z" />
<glyph unicode="&#x2468;" d="M174 577q0 105 30.5 203t85 184t130 157t164.5 122t188.5 79t203.5 28q128 0 235.5 -46.5t185 -127t121 -189.5t43.5 -234q0 -105 -30.5 -203t-85.5 -184t-130 -157t-164 -122t-189 -79t-203 -28q-128 0 -235.5 46.5t-185 127t-121 189.5t-43.5 234zM802 489q27 0 49.5 9 t39 24t27.5 34.5t16 39.5q-8 -5 -31.5 -10.5t-51.5 -5.5q-42 0 -78.5 9.5t-63 29t-41.5 49t-15 70.5q0 52 19 97t55 78t87 52t115 19q103 0 153.5 -60t50.5 -169q0 -72 -16 -145t-56.5 -132t-109 -96.5t-173.5 -37.5q-32 0 -59 4.5t-47.5 10.5t-34 12.5t-19.5 10.5l56 131 q13 -5 45.5 -14.5t82.5 -9.5zM902 838q-37 0 -55 -25.5t-18 -57.5q0 -29 16.5 -42.5t40.5 -13.5q23 0 40.5 6t28.5 14q4 25 4 47t-6 38t-18 25t-33 9zM378 602q0 -88 30.5 -164.5t85 -133.5t130.5 -89.5t167 -32.5q73 0 143.5 20t133.5 55.5t116 86t91 111t59.5 130 t21.5 143.5q0 88 -30.5 164.5t-85.5 133.5t-130.5 89.5t-166.5 32.5q-73 0 -143.5 -20t-133 -55.5t-115.5 -86t-91.5 -111t-60 -130t-21.5 -143.5z" />
<glyph unicode="&#x24ea;" d="M842 490q25 0 47.5 16t39.5 45t27 69.5t10 90.5q0 59 -19 94t-54 35q-25 0 -47.5 -16.5t-39 -46.5t-26.5 -71t-10 -90q0 -58 18.5 -92t53.5 -34zM814 344q-59 0 -102 19t-71 53t-41.5 80.5t-13.5 100.5q0 78 22.5 148t65 123.5t104.5 85t142 31.5q59 0 102 -19t71 -53 t41.5 -80.5t13.5 -101.5q0 -78 -22.5 -148t-65 -123.5t-105 -84.5t-141.5 -31zM174 577q0 105 30.5 203t85 184t130 157t164.5 122t188.5 79t203.5 28q128 0 235.5 -46.5t185 -127t121 -189.5t43.5 -234q0 -105 -30.5 -203t-85.5 -184t-130 -157t-164 -122t-189 -79 t-203 -28q-128 0 -235.5 46.5t-185 127t-121 189.5t-43.5 234zM378 602q0 -88 30.5 -164.5t85 -133.5t130.5 -89.5t167 -32.5q73 0 143.5 20t133.5 55.5t116 86t91 111t59.5 130t21.5 143.5q0 88 -30.5 164.5t-85.5 133.5t-130.5 89.5t-166.5 32.5q-73 0 -143.5 -20 t-133 -55.5t-115.5 -86t-91.5 -111t-60 -130t-21.5 -143.5z" />
</font>
</defs>
</svg>
