<?xml version="1.0" standalone="no"?>
<!DOCTYPE svg PUBLIC "-//W3C//DTD SVG 1.1//EN" "http://www.w3.org/Graphics/SVG/1.1/DTD/svg11.dtd" >
<svg xmlns="http://www.w3.org/2000/svg">
<metadata></metadata>
<defs>
<font id="libertadbook_italic" horiz-adv-x="1693" >
<font-face units-per-em="2048" ascent="1638" descent="-410" />
<missing-glyph horiz-adv-x="426" />
<glyph unicode="&#x31;&#x2f;&#x34;" horiz-adv-x="1408" d="M1152 408l-32 -200h91l-14 -87h-89l-19 -121h-101l18 121h-259l13 84l236 391l103 -17l-226 -371h147l33 200h99zM1336 1280l-1176 -1299l-83 69l1176 1300zM318 751l77 487q-14 -2 -32.5 -5t-39 -5.5t-39.5 -5t-32 -3.5l2 88q62 8 127.5 20t124.5 23h18l-95 -599h-111z " />
<glyph unicode="&#x31;&#x2f;&#x32;" horiz-adv-x="1429" d="M1336 1280l-1176 -1299l-83 69l1176 1300zM832 80q80 54 140.5 98t101 83.5t61 76.5t20.5 78q0 42 -21 65t-66 23q-22 0 -45 -5.5t-42.5 -12t-33.5 -13.5l-20 -10l-25 80q6 3 23.5 12.5t43 19t57.5 17t67 7.5q46 0 79.5 -13.5t55 -37t31.5 -54.5t10 -65q0 -51 -20 -94.5 t-56 -83t-87 -78.5t-114 -81h253l-14 -92h-411zM318 751l77 487q-14 -2 -32.5 -5t-39 -5.5t-39.5 -5t-32 -3.5l2 88q62 8 127.5 20t124.5 23h18l-95 -599h-111z" />
<glyph unicode="&#x33;&#x2f;&#x34;" horiz-adv-x="1457" d="M1201 408l-32 -200h91l-14 -87h-89l-19 -121h-101l18 121h-259l13 84l236 391l103 -17l-226 -371h147l33 200h99zM1385 1280l-1176 -1299l-83 69l1176 1300zM495 1179q4 40 -20 59.5t-65 19.5q-34 0 -68.5 -8.5t-55.5 -16.5l-18 81q9 4 24.5 10t36.5 12t46 10t53 4 q46 0 80 -11t56.5 -30.5t33.5 -46t11 -57.5q0 -25 -9.5 -50.5t-23.5 -47t-30.5 -36t-31.5 -18.5q24 -12 47 -42.5t23 -79.5q0 -45 -17.5 -82t-50 -63t-79 -40.5t-104.5 -14.5q-56 0 -94 12.5t-58 24.5l39 83q18 -8 52 -18.5t79 -10.5q54 0 88.5 25.5t34.5 77.5 q0 38 -24.5 59t-66.5 21h-80l13 84h126q14 8 31.5 30.5t21.5 59.5z" />
<glyph unicode="ff" horiz-adv-x="1165" d="M455 1184q-3 -21 -4 -45.5t-1.5 -47.5t-0.5 -41.5v-25.5h414v35.5t1 43.5t3 48t5 48q20 142 112.5 211.5t241.5 69.5q51 0 94.5 -10.5t63.5 -18.5l-34 -109q-22 7 -60 13t-80 6q-85 0 -139.5 -43t-66.5 -134q-3 -21 -4 -45.5t-2 -47.5t-0.5 -41.5t0.5 -25.5h245l-18 -115 h-244l-145 -909h-138l144 909h-410l-208 -1305h-138l207 1305h-150l16 101l155 11v35t1 45t3 49t5 49q19 143 105 212t227 69q51 0 90 -9.5t56 -16.5l-41 -108q-20 5 -52 10t-70 5q-74 0 -123 -43t-60 -134z" />
<glyph unicode="f&#x131;" horiz-adv-x="1021" d="M797 909h-365l-208 -1305h-138l207 1305h-150l16 101l155 11v32.5t1 41.5t3 45.5t5 44.5q12 75 45 130t84.5 92t120 55t152.5 18q43 0 82 -6t71 -14.5t56.5 -18t38.5 -16.5l-43 -106q-32 13 -92.5 27.5t-136.5 14.5q-107 0 -168.5 -46.5t-77.5 -144.5q-3 -19 -4 -41.5 t-1.5 -43.5t-0.5 -37.5v-23.5h506l-127 -796q-13 -79 -16 -137.5t1 -90.5h-130q-5 16 -6.5 39.5t-1 51t3 56t6.5 54.5z" />
<glyph unicode="fl" horiz-adv-x="1066" d="M886 1249q4 27 6.5 50t3.5 43q-31 7 -79.5 13t-112.5 6q-109 0 -171 -46.5t-78 -144.5q-3 -19 -4 -41.5t-1.5 -43.5t-0.5 -37.5v-23.5h245l-18 -115h-244l-208 -1305h-138l207 1305h-150l16 101l155 11v32.5t1 41.5t3 45.5t5 44.5q12 75 45 130t84 92t119 55t150 18 q51 0 100.5 -5.5t92 -13.5t74.5 -16l48 -12q1 -48 -1.5 -93t-10.5 -93l-162 -1019q-13 -79 -16 -137.5t1 -90.5h-130q-5 16 -6.5 39.5t-1 51t3 56t6.5 54.5z" />
<glyph unicode="ff&#x131;" horiz-adv-x="1570" d="M1346 909h-365l-164 -1028h-138l163 1028h-410l-208 -1305h-138l207 1305h-150l16 101l155 11v35t1 45t3 49t5 49q19 143 105 212t227 69q51 0 90 -9.5t56 -16.5l-41 -108q-20 5 -52 10t-70 5q-75 0 -123.5 -43t-59.5 -134q-2 -21 -3.5 -45.5t-2 -47.5t-0.5 -41.5v-25.5 h414v33t1 40.5t3 44t5 43.5q24 149 129 222t272 73q43 0 82.5 -6t71.5 -14.5t56.5 -18t38.5 -16.5l-44 -106q-31 13 -91.5 27.5t-136.5 14.5q-107 0 -168.5 -46.5t-77.5 -144.5q-3 -19 -4 -41.5t-2 -43.5t-0.5 -37.5t0.5 -23.5h506l-127 -796q-13 -79 -16 -137.5t1 -90.5 h-130q-5 16 -6.5 39.5t-1 51t3 56t6.5 54.5z" />
<glyph unicode="ffl" horiz-adv-x="1611" d="M1435 1249q4 27 6.5 50t3.5 43q-31 7 -79.5 13t-112.5 6q-109 0 -171 -46.5t-78 -144.5q-3 -19 -4 -41.5t-2 -43.5t-0.5 -37.5t0.5 -23.5h245l-18 -115h-244l-208 -1305h-138l207 1305h-410l-208 -1305h-138l207 1305h-150l16 101l155 11v35t1 45t3 49t5 49 q19 143 105 212t227 69q51 0 90 -9.5t56 -16.5l-41 -108q-20 5 -52 10t-70 5q-75 0 -123.5 -43t-59.5 -134q-2 -21 -3.5 -45.5t-2 -47.5t-0.5 -41.5v-25.5h414v33t1 40.5t3 44t5 43.5q12 75 45 130t84 92t118.5 55t149.5 18q51 0 101 -5.5t92.5 -13.5t74.5 -16l48 -12 q1 -48 -1.5 -93t-10.5 -93l-162 -1019q-13 -79 -16 -137.5t0 -90.5h-129q-5 16 -6.5 39.5t-1.5 51t2.5 56t6.5 54.5z" />
<glyph unicode="&#x2d;&#x3e;" horiz-adv-x="1569" d="M1021 1016l425 -504l-585 -504l-68 81l491 423l-357 423zM204 570h799l-22 -115h-798z" />
<glyph unicode="fb" horiz-adv-x="1629" d="M814 798l72 451q5 27 7 50t4 43q-32 7 -80.5 13t-112.5 6q-109 0 -171 -46.5t-78 -144.5q-3 -19 -4 -41.5t-1.5 -43.5t-0.5 -37.5v-23.5h245l-18 -115h-244l-164 -1028h-138l163 1028h-150l16 101l155 11q-1 22 0 52t4.5 63t10.5 66.5t18 60.5q38 109 135.5 163t238.5 54 q51 0 100.5 -5.5t92 -13.5t74.5 -16l48 -12q2 -48 -1 -93t-10 -93l-72 -446q-5 -26 -11.5 -57.5t-13.5 -60.5t-12 -52t-6 -32q37 82 86.5 162t107.5 143t121 101.5t126 38.5q39 0 73.5 -14.5t62.5 -43t47.5 -70t27.5 -96.5q6 -31 8 -65.5t0 -72.5q-3 -85 -20.5 -170 t-48.5 -163t-75.5 -145.5t-102.5 -117t-128.5 -78t-153.5 -28.5q-55 0 -107.5 9.5t-98.5 23.5t-81.5 28.5t-55.5 25.5zM1052 97q59 0 110 28t92 75t72.5 109t53 130t32.5 138t11 134q0 100 -28.5 151.5t-85.5 51.5q-43 0 -101 -47.5t-118.5 -132.5t-117 -203.5t-96.5 -259.5 q-9 -29 -16 -59t-14 -61q9 -6 29.5 -15t48 -17.5t60.5 -15t68 -6.5z" />
<glyph unicode="ffb" horiz-adv-x="2178" d="M1369 839l66 410q5 27 7 50t4 43q-32 7 -80.5 13t-112.5 6q-109 0 -171 -46.5t-78 -144.5q-3 -19 -4 -41.5t-2 -43.5t-0.5 -37.5t0.5 -23.5h245l-18 -115h-244l-164 -1028h-138l163 1028h-410l-208 -1305h-138l207 1305h-150l16 101l155 11v35t1 45t3 49t5 49 q19 143 105 212t227 69q51 0 90 -9.5t56 -16.5l-41 -108q-20 5 -52 10t-70 5q-75 0 -123.5 -43t-59.5 -134q-2 -21 -3.5 -45.5t-2 -47.5t-0.5 -41.5v-25.5h414v33t1 40.5t3 44t5 43.5q12 75 45 130t84 92t118.5 55t149.5 18q51 0 101 -5.5t92.5 -13.5t74.5 -16l48 -12 q2 -48 -1 -93t-10 -93l-72 -446q-5 -26 -11.5 -57.5t-13.5 -60.5t-12.5 -52t-6.5 -32q37 82 87 162t108 143t121 101.5t126 38.5q48 0 88.5 -21t70.5 -61.5t46.5 -100.5t16.5 -138q0 -88 -15.5 -177.5t-46 -172t-75.5 -154t-104 -125t-132 -84t-159 -30.5q-55 0 -107.5 9.5 t-98.5 23.5t-81.5 28.5t-55.5 25.5zM1601 97q59 0 110 28t92 75t72.5 109t53 130t32.5 138t11 134q0 100 -29 151.5t-86 51.5q-43 0 -101 -47.5t-118 -132.5t-116.5 -203.5t-96.5 -259.5q-9 -29 -16 -59t-14 -61q9 -6 29.5 -15t48 -17.5t60.5 -15t68 -6.5z" />
<glyph unicode="ffh" horiz-adv-x="2205" d="M1435 1249q5 27 7 50t4 43q-32 7 -80.5 13t-112.5 6q-109 0 -171 -46.5t-78 -144.5q-3 -19 -4 -41.5t-2 -43.5t-0.5 -37.5t0.5 -23.5h245l-18 -115h-244l-164 -1028h-138l163 1028h-410l-208 -1305h-138l207 1305h-150l16 101l155 11v35t1 45t3 49t5 49q19 143 105 212 t227 69q51 0 90 -9.5t56 -16.5l-41 -108q-20 5 -52 10t-70 5q-75 0 -123.5 -43t-59.5 -134q-2 -21 -3.5 -45.5t-2 -47.5t-0.5 -41.5v-25.5h414v33t1 40.5t3 44t5 43.5q25 148 129 221.5t268 73.5q51 0 101 -6t92.5 -13.5t75 -15.5t47.5 -12q2 -48 -1 -93t-10 -93 q-15 -90 -31.5 -188t-33 -191t-33 -174t-31.5 -137q45 96 102 184t120.5 155.5t131 107.5t133.5 40q62 0 101.5 -24.5t60 -67t24 -100.5t-7.5 -124l-79 -500q-13 -79 -16 -137.5t1 -90.5h-130q-5 16 -6.5 39.5t-1 51t3 56t6.5 54.5l78 492q7 45 8 83t-7 65.5t-27 43 t-51 15.5q-38 0 -84.5 -28.5t-95.5 -78t-97.5 -117.5t-89.5 -146.5t-71.5 -164.5t-44.5 -173l-31 -192h-139z" />
<glyph unicode="ff&#x127;" horiz-adv-x="2205" d="M1435 1249q4 27 6.5 50t4.5 43q-32 7 -80.5 13t-112.5 6q-109 0 -171 -46.5t-78 -144.5q-3 -19 -4 -41.5t-2 -43.5t-0.5 -37.5t0.5 -23.5h245l-18 -115h-244l-209 -1305h-137l207 1305h-410l-208 -1305h-138l207 1305h-150l16 101l155 11v35t1 45t3 49t5 49 q19 143 105 212t227 69q51 0 90 -9.5t56 -16.5l-41 -108q-20 5 -52 10t-70 5q-75 0 -123.5 -43t-59.5 -134q-2 -21 -3.5 -45.5t-2 -47.5t-0.5 -41.5v-25.5h414v33t1 40.5t3 44t5 43.5q12 75 45 130t84 92t118.5 55t149.5 18q52 0 102 -5.5t92.5 -13.5t74.5 -16t47 -12 q1 -60 -3 -118h334l-16 -101h-332l-59 -374q-6 -38 -15.5 -80.5t-19.5 -82t-18 -71.5t-11 -49q45 96 102 184t120.5 155.5t131 107.5t133.5 40q62 0 101.5 -24.5t60 -67t24 -100.5t-7.5 -124l-79 -500q-13 -79 -16 -137.5t1 -90.5h-130q-5 16 -6.5 39.5t-1 51t3 56t6.5 54.5 l78 492q3 21 3 40q4 37 3 68t-10 53t-27 34t-46 12q-38 0 -84.5 -28.5t-95.5 -78t-97.5 -117.5t-89.5 -146.5t-71.5 -164.5t-44.5 -173l-31 -192h-139l199 1249v0z" />
<glyph unicode="ff&#x12d;" horiz-adv-x="1576" d="M1352 909h-371l-208 -1305h-138l207 1305h-410l-208 -1305h-138l207 1305h-150l16 101l155 11v35t1 45t3 49t5 49q19 143 105 212t227 69q51 0 90 -9.5t56 -16.5l-41 -108q-20 5 -52 10t-70 5q-75 0 -123.5 -43t-59.5 -134q-2 -21 -3.5 -45.5t-2 -47.5t-0.5 -41.5v-25.5 h414v35.5t1 43.5t3 48t5 48q20 143 108.5 212t231.5 69q51 0 94.5 -7t75.5 -13q-6 -33 -4 -61.5t14 -49.5t33 -33.5t53 -12.5q30 0 55 13t43.5 35.5t31 53t18.5 65.5h110q-7 -62 -30.5 -111t-60 -83.5t-83.5 -53t-100 -18.5q-80 0 -132 39t-62 113q-17 2 -35 3.5t-37 1.5 q-78 0 -129.5 -43t-62.5 -134q-3 -21 -4 -45.5t-2 -47.5t-0.5 -41.5t0.5 -25.5h512l-127 -796q-13 -79 -16 -137.5t1 -90.5h-129q-5 16 -6.5 39.5t-1.5 51t2.5 56t6.5 54.5z" />
<glyph unicode="ff&#xec;" horiz-adv-x="1598" d="M1004 1184q-3 -21 -4 -45.5t-2 -47.5t-0.5 -41.5t0.5 -25.5h245l-18 -115h-244l-208 -1305h-138l207 1305h-410l-208 -1305h-138l207 1305h-150l16 101l155 11q-1 21 0 52.5t4 66t9 69t15 62.5q32 106 112.5 157.5t200.5 51.5q51 0 90 -9.5t56 -16.5l-41 -108 q-20 5 -52 10t-70 5q-75 0 -123.5 -43t-59.5 -134q-2 -21 -3.5 -45.5t-2 -47.5t-0.5 -41.5v-25.5h414q-1 22 -0.5 53t3.5 65t9 68t16 61q32 106 114.5 157.5t203.5 51.5q26 0 48 -3.5t39 -7.5l31 53l350 -209l-44 -80l-329 145l-10 -30q-18 5 -45 9t-56 4q-76 0 -127 -43 t-62 -134zM1406 1024h139l-127 -796q-13 -79 -16 -137.5t1 -90.5h-129q-5 16 -6.5 39.5t-1.5 51t2.5 56t6.5 54.5z" />
<glyph unicode="ff&#x133;" horiz-adv-x="2036" d="M1346 909h-365l-145 -909h-138l144 909h-410l-208 -1305h-138l207 1305h-150l16 101l155 11v35t1 45t3 49t5 49q19 143 105 212t227 69q51 0 90 -9.5t56 -16.5l-41 -108q-20 5 -52 10t-70 5q-75 0 -123.5 -43t-59.5 -134q-2 -21 -3.5 -45.5t-2 -47.5t-0.5 -41.5v-25.5 h414v33t1 40.5t3 44t5 43.5q24 149 129 222t272 73q43 0 82.5 -6t71.5 -14.5t56.5 -18t38.5 -16.5l-44 -106q-31 13 -91.5 27.5t-136.5 14.5q-107 0 -168.5 -46.5t-77.5 -144.5q-3 -19 -4 -41.5t-2 -43.5t-0.5 -37.5t0.5 -23.5h506l-127 -796q-13 -79 -16 -137.5t1 -90.5 h-130q-5 16 -6.5 39.5t-1 51t3 56t6.5 54.5zM1831 1024h139l-173 -1091q-16 -98 -43 -164.5t-66.5 -107.5t-92.5 -59t-121 -18q-48 0 -83.5 11t-49.5 19l28 108q12 -5 40 -12.5t59 -7.5q44 0 75.5 13.5t53.5 40t35.5 66t22.5 92.5zM1851 1335q0 25 9.5 46t26 36t38 23.5 t46.5 8.5q35 0 57.5 -24t22.5 -61q0 -26 -9.5 -47t-26 -36t-38.5 -23.5t-46 -8.5q-36 0 -58 24t-22 62z" />
<glyph unicode="ff&#x12b;" horiz-adv-x="1581" d="M1004 1184q-3 -21 -4 -45.5t-2 -47.5t-0.5 -41.5t0.5 -25.5h245l-18 -115h-244l-208 -1305h-138l207 1305h-410l-208 -1305h-138l207 1305h-150l16 101l155 11v35t1 45t3 49t5 49q19 143 105 212t227 69q51 0 90 -9.5t56 -16.5l-41 -108q-20 5 -52 10t-70 5 q-75 0 -123.5 -43t-59.5 -134q-2 -21 -3.5 -45.5t-2 -47.5t-0.5 -41.5v-25.5h414v35.5t1 43.5t3 48t5 48q19 142 107 211.5t230 69.5q49 0 86.5 -9t53.5 -15l-41 -109q-17 5 -49.5 9.5t-65.5 4.5q-76 0 -127 -43t-62 -134zM1406 1024h139l-127 -796q-13 -79 -16 -137.5 t1 -90.5h-129q-5 16 -6.5 39.5t-1.5 51t2.5 56t6.5 54.5zM1244 1378h530l-18 -115h-530z" />
<glyph unicode="ff&#x12f;" horiz-adv-x="1570" d="M1346 909h-365l-145 -909h-138l144 909h-410l-208 -1305h-138l207 1305h-150l16 101l155 11v35t1 45t3 49t5 49q19 143 105 212t227 69q51 0 90 -9.5t56 -16.5l-41 -108q-20 5 -52 10t-70 5q-75 0 -123.5 -43t-59.5 -134q-2 -21 -3.5 -45.5t-2 -47.5t-0.5 -41.5v-25.5 h414v33t1 40.5t3 44t5 43.5q25 149 129 222t272 73q43 0 82.5 -6t71.5 -14.5t56.5 -18t38.5 -16.5l-44 -106q-31 13 -91.5 27.5t-136.5 14.5q-107 0 -168.5 -46.5t-77.5 -144.5q-3 -19 -4 -41.5t-2 -43.5t-0.5 -37.5t0.5 -23.5h506l-127 -796q-7 -44 -10 -82.5t-5 -69 t-5 -50.5t-10 -26q-30 -22 -61 -48.5t-56.5 -57.5t-41.5 -65.5t-16 -71.5q0 -39 19 -57.5t50 -18.5q17 0 35.5 4.5t34 10t26 10.5t13.5 7l18 -76q-8 -6 -23.5 -14.5t-37.5 -17t-47.5 -14.5t-52.5 -6q-33 0 -62.5 10t-51 28.5t-34 45.5t-12.5 62q0 42 16 80.5t42.5 72t60 63 t68.5 53.5h-2q-5 16 -6.5 40t-1 51t3 55.5t6.5 54.5z" />
<glyph unicode="ff&#x129;" horiz-adv-x="1586" d="M1004 1184q-3 -21 -4 -45.5t-2 -47.5t-0.5 -41.5t0.5 -25.5h245l-18 -115h-244l-208 -1305h-138l207 1305h-410l-208 -1305h-138l207 1305h-150l16 101l155 11v35t1 45t3 49t5 49q19 143 105 212t227 69q51 0 90 -9.5t56 -16.5l-41 -108q-20 5 -52 10t-70 5 q-75 0 -123.5 -43t-59.5 -134q-2 -21 -3.5 -45.5t-2 -47.5t-0.5 -41.5v-25.5h414v35.5t1 43.5t3 48t5 48q9 71 36.5 123.5t68.5 87.5t93.5 52.5t111.5 17.5q32 0 59.5 -9t49.5 -23t37 -30t23 -29l-41 -98q-8 8 -28 20t-43 23q-21 11 -44.5 17.5t-48.5 2.5 q-54 -6 -93.5 -47.5t-48.5 -122.5zM1390 1024h139l-126 -796q-13 -79 -16 -137.5t1 -90.5h-130q-5 16 -6.5 39.5t-1 51t3 56t6.5 54.5zM1285 1352q35 40 74 61t84 21q27 0 48 -10t40.5 -22.5t38.5 -22.5t41 -10q16 0 31.5 6t29.5 15.5t26.5 20.5t22.5 21l64 -65 q-38 -51 -80.5 -80.5t-91.5 -35.5q-10 -1 -20 -1.5t-20 0.5q-24 2 -43.5 12t-37.5 21.5t-36 21t-38 9.5q-15 0 -30 -6t-28.5 -15.5t-25.5 -21t-22 -21.5z" />
<glyph unicode="ffj" horiz-adv-x="1568" d="M1346 909h-365l-145 -909h-138l144 909h-410l-208 -1305h-138l207 1305h-150l16 101l155 11v35t1 45t3 49t5 49q19 143 105 212t227 69q51 0 90 -9.5t56 -16.5l-41 -108q-20 5 -52 10t-70 5q-75 0 -123.5 -43t-59.5 -134q-2 -21 -3.5 -45.5t-2 -47.5t-0.5 -41.5v-25.5 h414v33t1 40.5t3 44t5 43.5q24 149 129 222t272 73q43 0 82.5 -6t71.5 -14.5t56.5 -18t38.5 -16.5l-44 -106q-31 13 -91.5 27.5t-136.5 14.5q-107 0 -168.5 -46.5t-77.5 -144.5q-3 -19 -4 -41.5t-2 -43.5t-0.5 -37.5t0.5 -23.5h505l-173 -1091q-15 -98 -42 -164.5 t-66.5 -107.5t-92.5 -59t-121 -18q-49 0 -84 11t-50 19l28 108q12 -5 40 -12.5t59 -7.5q44 0 75.5 13.5t53.5 40t36 66t22 92.5z" />
<glyph unicode="ffk" horiz-adv-x="2052" d="M1435 1249q5 27 7 50t4 43q-32 7 -80.5 13t-112.5 6q-109 0 -171 -46.5t-78 -144.5q-3 -19 -4 -41.5t-2 -43.5t-0.5 -37.5t0.5 -23.5h245l-18 -115h-244l-164 -1028h-138l163 1028h-410l-208 -1305h-138l207 1305h-150l16 101l155 11v35t1 45t3 49t5 49q19 143 105 212 t227 69q51 0 90 -9.5t56 -16.5l-41 -108q-20 5 -52 10t-70 5q-75 0 -123.5 -43t-59.5 -134q-2 -21 -3.5 -45.5t-2 -47.5t-0.5 -41.5v-25.5h414v33t1 40.5t3 44t5 43.5q12 75 45 130t84 92t118.5 55t149.5 18q51 0 101 -5.5t92.5 -13.5t74.5 -16l48 -12q2 -48 -1 -93t-10 -93 l-113 -714q70 20 139.5 54t127 83t96.5 112.5t50 141.5q5 24 6 49.5t-1 50.5l143 20q7 -30 8 -60.5t-2 -60.5q-6 -58 -26 -107.5t-48 -90.5t-62 -74.5t-66 -58.5t-60.5 -42t-45.5 -26l217 -524h-158l-182 473q-38 -17 -78.5 -30.5t-75.5 -22.5l-67 -420h-140z" />
<glyph unicode="ff&#x137;" horiz-adv-x="2052" d="M1435 1249q5 27 7 50t4 43q-32 7 -80.5 13t-112.5 6q-109 0 -171 -46.5t-78 -144.5q-3 -19 -4 -41.5t-2 -43.5t-0.5 -37.5t0.5 -23.5h245l-18 -115h-244l-209 -1305h-137l207 1305h-410l-208 -1305h-138l207 1305h-150l16 101l155 11v35t1 45t3 49t5 49q19 143 105 212 t227 69q51 0 90 -9.5t56 -16.5l-41 -108q-20 5 -52 10t-70 5q-75 0 -123.5 -43t-59.5 -134q-2 -21 -3.5 -45.5t-2 -47.5t-0.5 -41.5v-25.5h414v33t1 40.5t3 44t5 43.5q12 75 45 130t84 92t118.5 55t149.5 18q51 0 101 -5.5t92.5 -13.5t74.5 -16l48 -12q2 -48 -1 -93t-10 -93 l-113 -714q70 20 139.5 54t127 83t96.5 112.5t50 141.5q5 24 6 49.5t-1 50.5l143 20q7 -30 8 -60.5t-2 -60.5q-6 -58 -26 -107.5t-48 -90.5t-62 -74.5t-66 -58.5t-60.5 -42t-45.5 -26l217 -524h-158l-182 473q-38 -17 -78.5 -30.5t-75.5 -22.5l-67 -420h-140zM1563 -101 q5 -5 12 -15.5t14 -26t11.5 -35t4.5 -42.5q0 -56 -24 -98t-63.5 -71t-90 -46t-103.5 -22l-11 76q32 7 61.5 19.5t52.5 31.5t36.5 45t13.5 61q0 38 -11 62.5t-18 34.5z" />
<glyph unicode="ff&#x13e;" horiz-adv-x="1704" d="M1435 1249q4 27 6.5 50t3.5 43q-31 7 -79.5 13t-112.5 6q-109 0 -171 -46.5t-78 -144.5q-3 -19 -4 -41.5t-2 -43.5t-0.5 -37.5t0.5 -23.5h245l-18 -115h-244l-209 -1305h-137l207 1305h-410l-208 -1305h-138l207 1305h-150l16 101l155 11v35t1 45t3 49t5 49 q19 143 105 212t227 69q51 0 90 -9.5t56 -16.5l-41 -108q-20 5 -52 10t-70 5q-75 0 -123.5 -43t-59.5 -134q-2 -21 -3.5 -45.5t-2 -47.5t-0.5 -41.5v-25.5h414v33t1 40.5t3 44t5 43.5q12 75 45 130t84 92t118.5 55t149.5 18q51 0 101 -5.5t92.5 -13.5t74.5 -16l48 -12 q1 -48 -1.5 -93t-10.5 -93l-162 -1019q-13 -79 -16 -137.5t0 -90.5h-129q-5 16 -6.5 39.5t-1.5 51t2.5 56t6.5 54.5zM1840 1527q5 -5 13.5 -16.5t16.5 -28.5t14 -39t6 -48q0 -48 -17.5 -88t-46 -71t-64 -53.5t-71.5 -37.5l-37 67q17 10 36 24.5t34.5 34.5t25.5 45t10 55 q0 22 -6.5 42.5t-15 37t-17.5 28t-15 17.5z" />
<glyph unicode="ff&#x13c;" horiz-adv-x="1604" d="M1435 1249q4 27 6.5 50t3.5 43q-31 7 -79.5 13t-112.5 6q-109 0 -171 -46.5t-78 -144.5q-3 -19 -4 -41.5t-2 -43.5t-0.5 -37.5t0.5 -23.5h245l-18 -115h-244l-209 -1305h-137l207 1305h-410l-208 -1305h-138l207 1305h-150l16 101l155 11v35t1 45t3 49t5 49 q19 143 105 212t227 69q51 0 90 -9.5t56 -16.5l-41 -108q-20 5 -52 10t-70 5q-75 0 -123.5 -43t-59.5 -134q-2 -21 -3.5 -45.5t-2 -47.5t-0.5 -41.5v-25.5h414v33t1 40.5t3 44t5 43.5q12 75 45 130t84 92t118.5 55t149.5 18q51 0 101 -5.5t92.5 -13.5t74.5 -16l48 -12 q1 -48 -1.5 -93t-10.5 -93l-162 -1019q-13 -79 -16 -137.5t0 -90.5h-129q-5 16 -6.5 39.5t-1.5 51t2.5 56t6.5 54.5zM1363 -101q5 -5 12 -15.5t14 -26t11.5 -35t4.5 -42.5q0 -56 -24 -98t-63.5 -71t-90 -46t-102.5 -22l-12 76q32 7 61.5 19.5t52.5 31.5t36.5 45t13.5 61 q0 38 -11 62.5t-18 34.5z" />
<glyph unicode="ff&#x140;" horiz-adv-x="1763" d="M1435 1249q4 27 6.5 50t3.5 43q-31 7 -79.5 13t-112.5 6q-109 0 -171 -46.5t-78 -144.5q-3 -19 -4 -41.5t-2 -43.5t-0.5 -37.5t0.5 -23.5h245l-18 -115h-244l-209 -1305h-137l207 1305h-410l-208 -1305h-138l207 1305h-150l16 101l155 11v35t1 45t3 49t5 49 q19 143 105 212t227 69q51 0 90 -9.5t56 -16.5l-41 -108q-20 5 -52 10t-70 5q-75 0 -123.5 -43t-59.5 -134q-2 -21 -3.5 -45.5t-2 -47.5t-0.5 -41.5v-25.5h414v33t1 40.5t3 44t5 43.5q12 75 45 130t84 92t118.5 55t149.5 18q51 0 101 -5.5t92.5 -13.5t74.5 -16l48 -12 q1 -48 -1.5 -93t-10.5 -93l-162 -1019q-13 -79 -16 -137.5t0 -90.5h-129q-5 16 -6.5 39.5t-1.5 51t2.5 56t6.5 54.5zM1636 733q0 25 9.5 46t25.5 36t38 23.5t46 8.5q36 0 58.5 -24t22.5 -61q0 -26 -9.5 -47t-26 -36t-38.5 -23.5t-46 -8.5q-36 0 -58 24t-22 62z" />
<glyph unicode="ff&#x142;" horiz-adv-x="1634" d="M1119 570l232 155l84 524q4 27 6.5 50t3.5 43q-31 7 -79.5 13t-112.5 6q-109 0 -171 -46.5t-78 -144.5q-3 -19 -4 -41.5t-2 -43.5t-0.5 -37.5t0.5 -23.5h245l-18 -115h-244l-209 -1305h-137l207 1305h-410l-208 -1305h-138l207 1305h-150l16 101l155 11v35t1 45t3 49 t5 49q19 143 105 212t227 69q51 0 90 -9.5t56 -16.5l-41 -108q-20 5 -52 10t-70 5q-75 0 -123.5 -43t-59.5 -134q-2 -21 -3.5 -45.5t-2 -47.5t-0.5 -41.5v-25.5h414v33t1 40.5t3 44t5 43.5q25 148 129 221.5t268 73.5q51 0 100.5 -5.5t92 -13.5t74.5 -16t49 -12 q1 -48 -1.5 -93t-10.5 -93l-67 -417l153 102l55 -90l-230 -155l-73 -459q-13 -79 -16 -137.5t0 -90.5h-129q-5 16 -6.5 39.5t-1.5 51t2.5 56t6.5 54.5l61 381l-154 -103z" />
<glyph unicode="fh" horiz-adv-x="1656" d="M886 1249q7 -1 13 -1.5t13 -1.5q-7 1 -13 1.5t-13 1.5q4 27 6.5 50t4.5 43q-32 7 -80.5 13t-112.5 6q-90 0 -149 -32t-82 -101q-9 -22 -14 -52t-7.5 -59t-2.5 -54.5v-38.5h245l-18 -115h-244l-164 -1028h-138l163 1028h-150l16 101l155 11q-1 20 0 48.5t4 60t9 63 t15 58.5q37 116 135 172.5t244 56.5q51 0 100.5 -6t92 -13.5t75 -15.5t47.5 -12q2 -48 -1 -93t-10 -93q-15 -90 -31.5 -188t-33.5 -191t-33.5 -174t-30.5 -137q45 96 102 184t120.5 155.5t131 107.5t133.5 40q44 0 75.5 -13.5t53 -38t33 -58t14.5 -72.5q5 -44 3 -93.5 t-10 -103.5l-43 -266q-8 -56 -16 -107.5t-15 -102.5q-10 -63 -12 -113t1 -76h-130q-4 13 -6 32.5t-2 42.5t1.5 47t4.5 46q8 52 15.5 103t15.5 102l51 320q7 45 8 83t-7 65.5t-27 43t-51 15.5q-38 0 -84.5 -28.5t-95.5 -78t-97.5 -117.5t-89.5 -146.5t-71.5 -164.5 t-44.5 -173l-31 -192h-139z" />
<glyph unicode="f&#x127;" horiz-adv-x="1647" d="M455 1170q-3 -19 -4 -41.5t-1.5 -43.5t-0.5 -37.5v-23.5h245l-18 -115h-244l-209 -1305h-137l207 1305h-150l16 101l155 11v32.5t1 41.5t3 45.5t5 44.5q25 149 129 222t269 73q51 0 100.5 -6t92 -13.5t75 -15.5t47.5 -12q1 -60 -3 -118h334l-16 -101h-332l-59 -374 q-6 -38 -15.5 -80.5t-19 -82t-18 -71.5t-11.5 -49q45 96 102 184t120.5 155.5t131 107.5t133.5 40q62 0 101.5 -24.5t60.5 -67t24 -100.5t-7 -124l-80 -500q-13 -79 -16 -137.5t1 -90.5h-130q-5 16 -6.5 39.5t-1 51t3 56t6.5 54.5l78 492q7 45 8 83t-7 65.5t-27 43t-51 15.5 q-38 0 -84.5 -28.5t-95.5 -78t-97.5 -117.5t-89.5 -146.5t-71.5 -164.5t-44.5 -173l-31 -192h-139l199 1249q4 27 6.5 50t4.5 43q-32 7 -80.5 13t-112.5 6q-109 0 -171 -46.5t-78 -144.5z" />
<glyph unicode="f&#x12d;" horiz-adv-x="1027" d="M804 909h-372l-208 -1305h-138l207 1305h-150l16 101l155 11v35t1 45t3 49t5 49q20 143 108.5 212t232.5 69q50 0 93.5 -7t75.5 -13q-6 -33 -4 -61.5t14 -49.5t33 -33.5t53 -12.5q30 0 55 13t43.5 35.5t31 53t18.5 65.5h110q-7 -62 -30.5 -111t-60 -83.5t-83.5 -53 t-100 -18.5q-80 0 -131.5 39t-62.5 113q-17 2 -34.5 3.5t-37.5 1.5q-78 0 -129.5 -43t-62.5 -134q-3 -21 -4 -45.5t-1.5 -47.5t-0.5 -41.5v-25.5h512l-127 -796q-13 -78 -16 -137t1 -91h-129q-5 16 -6.5 39.5t-1.5 51t2.5 56t6.5 54.5z" />
<glyph unicode="f&#xec;" horiz-adv-x="1049" d="M1084 1233l-328 145l-11 -30q-18 5 -45 9t-56 4q-76 0 -127 -43t-62 -134q-3 -21 -4 -45.5t-1.5 -47.5t-0.5 -41.5v-25.5h245l-18 -115h-244l-208 -1305h-138l207 1305h-150l16 101l155 11q-1 20 -0.5 50t3.5 63.5t8 66.5t13 60q30 111 114 165t209 54q26 0 47.5 -3.5 t38.5 -7.5l31 53l350 -209zM857 1024h139l-127 -796q-13 -79 -16 -137.5t1 -90.5h-129q-5 16 -6.5 39.5t-1.5 51t2.5 56t6.5 54.5z" />
<glyph unicode="f&#x133;" horiz-adv-x="1487" d="M797 909h-365l-208 -1305h-138l207 1305h-150l16 101l155 11v32.5t1 41.5t3 45.5t5 44.5q12 75 45 130t84.5 92t120 55t152.5 18q43 0 82 -6t71 -14.5t56.5 -18t38.5 -16.5l-43 -106q-32 13 -92.5 27.5t-136.5 14.5q-107 0 -168.5 -46.5t-77.5 -144.5q-3 -19 -4 -41.5 t-1.5 -43.5t-0.5 -37.5v-23.5h506l-127 -796q-13 -79 -16 -137.5t1 -90.5h-130q-5 16 -6.5 39.5t-1 51t3 56t6.5 54.5zM1282 1024h139l-173 -1091q-16 -98 -43 -164.5t-66.5 -107.5t-92.5 -59t-121 -18q-48 0 -83 11t-50 19l28 108q12 -5 40 -12.5t59 -7.5q44 0 75.5 13.5 t53.5 40t35.5 66t22.5 92.5zM1302 1335q0 25 9.5 46t26 36t38 23.5t46.5 8.5q35 0 57.5 -24t22.5 -61q0 -26 -9.5 -47t-26 -36t-38.5 -23.5t-46 -8.5q-36 0 -58 24t-22 62z" />
<glyph unicode="f&#x12b;" horiz-adv-x="1032" d="M455 1184q-3 -21 -4 -45.5t-1.5 -47.5t-0.5 -41.5v-25.5h245l-18 -115h-244l-208 -1305h-138l207 1305h-150l16 101l155 11v35t1 45t3 49t5 49q19 142 107.5 211.5t230.5 69.5q48 0 85.5 -9t53.5 -15l-41 -109q-17 5 -49.5 9.5t-65.5 4.5q-76 0 -127 -43t-62 -134z M841 1024h140l-127 -796q-13 -79 -16 -137.5t1 -90.5h-130q-5 16 -6.5 39.5t-1 51t3 56t6.5 54.5zM695 1378h530l-18 -115h-530z" />
<glyph unicode="f&#x12f;" horiz-adv-x="1021" d="M797 909h-365l-208 -1305h-138l207 1305h-150l16 101l155 11v32.5t1 41.5t3 45.5t5 44.5q25 149 129 222t273 73q43 0 82 -6t71 -14.5t56.5 -18t38.5 -16.5l-43 -106q-32 13 -92.5 27.5t-136.5 14.5q-107 0 -168.5 -46.5t-77.5 -144.5q-3 -19 -4 -41.5t-1.5 -43.5 t-0.5 -37.5v-23.5h506l-127 -796q-7 -44 -10 -82.5t-5 -69t-5 -50.5t-10 -26q-30 -22 -61 -48.5t-56.5 -57.5t-41.5 -65.5t-16 -71.5q0 -39 19 -57.5t50 -18.5q17 0 35.5 4.5t34 10t26 10.5t13.5 7l18 -76q-7 -6 -23 -14.5t-37.5 -17t-47.5 -14.5t-53 -6q-34 0 -63.5 10 t-51 29t-33.5 46t-12 61q0 42 16 80.5t42.5 72t60 63t68.5 53.5h-2q-5 16 -6.5 40t-1 51t3 55.5t6.5 54.5z" />
<glyph unicode="f&#x129;" horiz-adv-x="1037" d="M455 1184q-3 -21 -4 -45.5t-1.5 -47.5t-0.5 -41.5v-25.5h245l-18 -115h-244l-208 -1305h-138l207 1305h-150l16 101l155 11v35t1 45t3 49t5 49q9 71 36.5 123.5t68.5 87.5t93.5 52.5t112.5 17.5q31 0 58.5 -9t49.5 -23t37 -30t23 -29l-41 -98q-8 8 -28 20t-43 23 q-19 11 -41.5 18t-45.5 5q-57 -5 -98 -47.5t-50 -125.5zM736 1352q35 40 74 61t84 21q27 0 48 -10t40.5 -22.5t38.5 -22.5t41 -10q16 0 31.5 6t30 15.5t26.5 20.5t22 21l65 -65q-39 -51 -81.5 -80.5t-90.5 -35.5q-11 -1 -21 -1.5t-20 0.5q-24 2 -43.5 12t-37.5 21.5t-36 21 t-38 9.5q-15 0 -30 -6t-28.5 -15.5t-25.5 -21t-22 -21.5zM841 1024h140l-127 -796q-13 -79 -16 -137.5t1 -90.5h-130q-5 16 -6.5 39.5t-1 51t3 56t6.5 54.5z" />
<glyph unicode="fj" horiz-adv-x="1019" d="M797 909h-365l-145 -909h-138l144 909h-150l16 101l155 11v32.5t1 41.5t3 45.5t5 44.5q12 75 45 130t83.5 92t118 55t148.5 18q43 0 83 -6t73.5 -14.5t59 -18t39.5 -16.5l-43 -106q-16 6 -40.5 13.5t-55.5 14t-66.5 10.5t-73.5 4q-102 0 -162.5 -46.5t-76.5 -144.5 q-3 -19 -4 -41.5t-1.5 -43.5t-0.5 -37.5v-23.5h505l-173 -1091q-15 -98 -42 -164.5t-66.5 -107.5t-92.5 -59t-121 -18q-49 0 -84 11t-50 19l29 108q11 -5 39 -12.5t59 -7.5q44 0 75.5 13.5t53.5 40t36 66t22 92.5z" />
<glyph unicode="fk" horiz-adv-x="1503" d="M886 1249q5 27 7 50t4 43q-32 7 -80.5 13t-112.5 6q-109 0 -171 -46.5t-78 -144.5q-3 -19 -4 -41.5t-1.5 -43.5t-0.5 -37.5v-23.5h245l-18 -115h-244l-164 -1028h-138l163 1028h-150l16 101l155 11q-1 20 0 48.5t4 60t9 63t15 58.5q37 116 135 172.5t244 56.5 q51 0 100 -5.5t91 -13.5t74.5 -16t49.5 -12q2 -56 -3 -108.5t-13 -109.5l-108 -682q72 20 142.5 55t128 85.5t96.5 116t48 146.5q4 21 4.5 43.5t-1.5 44.5l143 20q6 -26 8 -53t0 -55q-4 -59 -23.5 -110.5t-47.5 -94t-62.5 -77t-67.5 -60.5t-62 -43.5t-47 -26.5l217 -524 h-158l-181 473q-39 -17 -79.5 -30.5t-75.5 -22.5l-67 -420h-140z" />
<glyph unicode="f&#x137;" horiz-adv-x="1503" d="M1014 -101q5 -5 12 -15.5t14 -26t11.5 -35t4.5 -42.5q0 -56 -24 -98t-63.5 -71t-90 -46t-102.5 -22l-12 76q32 7 61.5 19.5t52.5 31.5t36.5 45t13.5 61q0 38 -11 62.5t-18 34.5zM886 1249q5 27 7 50t4 43q-32 7 -80.5 13t-112.5 6q-109 0 -171 -46.5t-78 -144.5 q-3 -19 -4 -41.5t-1.5 -43.5t-0.5 -37.5v-23.5h245l-18 -115h-244l-209 -1305h-137l207 1305h-150l16 101l155 11v32.5t1 41.5t3 45.5t5 44.5q25 149 129 222t269 73q51 0 100.5 -6t92 -13.5t75 -15.5t47.5 -12q2 -48 -1 -93t-10 -93l-113 -714q72 20 142.5 55t128 85.5 t96.5 116t48 146.5q4 21 4.5 43.5t-1.5 44.5l143 20q7 -30 8 -60.5t-2 -60.5q-5 -58 -25 -107.5t-48.5 -90.5t-62 -74.5t-66 -58.5t-60.5 -42t-46 -26l217 -524h-158l-181 473q-39 -17 -79.5 -30.5t-75.5 -22.5l-67 -420h-140z" />
<glyph unicode="f&#x13e;" horiz-adv-x="1155" d="M886 1249q4 27 6.5 50t3.5 43q-31 7 -79.5 13t-112.5 6q-109 0 -171 -46.5t-78 -144.5q-3 -19 -4 -41.5t-1.5 -43.5t-0.5 -37.5v-23.5h245l-18 -115h-244l-208 -1305h-138l207 1305h-150l16 101l155 11v32.5t1 41.5t3 45.5t5 44.5q12 75 45 130t84 92t119 55t150 18 q51 0 100.5 -5.5t92 -13.5t74.5 -16l48 -12q1 -48 -1.5 -93t-10.5 -93l-162 -1019q-13 -79 -16 -137.5t1 -90.5h-130q-5 16 -6.5 39.5t-1 51t3 56t6.5 54.5zM1291 1527q5 -5 13.5 -16.5t16.5 -28.5t14 -39t6 -48q0 -48 -17.5 -88t-46 -71t-64 -53.5t-71.5 -37.5l-37 67 q17 10 36 24.5t34.5 34.5t25.5 45t10 55q0 22 -6.5 42.5t-15 37t-17.5 28t-15 17.5z" />
<glyph unicode="f&#x13c;" horiz-adv-x="1055" d="M814 -101q5 -5 12 -15.5t14 -26t11.5 -35t4.5 -42.5q0 -56 -24 -98t-63.5 -71t-90 -46t-102.5 -22l-11 76q31 7 60.5 19.5t52.5 31.5t36.5 45t13.5 61q0 38 -11 62.5t-18 34.5zM886 1249q4 27 6.5 50t3.5 43q-31 7 -79.5 13t-112.5 6q-109 0 -171 -46.5t-78 -144.5 q-3 -19 -4 -41.5t-1.5 -43.5t-0.5 -37.5v-23.5h245l-18 -115h-244l-208 -1305h-138l207 1305h-150l16 101l155 11v32.5t1 41.5t3 45.5t5 44.5q12 75 45 130t84 92t119 55t150 18q51 0 100.5 -5.5t92 -13.5t74.5 -16l48 -12q1 -48 -1.5 -93t-10.5 -93l-162 -1019 q-13 -79 -16 -137.5t1 -90.5h-130q-5 16 -6.5 39.5t-1 51t3 56t6.5 54.5z" />
<glyph unicode="f&#x140;" horiz-adv-x="1211" d="M1085 733q0 51 34.5 82.5t84.5 31.5q36 0 58 -24t22 -61q0 -26 -9.5 -47t-26 -36t-38.5 -23.5t-46 -8.5q-36 0 -57.5 24t-21.5 62zM886 1249q4 27 6.5 50t3.5 43q-31 7 -79.5 13t-112.5 6q-109 0 -171 -46.5t-78 -144.5q-3 -19 -4 -41.5t-1.5 -43.5t-0.5 -37.5v-23.5h245 l-18 -115h-244l-208 -1305h-138l207 1305h-150l16 101l155 11v32.5t1 41.5t3 45.5t5 44.5q12 75 45 130t84 92t119 55t150 18q51 0 100.5 -5.5t92 -13.5t74.5 -16l48 -12q1 -48 -1.5 -93t-10.5 -93l-162 -1019q-13 -79 -16 -137.5t1 -90.5h-130q-5 16 -6.5 39.5t-1 51t3 56 t6.5 54.5z" />
<glyph unicode="f&#x142;" horiz-adv-x="1085" d="M570 570l232 155l84 524q4 27 6.5 50t3.5 43q-31 7 -79.5 13t-112.5 6q-109 0 -171 -46.5t-78 -144.5q-3 -19 -4 -41.5t-1.5 -43.5t-0.5 -37.5v-23.5h245l-18 -115h-244l-208 -1305h-138l207 1305h-150l16 101l155 11v32.5t1 41.5t3 45.5t5 44.5q25 149 129 222t269 73 q51 0 100.5 -5.5t91.5 -13.5t74 -16t49 -12q1 -48 -1.5 -93t-10.5 -93l-67 -417l153 102l55 -90l-230 -155l-73 -459q-13 -79 -16 -137.5t1 -90.5h-130q-5 16 -6.5 39.5t-1 51t3 56t6.5 54.5l60 381l-154 -103z" />
<glyph unicode="&#x3c;&#x2014;" horiz-adv-x="1588" d="M608 8l-425 504l585 504l67 -81l-491 -423l357 -423zM666 570h799l-22 -115h-798z" />
<glyph unicode="&#x17f;f" horiz-adv-x="1129" d="M224 -396h-138l207 1305h-150l16 101l155 11l24 150q11 71 38 128t69.5 97.5t102.5 62t137 21.5q50 0 90 -10.5t60 -18.5l-34 -109q-22 7 -60 13t-80 6q-84 0 -129 -54t-60 -151zM968 1184q-3 -21 -4 -45.5t-1.5 -47.5t-0.5 -41.5v-25.5h245l-18 -115h-243l-146 -909 h-138l145 909h-150l16 101l154 11v35t1 45t3 49t5 49q20 142 113 211.5t242 69.5q50 0 94 -10.5t63 -18.5l-34 -109q-22 7 -60 13t-79 6q-85 0 -140 -43t-67 -134z" />
<glyph unicode="&#x17f;h" horiz-adv-x="1656" d="M704 1361q-104 0 -161.5 -60t-73.5 -163l-245 -1534h-138l207 1305h-150l16 101l155 11l20 129q12 77 43 138.5t80 104t116 65t151 22.5q51 0 100.5 -6t91.5 -13.5t73.5 -15.5t46.5 -12q2 -48 -1 -93t-10 -93l-70 -440q-6 -33 -15 -71.5t-18 -74t-16 -63.5t-10 -41 q45 96 102 184t120.5 155.5t131 107.5t133.5 40q62 0 101.5 -24.5t60.5 -67t24 -100.5t-7 -124l-80 -500q-13 -79 -16 -137.5t1 -90.5h-130q-5 16 -6.5 39.5t-1 51t3 56t6.5 54.5l78 492q3 21 3 40q4 37 3 68t-10 53t-26.5 34t-46.5 12q-38 0 -84.5 -28.5t-95.5 -78 t-97.5 -117.5t-89.5 -146.5t-71.5 -164.5t-44.5 -173l-31 -192h-139l199 1249q5 27 7 50t4 43q-32 7 -80.5 13t-112.5 6z" />
<glyph unicode="&#x17f;i" horiz-adv-x="1021" d="M224 -396h-138l207 1305h-150l16 101l155 11l20 129q12 77 43 138.5t80 104t116 65t152 22.5q43 0 82 -6t71 -14.5t56.5 -18t38.5 -16.5l-43 -106q-32 13 -92.5 27.5t-136.5 14.5q-104 0 -160 -60t-72 -163zM816 1024h139l-127 -796q-13 -79 -16 -137.5t1 -90.5h-130 q-5 16 -6.5 39.5t-1 51t3 56t6.5 54.5z" />
<glyph unicode="&#x17f;j" horiz-adv-x="1024" d="M288 0h-139l144 909h-150l16 101l155 11l20 129q12 77 43 138.5t80 104t116 65t152 22.5q43 0 82 -6t71 -14.5t56.5 -18t38.5 -16.5l-43 -106q-32 13 -92.5 27.5t-136.5 14.5q-104 0 -160 -60t-72 -163zM816 1024h138l-173 -1091q-15 -98 -42 -164.5t-66.5 -107.5 t-92.5 -59t-121 -18q-49 0 -84 11t-50 19l29 108q11 -5 39 -12.5t59 -7.5q44 0 75.5 13.5t53.5 40t36 66t22 92.5z" />
<glyph unicode="&#x17f;k" horiz-adv-x="1503" d="M704 1361q-104 0 -161.5 -60t-73.5 -163l-245 -1534h-138l207 1305h-150l16 101l155 11l20 129q12 77 43 138.5t80 104t116 65t151 22.5q51 0 100.5 -6t91.5 -13.5t73.5 -15.5t46.5 -12q1 -45 -1.5 -85.5t-7.5 -84.5q0 -2 -0.5 -3t-0.5 -2q0 -3 -0.5 -5.5t-0.5 -5.5 l-113 -714q70 20 139.5 54t127 83t96.5 112.5t50 141.5q5 24 6 49.5t-1 50.5l143 20q7 -30 8 -60.5t-2 -60.5q-5 -58 -25 -107.5t-48.5 -90.5t-62 -74.5t-66 -58.5t-60.5 -42t-46 -26l217 -524h-158l-181 473q-39 -17 -79.5 -30.5t-75.5 -22.5l-67 -420h-140l199 1249 q5 27 7 50t4 43q-32 7 -80.5 13t-112.5 6z" />
<glyph unicode="&#x17f;l" horiz-adv-x="1062" d="M224 -396h-138l207 1305h-150l16 101l155 11l20 129q13 77 44 138t79.5 104t115.5 65.5t151 22.5q51 0 100.5 -6t91.5 -13.5t73.5 -15.5t46.5 -12q1 -48 -1.5 -93t-10.5 -93l-162 -1019q-13 -79 -16 -137.5t1 -90.5h-130q-5 16 -6.5 39.5t-1 51t3 56t6.5 54.5l167 1048 q4 27 6.5 50t3.5 43q-31 7 -79.5 13t-112.5 6q-104 0 -161.5 -60t-73.5 -163z" />
<glyph unicode="&#x17f;&#x17f;" horiz-adv-x="1129" d="M800 0h-138l145 909h-150l16 101l154 11l24 150q12 71 38.5 128.5t69.5 97.5t102.5 61.5t136.5 21.5q50 0 90.5 -10.5t59.5 -18.5l-34 -109q-22 7 -60 13t-79 6q-84 0 -129.5 -54t-60.5 -151zM224 -396h-138l207 1305h-150l16 101l155 11l24 150q11 71 38 128t69.5 97.5 t102.5 62t137 21.5q50 0 90 -10.5t60 -18.5l-34 -109q-22 7 -60 13t-80 6q-84 0 -129 -54t-60 -151z" />
<glyph unicode="&#xd;" horiz-adv-x="482" />
<glyph unicode=" "  horiz-adv-x="426" />
<glyph unicode="&#x09;" horiz-adv-x="426" />
<glyph unicode="&#xa0;" horiz-adv-x="426" />
<glyph unicode="!" horiz-adv-x="491" d="M468 1330l-182 -965h-107l122 965h167zM93 66q0 51 34.5 82.5t84.5 31.5q36 0 58 -24t22 -61q0 -25 -9.5 -46t-25.5 -36.5t-38 -24t-46 -8.5q-36 0 -58 24t-22 62z" />
<glyph unicode="&#x22;" horiz-adv-x="720" d="M728 1458l-100 -487h-108l55 487h153zM440 1458l-100 -487h-108l55 487h153z" />
<glyph unicode="#" horiz-adv-x="1217" d="M1120 1330l-109 -376h243l-33 -112h-242l-106 -360h243l-31 -111h-244l-107 -371h-129l107 371h-328l-107 -371h-128l107 371h-253l30 111h255l106 360h-249l31 112h250l109 376h128l-109 -376h329l111 376h126zM416 482h329l107 360h-330z" />
<glyph unicode="$" horiz-adv-x="857" d="M675 1486l-43 -223q37 -2 71 -8.5t63 -14.5t51.5 -17.5t36.5 -16.5l-46 -102q-35 14 -95.5 30t-135.5 16q-62 0 -110.5 -15.5t-82 -44t-51 -67.5t-17.5 -86q0 -35 12 -64t37.5 -54.5t64.5 -50t93 -50.5q127 -62 189.5 -133.5t62.5 -168.5q0 -73 -23 -132.5t-67 -103.5 t-108 -71.5t-146 -37.5l-29 -227h-131l43 223q-45 2 -85 10.5t-74 20.5t-60 25.5t-42 25.5l53 98q47 -25 111.5 -45.5t153.5 -20.5q129 0 199 52.5t70 154.5q0 59 -39 107t-128 98q-68 39 -122 71t-92 67.5t-58 79t-20 104.5q0 66 24.5 123.5t68.5 102t105.5 74.5t135.5 41 l28 230h132z" />
<glyph unicode="%" horiz-adv-x="1499" d="M1399 1280l-1176 -1299l-83 69l1176 1300zM1044 -20q-54 0 -96.5 21t-72 56.5t-45 83t-15.5 100.5q0 76 25.5 141.5t70.5 113.5t106 75.5t133 27.5q54 0 96.5 -21t72 -56.5t45 -83t15.5 -100.5q0 -77 -25.5 -142.5t-70.5 -113.5t-106 -75t-133 -27zM1070 78q39 0 73.5 19 t60 52.5t40.5 78.5t15 97q0 36 -8 68t-24.5 56t-42 38t-60.5 14q-39 0 -73.5 -19t-60 -53t-40.5 -79.5t-15 -97.5q0 -36 8 -67.5t24.5 -55t42 -37.5t60.5 -14zM388 731q-54 0 -96.5 21t-72 56.5t-45 83t-15.5 100.5q0 76 25.5 141.5t70.5 113.5t106 75.5t133 27.5 q54 0 96.5 -21t72 -56.5t45 -83t15.5 -100.5q0 -77 -25.5 -142.5t-70.5 -113.5t-106 -75t-133 -27zM414 829q39 0 73.5 19t60 52.5t40.5 78.5t15 97q0 36 -8 68t-24.5 56t-42 38t-60.5 14q-39 0 -73.5 -19t-60 -53t-40.5 -79.5t-15 -97.5q0 -36 8 -67.5t24.5 -55t42 -37.5 t60.5 -14z" />
<glyph unicode="&#x26;" horiz-adv-x="1148" d="M930 1106q0 -42 -13 -80.5t-34 -71.5t-47.5 -60t-53.5 -46q54 -14 102 -43.5t83.5 -73.5t56.5 -100t21 -122q0 -63 -16 -118.5t-44 -104.5t-67 -91.5t-85 -78.5l76 -142q24 -45 37 -92t13 -96q-1 -51 -13.5 -102t-37.5 -100l-103 19q12 40 18.5 72t7.5 62q3 45 -6.5 89 t-35.5 94l-68 127q-63 -32 -134 -49.5t-155 -17.5t-153.5 22.5t-119.5 63t-78 96.5t-28 123q0 133 81.5 243t235.5 183q-31 58 -51.5 98t-32.5 70.5t-17 56t-5 54.5q0 70 30.5 135t83 115t123 80t150.5 30q62 0 113.5 -17t88 -48.5t57 -77t20.5 -101.5zM635 851 q30 21 57 48.5t47.5 59t32.5 65.5t12 67q0 65 -41.5 103t-113.5 38q-49 0 -90.5 -16.5t-71.5 -45t-47 -67t-17 -81.5q0 -28 3 -52t11 -49.5t22 -55.5t36 -71l304 -575q59 45 94.5 113t35.5 149q0 120 -59.5 190t-174.5 103zM454 98q59 0 114 12.5t100 35.5l-251 475 q-51 -25 -92 -58t-69.5 -72.5t-44 -84t-15.5 -91.5q0 -50 18.5 -90t52.5 -68t81.5 -43.5t105.5 -15.5z" />
<glyph unicode="'" horiz-adv-x="432" d="M440 1458l-100 -487h-108l55 487h153z" />
<glyph unicode="(" horiz-adv-x="705" d="M360 625q-14 -118 -8 -219.5t24.5 -186.5t46 -154t58 -122.5t60 -92.5t51.5 -63l-84 -83q-23 19 -55.5 54.5t-67.5 87t-69 118t-61.5 148t-44.5 177t-17 205.5q0 161 35.5 301.5t92 258t127 213t139.5 168t130 121t99 73.5l56 -82q-33 -27 -80 -70t-99.5 -102.5 t-106 -135.5t-99 -169.5t-79.5 -204.5t-48 -240z" />
<glyph unicode=")" horiz-adv-x="745" d="M419 704q14 118 8 219.5t-24.5 186.5t-46 154t-58 122.5t-60.5 92t-52 63.5l84 83q23 -19 55.5 -54.5t67.5 -87t69.5 -118t62 -148t44.5 -177.5t17 -205q0 -161 -35.5 -301.5t-92.5 -258t-127 -213t-139.5 -168t-130 -121t-98.5 -73.5l-56 82q33 27 80 70t99.5 102.5 t106 135.5t99 169.5t79.5 204.5t48 240z" />
<glyph unicode="*" horiz-adv-x="774" d="M469 1457h127l-61 -263q61 23 124.5 47t124.5 47l17 -122l-261 -57h3l144 -191l-105 -85l-115 215l-181 -215l-80 84l205 191h3l-241 58l53 122l220 -94z" />
<glyph unicode="+" horiz-adv-x="1256" d="M775 1101l-60 -379h373l-18 -115h-373l-60 -377h-128l60 377h-371l18 115h371l60 379h128z" />
<glyph unicode="," horiz-adv-x="432" d="M-37 -246q24 17 52 41.5t51.5 57.5t37.5 74.5t11 92.5q-2 48 -17.5 81t-28.5 51l143 38q6 -7 14 -22t15.5 -36.5t12.5 -49t5 -60.5q0 -62 -22 -114t-56 -93.5t-75 -73.5t-78 -54z" />
<glyph unicode="-" horiz-adv-x="980" d="M231 590h526l-18 -115h-526z" />
<glyph unicode="." horiz-adv-x="445" d="M73 66q0 51 34.5 82.5t84.5 31.5q36 0 58 -24t22 -61q0 -25 -9.5 -46t-25.5 -36.5t-38 -24t-46 -8.5q-36 0 -58 24t-22 62z" />
<glyph unicode="/" horiz-adv-x="806" d="M1022 1547l-1043 -1797h-136l1043 1797h136z" />
<glyph unicode="0" horiz-adv-x="1222" d="M567 104q58 0 112 24.5t101.5 69t86 107.5t66.5 139.5t43.5 165.5t15.5 186q0 100 -18.5 180t-53.5 135t-87 84.5t-119 29.5q-87 0 -164 -53.5t-135 -147t-92 -219.5t-34 -271q0 -101 18.5 -180.5t54 -135t87 -85t118.5 -29.5zM539 -20q-95 0 -170.5 40t-128 110.5 t-80 168t-27.5 213.5q0 117 20 224.5t57 200.5t91 169.5t121.5 130.5t148 83.5t171.5 29.5q95 0 170.5 -40t128 -111t80.5 -168.5t28 -213.5q0 -117 -20.5 -224.5t-58 -200.5t-92 -169t-122 -130t-147.5 -83.5t-170 -29.5z" />
<glyph unicode="1" horiz-adv-x="624" d="M197 0l192 1211q-30 -4 -63.5 -8t-68 -7.5t-67.5 -6t-62 -4.5l19 120q80 6 179.5 18.5t202.5 26.5h32l-214 -1350h-150z" />
<glyph unicode="2" horiz-adv-x="957" d="M29 103l428 436q73 75 124.5 138.5t84.5 120t48 109t15 104.5q0 100 -53.5 154.5t-169.5 54.5q-39 0 -76.5 -4.5t-70 -11.5t-59.5 -15t-45 -14l-27 112q22 10 55 21t73 20.5t86 15.5t96 6q80 0 144.5 -21.5t109.5 -62.5t69.5 -100.5t24.5 -135.5q0 -71 -18.5 -136 t-54 -128t-87 -126t-118.5 -130l-385 -388h583l-19 -122h-774z" />
<glyph unicode="3" horiz-adv-x="936" d="M501 741q41 19 78 47.5t65 65.5t44.5 81.5t16.5 95.5q0 91 -54 140t-169 49q-38 0 -75.5 -5t-71 -12t-62 -15t-47.5 -14l-29 112q21 9 54 20t75 21t90 16.5t98 6.5q171 0 260 -78t89 -221q0 -69 -23 -125.5t-59 -101.5t-80.5 -79.5t-87.5 -58.5q37 -14 71 -39.5t60 -61 t41.5 -79.5t15.5 -96q0 -96 -38 -175.5t-107 -136t-165.5 -87.5t-214.5 -31q-106 0 -175.5 21t-107.5 44l54 113q30 -15 91.5 -31.5t163.5 -16.5q60 0 121 16.5t110 51t80 87.5t31 126q0 58 -19 101t-52 71.5t-79 42t-100 13.5h-101l18 122h190v0z" />
<glyph unicode="4" horiz-adv-x="1039" d="M848 918l-74 -480h192l-18 -121h-192l-51 -317h-143l51 317h-550l17 118l482 915l140 -18l-476 -894h406l75 480h141z" />
<glyph unicode="5" horiz-adv-x="961" d="M352 110q71 0 136 23.5t114.5 67t79 105t29.5 138.5q0 63 -19.5 111.5t-55 81t-85.5 49.5t-111 17q-84 0 -141 -10t-102 -20l122 657h625l-18 -121h-488l-74 -393q14 3 43.5 7t67.5 4q88 0 160.5 -25.5t124.5 -72t80.5 -112t28.5 -145.5q0 -112 -39.5 -202.5t-110 -155 t-169.5 -99.5t-217 -35q-49 0 -92.5 6t-78.5 16t-61.5 21.5t-41.5 22.5l53 113q12 -6 33.5 -14t52 -16t69 -13.5t85.5 -5.5z" />
<glyph unicode="6" horiz-adv-x="1094" d="M805 1219q-68 0 -128.5 -22t-112.5 -61t-95 -91.5t-76 -113t-55.5 -127t-33.5 -132.5q15 15 45.5 36.5t73.5 41.5t98 34t120 14q75 0 137 -23t107 -66t70 -105.5t25 -140.5q0 -102 -34.5 -190.5t-98.5 -153.5t-154.5 -102t-202.5 -37q-86 0 -152.5 31.5t-112 90 t-69 142.5t-23.5 189q0 117 20.5 230.5t60 215.5t98.5 188t136.5 149t172 98.5t206.5 35.5q38 0 71.5 -4.5t60 -10.5t45.5 -12t27 -10l-44 -120q-17 6 -61.5 16t-120.5 10zM519 104q63 0 118 23t96.5 66.5t65.5 106t24 142.5q0 64 -18 107.5t-48.5 70.5t-72 39t-88.5 12 q-50 0 -97 -12.5t-86.5 -31.5t-71 -41t-49.5 -41q-5 -29 -6.5 -56.5t-1.5 -53.5q0 -71 12.5 -131.5t40.5 -104.5t73 -69.5t109 -25.5z" />
<glyph unicode="7" horiz-adv-x="824" d="M863 1214l-628 -1214h-152l629 1209h-579l17 121h731z" />
<glyph unicode="8" horiz-adv-x="1046" d="M446 -20q-76 0 -142.5 19t-115.5 55.5t-77 89.5t-28 121q0 69 23.5 126t67 106t105.5 91.5t140 82.5q-16 9 -30.5 18.5t-27.5 20.5q-69 47 -103 106.5t-34 137.5q0 82 36.5 154t98 126t141.5 85t167 31q74 0 134 -20.5t103 -58.5t66 -91.5t23 -118.5q0 -66 -21 -118 t-56 -94t-79.5 -74.5t-90.5 -58.5q-28 -19 -61 -34q50 -26 92 -58.5t73 -71.5t48 -85t17 -100q0 -81 -39 -151.5t-104.5 -123t-150 -82.5t-175.5 -30zM230 288q0 -48 20 -83t53.5 -58t75.5 -34.5t86 -11.5q52 0 106 17t98 49t71.5 78t27.5 103q0 81 -55.5 144.5 t-158.5 112.5l-18 8q-97 -45 -157 -87t-93.5 -82t-44.5 -78.5t-11 -77.5zM845 1038q0 42 -13.5 77t-39.5 60.5t-62.5 39.5t-82.5 14q-56 0 -106 -20t-88 -54.5t-60.5 -80.5t-22.5 -97q0 -73 43.5 -129t144.5 -103l7 -4l11 5q54 26 103 56t85.5 66t58.5 78t22 92z" />
<glyph unicode="9" horiz-adv-x="1099" d="M346 110q106 0 190 47.5t145.5 125t100 175.5t53.5 200q-15 -15 -45.5 -36.5t-74 -41.5t-99 -34t-119.5 -14q-75 0 -137.5 23t-107 66t-69.5 105.5t-25 140.5q0 102 35.5 190.5t99.5 153.5t154 102t200 37q91 0 158 -31.5t111.5 -90.5t66 -142.5t21.5 -188.5 q0 -127 -19 -244t-56.5 -219t-94.5 -185.5t-132 -143t-168.5 -92.5t-205.5 -33q-86 0 -142 17t-81 29l46 117q18 -7 66.5 -20t128.5 -13zM618 1225q-63 0 -118 -22.5t-96.5 -66t-65.5 -106t-24 -142.5q0 -64 18 -107.5t48.5 -70.5t72 -39t88.5 -12q50 0 96.5 12.5t85.5 31.5 t70 41t49 41q9 55 9 108q0 70 -12 130.5t-40 105.5t-72.5 70.5t-108.5 25.5z" />
<glyph unicode=":" horiz-adv-x="455" d="M73 66q0 51 34.5 82.5t84.5 31.5q36 0 58 -24t22 -61q0 -25 -9.5 -46t-25.5 -36.5t-38 -24t-46 -8.5q-36 0 -58 24t-22 62zM210 930q0 25 9.5 46t25.5 36t37.5 23.5t46.5 8.5q36 0 58 -24t22 -61q0 -26 -9.5 -47t-25.5 -36.5t-38 -24t-46 -8.5q-36 0 -58 24.5t-22 62.5z " />
<glyph unicode=";" horiz-adv-x="400" d="M155 930q0 25 9.5 46t25.5 36t37.5 23.5t46.5 8.5q36 0 58 -24t22 -61q0 -26 -9.5 -47t-25.5 -36.5t-38 -24t-46 -8.5q-36 0 -58 24.5t-22 62.5zM-37 -246q24 17 52 41.5t51.5 57.5t37.5 74.5t11 92.5q-2 48 -17.5 81t-28.5 51l143 38q6 -7 14 -22t15.5 -36.5t12.5 -49 t5 -60.5q0 -62 -22 -114t-56 -93.5t-75 -73.5t-78 -54z" />
<glyph unicode="&#x3c;" horiz-adv-x="999" d="M876 1028l-537 -363l422 -363l-90 -90l-523 453l666 453z" />
<glyph unicode="=" horiz-adv-x="1246" d="M272 897h827l-19 -115h-827zM216 549h827l-18 -115h-827z" />
<glyph unicode="&#x3e;" horiz-adv-x="978" d="M173 302l537 363l-422 363l89 90l524 -453l-667 -453z" />
<glyph unicode="?" horiz-adv-x="680" d="M180 361q-11 68 -6.5 126.5t26 110t60.5 99t96 92.5q55 43 96 77t68.5 66t41.5 65.5t14 75.5q0 74 -56 115t-160 41q-52 0 -100.5 -6t-78.5 -14l19 120q33 7 82.5 14t106.5 7q78 0 140.5 -19.5t106.5 -53.5t67.5 -80t23.5 -99q0 -69 -20 -120t-57 -95.5t-89 -86.5 t-116 -92q-45 -35 -74.5 -69.5t-46.5 -73t-22.5 -83.5t-1.5 -102zM113 66q0 51 34.5 82.5t84.5 31.5q36 0 58 -24t22 -61q0 -25 -9.5 -46t-25.5 -36.5t-38 -24t-46 -8.5q-36 0 -58 24t-22 62z" />
<glyph unicode="@" horiz-adv-x="2025" d="M1430 -14q-37 0 -71 12.5t-59.5 39t-40.5 68t-14 98.5q-2 45 6 98t27 114q-44 -99 -97 -179.5t-111 -137.5t-119 -88t-120 -31q-48 0 -89 21t-71 61.5t-46.5 100.5t-16.5 138q0 88 15.5 177.5t46 172t75.5 154t104 125t132 84t159 30.5q68 0 125.5 -26t102.5 -61l20 73 h118l-29 -185q-21 -132 -42 -262.5t-42 -261.5q-18 -114 1.5 -162.5t73.5 -48.5q59 0 121.5 49t114 136t84.5 206.5t33 260.5q0 132 -39 242t-116.5 189t-193.5 123t-269 44q-139 0 -263 -39.5t-228 -109.5t-187 -166.5t-141 -210t-88.5 -239.5t-30.5 -256q0 -146 39 -264 t111.5 -201.5t176 -128.5t232.5 -45q53 0 103.5 7.5t93 17.5t73 20t43.5 15l27 -101q-14 -6 -48 -18.5t-83 -25t-109.5 -22t-126.5 -9.5q-157 0 -283.5 53t-215.5 149t-137 231t-48 299q0 148 36 292t104 273.5t167 239t224 189.5t275 125t321 45q172 0 307.5 -53.5 t230 -147.5t144.5 -223.5t50 -280.5q0 -115 -21.5 -218t-59.5 -190.5t-90 -158t-112 -120t-126.5 -76t-132.5 -26.5zM873 110q31 0 68.5 21.5t78 60.5t81.5 94.5t79.5 124t72.5 148t59 167.5q8 23 14 46.5t11 46.5q-8 11 -26.5 29.5t-46 36.5t-62.5 31t-77 13 q-59 0 -109.5 -28t-91 -75.5t-71.5 -109.5t-52.5 -130.5t-32 -139t-10.5 -133.5q0 -100 29 -151.5t86 -51.5z" />
<glyph unicode="A" horiz-adv-x="1107" d="M804 361h-526l-183 -361h-154l683 1330h144l258 -1330h-153zM336 477h448l-114 691z" />
<glyph unicode="B" horiz-adv-x="1087" d="M96 0l210 1330h367q85 0 152.5 -19t114.5 -55.5t71.5 -89.5t24.5 -121q0 -63 -22.5 -119t-57 -101t-75 -78t-75.5 -51q39 -14 73 -40t60 -63t41 -83t15 -99q0 -96 -34 -172.5t-99 -129.5t-161 -81t-220 -28h-385zM341 626l-83 -508h238q76 0 139 16.5t109 51t71.5 87.5 t25.5 126q0 50 -15 91.5t-46.5 71.5t-80 47t-115.5 17h-243zM359 741h332q30 15 63.5 43t62 65.5t47 82.5t18.5 94q0 97 -60.5 141.5t-174.5 44.5h-214z" />
<glyph unicode="C" horiz-adv-x="1040" d="M126 527q0 177 49.5 327.5t139.5 261t216.5 172.5t281.5 62q45 0 87.5 -6t78 -15.5t63 -20t42.5 -19.5l-52 -108q-38 13 -98 27.5t-140 14.5q-110 0 -203.5 -50t-162 -139.5t-107.5 -213t-39 -271.5q0 -104 23 -186t70 -139t118.5 -87t168.5 -30q36 0 71.5 5t68 13t60 17 t47.5 18l21 -110q-59 -32 -140 -51t-168 -19q-120 0 -212.5 40t-155.5 112t-95.5 172.5t-32.5 222.5z" />
<glyph unicode="D" horiz-adv-x="1224" d="M96 0l210 1330h348q126 0 220.5 -39.5t157.5 -110.5t94.5 -170t31.5 -217q0 -179 -52.5 -325t-149.5 -250t-233.5 -161t-305.5 -57h-321zM446 118q116 0 217 43t175.5 126.5t117.5 206t43 281.5q0 100 -24 181t-71.5 138t-118 87.5t-162.5 30.5h-190l-175 -1094h188z" />
<glyph unicode="E" horiz-adv-x="972" d="M987 1208h-550l-76 -478h530l-19 -121h-530l-79 -487h570l-18 -122h-719l210 1330h700z" />
<glyph unicode="F" horiz-adv-x="928" d="M968 1208h-531l-76 -478h492l-19 -121h-492l-97 -609h-149l210 1330h681z" />
<glyph unicode="G" horiz-adv-x="1157" d="M999 75q-30 -20 -70.5 -37.5t-87.5 -30.5t-98.5 -20t-103.5 -7q-126 0 -222 40t-160.5 112t-97.5 172.5t-33 222.5q0 177 50 327.5t143 261t227 172.5t302 62q90 0 166 -20t127 -49l-59 -105q-43 18 -108 32.5t-145 14.5q-123 0 -224 -50t-172.5 -139.5t-111 -213 t-39.5 -271.5q0 -104 23 -186t71.5 -139t123 -87t176.5 -30q58 0 105.5 11t79.5 25l68 426l-258 3l18 110h407z" />
<glyph unicode="H" horiz-adv-x="1257" d="M968 609h-626l-97 -609h-149l210 1330h150l-95 -600h626l95 600h149l-210 -1330h-150z" />
<glyph unicode="I" horiz-adv-x="482" d="M307 1330h149l-210 -1330h-150z" />
<glyph unicode="J" horiz-adv-x="709" d="M683 1330l-164 -1036q-25 -152 -113 -233t-233 -81q-63 0 -110.5 18t-70.5 37l52 109q25 -14 61 -24.5t84 -10.5q73 0 119.5 45t59.5 127l165 1049h150z" />
<glyph unicode="K" horiz-adv-x="1079" d="M1058 1304q12 -116 -14 -214.5t-80 -179.5t-130.5 -144.5t-166.5 -110.5l276 -655h-160l-247 596q-53 -20 -105 -34t-103 -24l-85 -538h-147l210 1330h148l-106 -667q92 21 185 59.5t171 100t132 149.5t68 208q6 36 7.5 74.5t-0.5 75.5h146q0 -2 0.5 -8.5t0.5 -17.5z" />
<glyph unicode="L" horiz-adv-x="868" d="M774 0h-678l211 1330h149l-192 -1208h528z" />
<glyph unicode="M" horiz-adv-x="1555" d="M306 1330h217l239 -964l541 964h226l-211 -1330h-137l187 1184l-573 -1010h-118l-257 1010l-187 -1184h-137z" />
<glyph unicode="N" horiz-adv-x="1259" d="M415 1148l-182 -1148h-137l210 1330h181l427 -1149l182 1149h137l-210 -1330h-181z" />
<glyph unicode="O" horiz-adv-x="1328" d="M620 104q98 0 186 53.5t154.5 147t105.5 220t39 271.5q0 98 -22 177t-65 135t-106 86.5t-145 30.5q-98 0 -186 -53.5t-154.5 -147t-105.5 -219.5t-39 -271q0 -98 22 -177.5t65 -135.5t106 -86.5t145 -30.5zM589 -20q-106 0 -191.5 40t-146 110.5t-93 168t-32.5 213.5 t22 223.5t64 200.5t101.5 169.5t134 130.5t163 84t187.5 30q106 0 192 -40t146.5 -111t93 -168.5t32.5 -213.5t-22 -223.5t-64 -200.5t-101.5 -169t-134 -130.5t-163.5 -84t-188 -29.5z" />
<glyph unicode="P" horiz-adv-x="1007" d="M96 0l210 1330h360q85 0 152.5 -23t115 -65.5t72.5 -104t25 -137.5q0 -108 -36.5 -195t-102.5 -148.5t-158 -94.5t-204 -33h-200l-85 -529h-149zM438 1212l-90 -565h210q71 0 128.5 23.5t98.5 67.5t63.5 105.5t22.5 138.5q0 112 -58 171t-174 59h-201z" />
<glyph unicode="Q" horiz-adv-x="1328" d="M589 -17q-106 0 -191.5 40t-146 110.5t-93 168t-32.5 213.5t22 223.5t64 200.5t101.5 169.5t134 130.5t163 84t187.5 30q106 0 192 -40t146.5 -111t93 -168.5t32.5 -213.5q0 -114 -21.5 -219t-61 -196.5t-97 -167.5t-129.5 -131q55 -109 101 -185t91 -123.5t92.5 -69 t104.5 -21.5q22 0 46.5 4t47 10t42 12.5t31.5 11.5l29 -108q-18 -9 -42 -18t-51.5 -17t-58.5 -13t-63 -5q-77 0 -137.5 23.5t-115.5 77.5t-109.5 140.5t-120.5 212.5q-116 -55 -251 -55zM620 107q98 0 186 53.5t154.5 147t105.5 220t39 271.5q0 97 -22 176.5t-65 135.5 t-106 86.5t-145 30.5q-98 0 -186 -53.5t-154.5 -147t-105.5 -219.5t-39 -271q0 -98 22 -177.5t65 -135.5t106 -86.5t145 -30.5z" />
<glyph unicode="R" horiz-adv-x="1064" d="M96 0l210 1330h380q86 0 154 -22t115.5 -63.5t72.5 -101.5t25 -135t-30 -142.5t-79 -123.5t-111.5 -98.5t-128.5 -67.5l82 -385q13 -59 40 -78t67 -19q19 0 39 3t34 6l1 -103q-21 -8 -51.5 -14t-68.5 -6q-37 0 -69 9t-58 29.5t-45 54t-29 82.5l-81 395h-235l-87 -550 h-147zM436 1212l-87 -544h306q44 16 86.5 46t76.5 71t54.5 92.5t20.5 110.5q0 106 -58 165t-175 59h-224z" />
<glyph unicode="S" horiz-adv-x="935" d="M90 160q51 -20 123.5 -36.5t174.5 -16.5q69 0 125.5 16.5t96.5 47.5t62 76.5t22 102.5q0 38 -12 69t-37 59t-64 55t-93 57l-111 62q-88 49 -139.5 120.5t-51.5 178.5q0 90 37 163.5t101 126t149 81t180 28.5q45 0 85 -5t73.5 -12t60.5 -15.5t46 -15.5l-38 -116 q-19 6 -45.5 12.5t-59 12t-69 9t-75.5 3.5q-65 0 -119.5 -18t-94.5 -50.5t-62.5 -78t-22.5 -101.5q0 -37 8.5 -67.5t27 -57t48.5 -50t73 -47.5l117 -65q57 -32 101 -65.5t74 -72t45.5 -82t15.5 -95.5q0 -90 -33.5 -162.5t-95.5 -124t-149.5 -79t-195.5 -27.5q-54 0 -103 6 t-90 15.5t-73.5 21t-54.5 22.5z" />
<glyph unicode="T" horiz-adv-x="976" d="M184 1330h876l-18 -122h-364l-190 -1208h-150l192 1208h-364z" />
<glyph unicode="U" horiz-adv-x="1185" d="M300 524q-14 -85 -12 -160.5t28.5 -132t81.5 -89.5t147 -33q69 0 129.5 28t107.5 79.5t79.5 124t46.5 161.5l132 828h149l-128 -814q-20 -126 -66 -225.5t-115.5 -168.5t-161.5 -105.5t-204 -36.5q-122 0 -201 41t-121 112.5t-51.5 168.5t8.5 208l129 820h150z" />
<glyph unicode="V" horiz-adv-x="1129" d="M1253 1330l-682 -1330h-157l-258 1330h157l207 -1133l564 1133h169z" />
<glyph unicode="W" horiz-adv-x="1739" d="M1853 1330l-585 -1330h-170l-128 1081l-471 -1081h-168l-165 1330h153l126 -1161l490 1131h137l136 -1131l486 1161h159z" />
<glyph unicode="X" horiz-adv-x="1119" d="M1017 0h-155l-272 569l-452 -569h-167l553 683l-308 647h157l246 -542l424 542h165l-523 -656z" />
<glyph unicode="Y" horiz-adv-x="965" d="M414 514l-283 816h141l231 -679l448 679h153l-541 -816v1l-82 -515h-150z" />
<glyph unicode="Z" horiz-adv-x="976" d="M829 1208h-609l19 122h781l-18 -110l-824 -1098h686l-18 -122h-855l16 110z" />
<glyph unicode="[" horiz-adv-x="656" d="M486 -272l-373 -7l298 1884h372l-17 -109l-237 -5l-261 -1654h235z" />
<glyph unicode="\" horiz-adv-x="1132" d="M151 1547l1043 -1797h-136l-1043 1797h136z" />
<glyph unicode="]" horiz-adv-x="626" d="M204 1598l373 7l-298 -1884h-372l17 109l237 5l261 1654h-235z" />
<glyph unicode="^" horiz-adv-x="1033" d="M143 795l451 685h130l236 -685h-143l-180 540l-351 -540h-143z" />
<glyph unicode="_" horiz-adv-x="1496" d="M173 -77h1006l-18 -115h-1006z" />
<glyph unicode="`" horiz-adv-x="675" d="M606 1209l-406 159l74 129l380 -203z" />
<glyph unicode="a" horiz-adv-x="1048" d="M713 201q4 26 13 61.5t18.5 71t18.5 66t12 46.5q-40 -88 -93.5 -171.5t-113.5 -149t-124.5 -105.5t-125.5 -40q-48 0 -88.5 21t-70.5 61.5t-46.5 100.5t-16.5 138q0 88 15.5 177.5t45.5 172t75 154t104 125t132 84t160 30.5q70 0 126 -28t98 -64l25 92h112 q-9 -54 -17.5 -107.5t-16.5 -107.5l-96 -601q-12 -79 -15.5 -137.5t0.5 -90.5h-133q-5 16 -6.5 39.5t-1 51t3 56t6.5 54.5zM361 110q29 0 66 22.5t78 64t83.5 99t82 127.5t74.5 150.5t60 167.5q8 23 14 45.5t10 45.5q-11 11 -31.5 27t-48 31t-61 25.5t-69.5 10.5 q-61 0 -112 -27.5t-92.5 -74.5t-73 -109t-52.5 -130t-32 -138t-11 -134q0 -100 29 -151.5t86 -51.5z" />
<glyph unicode="b" horiz-adv-x="1044" d="M232 823l69 426q11 66 13 113.5t-3 90.5l131 27q5 -14 8 -36.5t3.5 -49t-1.5 -55t-6 -54.5l-75 -462q-5 -29 -12 -63t-14 -65.5t-13 -57.5t-8 -38q37 82 87 162t108 143t121 101.5t126 38.5q48 0 88.5 -21t70.5 -61.5t46.5 -100.5t16.5 -138q0 -88 -15.5 -177.5t-46 -172 t-75.5 -154t-104 -125t-132.5 -84t-159.5 -30.5q-54 0 -107 9.5t-98.5 23.5t-81 28.5t-56.5 25.5zM467 97q60 0 110.5 28t91.5 75t72.5 109t53 130t32.5 138t11 134q0 100 -29 151.5t-86 51.5q-43 0 -101 -47.5t-118 -132.5t-116.5 -203t-96.5 -259q-9 -30 -16 -60t-14 -61 q9 -6 29.5 -15t48 -17.5t60.5 -15t68 -6.5z" />
<glyph unicode="c" horiz-adv-x="814" d="M788 885q-10 3 -26.5 8.5t-39 11t-50 9t-57.5 3.5q-60 0 -110.5 -27.5t-91.5 -74t-72 -107.5t-52.5 -128t-32 -136t-10.5 -131q0 -97 35 -153t112 -56q37 0 77.5 8t79 20.5t73.5 27t62 27.5l33 -107q-27 -15 -65 -32.5t-85 -32.5t-102 -25t-117 -10q-57 0 -103.5 21 t-80 62t-51.5 101t-18 137q0 88 15.5 177.5t46 172t75.5 154t105 125t134 84t162 30.5q34 0 65 -5t57 -12t45.5 -14.5t30.5 -12.5z" />
<glyph unicode="d" horiz-adv-x="1053" d="M713 201q4 27 13 62.5t18.5 70.5t18.5 65.5t12 46.5q-40 -88 -93.5 -172t-113.5 -149t-124.5 -105t-125.5 -40q-48 0 -88.5 21t-70.5 61.5t-46.5 100.5t-16.5 138q0 88 15.5 177.5t45.5 172t75 154t104 125t132 84t160 30.5q64 0 116.5 -23.5t93.5 -55.5l46 284 q10 66 12.5 113.5t-2.5 90.5l130 27q6 -14 9 -36.5t3.5 -49t-2 -55t-6.5 -54.5l-168 -1057q-12 -79 -15.5 -137.5t0.5 -90.5h-134q-5 16 -6.5 39.5t-1 51t3 56t6.5 54.5zM361 110q32 0 73.5 27t86.5 75.5t91.5 116t88 147.5t75.5 170.5t54 185.5q-11 12 -31.5 28t-48.5 30.5 t-61.5 25t-69.5 10.5q-61 0 -112 -27.5t-92.5 -74.5t-73 -109t-52.5 -130t-32 -138t-11 -134q0 -100 29 -151.5t86 -51.5z" />
<glyph unicode="e" horiz-adv-x="885" d="M855 835q0 -83 -42 -151.5t-120 -119.5t-188.5 -82.5t-247.5 -40.5q-6 -33 -8.5 -65.5t-2.5 -62.5q0 -97 36.5 -153t119.5 -56q40 0 82.5 8t83 21t77.5 27.5t66 28.5l27 -110q-27 -15 -65.5 -32.5t-86.5 -32.5t-105.5 -24.5t-121.5 -9.5q-60 0 -108.5 21t-83 62t-53 101 t-18.5 137q0 88 16 177.5t46.5 172t75 154t102.5 125t128.5 84t152.5 30.5q58 0 102.5 -15.5t74.5 -43t45.5 -66t15.5 -84.5zM605 927q-63 0 -115.5 -33.5t-94 -89t-72 -127t-49.5 -146.5q91 13 169.5 39t136.5 63.5t91.5 85t33.5 103.5q0 22 -5.5 41t-17.5 33t-31 22.5 t-46 8.5z" />
<glyph unicode="f" horiz-adv-x="616" d="M455 1184q-3 -21 -4 -45.5t-1.5 -47.5t-0.5 -41.5v-25.5h252l-18 -115h-251l-208 -1305h-138l207 1305h-150l16 101l155 11v35t1 45t3 49t5 49q20 142 113 211.5t242 69.5q50 0 93.5 -10.5t63.5 -18.5l-34 -109q-22 7 -60 13t-80 6q-84 0 -139 -43t-67 -134z" />
<glyph unicode="g" horiz-adv-x="1051" d="M694 4q11 68 20.5 138.5t22.5 142.5l38 160q-40 -87 -93.5 -171t-113.5 -149t-124 -105t-126 -40q-48 0 -88.5 21t-70.5 61.5t-46.5 100.5t-16.5 138q0 88 15.5 177.5t45.5 172t75 154t104 125t132 84t160 30.5q35 0 66.5 -7.5t59.5 -20.5t52.5 -29t45.5 -34l24 91h113 l-36 -225q-25 -158 -43 -276t-30.5 -208t-21.5 -156.5t-17 -121.5q-17 -115 -47.5 -203t-85.5 -148t-140 -91t-210 -31q-56 0 -104.5 7.5t-88 18.5t-68.5 23.5t-46 22.5l35 111q21 -10 49.5 -21.5t64.5 -21t78.5 -16t90.5 -6.5q73 0 129 21t95.5 60t64.5 95t36 126zM361 110 q29 0 66 22.5t78 63.5t83.5 98.5t82 127.5t74 150t60.5 166q15 45 24 94q-11 11 -31.5 27t-48 31t-61 25.5t-69.5 10.5q-61 0 -112 -27.5t-92.5 -74.5t-73 -109t-52.5 -130t-32 -138t-11 -134q0 -100 29 -151.5t86 -51.5z" />
<glyph unicode="h" horiz-adv-x="1075" d="M305 1249q10 66 12.5 113.5t-2.5 90.5l130 27q6 -14 8.5 -36.5t3 -49t-1.5 -55t-6 -54.5q-15 -94 -31.5 -197t-34 -201t-35 -184t-33.5 -146q45 96 101.5 184t120.5 155.5t131.5 107.5t133.5 40q62 0 101.5 -24.5t60 -67t23.5 -100.5t-7 -124l-79 -500 q-13 -79 -16 -137.5t1 -90.5h-130q-5 16 -6.5 39.5t-1 51t3 56t6.5 54.5l78 492q7 45 8 83t-7 65.5t-27 43t-51 15.5q-38 0 -84.5 -28.5t-95.5 -78t-97.5 -117.5t-89.5 -146.5t-71.5 -164.5t-44.5 -173l-31 -192h-139z" />
<glyph unicode="i" horiz-adv-x="472" d="M267 1024h139l-127 -796q-13 -79 -16 -137.5t1 -90.5h-129q-5 16 -6.5 39.5t-1.5 51t2.5 56t6.5 54.5zM288 1335q0 51 34.5 82.5t84.5 31.5q36 0 58 -24t22 -61q0 -26 -9.5 -47t-26 -36t-38.5 -23.5t-46 -8.5q-36 0 -57.5 24t-21.5 62z" />
<glyph unicode="j" horiz-adv-x="475" d="M290 1335q0 51 34.5 82.5t84.5 31.5q36 0 58 -24t22 -61q0 -26 -9.5 -47t-25.5 -36t-38 -23.5t-46 -8.5q-37 0 -58.5 24t-21.5 62zM270 1024h138l-173 -1091q-15 -98 -42 -164.5t-66.5 -107.5t-92.5 -59t-121 -18q-49 0 -84 11t-50 19l29 108q11 -5 39 -12.5t59 -7.5 q44 0 75.5 13.5t53.5 40t36 66t22 92.5z" />
<glyph unicode="k" horiz-adv-x="922" d="M305 1249q11 66 13 113.5t-3 90.5l131 27q5 -14 8 -36.5t3.5 -49t-1.5 -55t-6 -54.5l-119 -752q70 20 139.5 54t127 83t96.5 112.5t50 141.5q5 24 6 49.5t-1 50.5l143 20q7 -30 8 -60.5t-2 -60.5q-5 -58 -25 -107.5t-48.5 -90.5t-62 -74.5t-66 -58.5t-60.5 -42t-46 -26 l217 -524h-158l-181 473q-39 -17 -79.5 -30.5t-75.5 -22.5l-67 -420h-140z" />
<glyph unicode="l" horiz-adv-x="473" d="M303 1249q11 66 13.5 113.5t-2.5 90.5l130 27q6 -14 8.5 -36.5t3 -49t-1.5 -55t-6 -54.5l-169 -1057q-13 -79 -16 -137.5t1 -90.5h-129q-5 16 -6.5 39.5t-1.5 51t2.5 56t6.5 54.5z" />
<glyph unicode="m" horiz-adv-x="1655" d="M817 704q6 43 6.5 79t-8 62t-26 41t-47.5 15q-36 0 -81 -28.5t-92.5 -78t-94 -117.5t-86 -146.5t-69.5 -164.5t-43 -173l-31 -192h-139l127 796q11 74 15 134.5t2 93.5h133q4 -17 5.5 -40t1 -50t-3.5 -55.5t-7 -55.5q-6 -35 -15 -74.5t-19 -76.5t-18 -67.5t-12 -46.5 q43 96 98 184t116.5 155t126.5 107t129 40q61 0 99.5 -24.5t59 -67.5t23.5 -100.5t-7 -123.5q-3 -19 -9 -42.5t-12.5 -47t-13 -44.5t-9.5 -34q43 96 98 183.5t116.5 154t126.5 106.5t128 40q61 0 99.5 -24.5t59 -67t23.5 -100.5t-7 -124l-80 -500q-13 -79 -16 -137.5 t1 -90.5h-129q-5 16 -6.5 39.5t-1.5 51t2.5 56t6.5 54.5l78 492q2 11 2.5 21t0.5 19q4 37 3 68t-9.5 53t-25.5 34t-44 12q-37 0 -82 -28.5t-92.5 -78t-94 -117.5t-86 -146.5t-69.5 -164.5t-43 -173l-30 -192h-139l111 703v0z" />
<glyph unicode="n" horiz-adv-x="1075" d="M383 1024q4 -17 5.5 -40t1 -50t-3.5 -55.5t-7 -55.5q-6 -35 -15.5 -75.5t-19 -78t-18 -67.5t-11.5 -45q45 96 101.5 184t120.5 155.5t131.5 107.5t133.5 40q62 0 101.5 -24.5t60 -67t23.5 -100.5t-7 -124l-79 -500q-13 -79 -16 -137.5t1 -90.5h-130q-5 16 -6.5 39.5 t-1 51t3 56t6.5 54.5l78 492q7 45 8 83t-7 65.5t-27 43t-51 15.5q-38 0 -84.5 -28.5t-95.5 -78t-97.5 -117.5t-89.5 -146.5t-71.5 -164.5t-44.5 -173l-31 -192h-139l127 796q8 56 12.5 104.5t5.5 84.5q1 12 0.5 22t-1.5 17h133z" />
<glyph unicode="o" horiz-adv-x="991" d="M409 -20q-70 0 -127.5 24.5t-99 71t-64 113.5t-22.5 151q0 152 39.5 281t110 223t167 147t210.5 53q70 0 127.5 -24.5t98.5 -71t63.5 -113.5t22.5 -151q0 -152 -39.5 -281t-110 -223t-166.5 -147t-210 -53zM435 97q70 0 133.5 45.5t111.5 123.5t76.5 181t28.5 219 q0 135 -48.5 198t-140.5 63q-70 0 -133.5 -45.5t-111.5 -123.5t-76.5 -181.5t-28.5 -218.5q0 -135 48.5 -198t140.5 -63z" />
<glyph unicode="p" horiz-adv-x="1056" d="M380 1024q4 -17 5.5 -40t1 -50t-3 -55.5t-6.5 -55.5q-4 -26 -13 -62t-19 -71t-19 -65.5t-13 -46.5q40 88 93.5 171.5t114 149t124.5 105.5t126 40q48 0 88.5 -21t70.5 -61.5t46.5 -100.5t16.5 -138q0 -88 -15.5 -177.5t-45.5 -172t-75 -154t-104 -125t-132 -84 t-159 -30.5q-65 0 -117.5 23.5t-92.5 55.5l-74 -455h-139l191 1192q11 74 15.5 134.5t2.5 93.5h132zM729 914q-32 0 -73.5 -27t-87 -75.5t-92 -116t-88 -147.5t-75 -170.5t-53.5 -185.5q11 -12 31.5 -28t48.5 -30.5t61 -25t69 -10.5q61 0 112.5 27.5t93 74.5t72.5 109 t52.5 130t32 138t10.5 134q0 100 -28.5 151.5t-85.5 51.5z" />
<glyph unicode="q" horiz-adv-x="1036" d="M754 -396h-139l95 583q5 31 12.5 66t14.5 68t13 60.5t9 43.5q-37 -83 -87 -162.5t-107.5 -142.5t-120.5 -101.5t-126 -38.5q-48 0 -88.5 21t-70.5 61.5t-46.5 100.5t-16.5 138q0 88 15.5 177.5t46 172t75.5 154t104 125t132 84t159 30.5q55 0 107.5 -9.5t98.5 -23.5 t81.5 -29t55.5 -25zM617 927q-59 0 -110 -28t-92 -75t-72.5 -109t-53 -130t-32.5 -138.5t-11 -133.5q0 -100 29 -151.5t86 -51.5q42 0 100 47.5t118.5 132.5t117 203t96.5 259q9 30 16 60t14 61q-9 6 -29.5 15t-48 17.5t-60.5 15t-68 6.5z" />
<glyph unicode="r" horiz-adv-x="723" d="M383 1024q4 -17 5.5 -40t1 -50t-3.5 -55.5t-7 -55.5q-3 -21 -9 -49t-12.5 -55t-12 -50t-7.5 -34q26 63 59.5 133.5t76.5 130t95.5 99.5t117.5 44q22 2 43 -1.5t37 -8.5l-27 -157q-30 9 -68 4q-47 -5 -90.5 -34.5t-83.5 -78t-74.5 -113t-63 -139.5t-50 -157t-34.5 -165 l-31 -192h-139l127 796q8 56 12.5 104.5t5.5 84.5q1 12 0.5 22t-1.5 17h133z" />
<glyph unicode="s" horiz-adv-x="739" d="M79 143q18 -6 43.5 -13t56 -13t64 -10t67.5 -4q41 0 78 8t64.5 25t43.5 43.5t16 64.5q0 33 -9.5 60t-31 53.5t-57 56.5t-87.5 69q-57 43 -94.5 78.5t-59.5 68t-30.5 65t-8.5 69.5q0 60 23.5 111t68 88.5t107.5 59t142 21.5q85 0 145 -13.5t83 -21.5l-25 -121 q-30 8 -86 18.5t-129 10.5q-44 0 -78.5 -11t-58.5 -30t-36.5 -43.5t-12.5 -52.5q0 -33 8 -58t25.5 -48t45.5 -47t69 -55q59 -45 102.5 -83.5t72 -75t42 -73t13.5 -77.5q0 -60 -21 -111.5t-64.5 -90t-110.5 -60t-158 -21.5q-85 0 -150.5 15t-104.5 31z" />
<glyph unicode="t" horiz-adv-x="708" d="M432 1024h273l-18 -115h-271l-97 -613q-9 -56 -10 -93t8.5 -59.5t30.5 -32t56 -9.5q25 0 52.5 5t54.5 13t51.5 16.5t44.5 16.5l27 -108q-20 -10 -50 -21.5t-65.5 -21t-74.5 -16t-78 -6.5q-128 0 -171 74t-19 222l100 633h-150l16 101l155 11l42 231l132 17z" />
<glyph unicode="u" horiz-adv-x="1055" d="M712 0q-4 16 -5.5 39.5t-1 50.5t3 55.5t7.5 55.5q6 35 15 75t18.5 77t18 67.5t11.5 45.5q-43 -96 -97.5 -184t-116 -155t-127 -107t-128.5 -40q-61 0 -100 24.5t-59 67t-23.5 100.5t7.5 124l79 500q13 79 16 137.5t-1 90.5h130q4 -16 6 -39.5t1.5 -51t-3 -56.5t-6.5 -54 l-78 -492q-7 -45 -8 -83t7 -65.5t26 -43t49 -15.5q37 0 81.5 28.5t92 78t94 117.5t86 146.5t69 164.5t43.5 173l31 192h139l-127 -796q-9 -56 -13.5 -104.5t-4.5 -84.5q-1 -12 -0.5 -22t0.5 -17h-132z" />
<glyph unicode="v" horiz-adv-x="880" d="M835 1044q9 -25 16.5 -65.5t7.5 -91.5q0 -112 -38 -230.5t-107 -234.5t-166.5 -224t-216.5 -198h-119l-50 803q-5 74 -13 133t-18 88h138q10 -29 17.5 -66t10.5 -82l44 -724q78 69 145.5 153t117 179t77.5 197.5t28 208.5q0 36 -4 70.5t-12 63.5z" />
<glyph unicode="w" horiz-adv-x="1412" d="M1352 1044q10 -27 19.5 -69.5t9.5 -96.5q0 -112 -32 -228.5t-93 -229.5t-151 -220t-205 -200h-139l-39 465q-55 -130 -139 -247.5t-198 -217.5h-138l-69 803q-6 74 -16 133t-21 88h138q11 -29 18.5 -66t11.5 -82l59 -755q68 73 124 152.5t98 163.5t69 170.5t36 173.5 q-10 91 -21.5 144.5t-19.5 80.5l164 18q9 -27 18.5 -69.5t9.5 -96.5q0 -21 -1.5 -41.5t-3.5 -41.5q-1 -22 -1.5 -43t-2.5 -41l46 -570q80 83 145 174t110.5 187t70.5 195t25 198q0 42 -4 79t-16 70z" />
<glyph unicode="x" horiz-adv-x="909" d="M821 0h-152l-210 424l-335 -424h-159l423 525l-229 499h152l177 -401l297 401h159l-383 -504z" />
<glyph unicode="y" horiz-adv-x="906" d="M373 224q3 -69 -0.5 -128.5t-11.5 -113.5l64 93q65 85 121.5 183.5t98.5 204t66.5 214t24.5 213.5q0 36 -4 70.5t-13 63.5l142 20q9 -25 16.5 -65.5t7.5 -91.5q0 -138 -47.5 -289.5t-132.5 -306t-203 -307t-258 -293.5q-47 -54 -107 -80.5t-131 -26.5q-53 0 -89.5 11.5 t-55.5 22.5l33 108q18 -9 46.5 -16.5t59.5 -7.5q54 0 99.5 22t78 77.5t48 151t9.5 242.5q-4 97 -10.5 192t-14.5 182t-16.5 163t-16 135.5t-14 100t-9.5 56.5h138q6 -28 17 -95t23 -169.5t23 -237.5t18 -298z" />
<glyph unicode="z" horiz-adv-x="816" d="M-1 49l626 860h-449l18 115h614l-16 -103l-532 -734q13 -22 33.5 -37.5t45.5 -25.5t53.5 -14.5t57.5 -4.5q31 0 64 8t65 20t61 26.5t52 28.5l36 -115q-24 -15 -55.5 -31.5t-70 -30t-82 -22.5t-91.5 -9q-49 0 -87 12.5t-66 33.5t-47 47.5t-29 55.5l-111 -149z" />
<glyph unicode="{" horiz-adv-x="738" d="M479 1360q-5 -48 7.5 -90t29.5 -77q13 -30 28 -59.5t28 -59.5t21 -62.5t8 -68.5q0 -49 -17.5 -93t-47.5 -80.5t-70 -64t-84 -42.5q32 -12 58.5 -33t45 -47.5t29 -57.5t10.5 -63q0 -43 -13.5 -81.5t-35 -75t-49.5 -71.5t-56 -69q-20 -24 -40 -49t-36.5 -51.5t-27 -55 t-10.5 -58.5q0 -58 34.5 -95t100.5 -37q30 0 61.5 5t57.5 13l8 -108q-24 -9 -66 -17t-94 -8q-55 0 -98.5 17.5t-74 48t-47 71.5t-16.5 88q0 42 12 79t31.5 71t45 67t53.5 67q24 29 46.5 57t40 56.5t28.5 58.5t11 62q0 31 -10.5 60t-32.5 51t-56.5 35t-82.5 13h-22l18 116h28 q57 0 100.5 18t72.5 46.5t44 64t15 70.5q0 54 -20 102.5t-42 96.5q-23 48 -41.5 96.5t-18.5 101.5q0 63 24.5 119t69 97.5t106 66t136.5 24.5q40 0 77.5 -9t58.5 -17l-43 -108q-24 8 -55 13.5t-71 5.5q-33 0 -62 -12t-51.5 -33t-36.5 -48t-17 -57z" />
<glyph unicode="|" horiz-adv-x="502" d="M479 1523l-320 -2022h-136l320 2022h136z" />
<glyph unicode="}" horiz-adv-x="768" d="M343 -31q5 48 -8 89.5t-30 77.5q-14 30 -28.5 59.5t-27 60t-20.5 62.5t-8 68q0 49 17.5 93t47.5 80.5t69.5 64t83.5 42.5q-32 12 -58 33t-45 47.5t-29.5 57.5t-10.5 63q0 43 13.5 81.5t35.5 75t49.5 71t55.5 69.5q20 24 40.5 49t37 51.5t27 55t10.5 58.5q0 58 -35 95 t-100 37q-30 0 -61.5 -5.5t-57.5 -13.5l-9 108q24 10 66.5 18t94.5 8q54 0 98 -17.5t74.5 -48t47 -71.5t16.5 -88q0 -42 -12 -79t-31.5 -71t-45 -67t-53.5 -67q-24 -29 -46.5 -57.5t-40.5 -57t-28.5 -58t-10.5 -61.5q0 -31 10.5 -60t32 -51t56 -35t82.5 -13h23l-18 -116h-28 q-57 0 -100.5 -18t-73 -46.5t-44.5 -64t-15 -70.5q0 -54 20 -102.5t43 -96.5t41.5 -96.5t18.5 -101.5q0 -63 -24.5 -119t-69 -97.5t-106 -66t-136.5 -24.5q-41 0 -78 9t-58 17l42 108q24 -8 55.5 -13.5t71.5 -5.5q33 0 62 12t51.5 33t36.5 48t17 57z" />
<glyph unicode="~" horiz-adv-x="1072" d="M168 651q58 51 121.5 80.5t140.5 29.5q44 0 78.5 -12t66 -26.5t62.5 -26.5t69 -12q28 0 54.5 7.5t50.5 18.5t45 24.5t38 24.5l40 -80q-59 -51 -122.5 -80.5t-140.5 -29.5q-44 0 -78 12t-65.5 26.5t-63 26.5t-68.5 12q-28 0 -54.5 -7.5t-50.5 -19t-45.5 -24.5t-38.5 -24z " />
<glyph unicode="&#xa1;" horiz-adv-x="461" d="M33 -306l182 965h107l-122 -965h-167zM209 930q0 25 9.5 46t25.5 36t38 23.5t46 8.5q36 0 58 -24t22 -61q0 -26 -9.5 -47t-25.5 -36.5t-38 -24t-46 -8.5q-36 0 -58 24.5t-22 62.5z" />
<glyph unicode="&#xa2;" horiz-adv-x="918" d="M104 591q4 121 42.5 224.5t106 182t160.5 128t205 63.5l28 227h131l-42 -224q66 -5 116.5 -21.5t78.5 -31.5l-48 -103q-26 10 -78 25t-125 15q-92 0 -170 -36.5t-135 -102t-89 -157t-32 -201.5q0 -76 20.5 -137.5t61.5 -104.5t102 -66t142 -23q63 0 119 14.5t95 29.5 l24 -103q-38 -19 -102.5 -37t-146.5 -22l-27 -218h-131l42 225q-87 14 -154 52.5t-111.5 98t-66 136.5t-16.5 167z" />
<glyph unicode="&#xa3;" horiz-adv-x="1017" d="M152 735h131q1 54 4 108t11 111q14 94 52 168t94.5 124.5t129.5 77t159 26.5q45 0 83.5 -7.5t69.5 -18t54.5 -23t38.5 -21.5l-57 -104q-35 17 -86.5 34t-123.5 17q-51 0 -95.5 -18.5t-79 -52.5t-58.5 -82t-33 -106q-9 -59 -11 -116.5t-4 -116.5h347l-17 -111h-334 q-6 -132 -38 -254.5t-92 -234.5q25 0 48 -3q38 -3 74 -8.5t71 -11t70 -10t72 -4.5q65 -1 109.5 36t76.5 102l92 -36q-35 -104 -110 -162t-189 -58q-39 0 -77 5t-77.5 12t-81.5 13.5t-88 8.5q-16 1 -33.5 0.5t-33.5 -0.5q-2 -2 -19.5 -17.5t-39.5 -28.5l-92 26l-6 96 q17 8 45 17t55 16q60 119 87.5 245t33.5 251h-149z" />
<glyph unicode="&#xa4;" horiz-adv-x="1167" d="M959 160l-167 166q-56 -32 -119.5 -49t-133.5 -17q-69 0 -127 18t-103 50l-222 -168l-64 60l199 206q-48 78 -48 184q0 88 32 167t90 141l-131 201l83 61l167 -167q56 32 119.5 49t133.5 17q69 0 126 -18t102 -51l224 170l64 -61l-199 -207q23 -40 35.5 -87t12.5 -98 q0 -89 -32 -167.5t-89 -140.5l129 -199zM557 378q66 0 126.5 24t106.5 68t73.5 105.5t27.5 135.5q0 56 -17.5 102t-49.5 79t-76.5 51t-97.5 18q-66 0 -126.5 -25t-106.5 -69t-73.5 -106t-27.5 -135q0 -56 18 -102t50 -78.5t76 -50t97 -17.5z" />
<glyph unicode="&#xa5;" horiz-adv-x="1131" d="M223 853h208l-222 477h152l237 -521l24 -59q112 146 223 290t223 290h150l-375 -477h212l-18 -111h-831zM200 590h793l-17 -112h-326l-76 -478h-143l75 478h-323z" />
<glyph unicode="&#xa6;" horiz-adv-x="502" d="M479 1523l-121 -770h-137l122 770h136zM281 271l-122 -770h-136l122 770h136z" />
<glyph unicode="&#xa7;" horiz-adv-x="936" d="M940 1298q-20 8 -46 18t-57 19t-65 15.5t-70 7.5q-24 -23 -43 -53.5t-32.5 -67.5t-21 -78t-7.5 -83q0 -54 8 -118.5t25 -129.5l76 -308q13 -51 25 -104.5t21 -107.5t14.5 -107.5t5.5 -103.5q0 -116 -38.5 -210.5t-107.5 -161.5t-163.5 -104t-206.5 -37q-50 0 -93.5 7 t-80.5 18.5t-66 25t-49 25.5l58 105q19 -8 45.5 -18t57.5 -18.5t65 -15t70 -7.5q24 22 43 53t33 68t21.5 78t7.5 83q0 54 -9 118t-25 130l-76 308q-13 51 -25 104.5t-21 107.5t-14.5 107.5t-5.5 103.5q0 115 38.5 209.5t107 162t163 104.5t206.5 37q50 0 94 -7t81 -18.5 t66 -25t49 -25.5zM506 24q0 -99 -31.5 -177t-83.5 -126q111 28 175 116t64 241q0 86 -16 181t-37 183l-89 361q-14 59 -21 123t-7 114q0 99 31.5 177t83.5 126q-111 -29 -175 -116.5t-64 -239.5q0 -53 7 -111t17.5 -116.5t24 -115t25.5 -107.5l68 -276q15 -60 21.5 -123 t6.5 -114z" />
<glyph unicode="&#xa8;" horiz-adv-x="771" d="M186 1335q0 51 34.5 82.5t84.5 31.5q36 0 58 -24t22 -61q0 -26 -9.5 -47t-25.5 -36t-38 -23.5t-46 -8.5q-36 0 -58 24t-22 62zM553 1335q0 25 9.5 46t26 36t38 23.5t46.5 8.5q35 0 57.5 -24t22.5 -61q0 -26 -9.5 -47t-26 -36t-38.5 -23.5t-46 -8.5q-36 0 -58 24t-22 62z " />
<glyph unicode="&#xa9;" horiz-adv-x="1532" d="M123 569q0 106 30 205t83.5 186t127 158.5t161.5 123t186.5 80t201.5 28.5q123 0 226.5 -46.5t179 -126.5t118 -188t42.5 -231q0 -106 -30 -205t-84 -185.5t-129 -158t-163.5 -122.5t-188 -79t-203.5 -28q-121 0 -223.5 46t-176.5 125.5t-116 187t-42 230.5zM237 589 q0 -106 35 -198t98 -159.5t150.5 -106.5t193.5 -39q83 0 163.5 24t152.5 67t133.5 103t106 132.5t69.5 154.5t25 170q0 106 -35.5 199t-99 161t-152.5 107.5t-196 39.5q-82 0 -161.5 -24t-151 -67.5t-132 -104t-105 -133.5t-69.5 -155.5t-25 -170.5zM566 610 q0 -108 52.5 -170.5t152.5 -62.5q38 0 84 8.5t93 28.5l19 -89q-46 -26 -107.5 -40t-119.5 -14q-71 0 -127.5 23t-96.5 65t-61 101.5t-21 131.5q0 102 34 187.5t93 147.5t140 96.5t174 34.5q57 0 106 -15.5t80 -36.5l-49 -88q-31 14 -70 24t-89 10q-63 0 -115.5 -25 t-90.5 -70.5t-59.5 -108.5t-21.5 -138z" />
<glyph unicode="&#xaa;" horiz-adv-x="639" d="M517 915q-23 -40 -49.5 -73.5t-55.5 -58t-60.5 -38t-63.5 -13.5q-67 0 -107.5 47.5t-40.5 138.5q0 87 22.5 165.5t64 138t99 94t128.5 34.5q45 0 76 -19t54 -40l17 52h95l-75 -467q-8 -47 -9.5 -80.5t0.5 -52.5h-104q-5 18 -4.5 52.5t5.5 64.5zM319 830q27 0 59.5 23 t65 65.5t61.5 102t49 131.5q4 14 6.5 27t5.5 27q-7 7 -17.5 16t-24.5 16.5t-31.5 12.5t-39.5 5q-44 0 -79.5 -27t-61 -73t-39 -105.5t-13.5 -125.5q0 -45 14 -70t45 -25z" />
<glyph unicode="&#xab;" horiz-adv-x="1055" d="M653 881q-33 -44 -74.5 -90t-87 -93t-95 -93.5t-98.5 -89.5q34 -42 68.5 -88.5t66 -94t58.5 -94t46 -88.5l-114 -79q-29 56 -62.5 115t-69.5 116.5t-73.5 112t-74.5 100.5q52 47 107 101.5t109 112t106 116.5t99 116zM1012 839q-62 -81 -139.5 -162.5t-163.5 -161.5 q62 -78 113 -160t89 -162l-116 -80q-52 107 -112 209.5t-129 192.5q98 91 189.5 192.5t179.5 210.5z" />
<glyph unicode="&#xac;" horiz-adv-x="1221" d="M216 722h837l-68 -433h-126l50 318h-711z" />
<glyph unicode="&#xad;" horiz-adv-x="980" d="M231 590h526l-18 -115h-526z" />
<glyph unicode="&#xae;" horiz-adv-x="1532" d="M123 569q0 106 30 205t83.5 186t127 158.5t161.5 123t186.5 80t201.5 28.5q123 0 226.5 -46.5t179 -126.5t118 -188t42.5 -231q0 -106 -30 -205t-84 -185.5t-129 -158t-163.5 -122.5t-188 -79t-203.5 -28q-121 0 -223.5 46t-176.5 125.5t-116 187t-42 230.5zM237 589 q0 -106 35 -198t98 -159.5t150.5 -106.5t193.5 -39q83 0 163.5 24t152.5 67t133.5 103t106 132.5t69.5 154.5t25 170q0 106 -35.5 199t-99 161t-152.5 107.5t-196 39.5q-82 0 -161.5 -24t-151 -67.5t-132 -104t-105 -133.5t-69.5 -155.5t-25 -170.5zM496 276l121 768h232 q108 0 170 -51t62 -142q0 -44 -15.5 -82.5t-42 -70t-60 -55.5t-69.5 -38l121 -329h-123l-110 306h-123l-49 -306h-114zM673 672h169q22 7 43 22t37.5 36t27 47.5t10.5 57.5q0 56 -32.5 87t-95.5 31h-115z" />
<glyph unicode="&#xaf;" horiz-adv-x="780" d="M225 1408h530l-18 -115h-530z" />
<glyph unicode="&#xb0;" horiz-adv-x="583" d="M334 819q-51 0 -90.5 18.5t-66 49t-40.5 71t-14 85.5q0 66 22 122t62.5 97t97 64.5t125.5 23.5q51 0 90 -18.5t65.5 -49t40.5 -71t14 -85.5q0 -66 -22 -122t-62 -97.5t-96.5 -64.5t-125.5 -23zM359 918q37 0 67 14.5t51 40.5t32.5 62t11.5 78q0 27 -6.5 52.5t-21 44.5 t-36 30.5t-51.5 11.5q-38 0 -68 -14.5t-51.5 -41t-33 -62.5t-11.5 -78q0 -27 7 -52t21 -44t36.5 -30.5t52.5 -11.5z" />
<glyph unicode="&#xb1;" horiz-adv-x="1153" d="M742 1212l-54 -338h322l-18 -115h-322l-53 -336h-128l53 336h-321l18 115h321l54 338h128zM151 184h729l-18 -115h-729z" />
<glyph unicode="&#xb2;" horiz-adv-x="555" d="M135 831q80 54 140.5 98t101 83.5t61 76.5t20.5 78q0 42 -21 65t-66 23q-22 0 -45 -5.5t-42.5 -12t-33.5 -13.5l-20 -10l-25 80q6 3 23.5 12.5t43 19t57.5 17t67 7.5q46 0 79.5 -13.5t55 -37t31.5 -54.5t10 -65q0 -51 -20 -94.5t-56 -83t-87 -78.5t-114 -81h253l-14 -92 h-411z" />
<glyph unicode="&#xb3;" horiz-adv-x="506" d="M412 1179q4 40 -20 59.5t-65 19.5q-34 0 -68.5 -8.5t-55.5 -16.5l-18 81q9 4 24.5 10t36.5 12t46 10t52 4q46 0 80.5 -11t57 -30.5t33.5 -46t11 -57.5q0 -25 -9.5 -50.5t-23.5 -47t-30.5 -36t-31.5 -18.5q24 -12 47 -42.5t23 -79.5q0 -45 -17.5 -82t-50 -63t-79 -40.5 t-104.5 -14.5q-56 0 -94 12.5t-58 24.5l39 83q18 -8 52 -18.5t79 -10.5q54 0 88 25.5t34 77.5q0 38 -24 59t-66 21h-80l13 84h126q14 8 31.5 30.5t21.5 59.5z" />
<glyph unicode="&#xb4;" horiz-adv-x="673" d="M186 1288l435 214l48 -130l-451 -163z" />
<glyph unicode="&#xb6;" horiz-adv-x="1102" d="M545 -396l255 1610h-114l-111 -703q-85 0 -155 22.5t-120.5 66t-78.5 108t-28 147.5q0 114 41 202t111.5 149t164 92.5t198.5 31.5h381l-19 -116h-128l-256 -1610h-141z" />
<glyph unicode="&#xb7;" horiz-adv-x="415" d="M113 497q0 25 9.5 46t25.5 36.5t37.5 24t46.5 8.5q36 0 58 -24t22 -61q0 -26 -9.5 -47t-25.5 -36.5t-38 -24t-46 -8.5q-36 0 -58 24t-22 62z" />
<glyph unicode="&#xb8;" horiz-adv-x="465" d="M17 -314q8 -2 22.5 -4.5t29.5 -3.5q9 -1 18.5 -0.5t17.5 1.5q23 1 38.5 7.5t24.5 16.5t12.5 22t3.5 24q0 24 -16.5 38.5t-55.5 14.5h-61l21 85h76q66 0 107 -29.5t41 -86.5q0 -41 -15.5 -74.5t-45 -57t-72 -36.5t-96.5 -13q-23 0 -44 4t-33 9z" />
<glyph unicode="&#xb9;" horiz-adv-x="418" d="M229 751l77 487q-14 -2 -32.5 -5t-39 -5.5t-39.5 -5t-32 -3.5l2 88q62 8 127.5 20t124.5 23h18l-95 -599h-111z" />
<glyph unicode="&#xba;" horiz-adv-x="607" d="M340 731q-52 0 -92.5 19.5t-68 54t-42 80.5t-14.5 99q0 76 23.5 143t66 116.5t102 78t132.5 28.5q52 0 92.5 -19.5t68 -54t42 -80.5t14.5 -99q0 -77 -23.5 -143.5t-66 -116t-102 -78t-132.5 -28.5zM367 829q41 0 74 20.5t56 55.5t35 81t12 98q0 36 -7 66.5t-22 53 t-38.5 35.5t-55.5 13q-41 0 -74 -20.5t-56 -55.5t-35.5 -81.5t-12.5 -98.5q0 -36 7 -66.5t22 -53t38.5 -35t56.5 -12.5z" />
<glyph unicode="&#xbb;" horiz-adv-x="1113" d="M474 144q33 43 74 89t87 93t95 93t98 90q-34 42 -68.5 88.5t-66 94t-58 94t-45.5 88.5l113 80q29 -56 62.5 -115.5t70 -117t74 -112t74.5 -100.5q-52 -47 -107 -101t-109.5 -111.5t-106.5 -116.5t-99 -116zM114 186q63 81 140.5 162.5t163.5 160.5q-62 79 -113.5 160.5 t-88.5 162.5l115 79q53 -107 113 -209.5t129 -192.5q-98 -91 -189.5 -192.5t-179.5 -209.5z" />
<glyph unicode="&#xbf;" horiz-adv-x="660" d="M540 662q11 -68 6.5 -126t-26 -109.5t-60.5 -99t-96 -92.5q-55 -44 -96 -78t-68.5 -65.5t-41.5 -65t-14 -75.5q0 -74 55.5 -115t160.5 -41q52 0 100 6t78 13l-19 -119q-32 -7 -82 -14t-106 -7q-78 0 -141 19.5t-106.5 53.5t-67 80t-23.5 99q0 69 20 120t57 95.5t89 86.5 t116 92q44 35 74 69.5t47 73t22 83.5t1 102zM407 930q0 25 9.5 46t25.5 36t38 23.5t46 8.5q36 0 58.5 -24t22.5 -61q0 -26 -9.5 -47t-26 -36.5t-38.5 -24t-46 -8.5q-36 0 -58 24.5t-22 62.5z" />
<glyph unicode="&#xc0;" horiz-adv-x="1107" d="M804 361h-526l-183 -361h-154l683 1330h144l258 -1330h-153zM336 477h448l-114 691zM877 1509l-406 159l74 129l380 -203z" />
<glyph unicode="&#xc1;" horiz-adv-x="1107" d="M804 361h-526l-183 -361h-154l683 1330h144l258 -1330h-153zM336 477h448l-114 691zM501 1588l435 214l48 -130l-451 -163z" />
<glyph unicode="&#xc2;" horiz-adv-x="1107" d="M804 361h-526l-183 -361h-154l683 1330h144l258 -1330h-153zM336 477h448l-114 691zM915 1497q-22 18 -46.5 39t-48 43t-45 43.5t-37.5 38.5q-23 -18 -51.5 -39t-59.5 -43t-62 -43t-59 -39l-57 94q63 37 144.5 92t164.5 117q64 -61 127.5 -115.5t114.5 -91.5z" />
<glyph unicode="&#xc3;" horiz-adv-x="1107" d="M804 361h-526l-183 -361h-154l683 1330h144l258 -1330h-153zM336 477h448l-114 691zM433 1625q45 57 94 87.5t108 30.5q27 0 51 -10t47 -22.5t44.5 -22.5t44.5 -10q16 0 32 6t30 15.5t26.5 20.5t22.5 21l64 -65q-45 -58 -94 -88.5t-107 -30.5q-27 0 -51.5 10.5t-47 22.5 t-44.5 22.5t-44 10.5q-17 0 -32.5 -6t-29.5 -15.5t-26.5 -21t-22.5 -21.5z" />
<glyph unicode="&#xc4;" horiz-adv-x="1107" d="M804 361h-526l-183 -361h-154l683 1330h144l258 -1330h-153zM336 477h448l-114 691zM455 1635q0 51 34.5 82.5t84.5 31.5q36 0 58 -24t22 -61q0 -26 -9.5 -47t-26 -36t-38.5 -23.5t-46 -8.5q-36 0 -57.5 24t-21.5 62zM822 1635q0 25 9.5 46t25.5 36t38 23.5t46 8.5 q36 0 58 -24t22 -61q0 -26 -9.5 -47t-25.5 -36t-38 -23.5t-46 -8.5q-36 0 -58 24t-22 62z" />
<glyph unicode="&#xc5;" horiz-adv-x="1107" d="M804 361h-526l-183 -361h-154l683 1330h144l258 -1330h-153zM336 477h448l-114 691zM541 1623q0 45 18.5 85t50 70t73.5 47.5t88 17.5q34 0 63.5 -13t51.5 -35t34 -52t12 -64q0 -45 -18.5 -85t-50 -70t-73.5 -48t-89 -18q-34 0 -63 13t-50.5 35t-34 52t-12.5 65z M641 1638q0 -35 23 -59t56 -24q23 0 43.5 9t35.5 24t24 35t9 41q0 35 -23 58.5t-57 23.5q-22 0 -42 -8.5t-35.5 -23.5t-24.5 -34.5t-9 -41.5z" />
<glyph unicode="&#xc6;" horiz-adv-x="1633" d="M1667 1330l-19 -122h-495l-76 -478h475l-19 -121h-475l-79 -487h515l-18 -122h-660l57 365h-487l-298 -365h-164l1097 1330h646zM486 486h406l98 619z" />
<glyph unicode="&#xc7;" horiz-adv-x="1039" d="M126 527q0 177 49.5 327.5t139.5 261t216.5 172.5t281.5 62q45 0 87.5 -6t78 -15.5t63 -20t42.5 -19.5l-52 -108q-38 13 -98 27.5t-140 14.5q-110 0 -203.5 -50t-162 -139.5t-107.5 -213t-39 -271.5q0 -104 23 -186t70 -139t118.5 -87t168.5 -30q36 0 71.5 5t68 13t60 17 t47.5 18l21 -110q-59 -32 -140 -51t-168 -19q-120 0 -212.5 40t-155.5 112t-95.5 172.5t-32.5 222.5zM384 -314q8 -2 22.5 -4.5t29.5 -3.5q9 -1 18.5 -0.5t17.5 1.5q23 1 38.5 7.5t24.5 16.5t12.5 22t3.5 24q0 24 -16.5 38.5t-55.5 14.5h-61l21 85h76q66 0 107 -29.5 t41 -86.5q0 -41 -15.5 -74.5t-45 -57t-72 -36.5t-96.5 -13q-23 0 -44 4t-33 9z" />
<glyph unicode="&#xc8;" horiz-adv-x="972" d="M987 1208h-550l-76 -478h530l-19 -121h-530l-79 -487h570l-18 -122h-719l210 1330h700zM858 1509l-406 159l74 129l380 -203z" />
<glyph unicode="&#xc9;" horiz-adv-x="972" d="M987 1208h-550l-76 -478h530l-19 -121h-530l-79 -487h570l-18 -122h-719l210 1330h700zM509 1588l435 214l48 -130l-451 -163z" />
<glyph unicode="&#xca;" horiz-adv-x="972" d="M987 1208h-550l-76 -478h530l-19 -121h-530l-79 -487h570l-18 -122h-719l210 1330h700zM911 1497q-22 18 -46 39t-47.5 43t-45.5 43.5t-38 38.5q-23 -18 -51.5 -39t-59 -43t-62 -43t-59.5 -39l-57 94q63 37 145 92t165 117q63 -61 127 -115.5t115 -91.5z" />
<glyph unicode="&#xcb;" horiz-adv-x="972" d="M987 1208h-550l-76 -478h530l-19 -121h-530l-79 -487h570l-18 -122h-719l210 1330h700zM436 1635q0 51 34.5 82.5t84.5 31.5q36 0 58 -24t22 -61q0 -26 -9.5 -47t-25.5 -36t-38 -23.5t-46 -8.5q-36 0 -58 24t-22 62zM803 1635q0 25 9.5 46t26 36t38 23.5t46.5 8.5 q35 0 57.5 -24t22.5 -61q0 -26 -9.5 -47t-26 -36t-38.5 -23.5t-46 -8.5q-36 0 -58 24t-22 62z" />
<glyph unicode="&#xcc;" horiz-adv-x="482" d="M307 1330h149l-210 -1330h-150zM533 1509l-406 159l74 129l380 -203z" />
<glyph unicode="&#xcd;" horiz-adv-x="482" d="M307 1330h149l-210 -1330h-150zM206 1588l435 214l48 -130l-451 -163z" />
<glyph unicode="&#xce;" horiz-adv-x="482" d="M307 1330h149l-210 -1330h-150zM621 1497q-22 18 -46.5 39t-48 43t-45 43.5t-37.5 38.5q-23 -18 -51.5 -39t-59.5 -43t-62 -43t-59 -39l-57 94q63 37 144.5 92t165.5 117q63 -61 127 -115.5t115 -91.5z" />
<glyph unicode="&#xcf;" horiz-adv-x="482" d="M307 1330h149l-210 -1330h-150zM176 1634q0 51 34.5 82.5t84.5 31.5q36 0 58 -24t22 -61q0 -26 -9.5 -47t-25.5 -36t-38 -23.5t-46 -8.5q-37 0 -58.5 24t-21.5 62zM504 1634q0 51 34.5 82.5t84.5 31.5q36 0 58 -24t22 -61q0 -26 -9.5 -47t-26 -36t-38.5 -23.5t-46 -8.5 q-36 0 -57.5 24t-21.5 62z" />
<glyph unicode="&#xd0;" horiz-adv-x="1293" d="M77 722h193l96 608h348q126 0 220.5 -39.5t157.5 -110.5t94.5 -170t31.5 -217q0 -179 -52.5 -325t-149.5 -250t-233.5 -161t-305.5 -57h-321l96 607h-193zM506 118q116 0 217 43t175.5 126.5t117.5 206t43 281.5q0 100 -24 181t-71.5 138t-118 87.5t-162.5 30.5h-190 l-78 -490h347l-18 -115h-347l-79 -489h188z" />
<glyph unicode="&#xd1;" horiz-adv-x="1259" d="M415 1148l-182 -1148h-137l210 1330h181l427 -1149l182 1149h137l-210 -1330h-181zM533 1625q45 57 94 87.5t107 30.5q27 0 51.5 -10t47.5 -22.5t44.5 -22.5t44.5 -10q16 0 31.5 6t30 15.5t26.5 20.5t22 21l65 -65q-45 -58 -94 -88.5t-107 -30.5q-27 0 -51.5 10.5 t-47 22.5t-44.5 22.5t-44 10.5q-17 0 -32.5 -6t-30 -15.5t-27 -21t-22.5 -21.5z" />
<glyph unicode="&#xd2;" horiz-adv-x="1328" d="M620 104q98 0 186 53.5t154.5 147t105.5 220t39 271.5q0 98 -22 177t-65 135t-106 86.5t-145 30.5q-98 0 -186 -53.5t-154.5 -147t-105.5 -219.5t-39 -271q0 -98 22 -177.5t65 -135.5t106 -86.5t145 -30.5zM589 -20q-106 0 -191.5 40t-146 110.5t-93 168t-32.5 213.5 t22 223.5t64 200.5t101.5 169.5t134 130.5t163 84t187.5 30q106 0 192 -40t146.5 -111t93 -168.5t32.5 -213.5t-22 -223.5t-64 -200.5t-101.5 -169t-134 -130.5t-163.5 -84t-188 -29.5zM990 1509l-406 159l74 129l380 -203z" />
<glyph unicode="&#xd3;" horiz-adv-x="1328" d="M620 104q98 0 186 53.5t154.5 147t105.5 220t39 271.5q0 98 -22 177t-65 135t-106 86.5t-145 30.5q-98 0 -186 -53.5t-154.5 -147t-105.5 -219.5t-39 -271q0 -98 22 -177.5t65 -135.5t106 -86.5t145 -30.5zM589 -20q-106 0 -191.5 40t-146 110.5t-93 168t-32.5 213.5 t22 223.5t64 200.5t101.5 169.5t134 130.5t163 84t187.5 30q106 0 192 -40t146.5 -111t93 -168.5t32.5 -213.5t-22 -223.5t-64 -200.5t-101.5 -169t-134 -130.5t-163.5 -84t-188 -29.5zM592 1588l435 214l48 -130l-451 -163z" />
<glyph unicode="&#xd4;" horiz-adv-x="1328" d="M620 104q98 0 186 53.5t154.5 147t105.5 220t39 271.5q0 98 -22 177t-65 135t-106 86.5t-145 30.5q-98 0 -186 -53.5t-154.5 -147t-105.5 -219.5t-39 -271q0 -98 22 -177.5t65 -135.5t106 -86.5t145 -30.5zM589 -20q-106 0 -191.5 40t-146 110.5t-93 168t-32.5 213.5 t22 223.5t64 200.5t101.5 169.5t134 130.5t163 84t187.5 30q106 0 192 -40t146.5 -111t93 -168.5t32.5 -213.5t-22 -223.5t-64 -200.5t-101.5 -169t-134 -130.5t-163.5 -84t-188 -29.5zM1024 1497q-22 18 -46 39t-47.5 43t-45.5 43.5t-38 38.5q-23 -18 -51.5 -39t-59 -43 t-61.5 -43t-59 -39l-58 94q63 37 145 92t165 117q63 -61 127 -115.5t115 -91.5z" />
<glyph unicode="&#xd5;" horiz-adv-x="1328" d="M620 104q98 0 186 53.5t154.5 147t105.5 220t39 271.5q0 98 -22 177t-65 135t-106 86.5t-145 30.5q-98 0 -186 -53.5t-154.5 -147t-105.5 -219.5t-39 -271q0 -98 22 -177.5t65 -135.5t106 -86.5t145 -30.5zM589 -20q-106 0 -191.5 40t-146 110.5t-93 168t-32.5 213.5 t22 223.5t64 200.5t101.5 169.5t134 130.5t163 84t187.5 30q106 0 192 -40t146.5 -111t93 -168.5t32.5 -213.5t-22 -223.5t-64 -200.5t-101.5 -169t-134 -130.5t-163.5 -84t-188 -29.5zM544 1625q45 57 94 87.5t107 30.5q27 0 51.5 -10t47.5 -22.5t44.5 -22.5t44.5 -10 q16 0 31.5 6t30 15.5t26.5 20.5t22 21l65 -65q-45 -58 -94 -88.5t-107 -30.5q-27 0 -51.5 10.5t-47 22.5t-44.5 22.5t-44 10.5q-17 0 -32.5 -6t-30 -15.5t-27 -21t-22.5 -21.5z" />
<glyph unicode="&#xd6;" horiz-adv-x="1328" d="M620 104q98 0 186 53.5t154.5 147t105.5 220t39 271.5q0 98 -22 177t-65 135t-106 86.5t-145 30.5q-98 0 -186 -53.5t-154.5 -147t-105.5 -219.5t-39 -271q0 -98 22 -177.5t65 -135.5t106 -86.5t145 -30.5zM589 -20q-106 0 -191.5 40t-146 110.5t-93 168t-32.5 213.5 t22 223.5t64 200.5t101.5 169.5t134 130.5t163 84t187.5 30q106 0 192 -40t146.5 -111t93 -168.5t32.5 -213.5t-22 -223.5t-64 -200.5t-101.5 -169t-134 -130.5t-163.5 -84t-188 -29.5zM568 1635q0 51 34.5 82.5t84.5 31.5q36 0 58 -24t22 -61q0 -26 -9.5 -47t-26 -36 t-38.5 -23.5t-46 -8.5q-36 0 -57.5 24t-21.5 62zM935 1635q0 51 34.5 82.5t84.5 31.5q36 0 58 -24t22 -61q0 -26 -9.5 -47t-25.5 -36t-38 -23.5t-46 -8.5q-36 0 -58 24t-22 62z" />
<glyph unicode="&#xd7;" horiz-adv-x="1196" d="M1073 983l-368 -317l269 -318l-95 -82l-268 317l-368 -317l-70 82l368 318l-266 317l95 82l266 -317l368 317z" />
<glyph unicode="&#xd8;" horiz-adv-x="1328" d="M589 -20q-90 0 -164 28.5t-132 80.5l-183 -224l-90 64l199 243q-45 69 -69 154.5t-24 185.5q0 116 22 223.5t64 200.5t101.5 169.5t134 130.5t163 84t187.5 30q90 0 164 -28.5t132 -80.5l183 224l91 -64l-200 -244q45 -68 69.5 -154t24.5 -186q0 -116 -22 -223.5 t-64 -200.5t-101.5 -169t-134 -130.5t-163.5 -84t-188 -29.5zM282 534q0 -134 43 -232l677 825q-42 48 -101 73t-134 25q-98 0 -186 -53.5t-154.5 -147t-105.5 -219.5t-39 -271zM620 104q98 0 186 53.5t154.5 147t105.5 220t39 271.5q0 134 -42 232l-677 -827 q42 -47 100.5 -72t133.5 -25z" />
<glyph unicode="&#xd9;" horiz-adv-x="1185" d="M300 524q-14 -85 -12 -160.5t28.5 -132t81.5 -89.5t147 -33q69 0 129.5 28t107.5 79.5t79.5 124t46.5 161.5l132 828h149l-128 -814q-20 -126 -66 -225.5t-115.5 -168.5t-161.5 -105.5t-204 -36.5q-122 0 -201 41t-121 112.5t-51.5 168.5t8.5 208l129 820h150zM903 1509 l-406 159l74 129l380 -203z" />
<glyph unicode="&#xda;" horiz-adv-x="1185" d="M300 524q-14 -85 -12 -160.5t28.5 -132t81.5 -89.5t147 -33q69 0 129.5 28t107.5 79.5t79.5 124t46.5 161.5l132 828h149l-128 -814q-20 -126 -66 -225.5t-115.5 -168.5t-161.5 -105.5t-204 -36.5q-122 0 -201 41t-121 112.5t-51.5 168.5t8.5 208l129 820h150zM579 1588 l435 214l48 -130l-451 -163z" />
<glyph unicode="&#xdb;" horiz-adv-x="1185" d="M300 524q-14 -85 -12 -160.5t28.5 -132t81.5 -89.5t147 -33q69 0 129.5 28t107.5 79.5t79.5 124t46.5 161.5l132 828h149l-128 -814q-20 -126 -66 -225.5t-115.5 -168.5t-161.5 -105.5t-204 -36.5q-122 0 -201 41t-121 112.5t-51.5 168.5t8.5 208l129 820h150zM965 1497 q-22 18 -46.5 39t-48 43t-45 43.5t-37.5 38.5q-23 -18 -51.5 -39t-59.5 -43t-62 -43t-59 -39l-57 94q63 37 144.5 92t165.5 117q63 -61 127 -115.5t115 -91.5z" />
<glyph unicode="&#xdc;" horiz-adv-x="1185" d="M300 524q-14 -85 -12 -160.5t28.5 -132t81.5 -89.5t147 -33q69 0 129.5 28t107.5 79.5t79.5 124t46.5 161.5l132 828h149l-128 -814q-20 -126 -66 -225.5t-115.5 -168.5t-161.5 -105.5t-204 -36.5q-122 0 -201 41t-121 112.5t-51.5 168.5t8.5 208l129 820h150zM496 1635 q0 51 34.5 82.5t84.5 31.5q36 0 58 -24t22 -61q0 -26 -9.5 -47t-25.5 -36t-38 -23.5t-46 -8.5q-36 0 -58 24t-22 62zM863 1635q0 25 9.5 46t26 36t38 23.5t46.5 8.5q35 0 57.5 -24t22.5 -61q0 -26 -9.5 -47t-26 -36t-38.5 -23.5t-46 -8.5q-36 0 -58 24t-22 62z" />
<glyph unicode="&#xdd;" horiz-adv-x="965" d="M414 514l-283 816h141l231 -679l448 679h153l-541 -816v1l-82 -515h-150zM466 1588l435 214l48 -130l-451 -163z" />
<glyph unicode="&#xde;" horiz-adv-x="977" d="M307 1330h143l-46 -286h214q85 0 152 -22t113.5 -62.5t71.5 -98.5t25 -131q0 -102 -35.5 -184.5t-100.5 -140.5t-156 -89t-202 -31h-202l-45 -285h-143zM386 926l-83 -522h211q72 0 130 21t99 60.5t63 96.5t22 129q0 108 -59.5 161.5t-177.5 53.5h-205z" />
<glyph unicode="&#xdf;" horiz-adv-x="1055" d="M439 147q37 -17 90.5 -30.5t116.5 -13.5q76 0 124 36.5t57 99.5q9 48 -16 95q-13 35 -39.5 67t-74.5 73q-28 24 -53 47t-44 48t-30 53.5t-11 64.5q0 43 15 79t41.5 69.5t62.5 65.5t77 66q34 27 59 53.5t41.5 54.5t24 58.5t7.5 66.5q0 31 -9.5 60.5t-31.5 51.5t-56.5 35.5 t-85.5 13.5t-99 -18.5t-87.5 -55.5t-67.5 -93t-40 -131l-232 -1459h-140l234 1474q14 90 55.5 164t102 127t136.5 82t160 29q74 0 131.5 -22t96.5 -59t59 -85.5t20 -101.5q0 -51 -11.5 -92.5t-35 -79t-59.5 -74t-85 -76.5q-30 -25 -55.5 -46t-45 -42t-30 -43t-10.5 -49 q0 -18 6 -34t18.5 -33.5t32.5 -37t48 -43.5q41 -35 73 -66t53.5 -62.5t33 -66t11.5 -76.5q0 -73 -25 -130.5t-71 -97.5t-111.5 -61.5t-146.5 -21.5q-37 0 -72 5t-65.5 13.5t-56 19t-43.5 21.5z" />
<glyph unicode="&#xe0;" horiz-adv-x="1054" d="M713 201q4 26 13 61.5t18.5 71t18.5 66t12 46.5q-40 -88 -93.5 -171.5t-113.5 -149t-124.5 -105.5t-125.5 -40q-48 0 -88.5 21t-70.5 61.5t-46.5 100.5t-16.5 138q0 88 15.5 177.5t45.5 172t75 154t104 125t132 84t160 30.5q70 0 126 -28t98 -64l25 92h112 q-9 -54 -17.5 -107.5t-16.5 -107.5l-96 -601q-12 -79 -15.5 -137.5t0.5 -90.5h-133q-5 16 -6.5 39.5t-1 51t3 56t6.5 54.5zM361 110q29 0 66 22.5t78 64t83.5 99t82 127.5t74.5 150.5t60 167.5q8 23 14 45.5t10 45.5q-11 11 -31.5 27t-48 31t-61 25.5t-69.5 10.5 q-61 0 -112 -27.5t-92.5 -74.5t-73 -109t-52.5 -130t-32 -138t-11 -134q0 -100 29 -151.5t86 -51.5zM816 1209l-407 159l74 129l380 -203z" />
<glyph unicode="&#xe1;" horiz-adv-x="1060" d="M713 201q4 26 13 61.5t18.5 71t18.5 66t12 46.5q-40 -88 -93.5 -171.5t-113.5 -149t-124.5 -105.5t-125.5 -40q-48 0 -88.5 21t-70.5 61.5t-46.5 100.5t-16.5 138q0 88 15.5 177.5t45.5 172t75 154t104 125t132 84t160 30.5q70 0 126 -28t98 -64l25 92h112 q-9 -54 -17.5 -107.5t-16.5 -107.5l-96 -601q-12 -79 -15.5 -137.5t0.5 -90.5h-133q-5 16 -6.5 39.5t-1 51t3 56t6.5 54.5zM361 110q29 0 66 22.5t78 64t83.5 99t82 127.5t74.5 150.5t60 167.5q8 23 14 45.5t10 45.5q-11 11 -31.5 27t-48 31t-61 25.5t-69.5 10.5 q-61 0 -112 -27.5t-92.5 -74.5t-73 -109t-52.5 -130t-32 -138t-11 -134q0 -100 29 -151.5t86 -51.5zM459 1288l435 214l48 -130l-451 -163z" />
<glyph unicode="&#xe2;" horiz-adv-x="1054" d="M713 201q4 26 13 61.5t18.5 71t18.5 66t12 46.5q-40 -88 -93.5 -171.5t-113.5 -149t-124.5 -105.5t-125.5 -40q-48 0 -88.5 21t-70.5 61.5t-46.5 100.5t-16.5 138q0 88 15.5 177.5t45.5 172t75 154t104 125t132 84t160 30.5q70 0 126 -28t98 -64l25 92h112 q-9 -54 -17.5 -107.5t-16.5 -107.5l-96 -601q-12 -79 -15.5 -137.5t0.5 -90.5h-133q-5 16 -6.5 39.5t-1 51t3 56t6.5 54.5zM361 110q29 0 66 22.5t78 64t83.5 99t82 127.5t74.5 150.5t60 167.5q8 23 14 45.5t10 45.5q-11 11 -31.5 27t-48 31t-61 25.5t-69.5 10.5 q-61 0 -112 -27.5t-92.5 -74.5t-73 -109t-52.5 -130t-32 -138t-11 -134q0 -100 29 -151.5t86 -51.5zM858 1197q-22 18 -46 39t-47.5 43t-45.5 43.5t-38 38.5q-23 -18 -51.5 -39t-59 -43t-62 -43t-59.5 -39l-57 94q63 37 145 92t165 117q63 -61 127 -115.5t115 -91.5z" />
<glyph unicode="&#xe3;" horiz-adv-x="1054" d="M713 201q4 26 13 61.5t18.5 71t18.5 66t12 46.5q-40 -88 -93.5 -171.5t-113.5 -149t-124.5 -105.5t-125.5 -40q-48 0 -88.5 21t-70.5 61.5t-46.5 100.5t-16.5 138q0 88 15.5 177.5t45.5 172t75 154t104 125t132 84t160 30.5q70 0 126 -28t98 -64l25 92h112 q-9 -54 -17.5 -107.5t-16.5 -107.5l-96 -601q-12 -79 -15.5 -137.5t0.5 -90.5h-133q-5 16 -6.5 39.5t-1 51t3 56t6.5 54.5zM361 110q29 0 66 22.5t78 64t83.5 99t82 127.5t74.5 150.5t60 167.5q8 23 14 45.5t10 45.5q-11 11 -31.5 27t-48 31t-61 25.5t-69.5 10.5 q-61 0 -112 -27.5t-92.5 -74.5t-73 -109t-52.5 -130t-32 -138t-11 -134q0 -100 29 -151.5t86 -51.5zM392 1325q45 57 94 87.5t107 30.5q27 0 51.5 -10t47.5 -22.5t44.5 -22.5t44.5 -10q16 0 31.5 6t30 15.5t26.5 20.5t22 21l65 -65q-45 -58 -94 -88.5t-107 -30.5 q-27 0 -51.5 10.5t-47.5 22.5t-45 22.5t-44 10.5q-16 0 -31.5 -6t-30 -15.5t-27 -21t-22.5 -21.5z" />
<glyph unicode="&#xe4;" horiz-adv-x="1054" d="M713 201q4 26 13 61.5t18.5 71t18.5 66t12 46.5q-40 -88 -93.5 -171.5t-113.5 -149t-124.5 -105.5t-125.5 -40q-48 0 -88.5 21t-70.5 61.5t-46.5 100.5t-16.5 138q0 88 15.5 177.5t45.5 172t75 154t104 125t132 84t160 30.5q70 0 126 -28t98 -64l25 92h112 q-9 -54 -17.5 -107.5t-16.5 -107.5l-96 -601q-12 -79 -15.5 -137.5t0.5 -90.5h-133q-5 16 -6.5 39.5t-1 51t3 56t6.5 54.5zM361 110q29 0 66 22.5t78 64t83.5 99t82 127.5t74.5 150.5t60 167.5q8 23 14 45.5t10 45.5q-11 11 -31.5 27t-48 31t-61 25.5t-69.5 10.5 q-61 0 -112 -27.5t-92.5 -74.5t-73 -109t-52.5 -130t-32 -138t-11 -134q0 -100 29 -151.5t86 -51.5zM393 1335q0 25 9.5 46t26 36t38 23.5t46.5 8.5q35 0 57.5 -24t22.5 -61q0 -26 -9.5 -47t-26 -36t-38.5 -23.5t-46 -8.5q-36 0 -58 24t-22 62zM761 1335q0 51 34.5 82.5 t84.5 31.5q36 0 58 -24t22 -61q0 -26 -9.5 -47t-26 -36t-38.5 -23.5t-46 -8.5q-36 0 -57.5 24t-21.5 62z" />
<glyph unicode="&#xe5;" horiz-adv-x="1054" d="M713 201q4 26 13 61.5t18.5 71t18.5 66t12 46.5q-40 -88 -93.5 -171.5t-113.5 -149t-124.5 -105.5t-125.5 -40q-48 0 -88.5 21t-70.5 61.5t-46.5 100.5t-16.5 138q0 88 15.5 177.5t45.5 172t75 154t104 125t132 84t160 30.5q70 0 126 -28t98 -64l25 92h112 q-9 -54 -17.5 -107.5t-16.5 -107.5l-96 -601q-12 -79 -15.5 -137.5t0.5 -90.5h-133q-5 16 -6.5 39.5t-1 51t3 56t6.5 54.5zM361 110q29 0 66 22.5t78 64t83.5 99t82 127.5t74.5 150.5t60 167.5q8 23 14 45.5t10 45.5q-11 11 -31.5 27t-48 31t-61 25.5t-69.5 10.5 q-61 0 -112 -27.5t-92.5 -74.5t-73 -109t-52.5 -130t-32 -138t-11 -134q0 -100 29 -151.5t86 -51.5zM459 1323q0 45 18.5 85t50 70t73 47.5t88.5 17.5q34 0 63.5 -13t51 -35t34 -52t12.5 -64q0 -45 -18.5 -85t-50 -70t-74 -48t-89.5 -18q-33 0 -62 13t-50.5 35t-34 52 t-12.5 65zM559 1338q0 -35 22.5 -59t55.5 -24q23 0 43.5 9t36 24t24.5 35t9 41q0 35 -23 58.5t-58 23.5q-22 0 -42 -8.5t-35 -23.5t-24 -34.5t-9 -41.5z" />
<glyph unicode="&#xe6;" horiz-adv-x="1336" d="M498 1044q97 0 164.5 -38t94.5 -113q62 69 140.5 110t173.5 41q58 0 102.5 -15.5t75 -43t46 -66t15.5 -84.5q0 -82 -39.5 -148t-116 -115.5t-188 -81.5t-255.5 -45q-5 -35 -8 -68t-3 -64q0 -97 37 -153t120 -56q40 0 82.5 8t83 21t77 27.5t65.5 28.5l28 -110 q-27 -15 -66 -32.5t-87 -32.5t-105.5 -24.5t-121.5 -9.5q-76 0 -133.5 34t-90.5 100q-78 -65 -153 -99.5t-159 -34.5q-53 0 -97 16.5t-76 46.5t-50 72.5t-18 93.5q0 64 24.5 116.5t70.5 91.5t112.5 64t151.5 34l183 18q18 81 48 152q8 29 11.5 54t1.5 45q-28 137 -168 137 q-42 0 -81 -6t-73.5 -15t-62 -19t-45.5 -18l-18 105q20 10 52 23.5t72.5 25t87 19.5t95.5 8zM1059 927q-61 0 -112.5 -32t-92.5 -85.5t-72 -122.5t-50 -142q94 13 172.5 38.5t135 61.5t88 81t31.5 96q0 22 -5 41t-17 33t-31 22.5t-47 8.5zM319 103q58 0 121 28t118 75 q-4 22 -6 45.5t-2 49.5q0 65 9 131l-176 -20q-97 -11 -148.5 -58.5t-51.5 -122.5q0 -60 35 -94t101 -34z" />
<glyph unicode="&#xe7;" horiz-adv-x="818" d="M788 885q-10 3 -26.5 8.5t-39 11t-50 9t-57.5 3.5q-60 0 -110.5 -27.5t-91.5 -74t-72 -107.5t-52.5 -128t-32 -136t-10.5 -131q0 -97 35 -153t112 -56q37 0 77.5 8t79 20.5t73.5 27t62 27.5l33 -107q-27 -15 -65 -32.5t-85 -32.5t-102 -25t-117 -10q-57 0 -103.5 21 t-80 62t-51.5 101t-18 137q0 88 15.5 177.5t46 172t75.5 154t105 125t134 84t162 30.5q34 0 65 -5t57 -12t45.5 -14.5t30.5 -12.5zM239 -314q8 -2 22 -4.5t30 -3.5q9 -1 18 -0.5t18 1.5q23 1 38.5 7.5t24.5 16.5t12.5 22t3.5 24q0 24 -17 38.5t-55 14.5h-61l21 85h76 q66 0 106.5 -29.5t40.5 -86.5q0 -82 -60 -131.5t-169 -49.5q-23 0 -44 4t-32 9z" />
<glyph unicode="&#xe8;" horiz-adv-x="880" d="M854 835q0 -83 -42.5 -151.5t-120.5 -119.5t-188.5 -82.5t-247.5 -40.5q-5 -33 -8 -65.5t-3 -62.5q0 -97 37 -153t120 -56q40 0 82.5 8t83 21t77 27.5t65.5 28.5l28 -110q-27 -15 -66 -32.5t-87 -32.5t-105.5 -24.5t-121.5 -9.5q-60 0 -108.5 21t-83 62t-53 101 t-18.5 137q0 88 16 177.5t46.5 172t75.5 154t102.5 125t128 84t152.5 30.5q58 0 102.5 -15.5t75 -43t46 -66t15.5 -84.5zM603 927q-62 0 -114.5 -33.5t-94 -89t-72 -127t-49.5 -146.5q91 13 169.5 39t136.5 63.5t91 85t33 103.5q0 22 -5 41t-17 33t-31 22.5t-47 8.5z M803 1209l-406 159l74 129l380 -203z" />
<glyph unicode="&#xe9;" horiz-adv-x="880" d="M854 835q0 -83 -42.5 -151.5t-120.5 -119.5t-188.5 -82.5t-247.5 -40.5q-5 -33 -8 -65.5t-3 -62.5q0 -97 37 -153t120 -56q40 0 82.5 8t83 21t77 27.5t65.5 28.5l28 -110q-27 -15 -66 -32.5t-87 -32.5t-105.5 -24.5t-121.5 -9.5q-60 0 -108.5 21t-83 62t-53 101 t-18.5 137q0 88 16 177.5t46.5 172t75.5 154t102.5 125t128 84t152.5 30.5q58 0 102.5 -15.5t75 -43t46 -66t15.5 -84.5zM603 927q-62 0 -114.5 -33.5t-94 -89t-72 -127t-49.5 -146.5q91 13 169.5 39t136.5 63.5t91 85t33 103.5q0 22 -5 41t-17 33t-31 22.5t-47 8.5z M417 1288l435 214l48 -130l-451 -163z" />
<glyph unicode="&#xea;" horiz-adv-x="880" d="M854 835q0 -83 -42.5 -151.5t-120.5 -119.5t-188.5 -82.5t-247.5 -40.5q-5 -33 -8 -65.5t-3 -62.5q0 -97 37 -153t120 -56q40 0 82.5 8t83 21t77 27.5t65.5 28.5l28 -110q-27 -15 -66 -32.5t-87 -32.5t-105.5 -24.5t-121.5 -9.5q-60 0 -108.5 21t-83 62t-53 101 t-18.5 137q0 88 16 177.5t46.5 172t75.5 154t102.5 125t128 84t152.5 30.5q58 0 102.5 -15.5t75 -43t46 -66t15.5 -84.5zM603 927q-62 0 -114.5 -33.5t-94 -89t-72 -127t-49.5 -146.5q91 13 169.5 39t136.5 63.5t91 85t33 103.5q0 22 -5 41t-17 33t-31 22.5t-47 8.5z M825 1197q-22 18 -46 39t-47.5 43t-45.5 43.5t-38 38.5q-23 -18 -51.5 -39t-59 -43t-62 -43t-59.5 -39l-57 94q63 37 145 92t165 117q63 -61 127 -115.5t115 -91.5z" />
<glyph unicode="&#xeb;" horiz-adv-x="880" d="M854 835q0 -83 -42.5 -151.5t-120.5 -119.5t-188.5 -82.5t-247.5 -40.5q-5 -33 -8 -65.5t-3 -62.5q0 -97 37 -153t120 -56q40 0 82.5 8t83 21t77 27.5t65.5 28.5l28 -110q-27 -15 -66 -32.5t-87 -32.5t-105.5 -24.5t-121.5 -9.5q-60 0 -108.5 21t-83 62t-53 101 t-18.5 137q0 88 16 177.5t46.5 172t75.5 154t102.5 125t128 84t152.5 30.5q58 0 102.5 -15.5t75 -43t46 -66t15.5 -84.5zM603 927q-62 0 -114.5 -33.5t-94 -89t-72 -127t-49.5 -146.5q91 13 169.5 39t136.5 63.5t91 85t33 103.5q0 22 -5 41t-17 33t-31 22.5t-47 8.5z M369 1335q0 51 34.5 82.5t84.5 31.5q36 0 58 -24t22 -61q0 -26 -9.5 -47t-25.5 -36t-38 -23.5t-46 -8.5q-36 0 -58 24t-22 62zM736 1335q0 25 9.5 46t26 36t38 23.5t46.5 8.5q35 0 57.5 -24t22.5 -61q0 -26 -9.5 -47t-26 -36t-38.5 -23.5t-46 -8.5q-36 0 -58 24t-22 62z" />
<glyph unicode="&#xec;" horiz-adv-x="493" d="M267 1024h139l-127 -796q-13 -79 -16 -137.5t1 -90.5h-129q-5 16 -6.5 39.5t-1.5 51t2.5 56t6.5 54.5zM525 1209l-406 159l74 129l380 -203z" />
<glyph unicode="&#xed;" horiz-adv-x="493" d="M267 1024h139l-127 -796q-13 -79 -16 -137.5t1 -90.5h-129q-5 16 -6.5 39.5t-1.5 51t2.5 56t6.5 54.5zM187 1288l435 214l47 -130l-450 -163z" />
<glyph unicode="&#xee;" horiz-adv-x="493" d="M267 1024h139l-127 -796q-13 -79 -16 -137.5t1 -90.5h-129q-5 16 -6.5 39.5t-1.5 51t2.5 56t6.5 54.5zM569 1197q-22 18 -46.5 39t-48 43t-45 43.5t-37.5 38.5q-23 -18 -51.5 -39t-59.5 -43t-62 -43t-59 -39l-57 94q63 37 144.5 92t165.5 117q63 -61 127 -115.5 t115 -91.5z" />
<glyph unicode="&#xef;" horiz-adv-x="493" d="M267 1024h139l-127 -796q-13 -79 -16 -137.5t1 -90.5h-129q-5 16 -6.5 39.5t-1.5 51t2.5 56t6.5 54.5zM108 1335q0 25 9.5 46t25.5 36t38 23.5t46 8.5q36 0 58 -24t22 -61q0 -26 -9.5 -47t-25.5 -36t-38 -23.5t-46 -8.5q-36 0 -58 24t-22 62zM464 1335q0 25 9.5 46 t25.5 36t38 23.5t46 8.5q36 0 58 -24t22 -61q0 -26 -9.5 -47t-25.5 -36t-38 -23.5t-46 -8.5q-36 0 -58 24t-22 62z" />
<glyph unicode="&#xf0;" horiz-adv-x="1003" d="M483 1229l114 124q-39 14 -80 14q-29 0 -55.5 -3.5t-49 -8.5t-39.5 -10.5t-27 -8.5l-21 99q10 4 32 12t50.5 15t63 12.5t70.5 5.5q80 0 146 -29l122 132l84 -71l-114 -123q79 -76 117.5 -208t38.5 -306q0 -125 -16.5 -240t-48.5 -214.5t-79.5 -181t-109.5 -139 t-138.5 -89t-166.5 -31.5q-66 0 -120 22t-92 66.5t-59 112t-21 159.5q0 89 16.5 176t48 165.5t76 145t101.5 114.5t125 75.5t145 27.5q34 0 64.5 -7t54 -16.5t40 -19t22.5 -14.5q-5 107 -28.5 182t-62.5 120l-122 -131zM405 96q76 0 145 58.5t121.5 161t83.5 242t30 300.5 q-9 8 -28 20.5t-46 24t-61 20t-73 8.5q-48 0 -92.5 -24t-83 -65.5t-69.5 -97t-53 -118.5t-34 -130.5t-12 -131.5q0 -137 40.5 -202.5t131.5 -65.5z" />
<glyph unicode="&#xf1;" horiz-adv-x="1075" d="M383 1024q4 -17 5.5 -40t1 -50t-3.5 -55.5t-7 -55.5q-6 -35 -15.5 -75.5t-19 -78t-18 -67.5t-11.5 -45q45 96 101.5 184t120.5 155.5t131.5 107.5t133.5 40q62 0 101.5 -24.5t60 -67t23.5 -100.5t-7 -124l-79 -500q-13 -79 -16 -137.5t1 -90.5h-130q-5 16 -6.5 39.5 t-1 51t3 56t6.5 54.5l78 492q7 45 8 83t-7 65.5t-27 43t-51 15.5q-38 0 -84.5 -28.5t-95.5 -78t-97.5 -117.5t-89.5 -146.5t-71.5 -164.5t-44.5 -173l-31 -192h-139l127 796q8 56 12.5 104.5t5.5 84.5q1 12 0.5 22t-1.5 17h133zM403 1325q45 57 94 87.5t108 30.5 q27 0 51.5 -10t47 -22.5t44 -22.5t44.5 -10q16 0 32 6t30 15.5t26.5 20.5t22.5 21l64 -65q-44 -58 -93.5 -88.5t-106.5 -30.5q-27 0 -51.5 10.5t-47.5 22.5t-45 22.5t-44 10.5q-17 0 -32.5 -6t-29.5 -15.5t-26.5 -21t-22.5 -21.5z" />
<glyph unicode="&#xf2;" horiz-adv-x="991" d="M409 -20q-70 0 -127.5 24.5t-99 71t-64 113.5t-22.5 151q0 152 39.5 281t110 223t167 147t210.5 53q70 0 127.5 -24.5t98.5 -71t63.5 -113.5t22.5 -151q0 -152 -39.5 -281t-110 -223t-166.5 -147t-210 -53zM435 97q70 0 133.5 45.5t111.5 123.5t76.5 181t28.5 219 q0 135 -48.5 198t-140.5 63q-70 0 -133.5 -45.5t-111.5 -123.5t-76.5 -181.5t-28.5 -218.5q0 -135 48.5 -198t140.5 -63zM802 1209l-407 159l74 129l380 -203z" />
<glyph unicode="&#xf3;" horiz-adv-x="991" d="M409 -20q-70 0 -127.5 24.5t-99 71t-64 113.5t-22.5 151q0 152 39.5 281t110 223t167 147t210.5 53q70 0 127.5 -24.5t98.5 -71t63.5 -113.5t22.5 -151q0 -152 -39.5 -281t-110 -223t-166.5 -147t-210 -53zM435 97q70 0 133.5 45.5t111.5 123.5t76.5 181t28.5 219 q0 135 -48.5 198t-140.5 63q-70 0 -133.5 -45.5t-111.5 -123.5t-76.5 -181.5t-28.5 -218.5q0 -135 48.5 -198t140.5 -63zM433 1288l435 214l48 -130l-451 -163z" />
<glyph unicode="&#xf4;" horiz-adv-x="991" d="M409 -20q-70 0 -127.5 24.5t-99 71t-64 113.5t-22.5 151q0 152 39.5 281t110 223t167 147t210.5 53q70 0 127.5 -24.5t98.5 -71t63.5 -113.5t22.5 -151q0 -152 -39.5 -281t-110 -223t-166.5 -147t-210 -53zM435 97q70 0 133.5 45.5t111.5 123.5t76.5 181t28.5 219 q0 135 -48.5 198t-140.5 63q-70 0 -133.5 -45.5t-111.5 -123.5t-76.5 -181.5t-28.5 -218.5q0 -135 48.5 -198t140.5 -63zM841 1197q-22 18 -46 39t-47.5 43t-45 43.5t-37.5 38.5q-23 -18 -51.5 -39t-59.5 -43t-62 -43t-59 -39l-58 94q63 37 145 92t165 117 q64 -61 127.5 -115.5t114.5 -91.5z" />
<glyph unicode="&#xf5;" horiz-adv-x="992" d="M409 -20q-70 0 -127.5 24.5t-99 71t-64 113.5t-22.5 151q0 152 39.5 281t110 223t167 147t210.5 53q70 0 127.5 -24.5t98.5 -71t63.5 -113.5t22.5 -151q0 -152 -39.5 -281t-110 -223t-166.5 -147t-210 -53zM435 97q70 0 133.5 45.5t111.5 123.5t76.5 181t28.5 219 q0 135 -48.5 198t-140.5 63q-70 0 -133.5 -45.5t-111.5 -123.5t-76.5 -181.5t-28.5 -218.5q0 -135 48.5 -198t140.5 -63zM369 1325q45 57 94 87.5t108 30.5q27 0 51.5 -10t47 -22.5t44.5 -22.5t44 -10q16 0 32 6t30 15.5t26.5 20.5t22.5 21l64 -65q-44 -58 -93.5 -88.5 t-106.5 -30.5q-27 0 -51.5 10.5t-47.5 22.5t-45 22.5t-44 10.5q-17 0 -32.5 -6t-29.5 -15.5t-26.5 -21t-22.5 -21.5z" />
<glyph unicode="&#xf6;" horiz-adv-x="991" d="M409 -20q-70 0 -127.5 24.5t-99 71t-64 113.5t-22.5 151q0 152 39.5 281t110 223t167 147t210.5 53q70 0 127.5 -24.5t98.5 -71t63.5 -113.5t22.5 -151q0 -152 -39.5 -281t-110 -223t-166.5 -147t-210 -53zM435 97q70 0 133.5 45.5t111.5 123.5t76.5 181t28.5 219 q0 135 -48.5 198t-140.5 63q-70 0 -133.5 -45.5t-111.5 -123.5t-76.5 -181.5t-28.5 -218.5q0 -135 48.5 -198t140.5 -63zM375 1335q0 25 9.5 46t26 36t38 23.5t46.5 8.5q35 0 57.5 -24t22.5 -61q0 -26 -9.5 -47t-26 -36t-38.5 -23.5t-46 -8.5q-36 0 -58 24t-22 62zM743 1335 q0 51 34.5 82.5t84.5 31.5q36 0 58 -24t22 -61q0 -26 -9.5 -47t-25.5 -36t-38 -23.5t-46 -8.5q-37 0 -58.5 24t-21.5 62z" />
<glyph unicode="&#xf7;" horiz-adv-x="1129" d="M216 722h745l-18 -115h-745zM530 980q0 25 9.5 46t26 36t38 23.5t46.5 8.5q35 0 57.5 -24t22.5 -61q0 -25 -9.5 -46t-26 -36.5t-38.5 -24t-46 -8.5q-36 0 -58 24t-22 62zM426 320q0 25 9.5 46t25.5 36t38 23.5t46 8.5q36 0 58 -24t22 -61q0 -26 -9.5 -47t-25.5 -36.5 t-38 -24t-46 -8.5q-36 0 -58 24.5t-22 62.5z" />
<glyph unicode="&#xf8;" horiz-adv-x="991" d="M409 -20q-61 0 -112.5 19t-90.5 54l-156 -190l-84 58l175 214q-22 42 -33.5 93t-11.5 112q0 152 39.5 281t110 223t167 147t210.5 53q60 0 111 -19t91 -55l157 192l83 -59l-176 -214q46 -84 46 -205q0 -152 -39.5 -281t-110 -223t-166.5 -147t-210 -53zM246 358 q0 -24 1.5 -45t5.5 -41l484 590q-47 65 -141 65q-70 0 -133.5 -45.5t-111.5 -123.5t-76.5 -181.5t-28.5 -218.5zM435 97q70 0 133.5 45.5t111.5 123.5t76.5 181t28.5 219q0 23 -1.5 45t-6.5 41l-483 -591q48 -64 141 -64z" />
<glyph unicode="&#xf9;" horiz-adv-x="1048" d="M712 0q-4 16 -5.5 39.5t-1 50.5t3 55.5t7.5 55.5q6 35 15 75t18.5 77t18 67.5t11.5 45.5q-43 -96 -97.5 -184t-116 -155t-127 -107t-128.5 -40q-61 0 -100 24.5t-59 67t-23.5 100.5t7.5 124l79 500q13 79 16 137.5t-1 90.5h130q4 -16 6 -39.5t1.5 -51t-3 -56.5t-6.5 -54 l-78 -492q-7 -45 -8 -83t7 -65.5t26 -43t49 -15.5q37 0 81.5 28.5t92 78t94 117.5t86 146.5t69 164.5t43.5 173l31 192h139l-127 -796q-9 -56 -13.5 -104.5t-4.5 -84.5q-1 -12 -0.5 -22t0.5 -17h-132zM745 1209l-407 159l74 129l380 -203z" />
<glyph unicode="&#xfa;" horiz-adv-x="1048" d="M712 0q-4 16 -5.5 39.5t-1 50.5t3 55.5t7.5 55.5q6 35 15 75t18.5 77t18 67.5t11.5 45.5q-43 -96 -97.5 -184t-116 -155t-127 -107t-128.5 -40q-61 0 -100 24.5t-59 67t-23.5 100.5t7.5 124l79 500q13 79 16 137.5t-1 90.5h130q4 -16 6 -39.5t1.5 -51t-3 -56.5t-6.5 -54 l-78 -492q-7 -45 -8 -83t7 -65.5t26 -43t49 -15.5q37 0 81.5 28.5t92 78t94 117.5t86 146.5t69 164.5t43.5 173l31 192h139l-127 -796q-9 -56 -13.5 -104.5t-4.5 -84.5q-1 -12 -0.5 -22t0.5 -17h-132zM446 1288l435 214l48 -130l-451 -163z" />
<glyph unicode="&#xfb;" horiz-adv-x="1048" d="M712 0q-4 16 -5.5 39.5t-1 50.5t3 55.5t7.5 55.5q6 35 15 75t18.5 77t18 67.5t11.5 45.5q-43 -96 -97.5 -184t-116 -155t-127 -107t-128.5 -40q-61 0 -100 24.5t-59 67t-23.5 100.5t7.5 124l79 500q13 79 16 137.5t-1 90.5h130q4 -16 6 -39.5t1.5 -51t-3 -56.5t-6.5 -54 l-78 -492q-7 -45 -8 -83t7 -65.5t26 -43t49 -15.5q37 0 81.5 28.5t92 78t94 117.5t86 146.5t69 164.5t43.5 173l31 192h139l-127 -796q-9 -56 -13.5 -104.5t-4.5 -84.5q-1 -12 -0.5 -22t0.5 -17h-132zM828 1197q-22 18 -46 39t-47.5 43t-45 43.5t-37.5 38.5 q-23 -18 -51.5 -39t-59.5 -43t-62 -43t-59 -39l-58 94q63 37 145 92t165 117q64 -61 127.5 -115.5t114.5 -91.5z" />
<glyph unicode="&#xfc;" horiz-adv-x="1048" d="M712 0q-4 16 -5.5 39.5t-1 50.5t3 55.5t7.5 55.5q6 35 15 75t18.5 77t18 67.5t11.5 45.5q-43 -96 -97.5 -184t-116 -155t-127 -107t-128.5 -40q-61 0 -100 24.5t-59 67t-23.5 100.5t7.5 124l79 500q13 79 16 137.5t-1 90.5h130q4 -16 6 -39.5t1.5 -51t-3 -56.5t-6.5 -54 l-78 -492q-7 -45 -8 -83t7 -65.5t26 -43t49 -15.5q37 0 81.5 28.5t92 78t94 117.5t86 146.5t69 164.5t43.5 173l31 192h139l-127 -796q-9 -56 -13.5 -104.5t-4.5 -84.5q-1 -12 -0.5 -22t0.5 -17h-132zM358 1335q0 51 34.5 82.5t84.5 31.5q36 0 58 -24t22 -61q0 -26 -9.5 -47 t-26 -36t-38.5 -23.5t-46 -8.5q-36 0 -57.5 24t-21.5 62zM725 1335q0 25 9.5 46t25.5 36t38 23.5t46 8.5q36 0 58 -24t22 -61q0 -26 -9.5 -47t-25.5 -36t-38 -23.5t-46 -8.5q-36 0 -58 24t-22 62z" />
<glyph unicode="&#xfd;" horiz-adv-x="924" d="M373 224q3 -69 -0.5 -128.5t-11.5 -113.5l64 93q65 85 121.5 183.5t98.5 204t66.5 214t24.5 213.5q0 36 -4 70.5t-13 63.5l142 20q9 -25 16.5 -65.5t7.5 -91.5q0 -138 -47.5 -289.5t-132.5 -306t-203 -307t-258 -293.5q-47 -54 -107 -80.5t-131 -26.5q-53 0 -89.5 11.5 t-55.5 22.5l33 108q18 -9 46.5 -16.5t59.5 -7.5q54 0 99.5 22t78 77.5t48 151t9.5 242.5q-4 97 -10.5 192t-14.5 182t-16.5 163t-16 135.5t-14 100t-9.5 56.5h138q6 -28 17 -95t23 -169.5t23 -237.5t18 -298zM410 1288l434 214l48 -130l-451 -163z" />
<glyph unicode="&#xfe;" horiz-adv-x="1056" d="M303 1249q11 66 13 113.5t-3 90.5l131 27q5 -14 8 -36.5t3.5 -49t-1.5 -55t-6 -54.5l-75 -462q-4 -27 -10.5 -58t-12.5 -59t-11 -51.5t-7 -35.5q40 88 91 165t109 135t119 91.5t120 33.5q48 0 88.5 -21t70.5 -61.5t46.5 -100.5t16.5 -138q0 -88 -15.5 -177.5t-45.5 -172 t-75 -154t-104 -125t-132 -84t-159 -30.5q-65 0 -117.5 23.5t-92.5 55.5l-74 -455h-139l195 1218zM729 914q-32 0 -73 -27t-86 -75.5t-91 -116t-86.5 -147.5t-73.5 -170.5t-52 -185.5q11 -12 30.5 -28t46 -30.5t58.5 -25t68 -10.5q61 0 112.5 27.5t93 74.5t72.5 109 t52.5 130t32 138t10.5 134q0 100 -28.5 151.5t-85.5 51.5z" />
<glyph unicode="&#xff;" horiz-adv-x="929" d="M373 224q3 -69 -0.5 -128.5t-11.5 -113.5l64 93q65 85 121.5 183.5t98.5 204t66.5 214t24.5 213.5q0 36 -4 70.5t-13 63.5l142 20q9 -25 16.5 -65.5t7.5 -91.5q0 -138 -47.5 -289.5t-132.5 -306t-203 -307t-258 -293.5q-47 -54 -107 -80.5t-131 -26.5q-53 0 -89.5 11.5 t-55.5 22.5l33 108q18 -9 46.5 -16.5t59.5 -7.5q54 0 99.5 22t78 77.5t48 151t9.5 242.5q-4 97 -10.5 192t-14.5 182t-16.5 163t-16 135.5t-14 100t-9.5 56.5h138q6 -28 17 -95t23 -169.5t23 -237.5t18 -298zM647 1335q0 51 34.5 82.5t84.5 31.5q36 0 58 -24t22 -61 q0 -26 -9.5 -47t-25.5 -36t-38 -23.5t-46 -8.5q-36 0 -58 24t-22 62zM280 1335q0 51 34.5 82.5t84.5 31.5q36 0 58 -24t22 -61q0 -26 -9.5 -47t-26 -36t-38.5 -23.5t-46 -8.5q-36 0 -57.5 24t-21.5 62z" />
<glyph unicode="&#x100;" horiz-adv-x="1107" d="M804 361h-526l-183 -361h-154l683 1330h144l258 -1330h-153zM336 477h448l-114 691zM476 1714h530l-18 -115h-530z" />
<glyph unicode="&#x101;" horiz-adv-x="1054" d="M713 201q4 26 13 61.5t18.5 71t18.5 66t12 46.5q-40 -88 -93.5 -171.5t-113.5 -149t-124.5 -105.5t-125.5 -40q-48 0 -88.5 21t-70.5 61.5t-46.5 100.5t-16.5 138q0 88 15.5 177.5t45.5 172t75 154t104 125t132 84t160 30.5q70 0 126 -28t98 -64l25 92h112 q-9 -54 -17.5 -107.5t-16.5 -107.5l-96 -601q-12 -79 -15.5 -137.5t0.5 -90.5h-133q-5 16 -6.5 39.5t-1 51t3 56t6.5 54.5zM361 110q29 0 66 22.5t78 64t83.5 99t82 127.5t74.5 150.5t60 167.5q8 23 14 45.5t10 45.5q-11 11 -31.5 27t-48 31t-61 25.5t-69.5 10.5 q-61 0 -112 -27.5t-92.5 -74.5t-73 -109t-52.5 -130t-32 -138t-11 -134q0 -100 29 -151.5t86 -51.5zM406 1408h530l-18 -115h-530z" />
<glyph unicode="&#x102;" horiz-adv-x="1107" d="M804 361h-526l-183 -361h-154l683 1330h144l258 -1330h-153zM336 477h448l-114 691zM639 1776q-5 -35 -2 -65.5t14.5 -53t32.5 -35.5t52 -13t55.5 13t43.5 35.5t31.5 53t18.5 65.5h110q-7 -62 -30.5 -111t-60 -83.5t-83.5 -53t-101 -18.5q-53 0 -94 18.5t-66.5 53 t-34 83.5t4.5 111h109z" />
<glyph unicode="&#x103;" horiz-adv-x="1060" d="M713 201q4 26 13 61.5t18.5 71t18.5 66t12 46.5q-40 -88 -93.5 -171.5t-113.5 -149t-124.5 -105.5t-125.5 -40q-48 0 -88.5 21t-70.5 61.5t-46.5 100.5t-16.5 138q0 88 15.5 177.5t45.5 172t75 154t104 125t132 84t160 30.5q70 0 126 -28t98 -64l25 92h112 q-9 -54 -17.5 -107.5t-16.5 -107.5l-96 -601q-12 -79 -15.5 -137.5t0.5 -90.5h-133q-5 16 -6.5 39.5t-1 51t3 56t6.5 54.5zM361 110q29 0 66 22.5t78 64t83.5 99t82 127.5t74.5 150.5t60 167.5q8 23 14 45.5t10 45.5q-11 11 -31.5 27t-48 31t-61 25.5t-69.5 10.5 q-61 0 -112 -27.5t-92.5 -74.5t-73 -109t-52.5 -130t-32 -138t-11 -134q0 -100 29 -151.5t86 -51.5zM576 1470q-5 -35 -2 -65.5t14.5 -53t32.5 -35.5t52 -13q30 0 55 13t44 35.5t31.5 53t18.5 65.5h110q-7 -62 -31 -111t-60 -83.5t-83 -53t-101 -18.5q-53 0 -94 18.5 t-66.5 53t-34 83.5t4.5 111h109z" />
<glyph unicode="&#x104;" horiz-adv-x="1107" d="M804 361h-526l-183 -361h-154l683 1330h144l250 -1289q2 -11 4 -21l4 -20q-7 -5 -14 -11t-14 -13q-26 -21 -52.5 -45t-47.5 -51.5t-34.5 -58t-13.5 -64.5q0 -39 19 -57.5t49 -18.5q17 0 35.5 4.5t34 10t26.5 10.5t14 7l18 -76q-8 -6 -23.5 -14.5t-37.5 -17t-47.5 -14.5 t-52.5 -6q-34 0 -63.5 10t-51 29t-33.5 46t-12 61q0 42 16 80t42 72t59.5 63.5t68.5 53.5h-38zM336 477h448l-114 691z" />
<glyph unicode="&#x105;" horiz-adv-x="1054" d="M713 201q4 26 13 61.5t18.5 71t18.5 66t12 46.5q-40 -88 -93.5 -171.5t-113.5 -149t-124.5 -105.5t-125.5 -40q-48 0 -88.5 21t-70.5 61.5t-46.5 100.5t-16.5 138q0 88 15.5 177.5t45.5 172t75 154t104 125t132 84t160 30.5q70 0 126 -28t98 -64l25 92h112l-130 -816 q-12 -79 -15.5 -137.5t0.5 -90.5q-30 -22 -61 -49t-56.5 -57.5t-42 -65t-16.5 -71.5q0 -39 19 -58t49 -19q17 0 35.5 4.5t34 10t26.5 10.5t14 7l18 -75q-8 -6 -23.5 -15t-37.5 -17.5t-47.5 -14.5t-52.5 -6q-34 0 -63.5 10t-51 29t-34 46t-12.5 62q0 42 16.5 80t42.5 72 t59.5 63.5t68.5 53.5h-18q-5 16 -6.5 39.5t-1 51t3 56t6.5 54.5zM361 110q29 0 66 22.5t78 64t83.5 99t82 127.5t74.5 150.5t60 167.5q8 23 14 45.5t10 45.5q-11 11 -31.5 27t-48 31t-61 25.5t-69.5 10.5q-61 0 -112 -27.5t-92.5 -74.5t-73 -109t-52.5 -130t-32 -138 t-11 -134q0 -100 29 -151.5t86 -51.5z" />
<glyph unicode="&#x106;" horiz-adv-x="1039" d="M126 527q0 177 49.5 327.5t139.5 261t216.5 172.5t281.5 62q45 0 87.5 -6t78 -15.5t63 -20t42.5 -19.5l-52 -108q-38 13 -98 27.5t-140 14.5q-110 0 -203.5 -50t-162 -139.5t-107.5 -213t-39 -271.5q0 -104 23 -186t70 -139t118.5 -87t168.5 -30q36 0 71.5 5t68 13t60 17 t47.5 18l21 -110q-59 -32 -140 -51t-168 -19q-120 0 -212.5 40t-155.5 112t-95.5 172.5t-32.5 222.5zM590 1588l435 214l48 -130l-451 -163z" />
<glyph unicode="&#x107;" horiz-adv-x="818" d="M788 885q-10 3 -26.5 8.5t-39 11t-50 9t-57.5 3.5q-60 0 -110.5 -27.5t-91.5 -74t-72 -107.5t-52.5 -128t-32 -136t-10.5 -131q0 -97 35 -153t112 -56q37 0 77.5 8t79 20.5t73.5 27t62 27.5l33 -107q-27 -15 -65 -32.5t-85 -32.5t-102 -25t-117 -10q-57 0 -103.5 21 t-80 62t-51.5 101t-18 137q0 88 15.5 177.5t46 172t75.5 154t105 125t134 84t162 30.5q34 0 65 -5t57 -12t45.5 -14.5t30.5 -12.5zM436 1288l435 214l48 -130l-451 -163z" />
<glyph unicode="&#x108;" horiz-adv-x="1039" d="M126 527q0 177 49.5 327.5t139.5 261t216.5 172.5t281.5 62q45 0 87.5 -6t78 -15.5t63 -20t42.5 -19.5l-52 -108q-38 13 -98 27.5t-140 14.5q-110 0 -203.5 -50t-162 -139.5t-107.5 -213t-39 -271.5q0 -104 23 -186t70 -139t118.5 -87t168.5 -30q36 0 71.5 5t68 13t60 17 t47.5 18l21 -110q-59 -32 -140 -51t-168 -19q-120 0 -212.5 40t-155.5 112t-95.5 172.5t-32.5 222.5zM1011 1497q-22 18 -46 39t-47.5 43t-45.5 43.5t-38 38.5q-23 -18 -51.5 -39t-59 -43t-62 -43t-59.5 -39l-57 94q63 37 145 92t165 117q63 -61 127 -115.5t115 -91.5z" />
<glyph unicode="&#x109;" horiz-adv-x="818" d="M788 885q-10 3 -26.5 8.5t-39 11t-50 9t-57.5 3.5q-60 0 -110.5 -27.5t-91.5 -74t-72 -107.5t-52.5 -128t-32 -136t-10.5 -131q0 -97 35 -153t112 -56q37 0 77.5 8t79 20.5t73.5 27t62 27.5l33 -107q-27 -15 -65 -32.5t-85 -32.5t-102 -25t-117 -10q-57 0 -103.5 21 t-80 62t-51.5 101t-18 137q0 88 15.5 177.5t46 172t75.5 154t105 125t134 84t162 30.5q34 0 65 -5t57 -12t45.5 -14.5t30.5 -12.5zM832 1197q-22 18 -46 39t-47.5 43t-45 43.5t-37.5 38.5q-23 -18 -51.5 -39t-59.5 -43t-62 -43t-59 -39l-58 94q31 18 68 41.5t77 50.5 t82 56.5t83 60.5q64 -61 127.5 -115.5t114.5 -91.5z" />
<glyph unicode="&#x10a;" horiz-adv-x="1039" d="M126 527q0 177 49.5 327.5t139.5 261t216.5 172.5t281.5 62q45 0 87.5 -6t78 -15.5t63 -20t42.5 -19.5l-52 -108q-38 13 -98 27.5t-140 14.5q-110 0 -203.5 -50t-162 -139.5t-107.5 -213t-39 -271.5q0 -104 23 -186t70 -139t118.5 -87t168.5 -30q36 0 71.5 5t68 13t60 17 t47.5 18l21 -110q-59 -32 -140 -51t-168 -19q-120 0 -212.5 40t-155.5 112t-95.5 172.5t-32.5 222.5zM734 1635q0 51 34.5 82.5t84.5 31.5q36 0 58 -24t22 -61q0 -26 -9.5 -47t-25.5 -36t-38 -23.5t-46 -8.5q-36 0 -58 24t-22 62z" />
<glyph unicode="&#x10b;" horiz-adv-x="818" d="M788 885q-10 3 -26.5 8.5t-39 11t-50 9t-57.5 3.5q-60 0 -110.5 -27.5t-91.5 -74t-72 -107.5t-52.5 -128t-32 -136t-10.5 -131q0 -97 35 -153t112 -56q37 0 77.5 8t79 20.5t73.5 27t62 27.5l33 -107q-27 -15 -65 -32.5t-85 -32.5t-102 -25t-117 -10q-57 0 -103.5 21 t-80 62t-51.5 101t-18 137q0 88 15.5 177.5t46 172t75.5 154t105 125t134 84t162 30.5q34 0 65 -5t57 -12t45.5 -14.5t30.5 -12.5zM550 1335q0 25 9.5 46t25.5 36t38 23.5t46 8.5q36 0 58 -24t22 -61q0 -26 -9.5 -47t-25.5 -36t-38 -23.5t-46 -8.5q-36 0 -58 24t-22 62z" />
<glyph unicode="&#x10c;" horiz-adv-x="1039" d="M126 527q0 177 49.5 327.5t139.5 261t216.5 172.5t281.5 62q45 0 87.5 -6t78 -15.5t63 -20t42.5 -19.5l-52 -108q-38 13 -98 27.5t-140 14.5q-110 0 -203.5 -50t-162 -139.5t-107.5 -213t-39 -271.5q0 -104 23 -186t70 -139t118.5 -87t168.5 -30q36 0 71.5 5t68 13t60 17 t47.5 18l21 -110q-59 -32 -140 -51t-168 -19q-120 0 -212.5 40t-155.5 112t-95.5 172.5t-32.5 222.5zM650 1803q21 -16 45.5 -36.5t48 -43t45 -45.5t38.5 -44q23 21 52 44t60 45.5t62 43t58 36.5l42 -108q-44 -23 -82 -45t-73.5 -46t-69.5 -50.5t-70 -57.5q-26 31 -52 57.5 t-54 50.5t-59 46t-68 45z" />
<glyph unicode="&#x10d;" horiz-adv-x="818" d="M788 885q-10 3 -26.5 8.5t-39 11t-50 9t-57.5 3.5q-60 0 -110.5 -27.5t-91.5 -74t-72 -107.5t-52.5 -128t-32 -136t-10.5 -131q0 -97 35 -153t112 -56q37 0 77.5 8t79 20.5t73.5 27t62 27.5l33 -107q-27 -15 -65 -32.5t-85 -32.5t-102 -25t-117 -10q-57 0 -103.5 21 t-80 62t-51.5 101t-18 137q0 88 15.5 177.5t46 172t75.5 154t105 125t134 84t162 30.5q34 0 65 -5t57 -12t45.5 -14.5t30.5 -12.5zM483 1503q22 -16 46 -36.5t48 -43t45.5 -45.5t38.5 -44q23 21 52 44t59.5 45.5t62 43t58.5 36.5l42 -108q-44 -23 -82 -45t-73.5 -46 t-70 -50.5t-70.5 -57.5q-26 31 -51.5 57.5t-53.5 50.5t-59.5 46t-67.5 45z" />
<glyph unicode="&#x10e;" horiz-adv-x="1224" d="M96 0l210 1330h348q126 0 220.5 -39.5t157.5 -110.5t94.5 -170t31.5 -217q0 -179 -52.5 -325t-149.5 -250t-233.5 -161t-305.5 -57h-321zM446 118q116 0 217 43t175.5 126.5t117.5 206t43 281.5q0 100 -24 181t-71.5 138t-118 87.5t-162.5 30.5h-190l-175 -1094h188z M513 1803q22 -16 46 -36.5t48 -43t45.5 -45.5t38.5 -44q23 21 52 44t59.5 45.5t62 43t58.5 36.5l42 -108q-44 -23 -82 -45t-73.5 -46t-70 -50.5t-70.5 -57.5q-26 31 -51.5 57.5t-53.5 50.5t-59.5 46t-67.5 45z" />
<glyph unicode="&#x10f;" horiz-adv-x="1160" d="M713 201q4 27 13 62.5t18.5 70.5t18.5 65.5t12 46.5q-40 -88 -93.5 -172t-113.5 -149t-124.5 -105t-125.5 -40q-48 0 -88.5 21t-70.5 61.5t-46.5 100.5t-16.5 138q0 88 15.5 177.5t45.5 172t75 154t104 125t132 84t160 30.5q64 0 116.5 -23.5t93.5 -55.5l46 284 q10 66 12.5 113.5t-2.5 90.5l130 27q6 -14 9 -36.5t3.5 -49t-2 -55t-6.5 -54.5l-168 -1057q-12 -79 -15.5 -137.5t0.5 -90.5h-134q-5 16 -6.5 39.5t-1 51t3 56t6.5 54.5zM361 110q32 0 73.5 27t86.5 75.5t91.5 116t88 147.5t75.5 170.5t54 185.5q-11 12 -31.5 28t-48.5 30.5 t-61.5 25t-69.5 10.5q-61 0 -112 -27.5t-92.5 -74.5t-73 -109t-52.5 -130t-32 -138t-11 -134q0 -100 29 -151.5t86 -51.5zM1297 1527q5 -5 13.5 -16.5t16.5 -28.5t13.5 -39t5.5 -48q0 -48 -17.5 -88t-46 -71t-64 -53.5t-71.5 -37.5l-37 67q17 10 36 24.5t34.5 34.5t25.5 45 t10 55q0 22 -6 42.5t-14.5 37t-17.5 28t-15 17.5z" />
<glyph unicode="&#x110;" horiz-adv-x="1284" d="M77 722h193l96 608h348q126 0 220.5 -39.5t157.5 -110.5t94.5 -170t31.5 -217q0 -179 -52.5 -325t-149.5 -250t-233.5 -161t-305.5 -57h-321l96 607h-193zM506 118q116 0 217 43t175.5 126.5t117.5 206t43 281.5q0 100 -24 181t-71.5 138t-118 87.5t-162.5 30.5h-190 l-78 -490h347l-18 -115h-347l-79 -489h188z" />
<glyph unicode="&#x111;" horiz-adv-x="1063" d="M553 1315h339q5 39 5.5 72.5t-3.5 65.5l130 27q6 -17 8.5 -43t0.5 -58q1 -15 0.5 -31.5t-2.5 -32.5h163l-16 -101h-161l-157 -986q-12 -79 -15.5 -137.5t0.5 -90.5h-134q-5 16 -6.5 39.5t-1 51t3 56t6.5 54.5q4 27 13 62.5t18.5 70.5t18.5 65.5t12 46.5 q-40 -88 -93.5 -172t-113.5 -149t-124.5 -105t-125.5 -40q-48 0 -88.5 21t-70.5 61.5t-46.5 100.5t-16.5 138q0 88 15.5 177.5t45.5 172t75 154t104 125t132 84t160 30.5q64 0 116.5 -23.5t93.5 -55.5l40 249h-341zM361 110q32 0 73.5 27t86.5 75.5t91.5 116t88 147.5 t75.5 170.5t54 185.5q-11 12 -31.5 28t-48.5 30.5t-61.5 25t-69.5 10.5q-61 0 -112 -27.5t-92.5 -74.5t-73 -109t-52.5 -130t-32 -138t-11 -134q0 -100 29 -151.5t86 -51.5z" />
<glyph unicode="&#x112;" horiz-adv-x="972" d="M987 1208h-550l-76 -478h530l-19 -121h-530l-79 -487h570l-18 -122h-719l210 1330h700zM447 1714h530l-18 -115h-530z" />
<glyph unicode="&#x113;" horiz-adv-x="880" d="M854 835q0 -83 -42.5 -151.5t-120.5 -119.5t-188.5 -82.5t-247.5 -40.5q-5 -33 -8 -65.5t-3 -62.5q0 -97 37 -153t120 -56q40 0 82.5 8t83 21t77 27.5t65.5 28.5l28 -110q-27 -15 -66 -32.5t-87 -32.5t-105.5 -24.5t-121.5 -9.5q-60 0 -108.5 21t-83 62t-53 101 t-18.5 137q0 88 16 177.5t46.5 172t75.5 154t102.5 125t128 84t152.5 30.5q58 0 102.5 -15.5t75 -43t46 -66t15.5 -84.5zM603 927q-62 0 -114.5 -33.5t-94 -89t-72 -127t-49.5 -146.5q91 13 169.5 39t136.5 63.5t91 85t33 103.5q0 22 -5 41t-17 33t-31 22.5t-47 8.5z M385 1408h530l-18 -115h-530z" />
<glyph unicode="&#x114;" horiz-adv-x="972" d="M987 1208h-550l-76 -478h530l-19 -121h-530l-79 -487h570l-18 -122h-719l210 1330h700zM640 1776q-5 -35 -2 -65.5t15 -53t33 -35.5t51 -13q31 0 55.5 13t43.5 35.5t31.5 53t18.5 65.5h110q-7 -62 -30.5 -111t-60 -83.5t-83.5 -53t-100 -18.5t-94 18.5t-67 53t-34.5 83.5 t4.5 111h109z" />
<glyph unicode="&#x115;" horiz-adv-x="880" d="M854 835q0 -83 -42.5 -151.5t-120.5 -119.5t-188.5 -82.5t-247.5 -40.5q-5 -33 -8 -65.5t-3 -62.5q0 -97 37 -153t120 -56q40 0 82.5 8t83 21t77 27.5t65.5 28.5l28 -110q-27 -15 -66 -32.5t-87 -32.5t-105.5 -24.5t-121.5 -9.5q-60 0 -108.5 21t-83 62t-53 101 t-18.5 137q0 88 16 177.5t46.5 172t75.5 154t102.5 125t128 84t152.5 30.5q58 0 102.5 -15.5t75 -43t46 -66t15.5 -84.5zM603 927q-62 0 -114.5 -33.5t-94 -89t-72 -127t-49.5 -146.5q91 13 169.5 39t136.5 63.5t91 85t33 103.5q0 22 -5 41t-17 33t-31 22.5t-47 8.5z M544 1470q-5 -35 -2 -65.5t14.5 -53t32.5 -35.5t52 -13q30 0 55 13t44 35.5t31.5 53t18.5 65.5h109q-7 -62 -30.5 -111t-59.5 -83.5t-83 -53t-101 -18.5q-53 0 -94 18.5t-66.5 53t-34 83.5t4.5 111h109z" />
<glyph unicode="&#x116;" horiz-adv-x="972" d="M987 1208h-550l-76 -478h530l-19 -121h-530l-79 -487h570l-18 -122h-719l210 1330h700zM624 1635q0 51 34.5 82.5t84.5 31.5q36 0 58 -24t22 -61q0 -26 -9.5 -47t-25.5 -36t-38 -23.5t-46 -8.5q-36 0 -58 24t-22 62z" />
<glyph unicode="&#x117;" horiz-adv-x="880" d="M854 835q0 -83 -42.5 -151.5t-120.5 -119.5t-188.5 -82.5t-247.5 -40.5q-5 -33 -8 -65.5t-3 -62.5q0 -97 37 -153t120 -56q40 0 82.5 8t83 21t77 27.5t65.5 28.5l28 -110q-27 -15 -66 -32.5t-87 -32.5t-105.5 -24.5t-121.5 -9.5q-60 0 -108.5 21t-83 62t-53 101 t-18.5 137q0 88 16 177.5t46.5 172t75.5 154t102.5 125t128 84t152.5 30.5q58 0 102.5 -15.5t75 -43t46 -66t15.5 -84.5zM603 927q-62 0 -114.5 -33.5t-94 -89t-72 -127t-49.5 -146.5q91 13 169.5 39t136.5 63.5t91 85t33 103.5q0 22 -5 41t-17 33t-31 22.5t-47 8.5z M541 1335q0 51 34.5 82.5t84.5 31.5q36 0 58 -24t22 -61q0 -26 -9.5 -47t-25.5 -36t-38 -23.5t-46 -8.5q-36 0 -58 24t-22 62z" />
<glyph unicode="&#x118;" horiz-adv-x="972" d="M987 1208h-550l-76 -478h530l-19 -121h-530l-79 -487h570l-17 -109l5 -12q-30 -22 -61.5 -49t-57 -58t-41.5 -65.5t-16 -71.5q0 -39 18.5 -57.5t49.5 -18.5q17 0 35.5 4.5t34 10t26 10.5t13.5 7l19 -76q-8 -6 -24 -14.5t-37.5 -17t-47.5 -14.5t-53 -6q-33 0 -62.5 10 t-51 28.5t-34 45.5t-12.5 62q0 42 16 80t42.5 72t59.5 63.5t68 53.5h-609l210 1330h700z" />
<glyph unicode="&#x119;" horiz-adv-x="880" d="M854 835q0 -83 -42.5 -151.5t-120.5 -119.5t-188.5 -82.5t-247.5 -40.5q-5 -33 -8 -65.5t-3 -62.5q0 -97 37 -153t120 -56q40 0 82.5 8t83 21t77 27.5t65.5 28.5l28 -110q-34 -20 -85 -41.5t-117 -36.5q-30 -22 -61 -49t-56.5 -58t-42 -65.5t-16.5 -71.5q0 -39 19 -57.5 t49 -18.5q17 0 35.5 4.5t34 10t26.5 10.5t14 7l18 -76q-8 -6 -23.5 -14.5t-37.5 -17t-47.5 -14.5t-52.5 -6q-34 0 -63.5 10t-51 29t-34 46t-12.5 61q0 38 13.5 73t35.5 66.5t51 59.5t61 52q-9 -1 -18 -1.5t-19 -0.5q-60 0 -108.5 21t-83 62t-53 101t-18.5 137q0 88 16 177.5 t46.5 172t75.5 154t102.5 125t128 84t152.5 30.5q58 0 102.5 -15.5t75 -43t46 -66t15.5 -84.5zM603 927q-62 0 -114.5 -33.5t-94 -89t-72 -127t-49.5 -146.5q91 13 169.5 39t136.5 63.5t91 85t33 103.5q0 22 -5 41t-17 33t-31 22.5t-47 8.5z" />
<glyph unicode="&#x11a;" horiz-adv-x="972" d="M987 1208h-550l-76 -478h530l-19 -121h-530l-79 -487h570l-18 -122h-719l210 1330h700zM545 1803q22 -16 46 -36.5t48 -43t45.5 -45.5t38.5 -44q23 21 52 44t59.5 45.5t62 43t58.5 36.5l42 -108q-44 -23 -82 -45t-73.5 -46t-70 -50.5t-70.5 -57.5q-26 31 -51.5 57.5 t-53.5 50.5t-59.5 46t-67.5 45z" />
<glyph unicode="&#x11b;" horiz-adv-x="880" d="M854 835q0 -83 -42.5 -151.5t-120.5 -119.5t-188.5 -82.5t-247.5 -40.5q-5 -33 -8 -65.5t-3 -62.5q0 -97 37 -153t120 -56q40 0 82.5 8t83 21t77 27.5t65.5 28.5l28 -110q-27 -15 -66 -32.5t-87 -32.5t-105.5 -24.5t-121.5 -9.5q-60 0 -108.5 21t-83 62t-53 101 t-18.5 137q0 88 16 177.5t46.5 172t75.5 154t102.5 125t128 84t152.5 30.5q58 0 102.5 -15.5t75 -43t46 -66t15.5 -84.5zM603 927q-62 0 -114.5 -33.5t-94 -89t-72 -127t-49.5 -146.5q91 13 169.5 39t136.5 63.5t91 85t33 103.5q0 22 -5 41t-17 33t-31 22.5t-47 8.5z M471 1503q22 -16 46 -36.5t48 -43t45.5 -45.5t38.5 -44q23 21 52 44t59.5 45.5t62 43t58.5 36.5l42 -108q-44 -23 -82 -45t-73.5 -46t-70 -50.5t-70.5 -57.5q-26 31 -51.5 57.5t-53.5 50.5t-59.5 46t-67.5 45z" />
<glyph unicode="&#x11c;" horiz-adv-x="1157" d="M999 75q-30 -20 -70.5 -37.5t-87.5 -30.5t-98.5 -20t-103.5 -7q-126 0 -222 40t-160.5 112t-97.5 172.5t-33 222.5q0 177 50 327.5t143 261t227 172.5t302 62q90 0 166 -20t127 -49l-59 -105q-43 18 -108 32.5t-145 14.5q-123 0 -224 -50t-172.5 -139.5t-111 -213 t-39.5 -271.5q0 -104 23 -186t71.5 -139t123 -87t176.5 -30q58 0 105.5 11t79.5 25l68 426l-258 3l18 110h407zM1048 1503q-22 18 -46 39t-47.5 43t-45.5 43.5t-38 38.5q-23 -18 -51.5 -39t-59 -43t-62 -43t-59.5 -39l-57 94q63 37 145 92t165 117q63 -61 127 -115.5 t115 -91.5z" />
<glyph unicode="&#x11d;" horiz-adv-x="1058" d="M694 4q11 68 20.5 138.5t22.5 142.5l38 160q-40 -87 -93.5 -171t-113.5 -149t-124 -105t-126 -40q-48 0 -88.5 21t-70.5 61.5t-46.5 100.5t-16.5 138q0 88 15.5 177.5t45.5 172t75 154t104 125t132 84t160 30.5q35 0 66.5 -7.5t59.5 -20.5t52.5 -29t45.5 -34l24 91h113 l-36 -225q-25 -158 -43 -276t-30.5 -208t-21.5 -156.5t-17 -121.5q-17 -115 -47.5 -203t-85.5 -148t-140 -91t-210 -31q-56 0 -104.5 7.5t-88 18.5t-68.5 23.5t-46 22.5l35 111q21 -10 49.5 -21.5t64.5 -21t78.5 -16t90.5 -6.5q73 0 129 21t95.5 60t64.5 95t36 126zM361 110 q29 0 66 22.5t78 63.5t83.5 98.5t82 127.5t74 150t60.5 166q15 45 24 94q-11 11 -31.5 27t-48 31t-61 25.5t-69.5 10.5q-61 0 -112 -27.5t-92.5 -74.5t-73 -109t-52.5 -130t-32 -138t-11 -134q0 -100 29 -151.5t86 -51.5zM843 1197q-22 18 -46 39t-47.5 43t-45.5 43.5 t-38 38.5q-23 -18 -51.5 -39t-59 -43t-61.5 -43t-59 -39l-58 94q63 37 145 92t165 117q63 -61 127 -115.5t115 -91.5z" />
<glyph unicode="&#x11e;" horiz-adv-x="1157" d="M999 75q-30 -20 -70.5 -37.5t-87.5 -30.5t-98.5 -20t-103.5 -7q-126 0 -222 40t-160.5 112t-97.5 172.5t-33 222.5q0 177 50 327.5t143 261t227 172.5t302 62q90 0 166 -20t127 -49l-59 -105q-43 18 -108 32.5t-145 14.5q-123 0 -224 -50t-172.5 -139.5t-111 -213 t-39.5 -271.5q0 -104 23 -186t71.5 -139t123 -87t176.5 -30q58 0 105.5 11t79.5 25l68 426l-258 3l18 110h407zM748 1776q-5 -35 -2 -65.5t15 -53t33 -35.5t51 -13q31 0 55.5 13t43.5 35.5t31.5 53t18.5 65.5h110q-7 -62 -30.5 -111t-60 -83.5t-83.5 -53t-100 -18.5 t-94 18.5t-67 53t-34.5 83.5t4.5 111h109z" />
<glyph unicode="&#x11f;" horiz-adv-x="1058" d="M694 4q11 68 20.5 138.5t22.5 142.5l38 160q-40 -87 -93.5 -171t-113.5 -149t-124 -105t-126 -40q-48 0 -88.5 21t-70.5 61.5t-46.5 100.5t-16.5 138q0 88 15.5 177.5t45.5 172t75 154t104 125t132 84t160 30.5q35 0 66.5 -7.5t59.5 -20.5t52.5 -29t45.5 -34l24 91h113 l-36 -225q-25 -158 -43 -276t-30.5 -208t-21.5 -156.5t-17 -121.5q-17 -115 -47.5 -203t-85.5 -148t-140 -91t-210 -31q-56 0 -104.5 7.5t-88 18.5t-68.5 23.5t-46 22.5l35 111q21 -10 49.5 -21.5t64.5 -21t78.5 -16t90.5 -6.5q73 0 129 21t95.5 60t64.5 95t36 126zM361 110 q29 0 66 22.5t78 63.5t83.5 98.5t82 127.5t74 150t60.5 166q15 45 24 94q-11 11 -31.5 27t-48 31t-61 25.5t-69.5 10.5q-61 0 -112 -27.5t-92.5 -74.5t-73 -109t-52.5 -130t-32 -138t-11 -134q0 -100 29 -151.5t86 -51.5zM559 1470q-5 -35 -2 -65.5t15 -53t33 -35.5t52 -13 q30 0 55 13t43.5 35.5t31 53t18.5 65.5h110q-7 -62 -30.5 -111t-60 -83.5t-83.5 -53t-100 -18.5t-94 18.5t-67 53t-34.5 83.5t4.5 111h109z" />
<glyph unicode="&#x120;" horiz-adv-x="1157" d="M999 75q-30 -20 -70.5 -37.5t-87.5 -30.5t-98.5 -20t-103.5 -7q-126 0 -222 40t-160.5 112t-97.5 172.5t-33 222.5q0 177 50 327.5t143 261t227 172.5t302 62q90 0 166 -20t127 -49l-59 -105q-43 18 -108 32.5t-145 14.5q-123 0 -224 -50t-172.5 -139.5t-111 -213 t-39.5 -271.5q0 -104 23 -186t71.5 -139t123 -87t176.5 -30q58 0 105.5 11t79.5 25l68 426l-258 3l18 110h407zM757 1641q0 51 34.5 82.5t84.5 31.5q36 0 58 -24t22 -61q0 -26 -9.5 -47t-25.5 -36t-38 -23.5t-46 -8.5q-36 0 -58 24t-22 62z" />
<glyph unicode="&#x121;" horiz-adv-x="1058" d="M694 4q11 68 20.5 138.5t22.5 142.5l38 160q-40 -87 -93.5 -171t-113.5 -149t-124 -105t-126 -40q-48 0 -88.5 21t-70.5 61.5t-46.5 100.5t-16.5 138q0 88 15.5 177.5t45.5 172t75 154t104 125t132 84t160 30.5q35 0 66.5 -7.5t59.5 -20.5t52.5 -29t45.5 -34l24 91h113 l-36 -225q-25 -158 -43 -276t-30.5 -208t-21.5 -156.5t-17 -121.5q-17 -115 -47.5 -203t-85.5 -148t-140 -91t-210 -31q-56 0 -104.5 7.5t-88 18.5t-68.5 23.5t-46 22.5l35 111q21 -10 49.5 -21.5t64.5 -21t78.5 -16t90.5 -6.5q73 0 129 21t95.5 60t64.5 95t36 126zM361 110 q29 0 66 22.5t78 63.5t83.5 98.5t82 127.5t74 150t60.5 166q15 45 24 94q-11 11 -31.5 27t-48 31t-61 25.5t-69.5 10.5q-61 0 -112 -27.5t-92.5 -74.5t-73 -109t-52.5 -130t-32 -138t-11 -134q0 -100 29 -151.5t86 -51.5zM562 1335q0 51 34.5 82.5t84.5 31.5q36 0 58 -24 t22 -61q0 -26 -9.5 -47t-26 -36t-38.5 -23.5t-46 -8.5q-36 0 -57.5 24t-21.5 62z" />
<glyph unicode="&#x122;" horiz-adv-x="1157" d="M999 75q-30 -20 -70.5 -37.5t-87.5 -30.5t-98.5 -20t-103.5 -7q-126 0 -222 40t-160.5 112t-97.5 172.5t-33 222.5q0 177 50 327.5t143 261t227 172.5t302 62q90 0 166 -20t127 -49l-59 -105q-43 18 -108 32.5t-145 14.5q-123 0 -224 -50t-172.5 -139.5t-111 -213 t-39.5 -271.5q0 -104 23 -186t71.5 -139t123 -87t176.5 -30q58 0 105.5 11t79.5 25l68 426l-258 3l18 110h407zM643 -101q5 -5 12.5 -15.5t14 -26t11.5 -35t5 -42.5q0 -56 -24 -98t-63.5 -71t-90 -46t-103.5 -22l-11 76q31 7 60.5 19.5t52.5 31.5t36.5 45t13.5 61 q0 38 -10.5 62.5t-17.5 34.5z" />
<glyph unicode="&#x123;" horiz-adv-x="1058" d="M694 4q11 68 20.5 138.5t22.5 142.5l38 160q-40 -87 -93.5 -171t-113.5 -149t-124 -105t-126 -40q-48 0 -88.5 21t-70.5 61.5t-46.5 100.5t-16.5 138q0 88 15.5 177.5t45.5 172t75 154t104 125t132 84t160 30.5q35 0 66.5 -7.5t59.5 -20.5t52.5 -29t45.5 -34l24 91h113 l-36 -225q-25 -158 -43 -276t-30.5 -208t-21.5 -156.5t-17 -121.5q-17 -115 -47.5 -203t-85.5 -148t-140 -91t-210 -31q-56 0 -104.5 7.5t-88 18.5t-68.5 23.5t-46 22.5l35 111q21 -10 49.5 -21.5t64.5 -21t78.5 -16t90.5 -6.5q73 0 129 21t95.5 60t64.5 95t36 126zM361 110 q29 0 66 22.5t78 63.5t83.5 98.5t82 127.5t74 150t60.5 166q15 45 24 94q-11 11 -31.5 27t-48 31t-61 25.5t-69.5 10.5q-61 0 -112 -27.5t-92.5 -74.5t-73 -109t-52.5 -130t-32 -138t-11 -134q0 -100 29 -151.5t86 -51.5zM613 1173q-5 4 -12.5 15t-14 26.5t-11.5 35t-5 42.5 q0 56 24 98t64 71t90 46t103 22l11 -76q-32 -7 -61 -19.5t-52 -31.5t-36.5 -45.5t-13.5 -60.5q0 -38 10.5 -62.5t18.5 -34.5z" />
<glyph unicode="&#x124;" horiz-adv-x="1257" d="M968 609h-626l-97 -609h-149l210 1330h150l-95 -600h626l95 600h149l-210 -1330h-150zM989 1503q-22 18 -46 39t-47.5 43t-45.5 43.5t-38 38.5q-23 -18 -51.5 -39t-59 -43t-62 -43t-59.5 -39l-57 94q63 37 145 92t165 117q63 -61 127 -115.5t115 -91.5z" />
<glyph unicode="&#x125;" horiz-adv-x="1075" d="M305 1249q10 66 12.5 113.5t-2.5 90.5l130 27q6 -14 8.5 -36.5t3 -49t-1.5 -55t-6 -54.5q-15 -94 -31.5 -197t-34 -201t-35 -184t-33.5 -146q45 96 101.5 184t120.5 155.5t131.5 107.5t133.5 40q62 0 101.5 -24.5t60 -67t23.5 -100.5t-7 -124l-79 -500 q-13 -79 -16 -137.5t1 -90.5h-130q-5 16 -6.5 39.5t-1 51t3 56t6.5 54.5l78 492q7 45 8 83t-7 65.5t-27 43t-51 15.5q-38 0 -84.5 -28.5t-95.5 -78t-97.5 -117.5t-89.5 -146.5t-71.5 -164.5t-44.5 -173l-31 -192h-139zM605 1532q-22 18 -46.5 39t-48 43t-45 43.5t-37.5 38.5 q-23 -18 -51.5 -39t-59.5 -43t-62 -43t-59 -39l-57 94q63 37 144.5 92t164.5 117q64 -61 127.5 -115.5t114.5 -91.5z" />
<glyph unicode="&#x126;" horiz-adv-x="1256" d="M121 1038h139l46 292h150l-47 -292h626l47 292h149l-46 -292h140l-16 -101h-140l-148 -937h-150l97 609h-626l-97 -609h-149l148 937h-139zM987 730l32 207h-625l-33 -207h626z" />
<glyph unicode="&#x127;" horiz-adv-x="1075" d="M141 1315h172q5 39 5.5 72.5t-3.5 65.5l130 27q6 -17 8.5 -43t0.5 -58q1 -15 0.5 -31.5t-2.5 -32.5h323l-16 -101h-321q-14 -86 -30 -179.5t-32 -182t-32 -165.5t-29 -130q45 96 101.5 184t120.5 155.5t131.5 107.5t133.5 40q62 0 101.5 -24.5t60 -67t23.5 -100.5 t-7 -124l-79 -500q-13 -79 -16 -137.5t1 -90.5h-130q-5 16 -6.5 39.5t-1 51t3 56t6.5 54.5l78 492q7 45 8 83t-7 65.5t-27 43t-51 15.5q-38 0 -84.5 -28.5t-95.5 -78t-97.5 -117.5t-89.5 -146.5t-71.5 -164.5t-44.5 -173l-31 -192h-139l193 1214h-174z" />
<glyph unicode="&#x128;" horiz-adv-x="481" d="M307 1330h148l-209 -1330h-150zM156 1625q44 57 93 87.5t108 30.5q27 0 51.5 -10t47 -22.5t44.5 -22.5t44 -10q16 0 32 6t30 15.5t26.5 20.5t22.5 21l65 -65q-45 -58 -94.5 -88.5t-106.5 -30.5q-27 0 -51.5 10.5t-47.5 22.5t-45 22.5t-44 10.5q-17 0 -32.5 -6 t-29.5 -15.5t-26.5 -21t-22.5 -21.5z" />
<glyph unicode="&#x129;" horiz-adv-x="493" d="M267 1024h139l-127 -796q-13 -79 -16 -137.5t1 -90.5h-129q-5 16 -6.5 39.5t-1.5 51t2.5 56t6.5 54.5zM103 1325q45 57 94 87.5t108 30.5q27 0 51.5 -10t47 -22.5t44 -22.5t44.5 -10q16 0 32 6t30 15.5t26.5 20.5t22.5 21l64 -65q-44 -58 -93.5 -88.5t-106.5 -30.5 q-27 0 -51.5 10.5t-47.5 22.5t-45 22.5t-44 10.5q-17 0 -32.5 -6t-29.5 -15.5t-26.5 -21t-22.5 -21.5z" />
<glyph unicode="&#x12a;" horiz-adv-x="482" d="M307 1330h149l-210 -1330h-150zM175 1714h530l-18 -115h-530z" />
<glyph unicode="&#x12b;" horiz-adv-x="493" d="M267 1024h139l-127 -796q-13 -79 -16 -137.5t1 -90.5h-129q-5 16 -6.5 39.5t-1.5 51t2.5 56t6.5 54.5zM125 1408h530l-18 -115h-530z" />
<glyph unicode="&#x12c;" horiz-adv-x="482" d="M307 1330h149l-210 -1330h-150zM323 1776q-6 -35 -3 -65.5t15 -53t33 -35.5t52 -13q30 0 55 13t43.5 35.5t31 53t18.5 65.5h110q-7 -62 -30.5 -111t-60 -83.5t-83.5 -53t-100 -18.5t-94 18.5t-67 53t-34.5 83.5t4.5 111h110z" />
<glyph unicode="&#x12d;" horiz-adv-x="493" d="M267 1024h139l-127 -796q-13 -79 -16 -137.5t1 -90.5h-129q-5 16 -6.5 39.5t-1.5 51t2.5 56t6.5 54.5zM276 1470q-5 -35 -2 -65.5t15 -53t33 -35.5t52 -13q30 0 55 13t43.5 35.5t31 53t18.5 65.5h110q-7 -62 -30.5 -111t-60 -83.5t-83.5 -53t-100 -18.5t-94 18.5t-67 53 t-34.5 83.5t4.5 111h109z" />
<glyph unicode="&#x12e;" horiz-adv-x="482" d="M307 1330h149l-210 -1330h-27q-30 -22 -61 -48.5t-56.5 -57.5t-41.5 -65.5t-16 -71.5q0 -39 19 -57.5t50 -18.5q17 0 35.5 4.5t34 10t26 10.5t13.5 7l18 -76q-8 -6 -23.5 -14.5t-37.5 -17t-47.5 -14.5t-52.5 -6q-34 0 -63.5 10t-51 29t-33.5 46t-12 61q0 42 16 80t42 72 t59.5 63.5t68.5 53.5h-9z" />
<glyph unicode="&#x12f;" horiz-adv-x="493" d="M267 1024h139l-127 -796q-7 -44 -9.5 -83t-4.5 -69t-5 -50t-11 -26q-30 -22 -61 -48.5t-56.5 -57.5t-41.5 -65.5t-16 -71.5q0 -39 18.5 -57.5t49.5 -18.5q17 0 35.5 4.5t34 10t26.5 10.5t13 7l19 -76q-8 -6 -23.5 -14.5t-37.5 -17t-48 -14.5t-53 -6q-34 0 -63.5 10 t-51 29t-33.5 46t-12 61q0 42 16.5 80.5t42.5 72.5t59.5 63.5t68.5 53.5h-1q-4 16 -6 39.5t-1.5 50.5t3 55.5t6.5 54.5zM288 1335q0 51 34.5 82.5t84.5 31.5q36 0 58 -24t22 -61q0 -26 -9.5 -47t-26 -36t-38.5 -23.5t-46 -8.5q-36 0 -57.5 24t-21.5 62z" />
<glyph unicode="&#x130;" horiz-adv-x="482" d="M307 1330h149l-210 -1330h-150zM335 1635q0 51 34.5 82.5t84.5 31.5q36 0 58 -24t22 -61q0 -26 -9.5 -47t-26 -36t-38.5 -23.5t-46 -8.5q-36 0 -57.5 24t-21.5 62z" />
<glyph unicode="&#x131;" horiz-adv-x="472" d="M267 1024h139l-127 -796q-13 -79 -16 -137.5t1 -90.5h-129q-5 16 -6.5 39.5t-1.5 51t2.5 56t6.5 54.5z" />
<glyph unicode="&#x132;" horiz-adv-x="1178" d="M307 1330h149l-210 -1330h-150zM1152 1330l-164 -1036q-24 -152 -112 -233t-234 -81q-63 0 -110 18t-70 37l51 109q25 -14 61.5 -24.5t84.5 -10.5q73 0 119 45t59 127l166 1049h149z" />
<glyph unicode="&#x133;" horiz-adv-x="939" d="M267 1024h139l-127 -796q-13 -79 -16 -137.5t1 -90.5h-129q-5 16 -6.5 39.5t-1.5 51t2.5 56t6.5 54.5zM288 1335q0 51 34.5 82.5t84.5 31.5q36 0 58 -24t22 -61q0 -26 -9.5 -47t-26 -36t-38.5 -23.5t-46 -8.5q-36 0 -57.5 24t-21.5 62zM754 1335q0 51 34.5 82.5 t84.5 31.5q36 0 58 -24t22 -61q0 -26 -9.5 -47t-26 -36t-38.5 -23.5t-46 -8.5q-36 0 -57.5 24t-21.5 62zM734 1024h138l-173 -1091q-15 -98 -42 -164.5t-66.5 -107.5t-92.5 -59t-121 -18q-49 0 -84 11t-50 19l29 108q11 -5 39 -12.5t59 -7.5q44 0 75.5 13.5t53.5 40t36 66 t22 92.5z" />
<glyph unicode="&#x134;" horiz-adv-x="709" d="M683 1330l-164 -1036q-25 -152 -113 -233t-233 -81q-63 0 -110.5 18t-70.5 37l52 109q25 -14 61 -24.5t84 -10.5q73 0 119.5 45t59.5 127l165 1049h150zM836 1503q-22 18 -46 39t-47.5 43t-45.5 43.5t-38 38.5q-23 -18 -51.5 -39t-59 -43t-62 -43t-59.5 -39l-57 94 q63 37 145 92t165 117q63 -61 127 -115.5t115 -91.5z" />
<glyph unicode="&#x135;" horiz-adv-x="475" d="M270 1024h138l-173 -1091q-15 -98 -42 -164.5t-66.5 -107.5t-92.5 -59t-121 -18q-49 0 -84 11t-50 19l29 108q11 -5 39 -12.5t59 -7.5q44 0 75.5 13.5t53.5 40t36 66t22 92.5zM578 1197q-22 18 -46 39t-47.5 43t-45.5 43.5t-38 38.5q-23 -18 -51.5 -39t-59 -43t-62 -43 t-59.5 -39l-57 94q63 37 144.5 92t165.5 117q63 -61 127 -115.5t115 -91.5z" />
<glyph unicode="&#x136;" horiz-adv-x="1092" d="M1058 1304q12 -116 -14 -214.5t-80 -179.5t-130.5 -144.5t-166.5 -110.5l276 -655h-160l-247 596q-53 -20 -105 -34t-103 -24l-85 -538h-147l210 1330h148l-106 -667q92 21 185 59.5t171 100t132 149.5t68 208q6 36 7.5 74.5t-0.5 75.5h146q0 -2 0.5 -8.5t0.5 -17.5z M567 -101q5 -5 12.5 -15.5t14 -26t11.5 -35t5 -42.5q0 -56 -24 -98t-63.5 -71t-90 -46t-103.5 -22l-11 76q31 7 60.5 19.5t52.5 31.5t36.5 45t13.5 61q0 38 -10.5 62.5t-17.5 34.5z" />
<glyph unicode="&#x137;" horiz-adv-x="922" d="M305 1249q11 66 13 113.5t-3 90.5l131 27q5 -14 8 -36.5t3.5 -49t-1.5 -55t-6 -54.5l-119 -752q70 20 139.5 54t127 83t96.5 112.5t50 141.5q5 24 6 49.5t-1 50.5l143 20q7 -30 8 -60.5t-2 -60.5q-5 -58 -25 -107.5t-48.5 -90.5t-62 -74.5t-66 -58.5t-60.5 -42t-46 -26 l217 -524h-158l-181 473q-39 -17 -79.5 -30.5t-75.5 -22.5l-67 -420h-140zM433 -101q5 -5 12 -15.5t14 -26t11.5 -35t4.5 -42.5q0 -56 -24 -98t-63.5 -71t-90 -46t-102.5 -22l-12 76q32 7 61.5 19.5t52.5 31.5t36.5 45t13.5 61q0 38 -11 62.5t-18 34.5z" />
<glyph unicode="&#x138;" horiz-adv-x="922" d="M270 1024h139l-78 -491q69 19 135.5 52t122 80t94 108t51.5 136q6 27 8 56.5t0 58.5l143 20q8 -35 8 -69.5t-5 -68.5q-7 -55 -27 -102t-47 -86t-59 -71t-62.5 -56t-57.5 -40.5t-44 -25.5l223 -525h-158l-188 473q-39 -17 -79.5 -30.5t-75.5 -22.5l-67 -420h-140z" />
<glyph unicode="&#x139;" horiz-adv-x="868" d="M774 0h-678l211 1330h149l-192 -1208h528zM259 1588l435 214l48 -130l-451 -163z" />
<glyph unicode="&#x13a;" horiz-adv-x="473" d="M303 1249q11 66 13.5 113.5t-2.5 90.5l130 27q6 -14 8.5 -36.5t3 -49t-1.5 -55t-6 -54.5l-169 -1057q-13 -79 -16 -137.5t1 -90.5h-129q-5 16 -6.5 39.5t-1.5 51t2.5 56t6.5 54.5zM237 1627l435 214l48 -130l-451 -163z" />
<glyph unicode="&#x13b;" horiz-adv-x="868" d="M774 0h-678l211 1330h149l-192 -1208h528zM484 -101q5 -5 12 -15.5t14 -26t11.5 -35t4.5 -42.5q0 -56 -24 -98t-63.5 -71t-90 -46t-102.5 -22l-11 76q31 7 60.5 19.5t52.5 31.5t36.5 45t13.5 61q0 38 -11 62.5t-18 34.5z" />
<glyph unicode="&#x13c;" horiz-adv-x="473" d="M303 1249q11 66 13.5 113.5t-2.5 90.5l130 27q6 -14 8.5 -36.5t3 -49t-1.5 -55t-6 -54.5l-169 -1057q-13 -79 -16 -137.5t1 -90.5h-129q-5 16 -6.5 39.5t-1.5 51t2.5 56t6.5 54.5zM231 -101q5 -5 12.5 -15.5t14 -26t11.5 -35t5 -42.5q0 -56 -24 -98t-63.5 -71t-90 -46 t-103.5 -22l-11 76q31 7 60.5 19.5t52.5 31.5t36.5 45t13.5 61q0 38 -10.5 62.5t-17.5 34.5z" />
<glyph unicode="&#x13d;" horiz-adv-x="868" d="M774 0h-678l211 1330h149l-192 -1208h528zM821 1357q5 -5 12.5 -15.5t14 -26t11.5 -35t5 -42.5q0 -56 -24 -98t-63.5 -71t-90 -46t-103.5 -22l-11 76q31 7 60.5 19.5t52.5 31.5t36.5 45t13.5 61q0 38 -10.5 62.5t-17.5 34.5z" />
<glyph unicode="&#x13e;" horiz-adv-x="573" d="M709 1527q5 -5 13.5 -16.5t16.5 -28.5t14 -39t6 -48q0 -48 -17.5 -88t-46 -71t-64 -53.5t-71.5 -37.5l-38 67q17 10 36 24.5t34.5 34.5t25.5 45t10 55q0 22 -6 42.5t-14.5 37t-17.5 28t-15 17.5zM303 1249q11 66 13.5 113.5t-2.5 90.5l130 27q6 -14 8.5 -36.5t3 -49 t-1.5 -55t-6 -54.5l-169 -1057q-13 -79 -16 -137.5t1 -90.5h-129q-5 16 -6.5 39.5t-1.5 51t2.5 56t6.5 54.5z" />
<glyph unicode="&#x13f;" horiz-adv-x="868" d="M774 0h-678l211 1330h149l-192 -1208h528zM598 683q0 51 34.5 82.5t84.5 31.5q36 0 58 -24t22 -61q0 -26 -9.5 -47t-25.5 -36t-38 -23.5t-46 -8.5q-36 0 -58 24t-22 62z" />
<glyph unicode="&#x140;" horiz-adv-x="629" d="M303 1249q11 66 13.5 113.5t-2.5 90.5l130 27q6 -14 8.5 -36.5t3 -49t-1.5 -55t-6 -54.5l-169 -1057q-13 -79 -16 -137.5t1 -90.5h-129q-5 16 -6.5 39.5t-1.5 51t2.5 56t6.5 54.5zM502 733q0 25 9.5 46t25.5 36t38 23.5t46 8.5q36 0 58.5 -24t22.5 -61q0 -26 -9.5 -47 t-26 -36t-38.5 -23.5t-46 -8.5q-36 0 -58 24t-22 62z" />
<glyph unicode="&#x141;" horiz-adv-x="890" d="M-2 514l226 152l105 664h150l-88 -551l264 177l56 -90l-343 -230l-81 -514h528l-18 -122h-679l83 523l-148 -100z" />
<glyph unicode="&#x142;" horiz-adv-x="533" d="M17 570l233 155l83 524q11 66 13.5 113.5t-2.5 90.5l130 27q6 -14 8.5 -36.5t3 -49t-1.5 -55t-6 -54.5l-73 -455l153 102l55 -90l-230 -155l-74 -459q-13 -79 -16 -137.5t1 -90.5h-129q-5 16 -6.5 39.5t-1.5 51t2.5 56t6.5 54.5l60 381l-154 -103z" />
<glyph unicode="&#x143;" horiz-adv-x="1259" d="M415 1148l-182 -1148h-137l210 1330h181l427 -1149l182 1149h137l-210 -1330h-181zM612 1588l435 214l48 -130l-451 -163z" />
<glyph unicode="&#x144;" horiz-adv-x="1075" d="M383 1024q4 -17 5.5 -40t1 -50t-3.5 -55.5t-7 -55.5q-6 -35 -15.5 -75.5t-19 -78t-18 -67.5t-11.5 -45q45 96 101.5 184t120.5 155.5t131.5 107.5t133.5 40q62 0 101.5 -24.5t60 -67t23.5 -100.5t-7 -124l-79 -500q-13 -79 -16 -137.5t1 -90.5h-130q-5 16 -6.5 39.5 t-1 51t3 56t6.5 54.5l78 492q7 45 8 83t-7 65.5t-27 43t-51 15.5q-38 0 -84.5 -28.5t-95.5 -78t-97.5 -117.5t-89.5 -146.5t-71.5 -164.5t-44.5 -173l-31 -192h-139l127 796q8 56 12.5 104.5t5.5 84.5q1 12 0.5 22t-1.5 17h133zM471 1288l435 214l48 -130l-451 -163z" />
<glyph unicode="&#x145;" horiz-adv-x="1259" d="M415 1148l-182 -1148h-137l210 1330h181l427 -1149l182 1149h137l-210 -1330h-181zM582 -101q5 -5 12.5 -15.5t14 -26t11.5 -35t5 -42.5q0 -56 -24 -98t-63.5 -71t-90 -46t-103.5 -22l-11 76q31 7 60.5 19.5t52.5 31.5t36.5 45t13.5 61q0 38 -10.5 62.5t-17.5 34.5z" />
<glyph unicode="&#x146;" horiz-adv-x="1075" d="M383 1024q4 -17 5.5 -40t1 -50t-3.5 -55.5t-7 -55.5q-6 -35 -15.5 -75.5t-19 -78t-18 -67.5t-11.5 -45q45 96 101.5 184t120.5 155.5t131.5 107.5t133.5 40q62 0 101.5 -24.5t60 -67t23.5 -100.5t-7 -124l-79 -500q-13 -79 -16 -137.5t1 -90.5h-130q-5 16 -6.5 39.5 t-1 51t3 56t6.5 54.5l78 492q7 45 8 83t-7 65.5t-27 43t-51 15.5q-38 0 -84.5 -28.5t-95.5 -78t-97.5 -117.5t-89.5 -146.5t-71.5 -164.5t-44.5 -173l-31 -192h-139l127 796q8 56 12.5 104.5t5.5 84.5q1 12 0.5 22t-1.5 17h133zM515 -101q5 -5 12 -15.5t14 -26t11.5 -35 t4.5 -42.5q0 -56 -24 -98t-63.5 -71t-90 -46t-103.5 -22l-11 76q32 7 61.5 19.5t52.5 31.5t36.5 45t13.5 61q0 38 -11 62.5t-18 34.5z" />
<glyph unicode="&#x147;" horiz-adv-x="1259" d="M415 1148l-182 -1148h-137l210 1330h181l427 -1149l182 1149h137l-210 -1330h-181zM626 1803q22 -16 46 -36.5t48 -43t45.5 -45.5t38.5 -44q23 21 52 44t59.5 45.5t62 43t58.5 36.5l42 -108q-44 -23 -82 -45t-73.5 -46t-70 -50.5t-70.5 -57.5q-26 31 -51.5 57.5 t-53.5 50.5t-59.5 46t-67.5 45z" />
<glyph unicode="&#x148;" horiz-adv-x="1075" d="M383 1024q4 -17 5.5 -40t1 -50t-3.5 -55.5t-7 -55.5q-6 -35 -15.5 -75.5t-19 -78t-18 -67.5t-11.5 -45q45 96 101.5 184t120.5 155.5t131.5 107.5t133.5 40q62 0 101.5 -24.5t60 -67t23.5 -100.5t-7 -124l-79 -500q-13 -79 -16 -137.5t1 -90.5h-130q-5 16 -6.5 39.5 t-1 51t3 56t6.5 54.5l78 492q7 45 8 83t-7 65.5t-27 43t-51 15.5q-38 0 -84.5 -28.5t-95.5 -78t-97.5 -117.5t-89.5 -146.5t-71.5 -164.5t-44.5 -173l-31 -192h-139l127 796q8 56 12.5 104.5t5.5 84.5q1 12 0.5 22t-1.5 17h133zM517 1503q21 -16 45.5 -36.5t48 -43t45 -45.5 t38.5 -44q23 21 52 44t60 45.5t62 43t58 36.5l42 -108q-44 -23 -82 -45t-73.5 -46t-69.5 -50.5t-70 -57.5q-26 31 -52 57.5t-54 50.5t-59 46t-68 45z" />
<glyph unicode="&#x149;" horiz-adv-x="1179" d="M89 1040q16 24 34 54t32.5 64.5t24 73.5t9.5 81q0 47 -8.5 82t-15.5 52l153 25q4 -11 8 -32t6 -48q1 -14 1 -28.5v-29.5q-2 -59 -20.5 -110t-43.5 -92.5t-52 -72.5t-48 -49zM487 1024q4 -17 5.5 -40t1 -50t-3.5 -55.5t-7 -55.5q-6 -35 -15.5 -75.5t-19 -78t-18 -67.5 t-11.5 -45q45 96 101.5 184t120.5 155.5t131.5 107.5t133.5 40q62 0 101.5 -24.5t60 -67t23.5 -100.5t-7 -124l-79 -500q-13 -79 -16 -137.5t1 -90.5h-130q-5 16 -6.5 39.5t-1 51t3 56t6.5 54.5l78 492q7 45 8 83t-7 65.5t-27 43t-51 15.5q-38 0 -84.5 -28.5t-95.5 -78 t-97.5 -117.5t-89.5 -146.5t-71.5 -164.5t-44.5 -173l-31 -192h-139l127 796q8 56 12.5 104.5t5.5 84.5q1 12 0.5 22t-1.5 17h133z" />
<glyph unicode="&#x14a;" horiz-adv-x="1259" d="M684 -298q44 0 75.5 13.5t54 40t36.5 66t22 92.5l11 75l-463 1143l-180 -1132h-144l210 1330h181l432 -1075l170 1075h144l-220 -1397q-15 -98 -42 -164.5t-66.5 -107.5t-92.5 -59t-121 -18q-49 0 -84 11t-49 19l28 108q11 -5 39 -12.5t59 -7.5z" />
<glyph unicode="&#x14b;" horiz-adv-x="1075" d="M383 1024q4 -17 5.5 -40t1 -50t-3.5 -55.5t-7 -55.5q-6 -35 -13.5 -70.5t-14.5 -66t-13 -55.5t-9 -39q43 96 99 178.5t118 143.5t127.5 95.5t128.5 34.5q62 0 101.5 -24.5t60 -67t23.5 -100.5t-7 -124l-77 -483q-12 -78 -24.5 -156t-24.5 -156q-16 -98 -43 -164.5 t-66.5 -107.5t-92.5 -59t-121 -18q-48 0 -83 11t-50 19l28 108q12 -5 40 -12.5t59 -7.5q44 0 75.5 13.5t53.5 40t35.5 66t22.5 92.5l124 779q7 45 8 83t-7 65.5t-27 43t-51 15.5q-38 0 -84.5 -28.5t-95.5 -78t-97.5 -117.5t-89.5 -146.5t-71.5 -164.5t-44.5 -173l-31 -192 h-139l127 796q8 56 12.5 104.5t5.5 84.5q1 12 0.5 22t-1.5 17h133z" />
<glyph unicode="&#x14c;" horiz-adv-x="1328" d="M620 104q98 0 186 53.5t154.5 147t105.5 220t39 271.5q0 98 -22 177t-65 135t-106 86.5t-145 30.5q-98 0 -186 -53.5t-154.5 -147t-105.5 -219.5t-39 -271q0 -98 22 -177.5t65 -135.5t106 -86.5t145 -30.5zM589 -20q-106 0 -191.5 40t-146 110.5t-93 168t-32.5 213.5 t22 223.5t64 200.5t101.5 169.5t134 130.5t163 84t187.5 30q106 0 192 -40t146.5 -111t93 -168.5t32.5 -213.5t-22 -223.5t-64 -200.5t-101.5 -169t-134 -130.5t-163.5 -84t-188 -29.5zM583 1714h530l-18 -115h-530z" />
<glyph unicode="&#x14d;" horiz-adv-x="991" d="M409 -20q-70 0 -127.5 24.5t-99 71t-64 113.5t-22.5 151q0 152 39.5 281t110 223t167 147t210.5 53q70 0 127.5 -24.5t98.5 -71t63.5 -113.5t22.5 -151q0 -152 -39.5 -281t-110 -223t-166.5 -147t-210 -53zM435 97q70 0 133.5 45.5t111.5 123.5t76.5 181t28.5 219 q0 135 -48.5 198t-140.5 63q-70 0 -133.5 -45.5t-111.5 -123.5t-76.5 -181.5t-28.5 -218.5q0 -135 48.5 -198t140.5 -63zM403 1408h530l-18 -115h-530z" />
<glyph unicode="&#x14e;" horiz-adv-x="1328" d="M620 104q98 0 186 53.5t154.5 147t105.5 220t39 271.5q0 98 -22 177t-65 135t-106 86.5t-145 30.5q-98 0 -186 -53.5t-154.5 -147t-105.5 -219.5t-39 -271q0 -98 22 -177.5t65 -135.5t106 -86.5t145 -30.5zM589 -20q-106 0 -191.5 40t-146 110.5t-93 168t-32.5 213.5 t22 223.5t64 200.5t101.5 169.5t134 130.5t163 84t187.5 30q106 0 192 -40t146.5 -111t93 -168.5t32.5 -213.5t-22 -223.5t-64 -200.5t-101.5 -169t-134 -130.5t-163.5 -84t-188 -29.5zM745 1776q-5 -35 -2 -65.5t14.5 -53t32.5 -35.5t52 -13q30 0 55 13t44 35.5t31.5 53 t18.5 65.5h109q-7 -62 -30.5 -111t-59.5 -83.5t-83 -53t-101 -18.5q-53 0 -94 18.5t-66.5 53t-34 83.5t4.5 111h109z" />
<glyph unicode="&#x14f;" horiz-adv-x="991" d="M409 -20q-70 0 -127.5 24.5t-99 71t-64 113.5t-22.5 151q0 152 39.5 281t110 223t167 147t210.5 53q70 0 127.5 -24.5t98.5 -71t63.5 -113.5t22.5 -151q0 -152 -39.5 -281t-110 -223t-166.5 -147t-210 -53zM435 97q70 0 133.5 45.5t111.5 123.5t76.5 181t28.5 219 q0 135 -48.5 198t-140.5 63q-70 0 -133.5 -45.5t-111.5 -123.5t-76.5 -181.5t-28.5 -218.5q0 -135 48.5 -198t140.5 -63zM546 1470q-5 -35 -2 -65.5t14.5 -53t32.5 -35.5t52 -13q30 0 55 13t43.5 35.5t31 53t18.5 65.5h110q-7 -62 -30.5 -111t-60 -83.5t-83.5 -53 t-100 -18.5t-94 18.5t-67 53t-34 83.5t5 111h109z" />
<glyph unicode="&#x150;" horiz-adv-x="1328" d="M620 104q98 0 186 53.5t154.5 147t105.5 220t39 271.5q0 98 -22 177t-65 135t-106 86.5t-145 30.5q-98 0 -186 -53.5t-154.5 -147t-105.5 -219.5t-39 -271q0 -98 22 -177.5t65 -135.5t106 -86.5t145 -30.5zM589 -20q-106 0 -191.5 40t-146 110.5t-93 168t-32.5 213.5 t22 223.5t64 200.5t101.5 169.5t134 130.5t163 84t187.5 30q106 0 192 -40t146.5 -111t93 -168.5t32.5 -213.5t-22 -223.5t-64 -200.5t-101.5 -169t-134 -130.5t-163.5 -84t-188 -29.5zM852 1548l262 303l96 -87l-291 -280zM555 1538l272 313l96 -88l-301 -288z" />
<glyph unicode="&#x151;" horiz-adv-x="991" d="M409 -20q-70 0 -127.5 24.5t-99 71t-64 113.5t-22.5 151q0 152 39.5 281t110 223t167 147t210.5 53q70 0 127.5 -24.5t98.5 -71t63.5 -113.5t22.5 -151q0 -152 -39.5 -281t-110 -223t-166.5 -147t-210 -53zM435 97q70 0 133.5 45.5t111.5 123.5t76.5 181t28.5 219 q0 135 -48.5 198t-140.5 63q-70 0 -133.5 -45.5t-111.5 -123.5t-76.5 -181.5t-28.5 -218.5q0 -135 48.5 -198t140.5 -63zM687 1242l262 303l96 -87l-291 -280zM390 1232l272 313l96 -88l-301 -288z" />
<glyph unicode="&#x152;" horiz-adv-x="1783" d="M1798 1208h-551l-76 -478h531l-19 -121h-531l-78 -487h569l-18 -122h-718l12 84q-69 -47 -154 -75.5t-179 -28.5q-103 0 -188 40.5t-145.5 113.5t-93.5 175t-33 224q0 178 52.5 328t145 258.5t218.5 169.5t272 61q46 0 87.5 -9.5t78 -25t67.5 -36.5t55 -45l15 96h700z M617 100q91 0 174 34t151 96l135 850q-22 32 -52.5 59.5t-68 47.5t-81.5 31.5t-92 11.5q-104 0 -195.5 -51.5t-159.5 -142t-107 -214t-39 -267.5q0 -103 23.5 -187t67 -143.5t105.5 -92t139 -32.5z" />
<glyph unicode="&#x153;" horiz-adv-x="1435" d="M623 1044q80 0 143 -34.5t104 -99.5q61 62 135.5 98t164.5 36q58 0 102.5 -15.5t75 -43t46 -66t15.5 -84.5q0 -83 -42 -151.5t-120 -119.5t-189 -82.5t-248 -40.5q-5 -33 -8 -65.5t-3 -62.5q0 -97 37 -153t120 -56q40 0 82.5 8t83 21t77 27.5t65.5 28.5l28 -110 q-27 -15 -66 -32.5t-87 -32.5t-105.5 -24.5t-121.5 -9.5q-71 0 -125.5 29.5t-88.5 86.5q-62 -56 -135 -86t-154 -30q-70 0 -127.5 24.5t-99 71t-64 113.5t-22.5 151q0 152 39.5 281t110 223t167 147t210.5 53zM435 97q62 0 118 31.5t103 88.5q-3 20 -5 40.5t-2 43.5 q0 131 34 260.5t100 235.5q-40 130 -187 130q-70 0 -133.5 -45.5t-111.5 -123.5t-76.5 -181.5t-28.5 -218.5q0 -135 48.5 -198t140.5 -63zM1158 927q-62 0 -114.5 -33.5t-94 -89t-72 -127t-49.5 -146.5q91 13 169.5 39t136.5 63.5t91 85t33 103.5q0 22 -5 41t-17 33 t-31 22.5t-47 8.5z" />
<glyph unicode="&#x154;" horiz-adv-x="1064" d="M96 0l210 1330h380q86 0 154 -22t115.5 -63.5t72.5 -101.5t25 -135t-30 -142.5t-79 -123.5t-111.5 -98.5t-128.5 -67.5l82 -385q13 -59 40 -78t67 -19q19 0 39 3t34 6l1 -103q-21 -8 -51.5 -14t-68.5 -6q-37 0 -69 9t-58 29.5t-45 54t-29 82.5l-81 395h-235l-87 -550 h-147zM436 1212l-87 -544h306q44 16 86.5 46t76.5 71t54.5 92.5t20.5 110.5q0 106 -58 165t-175 59h-224zM494 1588l434 214l48 -130l-451 -163z" />
<glyph unicode="&#x155;" horiz-adv-x="723" d="M383 1024q4 -17 5.5 -40t1 -50t-3.5 -55.5t-7 -55.5q-3 -21 -9 -48l-12 -54t-11.5 -50t-8.5 -36q26 64 59.5 134t76.5 129.5t95.5 99.5t117.5 44q22 2 43 -1.5t37 -8.5l-27 -157q-30 9 -68 4q-47 -5 -90.5 -34.5t-83.5 -78t-74.5 -113t-63 -139.5t-50 -157t-34.5 -165 l-31 -192h-139l127 796q8 56 12.5 104.5t5.5 84.5q1 12 0.5 22t-1.5 17h133zM375 1288l435 214l47 -130l-450 -163z" />
<glyph unicode="&#x156;" horiz-adv-x="1064" d="M96 0l210 1330h380q86 0 154 -22t115.5 -63.5t72.5 -101.5t25 -135t-30 -142.5t-79 -123.5t-111.5 -98.5t-128.5 -67.5l82 -385q13 -59 40 -78t67 -19q19 0 39 3t34 6l1 -103q-21 -8 -51.5 -14t-68.5 -6q-37 0 -69 9t-58 29.5t-45 54t-29 82.5l-81 395h-235l-87 -550 h-147zM436 1212l-87 -544h306q44 16 86.5 46t76.5 71t54.5 92.5t20.5 110.5q0 106 -58 165t-175 59h-224zM518 -101q5 -5 12.5 -15.5t14 -26t11.5 -35t5 -42.5q0 -56 -24 -98t-63.5 -71t-90 -46t-103.5 -22l-11 76q31 7 60.5 19.5t52.5 31.5t36.5 45t13.5 61 q0 38 -10.5 62.5t-17.5 34.5z" />
<glyph unicode="&#x157;" horiz-adv-x="723" d="M383 1024q4 -17 5.5 -40t1 -50t-3.5 -55.5t-7 -55.5q-3 -21 -9 -48l-12 -54t-11.5 -50t-8.5 -36q26 64 59.5 134t76.5 129.5t95.5 99.5t117.5 44q22 2 43 -1.5t37 -8.5l-27 -157q-30 9 -68 4q-47 -5 -90.5 -34.5t-83.5 -78t-74.5 -113t-63 -139.5t-50 -157t-34.5 -165 l-31 -192h-139l127 796q8 56 12.5 104.5t5.5 84.5q1 12 0.5 22t-1.5 17h133zM209 -101q5 -5 12 -15.5t14 -26t11.5 -35t4.5 -42.5q0 -56 -24 -98t-63.5 -71t-90 -46t-103.5 -22l-11 76q32 7 61.5 19.5t52.5 31.5t36.5 45t13.5 61q0 38 -11 62.5t-18 34.5z" />
<glyph unicode="&#x158;" horiz-adv-x="1064" d="M96 0l210 1330h380q86 0 154 -22t115.5 -63.5t72.5 -101.5t25 -135t-30 -142.5t-79 -123.5t-111.5 -98.5t-128.5 -67.5l82 -385q13 -59 40 -78t67 -19q19 0 39 3t34 6l1 -103q-21 -8 -51.5 -14t-68.5 -6q-37 0 -69 9t-58 29.5t-45 54t-29 82.5l-81 395h-235l-87 -550 h-147zM436 1212l-87 -544h306q44 16 86.5 46t76.5 71t54.5 92.5t20.5 110.5q0 106 -58 165t-175 59h-224zM514 1803q22 -16 46 -36.5t48 -43t45.5 -45.5t38.5 -44q23 21 52 44t59.5 45.5t62 43t58.5 36.5l42 -108q-44 -23 -82 -45t-73.5 -46t-70 -50.5t-70.5 -57.5 q-26 31 -51.5 57.5t-53.5 50.5t-59.5 46t-67.5 45z" />
<glyph unicode="&#x159;" horiz-adv-x="723" d="M383 1024q4 -17 5.5 -40t1 -50t-3.5 -55.5t-7 -55.5q-3 -21 -9 -48l-12 -54t-11.5 -50t-8.5 -36q26 64 59.5 134t76.5 129.5t95.5 99.5t117.5 44q22 2 43 -1.5t37 -8.5l-27 -157q-30 9 -68 4q-47 -5 -90.5 -34.5t-83.5 -78t-74.5 -113t-63 -139.5t-50 -157t-34.5 -165 l-31 -192h-139l127 796q8 56 12.5 104.5t5.5 84.5q1 12 0.5 22t-1.5 17h133zM361 1503q22 -16 46 -36.5t48 -43t45.5 -45.5t38.5 -44q23 21 52 44t59.5 45.5t62 43t58.5 36.5l42 -108q-44 -23 -82.5 -45t-74 -46t-69.5 -50.5t-70 -57.5q-26 31 -51.5 57.5t-53.5 50.5 t-59.5 46t-67.5 45z" />
<glyph unicode="&#x15a;" horiz-adv-x="935" d="M90 160q51 -20 123.5 -36.5t174.5 -16.5q69 0 125.5 16.5t96.5 47.5t62 76.5t22 102.5q0 38 -12 69t-37 59t-64 55t-93 57l-111 62q-88 49 -139.5 120.5t-51.5 178.5q0 90 37 163.5t101 126t149 81t180 28.5q45 0 85 -5t73.5 -12t60.5 -15.5t46 -15.5l-38 -116 q-19 6 -45.5 12.5t-59 12t-69 9t-75.5 3.5q-65 0 -119.5 -18t-94.5 -50.5t-62.5 -78t-22.5 -101.5q0 -37 8.5 -67.5t27 -57t48.5 -50t73 -47.5l117 -65q57 -32 101 -65.5t74 -72t45.5 -82t15.5 -95.5q0 -90 -33.5 -162.5t-95.5 -124t-149.5 -79t-195.5 -27.5q-54 0 -103 6 t-90 15.5t-73.5 21t-54.5 22.5zM447 1588l435 214l48 -130l-451 -163z" />
<glyph unicode="&#x15b;" horiz-adv-x="746" d="M79 143q18 -6 43.5 -13t56 -13t64 -10t67.5 -4q41 0 78 8t64.5 25t43.5 43.5t16 64.5q0 33 -9.5 60t-31 53.5t-57 56.5t-87.5 69q-57 43 -94.5 78.5t-59.5 68t-30.5 65t-8.5 69.5q0 60 23.5 111t68 88.5t107.5 59t142 21.5q85 0 145 -13.5t83 -21.5l-25 -121 q-30 8 -86 18.5t-129 10.5q-44 0 -78.5 -11t-58.5 -30t-36.5 -43.5t-12.5 -52.5q0 -33 8 -58t25.5 -48t45.5 -47t69 -55q59 -45 102.5 -83.5t72 -75t42 -73t13.5 -77.5q0 -60 -21 -111.5t-64.5 -90t-110.5 -60t-158 -21.5q-85 0 -150.5 15t-104.5 31zM282 1288l435 214 l48 -130l-451 -163z" />
<glyph unicode="&#x15c;" horiz-adv-x="935" d="M90 160q51 -20 123.5 -36.5t174.5 -16.5q69 0 125.5 16.5t96.5 47.5t62 76.5t22 102.5q0 38 -12 69t-37 59t-64 55t-93 57l-111 62q-88 49 -139.5 120.5t-51.5 178.5q0 90 37 163.5t101 126t149 81t180 28.5q45 0 85 -5t73.5 -12t60.5 -15.5t46 -15.5l-38 -116 q-19 6 -45.5 12.5t-59 12t-69 9t-75.5 3.5q-65 0 -119.5 -18t-94.5 -50.5t-62.5 -78t-22.5 -101.5q0 -37 8.5 -67.5t27 -57t48.5 -50t73 -47.5l117 -65q57 -32 101 -65.5t74 -72t45.5 -82t15.5 -95.5q0 -90 -33.5 -162.5t-95.5 -124t-149.5 -79t-195.5 -27.5q-54 0 -103 6 t-90 15.5t-73.5 21t-54.5 22.5zM884 1497q-22 18 -46 39t-47.5 43t-45.5 43.5t-38 38.5q-23 -18 -51.5 -39t-59 -43t-62 -43t-59.5 -39l-57 94q63 37 145 92t165 117q63 -61 127 -115.5t115 -91.5z" />
<glyph unicode="&#x15d;" horiz-adv-x="746" d="M79 143q18 -6 43.5 -13t56 -13t64 -10t67.5 -4q41 0 78 8t64.5 25t43.5 43.5t16 64.5q0 33 -9.5 60t-31 53.5t-57 56.5t-87.5 69q-57 43 -94.5 78.5t-59.5 68t-30.5 65t-8.5 69.5q0 60 23.5 111t68 88.5t107.5 59t142 21.5q85 0 145 -13.5t83 -21.5l-25 -121 q-30 8 -86 18.5t-129 10.5q-44 0 -78.5 -11t-58.5 -30t-36.5 -43.5t-12.5 -52.5q0 -33 8 -58t25.5 -48t45.5 -47t69 -55q59 -45 102.5 -83.5t72 -75t42 -73t13.5 -77.5q0 -60 -21 -111.5t-64.5 -90t-110.5 -60t-158 -21.5q-85 0 -150.5 15t-104.5 31zM705 1197 q-22 18 -46 39t-47.5 43t-45.5 43.5t-38 38.5q-23 -18 -51.5 -39t-59 -43t-62 -43t-59.5 -39l-57 94q63 37 145 92t165 117q63 -61 127 -115.5t115 -91.5z" />
<glyph unicode="&#x15e;" horiz-adv-x="935" d="M90 160q51 -20 123.5 -36.5t174.5 -16.5q69 0 125.5 16.5t96.5 47.5t62 76.5t22 102.5q0 38 -12 69t-37 59t-64 55t-93 57l-111 62q-88 49 -139.5 120.5t-51.5 178.5q0 90 37 163.5t101 126t149 81t180 28.5q45 0 85 -5t73.5 -12t60.5 -15.5t46 -15.5l-38 -116 q-19 6 -45.5 12.5t-59 12t-69 9t-75.5 3.5q-65 0 -119.5 -18t-94.5 -50.5t-62.5 -78t-22.5 -101.5q0 -37 8.5 -67.5t27 -57t48.5 -50t73 -47.5l117 -65q57 -32 101 -65.5t74 -72t45.5 -82t15.5 -95.5q0 -90 -33.5 -162.5t-95.5 -124t-149.5 -79t-195.5 -27.5q-54 0 -103 6 t-90 15.5t-73.5 21t-54.5 22.5zM228 -314q8 -2 22 -4.5t30 -3.5q9 -1 18 -0.5t18 1.5q23 1 38.5 7.5t24.5 16.5t12.5 22t3.5 24q0 24 -17 38.5t-55 14.5h-61l21 85h76q66 0 106.5 -29.5t40.5 -86.5q0 -82 -60 -131.5t-169 -49.5q-23 0 -44 4t-32 9z" />
<glyph unicode="&#x15f;" horiz-adv-x="746" d="M79 143q18 -6 43.5 -13t56 -13t64 -10t67.5 -4q41 0 78 8t64.5 25t43.5 43.5t16 64.5q0 33 -9.5 60t-31 53.5t-57 56.5t-87.5 69q-57 43 -94.5 78.5t-59.5 68t-30.5 65t-8.5 69.5q0 60 23.5 111t68 88.5t107.5 59t142 21.5q85 0 145 -13.5t83 -21.5l-25 -121 q-30 8 -86 18.5t-129 10.5q-44 0 -78.5 -11t-58.5 -30t-36.5 -43.5t-12.5 -52.5q0 -33 8 -58t25.5 -48t45.5 -47t69 -55q59 -45 102.5 -83.5t72 -75t42 -73t13.5 -77.5q0 -60 -21 -111.5t-64.5 -90t-110.5 -60t-158 -21.5q-85 0 -150.5 15t-104.5 31zM127 -314q8 -2 22 -4.5 t30 -3.5q9 -1 18 -0.5t18 1.5q23 1 38.5 7.5t24.5 16.5t12.5 22t3.5 24q0 24 -17 38.5t-55 14.5h-61l21 85h76q66 0 106.5 -29.5t40.5 -86.5q0 -82 -60 -131.5t-169 -49.5q-23 0 -44 4t-32 9z" />
<glyph unicode="&#x160;" horiz-adv-x="935" d="M90 160q51 -20 123.5 -36.5t174.5 -16.5q69 0 125.5 16.5t96.5 47.5t62 76.5t22 102.5q0 38 -12 69t-37 59t-64 55t-93 57l-111 62q-88 49 -139.5 120.5t-51.5 178.5q0 90 37 163.5t101 126t149 81t180 28.5q45 0 85 -5t73.5 -12t60.5 -15.5t46 -15.5l-38 -116 q-19 6 -45.5 12.5t-59 12t-69 9t-75.5 3.5q-65 0 -119.5 -18t-94.5 -50.5t-62.5 -78t-22.5 -101.5q0 -37 8.5 -67.5t27 -57t48.5 -50t73 -47.5l117 -65q57 -32 101 -65.5t74 -72t45.5 -82t15.5 -95.5q0 -90 -33.5 -162.5t-95.5 -124t-149.5 -79t-195.5 -27.5q-54 0 -103 6 t-90 15.5t-73.5 21t-54.5 22.5zM516 1803q22 -16 46 -36.5t48 -43t45.5 -45.5t38.5 -44q23 21 52 44t59.5 45.5t62 43t58.5 36.5l42 -108q-44 -23 -82 -45t-73.5 -46t-70 -50.5t-70.5 -57.5q-26 31 -51.5 57.5t-53.5 50.5t-59.5 46t-67.5 45z" />
<glyph unicode="&#x161;" horiz-adv-x="746" d="M79 143q18 -6 43.5 -13t56 -13t64 -10t67.5 -4q41 0 78 8t64.5 25t43.5 43.5t16 64.5q0 33 -9.5 60t-31 53.5t-57 56.5t-87.5 69q-57 43 -94.5 78.5t-59.5 68t-30.5 65t-8.5 69.5q0 60 23.5 111t68 88.5t107.5 59t142 21.5q85 0 145 -13.5t83 -21.5l-25 -121 q-30 8 -86 18.5t-129 10.5q-44 0 -78.5 -11t-58.5 -30t-36.5 -43.5t-12.5 -52.5q0 -33 8 -58t25.5 -48t45.5 -47t69 -55q59 -45 102.5 -83.5t72 -75t42 -73t13.5 -77.5q0 -60 -21 -111.5t-64.5 -90t-110.5 -60t-158 -21.5q-85 0 -150.5 15t-104.5 31zM351 1503 q22 -16 46 -36.5t48 -43t45.5 -45.5t38.5 -44q23 21 52 44t59.5 45.5t62 43t58.5 36.5l42 -108q-44 -23 -82 -45t-73.5 -46t-70 -50.5t-70.5 -57.5q-26 31 -51.5 57.5t-53.5 50.5t-59.5 46t-67.5 45z" />
<glyph unicode="&#x162;" horiz-adv-x="976" d="M184 1330h876l-18 -122h-364l-190 -1208h-150l192 1208h-364zM252 -314q8 -2 22.5 -4.5t29.5 -3.5q9 -1 18.5 -0.5t17.5 1.5q23 1 38.5 7.5t24.5 16.5t12.5 22t3.5 24q0 24 -16.5 38.5t-55.5 14.5h-61l21 85h76q66 0 107 -29.5t41 -86.5q0 -41 -15.5 -74.5t-45 -57 t-72 -36.5t-96.5 -13q-23 0 -44 4t-33 9z" />
<glyph unicode="&#x163;" horiz-adv-x="693" d="M432 1024h273l-18 -115h-271l-97 -613q-9 -56 -10 -93t8.5 -59.5t30.5 -32t56 -9.5q25 0 52.5 5t54.5 13t51.5 16.5t44.5 16.5l27 -108q-20 -10 -50 -21.5t-65.5 -21t-74.5 -16t-78 -6.5q-128 0 -171 74t-19 222l100 633h-150l16 101l155 11l42 231l132 17zM176 -314 q8 -2 22 -4.5t30 -3.5q9 -1 18.5 -0.5t17.5 1.5q23 1 38.5 7.5t24.5 16.5t12.5 22t3.5 24q0 24 -17 38.5t-55 14.5h-61l21 85h76q66 0 106.5 -29.5t40.5 -86.5q0 -82 -60 -131.5t-168 -49.5q-24 0 -44.5 4t-32.5 9z" />
<glyph unicode="&#x164;" horiz-adv-x="976" d="M184 1330h876l-18 -122h-364l-190 -1208h-150l192 1208h-364zM485 1803q21 -16 45.5 -36.5t48 -43t45 -45.5t38.5 -44q23 21 52 44t60 45.5t62 43t58 36.5l42 -108q-44 -23 -82 -45t-73.5 -46t-69.5 -50.5t-70 -57.5q-26 31 -52 57.5t-54 50.5t-59 46t-68 45z" />
<glyph unicode="&#x165;" horiz-adv-x="694" d="M746 1527q5 -5 13.5 -16.5t16.5 -28.5t14 -39t6 -48q0 -48 -17.5 -88t-46 -71t-64 -53.5t-71.5 -37.5l-37 67q17 10 36 24.5t34.5 34.5t25.5 45t10 55q0 22 -6.5 42.5t-15 37t-17.5 28t-15 17.5zM432 1024h273l-18 -115h-271l-97 -613q-9 -56 -10 -93t8.5 -59.5t30.5 -32 t56 -9.5q25 0 52.5 5t54.5 13t51.5 16.5t44.5 16.5l27 -108q-20 -10 -50 -21.5t-65.5 -21t-74.5 -16t-78 -6.5q-128 0 -171 74t-19 222l100 633h-150l16 101l155 11l42 231l132 17z" />
<glyph unicode="&#x166;" horiz-adv-x="976" d="M184 1330h876l-18 -122h-364l-77 -492h232l-16 -101h-232l-97 -615h-150l97 615h-232l16 101h232l79 492h-364z" />
<glyph unicode="&#x167;" horiz-adv-x="694" d="M432 1024h273l-18 -115h-271l-44 -274h244l-18 -114h-244l-35 -225q-9 -56 -10 -93t8.5 -59.5t30.5 -32t56 -9.5q25 0 52.5 5t54.5 13t51.5 16.5t44.5 16.5l27 -108q-20 -10 -50 -21.5t-65.5 -21t-74.5 -16t-78 -6.5q-129 0 -171.5 74t-18.5 222l38 245h-139l16 105 l141 6l44 277h-150l16 101l155 11l42 231l132 17z" />
<glyph unicode="&#x168;" horiz-adv-x="1185" d="M300 524q-14 -85 -12 -160.5t28.5 -132t81.5 -89.5t147 -33q69 0 129.5 28t107.5 79.5t79.5 124t46.5 161.5l132 828h149l-128 -814q-20 -126 -66 -225.5t-115.5 -168.5t-161.5 -105.5t-204 -36.5q-122 0 -201 41t-121 112.5t-51.5 168.5t8.5 208l129 820h150zM477 1625 q45 57 94 87.5t107 30.5q27 0 51.5 -10t47.5 -22.5t44.5 -22.5t44.5 -10q16 0 31.5 6t30 15.5t26.5 20.5t22 21l65 -65q-45 -58 -94 -88.5t-107 -30.5q-27 0 -51.5 10.5t-47 22.5t-44.5 22.5t-44 10.5q-17 0 -32.5 -6t-30 -15.5t-27 -21t-22.5 -21.5z" />
<glyph unicode="&#x169;" horiz-adv-x="1048" d="M712 0q-4 16 -5.5 39.5t-1 50.5t3 55.5t7.5 55.5q6 35 15 75t18.5 77t18 67.5t11.5 45.5q-43 -96 -97.5 -184t-116 -155t-127 -107t-128.5 -40q-61 0 -100 24.5t-59 67t-23.5 100.5t7.5 124l79 500q13 79 16 137.5t-1 90.5h130q4 -16 6 -39.5t1.5 -51t-3 -56.5t-6.5 -54 l-78 -492q-7 -45 -8 -83t7 -65.5t26 -43t49 -15.5q37 0 81.5 28.5t92 78t94 117.5t86 146.5t69 164.5t43.5 173l31 192h139l-127 -796q-9 -56 -13.5 -104.5t-4.5 -84.5q-1 -12 -0.5 -22t0.5 -17h-132zM362 1325q45 57 94 87.5t108 30.5q27 0 51.5 -10t47 -22.5t44 -22.5 t44.5 -10q16 0 32 6t30 15.5t26.5 20.5t22.5 21l64 -65q-44 -58 -93.5 -88.5t-106.5 -30.5q-27 0 -51.5 10.5t-47.5 22.5t-45 22.5t-44 10.5q-17 0 -32.5 -6t-29.5 -15.5t-26.5 -21t-22.5 -21.5z" />
<glyph unicode="&#x16a;" horiz-adv-x="1185" d="M300 524q-14 -85 -12 -160.5t28.5 -132t81.5 -89.5t147 -33q69 0 129.5 28t107.5 79.5t79.5 124t46.5 161.5l132 828h149l-128 -814q-20 -126 -66 -225.5t-115.5 -168.5t-161.5 -105.5t-204 -36.5q-122 0 -201 41t-121 112.5t-51.5 168.5t8.5 208l129 820h150zM525 1714 h530l-18 -115h-530z" />
<glyph unicode="&#x16b;" horiz-adv-x="1048" d="M712 0q-4 16 -5.5 39.5t-1 50.5t3 55.5t7.5 55.5q6 35 15 75t18.5 77t18 67.5t11.5 45.5q-43 -96 -97.5 -184t-116 -155t-127 -107t-128.5 -40q-61 0 -100 24.5t-59 67t-23.5 100.5t7.5 124l79 500q13 79 16 137.5t-1 90.5h130q4 -16 6 -39.5t1.5 -51t-3 -56.5t-6.5 -54 l-78 -492q-7 -45 -8 -83t7 -65.5t26 -43t49 -15.5q37 0 81.5 28.5t92 78t94 117.5t86 146.5t69 164.5t43.5 173l31 192h139l-127 -796q-9 -56 -13.5 -104.5t-4.5 -84.5q-1 -12 -0.5 -22t0.5 -17h-132zM394 1408h531l-18 -115h-531z" />
<glyph unicode="&#x16c;" horiz-adv-x="1185" d="M300 524q-14 -85 -12 -160.5t28.5 -132t81.5 -89.5t147 -33q69 0 129.5 28t107.5 79.5t79.5 124t46.5 161.5l132 828h149l-128 -814q-20 -126 -66 -225.5t-115.5 -168.5t-161.5 -105.5t-204 -36.5q-122 0 -201 41t-121 112.5t-51.5 168.5t8.5 208l129 820h150zM690 1776 q-5 -35 -2 -65.5t15 -53t33 -35.5t51 -13q31 0 55.5 13t43.5 35.5t31.5 53t18.5 65.5h110q-7 -62 -30.5 -111t-60 -83.5t-83.5 -53t-100 -18.5t-94 18.5t-67 53t-34.5 83.5t4.5 111h109z" />
<glyph unicode="&#x16d;" horiz-adv-x="1048" d="M712 0q-4 16 -5.5 39.5t-1 50.5t3 55.5t7.5 55.5q6 35 15 75t18.5 77t18 67.5t11.5 45.5q-43 -96 -97.5 -184t-116 -155t-127 -107t-128.5 -40q-61 0 -100 24.5t-59 67t-23.5 100.5t7.5 124l79 500q13 79 16 137.5t-1 90.5h130q4 -16 6 -39.5t1.5 -51t-3 -56.5t-6.5 -54 l-78 -492q-7 -45 -8 -83t7 -65.5t26 -43t49 -15.5q37 0 81.5 28.5t92 78t94 117.5t86 146.5t69 164.5t43.5 173l31 192h139l-127 -796q-9 -56 -13.5 -104.5t-4.5 -84.5q-1 -12 -0.5 -22t0.5 -17h-132zM540 1470q-5 -35 -2 -65.5t14.5 -53t32.5 -35.5t52 -13q30 0 55 13 t43.5 35.5t31 53t18.5 65.5h110q-7 -62 -30.5 -111t-60 -83.5t-83.5 -53t-100 -18.5t-94 18.5t-67 53t-34 83.5t5 111h109z" />
<glyph unicode="&#x16e;" horiz-adv-x="1185" d="M300 524q-14 -85 -12 -160.5t28.5 -132t81.5 -89.5t147 -33q69 0 129.5 28t107.5 79.5t79.5 124t46.5 161.5l132 828h149l-128 -814q-20 -126 -66 -225.5t-115.5 -168.5t-161.5 -105.5t-204 -36.5q-122 0 -201 41t-121 112.5t-51.5 168.5t8.5 208l129 820h150zM583 1623 q0 45 18.5 85t50 70t73 47.5t88.5 17.5q34 0 63.5 -13t51 -35t34 -52t12.5 -64q0 -45 -18.5 -85t-50 -70t-73.5 -48t-89 -18q-34 0 -63 13t-50.5 35t-34 52t-12.5 65zM683 1638q0 -35 23 -59t56 -24q23 0 43.5 9t35.5 24t24 35t9 41q0 35 -23 58.5t-57 23.5q-23 0 -43 -8.5 t-35 -23.5t-24 -34.5t-9 -41.5z" />
<glyph unicode="&#x16f;" horiz-adv-x="1048" d="M712 0q-4 16 -5.5 39.5t-1 50.5t3 55.5t7.5 55.5q6 35 15 75t18.5 77t18 67.5t11.5 45.5q-43 -96 -97.5 -184t-116 -155t-127 -107t-128.5 -40q-61 0 -100 24.5t-59 67t-23.5 100.5t7.5 124l79 500q13 79 16 137.5t-1 90.5h130q4 -16 6 -39.5t1.5 -51t-3 -56.5t-6.5 -54 l-78 -492q-7 -45 -8 -83t7 -65.5t26 -43t49 -15.5q37 0 81.5 28.5t92 78t94 117.5t86 146.5t69 164.5t43.5 173l31 192h139l-127 -796q-9 -56 -13.5 -104.5t-4.5 -84.5q-1 -12 -0.5 -22t0.5 -17h-132zM439 1323q0 45 18.5 85t50 70t73.5 47.5t88 17.5q34 0 63.5 -13 t51.5 -35t34 -52t12 -64q0 -45 -18.5 -85t-50 -70t-73.5 -48t-89 -18q-34 0 -63 13t-50.5 35t-34 52t-12.5 65zM539 1338q0 -35 23 -59t56 -24q23 0 43.5 9t36 24t24.5 35t9 41q0 35 -23.5 58.5t-57.5 23.5q-22 0 -42 -8.5t-35.5 -23.5t-24.5 -34.5t-9 -41.5z" />
<glyph unicode="&#x170;" horiz-adv-x="1186" d="M300 524q-14 -85 -12 -160.5t28.5 -132t81.5 -89.5t147 -33q69 0 129.5 28t107.5 79.5t79.5 124t46.5 161.5l132 828h149l-128 -814q-20 -126 -66 -225.5t-115.5 -168.5t-161.5 -105.5t-204 -36.5q-122 0 -201 41t-121 112.5t-51.5 168.5t8.5 208l129 820h150zM819 1548 l262 303l96 -87l-291 -280zM522 1538l272 313l96 -88l-301 -288z" />
<glyph unicode="&#x171;" horiz-adv-x="1048" d="M712 0q-4 16 -5.5 39.5t-1 50.5t3 55.5t7.5 55.5q6 35 15 75t18.5 77t18 67.5t11.5 45.5q-43 -96 -97.5 -184t-116 -155t-127 -107t-128.5 -40q-61 0 -100 24.5t-59 67t-23.5 100.5t7.5 124l79 500q13 79 16 137.5t-1 90.5h130q4 -16 6 -39.5t1.5 -51t-3 -56.5t-6.5 -54 l-78 -492q-7 -45 -8 -83t7 -65.5t26 -43t49 -15.5q37 0 81.5 28.5t92 78t94 117.5t86 146.5t69 164.5t43.5 173l31 192h139l-127 -796q-9 -56 -13.5 -104.5t-4.5 -84.5q-1 -12 -0.5 -22t0.5 -17h-132zM692 1242l262 303l97 -87l-292 -280zM395 1232l272 313l96 -88 l-300 -288z" />
<glyph unicode="&#x172;" horiz-adv-x="1185" d="M300 524q-14 -85 -12 -160.5t28.5 -132t81.5 -89.5t147 -33q69 0 129.5 28t107.5 79.5t79.5 124t46.5 161.5l132 828h149l-128 -814q-32 -206 -132 -338.5t-258 -176.5q-30 -22 -61 -49t-56.5 -58t-42 -65.5t-16.5 -71.5q0 -39 19 -57.5t49 -18.5q17 0 35.5 4.5t34 10 t26.5 10.5t14 7l18 -76q-8 -6 -23.5 -14.5t-37.5 -17t-47.5 -14.5t-52.5 -6q-33 0 -62.5 10t-51.5 28.5t-34.5 45.5t-12.5 62q0 38 13.5 72.5t35.5 66t50.5 59.5t59.5 52q-5 -1 -14 -1q-122 0 -201 41t-121 112.5t-51.5 168.5t8.5 208l129 820h150z" />
<glyph unicode="&#x173;" horiz-adv-x="1048" d="M825 0q-30 -22 -61 -48.5t-56.5 -57.5t-41.5 -65.5t-16 -71.5q0 -39 19 -57.5t49 -18.5q17 0 35.5 4.5t34 10t26.5 10.5t14 7l18 -76q-8 -6 -23.5 -14.5t-37.5 -17t-47.5 -14.5t-52.5 -6q-34 0 -63.5 10t-51 29t-34 46t-12.5 61q0 42 16.5 80.5t43 72.5t60 63.5 t68.5 53.5h-1q-4 16 -5.5 39.5t-0.5 50.5t3.5 55.5t7.5 54.5q6 35 15 75t18.5 77t18 67.5t11.5 45.5q-43 -96 -97.5 -184t-116 -155t-127 -107t-128.5 -40q-61 0 -100 24.5t-59 67t-23.5 100.5t7.5 124l79 500q13 79 16 137.5t-1 90.5h130q4 -16 6 -39.5t1.5 -51t-3 -56.5 t-6.5 -54l-78 -492q-7 -45 -8 -83t7 -65.5t26 -43t49 -15.5q37 0 81.5 28.5t92 78t94 117.5t86 146.5t69 164.5t43.5 173l31 192h139l-127 -796q-12 -74 -16 -134.5t-2 -92.5l-19 -1v0z" />
<glyph unicode="&#x174;" horiz-adv-x="1739" d="M1853 1330l-585 -1330h-170l-128 1081l-471 -1081h-168l-165 1330h153l126 -1161l490 1131h137l136 -1131l486 1161h159zM1238 1503q-22 18 -46 39t-47.5 43t-45.5 43.5t-38 38.5q-23 -18 -51.5 -39t-59 -43t-61.5 -43t-59 -39l-58 94q63 37 145 92t165 117 q64 -61 127.5 -115.5t114.5 -91.5z" />
<glyph unicode="&#x175;" horiz-adv-x="1412" d="M1352 1044q10 -27 19.5 -69.5t9.5 -96.5q0 -112 -32 -228.5t-93 -229.5t-151 -220t-205 -200h-139l-39 465q-55 -130 -139 -247.5t-198 -217.5h-138l-69 803q-6 74 -16 133t-21 88h138q11 -29 18.5 -66t11.5 -82l59 -755q68 73 124 152.5t98 163.5t69 170.5t36 173.5 q-10 91 -21.5 144.5t-19.5 80.5l164 18q9 -27 18.5 -69.5t9.5 -96.5q0 -21 -1.5 -41.5t-3.5 -41.5q-1 -22 -1.5 -43t-2.5 -41l46 -570q80 83 145 174t110.5 187t70.5 195t25 198q0 42 -4 79t-16 70zM986 1197q-22 18 -46 39t-47.5 43t-45.5 43.5t-38 38.5q-23 -18 -51.5 -39 t-59 -43t-61.5 -43t-59 -39l-58 94q63 37 145 92t165 117q64 -61 127.5 -115.5t114.5 -91.5z" />
<glyph unicode="&#x176;" horiz-adv-x="965" d="M414 514l-283 816h141l231 -679l448 679h153l-541 -816v1l-82 -515h-150zM833 1497q-22 18 -46 39t-47.5 43t-45.5 43.5t-38 38.5q-23 -18 -51.5 -39t-59 -43t-62 -43t-59.5 -39l-57 94q63 37 145 92t165 117q63 -61 127 -115.5t115 -91.5z" />
<glyph unicode="&#x177;" horiz-adv-x="922" d="M373 224q3 -69 -0.5 -128.5t-11.5 -113.5l64 93q65 85 121.5 183.5t98.5 204t66.5 214t24.5 213.5q0 36 -4 70.5t-13 63.5l142 20q9 -25 16.5 -65.5t7.5 -91.5q0 -138 -47.5 -289.5t-132.5 -306t-203 -307t-258 -293.5q-47 -54 -107 -80.5t-131 -26.5q-53 0 -89.5 11.5 t-55.5 22.5l33 108q18 -9 46.5 -16.5t59.5 -7.5q54 0 99.5 22t78 77.5t48 151t9.5 242.5q-4 97 -10.5 192t-14.5 182t-16.5 163t-16 135.5t-14 100t-9.5 56.5h138q6 -28 17 -95t23 -169.5t23 -237.5t18 -298zM761 1197q-22 18 -46.5 39t-48 43t-45 43.5t-37.5 38.5 q-23 -18 -51.5 -39t-59.5 -43t-62 -43t-59 -39l-57 94q63 37 144.5 92t164.5 117q64 -61 127.5 -115.5t114.5 -91.5z" />
<glyph unicode="&#x178;" horiz-adv-x="965" d="M414 514l-283 816h141l231 -679l448 679h153l-541 -816v1l-82 -515h-150zM363 1635q0 51 34.5 82.5t84.5 31.5q36 0 58 -24t22 -61q0 -26 -9.5 -47t-25.5 -36t-38 -23.5t-46 -8.5q-36 0 -58 24t-22 62zM730 1635q0 25 9.5 46t26 36t38 23.5t46.5 8.5q35 0 57.5 -24 t22.5 -61q0 -26 -9.5 -47t-26 -36t-38.5 -23.5t-46 -8.5q-36 0 -58 24t-22 62z" />
<glyph unicode="&#x179;" horiz-adv-x="976" d="M829 1208h-609l19 122h781l-18 -110l-824 -1098h686l-18 -122h-855l16 110zM430 1588l435 214l48 -130l-451 -163z" />
<glyph unicode="&#x17a;" horiz-adv-x="816" d="M-1 49l626 860h-449l18 115h614l-16 -103l-532 -734q13 -22 33.5 -37.5t45.5 -25.5t53.5 -14.5t57.5 -4.5q31 0 64 8t65 20t61 26.5t52 28.5l36 -115q-24 -15 -55.5 -31.5t-70 -30t-82 -22.5t-91.5 -9q-49 0 -87 12.5t-66 33.5t-47 47.5t-29 55.5l-111 -149zM330 1288 l435 214l48 -130l-451 -163z" />
<glyph unicode="&#x17b;" horiz-adv-x="976" d="M829 1208h-609l19 122h781l-18 -110l-824 -1098h686l-18 -122h-855l16 110zM576 1635q0 51 34.5 82.5t84.5 31.5q36 0 58 -24t22 -61q0 -26 -9.5 -47t-25.5 -36t-38 -23.5t-46 -8.5q-36 0 -58 24t-22 62z" />
<glyph unicode="&#x17c;" horiz-adv-x="816" d="M-1 49l626 860h-449l18 115h614l-16 -103l-532 -734q13 -22 33.5 -37.5t45.5 -25.5t53.5 -14.5t57.5 -4.5q31 0 64 8t65 20t61 26.5t52 28.5l36 -115q-24 -15 -55.5 -31.5t-70 -30t-82 -22.5t-91.5 -9q-49 0 -87 12.5t-66 33.5t-47 47.5t-29 55.5l-111 -149zM447 1335 q0 25 9.5 46t25.5 36t38 23.5t46 8.5q36 0 58 -24t22 -61q0 -26 -9.5 -47t-25.5 -36t-38 -23.5t-46 -8.5q-36 0 -58 24t-22 62z" />
<glyph unicode="&#x17d;" horiz-adv-x="976" d="M829 1208h-609l19 122h781l-18 -110l-824 -1098h686l-18 -122h-855l16 110zM494 1803q22 -16 46 -36.5t48 -43t45.5 -45.5t38.5 -44q23 21 52 44t59.5 45.5t62 43t58.5 36.5l42 -108q-44 -23 -82 -45t-73.5 -46t-70 -50.5t-70.5 -57.5q-26 31 -51.5 57.5t-53.5 50.5 t-59.5 46t-67.5 45z" />
<glyph unicode="&#x17e;" horiz-adv-x="816" d="M-1 49l626 860h-449l18 115h614l-16 -103l-532 -734q13 -22 33.5 -37.5t45.5 -25.5t53.5 -14.5t57.5 -4.5q31 0 64 8t65 20t61 26.5t52 28.5l36 -115q-24 -15 -55.5 -31.5t-70 -30t-82 -22.5t-91.5 -9q-49 0 -87 12.5t-66 33.5t-47 47.5t-29 55.5l-111 -149zM366 1503 q21 -16 45.5 -36.5t48.5 -43t45.5 -45.5t37.5 -44q23 21 52 44t60 45.5t62 43t58 36.5l42 -108q-44 -23 -82 -45t-73.5 -46t-69.5 -50.5t-70 -57.5q-26 31 -52 57.5t-53.5 50.5t-59 46t-67.5 45z" />
<glyph unicode="&#x17f;" horiz-adv-x="547" d="M224 -396h-138l207 1305h-150l16 101l155 11l24 150q11 71 38 128t69.5 97.5t102.5 62t137 21.5q50 0 90 -10.5t60 -18.5l-34 -109q-22 7 -60 13t-80 6q-84 0 -129 -54t-60 -151z" />
<glyph unicode="&#x192;" horiz-adv-x="955" d="M522 737h268l-18 -114h-285l-214 -671q-35 -109 -74 -180t-87.5 -113t-107.5 -58.5t-133 -16.5q-23 0 -48.5 3.5t-39.5 7.5l33 116q15 -3 34.5 -5t39.5 -2q43 0 78 11t63.5 38t52.5 72.5t46 114.5l218 683h-135l17 101l155 10l92 285q53 165 159 248t256 83q22 0 43.5 -3 t40 -7.5t33 -9.5t23.5 -9l-46 -109q-20 6 -50.5 12.5t-69.5 6.5q-101 0 -163.5 -60.5t-96.5 -168.5z" />
<glyph unicode="&#x1fa;" horiz-adv-x="1107" d="M804 361h-526l-183 -361h-154l683 1330h144l258 -1330h-153zM336 477h448l-114 691zM580 1501q0 34 13.5 64.5t37 53t55 35.5t67.5 13q25 0 47.5 -9.5t39 -26.5t26 -39.5t9.5 -47.5q0 -35 -13.5 -65.5t-36.5 -53t-55 -35.5t-68 -13q-25 0 -47.5 9.5t-39 26.5t-26 39.5 t-9.5 48.5zM666 1513q0 -23 13.5 -40t36.5 -17q32 0 53 22.5t21 52.5q0 23 -14 39.5t-37 16.5q-32 0 -52.5 -22t-20.5 -52zM586 1752l319 163l41 -107l-331 -125z" />
<glyph unicode="&#x1fb;" horiz-adv-x="1054" d="M713 201q4 26 13 61.5t18.5 71t18.5 66t12 46.5q-40 -88 -93.5 -171.5t-113.5 -149t-124.5 -105.5t-125.5 -40q-48 0 -88.5 21t-70.5 61.5t-46.5 100.5t-16.5 138q0 88 15.5 177.5t45.5 172t75 154t104 125t132 84t160 30.5q70 0 126 -28t98 -64l25 92h112 q-9 -54 -17.5 -107.5t-16.5 -107.5l-96 -601q-12 -79 -15.5 -137.5t0.5 -90.5h-133q-5 16 -6.5 39.5t-1 51t3 56t6.5 54.5zM361 110q29 0 66 22.5t78 64t83.5 99t82 127.5t74.5 150.5t60 167.5q8 23 14 45.5t10 45.5q-11 11 -31.5 27t-48 31t-61 25.5t-69.5 10.5 q-61 0 -112 -27.5t-92.5 -74.5t-73 -109t-52.5 -130t-32 -138t-11 -134q0 -100 29 -151.5t86 -51.5zM495 1240q0 34 13.5 64.5t37 53t54.5 35.5t67 13q26 0 48.5 -9.5t39 -26.5t26 -39.5t9.5 -47.5q0 -35 -13.5 -65.5t-37 -53t-55 -35.5t-67.5 -13q-26 0 -48 9.5t-38.5 26.5 t-26 39.5t-9.5 48.5zM580 1252q0 -23 14 -40t37 -17q32 0 53 22.5t21 52.5q0 23 -14 39.5t-37 16.5q-32 0 -53 -22t-21 -52zM500 1491l320 163l40 -107l-330 -125z" />
<glyph unicode="&#x1fc;" horiz-adv-x="1633" d="M1667 1330l-19 -122h-495l-76 -478h475l-19 -121h-475l-79 -487h515l-18 -122h-660l57 365h-487l-298 -365h-164l1097 1330h646zM486 486h406l98 619zM1168 1593l434 214l48 -130l-451 -163z" />
<glyph unicode="&#x1fd;" horiz-adv-x="1380" d="M498 1044q97 0 164.5 -38t94.5 -113q62 69 140.5 110t173.5 41q58 0 102.5 -15.5t75 -43t46 -66t15.5 -84.5q0 -82 -39.5 -148t-116 -115.5t-188 -81.5t-255.5 -45q-5 -35 -8 -68t-3 -64q0 -97 37 -153t120 -56q40 0 82.5 8t83 21t77 27.5t65.5 28.5l28 -110 q-27 -15 -66 -32.5t-87 -32.5t-105.5 -24.5t-121.5 -9.5q-76 0 -133.5 34t-90.5 100q-78 -65 -153 -99.5t-159 -34.5q-53 0 -97 16.5t-76 46.5t-50 72.5t-18 93.5q0 64 24.5 116.5t70.5 91.5t112.5 64t151.5 34l183 18q18 81 48 152q8 29 11.5 54t1.5 45q-28 137 -168 137 q-42 0 -81 -6t-73.5 -15t-62 -19t-45.5 -18l-18 105q20 10 52 23.5t72.5 25t87 19.5t95.5 8zM1059 927q-61 0 -112.5 -32t-92.5 -85.5t-72 -122.5t-50 -142q94 13 172.5 38.5t135 61.5t88 81t31.5 96q0 22 -5 41t-17 33t-31 22.5t-47 8.5zM319 103q58 0 121 28t118 75 q-4 22 -6 45.5t-2 49.5q0 65 9 131l-176 -20q-97 -11 -148.5 -58.5t-51.5 -122.5q0 -60 35 -94t101 -34zM681 1288l435 214l48 -130l-451 -163z" />
<glyph unicode="&#x1fe;" horiz-adv-x="1328" d="M589 -20q-90 0 -164 28.5t-132 80.5l-183 -224l-90 64l199 243q-45 69 -69 154.5t-24 185.5q0 116 22 223.5t64 200.5t101.5 169.5t134 130.5t163 84t187.5 30q90 0 164 -28.5t132 -80.5l183 224l91 -64l-200 -244q45 -68 69.5 -154t24.5 -186q0 -116 -22 -223.5 t-64 -200.5t-101.5 -169t-134 -130.5t-163.5 -84t-188 -29.5zM282 534q0 -134 43 -232l677 825q-42 48 -101 73t-134 25q-98 0 -186 -53.5t-154.5 -147t-105.5 -219.5t-39 -271zM620 104q98 0 186 53.5t154.5 147t105.5 220t39 271.5q0 134 -42 232l-677 -827 q42 -47 100.5 -72t133.5 -25zM592 1588l435 214l48 -130l-451 -163z" />
<glyph unicode="&#x1ff;" horiz-adv-x="991" d="M409 -20q-57 0 -105 16.5t-86 47.5l-148 -181l-84 58l163 200q-26 43 -39.5 98t-13.5 121q0 152 39.5 281t110 223t167 147t210.5 53q65 0 119 -21.5t95 -62.5l166 202l82 -59l-188 -229q18 -40 28 -87.5t10 -102.5q0 -152 -39.5 -281t-110 -223t-166.5 -147t-210 -53z M246 358q0 -30 2.5 -57t7.5 -50l490 598q-48 78 -150 78q-70 0 -133.5 -45.5t-111.5 -123.5t-76.5 -181.5t-28.5 -218.5zM435 97q63 0 121.5 37.5t104.5 103t77.5 153t40.5 188.5q3 27 4.5 54.5t0.5 54.5q-1 11 -2 21t-3 20l-475 -579q46 -53 131 -53zM433 1288l435 214 l48 -130l-451 -163z" />
<glyph unicode="&#x218;" horiz-adv-x="935" d="M90 160q51 -20 123.5 -36.5t174.5 -16.5q69 0 125.5 16.5t96.5 47.5t62 76.5t22 102.5q0 38 -12 69t-37 59t-64 55t-93 57l-111 62q-88 49 -139.5 120.5t-51.5 178.5q0 90 37 163.5t101 126t149 81t180 28.5q45 0 85 -5t73.5 -12t60.5 -15.5t46 -15.5l-38 -116 q-19 6 -45.5 12.5t-59 12t-69 9t-75.5 3.5q-65 0 -119.5 -18t-94.5 -50.5t-62.5 -78t-22.5 -101.5q0 -37 8.5 -67.5t27 -57t48.5 -50t73 -47.5l117 -65q57 -32 101 -65.5t74 -72t45.5 -82t15.5 -95.5q0 -90 -33.5 -162.5t-95.5 -124t-149.5 -79t-195.5 -27.5q-54 0 -103 6 t-90 15.5t-73.5 21t-54.5 22.5zM432 -101q5 -5 12.5 -15.5t14 -26t11.5 -35t5 -42.5q0 -56 -24 -98t-63.5 -71t-90 -46t-103.5 -22l-11 76q31 7 60.5 19.5t52.5 31.5t36.5 45t13.5 61q0 38 -10.5 62.5t-17.5 34.5z" />
<glyph unicode="&#x219;" horiz-adv-x="746" d="M79 143q18 -6 43.5 -13t56 -13t64 -10t67.5 -4q41 0 78 8t64.5 25t43.5 43.5t16 64.5q0 33 -9.5 60t-31 53.5t-57 56.5t-87.5 69q-57 43 -94.5 78.5t-59.5 68t-30.5 65t-8.5 69.5q0 60 23.5 111t68 88.5t107.5 59t142 21.5q85 0 145 -13.5t83 -21.5l-25 -121 q-30 8 -86 18.5t-129 10.5q-44 0 -78.5 -11t-58.5 -30t-36.5 -43.5t-12.5 -52.5q0 -33 8 -58t25.5 -48t45.5 -47t69 -55q59 -45 102.5 -83.5t72 -75t42 -73t13.5 -77.5q0 -60 -21 -111.5t-64.5 -90t-110.5 -60t-158 -21.5q-85 0 -150.5 15t-104.5 31zM340 -101 q5 -5 12.5 -15.5t14 -26t11.5 -35t5 -42.5q0 -56 -24 -98t-63.5 -71t-90 -46t-103.5 -22l-11 76q31 7 60.5 19.5t52.5 31.5t36.5 45t13.5 61q0 38 -10.5 62.5t-17.5 34.5z" />
<glyph unicode="&#x21a;" horiz-adv-x="976" d="M184 1330h876l-18 -122h-364l-190 -1208h-150l192 1208h-364zM439 -101q5 -5 12 -15.5t14 -26t11.5 -35t4.5 -42.5q0 -56 -24 -98t-63.5 -71t-90 -46t-103.5 -22l-11 76q32 7 61.5 19.5t52.5 31.5t36.5 45t13.5 61q0 38 -11 62.5t-18 34.5z" />
<glyph unicode="&#x21b;" horiz-adv-x="695" d="M434 1024h273l-18 -115h-272l-96 -613q-9 -56 -10 -93t8 -59.5t30 -32t56 -9.5q25 0 52.5 5t54.5 13t52 16.5t45 16.5l27 -108q-20 -10 -50 -21.5t-65.5 -21t-74.5 -16t-78 -6.5q-65 0 -107 18.5t-64.5 55.5t-27 92.5t7.5 129.5l101 633h-150l16 101l155 11l41 231 l132 17zM375 -101q5 -5 12.5 -15.5t14 -26t11.5 -35t5 -42.5q0 -56 -24 -98t-63.5 -71t-90 -46t-103.5 -22l-11 76q31 7 60.5 19.5t52.5 31.5t36.5 45t13.5 61q0 38 -10.5 62.5t-17.5 34.5z" />
<glyph unicode="&#x237;" horiz-adv-x="475" d="M270 1024h138l-173 -1091q-15 -98 -42 -164.5t-66.5 -107.5t-92.5 -59t-121 -18q-49 0 -84 11t-50 19l29 108q11 -5 39 -12.5t59 -7.5q44 0 75.5 13.5t53.5 40t36 66t22 92.5z" />
<glyph unicode="&#x2bc;" horiz-adv-x="369" d="M162 1040q16 24 34 54t32.5 64.5t24 73.5t9.5 81q0 47 -8.5 82t-15.5 52l153 25q4 -11 8 -32t6 -48q1 -14 1 -28.5v-29.5q-2 -59 -20.5 -110t-43.5 -92.5t-52 -72.5t-48 -49z" />
<glyph unicode="&#x2c6;" horiz-adv-x="758" d="M656 1197q-22 18 -46 39t-47.5 43t-45.5 43.5t-38 38.5q-23 -18 -51.5 -39t-59 -43t-62 -43t-59.5 -39l-57 94q63 37 145 92t165 117q63 -61 127 -115.5t115 -91.5z" />
<glyph unicode="&#x2c7;" horiz-adv-x="711" d="M262 1503q22 -16 46 -36.5t48 -43t45.5 -45.5t38.5 -44q23 21 52 44t59.5 45.5t62 43t58.5 36.5l42 -108q-44 -23 -82 -45t-73.5 -46t-70 -50.5t-70.5 -57.5q-26 31 -51.5 57.5t-53.5 50.5t-59.5 46t-67.5 45z" />
<glyph unicode="&#x2d8;" horiz-adv-x="670" d="M317 1470q-5 -35 -2 -65.5t15 -53t33 -35.5t51 -13q31 0 55.5 13t43.5 35.5t31.5 53t18.5 65.5h110q-7 -62 -30.5 -111t-60 -83.5t-83.5 -53t-100 -18.5t-94 18.5t-67 53t-34.5 83.5t4.5 111h109z" />
<glyph unicode="&#x2d9;" horiz-adv-x="379" d="M210 1335q0 51 34.5 82.5t84.5 31.5q36 0 58 -24t22 -61q0 -26 -9.5 -47t-25.5 -36t-38 -23.5t-46 -8.5q-36 0 -58 24t-22 62z" />
<glyph unicode="&#x2da;" horiz-adv-x="533" d="M162 1323q0 45 18.5 85t50 70t73 47.5t88.5 17.5q34 0 63.5 -13t51 -35t34 -52t12.5 -64q0 -45 -18.5 -85t-50 -70t-74 -48t-89.5 -18q-33 0 -62 13t-50.5 35t-34 52t-12.5 65zM262 1338q0 -17 6 -32.5t16.5 -26.5t25 -17.5t30.5 -6.5q23 0 43.5 9t36 24t24.5 35t9 41 q0 35 -23 58.5t-57 23.5q-23 0 -43 -8.5t-35 -23.5t-24 -34.5t-9 -41.5z" />
<glyph unicode="&#x2db;" horiz-adv-x="491" d="M326 0q-30 -22 -61.5 -49t-57 -57.5t-41.5 -65t-16 -71.5q0 -39 18.5 -58t49.5 -19q17 0 35.5 4.5t34 10t26 10.5t13.5 7l18 -75q-7 -6 -23 -15t-37.5 -17.5t-47.5 -14.5t-53 -6q-34 0 -63.5 10t-51 29t-33.5 46t-12 62q0 47 20 89t52 79t71 67.5t77 54.5z" />
<glyph unicode="&#x2dc;" horiz-adv-x="712" d="M165 1325q45 57 94 87.5t107 30.5q27 0 51.5 -10t47.5 -22.5t44.5 -22.5t44.5 -10q16 0 31.5 6t30 15.5t26.5 20.5t22 21l65 -65q-45 -58 -94 -88.5t-107 -30.5q-27 0 -51.5 10.5t-47 22.5t-44.5 22.5t-44 10.5q-17 0 -32.5 -6t-30 -15.5t-27 -21t-22.5 -21.5z" />
<glyph unicode="&#x2dd;" horiz-adv-x="824" d="M490 1242l262 303l96 -87l-291 -280zM193 1232l272 313l96 -88l-301 -288z" />
<glyph unicode="&#x301;" horiz-adv-x="522" d="M183 1481l319 162l41 -107l-330 -124z" />
<glyph unicode="&#x307;" horiz-adv-x="396" d="M123 682q0 25 9.5 46t25.5 36.5t37.5 24t46.5 8.5q36 0 58 -24.5t22 -61.5q0 -25 -9.5 -46t-25.5 -36.5t-38 -24t-46 -8.5q-36 0 -58 24t-22 62z" />
<glyph unicode="&#x30a;" horiz-adv-x="444" d="M160 1234q0 34 13.5 64.5t37 53t54.5 35.5t67 13q26 0 48.5 -9.5t39 -26.5t26 -39.5t9.5 -47.5q0 -35 -13.5 -65.5t-37 -53t-55 -35.5t-67.5 -13q-26 0 -48 10t-38.5 26.5t-26 39t-9.5 48.5zM245 1246q0 -23 14 -39.5t37 -16.5q32 0 53 22.5t21 51.5q0 23 -14 39.5 t-37 16.5q-32 0 -53 -22t-21 -52z" />
<glyph unicode="&#x394;" horiz-adv-x="1238" d="M-37 0l15 95l707 1236h134l316 -1236l-15 -95h-1157zM138 116h842l-255 1046z" />
<glyph unicode="&#x3a9;" horiz-adv-x="1484" d="M1258 0h-458l18 116q32 19 74 50.5t86.5 75t87.5 99.5t76.5 124t54 148.5t20.5 173.5q0 104 -26 186t-72.5 139t-111.5 87.5t-144 30.5q-62 0 -124 -18.5t-118.5 -55t-105.5 -90.5t-85 -123.5t-56.5 -155t-20.5 -185.5q0 -58 10.5 -115t28 -109.5t40 -98t46.5 -80.5 t47.5 -56.5t43.5 -26.5l-18 -116h-458l18 116h295q-38 33 -74.5 81t-66 108.5t-47.5 133.5t-18 155q0 104 23.5 200t67.5 180t106.5 153.5t139.5 119t167.5 76.5t190.5 27q114 0 203 -39.5t149.5 -111t92 -170.5t31.5 -218q0 -128 -36.5 -236t-93.5 -195.5t-127 -153.5 t-136 -110h298z" />
<glyph unicode="&#x3bc;" horiz-adv-x="1052" d="M135 308l79 495q5 25 8 48.5t5 45.5q4 42 4.5 74t-2.5 53h58h25.5t26.5 1q7 -10 12 -26.5t8.5 -36t5.5 -39.5t2 -38q-2 -13 -4 -25l-4 -24l-80 -505q-7 -45 -8 -83t7 -65.5t26 -43t49 -15.5q37 0 81.5 28.5t92 78t94 117.5t86 146.5t69 164.5t43.5 173l31 192h139 l-127 -796q-9 -56 -13.5 -104.5t-4.5 -84.5q-1 -12 -0.5 -22t0.5 -17h-132q-4 16 -5.5 39.5t-1 50.5t3 55.5t7.5 55.5q6 35 15 75t18.5 77t18 67.5t11.5 45.5q-43 -96 -97.5 -184t-116 -155t-127 -107t-128.5 -40q-52 0 -90 22l-11 -68q-15 -97 -42 -164t-66 -108t-91 -59.5 t-118 -18.5q-49 0 -84 11t-50 19l28 107q12 -5 39.5 -11.5t58.5 -6.5q45 0 77 13t54 39t35.5 65.5t22.5 93.5z" />
<glyph unicode="&#x3c0;" horiz-adv-x="1269" d="M123 991q21 4 41.5 10t44 11t51.5 8.5t63 3.5h923l-18 -115h-196l-110 -697q-11 -64 5.5 -91.5t70.5 -27.5q22 0 47 4.5t34 8.5l6 -103q-7 -3 -20.5 -6.5t-31.5 -7.5t-40 -6.5t-45 -2.5q-44 0 -79 11.5t-58.5 36t-32.5 64t0 96.5l114 721h-399l-144 -909h-141l144 909 h-48q-32 0 -56.5 -2.5t-45 -6.5t-38.5 -9t-36 -9z" />
<glyph unicode="&#xe3f;" horiz-adv-x="1007" d="M706 1486l-43 -221q142 -8 221.5 -74t79.5 -181q0 -59 -21 -109t-53 -90.5t-70.5 -70t-72.5 -45.5q38 -12 71.5 -36t59 -57.5t40 -75.5t14.5 -91q0 -167 -112 -263.5t-324 -106.5l-27 -221h-131l42 221h-287l191 1201h264l27 220h131zM321 628l-74 -454h217 q70 0 128.5 15t100.5 45.5t65.5 77.5t23.5 112q0 45 -14.5 82.5t-44 64.5t-74.5 42t-106 15h-222zM337 737h303q29 12 60.5 36t57.5 57.5t43 74.5t17 87q0 85 -56 124.5t-162 39.5h-195z" />
<glyph unicode="&#x1e80;" horiz-adv-x="1739" d="M1853 1330l-585 -1330h-170l-128 1081l-471 -1081h-168l-165 1330h153l126 -1161l490 1131h137l136 -1131l486 1161h159zM1171 1515l-406 159l74 129l380 -203z" />
<glyph unicode="&#x1e81;" horiz-adv-x="1412" d="M1352 1044q10 -27 19.5 -69.5t9.5 -96.5q0 -112 -32 -228.5t-93 -229.5t-151 -220t-205 -200h-139l-39 465q-55 -130 -139 -247.5t-198 -217.5h-138l-69 803q-6 74 -16 133t-21 88h138q11 -29 18.5 -66t11.5 -82l59 -755q68 73 124 152.5t98 163.5t69 170.5t36 173.5 q-10 91 -21.5 144.5t-19.5 80.5l164 18q9 -27 18.5 -69.5t9.5 -96.5q0 -21 -1.5 -41.5t-3.5 -41.5q-1 -22 -1.5 -43t-2.5 -41l46 -570q80 83 145 174t110.5 187t70.5 195t25 198q0 42 -4 79t-16 70zM922 1209l-406 159l74 129l380 -203z" />
<glyph unicode="&#x1e82;" horiz-adv-x="1739" d="M1853 1330l-585 -1330h-170l-128 1081l-471 -1081h-168l-165 1330h153l126 -1161l490 1131h137l136 -1131l486 1161h159zM832 1588l435 214l48 -130l-451 -163z" />
<glyph unicode="&#x1e83;" horiz-adv-x="1412" d="M1352 1044q10 -27 19.5 -69.5t9.5 -96.5q0 -112 -32 -228.5t-93 -229.5t-151 -220t-205 -200h-139l-39 465q-55 -130 -139 -247.5t-198 -217.5h-138l-69 803q-6 74 -16 133t-21 88h138q11 -29 18.5 -66t11.5 -82l59 -755q68 73 124 152.5t98 163.5t69 170.5t36 173.5 q-10 91 -21.5 144.5t-19.5 80.5l164 18q9 -27 18.5 -69.5t9.5 -96.5q0 -21 -1.5 -41.5t-3.5 -41.5q-1 -22 -1.5 -43t-2.5 -41l46 -570q80 83 145 174t110.5 187t70.5 195t25 198q0 42 -4 79t-16 70zM563 1288l435 214l48 -130l-451 -163z" />
<glyph unicode="&#x1e84;" horiz-adv-x="1739" d="M1853 1330l-585 -1330h-170l-128 1081l-471 -1081h-168l-165 1330h153l126 -1161l490 1131h137l136 -1131l486 1161h159zM779 1641q0 25 9.5 46t25.5 36t38 23.5t46 8.5q36 0 58 -24t22 -61q0 -26 -9.5 -47t-25.5 -36t-38 -23.5t-46 -8.5q-36 0 -58 24t-22 62zM1147 1641 q0 51 34.5 82.5t84.5 31.5q36 0 58 -24t22 -61q0 -26 -9.5 -47t-26 -36t-38.5 -23.5t-46 -8.5q-36 0 -57.5 24t-21.5 62z" />
<glyph unicode="&#x1e85;" horiz-adv-x="1412" d="M1352 1044q10 -27 19.5 -69.5t9.5 -96.5q0 -112 -32 -228.5t-93 -229.5t-151 -220t-205 -200h-139l-39 465q-55 -130 -139 -247.5t-198 -217.5h-138l-69 803q-6 74 -16 133t-21 88h138q11 -29 18.5 -66t11.5 -82l59 -755q68 73 124 152.5t98 163.5t69 170.5t36 173.5 q-10 91 -21.5 144.5t-19.5 80.5l164 18q9 -27 18.5 -69.5t9.5 -96.5q0 -21 -1.5 -41.5t-3.5 -41.5q-1 -22 -1.5 -43t-2.5 -41l46 -570q80 83 145 174t110.5 187t70.5 195t25 198q0 42 -4 79t-16 70zM523 1335q0 25 9.5 46t25.5 36t38 23.5t46 8.5q36 0 58.5 -24t22.5 -61 q0 -26 -9.5 -47t-26 -36t-38.5 -23.5t-46 -8.5q-36 0 -58 24t-22 62zM891 1335q0 51 34.5 82.5t84.5 31.5q36 0 58 -24t22 -61q0 -26 -9.5 -47t-26 -36t-38.5 -23.5t-46 -8.5q-36 0 -57.5 24t-21.5 62z" />
<glyph unicode="&#x1e9e;" horiz-adv-x="1160" d="M433 131q32 -11 76.5 -20.5t110.5 -9.5q62 0 115.5 22t93.5 60.5t62.5 89t22.5 107.5q0 43 -15 82t-47.5 69t-84 49t-124.5 24q-22 3 -47.5 4t-53.5 0l10 82l394 524h-254q-72 0 -128 -23.5t-96 -64.5t-64.5 -96.5t-34.5 -119.5l-145 -910h-143l144 907q15 95 53 173 t99.5 133.5t148 86t198.5 30.5h416l-12 -77l-415 -542q64 -2 126 -22.5t111.5 -59.5t80 -96.5t30.5 -133.5q0 -85 -31.5 -161t-90.5 -133.5t-145.5 -91t-195.5 -33.5q-34 0 -65.5 4t-59 10t-50 13.5t-37.5 14.5z" />
<glyph unicode="&#x1ef2;" horiz-adv-x="965" d="M414 514l-283 816h141l231 -679l448 679h153l-541 -816v1l-82 -515h-150zM754 1509l-406 159l74 129l380 -203z" />
<glyph unicode="&#x1ef3;" horiz-adv-x="906" d="M373 224q3 -69 -0.5 -128.5t-11.5 -113.5l64 93q65 85 121.5 183.5t98.5 204t66.5 214t24.5 213.5q0 36 -4 70.5t-13 63.5l142 20q9 -25 16.5 -65.5t7.5 -91.5q0 -138 -47.5 -289.5t-132.5 -306t-203 -307t-258 -293.5q-47 -54 -107 -80.5t-131 -26.5q-53 0 -89.5 11.5 t-55.5 22.5l33 108q18 -9 46.5 -16.5t59.5 -7.5q54 0 99.5 22t78 77.5t48 151t9.5 242.5q-4 97 -10.5 192t-14.5 182t-16.5 163t-16 135.5t-14 100t-9.5 56.5h138q6 -28 17 -95t23 -169.5t23 -237.5t18 -298zM653 1209l-406 159l73 129l381 -203z" />
<glyph unicode="&#x2013;" horiz-adv-x="1413" d="M231 590h959l-18 -115h-959z" />
<glyph unicode="&#x2014;" horiz-adv-x="2108" d="M231 590h1717l-18 -115h-1717z" />
<glyph unicode="&#x2018;" horiz-adv-x="412" d="M479 1394q-24 -17 -52 -41.5t-51.5 -57.5t-37.5 -74.5t-11 -92.5q3 -48 18 -81.5t29 -51.5l-143 -37q-6 7 -14.5 22t-16 36.5t-12.5 49t-5 59.5q0 62 22 114t56 93.5t74.5 73t78.5 54.5z" />
<glyph unicode="&#x2019;" horiz-adv-x="412" d="M153 1040q24 17 52 41.5t51.5 57.5t37.5 74.5t11 92.5q-2 48 -17.5 81.5t-28.5 51.5l143 37q6 -7 14 -22t15.5 -36.5t12.5 -49t5 -60.5q0 -62 -22 -113.5t-56 -93t-75 -73.5t-78 -54z" />
<glyph unicode="&#x201a;" horiz-adv-x="418" d="M-37 -246q24 17 52 41.5t51.5 57.5t37.5 74.5t11 92.5q-2 48 -17.5 81t-28.5 51l143 38q6 -7 14 -22t15.5 -36.5t12.5 -49t5 -60.5q0 -62 -22 -114t-56 -93.5t-75 -73.5t-78 -54z" />
<glyph unicode="&#x201c;" horiz-adv-x="719" d="M778 1402q-27 -19 -55.5 -44t-52 -58t-37 -73.5t-10.5 -91.5q3 -48 18.5 -82t29.5 -53l-134 -35q-6 7 -14 22t-15.5 36.5t-12.5 49t-5 59.5q0 62 21.5 113t55 92.5t73.5 72.5t77 54zM475 1405q-27 -19 -56.5 -44.5t-53.5 -58.5t-38 -74.5t-10 -92.5q2 -48 18 -82t30 -53 l-134 -35q-6 7 -14.5 22t-16 36.5t-12.5 49t-5 59.5q0 62 22 114t56 93.5t74.5 73t78.5 54.5z" />
<glyph unicode="&#x201d;" horiz-adv-x="711" d="M153 1023q26 19 55 44t52 57.5t37 73.5t10 92q-2 48 -18 81.5t-30 53.5l134 35q6 -7 14.5 -22t16 -36.5t12.5 -49t5 -60.5q0 -62 -21.5 -113t-55 -92t-73.5 -72.5t-77 -53.5zM456 1019q27 19 56.5 44.5t53 59t37.5 75t11 92.5q-2 48 -18 81.5t-30 53.5l134 35 q6 -7 14 -22t15.5 -36.5t13 -49t5.5 -60.5q0 -62 -22 -114t-56 -93.5t-75 -73t-78 -53.5z" />
<glyph unicode="&#x201e;" horiz-adv-x="717" d="M-37 -247q26 19 55 44t52 57.5t37 73.5t10 92q-2 48 -18 81.5t-30 53.5l134 35q6 -7 14.5 -22t16 -36.5t12.5 -49t5 -60.5q0 -62 -21.5 -113t-55 -92t-73.5 -72.5t-77 -53.5zM266 -251q27 19 56.5 44.5t53 59t37.5 75t11 92.5q-2 48 -18 81.5t-30 53.5l134 35 q6 -7 14 -22t15.5 -36.5t13 -49t5.5 -60.5q0 -62 -22 -114t-56 -93.5t-75 -73.5t-78 -54z" />
<glyph unicode="&#x2020;" horiz-adv-x="1342" d="M801 1038l408 6l-20 -130l-408 6l-215 -1244h-113l178 1244l-408 -6l20 130l405 -6l79 555h171z" />
<glyph unicode="&#x2021;" horiz-adv-x="1484" d="M922 1151l409 6l-21 -130l-409 6l-69 -393l-55 -385l412 6l-20 -130l-408 6l-67 -461h-161l80 461l-410 -6l20 130l409 -6l68 387l56 391l-411 -6l20 130l409 -6l65 456h161z" />
<glyph unicode="&#x2022;" horiz-adv-x="539" d="M63 661q0 46 17 84.5t47 66.5t70 43.5t85 15.5q33 0 60 -12t46.5 -33t30 -49.5t10.5 -61.5q0 -47 -17.5 -85.5t-47.5 -67t-70 -44t-85 -15.5q-33 0 -60 11.5t-46 32.5t-29.5 50t-10.5 64z" />
<glyph unicode="&#x2026;" horiz-adv-x="1317" d="M73 66q0 51 34.5 82.5t84.5 31.5q36 0 58 -24t22 -61q0 -25 -9.5 -46t-25.5 -36.5t-38 -24t-46 -8.5q-36 0 -58 24t-22 62zM509 66q0 51 34.5 82.5t84.5 31.5q36 0 58 -24t22 -61q0 -25 -9.5 -46t-25.5 -36.5t-38 -24t-46 -8.5q-36 0 -58 24t-22 62zM945 66 q0 51 34.5 82.5t84.5 31.5q36 0 58 -24t22 -61q0 -25 -9.5 -46t-25.5 -36.5t-38 -24t-46 -8.5q-36 0 -58 24t-22 62z" />
<glyph unicode="&#x2030;" horiz-adv-x="1867" d="M1483 -20q-67 0 -115.5 33t-75.5 87q-44 -56 -108 -88t-140 -32q-54 0 -96.5 21t-72 56.5t-45 83t-15.5 100.5q0 76 25.5 141.5t70.5 113.5t106 75.5t133 27.5q66 0 114.5 -33t75.5 -88q45 57 108 89t140 32q54 0 96.5 -21t72 -56.5t45 -83t15.5 -100.5 q0 -77 -25.5 -142.5t-70 -113.5t-105.5 -75t-133 -27zM388 731q-54 0 -96.5 21t-72 56.5t-45 83t-15.5 100.5q0 76 25.5 141.5t70.5 113.5t106 75.5t133 27.5q54 0 96.5 -21t72 -56.5t45 -83t15.5 -100.5q0 -77 -25.5 -142.5t-70.5 -113.5t-106 -75t-133 -27zM1508 78 q39 0 73.5 19t60 52.5t40.5 78.5t15 97q0 36 -8 68t-24.5 56t-42 38t-59.5 14q-39 0 -73.5 -19t-60 -53t-40.5 -79.5t-15 -97.5q0 -36 8 -67.5t24.5 -55t41.5 -37.5t60 -14zM1070 78q39 0 73.5 19t60 52.5t40.5 78.5t15 97q0 36 -8 68t-24.5 56t-42 38t-60.5 14 q-39 0 -73.5 -19t-60 -53t-40.5 -79.5t-15 -97.5q0 -36 8 -67.5t24.5 -55t42 -37.5t60.5 -14zM414 829q39 0 73.5 19t60 52.5t40.5 78.5t15 97q0 36 -8 68t-24.5 56t-42 38t-60.5 14q-39 0 -73.5 -19t-60 -53t-40.5 -79.5t-15 -97.5q0 -36 8 -67.5t24.5 -55t42 -37.5 t60.5 -14zM1399 1280l-1176 -1299l-83 69l1176 1300z" />
<glyph unicode="&#x2039;" horiz-adv-x="707" d="M664 900q-34 -44 -77 -93t-90.5 -99t-98 -99t-99.5 -94q35 -45 70 -94t67 -99t59 -99t47 -94l-115 -79q-29 58 -62.5 119.5t-70.5 122t-75 117.5t-76 106q54 49 110.5 106t112 117t108.5 121.5t100 120.5z" />
<glyph unicode="&#x203a;" horiz-adv-x="727" d="M77 123q34 44 76.5 93t90.5 99t98.5 99t99.5 94q-36 45 -71 94t-66.5 99t-59 99t-46.5 94l115 79q28 -58 62 -119.5t70.5 -122t75 -117.5t76.5 -106q-54 -49 -110.5 -106t-112 -117t-108.5 -121.5t-101 -120.5z" />
<glyph unicode="&#x203d;" horiz-adv-x="680" d="M180 370q-13 76 -5.5 139.5t36.5 120.5l49 400h128l-47 -248q19 14 36.5 28.5t34.5 28.5q41 33 72 60.5t51.5 54.5t30.5 55.5t10 63.5q0 74 -56 115t-160 41q-52 0 -100.5 -6t-78.5 -14l19 120q33 7 82.5 14t106.5 7q78 0 140.5 -19.5t106.5 -53.5t67.5 -80t23.5 -99 q0 -68 -20 -118t-57 -93.5t-89 -85t-116 -91.5q-45 -35 -74.5 -69t-46.5 -72t-22.5 -83t-1.5 -101zM113 66q0 51 34.5 82.5t84.5 31.5q36 0 58 -24t22 -61q0 -25 -9.5 -46t-25.5 -36.5t-38 -24t-46 -8.5q-36 0 -58 24t-22 62z" />
<glyph unicode="&#x2044;" horiz-adv-x="1045" d="M1182 1280l-1176 -1299l-83 69l1176 1300z" />
<glyph unicode="&#x2070;" horiz-adv-x="630" d="M352 731q-54 0 -96.5 21t-72 56.5t-45 83t-15.5 100.5q0 76 25.5 141.5t70 113.5t106 75.5t133.5 27.5q54 0 96.5 -21t72 -56.5t45 -83t15.5 -100.5q0 -77 -25.5 -142.5t-70.5 -113.5t-106 -75t-133 -27zM377 829q39 0 74 19t60.5 52.5t40.5 78.5t15 97q0 36 -8 68 t-25 56t-42.5 38t-59.5 14q-39 0 -73.5 -19t-60 -53t-40.5 -79.5t-15 -97.5q0 -36 8 -67.5t24.5 -55t41.5 -37.5t60 -14z" />
<glyph unicode="&#x2074;" horiz-adv-x="522" d="M507 1159l-32 -200h90l-13 -87h-90l-18 -121h-101l18 121h-259l13 84l236 391l102 -17l-226 -371h148l32 200h100z" />
<glyph unicode="&#x20a3;" horiz-adv-x="967" d="M975 1208h-531l-75 -478h491l-19 -121h-491l-40 -248h299l-16 -101h-299l-41 -260h-149l41 260h-162l16 101h162l153 969h680z" />
<glyph unicode="&#x20a4;" horiz-adv-x="1017" d="M124 590h631l-17 -111h-325q-17 -88 -45 -176.5t-70 -167.5q24 0 47 -3q38 -3 74 -8.5t71 -11t70 -10t72 -4.5q65 -1 109.5 36t76.5 102l92 -36q-35 -104 -110 -162t-189 -58q-39 0 -77 5t-77.5 12t-81.5 13.5t-88 8.5q-16 1 -33.5 0.5t-33.5 -0.5q-2 -2 -19.5 -17.5 t-39.5 -28.5l-92 26l-6 96q17 8 45.5 17t55.5 16q22 42 40 87t31.5 90.5t22 89.5t13.5 84h-165zM155 854h133q2 26 4.5 50t6.5 50q14 94 52 168t94.5 124.5t129.5 77t159 26.5q44 0 82.5 -7.5t69.5 -18t54.5 -23t38.5 -21.5l-56 -104q-35 17 -86.5 34t-123.5 17 q-51 0 -95.5 -18.5t-79.5 -52.5t-58.5 -82t-32.5 -106q-5 -29 -7.5 -57t-4.5 -57h356l-18 -111h-635z" />
<glyph unicode="&#x20a9;" horiz-adv-x="2051" d="M1971 1330l-186 -425h283l-14 -86h-307l-61 -139h268l-14 -87h-292l-258 -593h-173l-117 1046l-450 -1046h-174l-70 593h-292l14 87h268l-16 139h-287l14 86h263l-49 425h156l45 -425h376l171 395h144l44 -395h375l178 425h161zM1337 207l163 386h-208zM597 208l166 385 h-208zM1283 680h254l58 139h-329zM545 680h256l60 139h-330z" />
<glyph unicode="&#x20ac;" horiz-adv-x="1265" d="M151 590h788l-18 -112h-486q8 -87 38 -156.5t81.5 -118t124 -74.5t166.5 -26q66 0 126 13t127 39l22 -106q-60 -32 -143 -50.5t-173 -18.5q-119 0 -213 36t-161 101.5t-105.5 157t-45.5 203.5h-145zM193 853h138q39 112 104 204t151.5 157t191.5 100.5t225 35.5 q81 0 154.5 -21.5t124.5 -52.5l-60 -102q-40 17 -102 35t-143 18q-84 0 -159.5 -26t-139 -74.5t-113 -117.5t-81.5 -156h497l-18 -111h-787z" />
<glyph unicode="&#x20b1;" horiz-adv-x="1210" d="M163 1078h141l40 252h360q73 0 134 -17.5t106.5 -50t75 -79t41.5 -105.5h200l-13 -87h-180q-1 -31 -4 -61t-10 -58h175l-14 -87h-192q-57 -121 -175 -188.5t-280 -67.5h-200l-85 -529h-149l124 785h-141l14 87h140l20 119h-141zM597 647q88 0 155 36t107 102h-451 l-22 -138h211zM476 1212l-21 -134h439q-43 134 -217 134h-201zM895 872q14 51 14 110v9h-468l-19 -119h473z" />
<glyph unicode="&#x20b9;" horiz-adv-x="993" d="M250 1330h810l-17 -101h-405q24 -13 49 -34t46 -50t34.5 -65.5t13.5 -79.5h198l-16 -100h-195q-17 -58 -49 -104t-74 -81t-90 -59.5t-95.5 -40.5t-92.5 -24t-80 -9l393 -582h-157l-400 589l14 85q91 -2 169.5 10t141 39t105.5 70.5t62 106.5h-442l15 100h442 q-1 51 -23.5 91t-63 68.5t-97.5 43.5t-127 15h-87z" />
<glyph unicode="&#x20ba;" horiz-adv-x="927" d="M93 732l238 148l71 450h142l-55 -350l308 191l35 -74l-360 -222l-23 -146l309 191l34 -74l-360 -222l-79 -502q75 2 141.5 31t118 79t85 118.5t42.5 148.5l134 9q-14 -111 -62 -203.5t-120 -159.5t-164 -105t-194 -40h-142l83 524l-188 -116l-34 73l238 148l23 146 l-187 -116z" />
<glyph unicode="&#x2113;" horiz-adv-x="710" d="M272 496l-29 -172q-18 -115 17.5 -172t120.5 -57q32 0 63 6.5t58 16t48.5 19.5t35.5 16l28 -96q-17 -10 -42.5 -23.5t-58.5 -25.5t-74.5 -20t-89.5 -8q-63 0 -113 20.5t-82.5 61t-44.5 102t1 142.5l107 678q13 84 40.5 152t68.5 115.5t95.5 73t122.5 25.5 q100 0 151.5 -60t51.5 -164q0 -99 -36.5 -186t-97.5 -162.5t-140.5 -140t-165.5 -119.5zM293 632q72 48 131 100t101.5 110.5t66 125.5t23.5 145q0 55 -22 89.5t-67 34.5q-37 0 -66 -18t-51 -50t-36.5 -77.5t-22.5 -99.5z" />
<glyph unicode="&#x2122;" horiz-adv-x="763" d="M193 1350h240l-10 -62h-81l-42 -264h-76l42 264h-83zM458 1350h111l22 -201l87 201h112l-52 -326h-77l30 189l-87 -189h-65l-27 189l-30 -189h-76z" />
<glyph unicode="&#x212e;" horiz-adv-x="1848" d="M452 632q-10 0 -10 -10v-351q0 -24 17 -44q88 -90 208.5 -132.5t257.5 -42.5q149 0 274.5 49.5t216.5 145.5h110q-51 -60 -115.5 -109t-141 -84t-163.5 -54.5t-183 -19.5q-161 0 -299.5 53.5t-241 146t-161 217t-58.5 267.5q0 95 27.5 182.5t77 164t119 139t154 107 t181 69t201.5 24.5t202.5 -25t182 -71t154 -110t119 -141t77 -165.5t27.5 -183.5v-22h-1233zM1405 1061q0 26 -19 44q-86 87 -206 130t-255 43q-138 0 -257 -42.5t-207 -130.5q-19 -19 -19 -48v-346q0 -12 10 -12h945q8 0 8 12v350z" />
<glyph unicode="&#x2190;" horiz-adv-x="1809" d="M1668 607h-1276l400 -473l-94 -82l-515 612l710 612l67 -81l-548 -473h1274z" />
<glyph unicode="&#x2191;" horiz-adv-x="1529" d="M183 678l708 612l515 -613l-94 -80l-397 473l-202 -1274h-115l202 1276l-549 -475z" />
<glyph unicode="&#x2192;" horiz-adv-x="1808" d="M909 134l549 473h-1275l18 115h1273l-398 473l94 81l515 -612l-709 -612z" />
<glyph unicode="&#x2193;" horiz-adv-x="1529" d="M277 489l398 -474l202 1275h115l-202 -1274l548 474l68 -81l-708 -613l-515 613z" />
<glyph unicode="&#x2196;" horiz-adv-x="1448" d="M253 424l137 866h864l-18 -114h-669l758 -901l-93 -82l-759 902l-106 -671h-114z" />
<glyph unicode="&#x2197;" horiz-adv-x="1633" d="M183 275l1043 901h-669l18 114h865l-137 -866h-114l106 671l-1044 -902z" />
<glyph unicode="&#x2198;" horiz-adv-x="1448" d="M276 1096l759 -901l106 671h114l-136 -866h-865l18 114h669l-758 901z" />
<glyph unicode="&#x2199;" horiz-adv-x="1633" d="M504 866l-106 -671l1044 901l68 -81l-1044 -901h669l-18 -114h-864l137 866h114z" />
<glyph unicode="&#x2202;" horiz-adv-x="1142" d="M618 1226q-42 0 -81.5 -6.5t-72 -15t-56.5 -17t-35 -13.5l-17 108q9 5 35 16t64 22.5t85.5 20.5t99.5 9q114 0 192 -39.5t126 -107t69.5 -158t21.5 -191.5q0 -94 -14.5 -195.5t-46.5 -198.5t-82 -184t-121.5 -153t-165 -104.5t-211.5 -38.5q-73 0 -134.5 20t-106 59 t-69.5 97t-25 135q0 109 40 205.5t111.5 168.5t170 113.5t216.5 41.5q50 0 93.5 -10.5t79.5 -26.5t62.5 -35.5t43.5 -37.5q19 119 12 214.5t-40.5 162.5t-94.5 103t-149 36zM426 101q78 0 145 32.5t122 93.5t97 147.5t70 193.5q-11 21 -35.5 44t-59.5 42.5t-79 32t-93 12.5 q-79 0 -147 -30.5t-117.5 -83.5t-77.5 -124t-28 -153q0 -46 13 -84t38.5 -65.5t63.5 -42.5t88 -15z" />
<glyph unicode="&#x220f;" horiz-adv-x="1342" d="M1158 1369h-734l-241 -1524h-142l260 1640h1018l-260 -1640h-142z" />
<glyph unicode="&#x2211;" horiz-adv-x="1087" d="M1127 1369h-747q75 -175 151.5 -352t151.5 -352l-546 -704h785l-18 -116h-941l16 105l559 715l-312 715l17 105h903z" />
<glyph unicode="&#x2212;" horiz-adv-x="1069" d="M216 722h685l-18 -115h-685z" />
<glyph unicode="&#x2215;" horiz-adv-x="1045" d="M1182 1280l-1176 -1299l-83 69l1176 1300z" />
<glyph unicode="&#x2219;" horiz-adv-x="415" d="M113 498q0 51 34.5 82.5t84.5 31.5q36 0 58 -24t22 -61q0 -25 -9.5 -46t-25.5 -36.5t-38 -24t-46 -8.5q-36 0 -58 24t-22 62z" />
<glyph unicode="&#x221a;" horiz-adv-x="1330" d="M81 864h344q3 -16 6.5 -30.5t7.5 -28.5l147 -624l695 1304h146l-800 -1485h-132l-190 749h-242z" />
<glyph unicode="&#x221e;" horiz-adv-x="1787" d="M897 583q-55 -49 -108.5 -93t-110 -77t-117.5 -52t-130 -19q-68 0 -123 19t-93.5 54.5t-59.5 86t-21 113.5q0 85 31 153.5t84.5 117t126.5 75t157 26.5q69 0 124 -19t101 -52t86 -76.5t79 -92.5q55 49 109 92.5t110.5 76.5t117 52t129.5 19q67 0 122 -19t94 -54t60.5 -86 t21.5 -114q0 -84 -31 -153t-85 -117.5t-127 -75t-157 -26.5q-69 0 -123.5 19t-100.5 52t-86 77t-80 93zM1362 877q-42 0 -85 -15t-88.5 -43t-94.5 -67t-104 -87q40 -48 76.5 -87.5t73 -67.5t74.5 -43t81 -15q58 0 106.5 18t83.5 50t54.5 77.5t19.5 99.5q0 82 -51.5 131 t-145.5 49zM458 452q41 0 85 16.5t90.5 45.5t96 67.5t100.5 83.5q-37 44 -74 83t-74.5 67.5t-76.5 45t-79 16.5q-58 0 -106.5 -18t-84 -50t-55 -77.5t-19.5 -99.5q0 -41 13.5 -74t39 -56.5t62 -36.5t82.5 -13z" />
<glyph unicode="&#x222b;" horiz-adv-x="752" d="M407 157q-9 -71 -41 -131.5t-80 -105t-108.5 -70t-126.5 -25.5q-49 0 -87.5 10.5t-59.5 19.5l43 110q22 -7 56 -14t72 -7q41 0 75 16t59 46t41 72t22 95l103 1000q10 70 41 131t78.5 105.5t108 70t128.5 25.5q48 0 86.5 -10.5t60.5 -19.5l-44 -110q-21 8 -55.5 14.5 t-72.5 6.5q-41 0 -74.5 -16t-59 -46t-41.5 -72.5t-22 -94.5z" />
<glyph unicode="&#x2248;" horiz-adv-x="1104" d="M199 801q58 51 121.5 80.5t140.5 29.5q43 0 77.5 -12t66 -26.5t63 -26.5t69.5 -12q28 0 54.5 7.5t50.5 18.5t45 24.5t38 24.5l39 -80q-58 -51 -121.5 -80.5t-140.5 -29.5q-44 0 -78 12t-65.5 26.5t-63 26.5t-68.5 12q-28 0 -54.5 -7.5t-50.5 -19t-45.5 -24.5t-38.5 -24z M168 502q60 53 125 83.5t144 30.5q43 0 76.5 -12t64 -26.5t61.5 -26.5t68 -12q30 0 58.5 7t54 18t48 23t40.5 23l40 -80q-62 -49 -128.5 -78t-147.5 -29q-43 0 -76.5 12t-64.5 26.5t-61.5 26.5t-66.5 12q-29 0 -56.5 -8t-52.5 -19.5t-47 -25t-40 -25.5z" />
<glyph unicode="&#x2260;" horiz-adv-x="1252" d="M275 897h500l233 314l77 -50l-195 -264h212l-19 -115h-278l-173 -233h414l-18 -115h-480l-233 -315l-78 50l196 265h-232l18 115h299l173 233h-435z" />
<glyph unicode="&#x2264;" horiz-adv-x="974" d="M71 183h656l-18 -114h-656zM871 1161l-509 -344l401 -345l-91 -90l-501 435l639 434z" />
<glyph unicode="&#x2265;" horiz-adv-x="960" d="M101 183h656l-18 -114h-656zM157 472l509 345l-400 344l90 90l501 -434l-639 -435z" />
<glyph unicode="&#x2460;" d="M183 577q0 105 30.5 203t85 184t130 157t164.5 122t188.5 79t203.5 28q128 0 235.5 -46.5t185 -127t121 -189.5t43.5 -234q0 -105 -30.5 -203t-85 -184t-130 -157t-164.5 -122t-188.5 -79t-203.5 -28q-128 0 -235.5 46.5t-185 127t-121 189.5t-43.5 234zM305 591 q0 -103 35.5 -192.5t99.5 -155.5t152.5 -104t194.5 -38q86 0 168.5 23t155.5 65t135 100.5t106.5 129.5t69.5 152t25 168q0 103 -35.5 192.5t-99.5 155.5t-152 104t-194 38q-86 0 -168.5 -23t-156 -65t-135 -100.5t-106.5 -129.5t-70 -152t-25 -168zM790 432l73 466 q-12 -2 -29 -3.5t-34.5 -3t-35 -2.5t-31.5 -2l5 92q24 2 55 5t64 6.5t64.5 7.5t55.5 7h25l-91 -573l115 -5l-15 -94h-370l15 94z" />
<glyph unicode="&#x2461;" d="M183 577q0 105 30.5 203t85 184t130 157t164.5 122t188.5 79t203.5 28q128 0 235.5 -46.5t185 -127t121 -189.5t43.5 -234q0 -105 -30.5 -203t-85 -184t-130 -157t-164.5 -122t-188.5 -79t-203.5 -28q-128 0 -235.5 46.5t-185 127t-121 189.5t-43.5 234zM305 591 q0 -103 35.5 -192.5t99.5 -155.5t152.5 -104t194.5 -38q86 0 168.5 23t155.5 65t135 100.5t106.5 129.5t69.5 152t25 168q0 103 -35.5 192.5t-99.5 155.5t-152 104t-194 38q-86 0 -168.5 -23t-156 -65t-135 -100.5t-106.5 -129.5t-70 -152t-25 -168zM605 411q105 94 174 159 t109 111t56 78t16 59q0 40 -22.5 62t-68.5 22q-47 0 -85.5 -14t-57.5 -23l-26 85q16 8 38 17.5t47.5 18t55 14t60.5 5.5q89 0 138 -47t49 -123q0 -44 -17.5 -83.5t-56 -84.5t-99.5 -101.5t-148 -133.5h286l-15 -99h-445z" />
<glyph unicode="&#x2462;" d="M183 577q0 105 30.5 203t85 184t130 157t164.5 122t188.5 79t203.5 28q128 0 235.5 -46.5t185 -127t121 -189.5t43.5 -234q0 -105 -30.5 -203t-85 -184t-130 -157t-164.5 -122t-188.5 -79t-203.5 -28q-128 0 -235.5 46.5t-185 127t-121 189.5t-43.5 234zM305 591 q0 -103 35.5 -192.5t99.5 -155.5t152.5 -104t194.5 -38q86 0 168.5 23t155.5 65t135 100.5t106.5 129.5t69.5 152t25 168q0 103 -35.5 192.5t-99.5 155.5t-152 104t-194 38q-86 0 -168.5 -23t-156 -65t-135 -100.5t-106.5 -129.5t-70 -152t-25 -168zM973 826q0 76 -96 76 q-23 0 -45 -3.5t-40 -8.5t-31.5 -10t-20.5 -8l-26 85q9 4 26.5 12t41.5 16t54.5 14t64.5 6q49 0 85.5 -12.5t61 -34t37 -51t12.5 -63.5q0 -54 -30.5 -94.5t-79.5 -69.5q39 -18 61 -53t22 -80q0 -49 -20 -90t-57.5 -71t-90 -46.5t-118.5 -16.5q-30 0 -56.5 5t-48 12.5 t-37.5 16t-26 14.5l50 90q17 -8 55 -21.5t89 -13.5q25 0 50 6.5t44 20t31 34t12 47.5q0 43 -29 66t-86 23h-68l15 95h113q13 4 27.5 13t26.5 22.5t19.5 31.5t7.5 41z" />
<glyph unicode="&#x2463;" d="M183 577q0 105 30.5 203t85 184t130 157t164.5 122t188.5 79t203.5 28q128 0 235.5 -46.5t185 -127t121 -189.5t43.5 -234q0 -105 -30.5 -203t-85 -184t-130 -157t-164.5 -122t-188.5 -79t-203.5 -28q-128 0 -235.5 46.5t-185 127t-121 189.5t-43.5 234zM305 591 q0 -103 35.5 -192.5t99.5 -155.5t152.5 -104t194.5 -38q86 0 168.5 23t155.5 65t135 100.5t106.5 129.5t69.5 152t25 168q0 103 -35.5 192.5t-99.5 155.5t-152 104t-194 38q-86 0 -168.5 -23t-156 -65t-135 -100.5t-106.5 -129.5t-70 -152t-25 -168zM936 995h115l-65 -413 h98l-16 -99h-98l-24 -150h-118l23 150h-300l12 77zM867 582l36 229l-193 -229h157z" />
<glyph unicode="&#x2464;" d="M183 577q0 105 30.5 203t85 184t130 157t164.5 122t188.5 79t203.5 28q128 0 235.5 -46.5t185 -127t121 -189.5t43.5 -234q0 -105 -30.5 -203t-85 -184t-130 -157t-164.5 -122t-188.5 -79t-203.5 -28q-128 0 -235.5 46.5t-185 127t-121 189.5t-43.5 234zM305 591 q0 -103 35.5 -192.5t99.5 -155.5t152.5 -104t194.5 -38q86 0 168.5 23t155.5 65t135 100.5t106.5 129.5t69.5 152t25 168q0 103 -35.5 192.5t-99.5 155.5t-152 104t-194 38q-86 0 -168.5 -23t-156 -65t-135 -100.5t-106.5 -129.5t-70 -152t-25 -168zM949 556q0 50 -34 77 t-91 27q-44 0 -80 -5.5t-59 -11.5l68 352h364l-16 -99h-251l-27 -140q6 1 15.5 1.5t17.5 0.5q117 0 174.5 -56.5t41.5 -156.5q-8 -48 -32.5 -88.5t-63 -70.5t-89 -46.5t-110.5 -16.5q-33 0 -60.5 5.5t-48.5 12.5t-35 14.5t-20 11.5l48 89q17 -8 53 -19t85 -11q31 0 58.5 9 t48 26t32 41t11.5 54z" />
<glyph unicode="&#x2465;" d="M183 577q0 105 30.5 203t85 184t130 157t164.5 122t188.5 79t203.5 28q128 0 235.5 -46.5t185 -127t121 -189.5t43.5 -234q0 -105 -30.5 -203t-85 -184t-130 -157t-164.5 -122t-188.5 -79t-203.5 -28q-128 0 -235.5 46.5t-185 127t-121 189.5t-43.5 234zM305 591 q0 -103 35.5 -192.5t99.5 -155.5t152.5 -104t194.5 -38q86 0 168.5 23t155.5 65t135 100.5t106.5 129.5t69.5 152t25 168q0 103 -35.5 192.5t-99.5 155.5t-152 104t-194 38q-86 0 -168.5 -23t-156 -65t-135 -100.5t-106.5 -129.5t-70 -152t-25 -168zM955 901 q-39 0 -72.5 -16.5t-59.5 -43.5t-45 -62t-29 -72q17 12 53 25.5t78 13.5q92 0 146 -46t54 -127q0 -53 -19 -99t-54.5 -79.5t-86.5 -52.5t-115 -19q-103 0 -153 60.5t-50 173.5q0 85 23 165.5t69.5 143.5t117 101t164.5 38q56 0 90.5 -12t44.5 -17l-42 -94q-10 4 -40 11.5 t-74 7.5zM829 425q53 0 88 33t35 95q0 49 -28.5 69.5t-67.5 20.5q-42 0 -74 -14.5t-51 -31.5q-12 -80 11 -126t87 -46z" />
<glyph unicode="&#x2466;" d="M183 577q0 105 30.5 203t85 184t130 157t164.5 122t188.5 79t203.5 28q128 0 235.5 -46.5t185 -127t121 -189.5t43.5 -234q0 -105 -30.5 -203t-85 -184t-130 -157t-164.5 -122t-188.5 -79t-203.5 -28q-128 0 -235.5 46.5t-185 127t-121 189.5t-43.5 234zM305 591 q0 -103 35.5 -192.5t99.5 -155.5t152.5 -104t194.5 -38q86 0 168.5 23t155.5 65t135 100.5t106.5 129.5t69.5 152t25 168q0 103 -35.5 192.5t-99.5 155.5t-152 104t-194 38q-86 0 -168.5 -23t-156 -65t-135 -100.5t-106.5 -129.5t-70 -152t-25 -168zM1147 911l-337 -578 h-124l329 563h-203l-22 -99h-95l24 198h442z" />
</font>
</defs>
</svg>
